/* XPM */
static char *result[] = {
/* columns rows colors chars-per-pixel */
"64 64 69 1 ",
"  c black",
". c #180000",
"X c gray11",
"o c #241400",
"O c #2C1800",
"+ c #342000",
"@ c #3C2404",
"# c #282828",
"$ c #343434",
"% c #482C04",
"& c #5C3000",
"* c #503008",
"= c #58380C",
"- c #603810",
"; c #743414",
": c #443434",
"> c #684000",
", c #785004",
"< c #644014",
"1 c #684014",
"2 c #6C4C18",
"3 c #744C1C",
"4 c #7C5820",
"5 c #000440",
"6 c #00044C",
"7 c #001474",
"8 c #002870",
"9 c #043478",
"0 c #304858",
"q c gray25",
"w c #4C4C4C",
"e c #544440",
"r c #585858",
"t c #685450",
"y c #445C6C",
"u c #6C6C6C",
"i c #786460",
"p c #886408",
"a c #98780C",
"s c #886428",
"d c #8C6C28",
"f c #907030",
"g c #9C7C3C",
"h c #8C7870",
"j c #A88C10",
"k c #BCA414",
"l c #D0C01C",
"z c #F4E020",
"x c #A88448",
"c c #B49054",
"v c #CCA874",
"b c #0428A0",
"n c #0C4084",
"m c #185090",
"M c #3470A4",
"N c #0C48CC",
"B c #4480B0",
"V c #848484",
"C c #9C8880",
"Z c #909090",
"A c #B09C90",
"S c gray66",
"D c #B4B4B4",
"F c #C0B0A4",
"G c #E8C498",
"H c #D4C4B4",
"J c gray80",
"K c #D8D8D8",
"L c None",
/* pixels */
"LLLLLLLLLLLLLLLLLLLLLLLLLLLLLLLLLLLLLLLLLLLLLLLLLLLLLLLLLLLLLLLL",
"LLLLLLLLLLLLLLLLLLLLLLLLLLLLLLLLLLLLLLLLLLLLLLLLLLLLLLLLLLLLLLLL",
"LLLLLLLLLLLLLLLLLLLLLLLLLLLLLLLLLLLLLLLLLLLLLLLLLLLLLLLLLLLLLLLL",
"LLLLLLLLLLLLLLLLLLLLLLLLLLLLLLLLLLLLLLLLLLLLLLLLLLLLLLLLLLLLLLLL",
"LLLLLLLLLLLLLLLLLLLLLLLLLLLLLLLLLLLLLLLLLLLLLLLLLLLLLLLLLLLLLLLL",
"LLLLLLLLLLLLLLLLLLLLLLLLLLLLLLLLLLLLLLLLLLLLLLLLLLLLLLLLLLLLLLLL",
"LLLLLLLLLLLLLLLLLLLLLLLLLLLLLLLLLLLLLLLLLLLLLLLLLLLLLLLLLLLLLLLL",
"LLLLLLLLLLLLLLLLLLLLLLLLLLLLLLLLLLLLLLLLLLLLLLLLLLLLLLLLLLLLLLLL",
"LLLLLLLLLLLLLLLLLLLLLLLLLLLLLLLLLLLLLLLLLLLLLLLLLLLLLLLLLLLLLLLL",
"LLLLLLLLLLLLLLLLLLLLLLLLLLLLLLLLLLLLLLLLLLLLLLLLLLLLLLLLLLLLLLLL",
"LLLLLLLLLLLLLLLLLLLLLLLLLLLLLLLLLLLLLLLLLLLLLLLLLLLLLLLLLLLLLLLL",
"LLLLLLLLLLLLLLLLLLLLLLLLLLLLLLLLLLLLLLLLLLLLLLLLLLLLLLLLLLLLLLLL",
"LLLLLLLLLLLLLLLLLLLLLLLLLLLLLLLLLLLLLLLLLLLLLLLLLLLLLLLLLLLLLLLL",
"LLLLLLLLLLLLLLLLLLLLLLLLLLLLLLLLLLLLLLLLLLLLLLLLLLLLLLLLLLLLLLLL",
"LLLLLLLLLLLLLLLLLLLLLLLLLLLLLLLLLLLLLLLLLLLLLLLLLLLLLLLLLLLLLLLL",
"LLLLLLLLLLLLLLLLLLLLLLLLLLLLLLLLLLLLLLLLLLLLLLLLLLLLLLLLLLLLLLLL",
"LLLLLLLLLLLLLLLLLLLLLLLLLLLLLLLLLLLLLLLLLLLLLLLLLLLLLLLLLLLLLLLL",
"LLLLLLLLLLLLLLLLLLLLLLLLLLLLLL++++LLLLLLLLLLLLLLLLLLLLLLLLLLLLLL",
"LLLLLLLLLLLLLLLLLLLLLLLLLLLLL+>22>+LLLLLLLLLLLLLLLLLLLLLLLLLLLLL",
"LLLLLLLLLLLLLLLLLLmLLLLLLLLL+>%%2%%+66LLLLLLLLLLLLLLLLLLLLLLLLLL",
"LLLLLLLLLLLLLLLLLLLLLLLLLLL&+>>%%>%>%b76LLLLLLLLLLLLLLLLLLLLLLLL",
"LLLLLLLLLLLLLLLLL9mm9LL6676&+>3--3>>%bb76LLLLLLLLLLLLLLLLLLLLLLL",
"LLLLLLLLLLLLLLLLn9559n67bbb&&3vGGv3&@bNb7LLLLLLLLLLLLLLLLLLLLLLL",
"LLLLLLLLLLLLLLLLB5  5B7bNNN&&scvvvs&+7Nb7LLLLLLLLLLLLLLLLLLLLLLL",
"LLLLLLLLLLLLLLLLn9559nbbNNN+&&+cfs+&+%bb76LLLLLLLLLLLLLLLLLLLLLL",
"LLLLLLLLLLLLLLmLLB88n7bbb7b+&,xx,x,&+@bbb6LLLLLLLLLLLLLLLLLLLLLL",
"LLLLLLLLLLLLLLLLLjMj77b776b+&2s%%s&&N%7bb6LLLLLLLLLLLLLLLLLLLLLL",
"LLLLLLLLLLLLLLLLLklkb777667b2@o&++2@b77bb76LLLLLLLLLLLLLLLLLLLLL",
"LLLLLLLLLLLLLLLLLjzjb7666677=o+,&o&<b7677b76LLLLLLLLLLLLLLLLLLLL",
"LLLLLLLLLLLLLLLL$pljVu076677o++,>&+&7b77bNb6LLLLLLLLLLLLLLLLLLLL",
"LLLLLLLLLLLLLLL$wpkpCht0677b6@+2>&+7bb7bNNb7LLLLLLLLLLLLLLLLLLLL",
"LLLLLLLLLLLLLL$iAHp1HrFV67bbb@@>&@ebbb7bNNb76LLLLLLLLLLLLLLLLLLL",
"LLLLLLLLLLLLLL$qHu*4FuCu67bbbasappabb:077bb70qLLLLLLLLLLLLLLLLLL",
"LLLLLLLLLLLLLL$FuF*4Vht067bbbjs-pkabbyFKKJDSAiLLLLLLLLLLLLLLLLLL",
"LLLLLLLLLLLLLLLiAA*14q07677bbks#4kjbb0FqKrKHqCLLLLLLLLLLLLLLLLLL",
"LLLLLLLLLLLLLLLqih1+c677677bbk=X*jkbb7VrKuKuFVLLLLLLLLLLLLLLLLLL",
"LLLLLLLLLLLLLLLLL1c1+067777bbl-oOatkbbbZKKKHC$LLLLLLLLLLLLLLLLLL",
"LLLLLLLLLLLLLLLLL1fxx:67777bbl2o adlbbb70gi6LLLLLLLLLLLLLLLLLLLL",
"LLLLLLLLLLLLLLLLLL1f;66777bbbl1. sdlbbb70xq6LLLLLLLLLLLLLLLLLLLL",
"LLLLLLLLLLLLLLLLLLL&+66777bbbjo  @jlbbb7776LLLLLLLLLLLLLLLLLLLLL",
"LLLLLLLLLLLLLLLLLLL;+67777bbka   O,jbbbb7776LLLLLLLLLLLLLLLLLLLL",
"LLLLLLLLLLLLLLLLLLL4+6777bbbk    oO0jbbb77776LLLLLLLLLLLLLLLLLLL",
"LLLLLLLLLLLLLLLLLLL4+6777bbbl     o0lbbbbb776LLLLLLLLLLLLLLLLLLL",
"LLLLLLLLLLLLLLLLLLL;+6777bbbl     oezbbbbbb76LLLLLLLLLLLLLLLLLLL",
"LLLLLLLLLLLLLLLLLLL&+p77bbbbz     O<zbbbb77apLLLLLLLLLLLLLLLLLLL",
"LLLLLLLLLLLLLLLLLLL&+Lp777bbz     o-l7777jaLLLLLLLLLLLLLLLLLLLLL",
"LLLLLLLLLLLLLLLLLLLL+L ajk77z      Oklkja LLLLLLLLLLLLLLLLLLLLLL",
"LLLLLLLLLLLLLLLLLLLLLL    kll             LLLLLLLLLLLLLLLLLLLLLL",
"LLLLLLLLLLLLLLLLLLLLLLLL                 LLLLLLLLLLLLLLLLLLLLLLL",
"LLLLLLLLLLLLLLLLLLLLLLLLLL    LLLLL    LLLLLLLLLLLLLLLLLLLLLLLLL",
"LLLLLLLLLLLLLLLLLLLLLLLLLLLLLLLLLLLLLLLLLLLLLLLLLLLLLLLLLLLLLLLL",
"LLLLLLLLLLLLLLLLLLLLLLLLLLLLLLLLLLLLLLLLLLLLLLLLLLLLLLLLLLLLLLLL",
"LLLLLLLLLLLLLLLLLLLLLLLLLLLLLLLLLLLLLLLLLLLLLLLLLLLLLLLLLLLLLLLL",
"LLLLLLLLLLLLLLLLLLLLLLLLLLLLLLLLLLLLLLLLLLLLLLLLLLLLLLLLLLLLLLLL",
"LLLLLLLLLLLLLLLLLLLLLLLLLLLLLLLLLLLLLLLLLLLLLLLLLLLLLLLLLLLLLLLL",
"LLLLLLLLLLLLLLLLLLLLLLLLLLLLLLLLLLLLLLLLLLLLLLLLLLLLLLLLLLLLLLLL",
"LLLLLLLLLLLLLLLLLLLLLLLLLLLLLLLLLLLLLLLLLLLLLLLLLLLLLLLLLLLLLLLL",
"LLLLLLLLLLLLLLLLLLLLLLLLLLLLLLLLLLLLLLLLLLLLLLLLLLLLLLLLLLLLLLLL",
"LLLLLLLLLLLLLLLLLLLLLLLLLLLLLLLLLLLLLLLLLLLLLLLLLLLLLLLLLLLLLLLL",
"LLLLLLLLLLLLLLLLLLLLLLLLLLLLLLLLLLLLLLLLLLLLLLLLLLLLLLLLLLLLLLLL",
"LLLLLLLLLLLLLLLLLLLLLLLLLLLLLLLLLLLLLLLLLLLLLLLLLLLLLLLLLLLLLLLL",
"LLLLLLLLLLLLLLLLLLLLLLLLLLLLLLLLLLLLLLLLLLLLLLLLLLLLLLLLLLLLLLLL",
"LLLLLLLLLLLLLLLLLLLLLLLLLLLLLLLLLLLLLLLLLLLLLLLLLLLLLLLLLLLLLLLL",
"LLLLLLLLLLLLLLLLLLLLLLLLLLLLLLLLLLLLLLLLLLLLLLLLLLLLLLLLLLLLLLLL"
};
