/* XPM */
static char *result[] = {
/* columns rows colors chars-per-pixel */
"64 63 138 2 ",
"   c #000100",
".  c #070807",
"X  c #080907",
"o  c #010B0B",
"O  c #0B0B0A",
"+  c #150000",
"@  c #0F100E",
"#  c #1E1000",
"$  c #100F10",
"%  c #0E1212",
"&  c #121312",
"*  c #181816",
"=  c #161918",
"-  c #1A1C1C",
";  c #310A0A",
":  c #251400",
">  c #2C1B00",
",  c #331E03",
"<  c #3E2503",
"1  c #1E2121",
"2  c #2B2D2B",
"3  c #232523",
"4  c #3B2C2C",
"5  c #2D312E",
"6  c #2C3332",
"7  c #343736",
"8  c #353937",
"9  c #363B3A",
"0  c #393D3B",
"q  c #402705",
"w  c #452906",
"e  c #492C07",
"r  c #4C3009",
"t  c #5A3701",
"y  c #5B3802",
"u  c #52310C",
"i  c #573710",
"p  c #5A3710",
"a  c #3C413E",
"s  c #5F4215",
"d  c #694504",
"f  c #6E4904",
"g  c #775707",
"h  c #7C5B07",
"j  c #7C5B08",
"k  c #644217",
"l  c #694C17",
"z  c #70531E",
"x  c #7B5F23",
"c  c #000342",
"v  c #252943",
"b  c #35384C",
"n  c #001065",
"m  c #021268",
"M  c #3D4340",
"N  c #3E4150",
"B  c #14467F",
"V  c #324471",
"C  c #364874",
"Z  c #3B4C76",
"A  c #3A517E",
"S  c #414643",
"D  c #454945",
"F  c #474C48",
"G  c #4A4D4B",
"H  c #4D524D",
"J  c #51544E",
"K  c #474B57",
"L  c #4A4D59",
"P  c #4E5450",
"I  c #525652",
"U  c #555A54",
"Y  c #595C56",
"T  c #575B58",
"R  c #5C5E5B",
"E  c #5D625C",
"W  c #61655E",
"Q  c #64685F",
"!  c #465074",
"~  c #435178",
"^  c #4B597C",
"/  c #626661",
"(  c #656A63",
")  c #696D65",
"_  c #696E68",
"`  c #6D7066",
"'  c #6E726A",
"]  c #72756C",
"[  c #75796E",
"{  c #797B6F",
"}  c #737472",
"|  c #767A71",
" . c #7A7D73",
".. c #866909",
"X. c #8A6D0B",
"o. c #967D0F",
"O. c #987E0F",
"+. c #866B18",
"@. c #816929",
"#. c #8D7431",
"$. c #937C41",
"%. c #7D8176",
"&. c #7D8279",
"*. c #9B810E",
"=. c #A58F10",
"-. c #AA9412",
";. c #AE9812",
":. c #B7A817",
">. c #B6A818",
",. c #B9AB26",
"<. c #808275",
"1. c #81857B",
"2. c #85897E",
"3. c #03228C",
"4. c #042491",
"5. c #093EB3",
"6. c #315384",
"7. c #425681",
"8. c #465982",
"9. c #495B83",
"0. c #4C658E",
"q. c #47779E",
"w. c #52779C",
"e. c #527EA2",
"r. c #5A82A5",
"t. c #868B82",
"y. c #898E84",
"u. c #898989",
"i. c #8C9187",
"p. c #8C9289",
"a. c #92978C",
"s. c #92988E",
"d. c #969B92",
"f. c #999E96",
"g. c gray62",
"h. c #BAAC9E",
"j. c #BDBEBE",
"k. c None",
/* pixels */
"k.k.k.k.k.k.k.k.k.k.k.k.k.k.k.k.k.k.k.k.k.k.k.k.k.k.k.k.k.k.k.k.k.k.k.k.k.k.k.k.k.k.k.k.k.k.k.k.k.k.k.k.k.k.k.k.k.k.k.k.k.k.k.k.",
"k.k.k.k.k.k.k.k.k.k.k.k.k.k.k.k.k.k.k.k.k.k.k.k.k.k.k.P p.i.y.y.y.i.y.y.p._ k.k.k.k.k.k.k.k.k.k.k.k.k.k.k.k.k.k.k.k.k.k.k.k.k.k.",
"k.k.k.k.k.k.k.k.k.k.k.k.k.k.k.k.k.k.k.k.k.k.k.k.k.k.k.y.s.2.i.i.y.y.t.2.&.t.E k.k.k.k.k.k.k.k.k.k.k.k.k.k.k.k.k.k.k.k.k.k.k.k.k.",
"k.k.k.k.k.k.k.k.k.k.k.k.k.k.k.k.k.k.k.k.k.k.k.k.k.k.6 y.|  .&.{ | &.' ( ( _ P k.k.k.k.k.k.k.k.k.k.k.k.k.k.k.k.k.k.k.k.k.k.k.k.k.",
"k.k.k.k.k.k.k.k.k.k.k.k.k.k.k.k.k.k.k.k.k.k.k.k.k.k.7 | %.%.%. . .1.' / ' ' M k.k.k.k.k.k.k.k.k.k.k.k.k.k.k.k.k.k.k.k.k.k.k.k.k.",
"k.k.k.k.k.k.k.k.k.k.k.k.k.k.k.k.k.k.k.k.k.k.k.k.k.k.k.Y &.| { %. .&.] ( ' W k.k.k.k.k.k.k.k.k.k.k.k.k.k.k.k.k.k.k.k.k.k.k.k.k.k.",
"k.k.k.k.k.k.k.k.k.k.k.k.k.k.k.k.k.k.k.k.k.k.k.k.k.k.k.I &.| %.{ | 1.] ' ' E 6 k.k.k.k.k.k.k.k.k.k.k.k.k.k.k.k.k.k.k.k.k.k.k.k.k.",
"k.k.k.k.k.k.k.k.k.k.k.k.k.k.k.k.k.k.k.k.k.k.k.k.k.H G F ] ] &.] |  .] [ ] T P R k.k.k.k.k.k.k.k.k.k.k.k.k.k.k.k.k.k.k.k.k.k.k.k.",
"k.k.k.k.k.k.k.k.k.k.k.k.k.k.k.k.J Y k.k.k.k.k.W %.p.&.F / | ] ( } %. . .| F t.d.t.] J k.k.k.k.) S k.k.k.k.k.k.k.k.k.k.k.k.k.k.k.",
"k.k.k.k.k.k.k.k.k.k.k.k.k.k.k.E r.&.Y k.k.Q &.y.&.| | F U | ' ' { ] [ &.' P t.| ' r.2.` k.k.] a.y.H k.k.k.k.k.k.k.k.k.k.k.k.k.k.",
"k.k.k.k.k.k.k.k.k.k.k.k.k.k.' y.&.&.' I Q s.2.' ' _ ] U G 2.&.%.1. . . .' / t.] ` Q ! 0.6.C a.2.y.y.G k.k.k.k.k.k.k.k.k.k.k.k.k.",
"k.k.k.k.k.k.k.k.k.k.k.k.k.E y.[ ' | | | Q 1.| %.&.%.[ ( Y %.%.&.1.1. .| / ' &.| [ A ! b v ^ 9.2.<.1.%.a k.k.k.k.k.k.k.k.k.k.k.k.",
"k.k.k.k.k.k.k.k.k.k.k.k.H y.| ] %.| | %.E U &.| | ] ] W G / ) ' _ ' _ _ I } %.]  .e.N 3 a K r.t.2.1.1. .k.k.k.k.k.k.k.k.k.k.k.k.",
"k.k.k.k.k.k.k.k.k.k.k.k.D | | ' [ %.| | &.I _ { &./ 2 = O 1 1 - - - - 3 % 2 0 ' ' 7.V b L ~ 8.1.<.t.2.Q k.k.k.k.k.k.k.k.k.k.k.k.",
"k.k.k.k.k.k.k.k.k.k.k.k.k.k.( &.| ' ' ' &.%.H E 5                             B 7 Y q.! ! 8.1. .%.2.R k.k.k.k.k.k.k.k.k.k.k.k.k.",
"k.k.k.k.k.k.k.k.k.k.k.k.k.k.F E %.[ | %.%._ 2       .     .         .     . .       x w.#.%.1.t.%.U Y k.k.k.k.k.k.k.k.k.k.k.k.k.",
"k.k.k.k.k.k.k.k.k.k.k.k.k.E t.H ` | ' | ( *   %                                 . O ..,.#.`  .%.S %.1.S k.k.k.k.k.k.k.k.k.k.k.k.",
"k.k.k.k.k.k.k.k.k.k.k.k.I i.2.%.H ' ' T 1   .                                       d :.+.E W D | 1.1.] 8 k.k.k.k.k.k.k.k.k.k.k.",
"k.k.k.k.k.k.k.k.k.k.k.k.&.2.] &./ M I 1   .                                         t >...5 a &.2.1.2.&.E k.k.k.k.k.k.k.k.k.k.k.",
"k.k.k.k.k.k.k.k.k.k.k.W &.] { %.t.E                                                 < >.g   S %.%.1.1.&.{ H k.k.k.k.k.k.k.k.k.k.",
"k.k.k.k.k.k.k.k.k.k.k.T { [ %.%.[ 8   .                                             # =.d X   H <.1.%.%.] F k.k.k.k.k.k.k.k.k.k.",
"k.k.k.k.k.k.k.k.k.k._ E U ) ] 1.(   .                                                 r >     - ` &.] Q U E k.k.k.k.k.k.k.k.k.k.",
"k.k.k.k.k.k.k.k.k.k. .2.] ( (  .8   .                                                 w >   X   a Q E ) [ [ H k.k.k.k.k.k.k.k.k.",
"k.k.k.k.k.k.k.k.k.k.1.] | 2.{ J                                                       < ,       - H %.&.[ ] Q k.k.k.k.k.k.k.k.k.",
"k.k.k.k.k.k.k.k.k.) %.[ ] ` | D   O                                                   < ,     O   E { ` ] { [ k.k.k.k.k.k.k.k.k.",
"k.k.k.k.k.k.k.k.k.Y <.] ] ] ` M   .                                                   , <     .   J ] ] ] [ %.k.k.k.k.k.k.k.k.k.",
"k.k.k.k.k.k.k.k.k.H [ ] ` ] E *                               : > #                   , <         5 ( ] ` [ [ 0 k.k.k.k.k.k.k.k.",
"k.k.k.k.k.k.k.k.k.) ) ) ) / 0   .                           > w w < #                 , <           F W / Y / E k.k.k.k.k.k.k.k.",
"k.k.k.k.k.k.P ' t.d.s.d.f.a.8                             # < u i w , #               > <       .   I p.a.1.p.d.a.%.' 9 k.k.k.k.",
"k.k.k.k.k.k.E %.] ' Y W ' ' 8                             : w k k i w #               r z r         G ] { | 1. .)  ./ 9 k.k.k.k.",
"k.k.k.k.k.k.| y.] &.| ] ' ] 8   .                         : w p k p w +               w #.z r   .   R 1.| %.2.&.{ { ( 9 k.k.k.k.",
"k.k.k.k.k.k.| y.' &.t.2.] ] 8                             $ w i i i < <                 G R } G X   E t.)  .%.%. .<./ 9 k.k.k.k.",
"k.k.k.k.k.k.) &. . .%.1. .' 8                     c c c c n l l k z 4 c c n n n c c n c n n n } G   ( p.]  . . . .%.( 9 k.k.k.k.",
"k.k.k.k.k.k.E | ] | [ }  .] 8   .               c n n n n n n +.#.x n n n 3.3.3.3.n c n n 3.3.n u.  / p.[ |  . .] ] E 0 k.k.k.k.",
"k.k.k.k.k.k.T ] Q Q / ) | ' 7                 c n 3.3.3.n 3.3.3.3.3.3.3.3.3.5.5.5.3.n c n 3.3.3.g.} R t.] ' ] ` / ( U 0 k.k.k.k.",
"k.k.k.k.k.k.I / E Y U P U Y 7                 c 3.5.5.3.3.3.5.5.5.5.5.5.3.3.5.5.3.3.3.n c n 3.n R g.F E I J I R R T I 0 k.k.k.k.",
"k.k.k.k.k.k.a 0 0 D E ' ^ E 9   .             c 3.5.5.3.3.5.5.5.5.5.5.5.5.3.3.n n 3.3.3.n c m c 7 j.0 Y ] | R M 0 S b k.k.k.k.k.",
"k.k.k.k.k.k.k.k.k.( a.f.d.$.9                 c 3.5.3.3.n 3.3.3.5.5.3.3.3.3.n c n n 3.3.3.3.c c h.G T u.p.i.| F k.k.k.k.k.k.k.k.",
"k.k.k.k.k.k.k.k.k.Q t.u. .{ 0               c n n 5.3.n n 3.3.3.3.3.3.3.3.n n c c c n n 3.n c R u.W / d.) _ _ D k.k.k.k.k.k.k.k.",
"k.k.k.k.k.k.k.k.k.Y %.y. .{ 0   .           c n n 5.3.n n n 3.3.3.3.3.n n n n c     c c c , G 7 u.  ( u.[  .| G k.k.k.k.k.k.k.k.",
"k.k.k.k.k.k.k.k.k.T ] { <. .8               n n 3.3.3.n n n n n 3.3.n n 3.n n c         , , R u.R   E t.] ) [ G k.k.k.k.k.k.k.k.",
"k.k.k.k.k.k.k.k.k.U ]  .<.] 8           G n 3.3.5.3.n c n n 3.n n n n 3.3.n n c         , ,   } .   T &.W Q ) F k.k.k.k.k.k.k.k.",
"k.k.k.k.k.k.k.k.k.R [ [ ] ) 8   .     R n 3.3.5.5.3.c n n 3.3.3.n n 3.3.3.3.n n c       , <         I  .( R / F k.k.k.k.k.k.k.k.",
"k.k.k.k.k.k.k.k.k.E ] _ Q Q 8         8 n 3.5.5.5.3.c n n 3.3.3.n n 3.3.3.3.n n c       > <         G ] ] ( _ K k.k.k.k.k.k.k.k.",
"k.k.k.k.k.k.k.k.k.7 M M 0 5 7         g.R 3.5.5.5.3.c n 3.3.3.3.n n 3.3.3.3.n n c       : w         S F D D F 7 k.k.k.k.k.k.k.k.",
"k.k.k.k.k.k.T  .y.i.y.y.&.&.9   X     7 G 3.5.5.3.n c n 3.3.3.n n n 3.3.3.3.n n c c     : w     .   G  .1.1.r.$.| ] _ M k.k.k.k.",
"k.k.k.k.k.k.W y.1.2.y.i.t.&.9   .     R g.n 3.3.3.n c n 3.3.3.n n n 3.3.3.3.n n c c     + >     O   / s.{ <. . .t.2.( 7 k.k.k.k.",
"k.k.k.k.k.k.( 1.] ]  .| | ) 7           g.R T G n c n n 3.3.3.3.n n 3.3.3.3.n n c c c           .   R  .U ( ] 1.1.<.W 9 k.k.k.k.",
"k.k.k.k.k.k._ &.[ &.1.[ [ ` 7   .       R 2 G   n c n n 3.3.3.3.3.n 3.3.3.3.n n c c c           X   / y.W ) $.s.r.$.( b k.k.k.k.",
"k.k.k.k.k.k.| t.] t.<.[ ` ' 9             }     n c n n 3.3.3.3.3.3.3.3.3.3.3.n c n c c         O   / s.`  .r.$.w.1./ 9 k.k.k.k.",
"k.k.k.k.k.k.' t.[ %.<.{ ' ' 7   .             c c c n n 3.3.3.3.3.3.3.3.3.3.3.n c n c c         .   E p.%.<.%.%.$. ._ S k.k.k.k.",
"k.k.k.k.k.k.( 2.[ <.1.] ' ( 7                 c n c n 3.3.3.3.3.3.3.3.3.3.3.3.n n n n c         .   R t.%. . .t.w.$./ b k.k.k.k.",
"k.k.k.k.k.k.Y  .[ | ' ( ( W 8   .           c n n n n 3.3.3.3.3.3.n 3.3.3.3.3.n n 3.3.n c           F }  . .' | } ( J 0 k.k.k.k.",
"k.k.k.k.k.k.G T R H S G G H 8               c n 3.n n 3.3.3.3.3.n n 3.3.3.3.3.m 3.3.3.3.m c . . . O 0 M S S G P G 0 D M k.k.k.k.",
"k.k.k.k.k.k.k.k.k.J &.y. .] 7   .         c n 3.3.n n 3.3.3.3.m n n n 3.4.3.3.m 4.3.3.m m y . . O   D | i.y.| D k.k.k.k.k.k.k.k.",
"k.k.k.k.k.k.k.k.k.R ] | %. .8             c 3.3.3.n n 3.3.3.m m m O.O.3.4.4.3.m 4.3.m h k   . . &   R y.] | | G k.k.k.k.k.k.k.k.",
"k.k.k.k.k.k.k.k.k.Y ' | | { 0             y m 3.3.n m 3.4.m m m O.w q -.O.4.4.X.*.X.h f . . . . =   ( p.) [ ] F k.k.k.k.k.k.k.k.",
"k.k.k.k.k.k.k.k.k.E %.[ ' { 0         . X O y k m n m m m j -.*.  t e   j ;.O.=.      k.k.k.k.X *   / y.'  .| D k.k.k.k.k.k.k.k.",
"k.k.k.k.k.k.k.k.k.W 1.] '  .8     . X O O O O   y X.O.-.O...      e < +             k.k.k.k.k.k.k.k.Y 1.' ] &.H k.k.k.k.k.k.k.k.",
"k.k.k.k.k.k.k.k.k.E &.] ' ' 8   O O O O X X X     .                               k.k.k.k.k.k.k.k.k.I | ]  .1.J k.k.k.k.k.k.k.k.",
"k.k.k.k.k.k.k.k.k.R | ) Q W 8   $ O O O . X O O O                   k.k.k.k.k.k.k.k.k.k.k.k.k.k.k.k.H [ | 1.2.H k.k.k.k.k.k.k.k.",
"k.k.k.k.k.k.k.k.k.U ( W W R 0   & $ @ o O O @ $ @ k.k.k.k.k.k.k.k.k.k.k.k.k.k.k.k.k.k.k.k.k.k.k.k.k.D ' ' ' | G k.k.k.k.k.k.k.k.",
"k.k.k.k.k.k.k.k.k.M a S M 0 7 $ * & $ ; O O & k.k.k.k.k.k.k.k.k.k.k.k.k.k.k.k.k.k.k.k.k.k.k.k.k.k.k.7 a M M D M k.k.k.k.k.k.k.k."
};
