/* XPM */
static char *result[] = {
/* columns rows colors chars-per-pixel */
"64 63 108 2 ",
"   c #010101",
".  c #0C0200",
"X  c #070807",
"o  c #080807",
"O  c #010B0B",
"+  c #0A0A0A",
"@  c #110606",
"#  c #150900",
"$  c #1A0D00",
"%  c #0F100E",
"&  c #100F10",
"*  c #0E1212",
"=  c #131313",
"-  c #181816",
";  c #161918",
":  c #1A1C1C",
">  c #310A0A",
",  c #241402",
"<  c #2D1A02",
"1  c #271808",
"2  c #2F1D08",
"3  c #331D04",
"4  c #3A2206",
"5  c #392409",
"6  c #000230",
"7  c #1E2121",
"8  c #202020",
"9  c #2B2020",
"0  c #2B2A27",
"q  c #2A2B2A",
"w  c #2D312E",
"e  c #2C3332",
"r  c #333635",
"t  c #353937",
"y  c #363B3A",
"u  c #393B3A",
"i  c #442800",
"p  c #412809",
"a  c #4F3302",
"s  c #46300C",
"d  c #4C300F",
"f  c #4F380F",
"g  c #543E15",
"h  c #3C413E",
"j  c #5A4105",
"k  c #5A4209",
"l  c #5C4617",
"z  c #654F06",
"x  c #705C07",
"c  c #705D0A",
"v  c #624F1D",
"b  c #7E6D0B",
"n  c #565138",
"m  c #6A5722",
"M  c #00094C",
"N  c #02176A",
"B  c #3D4340",
"V  c #434645",
"C  c #454945",
"Z  c #474C48",
"A  c #494D4A",
"S  c #4D524D",
"D  c #5C5C46",
"F  c #51544D",
"G  c #4E5450",
"H  c #535653",
"J  c #555A54",
"K  c #595C56",
"L  c #565A59",
"P  c #5A5E59",
"I  c #5D625C",
"U  c #646256",
"Y  c #61655E",
"T  c #64685F",
"R  c #626661",
"E  c #656A63",
"W  c #696D65",
"Q  c #676D6A",
"!  c #696C68",
"~  c #6D7066",
"^  c #6E726A",
"/  c #717563",
"(  c #72756C",
")  c #75796E",
"_  c #797B6E",
"`  c #6C7372",
"'  c #727770",
"]  c #757A71",
"[  c #7A7D73",
"{  c gray47",
"}  c #7D8176",
"|  c #7D8279",
" . c #818276",
".. c #81857B",
"X. c #8F8478",
"o. c #85897E",
"O. c #8C8E7C",
"+. c #052D89",
"@. c #868B82",
"#. c #898E84",
"$. c #8D9186",
"%. c #8C9289",
"&. c #92978C",
"*. c #92988E",
"=. c gray57",
"-. c #969B92",
";. c #999E96",
":. c None",
/* pixels */
":.:.:.:.:.:.:.:.:.:.:.:.:.:.:.:.:.:.:.:.:.:.:.:.:.:.:.:.:.:.:.:.:.:.:.:.:.:.:.:.:.:.:.:.:.:.:.:.:.:.:.:.:.:.:.:.:.:.:.:.:.:.:.:.",
":.:.:.:.:.:.:.:.:.:.:.:.:.:.:.:.:.:.:.:.:.:.:.:.:.:.:.G %.#.#.@.@.%.@.$.%.Q :.:.:.:.:.:.:.:.:.:.:.:.:.:.:.:.:.:.:.:.:.:.:.:.:.:.",
":.:.:.:.:.:.:.:.:.:.:.:.:.:.:.:.:.:.:.:.:.:.:.:.:.:.:.#.*.o.$.$.$.#.@.@.o...I :.:.:.:.:.:.:.:.:.:.:.:.:.:.:.:.:.:.:.:.:.:.:.:.:.",
":.:.:.:.:.:.:.:.:.:.:.:.:.:.:.:.:.:.:.:.:.:.:.:.:.:.e #.[ [ | ) ] | ^ E E ~ G :.:.:.:.:.:.:.:.:.:.:.:.:.:.:.:.:.:.:.:.:.:.:.:.:.",
":.:.:.:.:.:.:.:.:.:.:.:.:.:.:.:.:.:.:.:.:.:.:.:.:.:.e } } ] } _ [ ..! I ^ ^ B :.:.:.:.:.:.:.:.:.:.:.:.:.:.:.:.:.:.:.:.:.:.:.:.:.",
":.:.:.:.:.:.:.:.:.:.:.:.:.:.:.:.:.:.:.:.:.:.:.:.:.:.:.I } } _ } [ ..( W ~ Y :.:.:.:.:.:.:.:.:.:.:.:.:.:.:.:.:.:.:.:.:.:.:.:.:.:.",
":.:.:.:.:.:.:.:.:.:.:.:.:.:.:.:.:.:.:.:.:.:.:.:.:.:.:.H } ' } ) [ | ( ^ ~ I e :.:.:.:.:.:.:.:.:.:.:.:.:.:.:.:.:.:.:.:.:.:.:.:.:.",
":.:.:.:.:.:.:.:.:.:.:.:.:.:.:.:.:.:.:.:.:.:.:.:.:.S S C ) ' | ) [ [ ( ] ' L G I :.:.:.:.:.:.:.:.:.:.:.:.:.:.:.:.:.:.:.:.:.:.:.:.",
":.:.:.:.:.:.:.:.:.:.:.:.:.:.:.:.G I :.:.:.:.:.R } %.| Z T ] ( E ' [ [ [ ] Z @.-.@.` S :.:.:.:.! V :.:.:.:.:.:.:.:.:.:.:.:.:.:.:.",
":.:.:.:.:.:.:.:.:.:.:.:.:.:.:.I | | F :.:.I | @.| ) ' Z H ] ^ ^ ] ( ( ..^ G @.] ^ ..@.Q y :.^ &.#.G :.:.:.:.:.:.:.:.:.:.:.:.:.:.",
":.:.:.:.:.:.:.:.:.:.:.:.:.:.^ #.| | ^ J I -.o.~ ^ Q ' J A o...[ o.[ [ [ ^ R o.` Q Q ` #.L Q &.O.#.#.Z :.:.:.:.:.:.:.:.:.:.:.:.:.",
":.:.:.:.:.:.:.:.:.:.:.:.:.I #.) ^ ] ] ' E | } } | } ' W J  .[ ..| ..[ ] R ^ | ) ) ^ ^ Q D $.@.o. . .} h :.:.:.:.:.:.:.:.:.:.:.:.",
":.:.:.:.:.:.:.:.:.:.:.:.S $.' ) } ] ] } R H o.] ] ] ' I Z Y W ^ ! ( ^ ! H ( | ] } ' } D _ O...o.o. ...[ :.:.:.:.:.:.:.:.:.:.:.:.",
":.:.:.:.:.:.:.:.:.:.:.:.C ' ] ^ ] ] ] ] | G W ) } R q : * 7 7 : : : 7 8 * q u ^ ^ } U ~ $.} o.| | $.@.R :.:.:.:.:.:.:.:.:.:.:.:.",
":.:.:.:.:.:.:.:.:.:.:.:.:.:.E | } ^ ^ ( | ] S I w                               e I S O.o. . . .} o.K :.:.:.:.:.:.:.:.:.:.:.:.:.",
":.:.:.:.:.:.:.:.:.:.:.:.:.:.C Y } ] ) } } Q q       X                     X         n |  ._ ..@.} J J :.:.:.:.:.:.:.:.:.:.:.:.:.",
":.:.:.:.:.:.:.:.:.:.:.:.:.I @.S ~ ] ^ ] E :   %                                   + . n T ~ [ } C } ..C :.:.:.:.:.:.:.:.:.:.:.:.",
":.:.:.:.:.:.:.:.:.:.:.:.H %.o.} S ^ ^ P 7   X                                       X < 0 I Y C ] ....~ t :.:.:.:.:.:.:.:.:.:.:.",
":.:.:.:.:.:.:.:.:.:.:.:.| o.~ } R B H :   X                                           3 $ w h ..#.| o.| I :.:.:.:.:.:.:.:.:.:.:.",
":.:.:.:.:.:.:.:.:.:.:.Y | ) [ } @.I                                                   < 1   V [ } o...| ) S :.:.:.:.:.:.:.:.:.:.",
":.:.:.:.:.:.:.:.:.:.:.K ) ) } } ) t   X                                               < , o   S }  .} } ) Z :.:.:.:.:.:.:.:.:.:.",
":.:.:.:.:.:.:.:.:.:.! I J W ( ..E   X                                                 , <     : ~ | / T J I :.:.:.:.:.:.:.:.:.:.",
":.:.:.:.:.:.:.:.:.:.[ o.( W E [ t                             $ $ #                   , <   o   h T I W ) ) S :.:.:.:.:.:.:.:.:.",
":.:.:.:.:.:.:.:.:.:...( ] o.) F                             , 3 3 < #                 , <       : S } | ' ) R :.:.:.:.:.:.:.:.:.",
":.:.:.:.:.:.:.:.:.W  .) ( / ] V   +                       # < 4 p 3 , #               $ <     +   I _ W _ ] ] :.:.:.:.:.:.:.:.:.",
":.:.:.:.:.:.:.:.:.J  .( ( ( ( h   X                       $ 3 d d p 3 #               4 g 4   o   F ( ( ( (  .:.:.:.:.:.:.:.:.:.",
":.:.:.:.:.:.:.:.:.F ) / W ( I ;                           $ 3 p d p 3 .               3 m g 4     w W ( ~ ( ( u :.:.:.:.:.:.:.:.",
":.:.:.:.:.:.:.:.:.W ! W W E t   X                         o 3 p p p < <                 t C L t     Z T R K Y I :.:.:.:.:.:.:.:.",
":.:.:.:.:.:.G ^ @.-.-.;.;.&.t                     6 6 6 6 M f g d g 9 6 6 M M M 6 6 M 6 M M M L u   G %.&.o.$.-.&.| ^ y :.:.:.:.",
":.:.:.:.:.:.Y } ( ^ K Y ^ ^ t                   6 M M M M M M v m l M M M N N N N M 6 M M N N M !   A ( ] ] ..[ W [ R t :.:.:.:.",
":.:.:.:.:.:.' @.( | ] ! ~ ( t                 6 M N N N M N N N N N N N N N +.+.+.N M 6 M N N N { L P ..] } o.| _ _ E y :.:.:.:.",
":.:.:.:.:.:.] $.^ | #.o.( ( u   X             6 N +.+.N N N +.+.+.+.+.+.N N +.+.N N N M 6 M N M V { R @.~ ] } } [  .R y :.:.:.:.",
":.:.:.:.:.:.W | ] [ } ..[ ~ t                 6 N +.+.N N +.+.+.+.+.+.+.+.N N M M N N N M 6 M 6 q =.E %.( [ } [ [ } E y :.:.:.:.",
":.:.:.:.:.:.I ] ( ] ] ( [ ( t                 6 N +.N N M N N N +.+.N N N N M 6 M M N N N N 6 6 X.u R %.( ] [ [ ( ( I y :.:.:.:.",
":.:.:.:.:.:.L ( T E E W ] ^ r   X           6 M M +.N M M N N N N N N N N M M 6 6 6 M M N M 6 C ! V L #.( ~ ^ ^ E E J u :.:.:.:.",
":.:.:.:.:.:.H E I K H H H P t               6 M M +.N M M M N N N N N M M M M 6     6 6 6 , t 0 !   Z I H F J P L J H B :.:.:.:.",
":.:.:.:.:.:.h u u C I ^ E J t               M M N N N M M M M M N N M M N M M 6         1 , V E V X u P ( { P h u B h :.:.:.:.:.",
":.:.:.:.:.:.:.:.:.E *.;.&.} t   X       u M N N +.N M 6 M M N M M M M N N M M 6         , ,   J     H %.$.%.] A :.:.:.:.:.:.:.:.",
":.:.:.:.:.:.:.:.:.R #.#.[ _ u         C M N N +.+.N 6 M M N N N M M N N N N M M 6       , 3     +   R %.W W ! C :.:.:.:.:.:.:.:.",
":.:.:.:.:.:.:.:.:.K [ #.} _ t         0 M N +.+.+.N 6 M M N N N M M N N N N M M 6       $ <     +   W %.( [ ] S :.:.:.:.:.:.:.:.",
":.:.:.:.:.:.:.:.:.J ( [  ._ t   X     { C N +.+.+.N 6 M N N N N M M N N N N M M 6       $ 3     o   I @.( ^ ' A :.:.:.:.:.:.:.:.",
":.:.:.:.:.:.:.:.:.J ( }  .( t         0 t N +.+.N M 6 M N N N M M M N N N N M M 6 6     $ 3     X   L | Y R ! C :.:.:.:.:.:.:.:.",
":.:.:.:.:.:.:.:.:.P ) ) / W t         C { M N N N M 6 M N N N M M M N N N N M M 6 6     . $         H [ E P R Z :.:.:.:.:.:.:.:.",
":.:.:.:.:.:.:.:.:.I ( ! R E t   X       { V h u M 6 M M N N N N M M N N N N M M 6 6 6               A ( ( R ~ A :.:.:.:.:.:.:.:.",
":.:.:.:.:.:.:.:.:.e B V u w r           V 9 u   M 6 M M N N N N N M N N N N M M 6 6 6               V C C C Z r :.:.:.:.:.:.:.:.",
":.:.:.:.:.:.J [ #.%.#.@.| | t             L     M 6 M M N N N N N N N N N N N M 6 M 6 6             A | ....| ] { ( Q B :.:.:.:.",
":.:.:.:.:.:.R #.o.@.@.$.@.| t   X             6 6 6 M M N N N N N N N N N N N M 6 M 6 6         +   R %.[ ..} [ @.o.E r :.:.:.:.",
":.:.:.:.:.:.W ../ ) [ ) [ ! r                 6 M 6 M N N N N N N N N N N N N M M M M 6         X   I [ F T ( ....} Y y :.:.:.:.",
":.:.:.:.:.:.! | ) ....) ) ~ t   X           6 M M M M N N N N N N M N N N N N M M N N M 6       +   Y #.U W [ #..._ R B :.:.:.:.",
":.:.:.:.:.:.' #.) o. .) ~ ^ t               6 M N M M N N N N N M M N N N N N M N N N N M 6     +   E &.( ] } } _ } R y :.:.:.:.",
":.:.:.:.:.:.^ @.) } } _ ^ ! t             6 M N N M M N N N N M M M M N N N N M N N N M M i     X   I %. . . . .( _ E V :.:.:.:.",
":.:.:.:.:.:.E o.) } ..( ( E r             6 N N N M M N N N M M M x x N N N N M N N M j p       X   L @.[ [ [ @.[ ( Y u :.:.:.:.",
":.:.:.:.:.:.K [ ) ] ^ W W Y t   X         i M N N M M N N M M M x 3 < b c N N z c z a a             C ' [ [ ^ ] ^ W G y :.:.:.:.",
":.:.:.:.:.:.A L P S B A A S r               i p M M M M M a b c   5 3   k b c c X X X o     + + X + u B B Z A G G y Z h :.:.:.:.",
":.:.:.:.:.:.:.:.:.F | #.[ ( r                   i z c b b k     + 2 1 @ o   X X X   o o + + X X +   C ] %.%.] C :.:.:.:.:.:.:.:.",
":.:.:.:.:.:.:.:.:.P ( ] } [ t                       X X   + + X     X X X         X X X X X   X =   P #.( ' ] Z :.:.:.:.:.:.:.:.",
":.:.:.:.:.:.:.:.:.K ( ' ] [ u   X           X + +   +   +         + + +   +     X X   X   X X X =   W %.~ ) ( C :.:.:.:.:.:.:.:.",
":.:.:.:.:.:.:.:.:.I } ' ^ _ u           + + + + + + + + + X + + + X   X X   X :.:.:.:.:.:.:.:.+ -   R #.^ [ ] Z :.:.:.:.:.:.:.:.",
":.:.:.:.:.:.:.:.:.Y  .( ^ [ t   X   + + + + + + + + X X   + + X   + :.:.:.:.:.:.:.:.:.:.:.:.:.:.:.:.K ..^ ( | S :.:.:.:.:.:.:.:.",
":.:.:.:.:.:.:.:.:.Y | ( ^ ~ t   + + + + + + X X + + +   X :.:.:.:.:.:.:.:.:.:.:.:.:.:.:.:.:.:.:.:.:.H ] ) ) ..S :.:.:.:.:.:.:.:.",
":.:.:.:.:.:.:.:.:.I ] W E Y t   & & + + + + + + + + X :.:.:.:.:.:.:.:.:.:.:.:.:.:.:.:.:.:.:.:.:.:.:.S ) ] ..@.F :.:.:.:.:.:.:.:.",
":.:.:.:.:.:.:.:.:.H W I Y P u   = & + O + + + & & :.:.:.:.:.:.:.:.:.:.:.:.:.:.:.:.:.:.:.:.:.:.:.:.:.C ^ ! ^ ] A :.:.:.:.:.:.:.:.",
":.:.:.:.:.:.:.:.:.B h C B u t & = = = > + + = :.:.:.:.:.:.:.:.:.:.:.:.:.:.:.:.:.:.:.:.:.:.:.:.:.:.:.t h B B C B :.:.:.:.:.:.:.:."
};
