/* XPM */
static char *result[] = {
/* columns rows colors chars-per-pixel */
"64 63 106 2 ",
"   c #000000",
".  c #070807",
"X  c #080907",
"o  c #010B0B",
"O  c #0A0B0A",
"+  c #180000",
"@  c #0F100E",
"#  c #100F10",
"$  c #0E1212",
"%  c #131313",
"&  c #181816",
"*  c #161918",
"=  c #1A1C1C",
"-  c #310A0A",
";  c #241400",
":  c #2C1800",
">  c #342000",
",  c #3C2404",
"<  c #1E2121",
"1  c #2A2D2B",
"2  c #2D312E",
"3  c #2C3332",
"4  c #333635",
"5  c #353937",
"6  c #363B3A",
"7  c #393D3B",
"8  c #482C04",
"9  c #503008",
"0  c #58380C",
"q  c #603810",
"w  c #443434",
"e  c #3C413E",
"r  c #684000",
"t  c #785004",
"y  c #644014",
"u  c #684014",
"i  c #6C4C18",
"p  c #744C1C",
"a  c #78581C",
"s  c #000440",
"d  c #00044C",
"f  c #001474",
"g  c #002870",
"h  c #043478",
"j  c #3D4340",
"k  c #414442",
"l  c #454945",
"z  c #474C48",
"x  c #494D4A",
"c  c #4D524D",
"v  c #51544E",
"b  c #4E5450",
"n  c #515651",
"m  c #555A55",
"M  c #595C56",
"N  c #575B58",
"B  c #595C59",
"V  c #5D625C",
"C  c #61655E",
"Z  c #64685F",
"A  c #626661",
"S  c #656A63",
"D  c #696D65",
"F  c #6B6D6A",
"G  c #6D7066",
"H  c #6E726A",
"J  c #72756C",
"K  c #75796E",
"L  c #797B6F",
"P  c #727770",
"I  c #767A71",
"U  c #7A7D73",
"Y  c #886408",
"T  c #98780C",
"R  c #806024",
"E  c #8C6C28",
"W  c #947830",
"Q  c #7D8176",
"!  c #7D8279",
"~  c #A88C10",
"^  c #BCA414",
"/  c #A08438",
"(  c #D0C01C",
")  c #808275",
"_  c #81857B",
"`  c #85897E",
"'  c #0428A0",
"]  c #0C4084",
"[  c #185090",
"{  c #3470A4",
"}  c #0C48CC",
"|  c #4480B0",
" . c #848484",
".. c #868B82",
"X. c #898E84",
"o. c #8C9187",
"O. c #8C9289",
"+. c #92978C",
"@. c #92988E",
"#. c #969B92",
"$. c #999E96",
"%. c gray61",
"&. c #B4B4B4",
"*. c #D4C4B4",
"=. c #D8D8D8",
"-. c None",
/* pixels */
"-.-.-.-.-.-.-.-.-.-.-.-.-.-.-.-.-.-.-.-.-.-.-.-.-.-.-.-.-.-.-.-.-.-.-.-.-.-.-.-.-.-.-.-.-.-.-.-.-.-.-.-.-.-.-.-.-.-.-.-.-.-.-.-.",
"-.-.-.-.-.-.-.-.-.-.-.-.-.-.-.-.-.-.-.-.-.-.-.-.-.-.-.M O.X.X.X...o.X.X.O.F -.-.-.-.-.-.-.-.-.-.-.-.-.-.-.-.-.-.-.-.-.-.-.-.-.-.",
"-.-.-.-.-.-.-.-.-.-.-.-.-.-.-.-.-.-.-.-.-.-.-.-.-.-.-.o.@...o.X.X.X.......! V -.-.-.-.-.-.-.-.-.-.-.-.-.-.-.-.-.-.-.-.-.-.-.-.-.",
"-.-.-.-.-.-.-.-.-.-.-.-.-.-.-.-.-.-.-.-.-.-.-.-.-.-.2 o.U U ) U I ! H S S G b -.-.-.-.-.-.-.-.-.-.-.-.-.-.-.-.-.-.-.-.-.-.-.-.-.",
"-.-.-.-.-.-.-.-.-.-.-.-.-.-.-.-.-.-.-.-.-.-.-.-.-.-.4 U U Q U U ! ) H A H H j -.-.-.-.-.-.-.-.-.-.-.-.-.-.-.-.-.-.-.-.-.-.-.-.-.",
"-.-.-.-.-.-.-.-.-.-.-.-.-.-.-.-.-.-.-.-.-.-.-.-.-.-.-.M ! I L U U ) J S G A -.-.-.-.-.-.-.-.-.-.-.-.-.-.-.-.-.-.-.-.-.-.-.-.-.-.",
"-.-.-.-.-.-.-.-.-.-.-.-.-.-.-.-.-.-.-.-.-.-.-.-.-.-.-.n ! K U K I ! J H H V 3 -.-.-.-.-.-.-.-.-.-.-.-.-.-.-.-.-.-.-.-.-.-.-.-.-.",
"-.-.-.-.-.-.-.-.-.-.-.-.-.-.-.-.-.-.-.-.-.-.-.-.-.v x z K K _ K U U H K K B b B -.-.-.-.-.-.-.-.-.-.-.-.-.-.-.-.-.-.-.-.-.-.-.-.",
"-.-.-.-.-.-.-.-.-.-.-.-.-.-.-.-.b V -.-.-.-.-.G Q O.! z A I J S P U U U I z ..$.X.L p -.-.-.-.G k -.-.-.-.-.-.-.-.-.-.-.-.-.-.-.",
"-.-.-.-.-.-.-.-.-.-.-.-.-.-.-.V ! ! v -.-.V ) | ! K P z m I H H I J P ) G b ..P H | X.H -.-.J +.o.b -.-.-.-.-.-.-.-.-.-.-.-.-.-.",
"-.-.-.-.-.-.-.-.-.-.-.-.-.-.H X.! ! H n V #.` G H D K m x ` ! U  .U U U H A ..J G S I o.M G +.` X.X.z -.-.-.-.-.-.-.-.-.-.-.-.-.",
"-.-.-.-.-.-.-.-.-.-.-.-.-.V X.K H P Q P S ! Q Q ! ! K S N ) Q _ ) _ U I A H ! J K H H D v o.` X.) ) Q e -.-.-.-.-.-.-.-.-.-.-.-.",
"-.-.-.-.-.-.-.-.-.-.-.-.c o.K K Q P P Q V m ! U P P P V x A D H D H H D n P ! K Q H h [ [ h ` ` ` _ _ U -.-.-.-.-.-.-.-.-.-.-.-.",
"-.-.-.-.-.-.-.-.-.-.-.-.l P I H Q P Q P ! n D K ! A 1 = O < < = = < = < $ 1 7 H H ] h s s h ] Q ) X.` A -.-.-.-.-.-.-.-.-.-.-.-.",
"-.-.-.-.-.-.-.-.-.-.-.-.-.-.S ! Q H H H ! Q c V 2                               4 | s     s | Q Q _ B -.-.-.-.-.-.-.-.-.-.-.-.-.",
"-.-.-.-.-.-.-.-.-.-.-.-.-.-.l V Q I P Q Q D 1       .     .       .   .   .   .   ] h s s h ] ..Q M M -.-.-.-.-.-.-.-.-.-.-.-.-.",
"-.-.-.-.-.-.-.-.-.-.-.-.-.V ..c G I H I S *   @                               [ . O | g g ] U Q l ! _ l -.-.-.-.-.-.-.-.-.-.-.-.",
"-.-.-.-.-.-.-.-.-.-.-.-.n o.` Q c H H N <   .                                       Y { T V Z l I ! _ G 6 -.-.-.-.-.-.-.-.-.-.-.",
"-.-.-.-.-.-.-.-.-.-.-.-.! ` H ! S j n <   .                                         T ( T 1 e ! X.! ` Q V -.-.-.-.-.-.-.-.-.-.-.",
"-.-.-.-.-.-.-.-.-.-.-.A ! K L Q _ A                                                 t ( T   k Q Q ` ` ! K c -.-.-.-.-.-.-.-.-.-.",
"-.-.-.-.-.-.-.-.-.-.-.N L K Q Q K 5   .                                             r ( T O   c Q ! Q Q J z -.-.-.-.-.-.-.-.-.-.",
"-.-.-.-.-.-.-.-.-.-.D V n D J _ S   .                                               8 ( Y     = G Q J Z m V -.-.-.-.-.-.-.-.-.-.",
"-.-.-.-.-.-.-.-.-.-.U ` J D S U 5   .                                               ; ^ t   X   e S V D K K c -.-.-.-.-.-.-.-.-.",
"-.-.-.-.-.-.-.-.-.-._ J I ` K v                                                       0 >       = c Q Q J K Z -.-.-.-.-.-.-.-.-.",
"-.-.-.-.-.-.-.-.-.D Q K J G L l   O                                                   9 >     O   V L G K L L -.-.-.-.-.-.-.-.-.",
"-.-.-.-.-.-.-.-.-.M ) J J J J e   .                                                   8 ,     .   v J J H K U -.-.-.-.-.-.-.-.-.",
"-.-.-.-.-.-.-.-.-.c K J G J V *                                                       8 ,         2 S J J J K 7 -.-.-.-.-.-.-.-.",
"-.-.-.-.-.-.-.-.-.D D D D A 6   .                                                     , 8           z C Z M C V -.-.-.-.-.-.-.-.",
"-.-.-.-.-.-.b H ..#.@.#.$.+.5                                 : > ;                   , 8       .   n O.+._ O.#.O.Q H 6 -.-.-.-.",
"-.-.-.-.-.-.V Q J H M C H J 5   .                           > 9 9 8 ;                 , 8           x J K U _ U G U A 6 -.-.-.-.",
"-.-.-.-.-.-.P X.J ! I H F J 5                             ; 8 q y 9 , ;               > 8       .   B _ K Q ` ! I Q S 4 -.-.-.-.",
"-.-.-.-.-.-.I o.H ! X.` J J 7                             : 9 p p y 9 ;               0 R 0     .   A ..D U Q U U ) S 7 -.-.-.-.",
"-.-.-.-.-.-.D ! U U Q ) U G 5                             : 9 u p y 9 +               9 / R 0   O   S +.J U U U U U S 6 -.-.-.-.",
"-.-.-.-.-.-.B I J I P K U J 5   .                         * 9 q y y 8 8                 N F  .N X   V O.K L U U K K V 7 -.-.-.-.",
"-.-.-.-.-.-.N J A S A D I J 4                     d d d d f a R p R w d d f f f d d f d f f f  .N   B X.K F G J A A N 7 -.-.-.-.",
"-.-.-.-.-.-.n S V B N n n B 5                   d f f f f f f W / E f f f ' ' ' ' f d f f ' ' f %.  x V v n n B B N n 7 -.-.-.-.",
"-.-.-.-.-.-.e 7 7 l V H D M 4   .             d f ' ' ' f ' ' ' ' ' ' ' ' ' } } } ' f d f ' ' ' &. .e B P P B j 7 j e -.-.-.-.-.",
"-.-.-.-.-.-.-.-.-.S +.$.o.) 4                 d ' } } ' ' ' } } } } } } ' ' } } ' ' ' f d f ' f F &.n X.o.O.L x -.-.-.-.-.-.-.-.",
"-.-.-.-.-.-.-.-.-.A X.X.U L 6                 d ' } } ' ' } } } } } } } } ' ' f f ' ' ' f d f d j =.A +.D F F l -.-.-.-.-.-.-.-.",
"-.-.-.-.-.-.-.-.-.B U ..) L 7   .             d ' } ' ' f ' ' ' } } ' ' ' ' f d f f ' ' ' ' d d *.N S o.P U I x -.-.-.-.-.-.-.-.",
"-.-.-.-.-.-.-.-.-.N J L ) Q 5               d f f } ' f f ' ' ' ' ' ' ' ' f f d d d f f ' f d F %.F V  .H G L x -.-.-.-.-.-.-.-.",
"-.-.-.-.-.-.-.-.-.N J U ) J 5               d f f } ' f f f ' ' ' ' ' f f f f d     d d d , N j %.  M _ C C D z -.-.-.-.-.-.-.-.",
"-.-.-.-.-.-.-.-.-.B I I G D 5   .           f f ' ' ' f f f f f ' ' f f ' f f d         , , F %.F   n U S V S l -.-.-.-.-.-.-.-.",
"-.-.-.-.-.-.-.-.-.V J D Z Z 5           B f ' ' } ' f d f f ' f f f f ' ' f f d         , ,    ..   x J H S G x -.-.-.-.-.-.-.-.",
"-.-.-.-.-.-.-.-.-.3 j k 7 1 4         F f ' ' } } ' d f f ' ' ' f f ' ' ' ' f f d       , 8         k x k z z 0 -.-.-.-.-.-.-.-.",
"-.-.-.-.-.-.N U X.o.X.X.! ! 6   .     j f ' } } } ' d f f ' ' ' f f ' ' ' ' f f d       > 8         x U _ _ | L U H D j -.-.-.-.",
"-.-.-.-.-.-.A o._ ` X.o.X.! 5         &.F ' } } } ' d f ' ' ' ' f f ' ' ' ' f f d       : 9     O   S +.U ) U U ..` A 6 -.-.-.-.",
"-.-.-.-.-.-.A _ J L I K U D 4   .     j N ' } } ' f d f ' ' ' f f f ' ' ' ' f f d d     : 9     X   B U n S K ` _ U A 6 -.-.-.-.",
"-.-.-.-.-.-.D ! P ! _ K K H 4   .     F &.f ' ' ' f d f ' ' ' f f f ' ' ' ' f f d d     + >     O   A X.C D U X._ L A j -.-.-.-.",
"-.-.-.-.-.-.I X.K ..) K D H 6           &.F S N f d f f ' ' ' ' f f ' ' ' ' f f d d d           O   A @.J U L ) L ) S 6 -.-.-.-.",
"-.-.-.-.-.-.G ..K Q ) L H H 4   .       F 4 N   f d f f ' ' ' ' ' f ' ' ' ' f f d d d           .   V O.U ) U ) G L S k -.-.-.-.",
"-.-.-.-.-.-.S ` K Q _ J J S 4              .    f d f f ' ' ' ' ' ' ' ' ' ' ' f d f d d         .   B ..) U U ..) J C 7 -.-.-.-.",
"-.-.-.-.-.-.M U I K H S S Z 4   .             d d d f f ' ' ' ' ' ' ' ' ' ' ' f d f d d             z J U U H I P S b 6 -.-.-.-.",
"-.-.-.-.-.-.x B B b k x x c 4                 d f d f ' ' ' ' ' ' ' ' ' ' ' ' f f f f d   . X X   # 7 j l k b b b 6 l j -.-.-.-.",
"-.-.-.-.-.-.-.-.-.v ! X.U J 4   .           d f f f f ' ' ' ' ' ' f ' ' ' ' ' f f ' ' f d O . . #   l I O.o.I k -.-.-.-.-.-.-.-.",
"-.-.-.-.-.-.-.-.-.B J I Q Q 5               d f ' f f ' ' ' ' ' f f ' ' ' ' ' f ' ' ' ' f d   . $   B o.H P I x -.-.-.-.-.-.-.-.",
"-.-.-.-.-.-.-.-.-.M J P I U 7   .         d f ' ' f f ' ' ' ' f f f f ' ' ' ' f ' ' ' f f r . . *   S O.D K J l -.-.-.-.-.-.-.-.",
"-.-.-.-.-.-.-.-.-.V Q P H L 7           O d ' ' ' f f ' ' ' f f f ~ ~ ' ' ' ' f ' ' f Y i -.-.O &   A o.H U I x -.-.-.-.-.-.-.-.",
"-.-.-.-.-.-.-.-.-.C ) K H U 5   .   X O O q f ' ' f f ' ' f f f ~ 8 8 ^ ~ ' ' T ~ T Y t -.-.-.-.-.-.M ) H J ! c -.-.-.-.-.-.-.-.",
"-.-.-.-.-.-.-.-.-.Z Q H H H 5   O O O O O X r i f f f f f Y ^ ~   0 9   Y ^ ~ ~       -.-.-.-.-.-.-.n U J I _ c -.-.-.-.-.-.-.-.",
"-.-.-.-.-.-.-.-.-.B I S Z Z 4   O # O O X O O   r T ~ ^ ~ Y       8 , +             -.-.-.-.-.-.-.-.c K I _ ..v -.-.-.-.-.-.-.-.",
"-.-.-.-.-.-.-.-.-.N S Z Z B 7   % # O o O O O                                     -.-.-.-.-.-.-.-.-.z H D H I x -.-.-.-.-.-.-.-.",
"-.-.-.-.-.-.-.-.-.j j k j 7 4 # & % % - O O % -.-.                  -.-.-.-.-.-.-.-.-.-.-.-.-.-.-.-.4 e j j l j -.-.-.-.-.-.-.-."
};
