/* XPM */
static char *result[] = {
/* columns rows colors chars-per-pixel */
"64 64 185 2 ",
"   c black",
".  c #0C0F14",
"X  c #061117",
"o  c #111C1F",
"O  c #191A1C",
"+  c #230006",
"@  c #29121B",
"#  c #001D2D",
"$  c #071928",
"%  c #1D1E22",
"&  c #001838",
"*  c #231F22",
"=  c #00202F",
"-  c #1C2428",
";  c #19232A",
":  c #1D3538",
">  c #1D2D38",
",  c #222325",
"<  c #242629",
"1  c #2B2629",
"2  c #27282C",
"3  c #2A2A2D",
"4  c #2A2224",
"5  c #32272D",
"6  c #2B2D31",
"7  c #222D34",
"8  c #322E32",
"9  c #2E3136",
"0  c #2D3339",
"q  c #25373A",
"w  c #323236",
"e  c #33363B",
"r  c #33393E",
"t  c #393B3F",
"y  c #6A4000",
"u  c #784300",
"i  c #78542E",
"p  c #795631",
"a  c #002840",
"s  c #003D50",
"d  c #243C45",
"f  c #353C42",
"g  c #393D43",
"h  c #06474A",
"j  c #1C4B4F",
"k  c #1A4C51",
"l  c #005255",
"z  c #00575A",
"x  c #18565A",
"c  c #084F54",
"v  c #3B4146",
"b  c #3E444A",
"n  c #264E52",
"m  c #344B51",
"M  c #235053",
"N  c #2B5258",
"B  c #3E5259",
"V  c #254248",
"C  c #1B5A60",
"Z  c #255E62",
"A  c #3A5C63",
"S  c #006364",
"D  c #006E6C",
"F  c #0D6A6B",
"G  c #136768",
"H  c #017573",
"J  c #027C7B",
"K  c #21707B",
"L  c #38686E",
"P  c #42454B",
"I  c #41484F",
"U  c #49454C",
"Y  c #464B52",
"T  c #494F56",
"R  c #4B5157",
"E  c #4C535B",
"W  c #415258",
"Q  c #50565D",
"!  c #53585F",
"~  c #7A5D43",
"^  c #485C66",
"/  c #545C63",
"(  c #595E66",
")  c #655F68",
"_  c #47646A",
"`  c #5D636B",
"'  c #56616B",
"]  c #596874",
"[  c #49737D",
"{  c #61656D",
"}  c #646B73",
"|  c #686C75",
" . c #6B6F78",
".. c #626D7B",
"X. c #756E79",
"o. c #62717C",
"O. c #6C737B",
"+. c #71767F",
"@. c #7D747F",
"#. c #865E34",
"$. c #845E39",
"%. c #B17934",
"&. c #93755F",
"*. c #AD7B45",
"=. c #A67A4F",
"-. c #947A6B",
";. c #02807D",
":. c #B58147",
">. c #9C877B",
",. c #C38740",
"<. c #C58B48",
"1. c #DF9E53",
"2. c #E39D4C",
"3. c #E09E53",
"4. c #E7A14C",
"5. c #E8A14C",
"6. c #E3A054",
"7. c #EAA555",
"8. c #EDA857",
"9. c #F6AD5B",
"0. c #D7A166",
"q. c #4D7C83",
"w. c #6A7C86",
"e. c #647682",
"r. c #727780",
"t. c #757B84",
"y. c #787C85",
"u. c #7B7F89",
"i. c #038684",
"p. c #198D8B",
"a. c #2E8386",
"s. c #00A09D",
"d. c #01A8A5",
"f. c #19A5A3",
"g. c #38AAAC",
"h. c #2EAFAE",
"j. c #5A868D",
"k. c #4C9097",
"l. c #569099",
"z. c #7D838C",
"x. c #76848D",
"c. c #7A8991",
"v. c #5899A2",
"b. c #5FACB5",
"n. c #57B7BC",
"m. c #50ABB0",
"M. c #6DB3BB",
"N. c #64B3BB",
"B. c #73B4B8",
"V. c #5DB6C1",
"C. c #62BAC5",
"Z. c #81858E",
"A. c #808790",
"S. c #848A93",
"D. c #898E97",
"F. c #8B929B",
"G. c #A18F86",
"H. c #A29086",
"J. c #949BA4",
"K. c #999FA8",
"L. c #9097A0",
"P. c #879CA5",
"I. c #9BA3AC",
"U. c #97A4AD",
"Y. c #9FA6B0",
"T. c #9CACB5",
"R. c #84ADB5",
"E. c #A1A6AF",
"W. c #A3ABB4",
"Q. c #A7AEB8",
"!. c #A0A7B1",
"~. c #ABB2BC",
"^. c #9AB7C1",
"/. c #AEB9C3",
"(. c #B3BBC5",
"). c #B5BCC6",
"_. c #8FD4DD",
"`. c #92D1DA",
"'. c #89CAD3",
"]. c #BAC2CC",
"[. c #9DEBF0",
"{. c #ACE9F0",
"}. c #B1EBF2",
"|. c #BAF1FA",
" X c None",
/* pixels */
" X X X X X X X X X X X X X X X X X X X X X X X X X X X X X X X X X X X X X X X X X X X X X X X X X X X X X X X X X X X X X X X X",
" X X X X X X X X X X X X X X X X X X X X X X X X X X X X X X X X X X X X X X X X X X X X X X X X X X X X X X X X X X X X X X X X",
" X X X X X X X X X X X X X X X X X X X X X X X X X X X X X X X X X X X X X X X X X X X X X X X X X X X X X X X X X X X X X X X X",
" X X X X X X X X X X X X X X X X X X X X X X X X X X X X X X X X X X X X X X X X X X X X X X X X X X X X X X X X X X X X X X X X",
" X X X X X X X X X X X X X X X X X X X X X X X X X X X X X X X X X X X X X X X X X X X X X X X X X X X X X X X X X X X X X X X X",
" X X X X X X X X X X X X X X X X X X X X X X X X X X X X X X X X X X X X X X X X X X X X X X X X X X X X X X X X X X X X X X X X",
" X X X X X X X X X X X X X X X X X X X X X X X X X X X X X X X X X X X X X X X X X X X X X X X X X X X X X X X X X X X X X X X X",
" X X X X X X X X X X X X X X X X X X X X X X X X X X X X X X X X X X X X X X X X X X X X X X X X X X X X X X X X X X X X X X X X",
" X X X X X X X X X X X X X X X X X X X X X X X X X X X X X X X X X X X X X X X X X X X X X X X X X X X X X X X X X X X X X X X X",
" X X X X X X X X X X X X X X X X X X X X X X X X X X X X X X X X X X X X X X X X X X X X X X X X X X X X X X X X X X X X X X X X",
" X X X X X X X X X X X X X X X X X X X X X X X X X X X X X X X X X X X X X X X X X X X X X X X X X X X X X X X X X X X X X X X X",
" X X X X X X X X X X X X X X X X X X X X X X X X X X X X X X X X X X X X X X X X X X X X X X X X X X X X X X X X X X X X X X X X",
" X X X X X X X X X X X X X X X X X X X X X X X X X X X X X X X X X X X X X X X X X X X X X X X X X X X X X X X X X X X X X X X X",
" X X X X X X X X X X X X X X X X X X X X X X X X X X X X X X X X X X X X X X X X X X X X X X X X X X X X X X X X X X X X X X X X",
" X X X X X X X X X X X X X X X X X X X X X X X X X X X X X X X X X X X X X X X X X X X X X X X X X X X X X X X X X X X X X X X X",
" X X X X X X X X X X X X X X X X X X X X X X X X X X X X X X X X X X X X X X X X X X X X X X X X X X X X X X X X X X X X X X X X",
" X X X X X X X X X X X X X X X X X X X X X X X X X X X X X X X X X X X X X X X X X X X X X X X X X X X X X X X X X X X X X X X X",
" X X X X X X X X X X X X X X X X X X X X X X X X X X X X X X X X X X X X X X X X X X X X X X X X X X X X X X X X X X X X X X X X",
" X X X X X X X X X X X X X X X X X X X X X X X X X X X X X X X X X X X X X X X X X X X X X X X X X X X X X X X X X X X X X X X X",
" X X X X X X X X X X X X X X X X X X X X X X X X X X X X X X X X X X X X X X X X X X X X X X X X X X X X X X X X X X X X X X X X",
" X X X X X X X X X X X X X X X X X X X X X X X X X X X X X X X X X X X X X X X X X X X X X X X X X X X X X X X X X X X X X X X X",
" X X X X X X X X X X X X X X X X X X X X X X X X X X X X X X X X X X X X X X X X X X X X X X X X X X X X X X X X X X X X X X X X",
" X X X X X X X X X X X X X X X X X X X X X X X X X X X X X X X X X X X X X X X X X X X X X X X X X X X X X X X X X X X X X X X X",
" X X X X X X X X X X X X X X X X X X X X X X X X X X X X X X X X X X X X X X X X X X X X X X X X X X X X X X X X X X X X X X X X",
" X X X X X X X X X X X X X X X X X X X X X X X X X X X X X X X X X X X X X X X X X X X X X X X X X X X X X X X X X X X X X X X X",
" X X X X X X X X X X X X X X X X X X X X X X X X X X X X X X X X X X X X X X X X X X X X X X X X X X X X X X X X X X X X X X X X",
" X X X X X X X X X X X X X X X X X X X X X X X X X X X X X X X X X X X X X X X X X X X X X X X X X X X X X X X X X X X X X X X X",
" X X X X X X X X X X X X X X X X X X X X X X X X X X X X X X X X X X X X X X X X X X X X X X X3. X X X X X X X X X X X X X X X X",
" X X X X X X X X X X X3.3. X X X X X X X X X X X X X X X X X X X X X X X X X X X X X X X X X X3. X X X X X X X X X X X X X X X X",
" X X X X X X X X X X3.3. X X X X X X X X X X X X X X X X X X X X X X X X X X X X X X X X X X X X X X X X X X X X X X X X X X X X",
" X X X X X X X X X3.3. X X X X X X X X X X X X X X X X X X X X X X X X X X X X X X X X X X X X X X1.1. X X X X X X X X X X X X X",
" X X X X X X X X3.3. X X X X X X X X X X X X X X X X X X X X X X X X X X X X X X X X X X X X X X X X6.3. X X X X X X X X X X X X",
" X X X X X X X X1.1. X X X X X X X X X X X X X X X X X X X X X X X X X X X X X X X X X X X X X X X X1.6.1. X X X X X X X X X X X",
" X X X X X X X X1.6. X X X X X X X X X X X X X X X X X X X X X X X X X X X X X X X X X X X X X X X X1.1.3. X X X X X X X X X X X",
" X X X X X X X3.3.1. X X X X X X X X X X X X X X X X X X X X X X X X X X X X X X X X X X X X X X X X1.6.3. X X X X X X X X X X X",
" X X X X X X3.3.3. X X X X X X X X X X X X X X X X X X X X X X X X X X X X X X X X X X X X X X X X X1.1.6.3. X X X X X X X X X X",
" X X X X X X3.3.3. X X X X X X X X X X X X X X X X X X X X X X X}. X X X X X X X X X X X X X X X X X X3.3.3. X X X X X X X X X X",
" X X X X X X3.3.3. X X X X X X X X X X X X X X X X X X X X X X X'. X X X X X X X X X X X X X X X X X X3.3.1.3. X X X X X X X X X",
" X X X X X X3.3.3. X X X X X X X X X X X X X X X X X X X X X X Xm. X X X X X X X X X X X X X X X X X X3.3.3.1.3. X X X X X X X X",
" X X X X X X3.3.3. X X X X X X X X X X X X X X X X X X X X X X Xd. X X X X X X X X X X X X X X X X X X3.3.3.3.3. X X X X X X X X",
" X X X X X X3.3.3. X X X X X X X X X X X X X X X X X X X X X X Xi. X X X X X X X X X X X X X X X X X X X3.3.3.6. X X X X X X X X",
" X X X X X X3.3.3. X X XN. X X X X X X X X X X X X X X X X X Xd.F  X X X X X X X X X X X X X X X X X XB.0.2.3.3. X X X X X X X X",
" X X X X X X3.3.3. X X XN.`. X X X X X X X X X X X X X X X Xp.d.G k  X X X X X X X X X X X X X X X XV.B.0.2.3.3.3. X X X X X X X",
" X X X X X X X3.3.3. X X X|.[.s. X X X X3 t t 5 3 e g t g 5 j H x x n w 6 3 6 6 3 t t  X X X X X;.n.C. X2.3.3.3.3. X X X X X X X",
" X X X X X X X3.3.3. X X X X Xi.d.J 7 < X } {   X ( O.O.+.P   , - % b / O   . -   { | 6 + k._.{.h. X X X3.3.3.3.3. X X X X X X X",
" X X X X X X X3.3.1.3. X X X Xp.V.g.;.B J.D.A.I.I.E.Q.Q.W.E.P.l.} { ` } F.L.L.I.K.F.O.U V a.b.M.h. X X X3.3.3.3.3. X X X X X X X",
" X X X X X X X3.3.3.3.6. X X Xi.v.g.i.A !.F.D.Q.Q.T.I.!.W.E.R.n.c.z.O.| (.].(.W.~.S.o.j.C S D D H  X X X3.3.3.3.3. X X X X X X X",
" X X X X X X X3.3.3.1.6. X X X Xh D F A O.t.y.r.+.` { z.y.W H f.x.r.} ` Q.(.I.O.+.( j.B.L k G H  X X X X3.3.3.3.3. X X X X X X X",
" X X X X X X X3.3.3.3.3.3. X Xy.l h _ r.b O.z.y.` R A.~.Z.^ S ;.Z ' Q f ` y.Z.t.] r x.(.z.A l z 9  X X X3.3.3.3.3. X X X X X X X",
" X X X X X X X3.3.3.3.1.1. X=.' J.U.F.+.v f R E ' } A.J.Z._ S ;.z ] +.O.O.t.t.} P o { J.z.O.o.} 0  X X X3.3.3.3.3. X X X X X X X",
" X X X X X X X3.3.1.3.3.6.<.#.b I.].Q.O.r {  .Y / t.t.( } W l G h ' | } | } ' R ! ! / ` O.z.z. .T &  X6.3.3.3.3.3. X X X X X X X",
" X X X X X X X3.3.3.3.3.7.i s o.O.Y.!.+.m I.~.z.` O.{ O < 3 8 5 w 3 2 2 3 * , b t.Z.} 0 ! O.O./ ' d p 7.3.3.3.3.3. X X X X X X X",
" X X X X X X X3.3.3.3.3.8.u K M.x.z.z.x.b.^.(.~.A.Q r E E E ! / ! Q E ( ( g < P t.z.} f / ` { ' P # #.7.3.3.3.3.3. X X X X X X X",
" X X X X X X X X3.3.3.3.3.-.[ q.} t.+.] [ W.~.F.{ O { I.E.W.L.O.+.L.D.R ` P : N E r.| f ' Q Y Y f ^ -.8.3.3.3.3.3. X X X X X X X",
" X X X X X X X X6.3.3.3.2.G...@ Y | O.Q + F.I. .v   y.].!.T.L.O.| Q.~.z.{ g : j 7 O.O.e E b 0 9 3 e.G.2.3.3.3.3.3. X X X X X X X",
" X X X X X X X X3.3.3.3.2.>.] e 0 T ' / f ` t.O.b   +.~.{ Q / / Q J.(.~.} t , 3 9 } } 0 r r e 2 % ] -.3.3.3.3.3.3. X X X X X X X",
" X X X X X X X X3.3.3.3.7.~ & b f v v v f b b r 3 - Y O.y.u.O./ ' t.S.z.{ b , 3 3 v b f f 9 3 6 3 & ~ 7.3.3.3.3.3. X X X X X X X",
" X X X X X X X X3.3.3.3.3.<.$.: f 0 9 f 0 6 2 , 3 1 0 P / / { +.` Q Q Q R r 1 3 3 2 9 v N q 1 3 ; $.<.6.3.3.3.3.3. X X X X X X X",
" X X X X X X X X3.3.3.3.3.9.:.# f 0 9 e 3 2 3 3 3 3 3 9 - X T r.` v o < 9 3 3 3 3 6 e f k q 1 3 # :.9.1.3.3.3.3.3. X X X X X X X",
" X X X X X X X X3.3.3.3.3.8.*.= r v e 2 2 3 3 3 3 3 6 w e w P / ' P w e 0 9 3 3 3 e f r 3 3 3 3 = *.8.3.3.3.1.3.3. X X X X X X X",
" X X X X X X X X3.3.3.3.3.8.*.# 0 r 6     , 1 < 3 4 v ` X.y.) < , { @.X.` v , 3 < 3 ,   % 0 9 O # *.7.3.3.3.3.6.3. X X X X X X X",
" X X X X X X X X X3.3.3.3.9.%.  ` E O.J.I.{ 0 R w * e E | | ) T R {  .| R r , w R 0 { J.J.O./ {   %.9.3.3.3.3.3. X X X X X X X X",
" X X X X X X X X X X3.3.3.,.&.y.L. .A.].~.O.v ' w q q e R E E ! ! Q E W e 3 < w ' f z.].].S.` z.O.-.,.6.3. X X X X X X X X X X X",
" X X X X X X X X X X X3.7.y e.].].z.z.~.z.T P / w j k 3 e f r r r t r r 3 3 2 w / r +.(.(.c./ A.(.w.y 8.3. X X X X X X X X X X X"
};
