/* XPM */
static char *result[] = {
/* columns rows colors chars-per-pixel */
"64 64 199 2 ",
"   c #000100",
".  c #1C0000",
"X  c #110E0E",
"o  c #001200",
"O  c #001C09",
"+  c #100F13",
"@  c #171516",
"#  c #230000",
"$  c #2B0A0E",
"%  c #281D1F",
"&  c #31191F",
"*  c #2A1E23",
"=  c #251F22",
"-  c #002C25",
";  c #002E29",
":  c #1E282A",
">  c #00332E",
",  c #0E302E",
"<  c #003531",
"1  c #003936",
"2  c #013D3B",
"3  c #0F3B3A",
"4  c #1E3132",
"5  c #163B3B",
"6  c #193A3A",
"7  c #232124",
"8  c #2A2326",
"9  c #262629",
"0  c #2B2629",
"q  c #25292C",
"w  c #2A2B2D",
"e  c #252A30",
"r  c #2C2D31",
"t  c #302D32",
"y  c #3D2E38",
"u  c #223334",
"i  c #2E3135",
"p  c #2D353A",
"a  c #25393C",
"s  c #2B3A3E",
"d  c #27363A",
"f  c #313235",
"g  c #31353B",
"h  c #34383E",
"j  c #393A3F",
"k  c #00413F",
"l  c #0A403F",
"z  c #253E42",
"x  c #2B3F44",
"c  c #363C42",
"v  c #393E44",
"b  c #024443",
"n  c #0A4645",
"m  c #0B4748",
"M  c #0E4B4B",
"N  c #104C4D",
"B  c #184547",
"V  c #194E53",
"C  c #00575B",
"Z  c #135354",
"A  c #1B5355",
"S  c #1B5558",
"D  c #1D595C",
"F  c #165459",
"G  c #2E4146",
"H  c #264549",
"J  c #3C4046",
"K  c #3E444A",
"L  c #34474B",
"P  c #3B4C51",
"I  c #22595C",
"U  c #26535A",
"Y  c #39565B",
"T  c #254D52",
"R  c #235E61",
"E  c #2E5D63",
"W  c #3C5F64",
"Q  c #056463",
"!  c #1A6164",
"~  c #00797A",
"^  c #007573",
"/  c #2A6166",
"(  c #2B6569",
")  c #2C6A6D",
"_  c #256164",
"`  c #396769",
"'  c #3C696A",
"]  c #31676A",
"[  c #2B6C71",
"{  c #336D74",
"}  c #3D6D74",
"|  c #287074",
" . c #357479",
".. c #3A767D",
"X. c #42454C",
"o. c #43494F",
"O. c #454B52",
"+. c #494E55",
"@. c #4C535B",
"#. c #42575B",
"$. c #51575F",
"%. c #58575E",
"&. c #4B5D65",
"*. c #555C64",
"=. c #585E66",
"-. c #685D65",
";. c #5B6169",
":. c #506168",
">. c #45787E",
",. c #476A70",
"<. c #61646C",
"1. c #616770",
"2. c #656B73",
"3. c #696D75",
"4. c #696F78",
"5. c #6C737B",
"6. c #70767E",
"7. c #7D727C",
"8. c #3C7C83",
"9. c #377981",
"0. c #407E85",
"q. c #4E7C83",
"w. c #6B7A82",
"e. c #737780",
"r. c #747A83",
"t. c #797C85",
"y. c #797F88",
"u. c #00928F",
"i. c #039796",
"p. c #049A99",
"a. c #0C8787",
"s. c #3F8085",
"d. c #3F8891",
"f. c #349DA0",
"g. c #00AEAC",
"h. c #19AAA8",
"j. c #00B3B1",
"k. c #17B1B0",
"l. c #32B1B0",
"z. c #29A6A7",
"x. c #44838B",
"c. c #4A848A",
"v. c #57878D",
"b. c #458D94",
"n. c #4A8D95",
"m. c #4F949C",
"M. c #53969E",
"N. c #7C828B",
"B. c #76828A",
"V. c #78959E",
"C. c #6D8D94",
"Z. c #4B9AA3",
"A. c #5297A0",
"S. c #549AA3",
"D. c #599EA6",
"F. c #699DA2",
"G. c #7C9AA3",
"H. c #5CAAB3",
"J. c #5EAFB8",
"K. c #5FB1BB",
"L. c #57A1A3",
"P. c #67A3A9",
"I. c #62AEB6",
"U. c #62AFB8",
"Y. c #77ACB4",
"T. c #65B3BC",
"R. c #6CB5BD",
"E. c #78A5AF",
"W. c #67B9C2",
"Q. c #6AB9C2",
"!. c #7EBAC1",
"~. c #6AC1CB",
"^. c #80878F",
"/. c #818790",
"(. c #838992",
"). c #888F98",
"_. c #8C939C",
"`. c #9397A1",
"'. c #959CA5",
"]. c #9DA4AD",
"[. c #9FA7B0",
"{. c #83B5BC",
"}. c #A2AAB3",
"|. c #ABB2BC",
" X c #83BEC6",
".X c #AFB6C0",
"XX c #A3B7C0",
"oX c #B3BAC5",
"OX c #B7BFC9",
"+X c #B0B7C1",
"@X c #87CBD3",
"#X c #90D1D9",
"$X c #BAC2CD",
"%X c #9EDEE6",
"&X c #A4DEE5",
"*X c #A7E3EA",
"=X c #B0E8EF",
"-X c #B5EFF5",
";X c None",
/* pixels */
";X;X;X;X;X;X;X;X;X;X;X;X;X;X;X;X;X;X;X;X;X;X;X;X;X;X;X;X;X;X;X;X;X;X;X;X;X;X;X;X;X;X;X;X;X;X;X;X;X;X;X;X;X;X;X;X;X;X;X;X;X;X;X;X",
";X;X;X;X;X;X;X;X;X;X;X;X;X;X;X;X;X;X;X;X;X;X;X;X;X;X;X;X;X;X;X;X;X;X;X;X;X;X;X;X;X;X;X;X;X;X;X;X;X;X;X;X;X;X;X;X;X;X;X;X;X;X;X;X",
";X;X;X;X;X;X;X;X;X;X;X;X;X;X;X;X;X;X;X;X;X;X;X;X;X;X;X;X;X;X;X;X;X;X;X;X;X;X;X;X;X;X;X;X;X;X;X;X;X;X;X;X;X;X;X;X;X;X;X;X;X;X;X;X",
";X;X;X;X;X;X;X;X;X;X;X;X;X;X;X;X;X;X;X;X;X;X;X;X;X;X;X;X;X;X;X;X;X;X;X;X;X;X;X;X;X;X;X;X;X;X;X;X;X;X;X;X;X;X;X;X;X;X;X;X;X;X;X;X",
";X;X;X;X;X;X;X;X;X;X;X;X;X;X;X;X;X;X;X;X;X;X;X;X;X;X;X;X;X;X;X;X;X;X;X;X;X;X;X;X;X;X;X;X;X;X;X;X;X;X;X;X;X;X;X;X;X;X;X;X;X;X;X;X",
";X;X;X;X;X;X;X;X;X;X;X;X;X;X;X;X;X;X;X;X;X;X;X;X;X;X;X;X;X;X;X;X;X;X;X;X;X;X;X;X;X;X;X;X;X;X;X;X;X;X;X;X;X;X;X;X;X;X;X;X;X;X;X;X",
";X;X;X;X;X;X;X;X;X;X;X;X;X;X;X;X;X;X;X;X;X;X;X;X;X;X;X;X;X;X;X;X;X;X;X;X;X;X;X;X;X;X;X;X;X;X;X;X;X;X;X;X;X;X;X;X;X;X;X;X;X;X;X;X",
";X;X;X;X;X;X;X;X;X;X;X;X;X;X;XR ` ' ' ` I _ A ;X;X;X;X;X;X;X;X;X;X;X;X;X;X;X;X;X;XA ] ` I ] ' ` _ ;X;X;X;X;X;X;X;X;X;X;X;X;X;X;X",
";X;X;X;X;X;X;X;X;X;X;X;X;Xo | R.&X*X=X*XT.T.M.> ;X;X;X;X;X;X;X;X;X;X;X;X;X;X;X;X; b.@X*XT.#X=X&XQ. .  ;X;X;X;X;X;X;X;X;X;X;X;X;X",
";X;X;X;X;X;X;X;X;X;X;X;X;X  F.*X#X!.Y.Y.M.A.x.- ;X;X;X;X;X;X;X;X;X;X;X;X;X;X;X;X> ! P.@XA.F. X@XD.| - ;X;X;X;X;X;X;X;X;X;X;X;X;X",
";X;X;X;X;X;X;X;X;X;X;X;X;X  F.%XT.Z.b.b.m.x.{ I ;X;X;X;X;X;X;X;X;X;X;X;X;X;X;X;XR n 8.T.M.b.Z.J.S.) - ;X;X;X;X;X;X;X;X;X;X;X;X;X",
";X;X;X;X;X;X;X;X;X;X;X;X;XO 9.J.I.I.I.U.T.M.x.8.Z ;X;X;X;X;X;X;X;X;X;X;X;X;X;XZ 8.x.m.U.I.T.U.I.T.x.o ;X;X;X;X;X;X;X;X;X;X;X;X;X",
";X;X;X;X;X;X;X;X;X;X;X;X;X> ) x.I A A A m S.I...N ;X;X;X;X;X;X;X;X;X;X;X;X;X;XN 8.H.D.n S S A I x.) > ;X;X;X;X;X;X;X;X;X;X;X;X;X",
";X;X;X;X;X;X;X;X;X;X;X;X;X> ( x.{ m O < / n.M.8.Z ;X;X;X;X;X;X;X-X;X;X;X;X;X;XZ 0.A.n.E 1 O m { x.( > ;X;X;X;X;X;X;X;X;X;X;X;X;X",
";X;X;X;X;X;X;X;X;X;X;X;X;X1 D  .x. .I ( x. .{ { m ;X;X;X;X;X;X;X*X{.;X;X;X;X;XN { ] ..x.( I { x. .D 1 ;X;X;X;X;X;X;X;X;X;X;X;X;X",
";X;X;X;X;X;X;X;X;X;X;X;X;Xb k b ..0.0.0.0.I < 2 ;X;X;X;Xj c 8 L H.8.$ v J ;X;X;X2 < I 8.0.0.0...b k b ;X;X;X;X;X;X;X;X;X;X;X;X;X",
";X;X;X;X;X;X;X;X;X;X;X;X;Xb b b M M N m N b b b ;X;X;Xh e.3.X.z h.~ @.t.r.+.  ;Xb b n m N N N m b b b ;X;X;X;X;X;X;X;X;X;X;X;X;X",
";X;X;X;X;X;X;X;X;X;X;X;X;X2 B u k k 3 4 2 5 u a ;.q   + 2.2.@.A a.i.b.e.r.5.+.  2 b 3 4 2 k 2 4 u B b ;X;X;X;X;X;X;X;X;X;X;X;X;X",
";X;X;X;X;X;X;X;X;X;X;X;X;XA 5 0 6 b 6 w 6 u 8 f ;.r.t.6.=.=.&.C Q u.L.'.`.'._.B.#.B 4 w 2 l u w u 5 ;X;X;X;X;X;X;X;X;X;X;X;X;X;X",
";X;X;X;X;X;X;X;X;X;X;X;Xx._ , w 0 5 5 w 0 w 9 f +.].$X+X3.=.&.I A Q C.oX+X.X+X|.3.g * w n u 0 w n ;X;X;X;X;X;X;X;X;X;X;X;X;X;X;X",
";X;X;X;X;X;X;X;X;X;X;X;X;X;X;Xw w r w w r X X w   '.$X|.2.3.t.r.D Y 5./.N.N.(.N.o.: % w r q w w w B ) x.;X;X;X;X;X;X;X;X;X;X;X;X",
";X;X;X;X;X;X;X;X;X;X;X;XQ.c.. # q w w w @ ^.N.  K 4.(._.5.r.e.<.@.*.;.1.r.r.e.1.2.3.$.= w w i h g x T ;X;X;X;X;X;X;X;X;X;X;X;X;X",
";X;X;X;X;X;X;X;X;X;X;X;XQ.` L >.p 7 w 9   ].|.6.4.e.(._.N.r.w.c.c.,.*.1.r.r.;.;.N.^.2.9 0 9 i v v * Y ;X;X;X;X;X;X;X;X;X;X;X;X;X",
";X;X;X;X;X;X;X;X;X;X;X;X;Xr v.I.P * r i   `.OX|.r.}.OX|.N.t.G.Q.k.~ *./.N.r.;.;.5.N.2.p f r p c c & q.T.;X;X;X;X;X;X;X;X;X;X;X;X",
";X;X;X;X;X;X;X;X;X;X;X;XT.W.M.P =.X.K =.e ].[.h 7 ].|.B.r.].oXXXl.^ 5.oX|.oX'.@.K 4.4.c *.O.h c * 3.B.;X;X;X;X;X;X;X;X;X;X;X;X;X",
";X;X;X;X;X;X;X;X;X;X;X;X;XE.C.8 o.@.=.;.h N.N.    5.N.1.r.N.].oXv.,.).$XOX$X].@.q 4.5.h O.K t L D.V.7.;X;X;X;X;X;X;X;X;X;X;X;X;X",
";X;X;X;X;X;X;X;X;X;X;X;X;X-.<.h p +.*.+.c *.%.q J +.$.;.5.*.6.'.%.2._.}.[.}._.$.w =.=.c h h 0 x M.Y.V.;X;X;X;X;X;X;X;X;X;X;X;X;X",
";X;X;X;X;X;X;X;X;X;X;X;X;X@ w c c c h h c h e f =.;.=.;.=.=.=.@.g 2.t.e.r.e.3.*.f e h c c i w 0 . M.~.;X;X;X;X;X;X;X;X;X;X;X;X;X",
";X;X;X;X;X;X;X;X;X;X;X;X;X;X;Xg c c j g r r 9 f =.;.;.;.;.o.O.=.c 3.N.r.y.4.@.c r w p c v c t % t ;X;X;X;X;X;X;X;X;X;X;X;X;X;X;X",
";X;X;X;X;X;X;X;X;X;X;X;X;X;X;X;Xr H U } p 8 w i v 1.1.J o.J o.;.c O.2.y.4.1.@.q w 0 r v j x E ..;X;X;X;X;X;X;X;X;X;X;X;X;X;X;X;X",
";X;X;X;X;X;X;X;X;X;X;X;X;X;X;X;X# U 9.x.s 8 w w X 3.r.$.v p +.;.v h ;.r.$.@.O.r w q p c G /  .x.;X;X;X;X;X;X;X;X;X;X;X;X;X;X;X;X",
";X;X;X;X;X;X;X;X;X;X;X;X;X;X;X;X;Xx.b.8.s 8 w w 7 <.B.6.K p o.*.G +.3.e.K p c c r w f c V 8.x.;X;X;X;X;X;X;X;X;X;X;X;X;X;X;X;X;X",
";X;X;X;X;X;X;X;X;X;X;X;X;X;X;X;Xq.z.p.A u 0 w r c K X.K c c h p V c +.;.K h c c w h h w r T a.g.;X;X;X;X;X;X;X;X;X;X;X;X;X;X;X;X",
";X;X;X;X;X;X;X;X;X;X;X;X;X;X;XR n.f.~ s r w w r r p h h v g u F i.) y o.g c c c w i f r t # i.j.;X;X;X;X;X;X;X;X;X;X;X;X;X;X;X;X",
";X;X;X;X;X;X;X;X;X;X;X;X;X;X;XI 8.;X;X0 w r r w r c v c h 0 a ! i.| p h w i h p w w w w w ;X;Xh.;X;X;X;X;X;X;X;X;X;X;X;X;X;X;X;X",
";X;X;X;X;X;X;X;X;X;X;X;X;X;X;X;X;X;X;X;X;Xw r r c c c c r 8 z F V F T h r w w r w i w ;X;X;X;X;XR.;X;X;X;X;X;X;X;X;X;X;X;X;X;X;X",
";X;X;X;X;X;X;X;X;X;X;X;X;X;X;X;X;X;X;X;X;Xr r r c v c c r w w d F H w r 0 h c c r r w ;X;X;X;X;X;X;X;X;X;X;X;X;X;X;X;X;X;X;X;X;X",
";X;X;X;X;X;X;X;X;X;X;X;X;X;X;X;X;X;X;X;X;Xw r w r i f r r w 0 w z u 0 r p c c r w r w ;X;X;X;X;X;X;X;X;X;X;X;X;X;X;X;X;X;X;X;X;X",
";X;X;X;X;X;X;X;X;X;X;X;X;X;X;X;X;X;X;X;X;Xw r w q 0 r 0 w w w w 8 0 q r c c i q w i w ;X;X;X;X;X;X;X;X;X;X;X;X;X;X;X;X;X;X;X;X;X",
";X;X;X;X;X;X;X;X;X;X;X;X;X;X;X;X;X;X;X;X;Xr r w r r e r w w w r r r w r c i 0 w w f w ;X;X;X;X;X;X;X;X;X;X;X;X;X;X;X;X;X;X;X;X;X",
";X;X;X;X;X;X;X;X;X;X;X;X;X;X;X;X;X;X;X;X;Xr r w w w 0 w w w 0 u F z 9 w r w w w w r w ;X;X;X;X;X;X;X;X;X;X;X;X;X;X;X;X;X;X;X;X;X",
";X;X;X;X;X;X;X;X;X;X;X;X;X;X;X;X;X;X;X;X;Xr r w w p p 9 w w w r z p 0 w 9 i h g r r w ;X;X;X;X;X;X;X;X;X;X;X;X;X;X;X;X;X;X;X;X;X",
";X;X;X;X;X;X;X;X;X;X;X;X;X;X;X;X;X;X;X;X;Xw r r w h c i i r w w 0 0 r p i c c g w i r ;X;X;X;X;X;X;X;X;X;X;X;X;X;X;X;X;X;X;X;X;X",
";X;X;X;X;X;X;X;X;X;X;X;X;X;X;X;X;X;X;X;X;Xw r r w h c c v i w w w w p c v c g w w r w ;X;X;X;X;X;X;X;X;X;X;X;X;X;X;X;X;X;X;X;X;X",
";X;X;X;X;X;X;X;X;X;X;X;X;X;X;X;X;X;X;X;X;Xw r r c c c v J f w w w g c c c c c c r r w ;X;X;X;X;X;X;X;X;X;X;X;X;X;X;X;X;X;X;X;X;X",
";X;X;X;X;X;X;X;X;X;X;X;X;X;X;X;X;X;X;X;X;X;Xw r i c h i i r w w w h v c c c h i r w ;X;X;X;X;X;X;X;X;X;X;X;X;X;X;X;X;X;X;X;X;X;X",
";X;X;X;X;X;X;X;X;X;X;X;X;X;X;X;X;X;X;X;X;X;Xf r q f i w w w r w w i h g h h i q r f ;X;X;X;X;X;X;X;X;X;X;X;X;X;X;X;X;X;X;X;X;X;X",
";X;X;X;X;X;X;X;X;X;X;X;X;X;X;X;X;X;X;X;X;X;Xt w w w w w w w w w w w w w w w w w r w ;X;X;X;X;X;X;X;X;X;X;X;X;X;X;X;X;X;X;X;X;X;X",
";X;X;X;X;X;X;X;X;X;X;X;X;X;X;X;X;X;X;X;X;Xr w w w w w w w r r ;X;Xw r w w w w w w w r ;X;X;X;X;X;X;X;X;X;X;X;X;X;X;X;X;X;X;X;X;X",
";X;X;X;X;X;X;X;X;X;X;X;X;X;X;X;X;X;X;X;X;Xw w w w w w w w w w ;X;Xr r w w w w w w f w ;X;X;X;X;X;X;X;X;X;X;X;X;X;X;X;X;X;X;X;X;X",
";X;X;X;X;X;X;X;X;X;X;X;X;X;X;X;X;X;X;X;X;Xw f i f p i w w r w ;X;Xi r w w w w w w w r ;X;X;X;X;X;X;X;X;X;X;X;X;X;X;X;X;X;X;X;X;X",
";X;X;X;X;X;X;X;X;X;X;X;X;X;X;X;X;X;X;X;X;Xw g J c c g w r w i ;X;Xw w w r r r w w r w ;X;X;X;X;X;X;X;X;X;X;X;X;X;X;X;X;X;X;X;X;X",
";X;X;X;X;X;X;X;X;X;X;X;X;X;X;X;X;X;X;X;X;Xw g v v c c h v h ;X;X;X;Xw i h v v c r r w ;X;X;X;X;X;X;X;X;X;X;X;X;X;X;X;X;X;X;X;X;X",
";X;X;X;X;X;X;X;X;X;X;X;X;X;X;X;X;X;X;X;X;X;Xt h g f g g h f ;X;X;X;Xw i g g g f f w ;X;X;X;X;X;X;X;X;X;X;X;X;X;X;X;X;X;X;X;X;X;X",
";X;X;X;X;X;X;X;X;X;X;X;X;X;X;X;X;X;X;X;X;X;X;Xw w w w w w ;X;X;X;X;X;Xw w w w w w ;X;X;X;X;X;X;X;X;X;X;X;X;X;X;X;X;X;X;X;X;X;X;X",
";X;X;X;X;X;X;X;X;X;X;X;X;X;X;X;X;X;X;X;X;X;X;X;X;X;X;X;X;X;X;X;X;X;X;X;X;X;X;X;X;X;X;X;X;X;X;X;X;X;X;X;X;X;X;X;X;X;X;X;X;X;X;X;X",
";X;X;X;X;X;X;X;X;X;X;X;X;X;X;X;X;X;X;X;X;X;X;X;X;X;X;X;X;X;X;X;X;X;X;X;X;X;X;X;X;X;X;X;X;X;X;X;X;X;X;X;X;X;X;X;X;X;X;X;X;X;X;X;X",
";X;X;X;X;X;X;X;X;X;X;X;X;X;X;X;X;X;X;X;X;X;X;X;X;X;X;X;X;X;X;X;X;X;X;X;X;X;X;X;X;X;X;X;X;X;X;X;X;X;X;X;X;X;X;X;X;X;X;X;X;X;X;X;X",
";X;X;X;X;X;X;X;X;X;X;X;X;X;X;X;X;X;X;X;X;X;X;X;X;X;X;X;X;X;X;X;X;X;X;X;X;X;X;X;X;X;X;X;X;X;X;X;X;X;X;X;X;X;X;X;X;X;X;X;X;X;X;X;X",
";X;X;X;X;X;X;X;X;X;X;X;X;X;X;X;X;X;X;X;X;X;X;X;X;X;X;X;X;X;X;X;X;X;X;X;X;X;X;X;X;X;X;X;X;X;X;X;X;X;X;X;X;X;X;X;X;X;X;X;X;X;X;X;X",
";X;X;X;X;X;X;X;X;X;X;X;X;X;X;X;X;X;X;X;X;X;X;X;X;X;X;X;X;X;X;X;X;X;X;X;X;X;X;X;X;X;X;X;X;X;X;X;X;X;X;X;X;X;X;X;X;X;X;X;X;X;X;X;X",
";X;X;X;X;X;X;X;X;X;X;X;X;X;X;X;X;X;X;X;X;X;X;X;X;X;X;X;X;X;X;X;X;X;X;X;X;X;X;X;X;X;X;X;X;X;X;X;X;X;X;X;X;X;X;X;X;X;X;X;X;X;X;X;X",
";X;X;X;X;X;X;X;X;X;X;X;X;X;X;X;X;X;X;X;X;X;X;X;X;X;X;X;X;X;X;X;X;X;X;X;X;X;X;X;X;X;X;X;X;X;X;X;X;X;X;X;X;X;X;X;X;X;X;X;X;X;X;X;X",
";X;X;X;X;X;X;X;X;X;X;X;X;X;X;X;X;X;X;X;X;X;X;X;X;X;X;X;X;X;X;X;X;X;X;X;X;X;X;X;X;X;X;X;X;X;X;X;X;X;X;X;X;X;X;X;X;X;X;X;X;X;X;X;X"
};
