/* XPM */
static char *result[] = {
/* columns rows colors chars-per-pixel */
"64 64 184 2 ",
"   c black",
".  c #050307",
"X  c #1D0000",
"o  c #140B0A",
"O  c #001100",
"+  c #061418",
"@  c #1C1415",
"#  c #1C1B1C",
"$  c #260303",
"%  c #00261F",
"&  c #1F1D21",
"*  c #231D21",
"=  c #2A1E21",
"-  c #002D2A",
";  c #002823",
":  c #1C2528",
">  c #1B2C2E",
",  c #00312D",
"<  c #1F2A30",
"1  c #003233",
"2  c #003C3C",
"3  c #003835",
"4  c #193637",
"5  c #232325",
"6  c #2A2326",
"7  c #262629",
"8  c #292529",
"9  c #26292C",
"0  c #2A2B2D",
"q  c #31262A",
"w  c #262D31",
"e  c #2C2E31",
"r  c #342D32",
"t  c #263034",
"y  c #2E3135",
"u  c #25373B",
"i  c #2D3339",
"p  c #2F3A3D",
"a  c #323236",
"s  c #32363B",
"d  c #34393E",
"f  c #393A3E",
"g  c #42383C",
"h  c #462B35",
"j  c #01413F",
"k  c #003B41",
"l  c #293E42",
"z  c #363C42",
"x  c #3A3E44",
"c  c #4C3D44",
"v  c #014342",
"b  c #004549",
"n  c #034A4D",
"m  c #0B4B4C",
"M  c #1B4545",
"N  c #154A4E",
"B  c #014D52",
"V  c #1D4C51",
"C  c #164C50",
"Z  c #055155",
"A  c #135155",
"S  c #195456",
"D  c #155559",
"F  c #1B565C",
"G  c #1C595C",
"H  c #264449",
"J  c #354141",
"K  c #3C4147",
"L  c #3D434A",
"P  c #33484D",
"I  c #244E53",
"U  c #3B4D53",
"Y  c #334A50",
"T  c #235559",
"R  c #3F565C",
"E  c #1D5F65",
"W  c #265C61",
"Q  c #00666B",
"!  c #286468",
"~  c #326167",
"^  c #386569",
"/  c #3C6D74",
"(  c #2B7276",
")  c #317074",
"_  c #327378",
"`  c #43454B",
"'  c #43494F",
"]  c #4A4B4C",
"[  c #49434A",
"{  c #454B52",
"}  c #494D53",
"|  c #534958",
" . c #4C5156",
".. c #47555C",
"X. c #4D545B",
"o. c #475A5E",
"O. c #52565D",
"+. c #51585F",
"@. c #4B5D63",
"#. c #555C63",
"$. c #595E66",
"%. c #49646A",
"&. c #5B626B",
"*. c #526368",
"=. c #5B6971",
"-. c #417173",
";. c #5E757B",
":. c #62666E",
">. c #6A686B",
",. c #646A73",
"<. c #696D75",
"1. c #696F78",
"2. c #6C737B",
"3. c #65747C",
"4. c #71747D",
"5. c #7A767E",
"6. c #3D7D84",
"7. c #367B80",
"8. c #507C83",
"9. c #767B83",
"0. c #777F88",
"q. c #3F8186",
"w. c #42838A",
"e. c #4A858A",
"r. c #458E96",
"t. c #4B8D94",
"y. c #4A939B",
"u. c #51959D",
"i. c #6B8087",
"p. c #73828B",
"a. c #7E848D",
"s. c #738087",
"d. c #758B93",
"f. c #71989C",
"g. c #4A9EA5",
"h. c #529BA2",
"j. c #5C9CA3",
"k. c #769FA4",
"l. c #59A4AC",
"z. c #53A1A9",
"x. c #5CACB4",
"c. c #57A7B0",
"v. c #63A4AC",
"b. c #65AEB7",
"n. c #60AFB8",
"m. c #65B1BA",
"M. c #6DB7BF",
"N. c #76B3BC",
"B. c #66B9C2",
"V. c #75BDC5",
"C. c #71C2CC",
"Z. c #7CC9D2",
"A. c #80868E",
"S. c #858C95",
"D. c #878F98",
"F. c #8F969E",
"G. c #9299A2",
"H. c #9B9DA6",
"J. c #A68DAF",
"K. c #A88EB1",
"L. c #96A1AA",
"P. c #9DA3AC",
"I. c #9FA6B0",
"U. c #85B4B9",
"Y. c #91B8BF",
"T. c #A4ACB6",
"R. c #A8AFB9",
"E. c #ACB3BD",
"W. c #86BAC2",
"Q. c #98B9C2",
"!. c #B4BBC5",
"~. c #B5BEC8",
"^. c #D6ADE4",
"/. c #85C8CF",
"(. c #84C6CD",
"). c #8DCCD4",
"_. c #95CBD0",
"`. c #8BD2DB",
"'. c #91D0D7",
"]. c #B2C1CC",
"[. c #9EDEE6",
"{. c #A9E2E9",
"}. c #A8E0E7",
"|. c None",
/* pixels */
"|.|.|.|.|.|.|.|.|.|.|.|.|.|.|.|.|.|.|.|.|.|.|.|.|.|.|.|.|.|.|.|.|.|.|.|.|.|.|.|.|.|.|.|.|.|.|.|.|.|.|.|.|.|.|.|.|.|.|.|.|.|.|.|.",
"|.|.|.|.|.|.|.|.|.|.|.|.|.|.|.|.|.|.|.|.|.|.|.|.|.|.|.|.|.|.|.|.|.|.|.|.|.|.|.|.|.|.|.|.|.|.|.|.|.|.|.|.|.|.|.|.|.|.|.|.|.|.|.|.",
"|.|.|.|.|.|.|.|.|.|.|.|.|.|.|.|.|.|.|.|.|.|.|.|.|.|.|.|.|.|.|.|.|.|.|.|.|.|.|.|.|.|.|.|.|.|.|.|.|.|.|.|.|.|.|.|.|.|.|.|.|.|.|.|.",
"|.|.|.|.|.|.|.|.|.|.|.|.|.|.|.|.|.|.|.|.|.|.|.|.|.|.|.|.|.|.|.|.|.|.|.m G G ~ ^ ! |.|.|.|.|.|.|.|.|.|.|.|.|.|.|.|.|.|.|.|.|.|.|.",
"|.|.|.|.|.|.|.|.|.|.|.|.|.|.|.|.|.|.|.|.|.|.|.|.|.|.|.|.|.|.|.|.|.v 3 S x.x.(.}.M._   |., , ; O - |.|.|.|.|.|.|.|.|.|.|.|.|.|.|.",
"|.|.|.|.|.|.|.|.|.|.|.|.|.|.|.|.|.|.|.|.|.|.|.|.|.|.|.|.|.|.|.|.|.v n G w.q.v.`.C.w.  T h.z.N._.m.|.|.|.|.|.|.|.|.|.|.|.|.|.|.|.",
"|.|.|.|.|.|.|.|.|.|.|.|.|.|.|.|.|.|.|.|.|.|.|.|.|.|.|.|.|.|.|.|.|.4 H I n 1 ~ y.u.) 1 S u.h.V.[.b.7.|.|.|.|.|.|.|.|.|.|.|.|.|.|.",
"|.|.|.|.|.|.|.|.|.|.|.|.|.|.|.|.|.|.|.|.|.|.|.|.|.|.|.|.|.|.|.|.|.9 a x S P a @ I G A v 1 - q.x.! n 2 |.|.|.|.|.|.|.|.|.|.|.|.|.",
"|.|.|.|.|.|.|.|.|.|.|.|.|.|.|.|.|.|.|.|.|.|.|.|.|.|.|.|.|.|.|.|.# 8 y d k o...M 2.%.Z A n 3 8.B.m.(   |.|.|.|.|.|.|.|.|.|.|.|.|.",
"|.|.|.|.|.|.|.|.|.|.|.|.|.|.|.|.|.|.|.|.|.|.|.|.|.|.|.|.|.|.5 f ,. .K X.A @.U Z T.9.b E r.h.r.6.m.'.U.  |.|.|.|.|.|.|.|.|.|.|.|.",
"|.|.|.|.|.|.|.|.|.|.|.|.|.|.|.|.|.|.|.|.|.|.|.|.|.|.|.|.|.0 0 d 3.X.` &.I $.9.d.T.p.k ~ /.Z.l.6.x.).U.; |.|.|.|.|.|.|.|.|.|.|.|.",
"|.|.|.|.|.|.|.|.|.|.|.|.|.|.|.|.|.|.|.|.|.|.|.|.|.|.|.a e 0 0 y B M { $.x $.G.E.0.&.[ *.}./.c.m.V.q.2 v |.|.|.|.|.|.|.|.|.|.|.|.",
"|.|.|.|.|.|.|.|.|.|.|.|.|.|.|.|.|.|.|.|.|.|.|.|.|.0 0 0 * # w z < k I #.#.O.$.<.{ V @.p.V.t., -.{.'.y., |.|.|.|.|.|.|.|.|.|.|.|.",
"|.|.|.|.|.|.|.|.|.|.|.|.|.|.|.|.|.|.|.|.|.|.|.|.8 0 0 s :.<.O.K G.L.H.H.2.Q.U.$ d : 8.N.r.E 1 M v.j.) |.|.|.|.|.|.|.|.|.|.|.|.|.",
"|.|.|.|.|.|.|.|.|.|.|.|.|.|.|.|.|.|.|.|.|.|.|.|.s 6 # a 2.a.,.x I.!.].Q.a.Y.U./ u X 8.B.A b D b     |.|.|.|.|.|.|.|.|.|.|.|.|.|.",
"|.|.|.|.|.|.|.|.|.|.|.|.|.|.|.|.|.|.|.|.|.|.|.B.P = s x $.4.:.e ,.P.Q.x.p.h / m.@.|.|.|.|.2 m F |.|.|.|.|.|.|.|.|.|.|.|.|.|.|.|.",
"|.|.|.|.|.|.|.|.|.|.|.|.|.|.|.|.|.|.|.|.|.$ H ! t } ,.9.9.&.a 6 . <.S.p.^ P e o.E.9.  |.|.|.|.|.|.|.|.|.|.|.|.|.|.|.|.|.|.|.|.|.",
"|.|.|.|.|.|.|.|.|.|.|.|.|.|.|.|.|.|.|.|.5 ' ..b 9 a &.a.A. .^ v.L.a.$.| l > a +.S.2.x 5 |.|.|.|.|.|.|.|.|.|.|.|.|.|.|.|.|.|.|.|.",
"|.|.|.|.|.|.|.|.|.|.|.|.|.|.|.|.|.|.|.|.w #.=.%.i o ` ,.<.[ / v.L.4.d : * d {  .` $.#.9 |.|.|.|.|.|.|.|.|.|.|.|.|.|.|.|.|.|.|.|.",
"|.|.|.|.|.|.|.|.|.|.|.|.|.|.|.|.|.|.|.|.z X.1.9.x 9 8 5 i d l N R d 5 a e X.*.{ p #.O.w S |.|.|.|.|.|.|.|.|.|.|.|.|.|.|.|.|.|.|.",
"|.|.|.|.|.|.|.|.|.|.|.|.|.|.|.|.|.|.|.|.d O.&.&.&.L * w z x * o.}.f.X *.&.d 9.T.` ,.2.& |.|.|.|.|.|.|.|.|.|.|.|.|.|.|.|.|.|.|.|.",
"|.|.|.|.|.|.|.|.|.|.|.|.|.|.|.|.|.|.|.|.w #.$.{ } x y 0 i i 5 J f.3.} &.' + 0.!.2.X.' 7 |.|.|.|.|.|.|.|.|.|.|.|.|.|.|.|.|.|.|.|.",
"|.|.|.|.|.|.|.|.|.|.|.|.|.|.|.|.|.|.|.|.* z J w d z d 0 8 0 0 8   } :.$.u Q k.!.P.&.  0 |.|.|.|.|.|.|.|.|.|.|.|.|.|.|.|.|.|.|.|.",
"|.|.|.|.|.|.|.|.|.|.|.|.|.|.|.|.|.|.|.|.s | | s z z a 0 0 0 0 y d X.&.$.V h.W.R.!.4.  0 |.|.|.|.|.|.|.|.|.|.|.|.|.|.|.|.|.|.|.|.",
"|.|.|.|.|.|.|.|.|.|.|.|.|.|.|.|.|.|.|.|.>.^.^.>.` t 0 0 0 s z z z X.&.$.a j.v.c <. .@ |.|.|.|.|.|.|.|.|.|.|.|.|.|.|.|.|.|.|.|.|.",
"|.|.|.|.|.|.|.|.|.|.|.|.|.|.|.|.|.|.|.|.] K.J.] K y 0 0 0 s z z i K O.$.& T w.h.U q 5 |.|.|.|.|.|.|.|.|.|.|.|.|.|.|.|.|.|.|.|.|.",
"|.|.|.|.|.|.|.|.|.|.|.|.|.|.|.|.|.|.|.|.+ ]  .i s y 0 0 9 s x z 0 w L #.9.9.d.h.l 5 u |.|.|.|.|.|.|.|.|.|.|.|.|.|.|.|.|.|.|.|.|.",
"|.|.|.|.|.|.|.|.|.|.|.|.|.|.|.|.|.|.|.|.0 i p d 0 0 0 0 0 d z d 0 s i X.R.~.H.#.y W ! |.|.|.|.|.|.|.|.|.|.|.|.|.|.|.|.|.|.|.|.|.",
"|.|.|.|.|.|.|.|.|.|.|.|.|.|.|.|.|.|.|.|.0 a e 0 0 s x z 0 d d 0 0 i { $.<.:.D.T.g j.c.n |.|.|.|.|.|.|.|.|.|.|.|.|.|.|.|.|.|.|.|.",
"|.|.|.|.|.|.|.|.|.|.|.|.|.|.|.|.|.|.|.|.|.|.0 0 5 0 0 0 0 y e 0 9 i { &.#.` D.~.} _ |.|.|.|.|.|.|.|.|.|.|.|.|.|.|.|.|.|.|.|.|.|.",
"|.|.|.|.|.|.|.|.|.|.|.|.|.|.|.|.|.|.|.|.|.|.|.a K ` L x 0 8 0 a 0 a L #.$.#.9.G.L |.|.|.|.|.|.|.|.|.|.|.|.|.|.|.|.|.|.|.|.|.|.|.",
"|.|.|.|.|.|.|.|.|.|.|.|.|.|.|.|.|.|.|.|.|.|.|.s $.&.&.&.d 0 i d 0 d z x #.$.{   y |.|.|.|.|.|.|.|.|.|.|.|.|.|.|.|.|.|.|.|.|.|.|.",
"|.|.|.|.|.|.|.|.|.|.|.|.|.|.|.|.|.|.|.|.|.|.|.s $.&.&.&.&.K 5 7 5 a x z x x s w G |.|.|.|.|.|.|.|.|.|.|.|.|.|.|.|.|.|.|.|.|.|.|.",
"|.|.|.|.|.|.|.|.|.|.|.|.|.|.|.|.|.|.|.|.|.|.|.a ' { { { } x K X.X.L i i z } @.C |.|.|.|.|.|.|.|.|.|.|.|.|.|.|.|.|.|.|.|.|.|.|.|.",
"|.|.|.|.|.|.|.|.|.|.|.|.|.|.|.|.|.|.|.|.|.|.|.e d d s i i s ' #.&.#.x 8 s  .@.N |.|.|.|.|.|.|.|.|.|.|.|.|.|.|.|.|.|.|.|.|.|.|.|.",
"|.|.|.|.|.|.|.|.|.|.|.|.|.|.|.|.|.|.|.|.|.|.|.a d z s 8 7 p d z #.&. .9 x z i = |.|.|.|.|.|.|.|.|.|.|.|.|.|.|.|.|.|.|.|.|.|.|.|.",
"|.|.|.|.|.|.|.|.|.|.|.|.|.|.|.|.|.|.|.|.|.|.|.e 0 0 0 0 0 0 a x x K x z X.{ i |.|.|.|.|.|.|.|.|.|.|.|.|.|.|.|.|.|.|.|.|.|.|.|.|.",
"|.|.|.|.|.|.|.|.|.|.|.|.|.|.|.|.|.|.|.|.|.|.|.a d d i 0 0 0 i z z i . x P.a.L |.|.|.|.|.|.|.|.|.|.|.|.|.|.|.|.|.|.|.|.|.|.|.|.|.",
"|.|.|.|.|.|.|.|.|.|.|.|.|.|.|.|.|.|.|.|.|.|.|.0 s z i 0 0 8 w d p s #.A.P.S.@.|.|.|.|.|.|.|.|.|.|.|.|.|.|.|.|.|.|.|.|.|.|.|.|.|.",
"|.|.|.|.|.|.|.|.|.|.|.|.|.|.|.|.|.|.|.|.|.|.|.|.0 0 0 0 0 a y 9 5 L S.E.&.$.&.|.|.|.|.|.|.|.|.|.|.|.|.|.|.|.|.|.|.|.|.|.|.|.|.|.",
"|.|.|.|.|.|.|.|.|.|.|.|.|.|.|.|.|.|.|.|.|.|.|.|.0 e 0 0 i O. .* 5 X.,.,.L $.&.|.|.|.|.|.|.|.|.|.|.|.|.|.|.|.|.|.|.|.|.|.|.|.|.|.",
"|.|.|.|.|.|.|.|.|.|.|.|.|.|.|.|.|.|.|.|.|.|.|.|.0 0 e z X.&.$.} e x X.#.z ` ` |.|.|.|.|.|.|.|.|.|.|.|.|.|.|.|.|.|.|.|.|.|.|.|.|.",
"|.|.|.|.|.|.|.|.|.|.|.|.|.|.|.|.|.|.|.|.|.|.|.|.0 0 i K X.$.&.*.a w L @.K w 5 |.|.|.|.|.|.|.|.|.|.|.|.|.|.|.|.|.|.|.|.|.|.|.|.|.",
"|.|.|.|.|.|.|.|.|.|.|.|.|.|.|.|.|.|.|.|.|.|.|.|.|.0 a z d  .&.$.a i z d z a 0 |.|.|.|.|.|.|.|.|.|.|.|.|.|.|.|.|.|.|.|.|.|.|.|.|.",
"|.|.|.|.|.|.|.|.|.|.|.|.|.|.|.|.|.|.|.|.|.|.|.|.|.0 y y z z } &.a s d 0 e y |.|.|.|.|.|.|.|.|.|.|.|.|.|.|.|.|.|.|.|.|.|.|.|.|.|.",
"|.|.|.|.|.|.|.|.|.|.|.|.|.|.|.|.|.|.|.|.|.|.|.|.|.e 0 0 i d K ' e s d 0 e r |.|.|.|.|.|.|.|.|.|.|.|.|.|.|.|.|.|.|.|.|.|.|.|.|.|.",
"|.|.|.|.|.|.|.|.|.|.|.|.|.|.|.|.|.|.|.|.|.|.|.|.|.0 y 0 8 s d y 9 a d 9 0 |.|.|.|.|.|.|.|.|.|.|.|.|.|.|.|.|.|.|.|.|.|.|.|.|.|.|.",
"|.|.|.|.|.|.|.|.|.|.|.|.|.|.|.|.|.|.|.|.|.|.|.|.|.0 0 0 0 s s 0 a x z 9 |.|.|.|.|.|.|.|.|.|.|.|.|.|.|.|.|.|.|.|.|.|.|.|.|.|.|.|.",
"|.|.|.|.|.|.|.|.|.|.|.|.|.|.|.|.|.|.|.|.|.|.|.|.|.|.y 0 0 0 9 a #.&. .8 |.|.|.|.|.|.|.|.|.|.|.|.|.|.|.|.|.|.|.|.|.|.|.|.|.|.|.|.",
"|.|.|.|.|.|.|.|.|.|.|.|.|.|.|.|.|.|.|.|.|.|.|.|.|.a 0 0 0 a s d ` *.+.5 |.|.|.|.|.|.|.|.|.|.|.|.|.|.|.|.|.|.|.|.|.|.|.|.|.|.|.|.",
"|.|.|.|.|.|.|.|.|.|.|.|.|.|.|.|.|.|.|.|.|.|.|.|.|.e y 0 0 i f x d { } 9 |.|.|.|.|.|.|.|.|.|.|.|.|.|.|.|.|.|.|.|.|.|.|.|.|.|.|.|.",
"|.|.|.|.|.|.|.|.|.|.|.|.|.|.|.|.|.|.|.|.|.|.|.|.|.e 0 0 0 0 y x x e 8 e |.|.|.|.|.|.|.|.|.|.|.|.|.|.|.|.|.|.|.|.|.|.|.|.|.|.|.|.",
"|.|.|.|.|.|.|.|.|.|.|.|.|.|.|.|.|.|.|.|.|.|.|.|.|.0 e 0 0 0 e e w y 0 |.|.|.|.|.|.|.|.|.|.|.|.|.|.|.|.|.|.|.|.|.|.|.|.|.|.|.|.|.",
"|.|.|.|.|.|.|.|.|.|.|.|.|.|.|.|.|.|.|.|.|.|.|.|.|.|.r y e a e e e e |.|.|.|.|.|.|.|.|.|.|.|.|.|.|.|.|.|.|.|.|.|.|.|.|.|.|.|.|.|.",
"|.|.|.|.|.|.|.|.|.|.|.|.|.|.|.|.|.|.|.|.|.|.|.|.|.|.|.|.|.|.|.|.|.|.|.|.|.|.|.|.|.|.|.|.|.|.|.|.|.|.|.|.|.|.|.|.|.|.|.|.|.|.|.|.",
"|.|.|.|.|.|.|.|.|.|.|.|.|.|.|.|.|.|.|.|.|.|.|.|.|.|.|.|.|.|.|.|.|.|.|.|.|.|.|.|.|.|.|.|.|.|.|.|.|.|.|.|.|.|.|.|.|.|.|.|.|.|.|.|.",
"|.|.|.|.|.|.|.|.|.|.|.|.|.|.|.|.|.|.|.|.|.|.|.|.|.|.|.|.|.|.|.|.|.|.|.|.|.|.|.|.|.|.|.|.|.|.|.|.|.|.|.|.|.|.|.|.|.|.|.|.|.|.|.|.",
"|.|.|.|.|.|.|.|.|.|.|.|.|.|.|.|.|.|.|.|.|.|.|.|.|.|.|.|.|.|.|.|.|.|.|.|.|.|.|.|.|.|.|.|.|.|.|.|.|.|.|.|.|.|.|.|.|.|.|.|.|.|.|.|.",
"|.|.|.|.|.|.|.|.|.|.|.|.|.|.|.|.|.|.|.|.|.|.|.|.|.|.|.|.|.|.|.|.|.|.|.|.|.|.|.|.|.|.|.|.|.|.|.|.|.|.|.|.|.|.|.|.|.|.|.|.|.|.|.|.",
"|.|.|.|.|.|.|.|.|.|.|.|.|.|.|.|.|.|.|.|.|.|.|.|.|.|.|.|.|.|.|.|.|.|.|.|.|.|.|.|.|.|.|.|.|.|.|.|.|.|.|.|.|.|.|.|.|.|.|.|.|.|.|.|.",
"|.|.|.|.|.|.|.|.|.|.|.|.|.|.|.|.|.|.|.|.|.|.|.|.|.|.|.|.|.|.|.|.|.|.|.|.|.|.|.|.|.|.|.|.|.|.|.|.|.|.|.|.|.|.|.|.|.|.|.|.|.|.|.|.",
"|.|.|.|.|.|.|.|.|.|.|.|.|.|.|.|.|.|.|.|.|.|.|.|.|.|.|.|.|.|.|.|.|.|.|.|.|.|.|.|.|.|.|.|.|.|.|.|.|.|.|.|.|.|.|.|.|.|.|.|.|.|.|.|.",
"|.|.|.|.|.|.|.|.|.|.|.|.|.|.|.|.|.|.|.|.|.|.|.|.|.|.|.|.|.|.|.|.|.|.|.|.|.|.|.|.|.|.|.|.|.|.|.|.|.|.|.|.|.|.|.|.|.|.|.|.|.|.|.|.",
"|.|.|.|.|.|.|.|.|.|.|.|.|.|.|.|.|.|.|.|.|.|.|.|.|.|.|.|.|.|.|.|.|.|.|.|.|.|.|.|.|.|.|.|.|.|.|.|.|.|.|.|.|.|.|.|.|.|.|.|.|.|.|.|."
};
