/* XPM */
static char *result[] = {
/* columns rows colors chars-per-pixel */
"64 64 182 2 ",
"   c #010000",
".  c #0B0907",
"X  c #000814",
"o  c #191019",
"O  c #1B1A1B",
"+  c #1B1717",
"@  c #210000",
"#  c #2B0000",
"$  c #200C17",
"%  c #2E141C",
"&  c #2B191E",
"*  c #0B1B22",
"=  c #1F1720",
"-  c #1F1E20",
";  c #2B1F27",
":  c #1F2022",
">  c #1F262D",
",  c #232426",
"<  c #2B2427",
"1  c #252629",
"2  c #2C2529",
"3  c #26292C",
"4  c #2A2A2D",
"5  c #34282C",
"6  c #2C2D31",
"7  c #252D30",
"8  c #263135",
"9  c #2E3136",
"0  c #2E3439",
"q  c #2D3B3F",
"w  c #27363B",
"e  c #313135",
"r  c #31353A",
"t  c #39353B",
"y  c #33393E",
"u  c #253F42",
"i  c #353C42",
"p  c #393E44",
"a  c #453C44",
"s  c #004A4F",
"d  c #034547",
"f  c #19474C",
"g  c #1F4F54",
"h  c #005E5F",
"j  c #075959",
"k  c #125456",
"l  c #15595E",
"z  c #1C5A5B",
"x  c #18565C",
"c  c #274244",
"v  c #244A4E",
"b  c #274345",
"n  c #3A4046",
"m  c #33454A",
"M  c #3E444A",
"N  c #34454A",
"B  c #254D51",
"V  c #2A4D52",
"C  c #235056",
"Z  c #215658",
"A  c #29585A",
"S  c #165B61",
"D  c #185D63",
"F  c #265E63",
"G  c #2B5E63",
"H  c #3A5F65",
"J  c #006B67",
"K  c #036D6C",
"L  c #0D6D6F",
"P  c #186C6C",
"I  c #007673",
"U  c #117171",
"Y  c #2D676B",
"T  c #3F6F74",
"R  c #2D7578",
"E  c #41444A",
"W  c #4C464D",
"Q  c #43484F",
"!  c #49484F",
"~  c #454B52",
"^  c #494E55",
"/  c #504A52",
"(  c #4D5057",
")  c #4D535A",
"_  c #415159",
"`  c #52565D",
"'  c #51585F",
"]  c #555C64",
"[  c #595E66",
"{  c #5A5F68",
"}  c #496067",
"|  c #406068",
" . c #4C6269",
".. c #5A6067",
"X. c #55646B",
"o. c #5C626B",
"O. c #556A71",
"+. c #5C6D74",
"@. c #457279",
"#. c #5D7178",
"$. c #61656D",
"%. c #606770",
"&. c #656B73",
"*. c #6A6E76",
"=. c #716E77",
"-. c #6D737B",
";. c #72767E",
":. c #4A7B81",
">. c #427C84",
",. c #547C84",
"<. c #6C7981",
"1. c #717780",
"2. c #747A83",
"3. c #797D86",
"4. c #028483",
"5. c #098886",
"6. c #008F8C",
"7. c #098D8B",
"8. c #198C8C",
"9. c #009E9B",
"0. c #1A9694",
"q. c #2A8687",
"w. c #368688",
"e. c #289393",
"r. c #00A9A6",
"t. c #00A6A2",
"y. c #15A5A4",
"u. c #1DB4B2",
"i. c #3CB7B7",
"p. c #49868D",
"a. c #489199",
"s. c #73828B",
"d. c #7C828B",
"f. c #688992",
"g. c #798C95",
"h. c #77969F",
"j. c #5399A1",
"k. c #599BA3",
"l. c #649CA5",
"z. c #749AA3",
"x. c #49A3A8",
"c. c #53A1A8",
"v. c #46ACB1",
"b. c #5BABB4",
"n. c #43B7BA",
"m. c #50B0B5",
"M. c #61A7AF",
"N. c #66ABB4",
"B. c #72AAB3",
"V. c #65B3BC",
"C. c #69B6C0",
"Z. c #81838C",
"A. c #808690",
"S. c #858C95",
"D. c #888F99",
"F. c #8C929C",
"G. c #90969E",
"H. c #8F96A0",
"J. c #9097A0",
"K. c #939AA3",
"L. c #989EA7",
"P. c #989FA8",
"I. c #9CA3AC",
"U. c #9CB4BD",
"Y. c #A3ABB5",
"T. c #A3A7B1",
"R. c #ACB3BD",
"E. c #B1B6BF",
"W. c #80B8C0",
"Q. c #9CBAC4",
"!. c #AFB7C1",
"~. c #B3BBC5",
"^. c #85CBCF",
"/. c #89CAD3",
"(. c #8DD7DF",
"). c #91D7DD",
"_. c #BBC3CE",
"`. c #B7C0CA",
"'. c #A6E1E9",
"]. c #ABECF2",
"[. c #B1EBF2",
"{. c None",
/* pixels */
"{.{.{.{.{.{.{.{.{.{.{.{.{.{.{.{.{.{.{.{.{.{.{.{.{.{.{.{.{.{.{.{.{.{.{.{.{.{.{.{.{.{.{.{.{.{.{.{.{.{.{.{.{.{.{.{.{.{.{.{.{.{.{.{.",
"{.{.{.{.{.{.{.{.{.{.{.{.{.{.{.{.{.{.{.{.{.{.{.{.{.{.{.{.{.{.{.{.{.{.{.{.{.{.{.{.{.{.{.{.{.{.{.{.{.{.{.{.{.{.{.{.{.{.{.{.{.{.{.{.",
"{.{.{.{.{.{.{.{.{.{.{.{.{.{.{.{.{.{.{.{.{.{.{.{.{.{.{.{.{.{.{.{.{.{.{.{.{.{.{.{.{.{.{.{.{.{.{.{.{.{.{.{.{.{.{.{.{.{.{.{.{.{.{.{.",
"{.{.{.{.{.{.{.{.{.{.{.{.{.{.{.{.{.{.{.{.{.{.{.{.{.{.{.{.{.{.{.{.{.{.{.{.{.{.{.{.{.{.{.{.{.{.{.{.{.{.{.{.{.{.{.{.{.{.{.{.{.{.{.{.",
"{.{.{.{.{.{.{.{.{.{.{.{.{.{.{.{.{.{.{.{.{.{.{.{.{.{.{.{.{.{.{.[.{.{.{.{.{.{.{.{.{.{.{.{.{.{.{.{.{.{.{.{.{.{.{.{.{.{.{.{.{.{.{.{.",
"{.{.{.{.{.{.{.{.{.{.{.{.{.{.{.{.{.{.{.{.{.{.{.{.{.{.{.{.{.{.{./.{.{.{.{.{.{.{.{.{.{.{.{.{.{.{.{.{.{.{.{.{.{.{.{.{.{.{.{.{.{.{.{.",
"{.{.{.{.{.{.{.{.{.{.{.{.{.{.{.{.{.{.{.{.{.{.{.{.{.{.{.{.{.{.{.v.{.{.{.{.{.{.{.{.{.{.{.{.{.{.{.{.{.{.{.{.{.{.{.{.{.{.{.{.{.{.{.{.",
"{.{.{.{.{.{.{.{.{.{.{.{.{.{.{.{.{.{.{.{.{.{.{.{.{.{.{.{.{.{.{.t.{.{.{.{.{.{.{.{.{.{.{.{.{.{.{.{.{.{.{.{.{.{.{.{.{.{.{.{.{.{.{.{.",
"{.{.{.{.{.{.{.{.{.{.{.{.V.{.{.{.{.{.{.{.{.{.{.{.{.{.{.{.{.{.{.6.r.{.{.{.{.{.{.{.{.{.{.{.{.{.{.{.{.{.{.V.{.{.{.{.{.{.{.{.{.{.{.{.",
"{.{.{.{.{.{.{.{.{.{.{.{.{.C.c.J {.{.{.6 r 6 1 6 {.{.{.{.{.{.l L 9.{.{.{.{.{.{.{.4 4 4 4 1 t {.{.r.).'.{.{.{.{.{.{.{.{.{.{.{.{.{.",
"{.{.{.{.{.{.{.{.{.{.{.{.{.{.x.0.{.{.@.5 ~ p 0 4 {.{.{.{.{.V f f l d {.{.{.{.{.{.4 6 0 e 4 i A {.9.^.{.{.{.{.{.{.{.{.{.{.{.{.{.{.",
"{.{.{.{.{.{.{.{.{.{.{.{.{.{.{.i.].(.a.< +.( 6 4 4 E ( ( o.^ e t m 7 { D.D.D.3.^ e 4 e i 6 f 8.u.5.{.{.{.{.{.{.{.{.{.{.{.{.{.{.{.",
"{.{.{.{.{.{.{.{.{.{.{.{.{.{.{.7.w.e.U G b.@.% 3   G.~.R.&.&.;.1.N.:.Z.~.!.!.~.Y.) > e p f 6.i.V.8.{.{.{.{.{.{.{.{.{.{.{.{.{.{.{.",
"{.{.{.{.{.{.{.{.{.{.{.{.{.{.{.z I K s Y Q.s.o 0 7 *.D.F.;.;.g.M.n.q.X.S.F.K.G.g.M o.$.u s 4.e.>.k b {.{.{.{.{.{.{.{.{.{.{.{.{.{.",
"{.{.{.{.{.{.{.{.{.{.{.{.{.{.{.4 K h C #.Y.;.* y 0 &.A.F.d.;.h.W.e.P M ..-.-...( i ....p  .Y h d ^ W r {.{.{.{.{.{.{.{.{.{.{.{.{.",
"{.{.{.{.{.{.{.{.{.{.{.{.{.{.{.y B x O.d.;.' n M > I.`.R.Z.2.L.R./ ! <.S.A.-.o.] i Q E M 3.O.k H 3.[   {.{.{.{.{.{.{.{.{.{.{.{.{.",
"{.{.{.{.{.{.{.{.{.{.{.{.{.O M ..] -.<...M &.2.-.0 I.R.3.1.T.`.E.$.o.H.~.!.!.P.) X J.J.; 2.3.<.2.3.` . {.{.{.{.{.{.{.{.{.{.{.{.{.",
"{.{.{.{.{.{.{.{.{.{.{.{.{.. r ( ..&.&.' 0 &.g.3.r -.2.&.s.2.3.g.l.f.Z.P.!._.I...J.E.U.j.s.3.3.d.B.@.  {.{.{.{.{.{.{.{.{.{.{.{.{.",
"{.{.{.{.{.{.{.{.{.{.{.{.{.` ` y ) ) ] ..i &.3.$.0 M ] ..;.~ = X.V.z.=.-.I.Y.F.o.T.~.U.j.<.3.3.<.l.,.W {.{.{.{.{.{.{.{.{.{.{.{.{.",
"{.{.{.{.{.{.{.{.{.{.{.{.{.A.1.0 i 0 Q ] i *.*.3 1 ( ..] ] M E +.N.h.&...-.2.&.] *.T.J.$ ] -.-.) 2 ;.A.{.{.{.{.{.{.{.{.{.{.{.{.{.",
"{.{.{.{.{.{.{.{.{.{.{.{.{.Z.-., i i p p : -.*.: 4 r y i p i W +.V.f.[ ] ..o.] p 6 -.1.y ] %.] i e 2.d.{.{.{.{.{.{.{.{.{.{.{.{.{.",
"{.{.{.{.{.{.{.{.{.{.{.{.{.` ( 4 i p y 6 1 ^ ( 1 o ] *.%.i 0 i | C.p.~ o.] ] ( 3 ; ~ ( p ~ ~ E i i ` ` {.{.{.{.{.{.{.{.{.{.{.{.{.",
"{.{.{.{.{.{.{.{.{.{.{.{.{.{.O e i i 0 4 0 6 3 6 i -.A.3.) t Z 4.j.R B ` &.-.] 1 4 3 8 r y e 0 r i , {.{.{.{.{.{.{.{.{.{.{.{.{.{.",
"{.{.{.{.{.{.{.{.{.{.{.{.{.{.{.6 i 6 1 4 i e 1 0 ] -.3.2.%.a R y.S g B E ;.d.&.y 0 4 3 6 y 0 4 4 3 {.{.{.{.{.{.{.{.{.{.{.{.{.{.{.",
"{.{.{.{.{.{.{.{.{.{.{.{.{.{.{.{.6 4 4 4 4 r i i p ] +.o.o.{ X.O.X.[ ] { o.o.o.] n 0 4 4 6 4 4 4 {.{.{.{.{.{.{.{.{.{.{.{.{.{.{.{.",
"{.{.{.{.{.{.{.{.{.{.{.{.{.{.{.{., 1 4 4 4 r p i y M ~ ~ ~ ^ Q a 5 ` %.o...{ o...n 6 1 4 4 4 6 0 {.{.{.{.{.{.{.{.{.{.{.{.{.{.{.{.",
"{.{.{.{.{.{.{.{.{.{.{.{.{.{.{.{.E i 6 4 4 r p i p r 6 0 e r 6 8 @.} ^ ) ) ] [ ) n r 6 4 4 4 p ^ {.{.{.{.{.{.{.{.{.{.{.{.{.{.{.{.",
"{.{.{.{.{.{.{.{.{.{.{.{.{.{.{.y ..^ e 4 4 r i i i e 1 4 3 i 6 N V.:.@ i 0 ' ' 0 i i r 4 4 0 ^ ..y {.{.{.{.{.{.{.{.{.{.{.{.{.{.{.",
"{.{.{.{.{.{.{.{.{.{.{.{.{.{.{.r o.^ 0 1 4 4 r i 6 4 4 6 e i 2 N N.:.% y i p p p n r 4 6 y y ^ o.y {.{.{.{.{.{.{.{.{.{.{.{.{.{.{.",
"{.{.{.{.{.{.{.{.{.{.{.{.{.{.{.r M n i r 6 1 e i 6 4 3 e ] ~ w G V.p.m ] ] n 7 0 e 4 4 4 i i n E {.{.{.{.{.{.{.{.{.{.{.{.{.{.{.{.",
"{.{.{.{.{.{.{.{.{.{.{.{.{.{.{.4 , 6 i i 6 4 6 r 6 4 3 e ( E 8 F m.w.i ) ` i , 3 4 4 4 4 r p y + {.{.{.{.{.{.{.{.{.{.{.{.{.{.{.{.",
"{.{.{.{.{.{.{.{.{.{.{.{.{.{.{.{.6 4 0 y 6 4 4 4 4 4 4 4 1 1 & u 9.P # 1 < 3 6 4 6 4 4 4 4 y i {.{.{.{.{.{.{.{.{.{.{.{.{.{.{.{.{.",
"{.{.{.{.{.{.{.{.{.{.{.{.{.{.{.{.4 4 4 6 4 4 4 4 4 4 4 4 4 4 4 9 b w 4 4 4 4 6 4 4 4 4 4 4 e 6 {.{.{.{.{.{.{.{.{.{.{.{.{.{.{.{.{.",
"{.{.{.{.{.{.{.{.{.{.{.{.{.{.{.{.{.4 2 < 2 4 4 4 4 6 4 4 4 4 4 4 & 2 4 6 4 4 4 4 4 4 4 1 2 4 {.{.{.{.{.{.{.{.{.{.{.{.{.{.{.{.{.{.",
"{.{.{.{.{.{.{.{.{.{.{.{.{.{.{.{.{.u b u c 8 4 4 4 4 4 4 4 4 4 4 4 6 4 4 6 4 4 6 4 4 8 c b q {.{.{.{.{.{.{.{.{.{.{.{.{.{.{.{.{.{.",
"{.{.{.{.{.{.{.{.{.{.{.{.{.{.{.{.{.C l x l c 2 6 4 9 6 4 4 4 4 4 4 4 4 4 4 4 4 4 4 < c l l B {.{.{.{.{.{.{.{.{.{.{.{.{.{.{.{.{.{.",
"{.{.{.{.{.{.{.{.{.{.{.{.{.{.{.{.{.{.B D l c 4 y y y r 3 4 4 4 4 6 6 4 4 3 4 3 4 4 < c D D v {.{.{.{.{.{.{.{.{.{.{.{.{.{.{.{.{.{.",
"{.{.{.{.{.{.{.{.{.{.{.{.{.{.{.{.{.{.{.B V 8 r n n n i y y e 4 e e 4 4 6 r i y r 4 4 0 v v {.{.{.{.{.{.{.{.{.{.{.{.{.{.{.{.{.{.{.",
"{.{.{.{.{.{.{.{.{.{.{.{.{.{.{.{.{.{.{.{.{.4 9 y r y y y i r 4 {.{.4 6 6 y y y y 9 4 5 {.{.{.{.{.{.{.{.{.{.{.{.{.{.{.{.{.{.{.{.{.",
"{.{.{.{.{.{.{.{.{.{.{.{.{.{.{.{.{.{.{.{.{.{.e 4 4 4 4 4 4 4 4 {.{.e 4 4 4 4 4 4 4 9 {.{.{.{.{.{.{.{.{.{.{.{.{.{.{.{.{.{.{.{.{.{.",
"{.{.{.{.{.{.{.{.{.{.{.{.{.{.{.{.{.{.{.{.{.{.{.{.{.{.{.{.{.{.{.{.{.{.{.{.{.{.{.{.{.{.{.{.{.{.{.{.{.{.{.{.{.{.{.{.{.{.{.{.{.{.{.{.",
"{.{.{.{.{.{.{.{.{.{.{.{.{.{.{.{.{.{.{.{.{.{.{.{.{.{.{.{.{.{.{.{.{.{.{.{.{.{.{.{.{.{.{.{.{.{.{.{.{.{.{.{.{.{.{.{.{.{.{.{.{.{.{.{.",
"{.{.{.{.{.{.{.{.{.{.{.{.{.{.{.{.{.{.{.{.{.{.{.{.{.{.{.{.{.{.{.{.{.{.{.{.{.{.{.{.{.{.{.{.{.{.{.{.{.{.{.{.{.{.{.{.{.{.{.{.{.{.{.{.",
"{.{.{.{.{.{.{.{.{.{.{.{.{.{.{.{.{.{.{.{.{.{.{.{.{.{.{.{.{.{.{.{.{.{.{.{.{.{.{.{.{.{.{.{.{.{.{.{.{.{.{.{.{.{.{.{.{.{.{.{.{.{.{.{.",
"{.{.{.{.{.{.{.{.{.{.{.{.{.{.{.{.{.{.{.{.{.{.{.{.{.{.{.{.{.{.{.{.{.{.{.{.{.{.{.{.{.{.{.{.{.{.{.{.{.{.{.{.{.{.{.{.{.{.{.{.{.{.{.{.",
"{.{.{.{.{.{.{.{.{.{.{.{.{.{.{.{.{.{.{.{.{.{.{.{.{.{.{.{.{.{.{.{.{.{.{.{.{.{.{.{.{.{.{.{.{.{.{.{.{.{.{.{.{.{.{.{.{.{.{.{.{.{.{.{.",
"{.{.{.{.{.{.{.{.{.{.{.{.{.{.{.{.{.{.{.{.{.{.{.{.{.{.{.{.{.{.{.{.{.{.{.{.{.{.{.{.{.{.{.{.{.{.{.{.{.{.{.{.{.{.{.{.{.{.{.{.{.{.{.{.",
"{.{.{.{.{.{.{.{.{.{.{.{.{.{.{.{.{.{.{.{.{.{.{.{.{.{.{.{.{.{.{.{.{.{.{.{.{.{.{.{.{.{.{.{.{.{.{.{.{.{.{.{.{.{.{.{.{.{.{.{.{.{.{.{.",
"{.{.{.{.{.{.{.{.{.{.{.{.{.{.{.{.{.{.{.{.{.{.{.{.{.{.{.{.{.{.{.{.{.{.{.{.{.{.{.{.{.{.{.{.{.{.{.{.{.{.{.{.{.{.{.{.{.{.{.{.{.{.{.{.",
"{.{.{.{.{.{.{.{.{.{.{.{.{.{.{.{.{.{.{.{.{.{.{.{.{.{.{.{.{.{.{.{.{.{.{.{.{.{.{.{.{.{.{.{.{.{.{.{.{.{.{.{.{.{.{.{.{.{.{.{.{.{.{.{.",
"{.{.{.{.{.{.{.{.{.{.{.{.{.{.{.{.{.{.{.{.{.{.{.{.{.{.{.{.{.{.{.{.{.{.{.{.{.{.{.{.{.{.{.{.{.{.{.{.{.{.{.{.{.{.{.{.{.{.{.{.{.{.{.{.",
"{.{.{.{.{.{.{.{.{.{.{.{.{.{.{.{.{.{.{.{.{.{.{.{.{.{.{.{.{.{.{.{.{.{.{.{.{.{.{.{.{.{.{.{.{.{.{.{.{.{.{.{.{.{.{.{.{.{.{.{.{.{.{.{.",
"{.{.{.{.{.{.{.{.{.{.{.{.{.{.{.{.{.{.{.{.{.{.{.{.{.{.{.{.{.{.{.{.{.{.{.{.{.{.{.{.{.{.{.{.{.{.{.{.{.{.{.{.{.{.{.{.{.{.{.{.{.{.{.{.",
"{.{.{.{.{.{.{.{.{.{.{.{.{.{.{.{.{.{.{.{.{.{.{.{.{.{.{.{.{.{.{.{.{.{.{.{.{.{.{.{.{.{.{.{.{.{.{.{.{.{.{.{.{.{.{.{.{.{.{.{.{.{.{.{.",
"{.{.{.{.{.{.{.{.{.{.{.{.{.{.{.{.{.{.{.{.{.{.{.{.{.{.{.{.{.{.{.{.{.{.{.{.{.{.{.{.{.{.{.{.{.{.{.{.{.{.{.{.{.{.{.{.{.{.{.{.{.{.{.{.",
"{.{.{.{.{.{.{.{.{.{.{.{.{.{.{.{.{.{.{.{.{.{.{.{.{.{.{.{.{.{.{.{.{.{.{.{.{.{.{.{.{.{.{.{.{.{.{.{.{.{.{.{.{.{.{.{.{.{.{.{.{.{.{.{.",
"{.{.{.{.{.{.{.{.{.{.{.{.{.{.{.{.{.{.{.{.{.{.{.{.{.{.{.{.{.{.{.{.{.{.{.{.{.{.{.{.{.{.{.{.{.{.{.{.{.{.{.{.{.{.{.{.{.{.{.{.{.{.{.{.",
"{.{.{.{.{.{.{.{.{.{.{.{.{.{.{.{.{.{.{.{.{.{.{.{.{.{.{.{.{.{.{.{.{.{.{.{.{.{.{.{.{.{.{.{.{.{.{.{.{.{.{.{.{.{.{.{.{.{.{.{.{.{.{.{.",
"{.{.{.{.{.{.{.{.{.{.{.{.{.{.{.{.{.{.{.{.{.{.{.{.{.{.{.{.{.{.{.{.{.{.{.{.{.{.{.{.{.{.{.{.{.{.{.{.{.{.{.{.{.{.{.{.{.{.{.{.{.{.{.{.",
"{.{.{.{.{.{.{.{.{.{.{.{.{.{.{.{.{.{.{.{.{.{.{.{.{.{.{.{.{.{.{.{.{.{.{.{.{.{.{.{.{.{.{.{.{.{.{.{.{.{.{.{.{.{.{.{.{.{.{.{.{.{.{.{.",
"{.{.{.{.{.{.{.{.{.{.{.{.{.{.{.{.{.{.{.{.{.{.{.{.{.{.{.{.{.{.{.{.{.{.{.{.{.{.{.{.{.{.{.{.{.{.{.{.{.{.{.{.{.{.{.{.{.{.{.{.{.{.{.{.",
"{.{.{.{.{.{.{.{.{.{.{.{.{.{.{.{.{.{.{.{.{.{.{.{.{.{.{.{.{.{.{.{.{.{.{.{.{.{.{.{.{.{.{.{.{.{.{.{.{.{.{.{.{.{.{.{.{.{.{.{.{.{.{.{.",
"{.{.{.{.{.{.{.{.{.{.{.{.{.{.{.{.{.{.{.{.{.{.{.{.{.{.{.{.{.{.{.{.{.{.{.{.{.{.{.{.{.{.{.{.{.{.{.{.{.{.{.{.{.{.{.{.{.{.{.{.{.{.{.{.",
"{.{.{.{.{.{.{.{.{.{.{.{.{.{.{.{.{.{.{.{.{.{.{.{.{.{.{.{.{.{.{.{.{.{.{.{.{.{.{.{.{.{.{.{.{.{.{.{.{.{.{.{.{.{.{.{.{.{.{.{.{.{.{.{."
};
