/* XPM */
static char *result[] = {
/* columns rows colors chars-per-pixel */
"64 64 50 1 ",
"  c black",
". c #180000",
"X c gray8",
"o c #241400",
"O c #2C1800",
"+ c #342000",
"@ c #3C2404",
"# c #343434",
"$ c #482C04",
"% c #503008",
"& c #58380C",
"* c #603810",
"= c #443434",
"- c #684000",
"; c #785004",
": c #644014",
"> c #684014",
", c #6C4C18",
"< c #744C1C",
"1 c #78581C",
"2 c #000440",
"3 c #00044C",
"4 c #001474",
"5 c #002870",
"6 c #043478",
"7 c gray25",
"8 c #585858",
"9 c #646464",
"0 c #6C6C6C",
"q c #886408",
"w c #98780C",
"e c #806024",
"r c #8C6C28",
"t c #947830",
"y c #A88C10",
"u c #BCA414",
"i c #A08438",
"p c #D0C01C",
"a c #0428A0",
"s c #0C4084",
"d c #185090",
"f c #3470A4",
"g c #0C48CC",
"h c #4480B0",
"j c #848484",
"k c gray61",
"l c #B4B4B4",
"z c #D4C4B4",
"x c #D8D8D8",
"c c None",
/* pixels */
"cccccccccccccccccccccccccccccccccccccccccccccccccccccccccccccccc",
"cccccccccccccccccccccccccccccccccccccccccccccccccccccccccccccccc",
"cccccccccccccccccccccccccccccccccccccccccccccccccccccccccccccccc",
"cccccccccccccccccccccccccccccccccccccccc6dd6cccccccccccccccccccc",
"cccccccccccccccccccccccccccccccccccccccs6226sccccccccccccccccccc",
"ccccccccccccccccccccccccccccccccccccccch2  2hccccccccccccccccccc",
"cccccccccccccccccccccccccccccccccccccccs6226sccccccccccccccccccc",
"cccccccccccccccccccccccccccccccccccccdcch55scccccccccccccccccccc",
"ccccccccccccccccccccccccccccccccccccccccqfwccccccccccccccccccccc",
"ccccccccccccccccccccccccccccccccccccccccwpwccccccccccccccccccccc",
"cccccccccccccccccccccccccccccccccccccccc;pwccccccccccccccccccccc",
"cccccccccccccccccccccccccccccccccccccccc-pwccccccccccccccccccccc",
"cccccccccccccccccccccccccccccccccccccccc$pqccccccccccccccccccccc",
"ccccccccccccccccccccccccccccccccccccccccou;ccccccccccccccccccccc",
"ccccccccccccccccccccccccccccccccccccccccc&+ccccccccccccccccccccc",
"ccccccccccccccccccccccccccccccccccccccccc%+ccccccccccccccccccccc",
"ccccccccccccccccccccccccccccccccccccccccc$@ccccccccccccccccccccc",
"ccccccccccccccccccccccccccccccccccccccccc$@ccccccccccccccccccccc",
"ccccccccccccccccccccccccccccccccccccccccc@$ccccccccccccccccccccc",
"cccccccccccccccccccccccccccccO+occccccccc@$ccccccccccccccccccccc",
"cccccccccccccccccccccccccccc+%%$occcccccc@$ccccccccccccccccccccc",
"ccccccccccccccccccccccccccco$*:%@occccccc+$ccccccccccccccccccccc",
"cccccccccccccccccccccccccccO%<<:%occccccc&e&cccccccccccccccccccc",
"cccccccccccccccccccccccccccO%><:%.ccccccc%ie&ccccccccccccccccccc",
"cccccccccccccccccccccccccccX%:::$$cccccccc80j8cccccccccccccccccc",
"ccccccccccccccccccccccc333341e<e=334443343444j8ccccccccccccccccc",
"cccccccccccccccccccccc3444444tir444aaaa4344aa4kccccccccccccccccc",
"ccccccccccccccccccccc34aaa4aaaaaaaaaggga434aaaljcccccccccccccccc",
"ccccccccccccccccccccc3aggaaaggggggaaggaaa434a40lcccccccccccccccc",
"ccccccccccccccccccccc3aggaaggggggggaa44aaa43437xcccccccccccccccc",
"ccccccccccccccccccccc3agaa4aaaggaaaa4344aaaa33z8cccccccccccccccc",
"cccccccccccccccccccc344ga44aaaaaaaa4433344a430k0cccccccccccccccc",
"cccccccccccccccccccc344ga444aaaaa44443cc333@87kccccccccccccccccc",
"cccccccccccccccccccc44aaa44444aa44a443cccc@@0k0ccccccccccccccccc",
"cccccccccccccccccc84aaga4344a4444aa443cccc@@cjcccccccccccccccccc",
"ccccccccccccccccc04aagga344aaa44aaaa443ccc@$cccccccccccccccccccc",
"ccccccccccccccccc74aggga344aaa44aaaa443ccc+$cccccccccccccccccccc",
"cccccccccccccccccl0aggga34aaaa44aaaa443cccO%cccccccccccccccccccc",
"ccccccccccccccccc78agga434aaa444aaaa4433ccO%cccccccccccccccccccc",
"ccccccccccccccccc0l4aaa434aaa444aaaa4433cc.+cccccccccccccccccccc",
"ccccccccccccccccccl0984344aaaa44aaaa44333ccccccccccccccccccccccc",
"cccccccccccccccccc0#8c4344aaaaa4aaaa44333ccccccccccccccccccccccc",
"cccccccccccccccccccjcc4344aaaaaaaaaaa43433cccccccccccccccccccccc",
"ccccccccccccccccccccc33344aaaaaaaaaaa43433cccccccccccccccccccccc",
"ccccccccccccccccccccc3434aaaaaaaaaaaa44443cccccccccccccccccccccc",
"cccccccccccccccccccc34444aaaaaa4aaaaa44aa43ccccccccccccccccccccc",
"cccccccccccccccccccc34a44aaaaa44aaaaa4aaaa43cccccccccccccccccccc",
"ccccccccccccccccccc34aa44aaaa4444aaaa4aaa44-cccccccccccccccccccc",
"ccccccccccccccccccc3aaa44aaa444yyaaaa4aa4q,ccccccccccccccccccccc",
"ccccccccccccccccccc-4aa44aa444y$$uyaawywq;cccccccccccccccccccccc",
"cccccccccccccccccccc-,44444quy &% quyy   ccccccccccccccccccccccc",
"ccccccccccccccccccccc -wyuyq   $@.      cccccccccccccccccccccccc",
"ccccccccccccccccccccc                  ccccccccccccccccccccccccc",
"ccccccccccccccccccccccc         cccccccccccccccccccccccccccccccc",
"cccccccccccccccccccccccccccccccccccccccccccccccccccccccccccccccc",
"cccccccccccccccccccccccccccccccccccccccccccccccccccccccccccccccc",
"cccccccccccccccccccccccccccccccccccccccccccccccccccccccccccccccc",
"cccccccccccccccccccccccccccccccccccccccccccccccccccccccccccccccc",
"cccccccccccccccccccccccccccccccccccccccccccccccccccccccccccccccc",
"cccccccccccccccccccccccccccccccccccccccccccccccccccccccccccccccc",
"cccccccccccccccccccccccccccccccccccccccccccccccccccccccccccccccc",
"cccccccccccccccccccccccccccccccccccccccccccccccccccccccccccccccc",
"cccccccccccccccccccccccccccccccccccccccccccccccccccccccccccccccc",
"cccccccccccccccccccccccccccccccccccccccccccccccccccccccccccccccc"
};
