/* XPM */
static char *result[] = {
/* columns rows colors chars-per-pixel */
"64 64 22 1 ",
"  c black",
". c #180000",
"X c #241400",
"o c #2C1800",
"O c #342000",
"+ c #3C2404",
"@ c #482C04",
"# c #503008",
"$ c #58380C",
"% c #684000",
"& c #785004",
"* c #644014",
"= c #00044C",
"- c #001474",
"; c #6C6C6C",
": c #886408",
"> c #A88C10",
", c #0428A0",
"< c #0C48CC",
"1 c #848484",
"2 c #B4B4B4",
"3 c None",
/* pixels */
"333333333333333312,,--=-,,,---,,,,,--=3333#+33333333333333333333",
"333333333333333331;--=-,,,,--,,,,,,--=3333#O33333333333333333333",
"33333333333333333333==-,,,,,-,,,,,,--=3333#O33333333333333333333",
"33333333333333333333==-,,,,,--,,,,,--==333#o33333333333333333333",
"33333333333333333333==-,,,,,--,,,,,,-==333#o33333333333333333333",
"33333333333333333333=--,,,,,,-,,,,,,-===33#X33333333333333333333",
"3333333333333333333==--,,,<<,-,,,,,,-====3#X33333333333333333333",
"3333333333333333333=---,,,<<,--,,,,,-=-==3$X33333333333333333333",
"333333333333333333==---,,,<<,--,,,,,,--==3@.33333333333333333333",
"333333333333333333==---,,,,,,--,,,,,,---=33333333333333333333333",
"333333333333333333=-,--,,-,,,--,,,,,,--,-=3333333333333333333333",
"333333333333333333=-,,,,,-:>,,-,,,,,,-,,,-3333333333333333333333",
"333333333333333333--,,,,-:@+>,--,,,,,-,,,,3333333333333333333333",
"333333333333333333%&,,,--@*@ >---,,,,,,,%%3333333333333333333333",
"3333333333333333333 %&:> +*+ :-----,,:&%333333333333333333333333",
"333333333333333333333   X@*o  :>>>>::333333333333333333333333333",
"333333333333333333333333 Xo       333333333333333333333333333333",
"3333333333333333333333333   333333333333333333333333333333333333",
"3333333333333333333333333333333333333333333333333333333333333333",
"3333333333333333333333333333333333333333333333333333333333333333",
"3333333333333333333333333333333333333333333333333333333333333333",
"3333333333333333333333333333333333333333333333333333333333333333",
"3333333333333333333333333333333333333333333333333333333333333333",
"3333333333333333333333333333333333333333333333333333333333333333",
"3333333333333333333333333333333333333333333333333333333333333333",
"3333333333333333333333333333333333333333333333333333333333333333",
"3333333333333333333333333333333333333333333333333333333333333333",
"3333333333333333333333333333333333333333333333333333333333333333",
"3333333333333333333333333333333333333333333333333333333333333333",
"3333333333333333333333333333333333333333333333333333333333333333",
"3333333333333333333333333333333333333333333333333333333333333333",
"3333333333333333333333333333333333333333333333333333333333333333",
"3333333333333333333333333333333333333333333333333333333333333333",
"3333333333333333333333333333333333333333333333333333333333333333",
"3333333333333333333333333333333333333333333333333333333333333333",
"3333333333333333333333333333333333333333333333333333333333333333",
"3333333333333333333333333333333333333333333333333333333333333333",
"3333333333333333333333333333333333333333333333333333333333333333",
"3333333333333333333333333333333333333333333333333333333333333333",
"3333333333333333333333333333333333333333333333333333333333333333",
"3333333333333333333333333333333333333333333333333333333333333333",
"3333333333333333333333333333333333333333333333333333333333333333",
"3333333333333333333333333333333333333333333333333333333333333333",
"3333333333333333333333333333333333333333333333333333333333333333",
"3333333333333333333333333333333333333333333333333333333333333333",
"3333333333333333333333333333333333333333333333333333333333333333",
"3333333333333333333333333333333333333333333333333333333333333333",
"3333333333333333333333333333333333333333333333333333333333333333",
"3333333333333333333333333333333333333333333333333333333333333333",
"3333333333333333333333333333333333333333333333333333333333333333",
"3333333333333333333333333333333333333333333333333333333333333333",
"3333333333333333333333333333333333333333333333333333333333333333",
"3333333333333333333333333333333333333333333333333333333333333333",
"3333333333333333333333333333333333333333333333333333333333333333",
"3333333333333333333333333333333333333333333333333333333333333333",
"3333333333333333333333333333333333333333333333333333333333333333",
"3333333333333333333333333333333333333333333333333333333333333333",
"3333333333333333333333333333333333333333333333333333333333333333",
"3333333333333333333333333333333333333333333333333333333333333333",
"3333333333333333333333333333333333333333333333333333333333333333",
"3333333333333333333333333333333333333333333333333333333333333333",
"3333333333333333333333333333333333333333333333333333333333333333",
"3333333333333333333333333333333333333333333333333333333333333333",
"3333333333333333333333333333333333333333333333333333333333333333"
};
