/* XPM */
static char *result[] = {
/* columns rows colors chars-per-pixel */
"64 64 56 1 ",
"  c black",
". c #180000",
"X c gray8",
"o c #241400",
"O c #2C1800",
"+ c #342000",
"@ c #3C2404",
"# c #482C04",
"$ c #5C3000",
"% c #503008",
"& c #58380C",
"* c #603810",
"= c #684000",
"- c #785004",
"; c #644014",
": c #684014",
"> c #6C4C18",
", c #744C1C",
"< c #7C5820",
"1 c #000440",
"2 c #00044C",
"3 c #001474",
"4 c #002870",
"5 c #043478",
"6 c gray25",
"7 c #4C4C4C",
"8 c #685450",
"9 c #646464",
"0 c #6C6C6C",
"q c #886408",
"w c #98780C",
"e c #886428",
"r c #907030",
"t c #9C7C3C",
"y c #A88C10",
"u c #BCA414",
"i c #D0C01C",
"p c #F4E020",
"a c #A88448",
"s c #B49054",
"d c #CCA874",
"f c #0428A0",
"g c #0C4084",
"h c #185090",
"j c #3470A4",
"k c #0C48CC",
"l c #4480B0",
"z c #848484",
"x c #909090",
"c c gray61",
"v c #B4B4B4",
"b c #E8C498",
"n c #D4C4B4",
"m c #C0C0C0",
"M c #D8D8D8",
"N c None",
/* pixels */
"NNNNNNNNNNNNNNNNNNNNNNNNNNNNNNNNNNNNNNNNNNNNNNNNNNNNNNNNNNNNNNNN",
"NNNNNNNNNNNNNNNNNNNNNNNNNNNNNNNNNNNNNNNNNNNNNNNNNNNNNNNNNNNNNNNN",
"NNNNNNNNNNNNNNNNNNNNNNNNNNNNNNNNNNNNNNNNNNNNNNNNNNNNNNNNNNNNNNNN",
"NNNNNNNNNNNNNNNNNNNNNNNNNNNNNNNNNNNNNNNNNNNNNNNNNNNNNNNNNNNNNNNN",
"NNNNNNNNNNNNNNNNNNNNNNNNNNNNNNNNNNNNNNNNNNNNNNNNNNNNNNNNNNNNNNNN",
"NNNNNNNNNNNNNNNNNNNNNNNNNNNNNNNNNNNNNNNNNNNNNNNNNNNNNNNNNNNNNNNN",
"NNNNNNNNNNNNNNNNNNNNNNNNNNNNNNNNNNNNNNNNNNNNNNNNNNNNNNNNNNNNNNNN",
"NNNNNNNNNNNNNNNNNNNNNNNNNNNNNNNNNNNNNNNNNNNNNNNNNNNNNNNNNNNNNNNN",
"NNNNNNNNNNNNNNNNNNNNNNNNNNNNNNNNNNNNNNNNNNNNNNNNNNNNNNNNNNNNNNNN",
"NNNNNNNNNNNNNNNNNNNNNNNNNNNNNNNNNNNNNNNNNNNNNNNNNNNNNNNNNNNNNNNN",
"NNNNNNNNNNNNNNNNNNNNNNNNNNNNNNNNNNNNNNNNNNNNNNNNNNNNNNNNNNNNNNNN",
"NNNNNNNNNNNNNNNNNNNNNNNNNNNNNNNNNNNNNNNNNNNNNNNNNNNNNNNNNNNNNNNN",
"NNNNNNNNNNNNNNNNNNNNNNNNNNNNNNNNNNNNNNNNNNNNNNNNNNNNNNNNNNNNNNNN",
"NNNNNNNNNNNNNNNNNNNNNNNNNNNNNNNNNNNNNNNNNNNNNNNNNNNNNNNNNNNNNNNN",
"NNNNNNNNNNNNNNNNNNNNNNNNNNNNNNNNNNNNNN2222NNNNNNNNNNNNNNNNNNNNNN",
"NNNNNNNNNNNNNNNNNNNNNNNNNNNNNNNNNNNN22332o+o.NNNNNNNNNNNNNNNNNNN",
"NNNNNNNNNNNNNNNNNNNNNNNNNNNNNNNNNNN232f2O@@@+O.NNNNNNNNNNNNNNNNN",
"NNNNNNNNNNNNNNNNNNNNNNNNNNNNNNNNNNN223fO#&&:,*ONNNNNNNNNNNNNNNNN",
"NNNNNNNNNNNNNNNNNNNNNNNNNNNNNNNNN222333O&,<adrNNNNNNNNNNNNlNNNNN",
"NNNNNNNNNNNNNNNNNNNNNNNNNNNNNNNN2333f33O*:<sat:NNNNNNNNNNNjlNNNN",
"NNNNNNNNNNNNNNNNNNNNNNNNNNNNNNN23ffff33@#r>$,$r*NNNNNNNNNN5hhjNN",
"NNNNNNNNNNNNNNNNNNNNNNNNNNNNNNN3fffff322o#:reo##NNNNNNNNNj5115lN",
"NNNNNNNNNNNNNNNNNNNNNNNNNNNNNNN233333323f32$o=O$ONNNNNNNNl1  1jN",
"NNNNNNNNNNNNNNNNNNNNNNNNNNNNNNNN2222323ffk3o-O#-@NNNNNNNhh5115gN",
"NNNNNNNNNNNNNNNNNNNNNNNNNNNNNNNNNNNN223fff32:+$-@NNNNNNh.gh44gNN",
"NNNNNNNNNNNNNNNNNNNNNNNNNNNNNNNNNNNN223323332@$>@NNNNNNN+yuwNNNN",
"NNNNNNNNNNNNNNNNNNNNNNNNNNNNNNNNNNNN22323fff3@@=#NNNNNNN=up+NNNN",
"NNNNNNNNNNNNNNNNNNNNNNNNNNNNNNNNNNNNN223fkkf32o@@NNNNNNNqpuNNNNN",
"NNNNNNNNNNNNNNNNNNNNNNNNNNNNNNNNNNNN2223fkkf322O@%NNNNNoyu-NNNNN",
"NNNNNNNNNNNNNNNNNNNNNNNNNNNNNNNNNNNN2223fkkf332;-:NNNNNOw-NNNNNN",
"NNNNNNNNNNNNNNNNNNNNNNNNNNNNNNNNNNN22232fkkf3322%%NNNNN@@NNNNNNN",
"NNNNNNNNNNNNNNNNNNNNNNNNNNNNNNNNNN222232fffff3223@NNNNo#oNNNNNNN",
"NNNNNNNNNNNNNNNNNNNNNNNNNNNNNNNNNN2222323ffkf2223XNNNo@@NNNNNNNN",
"NNNNNNNNNNNNNNNNNNNNNNNNNNNNNNNN2223223f2fkkff32ff@@@@%ONNNNNNNN",
"NNNNNNNNNNNNNNNNNNNNNNNNNNNNNNNN-233323f23fkkf9zcztsdr%.NNNNNNNN",
"NNNNNNNNNNNNNNNNNNNNNNNNNNNNNNNow233323f323fk7xm6cdbbdr*NNNNNNNN",
"NNNNNNNNNNNNNNNNNNNNNNNNNNNN.oO@:w23323ff3223x0MMv8add*NNNNNNNNN",
"NNNNNNNNNNNNNNNNNNNNNNNNNNN.%%##%:w2323ff3323xmM0vNNooNNNNNNNNNN",
"NNNNNNNNNNNNNNNNNNNNNNNNNNNN#%#O.OO2223ff33320x0ncNo#oNNNNNNNNNN",
"NNNNNNNNNNNNNNNNNNNNNNNNNNNNo#&#O  2223ff33330xM6c2@@NNNNNNNNNNN",
"NNNNNNNNNNNNNNNNNNNNNNNNNNNN  @@. 22233ff333320xM0o#oNNNNNNNNNNN",
"NNNNNNNNNNNNNNNNNNNNNNNNNNNNN     22333ff3333320x2+@NNNNNNNNNNNN",
"NNNNNNNNNNNNNNNNNNNNNNNNNNNNNN    =3333ff333f32032#ONNNNNNNNNNNN",
"NNNNNNNNNNNNNNNNNNNNNNNNNNNNNNN   -333ffff33f33322#NNNNNNNNNNNNN",
"NNNNNNNNNNNNNNNNNNNNNNNNNNNNNNNN  w333ffffffff332-+NNNNNNNNNNNNN",
"NNNNNNNNNNNNNNNNNNNNNNNNNNNNNNNNN  w23fffffffff3w#.NNNNNNNNNNNNN",
"NNNNNNNNNNNNNNNNNNNNNNNNNNNNNNNNN   w3ffff33333uO@NNNNNNNNNNNNNN",
"NNNNNNNNNNNNNNNNNNNNNNNNNNNNNNNNNN  w-fff33-ipu   NNNNNNNNNNNNNN",
"NNNNNNNNNNNNNNNNNNNNNNNNNNNNNNNNNNN  w33-wiu     NNNNNNNNNNNNNNN",
"NNNNNNNNNNNNNNNNNNNNNNNNNNNNNNNNNNNNNNwyuq      NNNNNNNNNNNNNNNN",
"NNNNNNNNNNNNNNNNNNNNNNNNNNNNNNNNNNNNNNN      NNNNNNNNNNNNNNNNNNN",
"NNNNNNNNNNNNNNNNNNNNNNNNNNNNNNNNNNNNNNNN    NNNNNNNNNNNNNNNNNNNN",
"NNNNNNNNNNNNNNNNNNNNNNNNNNNNNNNNNNNNNNNNNNNNNNNNNNNNNNNNNNNNNNNN",
"NNNNNNNNNNNNNNNNNNNNNNNNNNNNNNNNNNNNNNNNNNNNNNNNNNNNNNNNNNNNNNNN",
"NNNNNNNNNNNNNNNNNNNNNNNNNNNNNNNNNNNNNNNNNNNNNNNNNNNNNNNNNNNNNNNN",
"NNNNNNNNNNNNNNNNNNNNNNNNNNNNNNNNNNNNNNNNNNNNNNNNNNNNNNNNNNNNNNNN",
"NNNNNNNNNNNNNNNNNNNNNNNNNNNNNNNNNNNNNNNNNNNNNNNNNNNNNNNNNNNNNNNN",
"NNNNNNNNNNNNNNNNNNNNNNNNNNNNNNNNNNNNNNNNNNNNNNNNNNNNNNNNNNNNNNNN",
"NNNNNNNNNNNNNNNNNNNNNNNNNNNNNNNNNNNNNNNNNNNNNNNNNNNNNNNNNNNNNNNN",
"NNNNNNNNNNNNNNNNNNNNNNNNNNNNNNNNNNNNNNNNNNNNNNNNNNNNNNNNNNNNNNNN",
"NNNNNNNNNNNNNNNNNNNNNNNNNNNNNNNNNNNNNNNNNNNNNNNNNNNNNNNNNNNNNNNN",
"NNNNNNNNNNNNNNNNNNNNNNNNNNNNNNNNNNNNNNNNNNNNNNNNNNNNNNNNNNNNNNNN",
"NNNNNNNNNNNNNNNNNNNNNNNNNNNNNNNNNNNNNNNNNNNNNNNNNNNNNNNNNNNNNNNN",
"NNNNNNNNNNNNNNNNNNNNNNNNNNNNNNNNNNNNNNNNNNNNNNNNNNNNNNNNNNNNNNNN"
};
