/* XPM */
static char *result[] = {
/* columns rows colors chars-per-pixel */
"64 64 61 1 ",
"  c black",
". c #180000",
"X c gray11",
"o c #241400",
"O c #2C1800",
"+ c #342000",
"@ c #3C2404",
"# c #282828",
"$ c #482C04",
"% c #5C3000",
"& c #503008",
"* c #58380C",
"= c #603810",
"- c #443434",
"; c #684000",
": c #785004",
"> c #684014",
", c #6C4C18",
"< c #744C1C",
"1 c #7C5820",
"2 c #000440",
"3 c #00044C",
"4 c #001474",
"5 c #002870",
"6 c #043478",
"7 c #304858",
"8 c gray25",
"9 c #4C4C4C",
"0 c #544440",
"q c #685450",
"w c #646464",
"e c #6C6C6C",
"r c gray47",
"t c #886408",
"y c #98780C",
"u c #886428",
"i c #907030",
"p c #9C7C3C",
"a c #A88C10",
"s c #BCA414",
"d c #D0C01C",
"f c #F4E020",
"g c #A88448",
"h c #B49054",
"j c #CCA874",
"k c #0428A0",
"l c #0C4084",
"z c #185090",
"x c #3470A4",
"c c #0C48CC",
"v c #4480B0",
"b c #848484",
"n c #909090",
"m c gray61",
"M c gray66",
"N c #B4B4B4",
"B c #E8C498",
"V c #D4C4B4",
"C c #C0C0C0",
"Z c #D8D8D8",
"A c None",
/* pixels */
"AAAAAAAAAAAAAAAAAAAAAAAAAAAAAAAAAAAAAAAAAAAAAAAAAAAAAAAAAAAAAAAA",
"AAAAAAAAAAAAAAAAAAAAAAAAAAAAAAAAAAAAAAAAAAAAAAAAAAAAAAAAAAAAAAAA",
"AAAAAAAAAAAAAAAAAAAAAAAAAAAAAAAAAAAAAAAAAAAAAAAAAAAAAAAAAAAAAAAA",
"AAAAAAAAAAAAAAAAAAAAAAAAAAAAAAAAAAAAAAAAAAAAAAAAAAAAAAAAAAAAAAAA",
"AAAAAAAAAAAAAAAAAAAAAAAAAAAAAAAAAAAAAAAAAAAAAAAAAAAAAAAAAAAAAAAA",
"AAAAAAAAAAAAAAAAAAAAAAAAAAAAAAAAAAAAAAAAAAAAAAAAAAAAAAAAAAAAAAAA",
"AAAAAAAAAAAAAAAAAAAAAAAAAAAAAAAAAAAAAAAAAAAAAAAAAAAAAAAAAAAAAAAA",
"AAAAAAAAAAAAAAAAAAAAAAAAAAAAAAAAAAAAAAAAAAAAAAAAAAAAAAAAAAAAAAAA",
"AAAAAAAAAAAAAAAAAAAAAAAAAAAAAAAAAAAAAAAAAAAAAAAAAAAAAAAAAAAAAAAA",
"AAAAAAAAAAAAAAAAAAAAAAAAAAAAAAAAAAAAAAAAAAAAAAAAAAAAAAAAAAAAAAAA",
"AAAAAAAAAAAAAAAAAAAAAAAAAAAAAAAAAAAAAAAAAAAAAAAAAAAAAAAAAAAAAAAA",
"AAAAAAAAAAAAAAAAAAAAAAAAAAAAAAAAAAAAAAAAAAAAAAAAAAAAAAAAAAAAAAAA",
"AAAAAAAAAAAAAAAAAAAAAAAAAAAAAAAAAAAAAAAAAAAAAAAAAAAAAAAAAAAAAAAA",
"AAAAAAAAAAAAAAAAAAAAAAAAAAAAAAAAAAAAAAAAAAAAAAAAAAAAAAAAAAAAAAAA",
"AAAAAAAAAAAAAAAAAAAAAAAAAAAAAAAAAAAAAAAAAAAAAAAAAAAAAAAAAAAAAAAA",
"AAAAAAAAAAA333AAAAAAAAAAAAAAAAAAAAAAAAAAAAAAAAAAAAAAAAAAAAAAAAAA",
"AAAAAAAAAA3o+o.AAAAAAAAAAAAAAAAAAAAAAAAAAAAAAAAAAAAAAAAAAAAAAAAA",
"AAAAAAAAA3O@@@+O33AAAAAAAAAAAAAAAAAAAAAAAAAAAAAAAAAAAAAAAAAAAAAA",
"AAAAAAAAAO$**><=O4333rCmwAAAAAAAAAAAAAAAAAAAAAAAAAAAAAAAAAAAAAAA",
"AAAAAAAA3O*<1gji4k4kknmrmwAAAAAAAAAAAAAAAAAAAAAAAAAAAAAAAAAAAAAA",
"AAAAAAAA3O=>1hgp>4kcrCZCmrAAAAAAAAAAAAAAAAAAAAAAAAAAAAAAAAAAAAAA",
"AAAAAAAA3@$i,%<%i=kcmZeMrXAAAAAAAAAAAAAAAAAAAAAAAAAAAAAAAAAAAAAA",
"AAAAAAAA33o$>iuo$$4kCZCrjh0AAAAAAAAAAAAAAAAAAAAAAAAAAAAAAAAAAAAA",
"AAAAAAAA4kk43%o;O%OrCrbA-gh-AAAAAAAAAAAAAAAAAAAAAAAAAAAAAAAAAAAA",
"AAAAAAA34kck4o:O$:@erbAAA-q-AAAAAAAAAAAAAAAAAAAAAAAAAAAAAAAAAAAA",
"AAAAAAA34444kk>+%:@AeAAAAAA6vx6AAAAAAAAAAAAAAAAAAAAAAAAAAAAAAAAA",
"AAAAAAA334kk4kk@%,@AAAAAzAv6226lAAAAAAAAAAAAAAAAAAAAAAAAAAAAAAAA",
"AAAAAAA34kckk4k@@;$AAAAAAzx2  25AAAAAAAAAAAAAAAAAAAAAAAAAAAAAAAA",
"AAAAAAA34kcck443o$@AAAAAAzl6226xvAAAAAAAAAAAAAAAAAAAAAAAAAAAAAAA",
"AAAA33334kcck3443O@AAAAAA;sz55xAAAAAAAAAAAAAAAAAAAAAAAAAAAAAAAAA",
"AAA333334kck434433AAAAAAOyfyoAAAAAAAAAAAAAAAAAAAAAAAAAAAAAAAAAAA",
"AA.33333kkck434433AAAAAA:fsoAAAAAAAAAAAAAAAAAAAAAAAAAAAAAAAAAAAA",
"AAO&333344kkk34333AAAAA+as:AAAAAAAAAAAAAAAAAAAAAAAAAAAAAAAAAAAAA",
"AAO=y3334kkk443343AAAAA&y:AAAAAAAAAAAAAAAAAAAAAAAAAAAAAAAAAAAAAA",
"Ao@$&3334kck4k3333AAAAO@oAAAAAAAAAAAAAAAAAAAAAAAAAAAAAAAAAAAAAAA",
"o$$@@3343kcckkwbmbAAA.$OAAAAAAAAAAAAAAAAAAAAAAAAAAAAAAAAAAAAAAAA",
".OO@$#3434ccc9nC8m=AA@@AAAAAAAAAAAAAAAAAAAAAAAAAAAAAAAAAAAAAAAAA",
"     334434ceNZNejjju$oAAAAAAAAAAAAAAAAAAAAAAAAAAAAAAAAAAAAAAAAA",
"A    334443emeZNNjBBi=AAAAAAAAAAAAAAAAAAAAAAAAAAAAAAAAAAAAAAAAAA",
"AA   3344k3emZeNeugjjuAAAAAAAAAAAAAAAAAAAAAAAAAAAAAAAAAAAAAAAAAA",
"AA  3344kk43meVme-uu=AAAAAAAAAAAAAAAAAAAAAAAAAAAAAAAAAAAAAAAAAAA",
"AAA 3344kk44eZ8m47$&*&$@AAAAAAAAAAAAAAAAAAAAAAAAAAAAAAAAAAAAAAAA",
"AAAA344kkkk43emm4-@><>>=AAAAAAAAAAAAAAAAAAAAAAAAAAAAAAAAAAAAAAAA",
"AAA:444kkkk44keme-7@*>=OAAAAAAAAAAAAAAAAAAAAAAAAAAAAAAAAAAAAAAAA",
"AAA:44kkkkk44kk7e7433  AAAAAAAAAAAAAAAAAAAAAAAAAAAAAAAAAAAAAAAAA",
"AAAy44kkkkk44kO@o333  AAAAAAAAAAAAAAAAAAAAAAAAAAAAAAAAAAAAAAAAAA",
"AAAa44kkkk44kk$O433y:AAAAAAAAAAAAAAAAAAAAAAAAAAAAAAAAAAAAAAAAAAA",
"AAAa4kkkk444k@@43ds AAAAAAAAAAAAAAAAAAAAAAAAAAAAAAAAAAAAAAAAAAAA",
"AAAy4kkkk4444$o3d   AAAAAAAAAAAAAAAAAAAAAAAAAAAAAAAAAAAAAAAAAAAA",
"AAAAa44444asdfds   AAAAAAAAAAAAAAAAAAAAAAAAAAAAAAAAAAAAAAAAAAAAA",
"AAAAAtassa       AAAAAAAAAAAAAAAAAAAAAAAAAAAAAAAAAAAAAAAAAAAAAAA",
"AAAAAAAAA     AAAAAAAAAAAAAAAAAAAAAAAAAAAAAAAAAAAAAAAAAAAAAAAAAA",
"AAAAAAAAAAAAAAAAAAAAAAAAAAAAAAAAAAAAAAAAAAAAAAAAAAAAAAAAAAAAAAAA",
"AAAAAAAAAAAAAAAAAAAAAAAAAAAAAAAAAAAAAAAAAAAAAAAAAAAAAAAAAAAAAAAA",
"AAAAAAAAAAAAAAAAAAAAAAAAAAAAAAAAAAAAAAAAAAAAAAAAAAAAAAAAAAAAAAAA",
"AAAAAAAAAAAAAAAAAAAAAAAAAAAAAAAAAAAAAAAAAAAAAAAAAAAAAAAAAAAAAAAA",
"AAAAAAAAAAAAAAAAAAAAAAAAAAAAAAAAAAAAAAAAAAAAAAAAAAAAAAAAAAAAAAAA",
"AAAAAAAAAAAAAAAAAAAAAAAAAAAAAAAAAAAAAAAAAAAAAAAAAAAAAAAAAAAAAAAA",
"AAAAAAAAAAAAAAAAAAAAAAAAAAAAAAAAAAAAAAAAAAAAAAAAAAAAAAAAAAAAAAAA",
"AAAAAAAAAAAAAAAAAAAAAAAAAAAAAAAAAAAAAAAAAAAAAAAAAAAAAAAAAAAAAAAA",
"AAAAAAAAAAAAAAAAAAAAAAAAAAAAAAAAAAAAAAAAAAAAAAAAAAAAAAAAAAAAAAAA",
"AAAAAAAAAAAAAAAAAAAAAAAAAAAAAAAAAAAAAAAAAAAAAAAAAAAAAAAAAAAAAAAA",
"AAAAAAAAAAAAAAAAAAAAAAAAAAAAAAAAAAAAAAAAAAAAAAAAAAAAAAAAAAAAAAAA",
"AAAAAAAAAAAAAAAAAAAAAAAAAAAAAAAAAAAAAAAAAAAAAAAAAAAAAAAAAAAAAAAA"
};
