/* XPM */
static char *result[] = {
/* columns rows colors chars-per-pixel */
"64 64 59 1 ",
"  c black",
". c #180000",
"X c gray8",
"o c gray11",
"O c #241400",
"+ c #2C1800",
"@ c #342000",
"# c #3C2404",
"$ c #482C04",
"% c #5C3000",
"& c #503008",
"* c #58380C",
"= c #603810",
"- c #443434",
"; c #684000",
": c #785004",
"> c #684014",
", c #6C4C18",
"< c #744C1C",
"1 c #7C5820",
"2 c #000440",
"3 c #00044C",
"4 c #00185C",
"5 c #001474",
"6 c #043478",
"7 c gray25",
"8 c #4C4C4C",
"9 c #646464",
"0 c #6C6C6C",
"q c gray47",
"w c #886408",
"e c #98780C",
"r c #886428",
"t c #907030",
"y c #9C7C3C",
"u c #A88C10",
"i c #BCA414",
"p c #D0C01C",
"a c #F4E020",
"s c #A88448",
"d c #B49054",
"f c #CCA874",
"g c #0428A0",
"h c #0C4084",
"j c #185090",
"k c #246098",
"l c #3470A4",
"z c #0C48CC",
"x c #4480B0",
"c c #848484",
"v c #909090",
"b c gray61",
"n c #B4B4B4",
"m c #E8C498",
"M c #D4C4B4",
"N c #C0C0C0",
"B c gray80",
"V c #D8D8D8",
"C c None",
/* pixels */
"CCCCCCCCCCCCCCCCCCCCCCCCCCCCCCCCCCCCCCCCCCCCCCCCCCCCCCCCCCCCCCCC",
"CCCCCCCCCCCCCCCCCCCCCCCCCCCCCCCCCCCCCCCCCCCCCCCCCCCCCCCCCCCCCCCC",
"CCCCCCCCCCCCCCCCCCCCCCCCCCCCCCCCCCCCCCCCCCCCCCCCCCCCCCCCCCCCCCCC",
"CCCCCCCCCCCCCCCCCCCCCCCCCCCCCCCCCCCCCCCCCCCCCCCCCCCCCCCCCCCCCCCC",
"CCCCCCCCCCCCCCCCCCCCCCCCCCCCCCCCCCCCCCCCCCCCCCCCCCCCCCCCCCCCCCCC",
"CCCCCCCCCCCCCCCCCCCCCCCCCCCCCCCCCCCCCCCCCCCCCCCCCCCCCCCCCCCCCCCC",
"CCCCCCCCCCCCCCCCCCCCCCCCCCCCCCCCCCCCCCCCCCCCCCCCCCCCCCCCCCCCCCCC",
"CCCCCCCCCCCCCCCCCCCCCCCCCCCCCCCCCCCCCCCCCCCCCCCCCCCCCCCCCCCCCCCC",
"CCCCCCCCCCCCCCCCCCCCCCCCCCCCCCCCCCCCCCCCCCCCCCCCCCCCCCCCCCCCCCCC",
"CCCCCCCCCCCCCCCCCCCCCCCCCCCCCCCCCCCCCCCCCCCCCCCCCCCCCCCCCCCCCCCC",
"CCCCCCCCCCCCCCCCCCCCCCCCCCCCCCCCCCCCCCCCCCCCCCCCCCCCCCCCCCCCCCCC",
"CCCCCCCCCCCCCCCCCCCCCCCCCCCCCCCCCCCCCCCCCCCCCCCCCCCCCCCCCCCCCCCC",
"CCCCCCCCCCCCCCCCCCCCCCCCCCCCCCCCCCCCCCCCCCCCCCCCCCCCCCCCCCCCCCCC",
"CCCCCCCCCCCCCCCCCCCCCCCCCCCCCCCCCCCCCCCCCCCCCCCCCCCCCCCCCCCCCCCC",
"CCCCCCCCCCCCCCCCCCCCCCCCCCCCCCCCCCCCCCCC0qCCCCCCCCCCCCCCCCCCCCCC",
"CCCCCCCCCCCCCCCCCCCCCCCCCCCC33333333C35qbnCCCCCCCkCkCCCCCCCCCCCC",
"CCCCCCCCCCCCCCCCCCCCCCCCCCC5gO@O.5555gq0VqCCCCChkxkhCCCCCCCCCCCC",
"CCCCCCCCCCCCCCCCCCCCCCCCCC3g+###@+55gzbV0<rrdrrCCChCCCCCCCCCCCCC",
"CCCCCCCCCCCCCCCCCCCCCCCCCC5#$**><=+5ggb0M=<ffdsrCjxkCCCCCCCCCCCC",
"CCCCCCCCCCCCCCCCCCCCCCCCC33&*<1sft3355bnc.roryrCCCCjkCCCCCCCCCCC",
"CCCCCCCCCCCCCCCCCCCCCCCCC33-=>1dsy>CC3vn3kdhCCCCCCCCCCCCCCCCCCCC",
"CCCCCCCCCCCCCCCCCCCCCCCCC335$t,%<%tCCC0ckCkxChCCjCCCCCCCCCCCCCCC",
"CCCCCCCCCCCCCCCCCCCCCCCCC355O$>trO$CCCxCCCChhxjxxkhCCCCCCCCCCCCC",
"CCCCCCCCCCCCCCCCCCCCCCCCC5gg533%O;+CCClBCCCxCkxkCCCCCCCCCCCCCCCC",
"CCCCCCCCCCCCCCCCCCCCCCCC35gzg5++&$jljxnVnxxCCCkCkCCCCCCCCCCCCCCC",
"CCCCCCCCCCCCCCCCCCCCCCCC35555gg5+$XjxnxxjnxCCCCCChCCCCCCCCCCCCCC",
"CCCCCCCCCCCCCCCCCCCCCCCC35gg55gg5+jVnx4246VjCCCCCCCCCCCCCCCCCCCC",
"CCCCCCCCCCCCCCCCCCCCCCCC35gzg5ggjllnx4   4nBCCCCCCCCCCCCCCCCCCCC",
"CCCCCCCCCCCCCCCCCCCCCCCC3gzzg555-gxxB4  46xnBCCCCCCCCCCCCCCCCCCC",
"CCCCCCCCCCCCCCCCCCCCCCC35gzzg555;3k#n6226xnxCCCCCCCCCCCCCCCCCCCC",
"CCCCCCCCCCCCCCCCCCCCCCC35gzg53g553+CxnxnBVnxCCCCCCCCCCCCCCCCCCCC",
"CCCCCCCCCCCCCCCCCCCCCCC3ggzg35gg53CCepuxxxCCCCCCCCCCCCCCCCCCCCCC",
"CCCCCCCCCCCCCCCCCCCCCCC3gzg5355g53CCeae;xCCCCCCCCCCCCCCCCCCCCCCC",
"CCCCCCCCCCCCCCCCCCCCCC33g555535gg3CCea;CCCCCCCCCCCCCCCCCCCCCCCCC",
"CCCCCCCCCCCCCCCCCCCCCC335ggg5355g3CCue%CCCCCCCCCCCCCCCCCCCCCCCCC",
"CCCCCCCCCCCCCCCCCCCCCC335gzzg53353C@e:CCCCCCCCCCCCCCCCCCCCCCCCCC",
"CCCCCCCCCCCCCCCCCCCCCC3355gz9cbc53C#;CCCCCCCCCCCCCCCCCCCCCCCCCCC",
"CCCCCCCCCCCCCCCCCCCCCC33355gvN7b333%+CCCCCCCCCCCCCCCCCCCCCCCCCCC",
"CCCCCCCCCCCCCCCCCCCCC335335nV0n==33%@CCCCCCCCCCCCCCCCCCCCCCCCCCC",
"CCCCCCCCCCCCCCCCCCCCC3355330VVnsmfr#$CCCCCCCCCCCCCCCCCCCCCCCCCCC",
"CCCCCCCCCCCCCCCCCCCCC33555bV0n=fmmdrOCCCCCCCCCCCCCCCCCCCCCCCCCCC",
"CCCCCCCCCCCCCCCCCCCC335555b0Mb5=tfy=oCCCCCCCCCCCCCCCCCCCCCCCCCCC",
"CCCCCCCCCCCCCCCCCCCC3355g50V7b55$#=o  CCCCCCCCCCCCCCCCCCCCCCCCCC",
"CCCCCCCCCCCCCCCCCCCC3355gg59c8555g%o  CCCCCCCCCCCCCCCCCCCCCCCCCC",
"CCCCCCCCCCCCCCCCCCCC3555gg558$55g5&#  CCCCCCCCCCCCCCCCCCCCCCCCCC",
"CCCCCCCCCCCCCCCCCCCC3555gggg5555gO&@  CCCCCCCCCCCCCCCCCCCCCCCCCC",
"CCCCCCCCCCCCCCCCCCCCe555ggggg555gO*+ CCCCCCCCCCCCCCCCCCCCCCCCCCC",
"CCCCCCCCCCCCCCCCCCCC:555ggggg5555+*O CCCCCCCCCCCCCCCCCCCCCCCCCCC",
"CCCCCCCCCCCCCCCCCCCCC:e5ggggg55e:@* CCCCCCCCCCCCCCCCCCCCCCCCCCCC",
"CCCCCCCCCCCCCCCCCCCCCC :wuipiue  #$CCCCCCCCCCCCCCCCCCCCCCCCCCCCC",
"CCCCCCCCCCCCCCCCCCCCCCCCC       C++CCCCCCCCCCCCCCCCCCCCCCCCCCCCC",
"CCCCCCCCCCCCCCCCCCCCCCCCCC    CCCCCCCCCCCCCCCCCCCCCCCCCCCCCCCCCC",
"CCCCCCCCCCCCCCCCCCCCCCCCCCCCCCCCCCCCCCCCCCCCCCCCCCCCCCCCCCCCCCCC",
"CCCCCCCCCCCCCCCCCCCCCCCCCCCCCCCCCCCCCCCCCCCCCCCCCCCCCCCCCCCCCCCC",
"CCCCCCCCCCCCCCCCCCCCCCCCCCCCCCCCCCCCCCCCCCCCCCCCCCCCCCCCCCCCCCCC",
"CCCCCCCCCCCCCCCCCCCCCCCCCCCCCCCCCCCCCCCCCCCCCCCCCCCCCCCCCCCCCCCC",
"CCCCCCCCCCCCCCCCCCCCCCCCCCCCCCCCCCCCCCCCCCCCCCCCCCCCCCCCCCCCCCCC",
"CCCCCCCCCCCCCCCCCCCCCCCCCCCCCCCCCCCCCCCCCCCCCCCCCCCCCCCCCCCCCCCC",
"CCCCCCCCCCCCCCCCCCCCCCCCCCCCCCCCCCCCCCCCCCCCCCCCCCCCCCCCCCCCCCCC",
"CCCCCCCCCCCCCCCCCCCCCCCCCCCCCCCCCCCCCCCCCCCCCCCCCCCCCCCCCCCCCCCC",
"CCCCCCCCCCCCCCCCCCCCCCCCCCCCCCCCCCCCCCCCCCCCCCCCCCCCCCCCCCCCCCCC",
"CCCCCCCCCCCCCCCCCCCCCCCCCCCCCCCCCCCCCCCCCCCCCCCCCCCCCCCCCCCCCCCC",
"CCCCCCCCCCCCCCCCCCCCCCCCCCCCCCCCCCCCCCCCCCCCCCCCCCCCCCCCCCCCCCCC",
"CCCCCCCCCCCCCCCCCCCCCCCCCCCCCCCCCCCCCCCCCCCCCCCCCCCCCCCCCCCCCCCC"
};
