/* XPM */
static char *result[] = {
/* columns rows colors chars-per-pixel */
"64 64 60 1 ",
"  c black",
". c #180000",
"X c gray8",
"o c gray11",
"O c #241400",
"+ c #2C1800",
"@ c #342000",
"# c #3C2404",
"$ c #343434",
"% c #482C04",
"& c #503008",
"* c #603810",
"= c #443434",
"- c #785004",
"; c #644014",
": c #684014",
"> c #6C4C18",
", c #744C1C",
"< c #78581C",
"1 c #000440",
"2 c #00044C",
"3 c #001474",
"4 c #002870",
"5 c #043478",
"6 c gray25",
"7 c #4C4C4C",
"8 c #544440",
"9 c #585858",
"0 c #6C6C6C",
"q c #786460",
"w c #886408",
"e c #98780C",
"r c #806024",
"t c #886428",
"y c #8C6C28",
"u c #947830",
"i c #A88C10",
"p c #BCA414",
"a c #A08438",
"s c #D0C01C",
"d c #F4E020",
"f c #A88448",
"g c #B49054",
"h c #0428A0",
"j c #0C4084",
"k c #185090",
"l c #246098",
"z c #3470A4",
"x c #0C48CC",
"c c #4480B0",
"v c #848484",
"b c #909090",
"n c gray61",
"m c gray66",
"M c #B4B4B4",
"N c #D4C4B4",
"B c #C0C0C0",
"V c gray80",
"C c #D8D8D8",
"Z c None",
/* pixels */
"ZZZZZZZZZZZZZZZZZZZZZZZZZZZZZZZZZZZZZZZZZZZZZZZZZZZZZZZZZZZZZZZZ",
"ZZZZZZZZZZZZZZZZZZZZZZZZZZZZZZZZZZZZZZZZZZZZZZZZZZZZZZZZZZZZZZZZ",
"ZZZZZZZZZZZZZZZZZZZZZZZZZZZZZZZZZZZZZZZZZZZZZZZZZZZZZZZZZZZZZZZZ",
"ZZZZZZZZZZZZZZZZZZZZZZZZZZZZZZZZZZZZZZZZZZZZZZZZZZZZZZZZZZZZZZZZ",
"ZZZZZZZZZZZZZZZZZZZZZZZZZZZZZMZZZZkjcjZZZZZZZkZZZZZZZZZZZZZZZZZZ",
"ZZZZZZZZZZZZZZZZZZZZZZZZZZZZZcMcMc5515jlcVl5kZZZZZZZZZZZZZZZZZZZ",
"ZZZZZZZZZZZZZZZZZZlZZZZZZZZlMMMMMck1 14cjMbkkZZZZZZZZZZZZZZZZZZZ",
"ZZZZZZZZZZZZZZZZZlclZZZZkkcllcccMck1 14zZbckZkkZZZZZZZZZZZZZZZZZ",
"ZZZZZZZZZZZZZZZZZZlZZZZZZkvccMCCCnc515cjZckZkZZZZZZZZZZZZZZZZZZZ",
"ZZZZZZZZZZZZZZZZZZZZZjjcMCCMMlckMCMjcj5jkkkZZZZZZZZZZZZZZZZZZZZZ",
"ZZZZZZZZZZZZZZZZlZZjjbMlZcjZkcMkjcMZZ.tf,ZkZZZZZZZZZZZZZZZZZZZZZ",
"ZZZZZZZZZZZZZZZlclZlbjZZZkZZZZjZjkcZZ2qm6CBmZZZZZZZZZZZZZZZZZZZZ",
"ZZZZZZZZZZZZZZZZlZZvjlZZZjZZZjZZkckZZnBCN9nmnvZZZZZZZZZZZZZZZZZZ",
"ZZZZZZZZZZZZZZZZZZlcljZZjZZZZjZZcjZZnBnh333n6nZZZZZZZZZZZZZZZZZZ",
"ZZZZZZZZZZZZZZlZZZcjZZZZZZZZZZZkjZZn6Chxxhh3nvZZZZZZZZZZZZZZZZZZ",
"ZZZZZZZZZZZZZZZZZcZZZZZZZZZZZZZZZZZvN9hxxhh2vZZZZZZZZZZZZZZZZZZZ",
"ZZZZZZZZZZZZZZZZZZZZZZZZZZZZZZZZZZZZvv3hxh3ZZZZZZZZZZZZZZZZZZZZZ",
"ZZZZZZZZZZZZcZZZlZZZZZZZZZZZZZZZZZZZZZ83xh2ZZZZZZZZZZZZZZZZZZZZZ",
"ZZZZZZZZZZZZZlZZZZZZZZZZZZZZZZZZZZZZZZ2hh33ZZZZZZZZZZZZZZZZZZZZZ",
"ZZZZZZZZZZZZlMlZZZZZZZZZZZZZZZZZZZZZZZ33h32ZZZZZZZZZZZZZZZZZZZZZ",
"ZZZZZZZZZZZlZlZZZlZZZZZZZZZZZZZZZZZZZ23hh33ZZZZZZZZZZZZZZZZZZZZZ",
"ZZZZZZZZZZZZZZZZlclZZZZZZZZZZZZZZZZZZ2hhh3oZZZZZZZZZZZZZZZZZZZZZ",
"ZZZZZZZZZZZcZZZZZlZZZZZZZZZZZZ+@OZZZZ3hhh3%ZZZZZZZZZZZZZZZZZZZZZ",
"ZZZZZZZZZZZZZ>ZZZZZZZZZZZZZZZ@&&%OZZZ3hhh3%ZZZZZZZZZZZZZZZZZZZZZ",
"ZZZZZZZZZZZZZy,Z>ZZZZZZZZZZZO%*;&#OZ23hhh3ZZZZZZZZZZZZZZZZZZZZZZ",
"ZZZZZZZZZZZZZrf=yZZZZZZZZZZZ+&,,;&OZ2hhhh2ZZZZZZZZZZZZZZZZZZZZZZ",
"ZZZZZZZZZZZZZ*ggrZZZZZZZZZZZ+&:,;&.23hhh32ZZZZZZZZZZZZZZZZZZZZZZ",
"ZZZZZZZZZZZZZZ=0v$v07ZZZZZZZX&;;;%%2hxxh3ZZZZZZZZZZZZZZZZZZZZZZZ",
"ZZZZZZZZZZZZZ0nBnv933ZZZZZZZZ<r,r=22hxxh2ZZZZZZZZZZZZZZZZZZZZZZZ",
"ZZZZZZZZZZZZ0C0n93332ZZZZZZZ33uay333hhh3ZZZZZZZZZZZZZZZZZZZZZZZZ",
"ZZZZZZZZZZZ0B0N933h32ZZ2223333hhhhhxhhh2ZZZZZZZZZZZZZZZZZZZZZZZZ",
"ZZZZZZZZZZ0Bnb33hxhh3223hhh33hxxxxxxhh32ZZZZZZZZZZZZZZZZZZZZZZZZ",
"ZZZZZZZZZZ0n0733hhh333hhhxxhhxxxxxhhhh32ZZZZZZZZZZZZZZZZZZZZZZZZ",
"ZZZZZZZZZZZ0762233333hhhxxxxhxxxhhhhh332ZZZZZZZZZZZZZZZZZZZZZZZZ",
"ZZZZZZZZZZZZZZZZZ2233333hhhhhhhhh3hh3332ZZZZZZZZZZZZZZZZZZZZZZZZ",
"ZZZZZZZZZZZZZZZZZZZZ222223333hhhh33333322ZZZZZZZZZZZZZZZZZZZZZZZ",
"ZZZZZZZZZZZZZZZZZZZZZZZZ22223h33333333322ZZZZZZZZZZZZZZZZZZZZZZZ",
"ZZZZZZZZZZZZZZZZZZZZZZZZ2222hhh33h3333322ZZZZZZZZZZZZZZZZZZZZZZZ",
"ZZZZZZZZZZZZZZZZZZZZZZZZ2322hhhhhh33333232ZZZZZZZZZZZZZZZZZZZZZZ",
"ZZZZZZZZZZZZZZZZZZZZZZZZ2323hhhhhh33333232ZZZZZZZZZZZZZZZZZZZZZZ",
"ZZZZZZZZZZZZZZZZZZZZZZZ23323hhhhhh33333232ZZZZZZZZZZZZZZZZZZZZZZ",
"ZZZZZZZZZZZZZZZZZZZZZZZ23323hhhhh333333232ZZZZZZZZZZZZZZZZZZZZZZ",
"ZZZZZZZZZZZZZZZZZZZZZZZ23323hhhh3333h33332ZZZZZZZZZZZZZZZZZZZZZZ",
"ZZZZZZZZZZZZZZZZZZZZZZZ233233hh3333hh333322ZZZZZZZZZZZZZZZZZZZZZ",
"ZZZZZZZZZZZZZZZZZZZZZZ2233233hh33hhh33333322ZZZZZZZZZZZZZZZZZZZZ",
"ZZZZZZZZZZZZZZZZZZZZZ223332h3hhh3hhh333333322ZZZZZZZZZZZZZZZZZZZ",
"ZZZZZZZZZZZZZZZZZZZZ2233333h3hhhhhhh33hhh33332ZZZZZZZZZZZZZZZZZZ",
"ZZZZZZZZZZZZZZZZZZZ22333233h3hhhhhhh33hhhhh332ZZZZZZZZZZZZZZZZZZ",
"ZZZZZZZZZZZZZZZZZZZ233h3333h33hhhhhh3hhhhhh332ZZZZZZZZZZZZZZZZZZ",
"ZZZZZZZZZZZZZZZZZZZ33hh333hh33hhhhhh3hhhhh3333ZZZZZZZZZZZZZZZZZZ",
"ZZZZZZZZZZZZZZZZZZZZ3h3333hh333hhhhh3hhhh333w-ZZZZZZZZZZZZZZZZZZ",
"ZZZZZZZZZZZZZZZZZZZZ-2333hhhh33hhhhh3hh333ewZZZZZZZZZZZZZZZZZZZZ",
"ZZZZZZZZZZZZZZZZZZZZZw223hhhh33hhh333332ie ZZZZZZZZZZZZZZZZZZZZZ",
"ZZZZZZZZZZZZZZZZZZZZZZww3hhhh33h3eipsdpi   ZZZZZZZZZZZZZZZZZZZZZ",
"ZZZZZZZZZZZZZZZZZZZZZZZZeehhh33ie        ZZZZZZZZZZZZZZZZZZZZZZZ",
"ZZZZZZZZZZZZZZZZZZZZZZZZZ eissi        ZZZZZZZZZZZZZZZZZZZZZZZZZ",
"ZZZZZZZZZZZZZZZZZZZZZZZZZZZZZZZZZZZZZZZZZZZZZZZZZZZZZZZZZZZZZZZZ",
"ZZZZZZZZZZZZZZZZZZZZZZZZZZZZZZZZZZZZZZZZZZZZZZZZZZZZZZZZZZZZZZZZ",
"ZZZZZZZZZZZZZZZZZZZZZZZZZZZZZZZZZZZZZZZZZZZZZZZZZZZZZZZZZZZZZZZZ",
"ZZZZZZZZZZZZZZZZZZZZZZZZZZZZZZZZZZZZZZZZZZZZZZZZZZZZZZZZZZZZZZZZ",
"ZZZZZZZZZZZZZZZZZZZZZZZZZZZZZZZZZZZZZZZZZZZZZZZZZZZZZZZZZZZZZZZZ",
"ZZZZZZZZZZZZZZZZZZZZZZZZZZZZZZZZZZZZZZZZZZZZZZZZZZZZZZZZZZZZZZZZ",
"ZZZZZZZZZZZZZZZZZZZZZZZZZZZZZZZZZZZZZZZZZZZZZZZZZZZZZZZZZZZZZZZZ",
"ZZZZZZZZZZZZZZZZZZZZZZZZZZZZZZZZZZZZZZZZZZZZZZZZZZZZZZZZZZZZZZZZ"
};
