/* XPM */
static char *result[] = {
/* columns rows colors chars-per-pixel */
"64 64 54 1 ",
"  c black",
". c gray11",
"X c #241400",
"o c #2C1800",
"O c #342000",
"+ c #3C2404",
"@ c #482C04",
"# c #5C3000",
"$ c #58380C",
"% c #603810",
"& c #684000",
"* c #785004",
"= c #644014",
"- c #6C4C18",
"; c #744C1C",
": c #7C5820",
"> c #000440",
", c #00044C",
"< c #001474",
"1 c #002870",
"2 c #043478",
"3 c #304858",
"4 c gray25",
"5 c #544440",
"6 c #585858",
"7 c #685450",
"8 c #6C6C6C",
"9 c #886408",
"0 c #98780C",
"q c #886428",
"w c #907030",
"e c #9C7C3C",
"r c #A88C10",
"t c #BCA414",
"y c #D0C01C",
"u c #A88448",
"i c #B49054",
"p c #CCA874",
"a c #0428A0",
"s c #0C4084",
"d c #185090",
"f c #246098",
"g c #0C48CC",
"h c #4480B0",
"j c #848484",
"k c gray61",
"l c gray66",
"z c #B4B4B4",
"x c #C0B0A4",
"c c #E8C498",
"v c #D4C4B4",
"b c gray80",
"n c #D8D8D8",
"m c None",
/* pixels */
"mmmmmmmmmmmmmmmmmmmmmmmmmmmmmmmmmmmmmmmmmmmmmmmmmmmmmmmmmmmmmmmm",
"mmmmmmmmmmmmmmmmmmmmmmmmmmmmmmmmmmmmmmmmmmmmmmmmmmmmmmmmmmmmmmmm",
"mmmmmmmmmmmmmmmmmmmmmmmmmmmmmmmmmmmmmmmmmmmmmmmmmmmmmmmmmmmmmmmm",
"mmmmmmmmmmmmmmmmmmmmmmmmmmmmmmmmmmmmmmmmmmmmmmmmmmmmmmmmmmmmmmmm",
"mmmmmmmmmmmmmmmmmmmmmmmmmmmmmmmmmmmmmmmmmmmmmmmmmmmmmmmmmmmmmmmm",
"mmmmmmmmmmmmmmmmmmmmmmmmmmmmmmmmmmmmmmmmmmmmmmmmmmmmmmmmmmmmmmmm",
"mmmmmmmmmmmmmmmmmmmmmmmmmmmmmmmmmmmmmmmmmmmmmmmmmmmmmmmmmmmmmmmm",
"mmmmmmmmmmmmmmmmmmmmmmmmmmmmmmmmmmmmmmmmmmmmmmmmmmmmmmmmmmmmmmmm",
"mmmmmmmmmmmmmmmmmmmmmmmmmmmmmmmmmmmmmmmmmmmmmmmmmmmmmmmmmmmmmmmm",
"mmmmmmmmmmmmmmmmmmmmmmmmmmmmmmmmmmmmmmmmmmmmmmmmmmmmmmmmmmmmmmmm",
"mmmmmmmmmmmmmmmmmmmmmmmmmmmmmmmmmmmmmmmmmmmmmmmmmmmmmmmmmmmmmmmm",
"mmmmmmmmmmmmmmmmmmmmmmmmmmmmmmmmmmmmmmmmmmmmmmmmmmmmmmmmmmmmmmmm",
"mmmmmmmmmmmmmmmmmmmmmmmmmmmmmmmmmmmmmmmmmmmmmmmmmmmmmmmmmmmmmmmm",
"mmmmmmmmmmmmmmmmmmmmmmmmmmmmmmmmmmmmmmmmmmmmmmmmmmmmmmmmmmmmmmmm",
"mmmmmmmmmmmmmmmmmmmmmmmmmmmmmmmmmmmmmmmmmmmmmmmmmmmmmmmmmmmmmmmm",
"mmmmmmmmmmmmmmmmmmmmmmmmmmmmmmmmmmmmmmmmmmmmmmmmmmmmmmmmmmmmmmmm",
"mmmmmmmmmmmmmmmmmmmmmmmmmmmmmmmmmmmmmmmmmmmmmmmmmmmmmmmmmmmmmmmm",
"mmmmmmmmmmmmmmmmmmmmmmmmmmmmmmmmmmmmmmmmmmmmmmmmmmmmmmmmmmmmmmmm",
"mmmmmmmmmmmmmmmmmmmmmmmmmmmmmmmmmmmmmmmmmmmmmmmmmmmmmmmmmmmmmmmm",
"mmmmmmmmmmmmmmmmmmmmmmmmmmmmmmOOOOmmmmmmmmmmmmmmmmmmmmmmmmmmmmmm",
"mmmmmmmmmmmmmmmmmmmmmmmmmmmmmO&--&Ommmmmmmmmmmmmmmmmmmmmmmmmmmmm",
"mmmmmmmmmmmmmmmmmmmmmmmmmmmmO&@@-@@Ommmmmmmmmmmmmmmmmmmmmmmmmmmm",
"mmmmmmmmmmmmmmmmmmmmmmmmmmmmO&&@@&@&mmmmmmmmmmmmmmmmmmmmmmmmmmmm",
"mmmmmmmmmmmmmmmmmmmmmmm,,,,,O&;%%;&&mmmmmmmmmmmmmmmmmmmmmmmmmmmm",
"mmmmmmmmmmmmmmmmmmmmmm,<<a<,#;pccp;#,<<,mmmmmmmmmmmmmmmmmmmmmmmm",
"mmmmmmmmmmmmmmmmmmmmmm,aaaa<#qipppq#aaa<,mmmmmmmmmmmmmmmmmmmmmmm",
"mmmmmmmmmmmmmmmmmmmmm,<agga,##OiwqO#agga<,mmmmmmmmmmmmmmmmmmmmmm",
"mmmmmmmmmmmmmmmmmmmm,<agga<,#*uu*u*#aggga<,mmmmmmmmmmmmmmmmmmmmm",
"mmmmmmmmmmmmmmmmmmmm,aagg<<,#-q@@q##aaggga<,mmmmmmmmmmmmmmmmmmmm",
"mmmmmmmmmmmmmmmmmmm,<aaga,<,-+X#OO-+a<aggaa,mmmmmmmmmmmmmmmmmmmm",
"mmmmmmmmmmmmmmmmmm,<f,,,<aa,$XO*#X#=<<,agga<,mmmmmmmmmmmmmmmmmmm",
"mmmmmmmmmmmmmmmmm,,<fhffhfa<XOO*&#O#<<,<ggga<mmmmmmmmmmmmmmmmmmm",
"mmmmmmmmmmmmmmmmm,allfzbzhf<,+O-&#O<<<,,<gga<,mmmmmmmmmmmmmmmmmm",
"mmmmmmmmmmmmmmmmmglflzh2dfbaa++&#+,<a<<,,,aa<,mmmmmmmmmmmmmmmmmm",
"mmmmmmmmmmmmmmmmm8lhlzs2>>fh3*rrr7<<aa<,m,,a<,mmmmmmmmmmmmmmmmmm",
"mmmmmmmmmmmmmmmmmv4lzbf>  >hr0*9*;<<aa<,,m,aa<,mmmmmmmmmmmmmmmmm",
"mmmmmmmmmmmmmmmmj8xblzs2>>2str:34q0<aa<,,,j8llj,mmmmmmmmmmmmmmmm",
"mmmmmmmmmmmmmmmmjl8zhlhs1hs<y0$,a*r<aa<,<jl6nv4jmmmmmmmmmmmmmmmm",
"mmmmmmmmmmmmmmmmj8.3flzbzzfay0o  $taaa<<jlnbn8xnjmmmmmmmmmmmmmmm",
"mmmmmmmmmmmmmmmml.,3fhlzlaaat*   oyaaa<<j86.e3.lnjmmmmmmmmmmmmmm",
"mmmmmmmmmmmmmmmmmmmaezblhfaar@   Xyffa<f86,7:;.6llmmmmmmmmmmmmmm",
"mmmmmmmmmmmmmmmmmmXO3fhbhhaa9O    yaaaf<<<<:wiu.ljmmmmmmmmmmmmmm",
"mmmmmmmmmmmmmmmmmXOX,zfzbhffaX    taafhf<<wupp:6jmmmmmmmmmmmmmmm",
"mmmmmmmmmmmmmmmmmXXm,<afhzzhf     r9aaf<<<<<pu:6mmmmmmmmmmmmmmmm",
"mmmmmmmmmmmmmmmmmmmm,<aaaafzfff   ,raaaa<<w:i:5mmmmmmmmmmmmmmmmm",
"mmmmmmmmmmmmmmmmmmmm9<aaaffkf     ,yafaaaaii:mmmmmmmmmmmmmmmmmmm",
"mmmmmmmmmmmmmmmmmmmmm0<afaffkzkf  ,ffhaaafzwmmmmmmmmmmmmmmmmmmmm",
"mmmmmmmmmmmmmmmmmmmmmmr<aaarfffzffhhhaaaffz<<mmmmmmmmmmmmmmmmmmm",
"mmmmmmmmmmmmmmmmmmmmmmm0t<ay  fkzzfhlzfhzkf,mmmmmmmmmmmmmmmmmmmm",
"mmmmmmmmmmmmmmmmmmmmmmm  0ty  f    zz<<,ff mmmmmmmmmmmmmmmmmmmmm",
"mmmmmmmmmmmmmmmmmmmmmmm            fh      mmmmmmmmmmmmmmmmmmmmm",
"mmmmmmmmmmmmmmmmmmmmmmmm                  mmmmmmmmmmmmmmmmmmmmmm",
"mmmmmmmmmmmmmmmmmmmmmmmmmm    mmmmm    mmmmmmmmmmmmmmmmmmmmmmmmm",
"mmmmmmmmmmmmmmmmmmmmmmmmmmmmmmmmmmmmmmmmmmmmmmmmmmmmmmmmmmmmmmmm",
"mmmmmmmmmmmmmmmmmmmmmmmmmmmmmmmmmmmmmmmmmmmmmmmmmmmmmmmmmmmmmmmm",
"mmmmmmmmmmmmmmmmmmmmmmmmmmmmmmmmmmmmmmmmmmmmmmmmmmmmmmmmmmmmmmmm",
"mmmmmmmmmmmmmmmmmmmmmmmmmmmmmmmmmmmmmmmmmmmmmmmmmmmmmmmmmmmmmmmm",
"mmmmmmmmmmmmmmmmmmmmmmmmmmmmmmmmmmmmmmmmmmmmmmmmmmmmmmmmmmmmmmmm",
"mmmmmmmmmmmmmmmmmmmmmmmmmmmmmmmmmmmmmmmmmmmmmmmmmmmmmmmmmmmmmmmm",
"mmmmmmmmmmmmmmmmmmmmmmmmmmmmmmmmmmmmmmmmmmmmmmmmmmmmmmmmmmmmmmmm",
"mmmmmmmmmmmmmmmmmmmmmmmmmmmmmmmmmmmmmmmmmmmmmmmmmmmmmmmmmmmmmmmm",
"mmmmmmmmmmmmmmmmmmmmmmmmmmmmmmmmmmmmmmmmmmmmmmmmmmmmmmmmmmmmmmmm",
"mmmmmmmmmmmmmmmmmmmmmmmmmmmmmmmmmmmmmmmmmmmmmmmmmmmmmmmmmmmmmmmm",
"mmmmmmmmmmmmmmmmmmmmmmmmmmmmmmmmmmmmmmmmmmmmmmmmmmmmmmmmmmmmmmmm"
};
