/* XPM */
static char *result[] = {
/* columns rows colors chars-per-pixel */
"64 64 194 2 ",
"   c #4577B8",
".  c #4988BA",
"X  c #5A8FB7",
"o  c #5C88BC",
"O  c #6595BF",
"+  c #779CBD",
"@  c #7AA2BE",
"#  c #79B0BF",
"$  c #3D91D1",
"%  c #4183C2",
"&  c #5186C5",
"*  c #5F99CB",
"=  c #5491C3",
"-  c #5598D1",
";  c #5C9ED0",
":  c #6696C7",
">  c #629ECD",
",  c #779DC5",
"<  c #7695CB",
"1  c #6498DD",
"2  c #57A3D5",
"3  c #61A8C7",
"4  c #6EADCF",
"5  c #6CA8C4",
"6  c #70ABC1",
"7  c #7DACC6",
"8  c #77A8C7",
"9  c #69B0CA",
"0  c #79B5C9",
"q  c #69A7D2",
"w  c #6AAADF",
"e  c #62AADD",
"r  c #72AEDD",
"t  c #6BB4DB",
"y  c #79BBDA",
"u  c #5EB6EC",
"i  c #68ACE6",
"p  c #6FB8E5",
"a  c #78BAE5",
"s  c #70BBEF",
"d  c #76BEE3",
"f  c #70C2CC",
"g  c #69CBD6",
"h  c #73C8D0",
"j  c #78CAD5",
"k  c #7FCDDB",
"l  c #75D0DD",
"z  c #6FC5EB",
"x  c #7EC0EC",
"c  c #71C8E9",
"v  c #78C7E9",
"b  c #67D8E0",
"n  c #6DDEE6",
"m  c #6BC1F4",
"M  c #79C7F8",
"N  c #5DFBFE",
"B  c #6CEAEF",
"V  c #79E0E7",
"C  c #76E1E8",
"Z  c #7EE8EB",
"A  c #69EDF1",
"S  c #76EFF2",
"D  c #63F3F5",
"F  c #6BF3F3",
"G  c #61F6FA",
"H  c #6AF7F9",
"J  c #63FBFE",
"K  c #6BFCFE",
"L  c #74FBFC",
"P  c #7BFDFE",
"I  c #74F5F6",
"U  c #9DADB6",
"Y  c #87AEC5",
"T  c #80A6CE",
"R  c #83AFCC",
"E  c #91ACC3",
"W  c #87B1C8",
"Q  c #9FB8C7",
"!  c #80B7D6",
"~  c #8FB5D0",
"^  c #84BFD1",
"/  c #8CB6DE",
"(  c #82BCD9",
")  c #87B4DD",
"_  c #AFBCC0",
"`  c #8FBAE7",
"'  c #84BAE8",
"]  c #96BFE6",
"[  c #9EC4CF",
"{  c #8BC4D1",
"}  c #8EC9D6",
"|  c #87CDDE",
" . c #87C2D2",
".. c #9AC0D1",
"X. c #90C9DD",
"o. c #9FD1D9",
"O. c #ABCFDB",
"+. c #A6D3DD",
"@. c #B3D3DD",
"#. c #80C5ED",
"$. c #87DAE4",
"%. c #9BDDE4",
"&. c #94DAE9",
"*. c #9CDDEA",
"=. c #98D4E7",
"-. c #94C8F0",
";. c #84DAF4",
":. c #91D7F8",
">. c #93D8FF",
",. c #9ADFF9",
"<. c #96D2F6",
"1. c #AACBE4",
"2. c #A4D3ED",
"3. c #ACDBE1",
"4. c #BBDCE3",
"5. c #B5DCE8",
"6. c #A3DBF2",
"7. c #ACDBFD",
"8. c #B3DDF2",
"9. c #80EBEF",
"0. c #88E3EC",
"q. c #97E9EC",
"w. c #9DE2E2",
"e. c #99E7F5",
"r. c #87F7F9",
"t. c #8AF7F9",
"y. c #83FCFE",
"u. c #8BFDFE",
"i. c #93F7F8",
"p. c #98F7F8",
"a. c #92FDFE",
"s. c #9CFDFD",
"d. c #98F1F3",
"f. c #B1E5EE",
"g. c #BCE5EC",
"h. c #B6E9EE",
"j. c #BCEBED",
"k. c #BCE4E6",
"l. c #A4E4F5",
"z. c #A4EBF4",
"x. c #A2E3FE",
"c. c #A6E8FF",
"v. c #ABE9FF",
"b. c #AAE4F8",
"n. c #BAE1F2",
"m. c #BCEFFF",
"M. c #B4E4F7",
"N. c #A8F6F8",
"B. c #A5FEFE",
"V. c #ACFEFE",
"C. c #A3F0FA",
"Z. c #B5F4F9",
"A. c #B3FCFD",
"S. c #BAFEFF",
"D. c #C7DADB",
"F. c #D0DEE2",
"G. c #C9E1E7",
"H. c #C5E2EA",
"J. c #C8E3E9",
"K. c #C3EBEC",
"L. c #CEEBED",
"P. c #D3E9ED",
"I. c #CCF0EF",
"U. c #CCE6F4",
"Y. c #CDEBF4",
"T. c #C8EEFF",
"R. c #C5E4F7",
"E. c #D5EDF3",
"W. c #DBECF1",
"Q. c #D7E7F8",
"!. c #C2F2F4",
"~. c #CEF3F4",
"^. c #C3F5FC",
"/. c #CBF5FA",
"(. c #C4FDFE",
"). c #CEFBFD",
"_. c #D3F2F3",
"`. c #DCF4F4",
"'. c #D4F4FA",
"]. c #DCF5FD",
"[. c #D3FDFF",
"{. c #DBFBFC",
"}. c #E5ECED",
"|. c #E2EEF3",
" X c #E4F3F5",
".X c #E9F5F5",
"XX c #E8F8F7",
"oX c #E3F4FB",
"OX c #ECF7FB",
"+X c #E4FCFD",
"@X c #ECFCFD",
"#X c #F4FCFC",
"$X c #FCFEFE",
"%X c None",
/* pixels */
"%X%X%X%X%X%X%X%X%X%X%X%X%X%X%X%X%Xy.J %X%X%X%X%X%X%X%X%X%XI t.#X+XI %XK %X%X%X%X%X%X%X%X%X%X%X%X%X%X%X%X%X%X%X%X%X%X%X%XJ a.y.%X",
"%X%X%X%XN %X%X%X%X%X%X%X%X%X%X%X%Xy.N %X%X%X%X%X%X%X%XK P I t.$X$Xu.%X%XP %X%X%X%X%X%X%X%X%X%X%X%X%X%X%X%X%X%X%X%X%X%X%XK S.u.%X",
"%X%X%X%XJ %X%X%X%X%X%X%X%X%X%X%X%XK %X%X%X%X%X%X%XP y.H %X%XS #X$Xy.%X%XJ u.N %X%X%X%X%X%X%X%X%X%X%X%X%X%X%X%X%X%X%X%X%XP A.K %X",
"%X%X%X%XN %X%X%X%X%X%X%X%X%X%X%X%X%X%X%X%X%X%X%X%X%X%X%X%X%Xn ^./.A %X%X%Xy.B.K %X%X%X%X%X%X%X%X%X%X%X%X%X%X%X%X%X%X%X%XL u.%X%X",
"%X%X%X%X%X%X%X%X%X%X%X%X%X%X%X%X%X%X%X%X%X%X%X%X%X%X%X%X%X%X%X=.*.%X%X%X%X%XB.B.K %X%X%X%X%X%X%X%X%X%X%X%X%X%X%X%X%X%X%XJ %X%X%X",
"%X%X%X%X%X%X%X%X%X%X%X%X%X%X%X%X%X%X%X%X%X%X%X%X%X%X_ %X%X%X%X2./ %X%X%X%X%XK V.a.%X%X%X%X%X%X%X%X%X%X%X%X%X%X%X%X%X%X%X%X%X%X%X",
"%X%X%X%X%X%X%X%X%X%X%X%X%X%X%X%X%X%X%X%X%X%X%X%X%X%XF.U %X%X< 8./ %X%X%X%X%X%XJ P L %X%X%X%X%X%X%X%X%X%X%X%XN %X%X%X%X%X%X%X%X%X",
"%X%X%X%X%X%X%X%X%X%X%X%X%X%XL %X%X%X%X%X%X%X%X%XD.%X@.#XO T R.M.2.( , %X%X%X%X%X%X%X%X%X%X%X%X%X%X%X%X%X%X%X%XN %X%X%X%X%X%X%X%X",
"%X%X%X%X%X%X%X%X%X%X%X%X%XF P %X%X%XN J N %X%X%X.XH.! $XR.R.@X'.'.i |.%X%X%X%X%X%X%X%X%X%X%X%X%X%X%X%XK s.V.y.J K %X%X%X%X%X%X%X",
"%X%X%X%X%X%X%X%X%X%X%X%X%XL t.%X%X%X%X%X%X%X%X%X..#X7.$X#X#X@X@XOXQ.W.%X%X%X%X%X%X%X%X%X%X%X%X%X%X%XL S.{.[.a.N %X%X%X%X%X%X%X%X",
"%X%X%XL %X%X%X%X%X%X%X%X%XL F %X%X%X%X%X%X%X%X%X%X]./.+X$X+X@X$X$X$X1.%XE.#X%X%X%X%X%X%X%X%X%X%XJ K K K K J %X%X%X%X%X%X%X%X%X%X",
"%X%XN %X%X%X%X%X%X%X%X%X%X%X%X%X%X%X%X%X%XJ %X%X%X2.#X@X$X$X$X$X$X@X' / #XH.%X%X%X%X%X%X%X%X%X%X%X%X%X%X%X%X%X%X%X%X%X%X%X%X%X%X",
"%X%X%X%X%X%X%X%X%X%X%X%X%X%X%X%X%X%X%X%X%XJ %X%X%XE.$X).$X$X$X$X$X@X-.7.@X0 %X%X%X%X%X%X%X%X%X%X%XG %X%X%X%X%X%X%X%X%X%X%X%X%X%X",
"%X%X%X%X%X%X%X%X%X%X%X%X%X%X%X%X%X%X%X%X%XG K %X%XQ.]./.#X$X$X$X$X@X7.<.%X%X%X%X%X%X%X%X%X%X%X%X%XG %X%X%X%X%X%X%X%X%X%X%X%X%X%X",
"%X%X%X%X%X%X%X%X%X%X%X%X%X%X%X%X%Xg %X%X%X%XI %X%Xn.$X@X+X$X$X$X$X{.>.6.%X%X%X%X%X%X%XG K G %X%X%XG %X%X%X%X%X%X%X%X%X%X%X%X%X%X",
"%X%X%X%X%X%X%XJ J %X%X%X%X%X%X%XB p.i.D %Xh q.9.3 a $X#X+X#X$X$X$X{.m U.4 %X%X%X6 %Xa.S.[.(.P D %X%X%X%X%X%X%X%X%X%X%X%X%X%X%X%X",
"%X%X%X%X%X%XJ a.u.L %X%X%X%X%X%XF s.{.i.%X%Xl $X4 2 @X$Xc.:.$X$X$Xl.M.-.y | %X%X%Xf L.u.s.u.H %X%X%X%X%X%X%X%X%XN %X%X%X%X%X%X%X",
"%X%X%X%X%X%X%XN J %X%X%X%X%X%X%XG S Z.{.I %X%XOX$X- w +X1 x $X$X$Xi #X*  Xe 4 %X7 $X}.%X%X%X%X%X%X%X%X%X%X%X%X%X%XN %X%X%X%X%X%X",
"%X%X%X%X%X%X%X%X%X%X%X%X%X%X%X%X%X%X0./.N.%X%Xg.#X^.$ e.` `.#X$X@XoX#X8.$Xc '.% @X$X7 %X%X%X%X%X%X%X%X%X%X%X%X%X%X%X%X%X%X%X%X%X",
"%X%X%X%X%X%X%X%X%X%X%X%X%X%X%X%X%X%Xk $.].%X%X3 {.c.i '.e.U.$X$X$X/.[.$XOX#.+Xl.@X|.5 %X%X%X%X%X%X%X%X%X%X%X%X%X%X%X%X%X%X%X%X%X",
"%X%X%X%X%X%X%X%X%X%X%X%X%X%X%X%X%X%X%X%XK.O.%X%X: x.v.$X;.{.$X$X$Xl.+X#X8.b.#X[.n.%X%X%X%X%X%X%X%X%X%X%X%X%X%X%X%X%X%X%X%X%X%X%X",
"%X%X%X%X%X%X%X%X%X%X%X%X%X%X%X%X%X%X%X%X^ #XY %X%X2.v.$Xc.e.$X$X$X#X+X#X#.M ^.{.. %X%Xg %X%X%X%X%X%X%X%X%X%X%X%X%X%X%X%X%X%X%X%X",
"%X%X%X%X%X%X%X%XN %X%X%X%X%XJ %X%X%X%X%X%XOXOXR o   [.$X(.Z.$X$X$Xs ^.).v u ).f.X %XV 9.%X%X%X%X%X%X%X%X%X%X%X%X%X%X%X%X%X%X%X%X",
"%X%X%X%X%X%X%X%XJ %X%X%X%XP K %X%X%X%X%X%Xg.$X@X].& l.$X@X#X$X$XoXi v.;.#XZ.p = : 0 0.a.P %X%X%X%X%X%X%X%X%X%X%X%X%X%X%X%X%X%X%X",
"%X%X%X%X%X%X%XN N %X%X%XL y.%X%X%X%X%X%X%X%X#X$Xm.6.c @X(.$X$X$XY.<.y z.+Xd %X(  .*.&.d.u.K %X%X%X%X%X%X%X%X%X%X%X%X%X%X%X%X%X%X",
"%X%X%X%X%X%X%XN %X%X%X%XL N %X%X%X%X%XJ N K _.$X].c.v t ^.@X#X$X'._.h.z.^.* %X%.h.=.j b K L %X%X%X%X%X%X%X%X%X%X%XK P N %X%X%X%X",
"%X%X%X%X%X%X%X%X%X%X%X%XJ %X%X%X%X%X%XL B.(.(.$X$Xz #X> OX'.#X$X@X#X+X/.].q g.!.^ %X%X%X%X%XG %X%X%X%X%X%X%X%X%X%X%Xy.u.%X%X%X%X",
"%X%X%X%X%X%X%X%X%X%X%X%X%X%X%X%X%X%X%X%XP a.s.^.$XE.].Y.J.$X#X$X$X#X/.&.o X._. .%X%X%X%X%X%X%X%X%X%X%X%X%X%X%X%X%X%XJ u.L %X%X%X",
"%X%X%X%X%X%X%X%X%X%X%X%X%X%X%X%X%X%X%X%X%X%X%X%XP.#XR #X~ $X#X$X#XoXw.+ R I.w.B %X%X%X%X%X%X%X%X%X%X%X%X%X%X%X%X%X%X%XJ L %X%X%X",
"%X%X%X%X%X%X%X%X%X%X%X%X%X%X%X%X%X%X%X%X%X%X%X%X%X#XJ.XXO.#X#X#X$X!.w.+ `.} %Xu.s.y.C %X%X%X%X%X%X%X%X%X%X%X%X%X%X%X%X%XJ %X%X%X",
"%X%X%X%X%X%X%X%X%X%X%X%X%X%X%X%X%X%X%X%X%X%X%X%X%X_ #X~ .XXX$X$X#XI.{ `.o.%X%XK V.@XB.K %X%X%X%X%X%X%X%X%X%X%X%X%X%X%X%X%X%X%X%X",
"%X%X%X%X%X%X%X%X%X%X%X%X%X%X%X%X%X%X%X%X%X%X%X%XY %XH. XXX X#X$X$Xk.L.k.%X@ %Xk ~.s.[.(.K %X%X%X%X%X%X%X%X%X%X%X%X%X%X%X%X%X%X%X",
"%X%X%X%X%X%X%X%X%X%X%X%X%X%X%X%X%X%X%X%X%X%X%X%X%X@.%XXX}.$X#X$X$Xk.`.U o.%X+.L.%X%XP s.P K %X%X%X%X%X%X%X%X%X%X%X%X%X%X%X%X%X%X",
"%X%X%X%X%X%X%X%X%X%X%X%X%X%X%X%X%X%X%X%X%X%X%X%X%X%XJ.%X#X#X$X#X#X$XL..XR `.J.%X%X%X%X%X%X%X%X%X%X%X%X%X%X%X%X%X%X%X%X%X%X%X%X%X",
"%X%X%X%X%X%X%X%X%X%X%X%X%X%X%X%X%X%X%X%X%X%X%X%X%X%X%X`.U #X#X$X#X#X#X.X#XP.%X%X%X%X%X%X%X%X%X%X%X%X%X%X%X%X%X%X%X%X%X%X%X%X%X%X",
"%X%X%X%X%X%X%X%X%X%X%X%X%X%X%X%X%X%X%X%X%X%X%X%X%X%X%X%X.X@.$X#X#X$X$X#XJ.%X%X%X%X%X%X%X%X%X%X%X%X%X%X%X%X%X%X%X%X%X%X%X%X%X%X%X",
"%X%X%X%X%X%X%X%X%X%X%X%X%X%X%X%X%X%X%X%X%X%X%X%X%X%X%X%X%X#X#X$X#X$X#X4.%X%X%X%X%X%X%X%X%X%X%X%X%X%X%X%X%X%X%X%X%X%X%X%X%X%X%X%X",
"%X%X%X%X%X%X%X%X%X%X%X%X%X%X%X%X%X%X%X%X%X%X%X%X%X%X%X%X%XE #X#X$X#X_.%X%X%X%X%X%X%X%X%X%X%X%X%X%X%X%X%X%X%X%X%X%X%X%X%X%X%X%X%X",
"%X%X%X%X%X%X%X%X%X%X%X%X%X%X%X%X%X%X%X%X%X%X%X%X%X%X%X%X%X%X#X#X#X@.%X%X%X%X%X%X%X%X%X%X%X%X%X%X%X%X%X%X%X%X%X%X%X%X%X%X%X%X%X%X",
"%X%X%X%X%X%X%X%X%X%X%X%X%X%X%X%X%X%X%X%X%X%X%X%X%X%X%X%X%X%XP.$X$X}.%X%X%X%X%X%X%X%X%X%X%X%X%X%X%X%X%X%X%X%X%X%X%X%X%X%X%X%X%X%X",
"%X%X%X%X%X%X%X%X%X%X%X%X%X%X%X%X%X%X%X%X%X%X%X%X%X%X%X%X%X%X%X#X#X%X%X%X%X%X%X%X%X%X%X%X%X%X%X%X%X%X%X%X%X%X%X%X%X%X%X%X%X%X%X%X",
"%X%X%X%X%X%X%X%X%X%X%X%X%X%X%X%X%X%X%X%X%X%X%X%X%X%X%X%X%X%X%XJ.@.%X%X%X%X%X%X%X%X%X%X%X%X%X%X%X%X%X%X%X%X%X%X%X%X%X%X%X%X%X%X%X",
"%X%X%X%X%X%X%X%X%X%X%X%X%X%X%X%X%X%X%X%X%X%X%X%X%X%X%X%X%X%X%X%X%X%X%X%X%X%X%X%X%X%X%X%X%X%X%X%X%X%X%X%X%X%X%X%X%X%X%X%X%X%X%X%X",
"%X%X%X%X%X%X%X%X%X%X%X%X%X%X%X%X%X%X%X%X%X%X%X%X%X%X%X%X%X%X%X%X%X%X%X%X%X%X%X%X%X%X%X%X%X%X%X%X%X%X%X%X%X%X%X%X%X%X%X%X%X%X%X%X",
"%X%X%X%X%X%X%X%X%X%X%X%X%X%X%X%X%X%X%X%X%X%X%X%X%X%X%X%X%X%X%X%X%X%X%X%X%X%X%X%X%X%X%X%X%X%X%X%X%X%X%X%X%X%X%X%X%X%X%X%X%X%X%X%X",
"%X%X%X%X%X%X%X%X%X%X%X%X%X%X%X%X%X%X%X%X%X%X%X%X%X%X%X%X%X%X%X%X%X%X%X%X%X%X%X%X%X%X%X%X%X%X%X%X%X%X%X%X%X%X%X%X%X%X%X%X%X%X%X%X",
"%X%X%X%X%X%X%X%X%X%X%X%X%X%X%X%X%X%X%X%X%X%X%X%X%X%X%X%X%X%X%X%X%X%X%X%X%X%X%X%X%X%X%X%X%X%X%X%X%X%X%X%X%X%X%X%X%X%X%X%X%X%X%X%X",
"%X%X%X%X%X%X%X%X%X%X%X%X%X%X%X%X%X%X%X%X%X%X%X%X%X%X%X%X%X%X%X%X%X%X%X%X%X%X%X%X%X%X%X%X%X%X%X%X%X%X%X%X%X%X%X%X%X%X%X%X%X%X%X%X",
"%X%X%X%X%X%X%X%X%X%X%X%X%X%X%X%X%X%X%X%X%X%X%X%X%X%X%X%X%X%X%X%X%X%X%X%X%X%X%X%X%X%X%X%X%X%X%X%X%X%X%X%X%X%X%X%X%X%X%X%X%X%X%X%X",
"%X%X%X%X%X%X%X%X%X%X%X%X%X%X%X%X%X%X%X%X%X%X%X%X%X%X%X%X%X%X%X%X%X%X%X%X%X%X%X%X%X%X%X%X%X%X%X%X%X%X%X%X%X%X%X%X%X%X%X%X%X%X%X%X",
"%X%X%X%X%X%X%X%X%X%X%X%X%X%X%X%X%X%X%X%X%X%X%X%X%X%X%X%X%X%X%X%X%X%X%X%X%X%X%X%X%X%X%X%X%X%X%X%X%X%X%X%X%X%X%X%X%X%X%X%X%X%X%X%X",
"%X%X%X%X%X%X%X%X%X%X%X%X%X%X%X%X%X%X%X%X%X%X%X%X%X%X%X%X%X%X%X%X%X%X%X%X%X%X%X%X%X%X%X%X%X%X%X%X%X%X%X%X%X%X%X%X%X%X%X%X%X%X%X%X",
"%X%X%X%X%X%X%X%X%X%X%X%X%X%X%X%X%X%X%X%X%X%X%X%X%X%X%X%X%X%X%X%X%X%X%X%X%X%X%X%X%X%X%X%X%X%X%X%X%X%X%X%X%X%X%X%X%X%X%X%X%X%X%X%X",
"%X%X%X%X%X%X%X%X%X%X%X%X%X%X%X%X%X%X%X%X%X%X%X%X%X%X%X%X%X%X%X%X%X%X%X%X%X%X%X%X%X%X%X%X%X%X%X%X%X%X%X%X%X%X%X%X%X%X%X%X%X%X%X%X",
"%X%X%X%X%X%X%X%X%X%X%X%X%X%X%X%X%X%X%X%X%X%X%X%X%X%X%X%X%X%X%X%X%X%X%X%X%X%X%X%X%X%X%X%X%X%X%X%X%X%X%X%X%X%X%X%X%X%X%X%X%X%X%X%X",
"%X%X%X%X%X%X%X%X%X%X%X%X%X%X%X%X%X%X%X%X%X%X%X%X%X%X%X%X%X%X%X%X%X%X%X%X%X%X%X%X%X%X%X%X%X%X%X%X%X%X%X%X%X%X%X%X%X%X%X%X%X%X%X%X",
"%X%X%X%X%X%X%X%X%X%X%X%X%X%X%X%X%X%X%X%X%X%X%X%X%X%X%X%X%X%X%X%X%X%X%X%X%X%X%X%X%X%X%X%X%X%X%X%X%X%X%X%X%X%X%X%X%X%X%X%X%X%X%X%X",
"%X%X%X%X%X%X%X%X%X%X%X%X%X%X%X%X%X%X%X%X%X%X%X%X%X%X%X%X%X%X%X%X%X%X%X%X%X%X%X%X%X%X%X%X%X%X%X%X%X%X%X%X%X%X%X%X%X%X%X%X%X%X%X%X",
"%X%X%X%X%X%X%X%X%X%X%X%X%X%X%X%X%X%X%X%X%X%X%X%X%X%X%X%X%X%X%X%X%X%X%X%X%X%X%X%X%X%X%X%X%X%X%X%X%X%X%X%X%X%X%X%X%X%X%X%X%X%X%X%X",
"%X%X%X%X%X%X%X%X%X%X%X%X%X%X%X%X%X%X%X%X%X%X%X%X%X%X%X%X%X%X%X%X%X%X%X%X%X%X%X%X%X%X%X%X%X%X%X%X%X%X%X%X%X%X%X%X%X%X%X%X%X%X%X%X",
"%X%X%X%X%X%X%X%X%X%X%X%X%X%X%X%X%X%X%X%X%X%X%X%X%X%X%X%X%X%X%X%X%X%X%X%X%X%X%X%X%X%X%X%X%X%X%X%X%X%X%X%X%X%X%X%X%X%X%X%X%X%X%X%X",
"%X%X%X%X%X%X%X%X%X%X%X%X%X%X%X%X%X%X%X%X%X%X%X%X%X%X%X%X%X%X%X%X%X%X%X%X%X%X%X%X%X%X%X%X%X%X%X%X%X%X%X%X%X%X%X%X%X%X%X%X%X%X%X%X",
"%X%X%X%X%X%X%X%X%X%X%X%X%X%X%X%X%X%X%X%X%X%X%X%X%X%X%X%X%X%X%X%X%X%X%X%X%X%X%X%X%X%X%X%X%X%X%X%X%X%X%X%X%X%X%X%X%X%X%X%X%X%X%X%X",
"%X%X%X%X%X%X%X%X%X%X%X%X%X%X%X%X%X%X%X%X%X%X%X%X%X%X%X%X%X%X%X%X%X%X%X%X%X%X%X%X%X%X%X%X%X%X%X%X%X%X%X%X%X%X%X%X%X%X%X%X%X%X%X%X"
};
