/* XPM */
static char *result[] = {
/* columns rows colors chars-per-pixel */
"64 64 57 1 ",
"  c black",
". c #180000",
"X c gray8",
"o c #241400",
"O c #2C1800",
"+ c #342000",
"@ c #3C2404",
"# c #343434",
"$ c #482C04",
"% c #503008",
"& c #603810",
"* c #443434",
"= c #785004",
"- c #644014",
"; c #684014",
": c #744C1C",
"> c #78581C",
", c #000440",
"< c #00044C",
"1 c #001474",
"2 c #002870",
"3 c #043478",
"4 c gray25",
"5 c #4C4C4C",
"6 c #544440",
"7 c #585858",
"8 c #646464",
"9 c #6C6C6C",
"0 c gray47",
"q c #886408",
"w c #98780C",
"e c #806024",
"r c #886428",
"t c #8C6C28",
"y c #947830",
"u c #A88C10",
"i c #BCA414",
"p c #A08438",
"a c #D0C01C",
"s c #F4E020",
"d c #A88448",
"f c #B49054",
"g c #CCA874",
"h c #0428A0",
"j c #0C4084",
"k c #246098",
"l c #3470A4",
"z c #0C48CC",
"x c #4480B0",
"c c #848484",
"v c #909090",
"b c gray61",
"n c #B4B4B4",
"m c #D4C4B4",
"M c #C0C0C0",
"N c #D8D8D8",
"B c None",
/* pixels */
"BBBBBBBBBBBBBBBBBBBBBBBBBBBBBBBBBBBBBBBBBBBBBBBBBBBBBBBBBBBBBBBB",
"BBBBBBBBBBBBBBBBBBBBBBBBBBBBBBBBBBBBBBBBBBBBBBBBBBBBBBBBBBBBBBBB",
"BBBBBBBBBBBBBBBBBBBBBBBBBBBBBBBBBBBBBBBBBBBBBBBBBBBBBBBBBBBBBBBB",
"BBBBBBBBBBBBBBBBBBBBBBBBBBBBBBBBBBBBBBBBBBBBBBBBBBBBBBBBBBBBBBBB",
"BBBBBBBBBBBBBBBBBBBBBBBBBBkBBBBBxBkklBBBBBBBBBBBBBBBBBBBBBBBBBBB",
"BBBBBBBBBBBBBBBBBBBBBBBBBkxkBBBBBkx22xhBBBBBBBBBBBBBBBBBBBBBBBBB",
"BBBBBBBBBBBBBBBBBBBBBBBBBBkBBBkBkx3,,3jBBBBBBBBBBBBBBBBBBBBBBBBB",
"BBBBBBBBBBBBBBBBBBBBBBBBBBBBBknkBn,  ,xBBBBBBBBBBBBBBBBBBBBBBBBB",
"BBBBBBBBBBBBBBBBBBBBBBBBBBBBBBkBBx3,,3xBBBBBBBBBBBBBBBBBBBBBBBBB",
"BBBBBBBBBBBBBBBBBBBBBBBBBBBBBBBxBBkxnxkBBBBBBBBBBBBBBBBBBBBBBBBB",
"BBBBBBBBBBBBBBBBBBBBBBBBBBBBBBBBBkkBkkiBBBBBBBBBBBBBBBBBBBBBBBBB",
"BBBBBBBBBBBBBBBBBBBBBBBBBBBBBBBBBBBBksiBBBBBBBBBBBBBBBBBBBBBBBBB",
"BBBBBBBBBBBBBBBBBBBBBBBBBBBBBBBBBBBBOia$BBBBBBBBBBBBBBBBBBBBBBBB",
"BBBBBBBBBBBBBBBBBBBBBBBBBBBBBBBBBBBBBkswBBBBBBBBBBBBBBBBBBBBBBBB",
"BBBBBBBBBBBBBBBBBBBBBBBBBBBBBBBBBBBBBBuiBBBBBBBBBBBBBBBBBBBBBBBB",
"BBBBBBBBBBBBkBBBBBBBBBBBBBBBBBBBBBBBBBo%OBBBBBBBBBBBBBBBBBBBBBBB",
"BBBBBBBBBBBBBBBBBBBBBBBBBBBBBBBBBBBBBBB@$BBBBBBBBBBBBBBBBBBBBBBB",
"BBBBBBBBBBBBBxBBBBBBBBBBBBBBBBBBBBBBBBBo%OBBBBBBBBBBBBBBBBBBBBBB",
"BBBBBBBBBBkBBBBBBBBBBBBBBBBBBBBBBBBBBBBB@%BBBBBBBBBBBBBBBBBBBBBB",
"BBBBBBBBBBBBBBBBBBBBBBBBBBBBBBBBBBBBBBBBo%OBBBBBBBBBBBBBBBBBBBBB",
"BBBBBBBBBBBBkBBBBkBBBBBBBBBBBBBBBBBBBBBBBord:BBBBBBBBBBBBBBBBBBB",
"BBBBBBBBBBBkxkBBBBBBBBBBBBBBBBBBBBBBBBBBBofgfBBBBBBBBBBBBBBBBBBB",
"BBBBBBBBBBBBkBBBBBBBBBBBBBBBBBBBBBBBBBBBB%6cccBBBBBBBBBBBBBBBBBB",
"BBBBBBBBBBBBBBkBBBBBBBBBBBBBBBO+oBBBBBBB8cbnN4NBBBBBBBBBBBBBBBBB",
"BBBBBBBBBBBBBBBBBBBBBBBBBBBBB+%%$oBBBBB8c4811m7NBBBBBBBBBBBBBBBB",
"BBBBBBBBBBBBBBBBBBBBBBBBBBBBo$&-%@oBBBBcb81hh1cncBBBBBBBBBBBBBBB",
"BBBBBBBBBBBBBBBBBBBBBBBBBBBBO%::-%oBBBBB<1hhh1<4cBBBBBBBBBBBBBBB",
"BBBBBBBBBBBBBBBBBBBBBBBBBBBBO%;:-%.BBBB<<<111#Ob8BBBBBBBBBBBBBBB",
"BBBBBBBBBBBBBBBBBBBBBBBBBBBBX%---$$B<<<<1111<@$8BBBBBBBBBBBBBBBB",
"BBBBBBBBBBBBBBBBBBBBBBBB<<<<1>e:e*<<11h11111<o%OBBBBBBBBBBBBBBBB",
"BBBBBBBBBBBBBBBBB#95h1<<111111ypt111hhhhh111<B@$BBBBBBBBBBBBBBBB",
"BBBBBBBBBBBBBBBB#9b1<<1hhhh1hhhhhhhhhzzhh1<<BBo%OBBBBBBBBBBBBBBB",
"BBBBBBBBBBBBBBB#0M511<1hzzhhzzzzzzzzhhh1<1BBBBB@$BBBBBBBBBBBBBBB",
"BBBBBBBBBBBBBB#9b71h11hhhzhzzzzzzzzzh1<<BBBBBBBo%OBBBBBBBBBBBBBB",
"BBBBBBBBBBBBBB#vM1hh11hh11hhzhhhhhhhh1<BBBBBBBBB@$BBBBBBBBBBBBBB",
"BBBBBBBBBBBBBB#M91hh1111<<1hhhhhhhhh11<BBBBBBBBBo%oBBBBBBBBBBBBB",
"BBBBBBBBBBBBBB#9M1h111<<<<11hhh1hhh111<BBBBBBBBBBoBBBBBBBBBBBBBB",
"BBBBBBBBBBBBBB#bM1h1<<B<<<hh1111111111<BBBBBBBBBBBBBBBBBBBBBBBBB",
"BBBBBBBBBBBBBBB9v11<BBB<<1hhhhhhhh1111<<BBBBBBBBBBBBBBBBBBBBBBBB",
"BBBBBBBBBBBBBBBB9<BBBBB<<1hhhhhhhhh111<<BBBBBBBBBBBBBBBBBBBBBBBB",
"BBBBBBBBBBBBBBBBBBBBBBB<11hhhhh1hhh111<<BBBBBBBBBBBBBBBBBBBBBBBB",
"BBBBBBBBBBBBBBBBBBBBBB<<11hhhhh11h1111<<BBBBBBBBBBBBBBBBBBBBBBBB",
"BBBBBBBBBBBBBBBBBBBBBB<<11hhhhh1111h11<1<BBBBBBBBBBBBBBBBBBBBBBB",
"BBBBBBBBBBBBBBBBBBBBB<<<11hhhh1111hhh1<1<BBBBBBBBBBBBBBBBBBBBBBB",
"BBBBBBBBBBBBBBBBBBBBB<<<11hhhh111hhhh111<BBBBBBBBBBBBBBBBBBBBBBB",
"BBBBBBBBBBBBBBBBBBBBB<<111hhhh11hhhhh111<<BBBBBBBBBBBBBBBBBBBBBB",
"BBBBBBBBBBBBBBBBBBBBB<<1111hhh11hhhhh1111<<BBBBBBBBBBBBBBBBBBBBB",
"BBBBBBBBBBBBBBBBBBBBB<<1111hhhh1hhhh11111<<BBBBBBBBBBBBBBBBBBBBB",
"BBBBBBBBBBBBBBBBBBBBB<11hh1hhhh1hhhh111111<BBBBBBBBBBBBBBBBBBBBB",
"BBBBBBBBBBBBBBBBBBBB<<11hhhhhhhhhhh11hhhhh1<BBBBBBBBBBBBBBBBBBBB",
"BBBBBBBBBBBBBBBBBBBB<<1hhhhhhhhhhhh1hhhhhhh1<BBBBBBBBBBBBBBBBBBB",
"BBBBBBBBBBBBBBBBBBBB<1hhhhhh1hhh1hh1hhhhhhhh<BBBBBBBBBBBBBBBBBBB",
"BBBBBBBBBBBBBBBBBBBB<1hhhhhh11h11111hhhhhhhwqBBBBBBBBBBBBBBBBBBB",
"BBBBBBBBBBBBBBBBBBBB=hhhhhhh11111wqq=1111uwBBBBBBBBBBBBBBBBBBBBB",
"BBBBBBBBBBBBBBBBBBBBBwuhhhh11uiiu   uiaau BBBBBBBBBBBBBBBBBBBBBB",
"BBBBBBBBBBBBBBBBBBBBBB uaaaiu          BBBBBBBBBBBBBBBBBBBBBBBBB",
"BBBBBBBBBBBBBBBBBBBBBBBBBBBBBBBBBBBBBBBBBBBBBBBBBBBBBBBBBBBBBBBB",
"BBBBBBBBBBBBBBBBBBBBBBBBBBBBBBBBBBBBBBBBBBBBBBBBBBBBBBBBBBBBBBBB",
"BBBBBBBBBBBBBBBBBBBBBBBBBBBBBBBBBBBBBBBBBBBBBBBBBBBBBBBBBBBBBBBB",
"BBBBBBBBBBBBBBBBBBBBBBBBBBBBBBBBBBBBBBBBBBBBBBBBBBBBBBBBBBBBBBBB",
"BBBBBBBBBBBBBBBBBBBBBBBBBBBBBBBBBBBBBBBBBBBBBBBBBBBBBBBBBBBBBBBB",
"BBBBBBBBBBBBBBBBBBBBBBBBBBBBBBBBBBBBBBBBBBBBBBBBBBBBBBBBBBBBBBBB",
"BBBBBBBBBBBBBBBBBBBBBBBBBBBBBBBBBBBBBBBBBBBBBBBBBBBBBBBBBBBBBBBB",
"BBBBBBBBBBBBBBBBBBBBBBBBBBBBBBBBBBBBBBBBBBBBBBBBBBBBBBBBBBBBBBBB"
};
