/* XPM */
static char *result[] = {
/* columns rows colors chars-per-pixel */
"64 64 59 1 ",
"  c black",
". c #180000",
"X c #241400",
"o c #2C1800",
"O c #342000",
"+ c #3C2404",
"@ c #482C04",
"# c #5C3000",
"$ c #503008",
"% c #58380C",
"& c #603810",
"* c #443434",
"= c #684000",
"- c #785004",
"; c #684014",
": c #6C4C18",
"> c #744C1C",
", c #7C5820",
"< c #000440",
"1 c #00044C",
"2 c #001474",
"3 c #002870",
"4 c #043478",
"5 c #304858",
"6 c gray25",
"7 c #544440",
"8 c #685450",
"9 c #646464",
"0 c #6C6C6C",
"q c gray47",
"w c #886408",
"e c #98780C",
"r c #886428",
"t c #907030",
"y c #9C7C3C",
"u c #A88C10",
"i c #BCA414",
"p c #D0C01C",
"a c #F4E020",
"s c #A88448",
"d c #B49054",
"f c #CCA874",
"g c #0428A0",
"h c #0C4084",
"j c #185090",
"k c #246098",
"l c #3470A4",
"z c #0C48CC",
"x c #4480B0",
"c c #848484",
"v c #909090",
"b c gray61",
"n c gray66",
"m c #B4B4B4",
"M c #E8C498",
"N c #D4C4B4",
"B c #C0C0C0",
"V c #D8D8D8",
"C c None",
/* pixels */
"CCCCCCCCCCCCCCCCCCCkCCCCCCCCCCCCCCCCCCCCCCCCCCCCCCCCCCCCCCCCCCCC",
"CCCCCCCCCCCCCCCkCCkxkCCCCCCCCCCCCCCCCCCCCCCCCCCCCCCCCCCCCCCCCCCC",
"CCCCCCCCCCCCCCkxkCCkCCCCCCCCCCCCCCCCCCCCCCCCCCCCCCCCCCCCCCCCCCCC",
"CCCCCCCCCCCCCCCkCCCCCCCCCCCCCCCCCCCCCCCCCCCCCCCCCCCCCCCCCCCCCCCC",
"CCCCCChCCChCCCCCCCCCkCCCCCCCCCCCCCCCCCCCCCCCCCCCCCCCCCCCCCCCCCCC",
"CCCCCChCCCCCjCCCCChkCCCCxCCCCCCCCCCCCCCCCCCCCCCCCCCCCCCCCCCCCCCC",
"CCCCCCjhCC4hCCCCChkvxxxCCkkkCCkCC00CCCCCCCCCCCCCCCCCCCCCCCCCCCCC",
"CCCCCCCxCChxjkxvmbvhhkhChxtk>xkC0v*0CCCCCCCCCCCCCCCCCCCCCCCCCCCC",
"CCCChCjxh4hmxbmmxxCC4CCCh4ksykxkvnv0CCCCCCCCCCCCCCCCCCCCCCCCCCCC",
"CCCCCChjjxmnnVmxCCCCCCCCkxk&dd>V0n01CCCCCCCCCCCCCCCCCCCCCCCCCCCC",
"CCCCCqhjxmVmbVxjjChCCCCCCk>sfMf0Vbg21CCCCCCCCCCCCCCCCCCCCCCCCCCC",
"CCCCjxmmVVVmmxjh4hCCCCCCCCCC&>$N0vgg21CCCCCCCCCCCCCCCCCCCCCCCCCC",
"CC4jxmVVmVmmxmh4CCCCCCCCCCCCCC0nb0zg2111CCCCCCCCCCCCCCCCCCCCCCCC",
"CCChqVmxxjxxcjjjCCCCCCCCCCCCCC08v2221221CCCCCCCCCCCCCCCCCCCCCCCC",
"Cjxmmxjxjj4jxmqj4CCCCCCCCCCCCC07c0C112221CCCCCCCCCCCCCCCCCCCCCCC",
"CCmVxjl4<<lh4jjCjhCCCCCCCCCCCC0c0CCC11221CCCCCCCCCCCCCCCCCCCCCCC",
"CCxxVx3<  <lhCCCCCCCCCCCCCCCCCCCC.XOXg222CCCCCCCCCCCCCCCCCCCCCCC",
"CCmVmjh4<<4h3hCCCCCCCCCCCCCCCCCCoO+++o2g21CCCCCCCCCCCCCCCCCCCCCC",
"Cxxmmxlh33l3CCCCCCCCCCCCCCCCCCCo&>;%%@5zg1CCCCCCCCCCCCCCCCCCCCCC",
"CCjjVmxcmlhhCCCCCCCCCCCCCCCCCCC7tfs,>%5zg1CCCCCCCCCCCCCCCCCCCCCC",
"CjCxmxj4cupeCCCCCCCCCCCCCCCCCCC;ysd,;&5221CCCCCCCCCCCCCCCCCCCCCC",
"CCCjxCjCheaeCCCCCCCCCCCCCCCCCC&t#>#:t@2g21CCCCCCCCCCCCCCCCCCCCCC",
"CCCCjCjCC=peCCCCCCCCCCCCCCCCCC@@Xrt;@Xgg21CCCCCCCCCCCCCCCCCCCCCC",
"CCCCCCCCCCiuoCCCCCCCCCCCCCCCCo#o=X#112gg21CCCCCCCCCCCCCCCCCCCCCC",
"CCCCCCCCCC--OCCCCCCCCCCCCCCCC+-@o-X2ggg221CCCCCCCCCCCCCCCCCCCCCC",
"CCCCCCCCCCC@+CCCCCCCCCCCCCCCC#Xo112gzgg121CCCCCCCCCCCCCCCCCCCCCC",
"CCCCCCCCCCCooCCCCCvm9CCCCCC11112222ggg21121CCCCCCCCCCCCCCCCCCCCC",
"CCCCCCCCCC+rfMds%qB911CCC11222ggggg22g21121CCCCCCCCCCCCCCCCCCCCC",
"CCCCCCCCCCrdMMMMqm02gg222222ggzzzzgg2221121CCCCCCCCCCCCCCCCCCCCC",
"CCCCCCCCCC&yfdsr9mb2gggggg2gzzzzzggg2221121CCCCCCCCCCCCCCCCCCCCC",
"CCCCCCCCCCC++@CC9mm22ggzzzggggggg22g2222111CCCCCCCCCCCCCCCCCCCCC",
"CCCCCCCCCCCC+@.Cq0V922ggg2111222222g22221111CCCCCCCCCCCCCCCCCCCC",
"CCCCCCCCCCCCo@OCCN0v122111CCC111112g22221121CCCCCCCCCCCCCCCCCCCC",
"CCCCCCCCCCCCC+$+C6Vm911CCCCCC1221112222211211CCCCCCCCCCCCCCCCCCC",
"CCCCCCCCCCCCCX$+CCqmvCCCCCCCC12211222222112211CCCCCCCCCCCCCCCCCC",
"CCCCCCCCCCCCCC+$CCCqvCCCCCCCC122112212221122211CCCCCCCCCCCCCCCCC",
"CCCCCCCCCCCCCCO$CCCCCCCCCCCCC122212212221122221CCCCCCCCCCCCCCCCC",
"CCCCCCCCCCCCCCo%+CCCCCCCCCCCC12221221122111221uCCCCCCCCCCCCCCCCC",
"CCCCCCCCCCCCCCX%oCCCCCCCCCCC12222122112221122eCCCCCCCCCCCCCCCCCC",
"CCCCCCCCCCCCCCC%OCCCCCCCCCCC122gg22211122112wCCCCCCCCCCCCCCCCCCC",
"CCCCCCCCCCCCCCC@+CCCCCCCCCCC122gg2222112211-  CCCCCCCCCCCCCCCCCC",
"CCCCCCCCCCCCCCCooCCCCCCCCCC1222ggg222212221   CCCCCCCCCCCCCCCCCC",
"CCCCCCCCCCCCCCCCCCCCCCCCCCC122gggg2g2211221    CCCCCCCCCCCCCCCCC",
"CCCCCCCCCCCCCCCCCCCCCCCCCC 122ggggggg221222#   CCCCCCCCCCCCCCCCC",
"CCCCCCCCCCCCCCCCCCCCCCCCCC 222gggggggg22222-   CCCCCCCCCCCCCCCCC",
"CCCCCCCCCCCCCCCCCCCCCCCCC  22gggggggggg2222w  CCCCCCCCCCCCCCCCCC",
"CCCCCCCCCCCCCCCCCCCCCCCCC  #2ggggggggggg222e  CCCCCCCCCCCCCCCCCC",
"CCCCCCCCCCCCCCCCCCCCCCCCC   -2gggggggggg2ew   CCCCCCCCCCCCCCCCCC",
"CCCCCCCCCCCCCCCCCCCCCCCCC    wegggggggg2eu   CCCCCCCCCCCCCCCCCCC",
"CCCCCCCCCCCCCCCCCCCCCCCCCC     u2ggggggu    CCCCCCCCCCCCCCCCCCCC",
"CCCCCCCCCCCCCCCCCCCCCCCCCCC     ugggggu   CCCCCCCCCCCCCCCCCCCCCC",
"CCCCCCCCCCCCCCCCCCCCCCCCCCCCCC   uipiuCCCCCCCCCCCCCCCCCCCCCCCCCC",
"CCCCCCCCCCCCCCCCCCCCCCCCCCCCCCCCCCCCCCCCCCCCCCCCCCCCCCCCCCCCCCCC",
"CCCCCCCCCCCCCCCCCCCCCCCCCCCCCCCCCCCCCCCCCCCCCCCCCCCCCCCCCCCCCCCC",
"CCCCCCCCCCCCCCCCCCCCCCCCCCCCCCCCCCCCCCCCCCCCCCCCCCCCCCCCCCCCCCCC",
"CCCCCCCCCCCCCCCCCCCCCCCCCCCCCCCCCCCCCCCCCCCCCCCCCCCCCCCCCCCCCCCC",
"CCCCCCCCCCCCCCCCCCCCCCCCCCCCCCCCCCCCCCCCCCCCCCCCCCCCCCCCCCCCCCCC",
"CCCCCCCCCCCCCCCCCCCCCCCCCCCCCCCCCCCCCCCCCCCCCCCCCCCCCCCCCCCCCCCC",
"CCCCCCCCCCCCCCCCCCCCCCCCCCCCCCCCCCCCCCCCCCCCCCCCCCCCCCCCCCCCCCCC",
"CCCCCCCCCCCCCCCCCCCCCCCCCCCCCCCCCCCCCCCCCCCCCCCCCCCCCCCCCCCCCCCC",
"CCCCCCCCCCCCCCCCCCCCCCCCCCCCCCCCCCCCCCCCCCCCCCCCCCCCCCCCCCCCCCCC",
"CCCCCCCCCCCCCCCCCCCCCCCCCCCCCCCCCCCCCCCCCCCCCCCCCCCCCCCCCCCCCCCC",
"CCCCCCCCCCCCCCCCCCCCCCCCCCCCCCCCCCCCCCCCCCCCCCCCCCCCCCCCCCCCCCCC",
"CCCCCCCCCCCCCCCCCCCCCCCCCCCCCCCCCCCCCCCCCCCCCCCCCCCCCCCCCCCCCCCC"
};
