/* XPM */
static char *result[] = {
/* columns rows colors chars-per-pixel */
"64 64 59 1 ",
"  c black",
". c #180000",
"X c #241400",
"o c #2C1800",
"O c #342000",
"+ c #3C2404",
"@ c #482C04",
"# c #5C3000",
"$ c #503008",
"% c #58380C",
"& c #603810",
"* c #443434",
"= c #684000",
"- c #785004",
"; c #684014",
": c #6C4C18",
"> c #744C1C",
", c #7C5820",
"< c #000440",
"1 c #00044C",
"2 c #001474",
"3 c #002870",
"4 c #043478",
"5 c #304858",
"6 c gray25",
"7 c #544440",
"8 c #685450",
"9 c #646464",
"0 c #6C6C6C",
"q c gray47",
"w c #886408",
"e c #98780C",
"r c #886428",
"t c #907030",
"y c #9C7C3C",
"u c #A88C10",
"i c #BCA414",
"p c #D0C01C",
"a c #F4E020",
"s c #A88448",
"d c #B49054",
"f c #CCA874",
"g c #0428A0",
"h c #0C4084",
"j c #185090",
"k c #246098",
"l c #3470A4",
"z c #0C48CC",
"x c #4480B0",
"c c #848484",
"v c #909090",
"b c gray61",
"n c gray66",
"m c #B4B4B4",
"M c #E8C498",
"N c #D4C4B4",
"B c #C0C0C0",
"V c #D8D8D8",
"C c None",
/* pixels */
"CCCCCCCCCCCCCCCCCCCCCCCCCCCCCCCCCCCCCCCCCCCCkCCCCCCCCCCCCCCCCCCC",
"CCCCCCCCCCCCCCCCCCCCCCCCCCCCCCCCCCCCCCCCCCCkxkCCkCCCCCCCCCCCCCCC",
"CCCCCCCCCCCCCCCCCCCCCCCCCCCCCCCCCCCCCCCCCCCCkCCkxkCCCCCCCCCCCCCC",
"CCCCCCCCCCCCCCCCCCCCCCCCCCCCCCCCCCCCCCCCCCCCCCCCkCCCCCCCCCCCCCCC",
"CCCCCCCCCCCCCCCCCCCCCCCCCCCCCCCCCCCCCCCCCCCkCCCCCCCCChCCChCCCCCC",
"CCCCCCCCCCCCCCCCCCCCCCCCCCCCCCCCCCCCCCCxCCCCkhCCCCCjCCCCChCCCCCC",
"CCCCCCCCCCCCCCCCCCCCCCCCCCCCC00CCkCCkkkCCxxxvkhCCCCCh4CChjCCCCCC",
"CCCCCCCCCCCCCCCCCCCCCCCCCCCC0*v0Ckx>ktxhChkhhvbmvxkjxhCCxCCCCCCC",
"CCCCCCCCCCCCCCCCCCCCCCCCCCCC0vnvkxkysk4hCCC4CCxxmmbxmh4hxjChCCCC",
"CCCCCCCCCCCCCCCCCCCCCCCCCCCC10n0V>dd&kxkCCCCCCCCxmVnnmxjjhCCCCCC",
"CCCCCCCCCCCCCCCCCCCCCCCCCCC12gbV0fMfs>kCCCCCChCjjxVbmVmxjhqCCCCC",
"CCCCCCCCCCCCCCCCCCCCCCCCCC12ggv0N$>&CCCCCCCCCCh4hjxmmVVVmmxjCCCC",
"CCCCCCCCCCCCCCCCCCCCCCCC1112gz0bn0CCCCCCCCCCCCCC4hmxmmVmVVmxj4CC",
"CCCCCCCCCCCCCCCCCCCCCCCC1221222v80CCCCCCCCCCCCCCjjjcxxjxxmVqhCCC",
"CCCCCCCCCCCCCCCCCCCCCCC122211C0c70CCCCCCCCCCCCC4jqmxj4jjxjxmmxjC",
"CCCCCCCCCCCCCCCCCCCCCCC12211CCC0c0CCCCCCCCCCCChjCjj4hl<<4ljxVmCC",
"CCCCCCCCCCCCCCCCCCCCCCC222gXOX.CCCCCCCCCCCCCCCCCCCChl<  <3xVxxCC",
"CCCCCCCCCCCCCCCCCCCCCC12g2o+++OoCCCCCCCCCCCCCCCCCCh3h4<<4hjmVmCC",
"CCCCCCCCCCCCCCCCCCCCCC1gz5@%%;>&oCCCCCCCCCCCCCCCCCCC3l33hlxmmxxC",
"CCCCCCCCCCCCCCCCCCCCCC1gz5%>,sft7CCCCCCCCCCCCCCCCCCChhlmcxmVjjCC",
"CCCCCCCCCCCCCCCCCCCCCC1225&;,dsy;CCCCCCCCCCCCCCCCCCCepuc4jxmxCjC",
"CCCCCCCCCCCCCCCCCCCCCC12g2@t:#>#t&CCCCCCCCCCCCCCCCCCeaehCjCxjCCC",
"CCCCCCCCCCCCCCCCCCCCCC12ggX@;trX@@CCCCCCCCCCCCCCCCCCep=CCjCjCCCC",
"CCCCCCCCCCCCCCCCCCCCCC12gg211#X=o#oCCCCCCCCCCCCCCCCouiCCCCCCCCCC",
"CCCCCCCCCCCCCCCCCCCCCC122ggg2X-o@-+CCCCCCCCCCCCCCCCO--CCCCCCCCCC",
"CCCCCCCCCCCCCCCCCCCCCC121ggzg211oX#CCCCCCCCCCCCCCCC+@CCCCCCCCCCC",
"CCCCCCCCCCCCCCCCCCCCC12112ggg22221111CCCCCC9mvCCCCCooCCCCCCCCCCC",
"CCCCCCCCCCCCCCCCCCCCC12112g22ggggg22211CCC119Bq%sdMfr+CCCCCCCCCC",
"CCCCCCCCCCCCCCCCCCCCC1211222ggzzzzgg222222gg20mqMMMMdrCCCCCCCCCC",
"CCCCCCCCCCCCCCCCCCCCC1211222gggzzzzzg2gggggg2bm9rsdfy&CCCCCCCCCC",
"CCCCCCCCCCCCCCCCCCCCC1112222g22gggggggzzzgg22mm9CC@++CCCCCCCCCCC",
"CCCCCCCCCCCCCCCCCCCC11112222g2222221112ggg229V0qC.@+CCCCCCCCCCCC",
"CCCCCCCCCCCCCCCCCCCC12112222g211111CCC111221v0NCCO@oCCCCCCCCCCCC",
"CCCCCCCCCCCCCCCCCCC1121122222111221CCCCCC119mV6C+$+CCCCCCCCCCCCC",
"CCCCCCCCCCCCCCCCCC11221122222211221CCCCCCCCvmqCC+$XCCCCCCCCCCCCC",
"CCCCCCCCCCCCCCCCC112221122212211221CCCCCCCCvqCCC$+CCCCCCCCCCCCCC",
"CCCCCCCCCCCCCCCCC122221122212212221CCCCCCCCCCCCC$OCCCCCCCCCCCCCC",
"CCCCCCCCCCCCCCCCCu12211122112212221CCCCCCCCCCCC+%oCCCCCCCCCCCCCC",
"CCCCCCCCCCCCCCCCCCe22112221122122221CCCCCCCCCCCo%XCCCCCCCCCCCCCC",
"CCCCCCCCCCCCCCCCCCCw21122111222gg221CCCCCCCCCCCO%CCCCCCCCCCCCCCC",
"CCCCCCCCCCCCCCCCCC  -1122112222gg221CCCCCCCCCCC+@CCCCCCCCCCCCCCC",
"CCCCCCCCCCCCCCCCCC   122212222ggg2221CCCCCCCCCCooCCCCCCCCCCCCCCC",
"CCCCCCCCCCCCCCCCC    1221122g2gggg221CCCCCCCCCCCCCCCCCCCCCCCCCCC",
"CCCCCCCCCCCCCCCCC   #222122ggggggg221 CCCCCCCCCCCCCCCCCCCCCCCCCC",
"CCCCCCCCCCCCCCCCC   -22222gggggggg222 CCCCCCCCCCCCCCCCCCCCCCCCCC",
"CCCCCCCCCCCCCCCCCC  w2222gggggggggg22  CCCCCCCCCCCCCCCCCCCCCCCCC",
"CCCCCCCCCCCCCCCCCC  e222ggggggggggg2#  CCCCCCCCCCCCCCCCCCCCCCCCC",
"CCCCCCCCCCCCCCCCCC   we2gggggggggg2-   CCCCCCCCCCCCCCCCCCCCCCCCC",
"CCCCCCCCCCCCCCCCCCC   ue2ggggggggew    CCCCCCCCCCCCCCCCCCCCCCCCC",
"CCCCCCCCCCCCCCCCCCCC    ugggggg2u     CCCCCCCCCCCCCCCCCCCCCCCCCC",
"CCCCCCCCCCCCCCCCCCCCCC   ugggggu     CCCCCCCCCCCCCCCCCCCCCCCCCCC",
"CCCCCCCCCCCCCCCCCCCCCCCCCCuipiu   CCCCCCCCCCCCCCCCCCCCCCCCCCCCCC",
"CCCCCCCCCCCCCCCCCCCCCCCCCCCCCCCCCCCCCCCCCCCCCCCCCCCCCCCCCCCCCCCC",
"CCCCCCCCCCCCCCCCCCCCCCCCCCCCCCCCCCCCCCCCCCCCCCCCCCCCCCCCCCCCCCCC",
"CCCCCCCCCCCCCCCCCCCCCCCCCCCCCCCCCCCCCCCCCCCCCCCCCCCCCCCCCCCCCCCC",
"CCCCCCCCCCCCCCCCCCCCCCCCCCCCCCCCCCCCCCCCCCCCCCCCCCCCCCCCCCCCCCCC",
"CCCCCCCCCCCCCCCCCCCCCCCCCCCCCCCCCCCCCCCCCCCCCCCCCCCCCCCCCCCCCCCC",
"CCCCCCCCCCCCCCCCCCCCCCCCCCCCCCCCCCCCCCCCCCCCCCCCCCCCCCCCCCCCCCCC",
"CCCCCCCCCCCCCCCCCCCCCCCCCCCCCCCCCCCCCCCCCCCCCCCCCCCCCCCCCCCCCCCC",
"CCCCCCCCCCCCCCCCCCCCCCCCCCCCCCCCCCCCCCCCCCCCCCCCCCCCCCCCCCCCCCCC",
"CCCCCCCCCCCCCCCCCCCCCCCCCCCCCCCCCCCCCCCCCCCCCCCCCCCCCCCCCCCCCCCC",
"CCCCCCCCCCCCCCCCCCCCCCCCCCCCCCCCCCCCCCCCCCCCCCCCCCCCCCCCCCCCCCCC",
"CCCCCCCCCCCCCCCCCCCCCCCCCCCCCCCCCCCCCCCCCCCCCCCCCCCCCCCCCCCCCCCC",
"CCCCCCCCCCCCCCCCCCCCCCCCCCCCCCCCCCCCCCCCCCCCCCCCCCCCCCCCCCCCCCCC"
};
