/* XPM */
static char *result[] = {
/* columns rows colors chars-per-pixel */
"64 64 194 2 ",
"   c #4577B8",
".  c #4988BA",
"X  c #5A8FB7",
"o  c #5C88BC",
"O  c #6595BF",
"+  c #779CBD",
"@  c #7AA2BE",
"#  c #79B0BF",
"$  c #3D91D1",
"%  c #4183C2",
"&  c #5186C5",
"*  c #5F99CB",
"=  c #5491C3",
"-  c #5598D1",
";  c #5C9ED0",
":  c #6696C7",
">  c #629ECD",
",  c #779DC5",
"<  c #7695CB",
"1  c #6498DD",
"2  c #57A3D5",
"3  c #61A8C7",
"4  c #6EADCF",
"5  c #6CA8C4",
"6  c #70ABC1",
"7  c #7DACC6",
"8  c #77A8C7",
"9  c #69B0CA",
"0  c #79B5C9",
"q  c #69A7D2",
"w  c #6AAADF",
"e  c #62AADD",
"r  c #72AEDD",
"t  c #6BB4DB",
"y  c #79BBDA",
"u  c #5EB6EC",
"i  c #68ACE6",
"p  c #6FB8E5",
"a  c #78BAE5",
"s  c #70BBEF",
"d  c #76BEE3",
"f  c #70C2CC",
"g  c #69CBD6",
"h  c #73C8D0",
"j  c #78CAD5",
"k  c #7FCDDB",
"l  c #75D0DD",
"z  c #6FC5EB",
"x  c #7EC0EC",
"c  c #71C8E9",
"v  c #78C7E9",
"b  c #67D8E0",
"n  c #6DDEE6",
"m  c #6BC1F4",
"M  c #79C7F8",
"N  c #5DFBFE",
"B  c #6CEAEF",
"V  c #79E0E7",
"C  c #76E1E8",
"Z  c #7EE8EB",
"A  c #69EDF1",
"S  c #76EFF2",
"D  c #63F3F5",
"F  c #6BF3F3",
"G  c #61F6FA",
"H  c #6AF7F9",
"J  c #63FBFE",
"K  c #6BFCFE",
"L  c #74FBFC",
"P  c #7BFDFE",
"I  c #74F5F6",
"U  c #9DADB6",
"Y  c #87AEC5",
"T  c #80A6CE",
"R  c #83AFCC",
"E  c #91ACC3",
"W  c #87B1C8",
"Q  c #9FB8C7",
"!  c #80B7D6",
"~  c #8FB5D0",
"^  c #84BFD1",
"/  c #8CB6DE",
"(  c #82BCD9",
")  c #87B4DD",
"_  c #AFBCC0",
"`  c #8FBAE7",
"'  c #84BAE8",
"]  c #96BFE6",
"[  c #9EC4CF",
"{  c #8BC4D1",
"}  c #8EC9D6",
"|  c #87CDDE",
" . c #87C2D2",
".. c #9AC0D1",
"X. c #90C9DD",
"o. c #9FD1D9",
"O. c #ABCFDB",
"+. c #A6D3DD",
"@. c #B3D3DD",
"#. c #80C5ED",
"$. c #87DAE4",
"%. c #9BDDE4",
"&. c #94DAE9",
"*. c #9CDDEA",
"=. c #98D4E7",
"-. c #94C8F0",
";. c #84DAF4",
":. c #91D7F8",
">. c #93D8FF",
",. c #9ADFF9",
"<. c #96D2F6",
"1. c #AACBE4",
"2. c #A4D3ED",
"3. c #ACDBE1",
"4. c #BBDCE3",
"5. c #B5DCE8",
"6. c #A3DBF2",
"7. c #ACDBFD",
"8. c #B3DDF2",
"9. c #80EBEF",
"0. c #88E3EC",
"q. c #97E9EC",
"w. c #9DE2E2",
"e. c #99E7F5",
"r. c #87F7F9",
"t. c #8AF7F9",
"y. c #83FCFE",
"u. c #8BFDFE",
"i. c #93F7F8",
"p. c #98F7F8",
"a. c #92FDFE",
"s. c #9CFDFD",
"d. c #98F1F3",
"f. c #B1E5EE",
"g. c #BCE5EC",
"h. c #B6E9EE",
"j. c #BCEBED",
"k. c #BCE4E6",
"l. c #A4E4F5",
"z. c #A4EBF4",
"x. c #A2E3FE",
"c. c #A6E8FF",
"v. c #ABE9FF",
"b. c #AAE4F8",
"n. c #BAE1F2",
"m. c #BCEFFF",
"M. c #B4E4F7",
"N. c #A8F6F8",
"B. c #A5FEFE",
"V. c #ACFEFE",
"C. c #A3F0FA",
"Z. c #B5F4F9",
"A. c #B3FCFD",
"S. c #BAFEFF",
"D. c #C7DADB",
"F. c #D0DEE2",
"G. c #C9E1E7",
"H. c #C5E2EA",
"J. c #C8E3E9",
"K. c #C3EBEC",
"L. c #CEEBED",
"P. c #D3E9ED",
"I. c #CCF0EF",
"U. c #CCE6F4",
"Y. c #CDEBF4",
"T. c #C8EEFF",
"R. c #C5E4F7",
"E. c #D5EDF3",
"W. c #DBECF1",
"Q. c #D7E7F8",
"!. c #C2F2F4",
"~. c #CEF3F4",
"^. c #C3F5FC",
"/. c #CBF5FA",
"(. c #C4FDFE",
"). c #CEFBFD",
"_. c #D3F2F3",
"`. c #DCF4F4",
"'. c #D4F4FA",
"]. c #DCF5FD",
"[. c #D3FDFF",
"{. c #DBFBFC",
"}. c #E5ECED",
"|. c #E2EEF3",
" X c #E4F3F5",
".X c #E9F5F5",
"XX c #E8F8F7",
"oX c #E3F4FB",
"OX c #ECF7FB",
"+X c #E4FCFD",
"@X c #ECFCFD",
"#X c #F4FCFC",
"$X c #FCFEFE",
"%X c None",
/* pixels */
"%X%X%X%X%X%X%X%X%X%X%X%X%X%X%X%X%X%X%X%X%X%X%X%X%X%X%X%X%X%X%X%X%X%X%X%X%X%X%X%X%X%X%X%X%X%X%X%X%X%X%X%X%X%X%X%X%X%X%X%X%X%X%X%X",
"%X%X%X%X%X%X%X%X%X%X%X%X%X%X%X%X%X%X%X%X%X%X%X%X%X%X%X%X%X%X%X%X%X%X%X%X%X%X%X%X%X%X%X%X%X%X%X%X%X%X%X%X%X%X%X%X%X%X%X%X%X%X%X%X",
"%X%X%X%X%X%X%X%X%X%X%X%X%X%X%X%X%X%X%X%X%X%X%X%X%X%X%X%X%X%X%X%X%X%X%X%X%X%X%X%X%X%X%X%X%X%X%X%X%X%X%X%X%X%X%X%X%X%X%X%X%X%X%X%X",
"%X%X%X%X%X%X%X%X%X%X%X%X%X%X%X%X%X%X%X%X%X%X%X%X%X%X%X%X%X%X%X%X%X%X%X%X%X%X%X%X%X%X%X%X%X%X%X%X%X%X%X%X%X%X%X%X%X%X%X%X%X%X%X%X",
"%X%X%X%X%X%X%X%X%X%X%X%X%X%X%X%X%X%X%X%X%X%X%X%X%X%X%X%X%X%X%X%X%X%X%X%X%X%X%X%X%X%X%X%X%X%X%X%X%X%X%X%X%X%X%X%X%X%X%X%X%X%X%X%X",
"%X%X%X%X%X%X%X%X%X%X%X%X%X%X%X%X%X%X%X%X%X%X%X%X%X%X%X%X%X%X%X%X%X%X%X%X%X%X%X%X%X%X%X%X%X%X%X%X%X%X%X%X%X%X%X%X%X%X%X%X%X%X%X%X",
"%X%X%X%X%X%X%X%X%X%X%X%X%X%X%X%X%X%X%X%X%X%X%X%X%X%X%X%X%X%X%X%X%X%X%X%X%X%X%X%X%X%X%X%X%X%X%X%X%X%X%X%X%X%X%X%X%X%X%X%X%X%X%X%X",
"%X%X%X%X%X%X%X%X%X%X%X%X%X%X%X%X%X%X%X%X%X%X%X%X%X%X%X%X%X%X%X%X%X%X%X%X%X%X%X%X%X%X%X%X%X%X%X%X%X%X%X%X%X%X%X%X%X%X%X%X%X%X%X%X",
"%X%X%X%X%X%X%X%X%X%X%X%X%X%X%X%X%X%X%X%X%X%X%X%X%X%X%X%X%X%X%X%X%X%X%X%X%X%X%X%X%X%X%X%X%X%X%X%X%X%X%X%X%X%X%X%X%X%X%X%X%X%X%X%X",
"%X%X%X%X%X%X%X%X%X%X%X%X%X%X%X%X%X%X%X%X%X%X%X%X%X%X%X%X%X%X%X%X%X%X%X%X%X%X%X%X%X%X%X%X%X%X%X%X%X%X%X%X%X%X%X%X%X%X%X%X%X%X%X%X",
"%X%X%X%X%X%X%X%X%X%X%X%X%X%X%X%X%X%X%X%X%X%X%X%X%X%X%X%X%X%X%X%X%X%X%X%X%X%X%X%X%X%X%X%X%X%X%X%X%X%X%X%X%X%X%X%X%X%X%X%X%X%X%X%X",
"%X%X%X%X%X%X%X%X%X%X%X%X%X%X%X%X%X%X%X%X%X%X%X%X%X%X%X%X%X%X%X%X%X%X%X%X%X%X%X%X%X%X%X%X%X%X%X%X%X%X%X%X%X%X%X%X%X%X%X%X%X%X%X%X",
"%X%X%X%X%X%X%X%X%X%X%X%X%X%X%X%X%X%X%X%X%X%X%X%X%X%X%X%X%X%X%X%X%X%X%X%X%X%X%X%X%X%X%X%X%X%X%X%X%X%X%X%X%X%X%X%X%X%X%X%X%X%X%X%X",
"%X%X%X%X%X%X%X%X%X%X%X%X%X%X%X%X%X%X%X%X%X%X%X%X%X%X%X%X%X%X%X%X%X%X%X%X%X%X%X%X%X%X%X%X%X%X%X%X%X%X%X%X%X%X%X%X%X%X%X%X%X%X%X%X",
"%X%X%X%X%X%X%X%X%X%X%X%X%X%X%X%X%X%X%X%X%X%X%X%X%X%X%X%X%X%X%X%X%X%X%X%X%X%X%X%X%X%X%X%X%X%X%X%X%X%X%X%X%X%X%X%X%X%X%X%X%X%X%X%X",
"%X%X%X%X%X%X%X%X%X%X%X%X%X%X%X%X%X%X%X%X%X%X%X%X%X%X%X%X%X%X%X%X%X%X%X%X%X%X%X%X%X%X%X%X%X%X%X%X%X%X%X%X%X%X%X%X%X%X%X%X%X%X%X%X",
"%X%X%X%X%X%X%X%X%X%X%X%X%X%X%X%X%X%X%X%X%X%X%X%X%X%X%X%X%X%X%X%X%X%X%X%X%X%X%X%X%X%X%X%X%X%X%X%X%X%X%X%X%X%X%X%X%X%X%X%X%X%X%X%X",
"%X%X%X%X%X%X%X%X%X%X%X%X%X%X%X%X%X%X%X%X%X%X%X%X%X%X%X%X%X%X%X%X%X%X%X%X%X%X%X%X%X%X%X%X%X%X%X%X%X%X%X%X%X%X%X%X%X%X%X%X%X%X%X%X",
"%X%X%X%X%X%X%X%X%X%X%X%X%X%X%X%X%X%X%X%X%X%X%X%X%X%X%X%X%X%X%X%X%X%X%X%X%X%X%X%X%X%X%X%X%X%X%X%X%X%X%X%X%X%X%X%X%X%X%X%X%X%X%X%X",
"%X%X%X%X%X%X%X%X%X%X%X%X%X%X%X%X%X%X%X%X%X%X%X%X%X%X%X%X%X%X%X%X%X%X%X%X%X%X%X%X%X%X%X%X%X%X%X%X%X%X%X%X%X%X%X%X%X%X%X%X%X%X%X%X",
"%X%X%X%X%X%X%X%X%X%X%X%X%X%X%X%X%X%X%X%X%X%X%X%X%X%X%X%X%X%X%X%X%X%X%X%X%X%X%X%X%X%X%X%X%X%X%X%X%X%X%X%X%X%X%X%X%X%X%X%X%X%X%X%X",
"%X%X%X%X%X%X%X%X%X%X%X%X%X%X%X%X%X%X%X%X%X%X%X%X%X%X%X%X%X%X%X%X%X%X%X%X%X%X%X%X%X%X%X%X%X%X%X%X%X%X%X%X%X%X%X%X%X%X%X%X%X%X%X%X",
"%X%X%X%X%X%X%X%X%X%X%X%X%X%X%X%X%X%X%X%X%X%X%X%X%X%X%X%X%X%X%X@.G.%X%X%X%X%X%X%X%X%X%X%X%X%X%X%X%X%X%X%X%X%X%X%X%X%X%X%X%X%X%X%X",
"%X%X%X%X%X%X%X%X%X%X%X%X%X%X%X%X%X%X%X%X%X%X%X%X%X%X%X%X%X%X%X#X#X%X%X%X%X%X%X%X%X%X%X%X%X%X%X%X%X%X%X%X%X%X%X%X%X%X%X%X%X%X%X%X",
"%X%X%X%X%X%X%X%X%X%X%X%X%X%X%X%X%X%X%X%X%X%X%X%X%X%X%X%X%X%X`.$X$XP.%X%X%X%X%X%X%X%X%X%X%X%X%X%X%X%X%X%X%X%X%X%X%X%X%X%X%X%X%X%X",
"%X%X%X%X%X%X%X%X%X%X%X%X%X%X%X%X%X%X%X%X%X%X%X%X%X%X%X%X%X%X4.#X$X#X%X%X%X%X%X%X%X%X%X%X%X%X%X%X%X%X%X%X%X%X%X%X%X%X%X%X%X%X%X%X",
"%X%X%X%X%X%X%X%X%X%X%X%X%X%X%X%X%X%X%X%X%X%X%X%X%X%X%X%X%XW.#X$X$X#XU %X%X%X%X%X%X%X%X%X%X%X%X%X%X%X%X%X%X%X%X%X%X%X%X%X%X%X%X%X",
"%X%X%X%X%X%X%X%X%X%X%X%X%X%X%X%X%X%X%X%X%X%X%X%X%X%X%X%X@.#X#X#X#X$X.X%X%X%X%X%X%X%X%X%X%X%X%X%X%X%X%X%X%X%X%X%X%X%X%X%X%X%X%X%X",
"%X%X%X%X%X%X%X%X%X%X%X%X%X%X%X%X%X%X%X%X%X%X%X%X%X%X%XJ.#X$X$X$X#X$X@..X%X%X%X%X%X%X%X%X%X%X%X%X%X%X%X%X%X%X%X%X%X%X%X%X%X%X%X%X",
"%X%X%X%X%X%X%X%X%X%X%X%X%X%X%X%X%X%X%X%X%X%X%X%X%X%XP.#X.X#X$X#X$X$X#XE W.%X%X%X%X%X%X%X%X%X%X%X%X%X%X%X%X%X%X%X%X%X%X%X%X%X%X%X",
"%X%X%X%X%X%X%X%X%X%X%X%X%X%X%X%X%X%X%X%X%X%X%X%X%XH.`.Y XXI.#X#X#X$X#X#X%XJ.%X%X%X%X%X%X%X%X%X%X%X%X%X%X%X%X%X%X%X%X%X%X%X%X%X%X",
"%X%X%X%X%X%X%X%X%X%X%X%X%X%X%X%X%X%XK P s.P %X%XL.O.%X3.@  XK.#X$X$X#X@XXX%X@.%X%X%X%X%X%X%X%X%X%X%X%X%X%X%X%X%X%X%X%X%X%X%X%X%X",
"%X%X%X%X%X%X%X%X%X%X%X%X%X%X%X%X%X%X%XK (.[.s.Y.k %X@ %Xk.L.k.#X$X#X XXX XJ.%XY %X%X%X%X%X%X%X%X%X%X%X%X%X%X%X%X%X%X%X%X%X%X%X%X",
"%X%X%X%X%X%X%X%X%X%X%X%X%X%X%X%X%X%X%X%XJ B.@XV.H %X%Xo.`.{ _.$X#X#X.X.X..#X_ %X%X%X%X%X%X%X%X%X%X%X%X%X%X%X%X%X%X%X%X%X%X%X%X%X",
"%X%X%XK %X%X%X%X%X%X%X%X%X%X%X%X%X%X%X%X%XC y.s.u.%X} `.@ w.K.$X$X$X#XO. XJ.@X%X%X%X%X%X%X%X%X%X%X%X%X%X%X%X%X%X%X%X%X%X%X%X%X%X",
"%X%X%XL J %X%X%X%X%X%X%X%X%X%X%X%X%X%X%X%X%X%X%XB %.~.7 + w.XX#X$X#X#XU #XR #XP.%X%X%X%X%X%X%X%X%X%X%X%X%X%X%X%X%X%X%X%X%X%X%X%X",
"%X%X%XL u.J %X%X%X%X%X%X%X%X%X%X%X%X%X%X%X%X%X%X ./.X.o &./.#X$X$X$X#XH.E.].E.$X^.s.a.P %X%X%X%X%X%X%X%X%X%X%X%X%X%X%X%X%X%X%X%X",
"%X%X%X%Xu.u.%X%X%X%X%X%X%X%X%X%X%XG %X%X%X%X%X^ !.H.q {./.+X#X@X$X#X'.@X> OXz $X$X(.S.B.P %X%X%X%X%X%XN %X%X%X%X%X%X%X%X%X%X%X%X",
"%X%X%X%XN P J %X%X%X%X%X%X%X%X%X%X%XP K b j =.j.%.%X* m.z.h.'.'.$X#X@X^.t v c.'.$X_.K J N %X%X%X%X%XJ P %X%X%X%XN %X%X%X%X%X%X%X",
"%X%X%X%X%X%X%X%X%X%X%X%X%X%X%X%X%X%XK a.d.&.*.( ( %Xj +Xz.y <.U.$X$X$X/.@Xc 6.m.$X#X%X%X%X%X%X%X%X%XP P %X%X%XN N %X%X%X%X%X%X%X",
"%X%X%X%X%X%X%X%X%X%X%X%X%X%X%X%X%X%X%XP a.0.0 : = p Z.#X;.c.i oX$X$X#X#X$Xl.& ].@X$Xk.%X%X%X%X%X%XK P %X%X%X%XN %X%X%X%X%X%X%X%X",
"%X%X%X%X%X%X%X%X%X%X%X%X%X%X%X%X%X%X%X%XZ V %XX f.).u v ).(.s $X$X$XZ.(.$X[.  o R #X#X%X%X%X%X%X%XJ %X%X%X%X%XN %X%X%X%X%X%X%X%X",
"%X%X%X%X%X%X%X%X%X%X%X%X%X%X%X%X%X%X%X%Xg %X%X. {.m.M ' #X+X#X$X$X$Xe.C.$Xv.2.%X%X7 #X^ %X%X%X%X%X%X%X%X%X%X%X%X%X%X%X%X%X%X%X%X",
"%X%X%X%X%X%X%X%X%X%X%X%X%X%X%X%X%X%X%X%X%X%X%Xn.[.#Xv.8.#X+Xl.$X$X$X{.;.$Xv.e.: %X%X+.H.%X%X%X%X%X%X%X%X%X%X%X%X%X%X%X%X%X%X%X%X",
"%X%X%X%X%X%X%X%X%X%X%X%X%X%X%X%X%X%X%X%X%X5 |.@Xb.{.#.@X$X)./.$X$X$XU.,.'.i c.+X3 %X%X X$.k %X%X%X%X%X%X%X%X%X%X%X%X%X%X%X%X%X%X",
"%X%X%X%X%X%X%X%X%X%X%X%X%X%X%X%X%X%X%X%X%X# $X@X% `.c $X8.#XoX@X$X#X`.` e.$ ^.#Xn.%X%XN./.0.%X%X%X%X%X%X%X%X%X%X%X%X%X%X%X%X%X%X",
"%X%X%X%X%X%XN %X%X%X%X%X%X%X%X%X%X%X%X%X%X}.$X7 %X4 e |.* #Xi $X$X$X#.1 +Xr - #XOX%X%XI [.Z.S D %X%X%X%X%X%X%XJ N %X%X%X%X%X%X%X",
"%X%X%X%X%X%X%XN %X%X%X%X%X%X%X%X%XH a.a.u.Y.f %X%X%X| y -.M.b.$X$X$X:.c.$X@X2 4 $Xl %X%Xi.{.s.F %X%X%X%X%X%XL a.a.J %X%X%X%X%X%X",
"%X%X%X%X%X%X%X%X%X%X%X%X%X%X%X%XD P (.{.S.a.%X6 %X%X%X4 U.m {.$X$X$X#X{.$X$Xa 3 Z q.h %XD i.p.B %X%X%X%X%X%X%XJ J %X%X%X%X%X%X%X",
"%X%X%X%X%X%X%X%X%X%X%X%X%X%XJ %X%X%XG J J %X%X%X%X%X%X%X6.>.{.$X$X$X$X+X+X$Xn.%X%XL %X%X%X%Xg %X%X%X%X%X%X%X%X%X%X%X%X%X%X%X%X%X",
"%X%X%X%X%X%X%X%X%X%X%X%X%X%XH %X%X%X%X%X%X%X%X%X%X%X%X%X<.7.@X$X$X$X$X#X/.oXE.%X%XK G %X%X%X%X%X%X%X%X%X%X%X%X%X%X%X%X%X%X%X%X%X",
"%X%X%X%X%X%X%X%X%X%X%X%X%X%XN %X%X%X%X%X%X%X%X%X%X%X0 OX7.-.@X$X$X$X$X$X).$XU.%X%X%XJ %X%X%X%X%X%X%X%X%X%X%X%X%X%X%X%X%X%X%X%X%X",
"%X%X%X%X%X%X%X%X%X%X%X%X%X%X%X%X%X%X%X%X%X%X%X%X%X%XH.#X) ' @X$X$X$X$X$XXX#X2.%X%X%XJ %X%X%X%X%X%X%X%X%X%X%X%X%X%X%X%X%X%XN %X%X",
"%X%X%X%X%X%X%X%X%X%XN K K K K J %X%X%X%X%X%X%X%X%X%X#XE.%X1.$X$X$X@X+X$X@XT.].%X%X%X%X%X%X%X%X%X%XF H %X%X%X%X%X%X%X%X%XL %X%X%X",
"%X%X%X%X%X%X%X%XJ a.[.[.S.P %X%X%X%X%X%X%X%X%X%X%X%X%X%X%XW.Q.OX@X+X#X$X$X7.#X[ %X%X%X%X%X%X%X%X%Xu.L %X%X%X%X%X%X%X%X%X%X%X%X%X",
"%X%X%X%X%X%X%XJ J y.V.s.K %X%X%X%X%X%X%X%X%X%X%X%X%X%X%X%X.Xw '.'.@XU.R.$Xy H..X%X%X%XN J N %X%X%Xy.F %X%X%X%X%X%X%X%X%X%X%X%X%X",
"%X%X%X%X%X%X%X%XN %X%X%X%X%X%X%X%X%X%X%X%X%X%X%X%X%X%X%X%X, ( 2.M.R.T : #XO.%XD.%X%X%X%X%X%X%X%X%XP %X%X%X%X%X%X%X%X%X%X%X%X%X%X",
"%X%X%X%X%X%X%X%X%XN %X%X%X%X%X%X%X%X%X%X%X%XK P J %X%X%X%X%X%X/ 8.< %X%XU F.%X%X%X%X%X%X%X%X%X%X%X%X%X%X%X%X%X%X%X%X%X%X%X%X%X%X",
"%X%X%X%X%X%X%X%X%X%X%X%X%X%X%X%X%X%X%X%X%X%X%Xa.V.J %X%X%X%X%X/ 2.%X%X%X%X_ %X%X%X%X%X%X%X%X%X%X%X%X%X%X%X%X%X%X%X%X%X%X%X%X%X%X",
"%X%X%XJ %X%X%X%X%X%X%X%X%X%X%X%X%X%X%X%X%X%X%XK V.B.%X%X%X%X%X*.=.%X%X%X%X%X%X%X%X%X%X%X%X%X%X%X%X%X%X%X%X%X%X%X%X%X%X%X%X%X%X%X",
"%X%Xu.P %X%X%X%X%X%X%X%X%X%X%X%X%X%X%X%X%X%X%X%XK V.y.%X%X%XA /.!.n %X%X%X%X%X%X%X%X%X%X%X%X%X%X%X%X%X%X%X%X%X%X%X%X%XN %X%X%X%X",
"%XK A.P %X%X%X%X%X%X%X%X%X%X%X%X%X%X%X%X%X%X%X%X%XN u.N %X%Xy.#X#XS %X%XH y.y.%X%X%X%X%X%X%XK %X%X%X%X%X%X%X%X%X%X%X%XJ %X%X%X%X",
"%Xu.S.K %X%X%X%X%X%X%X%X%X%X%X%X%X%X%X%X%X%X%X%X%X%X%XP %X%Xu.$X$Xr.I P H %X%X%X%X%X%X%X%XN y.%X%X%X%X%X%X%X%X%X%X%X%XN %X%X%X%X",
"%Xy.u.J %X%X%X%X%X%X%X%X%X%X%X%X%X%X%X%X%X%X%X%X%X%X%X%XK %XL @X#Xr.L %X%X%X%X%X%X%X%X%X%XJ y.%X%X%X%X%X%X%X%X%X%X%X%X%X%X%X%X%X"
};
