/* XPM */
static char *result[] = {
/* columns rows colors chars-per-pixel */
"64 64 61 1 ",
"  c black",
". c #180000",
"X c gray11",
"o c #241400",
"O c #2C1800",
"+ c #342000",
"@ c #3C2404",
"# c #282828",
"$ c #482C04",
"% c #5C3000",
"& c #503008",
"* c #58380C",
"= c #603810",
"- c #443434",
"; c #684000",
": c #785004",
"> c #684014",
", c #6C4C18",
"< c #744C1C",
"1 c #7C5820",
"2 c #000440",
"3 c #00044C",
"4 c #001474",
"5 c #002870",
"6 c #043478",
"7 c #304858",
"8 c gray25",
"9 c #4C4C4C",
"0 c #544440",
"q c #685450",
"w c #646464",
"e c #6C6C6C",
"r c gray47",
"t c #886408",
"y c #98780C",
"u c #886428",
"i c #907030",
"p c #9C7C3C",
"a c #A88C10",
"s c #BCA414",
"d c #D0C01C",
"f c #F4E020",
"g c #A88448",
"h c #B49054",
"j c #CCA874",
"k c #0428A0",
"l c #0C4084",
"z c #185090",
"x c #3470A4",
"c c #0C48CC",
"v c #4480B0",
"b c #848484",
"n c #909090",
"m c gray61",
"M c gray66",
"N c #B4B4B4",
"B c #E8C498",
"V c #D4C4B4",
"C c #C0C0C0",
"Z c #D8D8D8",
"A c None",
/* pixels */
"AAAAAAAAAAAAAAAAAAAAAAAAAAAAAAAAAAAAAAAAAAAAAAAAAAAAAAAAAAAAAAAA",
"AAAAAAAAAAAAAAAAAAAAAAAAAAAAAAAAAAAAAAAAAAAAAAAAAAAAAAAAAAAAAAAA",
"AAAAAAAAAAAAAAAAAAAAAAAAAAAAAAAAAAAAAAAAAAAAAAAAAAAAAAAAAAAAAAAA",
"AAAAAAAAAAAAAAAAAAAAAAAAAAAAAAAAAAAAAAAAAAAAAAAAAAAAAAAAAAAAAAAA",
"AAAAAAAAAAAAAAAAAAAAAAAAAAAAAAAAAAAAAAAAAAAAAAAAAAAAAAAAAAAAAAAA",
"AAAAAAAAAAAAAAAAAAAAAAAAAAAAAAAAAAAAAAAAAAAAAAAAAAAAAAAAAAAAAAAA",
"AAAAAAAAAAAAAAAAAAAAAAAAAAAAAAAAAAAAAAAAAAAAAAAAAAAAAAAAAAAAAAAA",
"AAAAAAAAAAAAAAAAAAAAAAAAAAAAAAAAAAAAAAAAAAAAAAAAAAAAAAAAAAAAAAAA",
"AAAAAAAAAAAAAAAAAAAAAAAAAAAAAAAAAAAAAAAAAAAAAAAAAAAAAAAAAAAAAAAA",
"AAAAAAAAAAAAAAAAAAAAAAAAAAAAAAAAAAAAAAAAAAAAAAAAAAAAAAAAAAAAAAAA",
"AAAAAAAAAAAAAAAAAAAAAAAAAAAAAAAAAAAAAAAAAAAAAAAAAAAAAAAAAAAAAAAA",
"AAAAAAAAAAAAAAAAAAAAAAAAAAAAAAAAAAAAAAAAAAAAAAAAAAAAAAAAAAAAAAAA",
"AAAAAAAAAAAAAAAAAAAAAAAAAAAAAAAAAAAAAAAAAAAAAAAAAAAAAAAAAAAAAAAA",
"AAAAAAAAAAAAAAAAAAAAAAAAAAAAAAAAAAAAAAAAAAAAAAAAAAAAAAAAAAAAAAAA",
"AAAAAAAAAAAAAAAAAAAAAAAAAAAAAAAAAAAAAAAAAAAAAAAAAAAAAAAAAAAAAAAA",
"AAAAAAAAAAAAAAAAAAAAAAAAAAAAAAAAAAAAAAAAAAAAAAAAAA333AAAAAAAAAAA",
"AAAAAAAAAAAAAAAAAAAAAAAAAAAAAAAAAAAAAAAAAAAAAAAAA.o+o3AAAAAAAAAA",
"AAAAAAAAAAAAAAAAAAAAAAAAAAAAAAAAAAAAAAAAAAAAAA33O+@@@O3AAAAAAAAA",
"AAAAAAAAAAAAAAAAAAAAAAAAAAAAAAAAAAAAAAAwmCr3334O=<>**$OAAAAAAAAA",
"AAAAAAAAAAAAAAAAAAAAAAAAAAAAAAAAAAAAAAwmrmnkk4k4ijg1<*O3AAAAAAAA",
"AAAAAAAAAAAAAAAAAAAAAAAAAAAAAAAAAAAAAArmCZCrck4>pgh1>=O3AAAAAAAA",
"AAAAAAAAAAAAAAAAAAAAAAAAAAAAAAAAAAAAAAXrMeZmck=i%<%,i$@3AAAAAAAA",
"AAAAAAAAAAAAAAAAAAAAAAAAAAAAAAAAAAAAA0hjrCZCk4$$oui>$o33AAAAAAAA",
"AAAAAAAAAAAAAAAAAAAAAAAAAAAAAAAAAAAA-hg-AbrCrO%O;o%34kk4AAAAAAAA",
"AAAAAAAAAAAAAAAAAAAAAAAAAAAAAAAAAAAA-q-AAAbre@:$O:o4kck43AAAAAAA",
"AAAAAAAAAAAAAAAAAAAAAAAAAAAAAAAAA6xv6AAAAAAeA@:%+>kk44443AAAAAAA",
"AAAAAAAAAAAAAAAAAAAAAAAAAAAAAAAAl6226vAzAAAAA@,%@kk4kk433AAAAAAA",
"AAAAAAAAAAAAAAAAAAAAAAAAAAAAAAAA52  2xzAAAAAA$;@@k4kkck43AAAAAAA",
"AAAAAAAAAAAAAAAAAAAAAAAAAAAAAAAvx6226lzAAAAAA@$o344kcck43AAAAAAA",
"AAAAAAAAAAAAAAAAAAAAAAAAAAAAAAAAAx55zs;AAAAAA@O3443kcck43333AAAA",
"AAAAAAAAAAAAAAAAAAAAAAAAAAAAAAAAAAAoyfyOAAAAAA334434kck433333AAA",
"AAAAAAAAAAAAAAAAAAAAAAAAAAAAAAAAAAAAosf:AAAAAA334434kckk33333.AA",
"AAAAAAAAAAAAAAAAAAAAAAAAAAAAAAAAAAAAA:sa+AAAAA33343kkk443333&OAA",
"AAAAAAAAAAAAAAAAAAAAAAAAAAAAAAAAAAAAAA:y&AAAAA343344kkk4333y=OAA",
"AAAAAAAAAAAAAAAAAAAAAAAAAAAAAAAAAAAAAAAo@OAAAA3333k4kck4333&$@oA",
"AAAAAAAAAAAAAAAAAAAAAAAAAAAAAAAAAAAAAAAAO$.AAAbmbwkkcck3433@@$$o",
"AAAAAAAAAAAAAAAAAAAAAAAAAAAAAAAAAAAAAAAAA@@AA=m8Cn9ccc4343#$@OO.",
"AAAAAAAAAAAAAAAAAAAAAAAAAAAAAAAAAAAAAAAAAo$ujjjeNZNec434433     ",
"AAAAAAAAAAAAAAAAAAAAAAAAAAAAAAAAAAAAAAAAAA=iBBjNNZeme344433    A",
"AAAAAAAAAAAAAAAAAAAAAAAAAAAAAAAAAAAAAAAAAAujjgueNeZme3k4433   AA",
"AAAAAAAAAAAAAAAAAAAAAAAAAAAAAAAAAAAAAAAAAAA=uu-emVem34kk4433  AA",
"AAAAAAAAAAAAAAAAAAAAAAAAAAAAAAAAAAAAAAAA@$&*&$74m8Ze44kk4433 AAA",
"AAAAAAAAAAAAAAAAAAAAAAAAAAAAAAAAAAAAAAAA=>><>@-4mme34kkkk443AAAA",
"AAAAAAAAAAAAAAAAAAAAAAAAAAAAAAAAAAAAAAAAO=>*@7-emek44kkkk444:AAA",
"AAAAAAAAAAAAAAAAAAAAAAAAAAAAAAAAAAAAAAAAA  3347e7kk44kkkkk44:AAA",
"AAAAAAAAAAAAAAAAAAAAAAAAAAAAAAAAAAAAAAAAAA  333o@Ok44kkkkk44yAAA",
"AAAAAAAAAAAAAAAAAAAAAAAAAAAAAAAAAAAAAAAAAAA:y334O$kk44kkkk44aAAA",
"AAAAAAAAAAAAAAAAAAAAAAAAAAAAAAAAAAAAAAAAAAAA sd34@@k444kkkk4aAAA",
"AAAAAAAAAAAAAAAAAAAAAAAAAAAAAAAAAAAAAAAAAAAA   d3o$4444kkkk4yAAA",
"AAAAAAAAAAAAAAAAAAAAAAAAAAAAAAAAAAAAAAAAAAAAA   sdfdsa44444aAAAA",
"AAAAAAAAAAAAAAAAAAAAAAAAAAAAAAAAAAAAAAAAAAAAAAA       assatAAAAA",
"AAAAAAAAAAAAAAAAAAAAAAAAAAAAAAAAAAAAAAAAAAAAAAAAAA     AAAAAAAAA",
"AAAAAAAAAAAAAAAAAAAAAAAAAAAAAAAAAAAAAAAAAAAAAAAAAAAAAAAAAAAAAAAA",
"AAAAAAAAAAAAAAAAAAAAAAAAAAAAAAAAAAAAAAAAAAAAAAAAAAAAAAAAAAAAAAAA",
"AAAAAAAAAAAAAAAAAAAAAAAAAAAAAAAAAAAAAAAAAAAAAAAAAAAAAAAAAAAAAAAA",
"AAAAAAAAAAAAAAAAAAAAAAAAAAAAAAAAAAAAAAAAAAAAAAAAAAAAAAAAAAAAAAAA",
"AAAAAAAAAAAAAAAAAAAAAAAAAAAAAAAAAAAAAAAAAAAAAAAAAAAAAAAAAAAAAAAA",
"AAAAAAAAAAAAAAAAAAAAAAAAAAAAAAAAAAAAAAAAAAAAAAAAAAAAAAAAAAAAAAAA",
"AAAAAAAAAAAAAAAAAAAAAAAAAAAAAAAAAAAAAAAAAAAAAAAAAAAAAAAAAAAAAAAA",
"AAAAAAAAAAAAAAAAAAAAAAAAAAAAAAAAAAAAAAAAAAAAAAAAAAAAAAAAAAAAAAAA",
"AAAAAAAAAAAAAAAAAAAAAAAAAAAAAAAAAAAAAAAAAAAAAAAAAAAAAAAAAAAAAAAA",
"AAAAAAAAAAAAAAAAAAAAAAAAAAAAAAAAAAAAAAAAAAAAAAAAAAAAAAAAAAAAAAAA",
"AAAAAAAAAAAAAAAAAAAAAAAAAAAAAAAAAAAAAAAAAAAAAAAAAAAAAAAAAAAAAAAA",
"AAAAAAAAAAAAAAAAAAAAAAAAAAAAAAAAAAAAAAAAAAAAAAAAAAAAAAAAAAAAAAAA"
};
