/* XPM */
static char *result[] = {
/* columns rows colors chars-per-pixel */
"64 64 51 1 ",
"  c black",
". c #180000",
"X c gray8",
"o c #241400",
"O c #2C1800",
"+ c #342000",
"@ c #3C2404",
"# c #482C04",
"$ c #503008",
"% c #58380C",
"& c #603810",
"* c #443434",
"= c #684000",
"- c #785004",
"; c #644014",
": c #684014",
"> c #744C1C",
", c #78581C",
"< c #7C5820",
"1 c #000440",
"2 c #00044C",
"3 c #001474",
"4 c #002870",
"5 c #043478",
"6 c gray25",
"7 c #585858",
"8 c #646464",
"9 c #6C6C6C",
"0 c #886408",
"q c #98780C",
"w c #806024",
"e c #8C6C28",
"r c #907030",
"t c #947830",
"y c #A88C10",
"u c #BCA414",
"i c #A08438",
"p c #D0C01C",
"a c #A88448",
"s c #B4A048",
"d c #0428A0",
"f c #0C4084",
"g c #185090",
"h c #3470A4",
"j c #0C48CC",
"k c #4480B0",
"l c #848484",
"z c gray61",
"x c #B4B4B4",
"c c #D8D8D8",
"v c None",
/* pixels */
"vvvvvvvvvvvvvvvvvvvvvvvvvvvvvvvvvvvvvvvvvvvvvvvvvvvvvvvvvvvvvvvv",
"vvvvvvvvvvvvvvvvvvvvvvvvvvvvvvvvvvvvvvvvvvvvvvvvvvvvvvvvvvvvvvvv",
"vvvvvvvvvvvvvvvvvvvvvvvvvvvvvvvvvvvvvvvvvvvvvvvvvvvvvvvvvvvvvvvv",
"vvvvvvvvvvvvvvvvvvvvvvvvvvvvvvvvvvvvvvvvvvvvvvvvvvvvvvvvvvvvvvvv",
"vvvvvvvvvvvvvvvvvvvvvvvvvvvvvvvvvvvvvvvvvvvvvvvvvvvvvvvvvvvvvvvv",
"vvvvvvvvvvvvvvvvvvvvvvvvvvvvvvvvvvvvvvvvvvvvvvvvvvvvvvvvvvvvvvvv",
"vvvvvvvvvvvvvvvvvvvvvvvvvvvvvvvvvvvvvvvvvvvvvvvvvvvvvvvvvvvvvvvv",
"vvvvvvvvvvvvvvvvvvvvvvvvvvvvvvvvvvvvvvvvvvvvvvvvvvvvvvvvvvvvvvvv",
"vvvvvvvvvvvvvvvvvvvvvvvvvvvvvvvvvvvvvvvvvvvvvvvvvvvvvvvvvvvvvvvv",
"vvvvvvvvvvvvvvvvvvvvvvvvvvvvvvvvvvvvvvvvvvvvvvvvvvvvvvvvvvvvvvvv",
"vvvvvvvvvvvvvvvvvvvvvvvvvvvvvvvvvvvvvvvvvvvvvvvvvvvvvvvvvvvvvvvv",
"vvvvvvvvvvvvvvvvvvvvvvvvvvvvvvvvvvvvvvvvvvvvvvvvvvvvvvvvvvvvvvvv",
"vvvvvvvvvvvvvvvvvvvvvvvvvvvvvvvvvvvvvvvvvvvvvvvvvvvvvvvvvvvvvvvv",
"vvvvvvvvvvvvvvvvvvvvvvvvvvvvvvvvvvvvvvvvvvvvvvvvvvvvvvvvvvvvvvvv",
"vvvvvvvvvvvvvvvvvvvvvvvvvvvvvvvvvvvvvvvvv5kh5vvvvvvvvvvvvvvvvvvv",
"vvvvvvvvvvvvvvvvvvvvvvvvvvvvvvvvvvvvvvgvk5115fvvvvvvvvvvvvvvvvvv",
"vvvvvvvvvvvvvvvvvvvvvvvvvvvvvvvvvvvvvvvgh1  14vvvvvvvvvvvvvvvvvv",
"vvvvvvvvvvvvvvvvvvvvvvvvvvvvvvvvvvvvvvvgf5115hkvvvvvvvvvvvvvvvvv",
"vvvvvvvvvvvvvvvvvvvvvvvvvvvvvvvvvvvvvvvvvg44hvvvvvvvvvvvvvvvvvvv",
"vvvvvvvvvvvvvvvvvvvvvvvvvvvvvvvvvvvvvvvvv0ss@vvvvvvvvvvvvvvvvvvv",
"vvvvvvvvvvvvvvvvvvvvvvvvvvvvvvvvvvvvvvvvv-puvvvvvvvvvvvvvvvvvvvv",
"vvvvvvvvvvvvvvvvvvvvvvvvvvvvvvvvvvvvvvvvv-puvvvvvvvvvvvvvvvvvvvv",
"vvvvvvvvvvvvvvvvvvvvvvvvvvvvvvvvvvvvvvvvv=pyvvvvvvvvvvvvvvvvvvvv",
"vvvvvvvvvvvvvvvvvvvvvvvvvvvvvvvvvvvvvvvvv=pqvvvvvvvvvvvvvvvvvvvv",
"vvvvvvvvvvvvvvvvvvvvvvvvvvvvvvvvvvvvvvvvv=uqvvvvvvvvvvvvvvvvvvvv",
"vvvvvvvvvvvvvvvvvvvvvvvvvvvvvvvvvvvvvvvvv#u-vvvvvvvvvvvvvvvvvvvv",
"vvvvvvvvvvvvvvvvvvvvvvvvvvvvvvvvvvvvvvvvvoq@vvvvvvvvvvvvvvvvvvvv",
"vvvvvvvvvvvvvvvvvvvvvvvvvvvvvvvvvvvvvvvvvo$ovvvvvvvvvvvvvvvvvvvv",
"vvvvvvvvvvvvvvvvvvvvvvvvvvvvvvvvvvvvvvvvvo$ovvvvvvvvvvvvvvvvvvvv",
"vvvvvvvvvvvvvvvvvvvvvvvvvvvvvvvvvvvvvvvvvo$ovvvvvvvvvvvvvvvvvvvv",
"vvvvvvvvvvvvvvvvvvvvvvvvvvvvvO+ovvvvvvvvvo$ovvvvvvvvvvvvvvvvvvvv",
"vvvvvvvvvvvvvvvvvvvvvvvvvvvv+$$#ovvvvvvvvo$.vvvvvvvvvvvvvvvvvvvv",
"vvvvvvvvvvvvvvvvvvvvvvvvvvvo#&;$@ovvvvvvvo$vvvvvvvvvvvvvvvvvvvvv",
"vvvvvvvvvvvvvvvvvvvv<ravvvvO$>>;$ovvvvvvvO$vvvvvvvvvvvvvvvvvvvvv",
"vvvvvvvvvvvvvvvvvvv8ll77vvvO$:>;$.vvvvvvv%w%vvvvvvvvvvvvvvvvvvvv",
"vvvvvvvvvvvvvvvvvv8x6727vvvX$;;;##vvvvvvv$iw%vvvvvvvvvvvvvvvvvvv",
"vvvvvvvvvvvvvvvvvvxx72222vv3,w>w*22322vvv279lvvvvvvvvvvvvvvvvvvv",
"vvvvvvvvvvvvvvvvv8x9223333233tied33dd32v233397vvvvvvvvvvvvvvvvvv",
"vvvvvvvvvvvvvvvvvl9323djjdjjjjjjd3jjjd3223dd3lxvvvvvvvvvvvvvvvvv",
"vvvvvvvvvvvvvvvvvx332ddjjddjjjjjjddjjdd32dddd3lxvvvvvvvvvvvvvvvv",
"vvvvvvvvvvvvvvvvvx3333ddddddddjjjd3ddddd32ddd33cvvvvvvvvvvvvvvvv",
"vvvvvvvvvvvvvvvvvl933323dddddddddd333dddd3233327vvvvvvvvvvvvvvvv",
"vvvvvvvvvvvvvvvvvvlv22233ddd33ddd333233dd33222lxvvvvvvvvvvvvvvvv",
"vvvvvvvvvvvvvvvvvvvvv2233d33333333332v23d32276zlvvvvvvvvvvvvvvvv",
"vvvvvvvvvvvvvvvvvvvvv22333dd333dd3332vv222@v9z9vvvvvvvvvvvvvvvvv",
"vvvvvvvvvvvvvvvvvvvvv2333ddd33ddd3332vvvv$Ovvvvvvvvvvvvvvvvvvvvv",
"vvvvvvvvvvvvvvvvvvvvv233dddd3ddddd333vvvv$Ovvvvvvvvvvvvvvvvvvvvv",
"vvvvvvvvvvvvvvvvvvvvv233dddd3ddddd3332vvv$Ovvvvvvvvvvvvvvvvvvvvv",
"vvvvvvvvvvvvvvvvvvvv223ddddd3dddddd332vvv$ovvvvvvvvvvvvvvvvvvvvv",
"vvvvvvvvvvvvvvvvvvvv223ddddd33ddddd3322vv$ovvvvvvvvvvvvvvvvvvvvv",
"vvvvvvvvvvvvvvvvvvvv233dddjd33ddddd3322vv%ovvvvvvvvvvvvvvvvvvvvv",
"vvvvvvvvvvvvvvvvvvvv233ddjjj333dddd33222v#.vvvvvvvvvvvvvvvvvvvvv",
"vvvvvvvvvvvvvvvvvvv2233ddjjjd33ddddd3222vvvvvvvvvvvvvvvvvvvvvvvv",
"vvvvvvvvvvvvvvvvvvv23333djdd333ddddd33222vvvvvvvvvvvvvvvvvvvvvvv",
"vvvvvvvvvvvvvvvvvv223333dddd333ddddd33322vvvvvvvvvvvvvvvvvvvvvvv",
"vvvvvvvvvvvvvvvvvv233333dyyd333ddddd33332vvvvvvvvvvvvvvvvvvvvvvv",
"vvvvvvvvvvvvvvvvvv23dd33q00y333ddddd33d32vvvvvvvvvvvvvvvvvvvvvvv",
"vvvvvvvvvvvvvvvvv23ddd33y>>*y333dddd3ddd32vvvvvvvvvvvvvvvvvvvvvv",
"vvvvvvvvvvvvvvvvv=3ddd33 %% yd33dddd3dddd3vvvvvvvvvvvvvvvvvvvvvv",
"vvvvvvvvvvvvvvvvvv=-dd33 $$ 0d33dddd3dddd=vvvvvvvvvvvvvvvvvvvvvv",
"vvvvvvvvvvvvvvvvvvvv-0y3O##  -33dddd3d0-=vvvvvvvvvvvvvvvvvvvvvvv",
"vvvvvvvvvvvvvvvvvvvvv   +#$   --0yyy0-vvvvvvvvvvvvvvvvvvvvvvvvvv",
"vvvvvvvvvvvvvvvvvvvvvv  o$$        vvvvvvvvvvvvvvvvvvvvvvvvvvvvv",
"vvvvvvvvvvvvvvvvvvvvvvvv Oo   vvvvvvvvvvvvvvvvvvvvvvvvvvvvvvvvvv"
};
