/* XPM */
static char *result[] = {
/* columns rows colors chars-per-pixel */
"64 64 58 1 ",
"  c black",
". c #180000",
"X c gray11",
"o c #241400",
"O c #2C1800",
"+ c #342000",
"@ c #3C2404",
"# c #343434",
"$ c #482C04",
"% c #5C3000",
"& c #503008",
"* c #58380C",
"= c #603810",
"- c #743414",
"; c #684000",
": c #785004",
"> c #644014",
", c #684014",
"< c #6C4C18",
"1 c #744C1C",
"2 c #7C5820",
"3 c #000440",
"4 c #00044C",
"5 c #001474",
"6 c #002870",
"7 c #043478",
"8 c #304858",
"9 c gray25",
"0 c #544440",
"q c #585858",
"w c #685450",
"e c #646464",
"r c #6C6C6C",
"t c #786460",
"y c #886408",
"u c #98780C",
"i c #886428",
"p c #907030",
"a c #8C7870",
"s c #A88C10",
"d c #BCA414",
"f c #D0C01C",
"g c #F4E020",
"h c #A88448",
"j c #B49054",
"k c #CCA874",
"l c #0428A0",
"z c #0C4084",
"x c #185090",
"c c #3470A4",
"v c #0C48CC",
"b c #4480B0",
"n c #848484",
"m c #B09C90",
"M c #C0B0A4",
"N c #E8C498",
"B c #D4C4B4",
"V c None",
/* pixels */
"VVVVVVVVVVVVVVVVVVVVVVVVVVVVVVVVVVVVVVVVVVVVVVVVVVVVVVVVVVVVVVVV",
"VVVVVVVVVVVVVVVVVVVVVVVVVVVVVVVVVVVVVVVVVVVVVVVVVVVVVVVVVVVVVVVV",
"VVVVVVVVVVVVVVVVVVVVVVVVVVVVVVVVVVVVVVVVVVVVVVVVVVVVVVVVVVVVVVVV",
"VVVVVVVVVVVVVVVVVVVVVVVVVVVVVVVVVVVVVVVVVVVVVVVVVVVVVVVVVVVVVVVV",
"VVVVVVVVVVVVVVVVVVVVVVVVVVVVVVVVVVVVVVVVVVVVVVVVVVVVVVVVVVVVVVVV",
"VVVVVVVVVVVVVVVVVVVVVVVVVVVVVVVVVVVVVVVVVVVVVVVVVVVVVVVVVVVVVVVV",
"VVVVVVVVVVVVVVVVVVVVVVVVVVVVVVVVVVVVVVVVVVVVVVVVVVVVVVVVVVVVVVVV",
"VVVVVVVVVVVVVVVVVVVVVVVVVVVVVVVVVVVVVVVVVVVVVVVVVVVVVVVVVVVVVVVV",
"VVVVVVVVVVVVVVVVVVVVVVVVVVVVVVVVVVVVVVVVVVVVVVVVVVVVVVVVVVVVVVVV",
"VVVVVVVVVVVVVVVVVVVVVVVVVVVVVVVVVVVVVVVVVVVVVVVVVVVVVVVVVVVVVVVV",
"VVVVVVVVVVVVVVVVVVVVVVVVVVVVVVVVVVVVVVVVVVVVVVVVVVVVVVVVVVVVVVVV",
"VVVVVVVVVVVVVVVVVVVVVVVVVVVVVVVVVVVVVVVVVVVVVVVVVVVVVVVVVVVVVVVV",
"VVVVVVVVVVVVVVVVVVVVVVVVVVVVVVVVVVVVVVVVVVVVVVVVVVVVVVVVVVVVVVVV",
"VVVVVVVVVVVVVVVVVVVVVVVVVVVVVVVVVVVVVVVVVVVVVVVVVVVVVVVVVVVVVVVV",
"VVVVVVVVVVVVVVVVVVVVVVVVVVVVVVVVVVVVVVVVVVVVVVVVVVVVVVVVVVVVVVVV",
"VVVVVVVVVVVVVVVVVVVVVVVVVVVVVVVVVVVVVVVVVVVVVVVVVVVVVVVVVVVVVVVV",
"VVVVVVVVVVVVVVVVVVVVVVVVVVVVVVVVVVVVVVVVVVVVVVVVVVVVVVVVVVVVVVVV",
"VVVVVVVVVVVVVVVVVVVVVVVVVVVVVVVVVVVVVVVVVVVVVVVVVVVVVVVVVVVVVVVV",
"VVVVVVVVVVVVVVVVVVVVVVVVVVVVVVVVVVVVVVVVVVVVVVVVVVVVVVVVVVVVVVVV",
"VVVVVVVVVVVVVVVVVVVVVVVVVVVVVVVVVVVVVVVVVVVVVVVVVVVVVVVVVVVVVVVV",
"VVVVVVVVVVVVVVVVVVVVVVVVVVVVVVVVVVVVVVVVVVVVVVVVVVVVVVVVVVVVVVVV",
"VVVVVVVVVVVVVVVVVVVVVVVVVVVVVVVVVVVVVVVVVVVVVVVVVVVVVVVVVVVVVVVV",
"VVVVVVVVVVVVVVVVVVVVVVVVVVVVVVVVVVVVVVVVVVVVVVVVVVVVVVVVVVVVVVVV",
"VVVVVVVVVVVVVVVVVVVVVVVVVVVVVVVVVVVVVVVVVVVVVVVVVVVVVVVVVVVVVVVV",
"VVVVVVVVVVVVVVVVVVVVVVVVVVVVVVVVVVVVVVVVVVVVVVVVVVVVVVVVVVVVVVVV",
"VVVVVVVVVVVVVVVVVVVVVVVVVVVVVVVVVVVVVVVVVVVVVVVVVVVVVVVVVVVVVVVV",
"VVVVVVVVVVVVVVVVVVVVVVVVVVVVVVVVVVVVVVVVVVVVVVVVVVVVVVVVVVVVVVVV",
"VVVVVVVVVVVVVVVVVVVVVVVVVVVVVVVVVVVVVVVVVVVVVVVVVVVVVVVVVVVVVVVV",
"VVVVVVVVVVVVVVVVVVVVVVVVVVVVVV++++VVVVVVVVVVVVVVVVVVVVVVVVVVVVVV",
"VVVVVVVVVVVVVVVVVVVVVVVVVVVVV+;<<;+VVVVVVVVVVVVVVVVVVVVVVVVVVVVV",
"VVVVVVVVVVVVVVVVVVVVVVVVVVVV+;$$<$$+445VVVVVVVVVVVVVVVVVVVVVVVVV",
"VVVVVVVVVVVVVVVVVVVVVVVV444%+;;$$;$;$5lVVVVVVVVVVVVVVVVVVVVVVVVV",
"VVVVVVVVVVVVVVVVVVbVVV45555%+;1==1;;$ll4VVVVVVVVVVVVVVVVVVVVVVVV",
"VVVVVVVVVVVVVVVVVVcbV45lll5%%1kNNk1%@l5444VVVVVVVVVVVVVVVVVVVVVV",
"VVVVVVVVVVVVVVVVVV7xxclvvvl%%ijkkki%+l54544VVVVVVVVVVVVVVVVVVVVV",
"VVVVVVVVVVVVVVVVVc7337bvvll+%%+jpi+%+ll5554VVVVVVVVVVVVVVVVVVVVV",
"VVVVVVVVVVVVVVVVVb3  3cllll+%:hh:h:%+5vll5rVVVVVVVVVVVVVVVVVVVVV",
"VVVVVVVVVVVVVVVVxx7337z54ll+%<i$$i%%v4lvlrMVVVVVVVVVVVVVVVVVVVVV",
"VVVVVVVVVVVVVVVxVzx66z5445ll<@o%++<@545vrMnVVVVVVVVVVVVVVVVVVVVV",
"VVVVVVVVVVVVVVVVV5dfd854455l*o+:%o%>5445MnVVVVVVVVVVVVVVVVVVVVVV",
"VVVVVVVVVVVVVVVV5lsgs8044555o++:;%+%l54awVVVVVVVVVVVVVVVVVVVVVVV",
"VVVVVVVVVVVVVVVV5lyfsBw455ll4@+<;%+5l54XVVVVVVVVVVVVVVVVVVVVVVVV",
"VVVVVVVVVVVVVVV5#mydymt455lll@@;%@0ll54VVVVVVVVVVVVVVVVVVVVVVVVV",
"VVVVVVVVVVVVVVV#eMry,nw45lllldiuyyqll55VVVVVVVVVVVVVVVVVVVVVVVVV",
"VVVVVVVVVVVVVV#qrMm&2w445lll5s5idf5ll554VVVVVVVVVVVVVVVVVVVVVVVV",
"VVVVVVVVVVVVV#9MMa&,294455lls440ddall55444VVVVVVVVVVVVVVVVVVVVVV",
"VVVVVVVVVVVVV#aMa#,+j44555lls  @ssdll55444VVVVVVVVVVVVVVVVVVVVVV",
"VVVVVVVVVVVVV999#,j,+4555l5ld  oussdl55444VVVVVVVVVVVVVVVVVVVVVV",
"VVVVVVVVVVVVVVVVV,phh4555llld   ussfl55544VVVVVVVVVVVVVVVVVVVVVV",
"VVVVVVVVVVVVVVVVVV,p-4555llld   >ssd8l5544VVVVVVVVVVVVVVVVVVVVVV",
"VVVVVVVVVVVVVVVVVV.%+455lllld   oussd5l5554VVVVVVVVVVVVVVVVVVVVV",
"VVVVVVVVVVVVVVVVVVo-+555llllg   oysud5l55554VVVVVVVVVVVVVVVVVVVV",
"VVVVVVVVVVVVVVVVVVo2+555llllg   ouusf5ll5l54VVVVVVVVVVVVVVVVVVVV",
"VVVVVVVVVVVVVVVVVVo2+555llllf   o:uuf8lllll4VVVVVVVVVVVVVVVVVVVV",
"VVVVVVVVVVVVVVVVVVo-+55llllg    .@$$g5llllu:VVVVVVVVVVVVVVVVVVVV",
"VVVVVVVVVVVVVVVVVVo%+55llllf     o@&glll5uVVVVVVVVVVVVVVVVVVVVVV",
"VVVVVVVVVVVVVVVVVVV%+:u5lld       @&f55duVVVVVVVVVVVVVVVVVVVVVVV",
"VVVVVVVVVVVVVVVVVVVVV  :udf       $$ddd  VVVVVVVVVVVVVVVVVVVVVVV",
"VVVVVVVVVVVVVVVVVVVVV             &<@    VVVVVVVVVVVVVVVVVVVVVVV",
"VVVVVVVVVVVVVVVVVVVVVVV           $1=o   VVVVVVVVVVVVVVVVVVVVVVV",
"VVVVVVVVVVVVVVVVVVVVVVVVVVV       $,=O  VVVVVVVVVVVVVVVVVVVVVVVV",
"VVVVVVVVVVVVVVVVVVVVVVVVVVVVVV    @==o VVVVVVVVVVVVVVVVVVVVVVVVV",
"VVVVVVVVVVVVVVVVVVVVVVVVVVVVVVVV  .@o VVVVVVVVVVVVVVVVVVVVVVVVVV",
"VVVVVVVVVVVVVVVVVVVVVVVVVVVVVVVVV    VVVVVVVVVVVVVVVVVVVVVVVVVVV"
};
