/* XPM */
static char *result[] = {
/* columns rows colors chars-per-pixel */
"64 64 217 2 ",
"   c #000001",
".  c #060508",
"X  c #001607",
"o  c #1D1D1E",
"O  c #151819",
"+  c #0A0F0C",
"@  c #260203",
"#  c #2C171E",
"$  c #1D1E21",
"%  c #251E22",
"&  c #002621",
"*  c #002E2B",
"=  c #022C27",
"-  c #182427",
";  c #00312D",
":  c #013332",
">  c #003C3B",
",  c #0B3B3A",
"<  c #1B3535",
"1  c #143B3A",
"2  c #1B3937",
"3  c #232425",
"4  c #252629",
"5  c #2A272B",
"6  c #25292C",
"7  c #2A2B2D",
"8  c #292326",
"9  c #312B2E",
"0  c #32222A",
"q  c #2C2E31",
"w  c #262F32",
"e  c #233236",
"r  c #2E3135",
"t  c #2E3439",
"y  c #273B3E",
"u  c #313337",
"i  c #32363B",
"p  c #34393E",
"a  c #383A3F",
"s  c #312F32",
"d  c #16413F",
"f  c #003D41",
"g  c #233E41",
"h  c #353C42",
"j  c #3A3F45",
"k  c #014444",
"l  c #034B4C",
"z  c #0C4A4B",
"x  c #074546",
"c  c #184B4C",
"v  c #074E52",
"b  c #1A4D52",
"n  c #005B5A",
"m  c #085354",
"M  c #145155",
"N  c #1A5355",
"B  c #195559",
"V  c #1C5A5E",
"C  c #16575B",
"Z  c #2D494E",
"A  c #27464A",
"S  c #3C4146",
"D  c #3D4349",
"F  c #3B4849",
"G  c #3A4D54",
"H  c #364D53",
"J  c #21565A",
"K  c #235A5E",
"L  c #275559",
"P  c #37555B",
"I  c #2A4F52",
"U  c #005F60",
"Y  c #1B5C61",
"T  c #235D61",
"R  c #295F65",
"E  c #3A5C62",
"W  c #006868",
"Q  c #166668",
"!  c #00726F",
"~  c #007673",
"^  c #037978",
"/  c #1E7878",
"(  c #256368",
")  c #286469",
"_  c #366668",
"`  c #286B72",
"'  c #336D72",
"]  c #3B6E76",
"[  c #367379",
"{  c #39757A",
"}  c #36787B",
"|  c #297278",
" . c #42454B",
".. c #434749",
"X. c #444B51",
"o. c #4A4E54",
"O. c #564B5B",
"+. c #4B5157",
"@. c #4D545B",
"#. c #4D5A5A",
"$. c #51565D",
"%. c #52595F",
"&. c #55535A",
"*. c #555C63",
"=. c #595F67",
"-. c #5B5065",
";. c #525261",
":. c #635D6D",
">. c #49636A",
",. c #5D6464",
"<. c #54636B",
"1. c #5C636B",
"2. c #5F686D",
"3. c #5A6D75",
"4. c #43787E",
"5. c #62666D",
"6. c #61686F",
"7. c #656B74",
"8. c #6A6D75",
"9. c #696F78",
"0. c #6D737C",
"q. c #6A7078",
"w. c #71767F",
"e. c #73787F",
"r. c #00807D",
"t. c #3B7A82",
"y. c #407E85",
"u. c #4D7E85",
"i. c #5E7E85",
"p. c #6C7D85",
"a. c #747581",
"s. c #747A83",
"d. c #787E86",
"f. c #797F88",
"g. c #8B7C90",
"h. c #028684",
"j. c #009896",
"k. c #1C9090",
"l. c #329092",
"z. c #01A6A4",
"x. c #00ABA8",
"c. c #1BACAB",
"v. c #3AB5B6",
"b. c #2FAAAB",
"n. c #43838B",
"m. c #448087",
"M. c #57838B",
"N. c #478A92",
"B. c #488891",
"V. c #568B92",
"C. c #4E949C",
"Z. c #419197",
"A. c #52949B",
"S. c #52989F",
"D. c #73828A",
"F. c #7D838C",
"G. c #7A8087",
"H. c #678C94",
"J. c #7B8991",
"K. c #60868E",
"L. c #559CA4",
"P. c #5297A0",
"I. c #4F9BA3",
"U. c #6E9DA2",
"Y. c #5AA3AB",
"T. c #43ADB1",
"R. c #5CAAB3",
"E. c #5DA7B0",
"W. c #55B4BA",
"Q. c #63AEB7",
"!. c #63AFB8",
"~. c #69ADB6",
"^. c #65B3BC",
"/. c #6DB6BF",
"(. c #77ACB5",
"). c #6ABAC3",
"_. c #7DCAD0",
"`. c #80848D",
"'. c #818790",
"]. c #828A92",
"[. c #888F98",
"{. c #8D939C",
"}. c #83939C",
"|. c #91919A",
" X c #9C85A5",
".X c #8C9AA4",
"XX c #939AA4",
"oX c #949BA5",
"OX c #B195BB",
"+X c #9CA3AC",
"@X c #9FA7B0",
"#X c #9EABB5",
"$X c #84ADB5",
"%X c #A5ABB5",
"&X c #A7AFB8",
"*X c #A6ACB6",
"=X c #ACB4BE",
"-X c #A6B0BA",
";X c #A0A6AF",
":X c #BF9EC8",
">X c #88BDC4",
",X c #9BB9C3",
"<X c #AFB8C1",
"1X c #B3BAC4",
"2X c #B8BDC8",
"3X c #C39CD0",
"4X c #E2B5F2",
"5X c #87C7CD",
"6X c #91D5DB",
"7X c #87C8D1",
"8X c #B9C1CB",
"9X c #BEC8D2",
"0X c #96DAE1",
"qX c #A7E2E9",
"wX c #AFEBF1",
"eX c #F5C3FF",
"rX c None",
/* pixels */
"rXrXrXrXrXrXrXrXrXrXrXrXrXrXrXrXrXrXrXrXrXrXrXrXrXrXrXrXrXrXrXrXwXrXrXrXrXrXrXrXrXrXrXrXrXrXrXrXrXrXrXrXrXrXrXrXrXrXrXrXrXrXrXrX",
"rXrXrXrXrXrXrXrXrXrXrXrXrXrXrXrXrXrXrXrXrXrXrXrXrXrXrXrXrXrXrXrX7XrXrXrXrXrXrXrXrXrXrXrXrXrXrXrXrXrXrXrXrXrXrXrXrXrXrXrXrXrXrXrX",
"rXrXrXrXrXrXrXrXrXrXrXrXrXrXrXrXrXrXrXrXrXrXrXrXrXrXrXrXrXrXrXrXT.rXrXrXrXrXrXrXrXrXrXrXrXrXrXrXrXrXrXrXrXrXrXrXrXrXrXrXrXrXrXrX",
"rXrXrXrXrXrXrXrXrXrXrXrXrXrXrXrXrXrXrXrXrXrXrXrXrXrXrXrXrXrXrXrXz.rXrXrXrXrXrXrXrXrXrXrXrXrXrXrXrXrXrXrXrXrXrXrXrXrXrXrXrXrXrXrX",
"rXrXrXrXrXrXrXrXrXrXrXrX^.rXrXrXrXrXrXrXrXrXrXrXrXrXrXrXrXrXrXrXh.rXrXrXrXrXrXrXrXrXrXrXrXrXrXrXrXrXrXrXrXrXrXrXrXrXrXrXrXrXrXrX",
"rXrXrXrXrXrXrXrXrXrXrXrXrXqX6Xz.rXrXrXrXrXrXrXrXrXrXrXrXrXrXrXz.Q rXrXrXrXrXrXrXrXrXrXrXrXrXrXrXrXrXrX^.rXrXrXrXrXrXrXrXrXrXrXrX",
"rXrXrXrXrXrXrXrXrXrXrXrXrXrX7Xz.rXrXrXrXrXrXrXrXrXrXrXrXrXrXrXx.Q b rXrXrXrXrXrXrXrXrXrXrXrXrXrXrXrXrX^.rXrXrXrXrXrXrXrXrXrXrXrX",
"rXrXrXrXrXrXrXrXrXrXrXrXrXrXrXh.c.k.b i +.s.s.X.q.d.7.rXrXrXrX^ B Y L rXrXrXrXrXrXrXrXrXrXrXrXrXrXrXrXrXrXrXrXrXrXrXrXrXrXrXrXrX",
"rXrXrXrXrXrXrXrXrXrXrXrXrXrXrXk.!.T.h.>.*X{.[.<X<X1X@Xa.d. .  3 - O S =.+     rXrXrXrXrXrXrXrXrX! E.).rXrXrXrXrXrXrXrXrXrXrXrXrX",
"rXrXrXrXrXrXrXrXrXrXrXrXrXrXrXrXl.l.h.L .X'.F.XXXX}.F.F.%X%X.XV.9.7.5.3.XX@X`.    6.0.6 @ A.0XwXb.b.rXrXrXrXrXrXrXrXrXrXrXrXrXrX",
"rXrXrXrXrXrXrXrXrXrXrXrXrXrXrXrXf n Q <.=.a.f.a.9.@.9.XX@X;X$XW.J.`.0.7.1X9X&Xd.d.].a. .w Z._.0Xv.rXrXrXrXrXrXrXrXrXrXrXrXrXrXrX",
"rXrXrXrXrXrXrXrXrXrXrXrXrXrXrX'.>._ 7.d.h 5.s.a.1.+.].<XF.G ! c.p.d.7.6.%X=X<X1X1X.X9.<.K W ~ ! ~ rXrXrXrXrXrXrXrXrXrXrXrXrXrXrX",
"rXrXrXrXrXrXrXrXrXrXrXrXrXrXrX@.&X<X+X0.D r i S *.*.9.].F.>.W h.T <.*.D 6.f.J.F.].8.M.R.Q v Q h.rXrXrXrXrXrXrXrXrXrXrXrXrXrXrXrX",
"rXrXrXrXrXrXrXrXrXrXrXrXrXrX0 &.[.1X&X0.% f.{.=.*.0.7.t S - * z : - 4 6 5 7.F.s.8. .K.<Xp.P n n w rXrXrXrXrXrXrXrXrXrXrXrXrXrXrX",
"rXrXrXrXrXrXrXrXrXrXrXrXrX@ >.H.a..XoXp.u.#X<X|.q.7.8.0.w.e.8.o.@.9.5.u h -.q.0.@.- 9.%X'.3.>.>.i rXrXrXrXrXrXrXrXrXrXrXrXrXrXrX",
"rXrXrXrXrXrXrXrXrXrXrXrXrX@ u.^.f.a.a.d.R.,X1X=XF.q w.2X1X1X+Xa.a.&X%X2.2.h p *. .j ;.w.a.d.F.a.S rXrXrXrXrXrXrXrXrXrXrXrXrXrXrX",
"rXrXrXrXrXrXrXrXrXrXrXrXrXd.0.P =.s.s.=.Z @X-Xs.+.  d.1Xa.6.7.1.*.+X8X-X7.p 4 X.w.s.7.D =.s.s.=.1.S o rXrXrXrXrXrXrXrXrXrXrXrXrX",
"rXrXrXrXrXrXrXrXrXrXrXrXrX].s.5  .1.7.*.5 f..Xs.D + *.].a.0.7.*.*.F.+X{.7.j % S d.'.7.t *.6.7.=.+.i . rXrXrXrXrXrXrXrXrXrXrXrXrX",
"rXrXrXrXrXrXrXrXrXrXrXrXrX7.5.p i X.$.@.h ;.7.5.j 6 u  .1.1.2.7.1.%.@.%.@.j e H 6.s.7.h =.;.@.@.p +.&.rXrXrXrXrXrXrXrXrXrXrXrXrX",
"rXrXrXrXrXrXrXrXrXrXrXrXrXO 7 h h i t h h i 6 % 7 5 u  .-.O.:.s.<.O.-.-. .s g M e 9.9.h *.G t i u s.].rXrXrXrXrXrXrXrXrXrXrXrXrX",
"rXrXrXrXrXrXrXrXrXrXrXrXrXrXrX4 h $ + - q 7 6 7 7 o ..g.4XeX3XX   3XeX4Xg...o r t 9.0.i j j i q 3 w.'.rXrXrXrXrXrXrXrXrXrXrXrXrX",
"rXrXrXrXrXrXrXrXrXrXrXrXrXrXu 2.@.'.oXXX .D X.4 5 - ..e.OX:X XF F  X3XOXa. .o 7 q @.@.h h i q 5 8 +.$.rXrXrXrXrXrXrXrXrXrXrXrXrX",
"rXrXrXrXrXrXrXrXrXrXrXrXrX5.{.XX=.@X8X+Xo.$.$.3 7 3 j @.,.,.1.2.2.,.,.,.@.j 8 q 5 6 q j Z t 4 7 r o rXrXrXrXrXrXrXrXrXrXrXrXrXrX",
"rXrXrXrXrXrXrXrXrXrXrXrX  +X8X-X2.oX#X0.S @.@.4 7 7 q h %.%.*.*.*.*.*.$.j w 6 6 q 6 r h N g 5 7 7 rXrXrXrXrXrXrXrXrXrXrXrXrXrXrX",
"rXrXrXrXrXrXrXrXrXrXrXrX  @X&X1.=.=.H.~.G u a # 8 7 7 r S S S S S S S S q 7 7 7 6 h i 6 w q q q rXrXrXrXrXrXrXrXrXrXrXrXrXrXrXrX",
"rXrXrXrXrXrXrXrXrXrXrXrX@ 6.s.9.-.5.s.V.4.H G ] L e 8 3 7 u r q q r q r 7 7 7 7 3 q 6 . . $ 8 O rXrXrXrXrXrXrXrXrXrXrXrXrXrXrXrX",
"rXrXrXrXrXrXrXrXrXrXrXrXA W } s.M.H.7.S ' I A ( v , s ..7 3 7 7 6 4 3 4 4 4 6 q D q @.f.s.*. .@.rXrXrXrXrXrXrXrXrXrXrXrXrXrXrXrX",
"rXrXrXrXrXrXrXrXrXrXrX^.R j.l.1.~.C.` M N B K _ J m P *.p 7 7 7 7 r u u u i 7 i =.h s.2X2X].2.s.%.rXrXrXrXrXrXrXrXrXrXrXrXrXrXrX",
"rXrXrXrXrXrXrXrXrXrXrXrXrXt y J B.T ] Q.Q.E.5XqX/.^.C.d %.S o 5 $ o.<.*.=.=.o.q =.h a.2X2X'.*.F.=Xe.  rXrXrXrXrXrXrXrXrXrXrXrXrX",
"rXrXrXrXrXrXrXrXrXrXrXrXrXh.v.R.' : l./.m.} V.U.4.} ( d 1.,.X.p @.=.2.1.2.$.j 7 X.0 p.>XJ.9.5.7.XX8.  rXrXrXrXrXrXrXrXrXrXrXrXrX",
"rXrXrXrXrXrXrXrXrXrXrXrXrXb.v.^.N & [ Y.V ' } | [ { ( d o.$.X.i @.@.@.%.@.D t u g g ' I.F.|..XM.p.#.n rXrXrXrXrXrXrXrXrXrXrXrXrX",
"rXrXrXrXrXrXrXrXrXrXrXrX^.rXrXrXm k K m.y.Y./.^.^.).S.= - 7 u u 4 r p i h h h h B m l E -X2X,XR.D.L t.x.rXrXrXrXrXrXrXrXrXrXrXrX",
"rXrXrXrXrXrXrXrXrXrXrXrXrXrXrXrXz.~ L n.t.m.B.B.n.Q.L.; 3 @.1.*.u 3 5 7 ; * ; ; : & X x u.~.(.d.+.p y rXrXrXrXrXrXrXrXrXrXrXrXrX",
"rXrXrXrXrXrXrXrXrXrXrXrXrXrXrXY rXn J n.E.n.N B B { ' 6 t F +.X.i o.X.c S.Y.L.L.P.>X>XZ.Y n.V.@.% @ rXrXrXrXrXrXrXrXrXrXrXrXrXrX",
"rXrXrXrXrXrXrXrXrXrXrXrXrXrXrXB rX& ) B.Q.n.M k k : & 9 p t r p h @.X.l A.L.L.L.L.5X6X^.M K ( k / rXrXrXrXrXrXrXrXrXrXrXrXrXrXrX",
"rXrXrXrXrXrXrXrXrXrXrXrXrXrXrXrXrX; T y.{ y.} M B z < 4 7 7 r a h p y k z z N T Y ` C.E.N k b Q z.rXrXrXrXrXrXrXrXrXrXrXrXrXrXrX",
"rXrXrXrXrXrXrXrXrXrXrXrXrXrXrXrXrXrXc z z z z k k 2 7 7 4 7 7 s q 7 - B Y.!.Q.!.Q.^.L.B x = l./.rX^.^.rXrXrXrXrXrXrXrXrXrXrXrXrX",
"rXrXrXrXrXrXrXrXrXrXrXrXrXrXrXrXrXrXrX< < < 2 e e t 7 3 p r 7 7 7 6 - V /.Q.S.L.P.L.n.l x = _ n.rXrXrXrXrXrXrXrXrXrXrXrXrXrXrXrX",
"rXrXrXrXrXrXrXrXrXrXrXrXrXrXrXrXrXrXrXrXrXrX9 q 4 D o.S a r 7 7 7 7 4 A A.y.( _ ' t.[ M k rXrXf rXrXrXrXrXrXrXrXrXrXrXrXrXrXrXrX",
"rXrXrXrXrXrXrXrXrXrXrXrXrXrXrXrXrXrXrXrXrXrXq q 6 +.1.,.u 4 u rX7 7 5 6 ; > > f v [ [ M k y rXrXrXrXrXrXrXrXrXrXrXrXrXrXrXrXrXrX",
"rXrXrXrXrXrXrXrXrXrXrXrXrXrXrXrXrXrXrXrXrX7 u j h h +.1.i 8 rXrX7 7 7 4 > v B B B Y Y N l 2 rXrXrXrXrXrXrXrXrXrXrXrXrXrXrXrXrXrX",
"rXrXrXrXrXrXrXrXrXrXrXrXrXrXrXrXrXrXrXrXrX7 u u r p S S r 7 rXrX7 u S #.@.I l l l l v z d rXrXrXrXrXrXrXrXrXrXrXrXrXrXrXrXrXrXrX",
"rXrXrXrXrXrXrXrXrXrXrXrXrXrXrXrXrXrXrXrXrXq 7 7 7 i u 3 7 7 rXrX7 r o.2.5.G , 1 1 1 , 1 rXrXrXrXrXrXrXrXrXrXrXrXrXrXrXrXrXrXrXrX",
"rXrXrXrXrXrXrXrXrXrXrXrXrXrXrXrXrXrXrXrXrXrXq 7 7 7 7 7 7 u rXrX7 u G ,.1.X.q 7 7 s rXrXrXrXrXrXrXrXrXrXrXrXrXrXrXrXrXrXrXrXrXrX",
"rXrXrXrXrXrXrXrXrXrXrXrXrXrXrXrXrXrXrXrXrXrXrXrXrXrXrXrXrXrXrXrX7 p S D 1.o.r 7 q s rXrXrXrXrXrXrXrXrXrXrXrXrXrXrXrXrXrXrXrXrXrX",
"rXrXrXrXrXrXrXrXrXrXrXrXrXrXrXrXrXrXrXrXrXrXrXrXrXrXrXrXrXrXrXrXu r r u X.S q 7 s q rXrXrXrXrXrXrXrXrXrXrXrXrXrXrXrXrXrXrXrXrXrX",
"rXrXrXrXrXrXrXrXrXrXrXrXrXrXrXrXrXrXrXrXrXrXrXrXrXrXrXrXrXrXrXrXrX7 q 7 t q 7 7 7 rXrXrXrXrXrXrXrXrXrXrXrXrXrXrXrXrXrXrXrXrXrXrX",
"rXrXrXrXrXrXrXrXrXrXrXrXrXrXrXrXrXrXrXrXrXrXrXrXrXrXrXrXrXrXrXrXrX7 7 7 6 7 7 7 rXrXrXrXrXrXrXrXrXrXrXrXrXrXrXrXrXrXrXrXrXrXrXrX",
"rXrXrXrXrXrXrXrXrXrXrXrXrXrXrXrXrXrXrXrXrXrXrXrXrXrXrXrXrXrXrXrXrXrXrXrXrXrXrXrXrXrXrXrXrXrXrXrXrXrXrXrXrXrXrXrXrXrXrXrXrXrXrXrX",
"rXrXrXrXrXrXrXrXrXrXrXrXrXrXrXrXrXrXrXrXrXrXrXrXrXrXrXrXrXrXrXrXrXrXrXrXrXrXrXrXrXrXrXrXrXrXrXrXrXrXrXrXrXrXrXrXrXrXrXrXrXrXrXrX",
"rXrXrXrXrXrXrXrXrXrXrXrXrXrXrXrXrXrXrXrXrXrXrXrXrXrXrXrXrXrXrXrXrXrXrXrXrXrXrXrXrXrXrXrXrXrXrXrXrXrXrXrXrXrXrXrXrXrXrXrXrXrXrXrX",
"rXrXrXrXrXrXrXrXrXrXrXrXrXrXrXrXrXrXrXrXrXrXrXrXrXrXrXrXrXrXrXrXrXrXrXrXrXrXrXrXrXrXrXrXrXrXrXrXrXrXrXrXrXrXrXrXrXrXrXrXrXrXrXrX",
"rXrXrXrXrXrXrXrXrXrXrXrXrXrXrXrXrXrXrXrXrXrXrXrXrXrXrXrXrXrXrXrXrXrXrXrXrXrXrXrXrXrXrXrXrXrXrXrXrXrXrXrXrXrXrXrXrXrXrXrXrXrXrXrX",
"rXrXrXrXrXrXrXrXrXrXrXrXrXrXrXrXrXrXrXrXrXrXrXrXrXrXrXrXrXrXrXrXrXrXrXrXrXrXrXrXrXrXrXrXrXrXrXrXrXrXrXrXrXrXrXrXrXrXrXrXrXrXrXrX",
"rXrXrXrXrXrXrXrXrXrXrXrXrXrXrXrXrXrXrXrXrXrXrXrXrXrXrXrXrXrXrXrXrXrXrXrXrXrXrXrXrXrXrXrXrXrXrXrXrXrXrXrXrXrXrXrXrXrXrXrXrXrXrXrX",
"rXrXrXrXrXrXrXrXrXrXrXrXrXrXrXrXrXrXrXrXrXrXrXrXrXrXrXrXrXrXrXrXrXrXrXrXrXrXrXrXrXrXrXrXrXrXrXrXrXrXrXrXrXrXrXrXrXrXrXrXrXrXrXrX",
"rXrXrXrXrXrXrXrXrXrXrXrXrXrXrXrXrXrXrXrXrXrXrXrXrXrXrXrXrXrXrXrXrXrXrXrXrXrXrXrXrXrXrXrXrXrXrXrXrXrXrXrXrXrXrXrXrXrXrXrXrXrXrXrX",
"rXrXrXrXrXrXrXrXrXrXrXrXrXrXrXrXrXrXrXrXrXrXrXrXrXrXrXrXrXrXrXrXrXrXrXrXrXrXrXrXrXrXrXrXrXrXrXrXrXrXrXrXrXrXrXrXrXrXrXrXrXrXrXrX",
"rXrXrXrXrXrXrXrXrXrXrXrXrXrXrXrXrXrXrXrXrXrXrXrXrXrXrXrXrXrXrXrXrXrXrXrXrXrXrXrXrXrXrXrXrXrXrXrXrXrXrXrXrXrXrXrXrXrXrXrXrXrXrXrX",
"rXrXrXrXrXrXrXrXrXrXrXrXrXrXrXrXrXrXrXrXrXrXrXrXrXrXrXrXrXrXrXrXrXrXrXrXrXrXrXrXrXrXrXrXrXrXrXrXrXrXrXrXrXrXrXrXrXrXrXrXrXrXrXrX",
"rXrXrXrXrXrXrXrXrXrXrXrXrXrXrXrXrXrXrXrXrXrXrXrXrXrXrXrXrXrXrXrXrXrXrXrXrXrXrXrXrXrXrXrXrXrXrXrXrXrXrXrXrXrXrXrXrXrXrXrXrXrXrXrX",
"rXrXrXrXrXrXrXrXrXrXrXrXrXrXrXrXrXrXrXrXrXrXrXrXrXrXrXrXrXrXrXrXrXrXrXrXrXrXrXrXrXrXrXrXrXrXrXrXrXrXrXrXrXrXrXrXrXrXrXrXrXrXrXrX",
"rXrXrXrXrXrXrXrXrXrXrXrXrXrXrXrXrXrXrXrXrXrXrXrXrXrXrXrXrXrXrXrXrXrXrXrXrXrXrXrXrXrXrXrXrXrXrXrXrXrXrXrXrXrXrXrXrXrXrXrXrXrXrXrX",
"rXrXrXrXrXrXrXrXrXrXrXrXrXrXrXrXrXrXrXrXrXrXrXrXrXrXrXrXrXrXrXrXrXrXrXrXrXrXrXrXrXrXrXrXrXrXrXrXrXrXrXrXrXrXrXrXrXrXrXrXrXrXrXrX"
};
