/* XPM */
static char *result[] = {
/* columns rows colors chars-per-pixel */
"64 64 206 2 ",
"   c #000000",
".  c #070A09",
"X  c #001200",
"o  c #001C0F",
"O  c #1A161A",
"+  c #1C1A1C",
"@  c #151716",
"#  c #0C1113",
"$  c #240103",
"%  c #2E0D0D",
"&  c #27181C",
"*  c #341B1F",
"=  c #002200",
"-  c #002212",
";  c #001A20",
":  c #161D22",
">  c #311D26",
",  c #002722",
"<  c #1A262A",
"1  c #003C3D",
"2  c #0E3E3D",
"3  c #003435",
"4  c #143B3A",
"5  c #173738",
"6  c #242426",
"7  c #2C2629",
"8  c #2A2B2D",
"9  c #28282B",
"0  c #252C31",
"q  c #2C2E31",
"w  c #253436",
"e  c #2D3135",
"r  c #2E343A",
"t  c #24383A",
"y  c #303236",
"u  c #32363B",
"i  c #33393E",
"p  c #3C373D",
"a  c #332F35",
"s  c #41323C",
"d  c #02403F",
"f  c #15413F",
"g  c #3E403F",
"h  c #003D42",
"j  c #283C43",
"k  c #353C42",
"l  c #3A3E44",
"z  c #403D45",
"x  c #004442",
"c  c #004A45",
"v  c #014B4C",
"b  c #0B4A4B",
"n  c #074446",
"m  c #144546",
"M  c #004E52",
"N  c #0F4F54",
"B  c #1A4E51",
"V  c #005156",
"C  c #025559",
"Z  c #005C5F",
"A  c #0C5455",
"S  c #125255",
"D  c #155459",
"F  c #1A555A",
"G  c #14595D",
"H  c #1B595E",
"J  c #1B5154",
"K  c #3C4147",
"L  c #354449",
"P  c #3D434A",
"I  c #38494E",
"U  c #264D52",
"Y  c #364D53",
"T  c #23575D",
"R  c #3D5155",
"E  c #33575C",
"W  c #244145",
"Q  c #005F63",
"!  c #385B61",
"~  c #2A5E63",
"^  c #006967",
"/  c #066767",
"(  c #1A6468",
")  c #00726D",
"_  c #007773",
"`  c #007C79",
"'  c #276469",
"]  c #3B6267",
"[  c #376569",
"{  c #277374",
"}  c #35787A",
"|  c #44444B",
" . c #46494E",
".. c #454B52",
"X. c #4B4D53",
"o. c #4E4751",
"O. c #504D55",
"+. c #4B5057",
"@. c #4D545B",
"#. c #435157",
"$. c #51565E",
"%. c #52585A",
"&. c #4B5C63",
"*. c #555C63",
"=. c #595D65",
"-. c #655B69",
";. c #496369",
":. c #54636A",
">. c #5C636B",
",. c #536C72",
"<. c #5E6A72",
"1. c #48757C",
"2. c #597279",
"3. c #64646C",
"4. c #666770",
"5. c #646A72",
"6. c #696D75",
"7. c #696170",
"8. c #63727A",
"9. c #6D737C",
"0. c #6B7076",
"q. c #71767E",
"w. c #7A747E",
"e. c #756F78",
"r. c #3B7980",
"t. c #477D81",
"y. c #6B7981",
"u. c #677E85",
"i. c #747A83",
"p. c #797F88",
"a. c #757C84",
"s. c #796680",
"d. c #8D7D92",
"f. c #9C7CA7",
"g. c #028686",
"h. c #178787",
"j. c #009B99",
"k. c #38898B",
"l. c #359092",
"z. c #0EABAA",
"x. c #2AAEB0",
"c. c #56858D",
"v. c #479499",
"b. c #4A8C8F",
"n. c #66868B",
"m. c #7C838C",
"M. c #75858D",
"N. c #618E91",
"B. c #6C969A",
"V. c #7C979E",
"C. c #719B9F",
"Z. c #7B8790",
"A. c #4F98A0",
"S. c #529BA3",
"D. c #5C9CA4",
"F. c #749DA2",
"G. c #5BA7AB",
"H. c #5DACB5",
"J. c #66A9AE",
"K. c #62B2BB",
"L. c #6EB2B5",
"P. c #6CACB3",
"I. c #6FBAC3",
"U. c #70B9C2",
"Y. c #72C4CB",
"T. c #74CFD1",
"R. c #80868E",
"E. c #818790",
"W. c #848A93",
"Q. c #888E97",
"!. c #8C939C",
"~. c #85959E",
"^. c #90979F",
"/. c #928297",
"(. c #8D9AA2",
"). c #9197A1",
"_. c #949BA4",
"`. c #969FA8",
"'. c #989FA8",
"]. c #B598BF",
"[. c #89A5AB",
"{. c #9BA3AC",
"}. c #95A3AB",
"|. c #9CAAB3",
" X c #9AA7B0",
".X c #89B4BB",
"XX c #96B3BB",
"oX c #A2AAB4",
"OX c #A7AEB8",
"+X c #ABAFBA",
"@X c #ACB3BD",
"#X c #98BDC3",
"$X c #AFB7C1",
"%X c #A8BBC4",
"&X c #B0B7C1",
"*X c #B2BAC4",
"=X c #B5BEC8",
"-X c #EBBDFB",
";X c #94CDD3",
":X c #94D6DB",
">X c #BAC2CC",
",X c #A0C9D1",
"<X c #9DDEE5",
"1X c #A9E3EB",
"2X c #A7E3E9",
"3X c None",
/* pixels */
"3X3X3X3X3X3X3X3X3X3X3X3X3X3X3X3X3X3X3X3X3X3X3X3X3X3X3X3X3X3X3X3X3X3X3X3X3X3X3X3X3X3X3X3X3X3X3X3X3X3X3X3X3X3X3X3X3X3X3X3X3X3X3X3X",
"3X3X3X3X3X3X3X3X3X3X3X3X3X3X3X3X3X3X3X3X3X3X3X3X3X3X3X3X3X3X3X3X3X3X3X3X3X3X3X3X3X3X3X3X3X3X3X3X3X3X3X3X3X3X3X3X3X3X3X3X3X3X3X3X",
"3X3X3X3X3X3X3X3X3X3X3X3X3X3X3X3X3X3X3X3X3X3X3X3X3X3X3X3X3X3X3X3X3X3X3X3X3X3X3X3X3X3X3X3X3X3X3X3X3X3X3X3X3X3X3X3X3X3X3X3X3X3X3X3X",
"3X3X3X3X3X3X3X3X3X3X3X3X3X3X3X3X3X3X3X3X3X3X3X3X3X3X3X3X3X3X3X3X3X3X3X3X3X3X3X3X3X3X3X3X3X3X3X3X3X3X3X3X3X3X3X3X3X3X3X3X3X3X3X3X",
"3X3X3X3X3X3X3X3X3X3X3X3X3X3X3X3X3X3X3X3X3X3X3X3X3X3X3X3X3X3X3X3X3X3X3X3X3X3X3X3X3X3X3X3X3X3X3X3X3X3X3X3X3X3X3X3X3X3X3X3X3X3X3X3X",
"3X3X3X3X3X3X3X3X3X3X3X3X3X3X3X3X3X3X3X3X3X3X3X3X3X3X3X3X3X3X3X3X3X3X3X3X3X3X3X3X3X3X3X3X3X3X3X3X3X3X3X3X3X3X3X3X3X3X3X3X3X3X3X3X",
"3X3X3X3X3X3X3X3X3X3X3X3X3X3X3X3X3X3X3X3X3X3X3X3X3X3X3X3X3X3X3X3X3X3X3X3X3X3X3X3X3X3X3X3X3X3X3X3X3X3X3X3X3X3X3X3X3X3X3X3X3X3X3X3X",
"3X3X3X3X3X3X3X3X3X3X3X3X3X3X3X3X3X3X3X3X3X3X3X3X3X3X3X3X3X3X3X3X3X3X3X3X3X3X3X3X3X3X3X3X3X3X3X3X3X3X3X3X3X3X3X3X3X3X3X3X3X3X3X3X",
"3X3X3X3X3X3X3X3X3X3X3X3X3X3X3X3X3X3X3X3X3X3X3X3X3X3X3X3X3X` ` 3X3X3X3X3X3X3X3X3X3X3X3X3X3X3X3X3X3X3X3X3X3X3X3X3X3X3X3X3X3X3X3X3X",
"3X3X3X3X3X3X3X3X3X3X3X3X3X3X3X3X3X3X3X3X3X3X3X3X3X3X3X3X3X_ _ 3X3X3X3X3X3X3X3X3X3X3X3X3X3X3X3X3X3X3X3X3X3X3X3X3X3X3X3X3X3X3X3X3X",
"3X3X3X3X3X3X3X3X3X3X3X3X3X3X3X3X3X3X3X3X3X3X3X3X3X3X3X3X3Xl.l.3X3X3X3X3X3X3X3X3X3X3X3X3X3X3X3X3X3X3X3X3X3X3X3X3X3X3X3X3X3X3X3X3X",
"3X3X3X3X3X3X3X3X3X3X3X3X3X3X3X3X3X3X3X3X3X3X3X3X3X3X3X3X3XI.I.3X3X3X3X3X3X3X3X3X3X3X3X3X3X3X3X3X3X3X3X3X3X3X3X3X3X3X3X3X3X3X3X3X",
"3X3X3X3X3X3X3X3X3X3X3X3X3X3X3X3X3X3X3X3X3X3X3X3X3X3X3X3X) :X:X) 3X3X3X3X3X3X3X3X3X3X3X3X3X3X3X3X3X3X3X3X3X3X3X3X3X3X3X3X3X3X3X3X",
"3X3X3X3X3X3X3X3X3X3X3X3X3X3X3X3X3X3X3X3X3X3X3X3X3X3X3X; x N.B.&.k . 3X3X3X3X3X3X3X3X3X3X3X3X3X3X3X3X3X3X3X3X3X3X3X3X3X3X3X3X3X3X",
"3X3X3X3X3X3X3X3X3X3X3X3X3X3X3X3X3X3X3X3X3X3X3X3X3X3X| %.o.s o.4.*.*.| 3X3X3X3X3X3X3X3X3X3X3X3X3X3X3X3X3X3X3X3X3X3X3X3X3X3X3X3X3X",
"3X3X3X3X3X3X3X3X3X3X3X3X3X3X3X3X3X3X3X3X3X3X3X3Xe 7 =.R.E.R.R.R.E.W.9.u X.3X3X3X3X3X3X3X3X3X3X3X3X3X3X3X3X3X3X3X3X3X3X3X3X3X3X3X",
"3X3X3X3X3X3X3X3X3X3X3X3X3X3X3X3X3X3X3X3X3X3X3X1X..=.i.m.+X@X@X@X@X$X`.i.@XZ.k 3X3X3X3X3X3X3X3X3X3X3X3X3X3X3X3X3X3X3X3X3X3X3X3X3X",
"3X3X3X3X3X3X3X3X3X3X3X3X3X3X3X3X3X3X3X3X3X3X3XT.*.=.9.W.&X>X=X=X*X*X$X|.C. XE.  3X3X3X3X3X3X3X3X3X3X3X3X3X3X3X3X3X3X3X3X3X3X3X3X",
"3X3X3X3X3X3X3X3X3X3X3X3X3X3X3X3X3X3X3X3X3X3Xh.x.b.;.X.6.}.{.{.oX$X=X@X(.} |.*X9.3X3X3X3X3X3X3X3X3X3X3X3X3X3X3X3X3X3X3X3X3X3X3X3X",
"3X3X3X3X3X3X3X3X3X3X3X3X3X3X3X3X3X3X3X3Xy * t.K.z.{ s $.a.m.i.p.OX*X[.h.y.{.*XOXX.3X3X3X3X3X3X3X3X3X3X3X3X3X3X3X3X3X3X3X3X3X3X3X",
"3X3X3X3X3X3X3X3X3X3X3X3X3X3X3X3X3X3X3Xr $.9.8.Q Q :.!.*X@X*X`.=.w.v.Y.2Xy.>.0.5.e 3X3X3X3X3X3X3X3X3X3X3X3X3X3X3X3X3X3X3X3X3X3X3X",
"3X3X3X3X3X3X3X3X3X3X3X3X3X3X3X3X3X3X3XP =.i.p.<.&.y.p.m.$X>X`.] ;XJ.l.V.L r ..*.3.k 3X3X3X3X3X3X3X3X3X3X3X3X3X3X3X3X3X3X3X3X3X3X",
"3X3X3X3X3X3X3X3X3X3X3X3X3X3X3X3X3X3X3XP *.6.i.9.>.5.*.*.@X@Xm.( :XH.c   9.@.P q.).).5.3X3X3X3X3X3X3X3X3X3X3X3X3X3X3X3X3X3X3X3X3X",
"3X3X3X3X3X3X3X3X3X3X3X3X3X3X3X3X3X3X3XP *.=.*.*.=.l +.E.$X_.<.Q j.g./ 2.*Xm.| m.$X>X{.< 3X3X3X3X3X3X3X3X3X3X3X3X3X3X3X3X3X3X3X3X",
"3X3X3X3X3X3X3X3X3X3X3X3X3X3X3X3X3X3X3Xi :.X.l K K r @.E.$X=X(.h Z M n.@X*X^.%.@.@X>X'.O 3X3X3X3X3X3X3X3X3X3X3X3X3X3X3X3X3X3X3X3X",
"3X3X3X3X3X3X3X3X3X3X3X3X3X3X3X3X3X3X3X@ X o 9 q q 0 *.Z.!.@X$X(.3.:.m.{.*X@X^.6.!.@X}./ G 3X3X3X3X3X3X3X3X3X3X3X3X3X3X3X3X3X3X3X",
"3X3X3X3X3X3X3X3X3X3X3X3X3X3X3X3X3X3X3X-./.d.p w 9 q +.6.9.).oXOXXX~.w.q.).{.!.8.,.#X#X^ G 3X3X3X3X3X3X3X3X3X3X3X3X3X3X3X3X3X3X3X",
"3X3X3X3X3X3X3X3X3X3X3X3X3X3X3X3X3X3X3X/.-X].%.r q u k P q.q.6.M.1X.X6.9.r #.@.C ^ ;X;Xh 3X3X3X3X3X3X3X3X3X3X3X3X3X3X3X3X3X3X3X3X",
"3X3X3X3X3X3X3X3X3X3X3X3X3X3X3X3X3Xc 4 | d.7.r k k k P @.=.P & #.U.c.> i *.q.8.V v u.Z.*.3X3X3X3X3X3X3X3X3X3X3X3X3X3X3X3X3X3X3X3X",
"3X3X3X3X3X3X3X3X3X3X3X3X3X3X3X3X3Xx 2 8  .P k k r . 6.oXoXR.X.w g.M 4.}.=.>.:.' `.Q.4.K 3X3X3X3X3X3X3X3X3X3X3X3X3X3X3X3X3X3X3X3X",
"3X3X3X3X3X3X3X3X3X3X3X3X3X3X3X3X3Xx 4 7 8 e i u 0   4.oX|.R.*.[ P.1.8.{.Q.5.I ;.oX!.*.@ 3X3X3X3X3X3X3X3X3X3X3X3X3X3X3X3X3X3X3X3X",
"3X3X3X3X3X3X3X3X3X3X3X3X3X3X3X3X3Xc m q e 0 8 8 9 q P *.*.z c l.2XL.c | &X!.=.>.9.4.X.6 3X3X3X3X3X3X3X3X3X3X3X3X3X3X3X3X3X3X3X3X",
"3X3X3X3X3X3X3X3X3X3X3X3X3X3X3X3X3Xd b F F b 5 8 6 +.=.>.a.*.5 ( k.{ x +.$X=X_.*.>.>.+.6 3X3X3X3X3X3X3X3X3X3X3X3X3X3X3X3X3X3X3X3X",
"3X3X3X3X3X3X3X3X3X3X3X3X3X3X3X3X3X1 A H H v 5 7 9 l &.>.5.6.:.V Z B K >.Q.$X`.l *.9.4.< 3X3X3X3X3X3X3X3X3X3X3X3X3X3X3X3X3X3X3X3X",
"3X3X3X3X3X3X3X3X3X3X3X3X3X3X3X3X3X3Xb S S v 4 t 0 a P *.*.9.8.E U w i %.>.oX`.< *.8.:.& 3X3X3X3X3X3X3X3X3X3X3X3X3X3X3X3X3X3X3X3X",
"3X3X3X3X3X3X3X3X3X3X3X3X3X3X3X3X3X3X3Xd d d x x 8 u k l *.=.=.=.i X.@.+.+. X{.q :.! v q 3X3X3X3X3X3X3X3X3X3X3X3X3X3X3X3X3X3X3X3X",
"3X3X3X3X3X3X3X3X3X3X3X3X3X3X3X3X3X3X3X3X3X3X3X3X0 i k l :.+.i k : !.*XoXl '. X0 =.! C F H 3X3X3X3X3X3X3X3X3X3X3X3X3X3X3X3X3X3X3X",
"3X3X3X3X3X3X3X3X3X3X3X3X3X3X3X3X3X3X3X3X3X3X3X3X9 i l l ..K P %.5.W.OX=Xa.i.4.k ..L j W 3X3X3X3X3X3X3X3X3X3X3X3X3X3X3X3X3X3X3X3X",
"3X3X3X3X3X3X3X3X3X3X3X3X3X3X3X3X3X3X3X3X3X3X3X3X8 r k u e e  .4.y.6.p.).i.l : k i q 7 7 3X3X3X3X3X3X3X3X3X3X3X3X3X3X3X3X3X3X3X3X",
"3X3X3X3X3X3X3X3X3X3X3X3X3X3X3X3X3X3X3X3X3X3X3X3X8 8 8 8 8 6 K :.*.=...  O r k k k e 8 8 3X3X3X3X3X3X3X3X3X3X3X3X3X3X3X3X3X3X3X3X",
"3X3X3X3X3X3X3X3X3X3X3X3X3X3X3X3X3X3X3X3X3X3X3X3X3X8 q 8 8 i i y u e u k 8 8 u k q 8 q 8 3X3X3X3X3X3X3X3X3X3X3X3X3X3X3X3X3X3X3X3X",
"3X3X3X3X3X3X3X3X3X3X3X3X3X3X3X3X3X3X3X    h T U n w q 8 8 y y 6 O         @ u k 8 8 q 8 3X3X3X3X3X3X3X3X3X3X3X3X3X3X3X3X3X3X3X3X",
"3X3X3X3X3X3X3X3X3X3X3X3X3X3X3X3X3X3X' b.P.t.V G M < % 8 O . O q X.6.i.q.i.X.+ u 8 8 q 8 3X3X3X3X3X3X3X3X3X3X3X3X3X3X3X3X3X3X3X3X",
"3X3X3X3X3X3X3X3X3X3X3X3X3X3X3X3X3XX k.I.1XB.X F ( E k w | X.p K q.oX=X=X>Xp.  9 q q 8 8 3X3X3X3X3X3X3X3X3X3X3X3X3X3X3X3X3X3X3X3X",
"3X3X3X3X3X3X3X3X3X3X3X3X3X3X3X3X3XX r.H.;.2 o b S.K.v.U oX&X).*.i.m._.=X*X!.*.6 k r 8 3X3X3X3X3X3X3X3X3X3X3X3X3X3X3X3X3X3X3X3X3X",
"3X3X3X3X3X3X3X3X3X3X3X3X3X3X3X3X3X  J.<XG.A.A.D.:X#XF.|.*X=X}.$.5.>.i.}.=X}.3.  q y 8 3X3X3X3X3X3X3X3X3X3X3X3X3X3X3X3X3X3X3X3X3X",
"3X3X3X3X3X3X3X3X3X3X3X3X3X3X3X3X3X  N.;XJ.S.G.I.<XV.e.|.&X=X{.3.@.@.>.9._.p.=.+.e 9 q 3X3X3X3X3X3X3X3X3X3X3X3X3X3X3X3X3X3X3X3X3X",
"3X3X3X3X3X3X3X3X3X3X3X3X3X3X3X3X3Xm x h v h t.K.H.1.; ! OX*X}.q.K @.>.$.0 0 =.i.p 6 3X3X3X3X3X3X3X3X3X3X3X3X3X3X3X3X3X3X3X3X3X3X",
"3X3X3X3X3X3X3X3X3X3X3X3X3X3X3X3X3Xm c x J D H ' ' C ;.p.E.2.;.>.T &.$.k , 5.0.y y 8 3X3X3X3X3X3X3X3X3X3X3X3X3X3X3X3X3X3X3X3X3X3X",
"3X3X3X3X3X3X3X3X3X3X3X3X3X3X3X3X3Xf v S F F D N S C [ ,.=.m U =.1 L | Y S.c.#.& 8 3X3X3X3X3X3X3X3X3X3X3X3X3X3X3X3X3X3X3X3X3X3X3X",
"3X3X3X3X3X3X3X3X3X3X3X3X3X3X3X3X3X5 b D S S S S N J S v 0 5 L &.t.E & L D.} 3 8 3X3X3X3X3X3X3X3X3X3X3X3X3X3X3X3X3X3X3X3X3X3X3X3X",
"3X3X3X3X3X3X3X3X3X3X3X3X3X3X3X3X3X3Xt d d d d d d t 3X3X7 u a R K.1.$ 9 $ 5 4 8 3X3X3X3X3X3X3X3X3X3X3X3X3X3X3X3X3X3X3X3X3X3X3X3X",
"3X3X3X3X3X3X3X3X3X3X3X3X3X3X3X3X3X3X3X3X3X3X3X3X3X3X3X3X8 8 y L ' Y i k l e 8 9 3X3X3X3X3X3X3X3X3X3X3X3X3X3X3X3X3X3X3X3X3X3X3X3X",
"3X3X3X3X3X3X3X3X3X3X3X3X3X3X3X3X3X3X3X3X3X3X3X3X3X3X3X3Xe 8 y y 5 r y u u y 8 y 3X3X3X3X3X3X3X3X3X3X3X3X3X3X3X3X3X3X3X3X3X3X3X3X",
"3X3X3X3X3X3X3X3X3X3X3X3X3X3X3X3X3X3X3X3X3X3X3X3X3X3X3X3X3Xe 8 8 7 7 8 8 8 8 q 3X3X3X3X3X3X3X3X3X3X3X3X3X3X3X3X3X3X3X3X3X3X3X3X3X",
"3X3X3X3X3X3X3X3X3X3X3X3X3X3X3X3X3X3X3X3X3X3X3X3X3X3X3X3X3X3X3X3X3X3X3X3X3X3X3X3X3X3X3X3X3X3X3X3X3X3X3X3X3X3X3X3X3X3X3X3X3X3X3X3X",
"3X3X3X3X3X3X3X3X3X3X3X3X3X3X3X3X3X3X3X3X3X3X3X3X3X3X3X3X3X3X3X3X3X3X3X3X3X3X3X3X3X3X3X3X3X3X3X3X3X3X3X3X3X3X3X3X3X3X3X3X3X3X3X3X",
"3X3X3X3X3X3X3X3X3X3X3X3X3X3X3X3X3X3X3X3X3X3X3X3X3X3X3X3X3X3X3X3X3X3X3X3X3X3X3X3X3X3X3X3X3X3X3X3X3X3X3X3X3X3X3X3X3X3X3X3X3X3X3X3X",
"3X3X3X3X3X3X3X3X3X3X3X3X3X3X3X3X3X3X3X3X3X3X3X3X3X3X3X3X3X3X3X3X3X3X3X3X3X3X3X3X3X3X3X3X3X3X3X3X3X3X3X3X3X3X3X3X3X3X3X3X3X3X3X3X",
"3X3X3X3X3X3X3X3X3X3X3X3X3X3X3X3X3X3X3X3X3X3X3X3X3X3X3X3X3X3X3X3X3X3X3X3X3X3X3X3X3X3X3X3X3X3X3X3X3X3X3X3X3X3X3X3X3X3X3X3X3X3X3X3X",
"3X3X3X3X3X3X3X3X3X3X3X3X3X3X3X3X3X3X3X3X3X3X3X3X3X3X3X3X3X3X3X3X3X3X3X3X3X3X3X3X3X3X3X3X3X3X3X3X3X3X3X3X3X3X3X3X3X3X3X3X3X3X3X3X",
"3X3X3X3X3X3X3X3X3X3X3X3X3X3X3X3X3X3X3X3X3X3X3X3X3X3X3X3X3X3X3X3X3X3X3X3X3X3X3X3X3X3X3X3X3X3X3X3X3X3X3X3X3X3X3X3X3X3X3X3X3X3X3X3X",
"3X3X3X3X3X3X3X3X3X3X3X3X3X3X3X3X3X3X3X3X3X3X3X3X3X3X3X3X3X3X3X3X3X3X3X3X3X3X3X3X3X3X3X3X3X3X3X3X3X3X3X3X3X3X3X3X3X3X3X3X3X3X3X3X",
"3X3X3X3X3X3X3X3X3X3X3X3X3X3X3X3X3X3X3X3X3X3X3X3X3X3X3X3X3X3X3X3X3X3X3X3X3X3X3X3X3X3X3X3X3X3X3X3X3X3X3X3X3X3X3X3X3X3X3X3X3X3X3X3X"
};
