/* XPM */
static char *result[] = {
/* columns rows colors chars-per-pixel */
"64 64 181 2 ",
"   c black",
".  c #090000",
"X  c #09090C",
"o  c #100B06",
"O  c #09181F",
"+  c #131214",
"@  c #191718",
"#  c #1F1D1F",
"$  c #13191C",
"%  c #22000B",
"&  c #2A0B14",
"*  c #3B021D",
"=  c #2C1319",
"-  c #191E23",
";  c #211F21",
":  c #1B2429",
">  c #1D3537",
",  c #222224",
"<  c #2A2023",
"1  c #262629",
"2  c #2A262A",
"3  c #26292C",
"4  c #2A2A2D",
"5  c #36262F",
"6  c #262D32",
"7  c #2C2D31",
"8  c #2E2D38",
"9  c #372C33",
"0  c #2E3135",
"q  c #24363B",
"w  c #2E3439",
"e  c #263A3D",
"r  c #2B393C",
"t  c #313234",
"y  c #31353B",
"u  c #3B353D",
"i  c #33393E",
"p  c #393A3E",
"a  c #123B41",
"s  c #293C40",
"d  c #363C42",
"f  c #393E44",
"g  c #12474B",
"h  c #034C51",
"j  c #0C4C50",
"k  c #1C4C52",
"l  c #005558",
"z  c #1B5C5E",
"x  c #18565A",
"c  c #284747",
"v  c #3B4046",
"b  c #3D4349",
"n  c #36484E",
"m  c #334C52",
"M  c #225559",
"N  c #305157",
"B  c #3C525A",
"V  c #285D63",
"C  c #355960",
"Z  c #016464",
"A  c #0E686A",
"S  c #196266",
"D  c #156A6C",
"F  c #00726E",
"G  c #087775",
"H  c #007877",
"J  c #007B79",
"K  c #007572",
"L  c #157E7D",
"P  c #266368",
"I  c #2A646A",
"U  c #376469",
"Y  c #3D6F72",
"T  c #297D7F",
"R  c #3A7B7C",
"E  c #41464C",
"W  c #42484F",
"Q  c #454B51",
"!  c #4A4D54",
"~  c #504F58",
"^  c #564E57",
"/  c #4B5057",
"(  c #4D545B",
")  c #49585F",
"_  c #52555C",
"`  c #52585F",
"'  c #425F66",
"]  c #4B5961",
"[  c #555C64",
"{  c #585E66",
"}  c #466268",
"|  c #5C636B",
" . c #52686F",
".. c #5E6F76",
"X. c #45777E",
"o. c #63666E",
"O. c #63686F",
"+. c #646C74",
"@. c #696E76",
"#. c #6D6F79",
"$. c #6C727A",
"%. c #627078",
"&. c #71767E",
"*. c #497B81",
"=. c #547F86",
"-. c #687982",
";. c #717780",
":. c #787780",
">. c #747A83",
",. c #787D86",
"<. c #7B7F89",
"1. c #008987",
"2. c #008381",
"3. c #138A89",
"4. c #009491",
"5. c #009F9D",
"6. c #0E9998",
"7. c #268485",
"8. c #3F8188",
"9. c #318589",
"0. c #3F8D93",
"q. c #299D9E",
"w. c #399FA0",
"e. c #01A6A4",
"r. c #00ADA9",
"t. c #2EAAA9",
"y. c #37A3A6",
"u. c #24B1B1",
"i. c #3EB2B4",
"p. c #31B1B0",
"a. c #49868E",
"s. c #59848C",
"d. c #59949C",
"f. c #77858E",
"g. c #7C838C",
"h. c #798790",
"j. c #738992",
"k. c #71919A",
"l. c #579FA7",
"z. c #7A9FA8",
"x. c #45ABB1",
"c. c #5EADB6",
"v. c #57ABB1",
"b. c #41BBBD",
"n. c #58B5BB",
"m. c #62ABB4",
"M. c #64B2BC",
"N. c #6EB5BE",
"B. c #76BCBF",
"V. c #6BB8C2",
"C. c #7DCBD1",
"Z. c #858C95",
"A. c #8A8F97",
"S. c #8D949D",
"D. c #84949E",
"F. c #94959E",
"G. c #9097A0",
"H. c #939AA3",
"J. c #9CA3AC",
"K. c #9FA7B0",
"L. c #9BACB5",
"P. c #96B6BF",
"I. c #A0A7B1",
"U. c #A4ACB5",
"Y. c #A7AFB8",
"T. c #AAB2BC",
"R. c #B2B5BF",
"E. c #9BB9C2",
"W. c #AFB7C1",
"Q. c #AAB8C2",
"!. c #B2BAC4",
"~. c #B1B7C1",
"^. c #89CAD3",
"/. c #B9C1CB",
"(. c #98DEE8",
"). c #98DBE0",
"_. c #97E1E6",
"`. c #ADEBF0",
"'. c #B2ECF3",
"]. c #C0C9D3",
"[. c None",
/* pixels */
"[.[.[.[.[.[.[.[.[.[.[.[.[.[.[.[.[.[.[.[.[.[.[.[.[.[.[.[.[.[.[.[.[.[.[.[.[.[.[.[.[.[.[.[.[.[.[.[.[.[.[.[.[.[.[.[.[.[.[.[.[.[.[.[.",
"[.[.[.[.[.[.[.[.[.[.[.[.[.[.[.[.[.[.[.[.[.[.[.[.[.[.[.[.[.[.[.[.[.[.[.[.[.[.[.[.[.[.[.[.[.[.[.[.[.[.[.[.[.[.[.[.[.[.[.[.[.[.[.[.",
"[.[.[.[.[.[.[.[.[.[.[.[.[.[.[.[.[.[.[.[.[.[.[.[.[.[.[.[.[.[.[.[.[.[.[.[.[.[.[.[.[.[.[.[.[.[.[.[.[.[.[.[.[.[.[.[.[.[.[.[.[.[.[.[.",
"[.[.[.[.[.[.[.[.[.[.[.[.[.[.[.[.[.[.[.[.[.[.[.[.[.[.[.[.[.[.[.[.[.[.[.[.[.[.[.[.[.[.[.[.[.[.[.[.[.[.[.[.[.[.[.[.[.[.[.[.[.[.[.[.",
"[.[.[.[.[.[.[.[.[.[.[.[.[.[.[.[.[.[.[.[.[.[.[.[.[.[.[.[.[.[.[.[.[.[.[.[.[.[.[.[.[.[.[.[.[.[.[.[.[.[.[.[.[.[.[.[.[.[.[.[.[.[.[.[.",
"[.[.[.[.[.[.[.[.[.[.[.[.[.[.[.[.[.[.[.[.[.[.[.[.[.[.[.[.[.[.[.[.[.[.[.[.[.[.[.[.[.[.[.[.[.[.[.[.[.[.[.[.[.[.[.[.[.[.[.[.[.[.[.[.",
"[.[.[.[.[.[.[.[.[.[.[.[.[.[.[.[.[.[.[.[.[.[.[.[.[.[.[.[.[.[.[.[.[.[.[.[.[.[.[.[.[.[.[.[.[.[.[.[.[.[.[.[.[.[.[.[.[.[.[.[.[.[.[.[.",
"[.[.[.[.[.[.[.[.[.[.[.[.[.[.[.[.[.[.[.[.[.[.[.[.[.[.[.[.[.[.[.[.[.[.[.[.[.[.[.[.[.[.[.[.[.[.[.[.[.[.[.[.[.[.[.[.[.[.[.[.[.[.[.[.",
"[.[.[.[.[.[.[.[.[.[.[.[.[.[.[.[.[.[.[.[.[.[.[.[.[.[.[.[.[.[.[.'.[.[.[.[.[.[.[.[.[.[.[.[.[.[.[.[.[.[.[.[.[.[.[.[.[.[.[.[.[.[.[.[.",
"[.[.[.[.[.[.[.[.[.[.[.[.[.[.[.[.[.[.[.[.[.[.[.[.[.[.[.[.[.[.[.^.[.[.[.[.[.[.[.[.[.[.[.[.[.[.[.[.[.[.[.[.[.[.[.[.[.[.[.[.[.[.[.[.",
"[.[.[.[.[.[.[.[.[.[.[.[.[.[.[.[.[.[.[.[.[.[.[.[.[.[.[.[.[.[.[.x.[.[.[.[.[.[.[.[.[.[.[.[.[.[.[.[.[.[.[.[.[.[.[.[.[.[.[.[.[.[.[.[.",
"[.[.[.[.[.[.[.[.[.[.[.[.[.[.[.[.[.[.[.[.[.[.[.[.[.[.[.[.[.[.[.e.[.[.[.[.[.[.[.[.[.[.[.[.[.[.[.[.[.[.[.[.[.[.[.[.[.[.[.[.[.[.[.[.",
"[.[.[.[.[.[.[.[.[.[.[.[.[.[.[.[.[.[.[.[.[.[.[.[.[.[.[.[.[.[.[.1.[.[.[.[.[.[.[.[.[.[.[.[.[.[.[.[.[.[.[.[.[.[.[.[.[.[.[.[.[.[.[.[.",
"[.[.[.[.[.[.[.[.[.[.[.[.[.[.[.[.[.[.[.[.[.[.[.[.[.[.[.[.[.[.[.D e.[.[.[.[.[.[.[.[.[.[.[.[.[.[.[.[.[.[.[.[.[.[.[.[.[.[.[.[.[.[.[.",
"[.[.[.[.[.[.[.[.[.[.[.[.[.[.[.[.[.[.[.[.[.[.[.[.[.[.[.[.[.[.k S r.[.[.[.[.[.[.[.[.[.[.[.[.[.[.[.[.[.[.[.[.[.[.[.[.[.[.[.[.[.[.[.",
"[.[.[.[.[.[.[.[.[.[.[.[.M.[.[.[.[.[.[.[.[.[.[.[.[.[.[.[.[.x z x G [.[.[.[.[.[.[.[.[.[.[.[.[.[.[.[.[.[.M.[.[.[.[.[.[.[.[.[.[.[.[.",
"[.[.[.[.[.[.[.[.[.[.[.[.[.V.v.F [.[.[.0 i 2 E o.| y   + [ b $ : , o ! >.;.>.| : { | | { f d * [.e._.'.[.[.[.[.[.[.[.[.[.[.[.[.[.",
"[.[.[.[.[.[.[.[.[.[.[.[.[.[.y.t.`.(.a.= ! f p W | Z.J.G.@.| o.+.d.C &.T.T.T.U.H.( f Q Q u 8 D r.4.V.[.[.[.[.[.[.[.[.[.[.[.[.[.[.",
"[.[.[.[.[.[.[.[.[.[.[.[.[.[.[.p.).C.0.s s.} 2 , b K./.!.+.$.g.f.V.z.H.U.U.U.U.U.E X 7 d q A q.b.3.[.[.[.[.[.[.[.[.[.[.[.[.[.[.[.",
"[.[.[.[.[.[.[.[.[.[.[.[.[.[.[.J F K Z I N.s.& 4   G.!.U.@.@.<.j.c.E.J.$.;.;.;.$.E f f d k 4.i.m.7.[.[.[.[.[.[.[.[.[.[.[.[.[.[.[.",
"[.[.[.[.[.[.[.[.[.[.[.[.[.[.[.c J A h U Q.g.$ i y ( $.g.:.&.k.n.u.9.' | >.g.;.{ d @.@.r h J L V > i v [.[.[.[.[.[.[.[.[.[.[.[.[.",
"[.[.[.[.[.[.[.[.[.[.[.[.[.[.[.3 Z l C -.H.o.O w 6 Z.I.K.g.#.D.P.R M ] @.;.+.{ [ f E E b %.U l j o._ 3 [.[.[.[.[.[.[.[.[.[.[.[.[.",
"[.[.[.[.[.[.[.[.[.[.[.[.[.[.p W B ' +.;.o.[ [ ( 6 H.!.I.g.Z.U.W.^ ~ g.H.H.A.:.] 6 o.o.d ,.%.'  .g.`   [.[.[.[.[.[.[.[.[.[.[.[.[.",
"[.[.[.[.[.[.[.[.[.[.[.[.[.# W | { ;.;.] 0 @.g.>.y H.U.$.;.J.W.U.@.+.F.!.!.!.K.( W I.K.m >.<.<.<.f.[ . [.[.[.[.[.[.[.[.[.[.[.[.[.",
"[.[.[.[.[.[.[.[.[.[.[.[.[.@ 6 E { | | [ d +.g.>.y [ +.o.,.| [ @.,.,.,.Z.W./.J.| U.~.E.c.<.>.,.<.N.*.  [.[.[.[.[.[.[.[.[.[.[.[.[.",
"[.[.[.[.[.[.[.[.[.[.[.[.[.@.o.i Q Q ( | d @.&.( 4 ! | | @.Q d [ [ $.;.@.S.H.h.| F.~.K.*.+.>.>.+.*.-.o.[.[.[.[.[.[.[.[.[.[.[.[.[.",
"[.[.[.[.[.[.[.[.[.[.[.[.[.Z.>.6 y w b ] 0 @.@.- 1 W ( / ( b Q | q | @.[ +.@.o.( [ H.A.o ] #.+.! = ;.Z.[.[.[.[.[.[.[.[.[.[.[.[.[.",
"[.[.[.[.[.[.[.[.[.[.[.[.[.<.@., d f d y , +.+.# 3 d b b d w Q { S ' [ | [ | / w + o.o.d [ { / s w $.,.[.[.[.[.[.[.[.[.[.[.[.[.[.",
"[.[.[.[.[.[.[.[.[.[.[.[.[.p p 4 d f p 4 1 f v 2 @ o.<.$.b d 5 r 5.J B | { | ! 1 1 f b f f b v d f b y [.[.[.[.[.[.[.[.[.[.[.[.[.",
"[.[.[.[.[.[.[.[.[.[.[.[.[.[.; 0 d y 7 4 y 0 2 7 ! $.h.,.[ u z 6.n.9.a ! $.,.| 3 4 3 7 y d y 7 t w 1 [.[.[.[.[.[.[.[.[.[.[.[.[.[.",
"[.[.[.[.[.[.[.[.[.[.[.[.[.[.[.7 y 7 3 6 p w 6 i ( @.&.$.| ! Y w.l.*.m ! $.;.+.b y 7 1 4 y 7 3 4 4 [.[.[.[.[.[.[.[.[.[.[.[.[.[.[.",
"[.[.[.[.[.[.[.[.[.[.[.[.[.[.[.7 4 4 7 4 3 y f d i / [ [ [ | { ^ g ] | | { [ | | b 7 4 7 4 4 4 7 7 [.[.[.[.[.[.[.[.[.[.[.[.[.[.[.",
"[.[.[.[.[.[.[.[.[.[.[.[.[.[.[.4 4 4 4 4 4 y d d d f f b b v d 7 3 ( | | | | | [ b 7 3 4 4 3 t d 4 [.[.[.[.[.[.[.[.[.[.[.[.[.[.[.",
"[.[.[.[.[.[.[.[.[.[.[.[.[.[.v ( d 7 4 4 4 i f d f y 6 7 7 i y 1 ; i E Q Q [ [ Q d p y 4 4 2 0 v ( f [.[.[.[.[.[.[.[.[.[.[.[.[.[.",
"[.[.[.[.[.[.[.[.[.[.[.[.[.= ! | E 7 3 4 3 w d d p 6 1 4 7 y i 2 q 6 7 y r ! ! w d d y 4 4 7 y v | / = [.[.[.[.[.[.[.[.[.[.[.[.[.",
"[.[.[.[.[.[.[.[.[.[.[.[.[.: E [ v 0 4 6 4 2 t d 4 4 7 7 b f y q P m d b f d r d d 7 3 4 4 i d f [ E : [.[.[.[.[.[.[.[.[.[.[.[.[.",
"[.[.[.[.[.[.[.[.[.[.[.[.[.4 t t d d d p 7 3 t d 7 y i d [ Q s P m.*.m { | b 1 7 4 7 4 4 3 i f d p [.[.[.[.[.[.[.[.[.[.[.[.[.[.[.",
"[.[.[.[.[.[.[.[.[.[.[.[.[.[.4 4 0 d d 0 7 4 7 0 4 y W [ | ! 7 M i.T f { / f 7 2 4 6 4 7 y 0 i d [.[.[.[.[.[.[.[.[.[.[.[.[.[.[.[.",
"[.[.[.[.[.[.[.[.[.[.[.[.[.[.[.t 2 y 0 3 4 4 4 3 4 0 E [ ` E 7 r 1.z u ( d d d 3 4 4 4 7 p 6 0 y [.[.[.[.[.[.[.[.[.[.[.[.[.[.[.[.",
"[.[.[.[.[.[.[.[.[.[.[.[.[.[.[.4 4 4 4 4 4 4 4 4 4 4 6 y y d y 2 & 2 0 y d d y 4 4 4 4 4 4 4 4 4 [.[.[.[.[.[.[.[.[.[.[.[.[.[.[.[.",
"[.[.[.[.[.[.[.[.[.[.[.[.[.[.[.[.4 7 7 7 4 4 4 4 4 4 4 4 6 7 7 4 2 2 7 7 6 7 4 4 4 4 4 7 t t 4 [.[.[.[.[.[.[.[.[.[.[.[.[.[.[.[.[.",
"[.[.[.[.[.[.[.[.[.[.[.[.[.[.[.[.[.[.[.[.7 7 6 4 4 y w 2 4 3 4 7 k e 2 2 1 0 p y 4 7 4 [.[.[.[.[.[.[.[.[.[.[.[.[.[.[.[.[.[.[.[.[.",
"[.[.[.[.[.[.[.[.[.[.[.[.[.[.[.[.[.[.[.[.4 4 4 4 4 i d 0 t 7 4 6 k e 2 w 0 d d y 7 7 4 [.[.[.[.[.[.[.[.[.[.[.[.[.[.[.[.[.[.[.[.[.",
"[.[.[.[.[.[.[.[.[.[.[.[.[.[.[.[.[.[.[.[.[.4 t 4 6 w d f d t 4 4 2 2 w f d f y 4 4 0 4 [.[.[.[.[.[.[.[.[.[.[.[.[.[.[.[.[.[.[.[.[.",
"[.[.[.[.[.[.[.[.[.[.[.[.[.[.[.[.[.[.[.[.[.4 7 7 d d d f v t 4 4 4 y d d d d d d 7 7 4 [.[.[.[.[.[.[.[.[.[.[.[.[.[.[.[.[.[.[.[.[.",
"[.[.[.[.[.[.[.[.[.[.[.[.[.[.[.[.[.[.[.[.[.[.7 7 0 d p 7 0 7 4 4 3 p f f d f i 0 7 4 [.[.[.[.[.[.[.[.[.[.[.[.[.[.[.[.[.[.[.[.[.[.",
"[.[.[.[.[.[.[.[.[.[.[.[.[.[.[.[.[.[.[.[.[.[.t 4 3 t w 4 4 4 7 4 4 t y i r y y 2 4 t [.[.[.[.[.[.[.[.[.[.[.[.[.[.[.[.[.[.[.[.[.[.",
"[.[.[.[.[.[.[.[.[.[.[.[.[.[.[.[.[.[.[.[.[.[.7 4 4 4 4 4 4 4 4 4 4 4 4 4 4 4 4 4 7 7 [.[.[.[.[.[.[.[.[.[.[.[.[.[.[.[.[.[.[.[.[.[.",
"[.[.[.[.[.[.[.[.[.[.[.[.[.[.[.[.[.[.[.[.[.7 4 4 4 4 4 4 4 7 7 [.[.4 7 4 4 4 4 4 4 4 7 [.[.[.[.[.[.[.[.[.[.[.[.[.[.[.[.[.[.[.[.[.",
"[.[.[.[.[.[.[.[.[.[.[.[.[.[.[.[.[.[.[.[.[.4 7 4 4 4 4 4 4 4 4 [.[.7 7 4 4 7 4 4 4 0 4 [.[.[.[.[.[.[.[.[.[.[.[.[.[.[.[.[.[.[.[.[.",
"[.[.[.[.[.[.[.[.[.[.[.[.[.[.[.[.[.[.[.[.[.4 t t 0 0 7 4 4 7 4 [.[.0 7 4 4 4 4 4 4 4 0 [.[.[.[.[.[.[.[.[.[.[.[.[.[.[.[.[.[.[.[.[.",
"[.[.[.[.[.[.[.[.[.[.[.[.[.[.[.[.[.[.[.[.[.4 y d f f p 7 0 4 7 [.[.4 4 4 7 7 4 6 4 0 4 [.[.[.[.[.[.[.[.[.[.[.[.[.[.[.[.[.[.[.[.[.",
"[.[.[.[.[.[.[.[.[.[.[.[.[.[.[.[.[.[.[.[.[.4 y v d f d p f y [.[.[.[.7 7 p d d p 4 7 4 [.[.[.[.[.[.[.[.[.[.[.[.[.[.[.[.[.[.[.[.[.",
"[.[.[.[.[.[.[.[.[.[.[.[.[.[.[.[.[.[.[.[.[.[.t y 0 w y y i t [.[.[.[.7 t y y y y t 4 [.[.[.[.[.[.[.[.[.[.[.[.[.[.[.[.[.[.[.[.[.[.",
"[.[.[.[.[.[.[.[.[.[.[.[.[.[.[.[.[.[.[.[.[.[.[.4 4 4 4 4 4 [.[.[.[.[.[.4 4 4 4 4 4 [.[.[.[.[.[.[.[.[.[.[.[.[.[.[.[.[.[.[.[.[.[.[.",
"[.[.[.[.[.[.[.[.[.[.[.[.[.[.[.[.[.[.[.[.[.[.[.[.[.[.[.[.[.[.[.[.[.[.[.[.[.[.[.[.[.[.[.[.[.[.[.[.[.[.[.[.[.[.[.[.[.[.[.[.[.[.[.[.",
"[.[.[.[.[.[.[.[.[.[.[.[.[.[.[.[.[.[.[.[.[.[.[.[.[.[.[.[.[.[.[.[.[.[.[.[.[.[.[.[.[.[.[.[.[.[.[.[.[.[.[.[.[.[.[.[.[.[.[.[.[.[.[.[.",
"[.[.[.[.[.[.[.[.[.[.[.[.[.[.[.[.[.[.[.[.[.[.[.[.[.[.[.[.[.[.[.[.[.[.[.[.[.[.[.[.[.[.[.[.[.[.[.[.[.[.[.[.[.[.[.[.[.[.[.[.[.[.[.[.",
"[.[.[.[.[.[.[.[.[.[.[.[.[.[.[.[.[.[.[.[.[.[.[.[.[.[.[.[.[.[.[.[.[.[.[.[.[.[.[.[.[.[.[.[.[.[.[.[.[.[.[.[.[.[.[.[.[.[.[.[.[.[.[.[.",
"[.[.[.[.[.[.[.[.[.[.[.[.[.[.[.[.[.[.[.[.[.[.[.[.[.[.[.[.[.[.[.[.[.[.[.[.[.[.[.[.[.[.[.[.[.[.[.[.[.[.[.[.[.[.[.[.[.[.[.[.[.[.[.[.",
"[.[.[.[.[.[.[.[.[.[.[.[.[.[.[.[.[.[.[.[.[.[.[.[.[.[.[.[.[.[.[.[.[.[.[.[.[.[.[.[.[.[.[.[.[.[.[.[.[.[.[.[.[.[.[.[.[.[.[.[.[.[.[.[.",
"[.[.[.[.[.[.[.[.[.[.[.[.[.[.[.[.[.[.[.[.[.[.[.[.[.[.[.[.[.[.[.[.[.[.[.[.[.[.[.[.[.[.[.[.[.[.[.[.[.[.[.[.[.[.[.[.[.[.[.[.[.[.[.[.",
"[.[.[.[.[.[.[.[.[.[.[.[.[.[.[.[.[.[.[.[.[.[.[.[.[.[.[.[.[.[.[.[.[.[.[.[.[.[.[.[.[.[.[.[.[.[.[.[.[.[.[.[.[.[.[.[.[.[.[.[.[.[.[.[.",
"[.[.[.[.[.[.[.[.[.[.[.[.[.[.[.[.[.[.[.[.[.[.[.[.[.[.[.[.[.[.[.[.[.[.[.[.[.[.[.[.[.[.[.[.[.[.[.[.[.[.[.[.[.[.[.[.[.[.[.[.[.[.[.[."
};
