/* XPM */
static char *result[] = {
/* columns rows colors chars-per-pixel */
"64 64 209 2 ",
"   c #2A1A20",
".  c #2A2528",
"X  c #2B262A",
"o  c #28282B",
"O  c #2A2A2B",
"+  c #29292C",
"@  c #2A292C",
"#  c #282A2C",
"$  c #292A2C",
"%  c #292A2D",
"&  c #292B2D",
"*  c #2A2A2D",
"=  c #2A2B2D",
"-  c #2B2B2D",
";  c #292B2E",
":  c #2A2B2E",
">  c #2B2B2E",
",  c #2A2B2F",
"<  c #2B2B2F",
"1  c #2C2A2D",
"2  c #2C2A2E",
"3  c #282C2F",
"4  c #292C2F",
"5  c #2B2C2E",
"6  c #2A2C2F",
"7  c #2B2C2F",
"8  c #2B2D2F",
"9  c #2C2C2E",
"0  c #2C2D2F",
"q  c #2D2D2F",
"w  c #2C2E2F",
"e  c #2B2C30",
"r  c #2B2D30",
"t  c #2B2D31",
"y  c #292E31",
"u  c #2B2E30",
"i  c #2B2E31",
"p  c #2B2E32",
"a  c #2C2C30",
"s  c #2C2D30",
"d  c #2D2D30",
"f  c #2C2D31",
"g  c #2D2D31",
"h  c #2C2E30",
"j  c #2D2F30",
"k  c #2C2E31",
"l  c #2D2E31",
"z  c #2D2F31",
"x  c #2F2F30",
"c  c #2E2E31",
"v  c #2E2F31",
"b  c #2F2F31",
"n  c #2C2E32",
"m  c #2D2E32",
"M  c #2C2F32",
"N  c #2D2F32",
"B  c #2C2F33",
"V  c #2D2F33",
"C  c #2E2F32",
"Z  c #273135",
"A  c #2D3032",
"S  c #2D3033",
"D  c #2E3033",
"F  c #293034",
"G  c #283134",
"H  c #293134",
"J  c #2B3237",
"K  c #2D3034",
"L  c #2C3035",
"P  c #2D3035",
"I  c #2E3034",
"U  c #2F3034",
"Y  c #2E3134",
"T  c #2F3134",
"R  c #2E3035",
"E  c #2F3035",
"W  c #2E3135",
"Q  c #2F3135",
"!  c #2F3235",
"~  c #2C3136",
"^  c #2D3136",
"/  c #2F3136",
"(  c #2E3236",
")  c #2F3236",
"_  c #2F3237",
"`  c #2F3337",
"'  c #27373B",
"]  c #2F3338",
"[  c #2E363A",
"{  c #26383C",
"}  c gray19",
"|  c #303031",
" . c #303032",
".. c #303237",
"X. c #303337",
"o. c #303238",
"O. c #303338",
"+. c #303339",
"@. c #303438",
"#. c #303439",
"$. c #313539",
"%. c #30343A",
"&. c #30353A",
"*. c #31353A",
"=. c #32353A",
"-. c #31363B",
";. c #32363B",
":. c #34353A",
">. c #37353B",
",. c #34373B",
"<. c #32363C",
"1. c #32373C",
"2. c #33373C",
"3. c #32373D",
"4. c #33373D",
"5. c #33383D",
"6. c #32383E",
"7. c #33383E",
"8. c #33393E",
"9. c #33393F",
"0. c #34393E",
"q. c #34393F",
"w. c #343A3F",
"e. c #353A3F",
"r. c #363A3F",
"t. c #263F41",
"y. c #2F3B40",
"u. c #343940",
"i. c #343A40",
"p. c #353A40",
"a. c #353A41",
"s. c #353B41",
"d. c #363A40",
"f. c #363B40",
"g. c #363A41",
"h. c #363B41",
"j. c #373B41",
"k. c #363B42",
"l. c #353C42",
"z. c #363C42",
"x. c #373C42",
"c. c #363C43",
"v. c #363D43",
"b. c #373D43",
"n. c #393D41",
"m. c #3A3C41",
"M. c #393E43",
"N. c #3A3E43",
"B. c #383E44",
"V. c #393E44",
"C. c #433E45",
"Z. c #2B4143",
"A. c #294347",
"S. c #2C4145",
"D. c #21464B",
"F. c #2E484D",
"G. c #3B4147",
"H. c #3D4045",
"J. c #3C4147",
"K. c #3D4147",
"L. c #3B4248",
"P. c #3C4148",
"I. c #3E4148",
"U. c #3D4248",
"Y. c #3C4249",
"T. c #3D4349",
"R. c #3D434A",
"E. c #3E444A",
"W. c #3E444B",
"Q. c #3D474E",
"!. c #31484E",
"~. c #225655",
"^. c #2D5055",
"/. c #2E565C",
"(. c #256264",
"). c #2E6364",
"_. c #31656A",
"`. c #39666B",
"'. c #3B767B",
"]. c #36787D",
"[. c #40464C",
"{. c #41464C",
"}. c #41474D",
"|. c #42484D",
" X c #41484E",
".X c #42484F",
"XX c #444A51",
"oX c #424C53",
"OX c #464C52",
"+X c #474C52",
"@X c #474D54",
"#X c #474E55",
"$X c #494E54",
"%X c #4A5158",
"&X c #4B5158",
"*X c #4C5259",
"=X c #4D535A",
"-X c #4E545B",
";X c #4E555C",
":X c #50575E",
">X c #51585F",
",X c #52585F",
"<X c #535A61",
"1X c #535A62",
"2X c #585E66",
"3X c #218B8A",
"4X c #41848A",
"5X c #4B9FA5",
"6X c None",
/* pixels */
"6X6X6X6X6X6X6X6X6X6X6X6X6X,.$X>Xb.p + : k ;.s.s.1.n % e W 4.%.3 Z ~ =.v.Y.%X#Xi.l.7.) * , n d.XX,XK.6X6X6X6X6X6X6X6X6X6X6X6X6X6X",
"6X6X6X6X6X6X6X6X6X6X6X6X6X:.+X;Xb.K 7 s 7 W <.9.R r i ) x.g.y.A./.!.z.P.T.E.G.u.8._ e : t &.V..X-XH.6X6X6X6X6X6X6X6X6X6X6X6X6X6X",
"6X6X6X6X6X6X6X6X6X6X6X6X6XU N.{.h.-.@.W : 7 ` 1.f ( e.U.@XG.F._.4X`.Q.&XOXf.L O.) e $ 7 S 7.B.J.|.m.6X6X6X6X6X6X6X6X6X6X6X6X6X6X",
"6X6X6X6X6X6X6X6X6X6X6X6X6XO $ k 2.s.q.O.6 7 W #.V 0.}.*X<X[.^.].5X'.oX2X=Xn.# % % : , f ) 1.q.4.o 6X6X6X6X6X6X6X6X6X6X6X6X6X6X6X",
"6X6X6X6X6X6X6X6X6X6X6X6X6X6X& l S *.O.: : : 6 e h r.@X1X:XI.S.(.3X).C.;XL.i.] % : : 7 D *.X._ w.6X6X6X6X6X6X6X6X6X6X6X6X6X6X6X6X",
"6X6X6X6X6X6X6X6X6X6X6X6X6X6X6X: 7 V n : : : : : : ! M. XW.j.[ t.~.Z.>.R.a.7.` % : : 7 k I k u E 6X6X6X6X6X6X6X6X6X6X6X6X6X6X6X6X",
"6X6X6X6X6X6X6X6X6X6X6X6X6X6X6X: : % % ; : : : : : 5 i L P ( m .   X M ^ +.O.I 5 : : = : $ % ; 6X6X6X6X6X6X6X6X6X6X6X6X6X6X6X6X6X",
"6X6X6X6X6X6X6X6X6X6X6X6X6X6X6X6X> ; - : : : : : e V n % * * 4 G { F @ : < V W N 7 ; ; : : > 6X6X6X6X6X6X6X6X6X6X6X6X6X6X6X6X6X6X",
"6X6X6X6X6X6X6X6X6X6X6X6X6X6X6X6X6X6X6X6X& : : : n ;.-.k k > y { D.' 1 B / 5.q.@.r * 6X6X6X6X6X6X6X6X6X6X6X6X6X6X6X6X6X6X6X6X6X6X",
"6X6X6X6X6X6X6X6X6X6X6X6X6X6X6X6X6X6X6X6X6X= s e R 0.s.5.;.m ; H ' J ..8.q.p.4.S 7 = 6X6X6X6X6X6X6X6X6X6X6X6X6X6X6X6X6X6X6X6X6X6X",
"6X6X6X6X6X6X6X6X6X6X6X6X6X6X6X6X6X6X6X6X6X7 s m *.p.v.z.q.K + * 2 ..p.b.b.k.1.D 6 : d 6X6X6X6X6X6X6X6X6X6X6X6X6X6X6X6X6X6X6X6X6X",
"6X6X6X6X6X6X6X6X6X6X6X6X6X6X6X6X6X6X6X6X6Xs e I 5.p.q.<.*.n % , B 7.b.z.z.s.0.O.7 < | 6X6X6X6X6X6X6X6X6X6X6X6X6X6X6X6X6X6X6X6X6X",
"6X6X6X6X6X6X6X6X6X6X6X6X6X6X6X6X6X6X6X6X6X6Xw s S *.O.6 7 : : 7 z ;.i.q.q.7.` 7 5  .6X6X6X6X6X6X6X6X6X6X6X6X6X6X6X6X6X6X6X6X6X6X",
"6X6X6X6X6X6X6X6X6X6X6X6X6X6X6X6X6X6X6X6X6X6Xd 7 7 k f % = % : : e V R K K V f ; 7 | 6X6X6X6X6X6X6X6X6X6X6X6X6X6X6X6X6X6X6X6X6X6X",
"6X6X6X6X6X6X6X6X6X6X6X6X6X6X6X6X6X6X6X6X6Xx > : : % % : : ; a c h = * $ $ % = : : s 6X6X6X6X6X6X6X6X6X6X6X6X6X6X6X6X6X6X6X6X6X6X",
"6X6X6X6X6X6X6X6X6X6X6X6X6X6X6X6X6X6X6X6X6X7 f : , : : : : : z 6X6X5 s : : : : : 7 : k 6X6X6X6X6X6X6X6X6X6X6X6X6X6X6X6X6X6X6X6X6X",
"6X6X6X6X6X6X6X6X6X6X6X6X6X6X6X6X6X6X6X6X6X0 m B B n 8 * : 5 c 6X6X8 s : : : : : : : d 6X6X6X6X6X6X6X6X6X6X6X6X6X6X6X6X6X6X6X6X6X",
"6X6X6X6X6X6X6X6X6X6X6X6X6X6X6X6X6X6X6X6X6Xf $.q.8.4.X.r r 7 z 6X6X8 , 7 t i f r 7 7 j 6X6X6X6X6X6X6X6X6X6X6X6X6X6X6X6X6X6X6X6X6X",
"6X6X6X6X6X6X6X6X6X6X6X6X6X6X6X6X6X6X6X6X6XA ;.b.c.k.7.] X.T 6X6X6Xv e V @.%.@.Q 7 : g 6X6X6X6X6X6X6X6X6X6X6X6X6X6X6X6X6X6X6X6X6X",
"6X6X6X6X6X6X6X6X6X6X6X6X6X6X6X6X6X6X6X6X6XC o.3.3.4.3.6.5.6X6X6X6X6Xv Y 4.7.4.@.7 9  .6X6X6X6X6X6X6X6X6X6X6X6X6X6X6X6X6X6X6X6X6X",
"6X6X6X6X6X6X6X6X6X6X6X6X6X6X6X6X6X6X6X6X6X6XN t i i f s g 6X6X6X6X6Xz e i i t s q 6X6X6X6X6X6X6X6X6X6X6X6X6X6X6X6X6X6X6X6X6X6X6X",
"6X6X6X6X6X6X6X6X6X6X6X6X6X6X6X6X6X6X6X6X6X6X6Xb } } 6X6X6X6X6X6X6X6X6X .6X6X6X6X6X6X6X6X6X6X6X6X6X6X6X6X6X6X6X6X6X6X6X6X6X6X6X6X",
"6X6X6X6X6X6X6X6X6X6X6X6X6X6X6X6X6X6X6X6X6X6X6X6X6X6X6X6X6X6X6X6X6X6X6X6X6X6X6X6X6X6X6X6X6X6X6X6X6X6X6X6X6X6X6X6X6X6X6X6X6X6X6X6X",
"6X6X6X6X6X6X6X6X6X6X6X6X6X6X6X6X6X6X6X6X6X6X6X6X6X6X6X6X6X6X6X6X6X6X6X6X6X6X6X6X6X6X6X6X6X6X6X6X6X6X6X6X6X6X6X6X6X6X6X6X6X6X6X6X",
"6X6X6X6X6X6X6X6X6X6X6X6X6X6X6X6X6X6X6X6X6X6X6X6X6X6X6X6X6X6X6X6X6X6X6X6X6X6X6X6X6X6X6X6X6X6X6X6X6X6X6X6X6X6X6X6X6X6X6X6X6X6X6X6X",
"6X6X6X6X6X6X6X6X6X6X6X6X6X6X6X6X6X6X6X6X6X6X6X6X6X6X6X6X6X6X6X6X6X6X6X6X6X6X6X6X6X6X6X6X6X6X6X6X6X6X6X6X6X6X6X6X6X6X6X6X6X6X6X6X",
"6X6X6X6X6X6X6X6X6X6X6X6X6X6X6X6X6X6X6X6X6X6X6X6X6X6X6X6X6X6X6X6X6X6X6X6X6X6X6X6X6X6X6X6X6X6X6X6X6X6X6X6X6X6X6X6X6X6X6X6X6X6X6X6X",
"6X6X6X6X6X6X6X6X6X6X6X6X6X6X6X6X6X6X6X6X6X6X6X6X6X6X6X6X6X6X6X6X6X6X6X6X6X6X6X6X6X6X6X6X6X6X6X6X6X6X6X6X6X6X6X6X6X6X6X6X6X6X6X6X",
"6X6X6X6X6X6X6X6X6X6X6X6X6X6X6X6X6X6X6X6X6X6X6X6X6X6X6X6X6X6X6X6X6X6X6X6X6X6X6X6X6X6X6X6X6X6X6X6X6X6X6X6X6X6X6X6X6X6X6X6X6X6X6X6X",
"6X6X6X6X6X6X6X6X6X6X6X6X6X6X6X6X6X6X6X6X6X6X6X6X6X6X6X6X6X6X6X6X6X6X6X6X6X6X6X6X6X6X6X6X6X6X6X6X6X6X6X6X6X6X6X6X6X6X6X6X6X6X6X6X",
"6X6X6X6X6X6X6X6X6X6X6X6X6X6X6X6X6X6X6X6X6X6X6X6X6X6X6X6X6X6X6X6X6X6X6X6X6X6X6X6X6X6X6X6X6X6X6X6X6X6X6X6X6X6X6X6X6X6X6X6X6X6X6X6X",
"6X6X6X6X6X6X6X6X6X6X6X6X6X6X6X6X6X6X6X6X6X6X6X6X6X6X6X6X6X6X6X6X6X6X6X6X6X6X6X6X6X6X6X6X6X6X6X6X6X6X6X6X6X6X6X6X6X6X6X6X6X6X6X6X",
"6X6X6X6X6X6X6X6X6X6X6X6X6X6X6X6X6X6X6X6X6X6X6X6X6X6X6X6X6X6X6X6X6X6X6X6X6X6X6X6X6X6X6X6X6X6X6X6X6X6X6X6X6X6X6X6X6X6X6X6X6X6X6X6X",
"6X6X6X6X6X6X6X6X6X6X6X6X6X6X6X6X6X6X6X6X6X6X6X6X6X6X6X6X6X6X6X6X6X6X6X6X6X6X6X6X6X6X6X6X6X6X6X6X6X6X6X6X6X6X6X6X6X6X6X6X6X6X6X6X",
"6X6X6X6X6X6X6X6X6X6X6X6X6X6X6X6X6X6X6X6X6X6X6X6X6X6X6X6X6X6X6X6X6X6X6X6X6X6X6X6X6X6X6X6X6X6X6X6X6X6X6X6X6X6X6X6X6X6X6X6X6X6X6X6X",
"6X6X6X6X6X6X6X6X6X6X6X6X6X6X6X6X6X6X6X6X6X6X6X6X6X6X6X6X6X6X6X6X6X6X6X6X6X6X6X6X6X6X6X6X6X6X6X6X6X6X6X6X6X6X6X6X6X6X6X6X6X6X6X6X",
"6X6X6X6X6X6X6X6X6X6X6X6X6X6X6X6X6X6X6X6X6X6X6X6X6X6X6X6X6X6X6X6X6X6X6X6X6X6X6X6X6X6X6X6X6X6X6X6X6X6X6X6X6X6X6X6X6X6X6X6X6X6X6X6X",
"6X6X6X6X6X6X6X6X6X6X6X6X6X6X6X6X6X6X6X6X6X6X6X6X6X6X6X6X6X6X6X6X6X6X6X6X6X6X6X6X6X6X6X6X6X6X6X6X6X6X6X6X6X6X6X6X6X6X6X6X6X6X6X6X",
"6X6X6X6X6X6X6X6X6X6X6X6X6X6X6X6X6X6X6X6X6X6X6X6X6X6X6X6X6X6X6X6X6X6X6X6X6X6X6X6X6X6X6X6X6X6X6X6X6X6X6X6X6X6X6X6X6X6X6X6X6X6X6X6X",
"6X6X6X6X6X6X6X6X6X6X6X6X6X6X6X6X6X6X6X6X6X6X6X6X6X6X6X6X6X6X6X6X6X6X6X6X6X6X6X6X6X6X6X6X6X6X6X6X6X6X6X6X6X6X6X6X6X6X6X6X6X6X6X6X",
"6X6X6X6X6X6X6X6X6X6X6X6X6X6X6X6X6X6X6X6X6X6X6X6X6X6X6X6X6X6X6X6X6X6X6X6X6X6X6X6X6X6X6X6X6X6X6X6X6X6X6X6X6X6X6X6X6X6X6X6X6X6X6X6X",
"6X6X6X6X6X6X6X6X6X6X6X6X6X6X6X6X6X6X6X6X6X6X6X6X6X6X6X6X6X6X6X6X6X6X6X6X6X6X6X6X6X6X6X6X6X6X6X6X6X6X6X6X6X6X6X6X6X6X6X6X6X6X6X6X",
"6X6X6X6X6X6X6X6X6X6X6X6X6X6X6X6X6X6X6X6X6X6X6X6X6X6X6X6X6X6X6X6X6X6X6X6X6X6X6X6X6X6X6X6X6X6X6X6X6X6X6X6X6X6X6X6X6X6X6X6X6X6X6X6X",
"6X6X6X6X6X6X6X6X6X6X6X6X6X6X6X6X6X6X6X6X6X6X6X6X6X6X6X6X6X6X6X6X6X6X6X6X6X6X6X6X6X6X6X6X6X6X6X6X6X6X6X6X6X6X6X6X6X6X6X6X6X6X6X6X",
"6X6X6X6X6X6X6X6X6X6X6X6X6X6X6X6X6X6X6X6X6X6X6X6X6X6X6X6X6X6X6X6X6X6X6X6X6X6X6X6X6X6X6X6X6X6X6X6X6X6X6X6X6X6X6X6X6X6X6X6X6X6X6X6X",
"6X6X6X6X6X6X6X6X6X6X6X6X6X6X6X6X6X6X6X6X6X6X6X6X6X6X6X6X6X6X6X6X6X6X6X6X6X6X6X6X6X6X6X6X6X6X6X6X6X6X6X6X6X6X6X6X6X6X6X6X6X6X6X6X",
"6X6X6X6X6X6X6X6X6X6X6X6X6X6X6X6X6X6X6X6X6X6X6X6X6X6X6X6X6X6X6X6X6X6X6X6X6X6X6X6X6X6X6X6X6X6X6X6X6X6X6X6X6X6X6X6X6X6X6X6X6X6X6X6X",
"6X6X6X6X6X6X6X6X6X6X6X6X6X6X6X6X6X6X6X6X6X6X6X6X6X6X6X6X6X6X6X6X6X6X6X6X6X6X6X6X6X6X6X6X6X6X6X6X6X6X6X6X6X6X6X6X6X6X6X6X6X6X6X6X",
"6X6X6X6X6X6X6X6X6X6X6X6X6X6X6X6X6X6X6X6X6X6X6X6X6X6X6X6X6X6X6X6X6X6X6X6X6X6X6X6X6X6X6X6X6X6X6X6X6X6X6X6X6X6X6X6X6X6X6X6X6X6X6X6X",
"6X6X6X6X6X6X6X6X6X6X6X6X6X6X6X6X6X6X6X6X6X6X6X6X6X6X6X6X6X6X6X6X6X6X6X6X6X6X6X6X6X6X6X6X6X6X6X6X6X6X6X6X6X6X6X6X6X6X6X6X6X6X6X6X",
"6X6X6X6X6X6X6X6X6X6X6X6X6X6X6X6X6X6X6X6X6X6X6X6X6X6X6X6X6X6X6X6X6X6X6X6X6X6X6X6X6X6X6X6X6X6X6X6X6X6X6X6X6X6X6X6X6X6X6X6X6X6X6X6X",
"6X6X6X6X6X6X6X6X6X6X6X6X6X6X6X6X6X6X6X6X6X6X6X6X6X6X6X6X6X6X6X6X6X6X6X6X6X6X6X6X6X6X6X6X6X6X6X6X6X6X6X6X6X6X6X6X6X6X6X6X6X6X6X6X",
"6X6X6X6X6X6X6X6X6X6X6X6X6X6X6X6X6X6X6X6X6X6X6X6X6X6X6X6X6X6X6X6X6X6X6X6X6X6X6X6X6X6X6X6X6X6X6X6X6X6X6X6X6X6X6X6X6X6X6X6X6X6X6X6X",
"6X6X6X6X6X6X6X6X6X6X6X6X6X6X6X6X6X6X6X6X6X6X6X6X6X6X6X6X6X6X6X6X6X6X6X6X6X6X6X6X6X6X6X6X6X6X6X6X6X6X6X6X6X6X6X6X6X6X6X6X6X6X6X6X",
"6X6X6X6X6X6X6X6X6X6X6X6X6X6X6X6X6X6X6X6X6X6X6X6X6X6X6X6X6X6X6X6X6X6X6X6X6X6X6X6X6X6X6X6X6X6X6X6X6X6X6X6X6X6X6X6X6X6X6X6X6X6X6X6X",
"6X6X6X6X6X6X6X6X6X6X6X6X6X6X6X6X6X6X6X6X6X6X6X6X6X6X6X6X6X6X6X6X6X6X6X6X6X6X6X6X6X6X6X6X6X6X6X6X6X6X6X6X6X6X6X6X6X6X6X6X6X6X6X6X",
"6X6X6X6X6X6X6X6X6X6X6X6X6X6X6X6X6X6X6X6X6X6X6X6X6X6X6X6X6X6X6X6X6X6X6X6X6X6X6X6X6X6X6X6X6X6X6X6X6X6X6X6X6X6X6X6X6X6X6X6X6X6X6X6X",
"6X6X6X6X6X6X6X6X6X6X6X6X6X6X6X6X6X6X6X6X6X6X6X6X6X6X6X6X6X6X6X6X6X6X6X6X6X6X6X6X6X6X6X6X6X6X6X6X6X6X6X6X6X6X6X6X6X6X6X6X6X6X6X6X",
"6X6X6X6X6X6X6X6X6X6X6X6X6X6X6X6X6X6X6X6X6X6X6X6X6X6X6X6X6X6X6X6X6X6X6X6X6X6X6X6X6X6X6X6X6X6X6X6X6X6X6X6X6X6X6X6X6X6X6X6X6X6X6X6X",
"6X6X6X6X6X6X6X6X6X6X6X6X6X6X6X6X6X6X6X6X6X6X6X6X6X6X6X6X6X6X6X6X6X6X6X6X6X6X6X6X6X6X6X6X6X6X6X6X6X6X6X6X6X6X6X6X6X6X6X6X6X6X6X6X",
"6X6X6X6X6X6X6X6X6X6X6X6X6X6X6X6X6X6X6X6X6X6X6X6X6X6X6X6X6X6X6X6X6X6X6X6X6X6X6X6X6X6X6X6X6X6X6X6X6X6X6X6X6X6X6X6X6X6X6X6X6X6X6X6X",
"6X6X6X6X6X6X6X6X6X6X6X6X6X6X6X6X6X6X6X6X6X6X6X6X6X6X6X6X6X6X6X6X6X6X6X6X6X6X6X6X6X6X6X6X6X6X6X6X6X6X6X6X6X6X6X6X6X6X6X6X6X6X6X6X",
"6X6X6X6X6X6X6X6X6X6X6X6X6X6X6X6X6X6X6X6X6X6X6X6X6X6X6X6X6X6X6X6X6X6X6X6X6X6X6X6X6X6X6X6X6X6X6X6X6X6X6X6X6X6X6X6X6X6X6X6X6X6X6X6X",
"6X6X6X6X6X6X6X6X6X6X6X6X6X6X6X6X6X6X6X6X6X6X6X6X6X6X6X6X6X6X6X6X6X6X6X6X6X6X6X6X6X6X6X6X6X6X6X6X6X6X6X6X6X6X6X6X6X6X6X6X6X6X6X6X"
};
