/* XPM */
static char *result[] = {
/* columns rows colors chars-per-pixel */
"64 64 171 2 ",
"   c #181616",
".  c #181B1F",
"X  c #141214",
"o  c #27131B",
"O  c #1D1F23",
"+  c #141B22",
"@  c #1F2429",
"#  c #193034",
"$  c #242426",
"%  c #292226",
"&  c #252628",
"*  c #2A2B2E",
"=  c #2A2629",
"-  c #252B31",
";  c #2C2E31",
":  c #2D3135",
">  c #2F3439",
",  c #263B3E",
"<  c #28383B",
"1  c #263237",
"2  c #323236",
"3  c #31363B",
"4  c #33393E",
"5  c #393A3E",
"6  c #3E333B",
"7  c #253C41",
"8  c #2D3D42",
"9  c #363C42",
"0  c #3A3D43",
"q  c #443C44",
"w  c #184848",
"e  c #194B51",
"r  c #045659",
"t  c #1D5C5D",
"y  c #145459",
"u  c #264344",
"i  c #214548",
"p  c #2E454C",
"a  c #2C494D",
"s  c #3C4147",
"d  c #37434A",
"f  c #3D444A",
"g  c #2D4B51",
"h  c #334F51",
"j  c #275054",
"k  c #2D5359",
"l  c #3A5156",
"z  c #3F5259",
"x  c #0F5E61",
"c  c #245D61",
"v  c #2E5C62",
"b  c #3F5F65",
"n  c #006363",
"m  c #006A6A",
"M  c #176A6A",
"N  c #00716F",
"B  c #017371",
"V  c #0C7171",
"C  c #266164",
"Z  c #2C6A6C",
"A  c #34686C",
"S  c #386C72",
"D  c #2F7074",
"F  c #227373",
"G  c #3C767D",
"H  c #41464C",
"J  c #48414B",
"K  c #42494F",
"L  c #454C53",
"P  c #494D53",
"I  c #4B5057",
"U  c #45545C",
"Y  c #4D535B",
"T  c #52565D",
"R  c #50585F",
"E  c #415E62",
"W  c #555B63",
"Q  c #595E66",
"!  c #466167",
"~  c #4E6066",
"^  c #4B656B",
"/  c #586067",
"(  c #50666D",
")  c #5C626A",
"_  c #4A6D73",
"`  c #526B72",
"'  c #477A7D",
"]  c #5E737A",
"[  c #61666E",
"{  c #606770",
"}  c #646A72",
"|  c #696E76",
" . c #627077",
".. c #6B7077",
"X. c #6D737B",
"o. c #60727A",
"O. c #71767E",
"+. c #367F84",
"@. c #417C83",
"#. c #5E7C83",
"$. c #717780",
"%. c #757B84",
"&. c #787F87",
"*. c #008684",
"=. c #088885",
"-. c #028B89",
";. c #1F8B8C",
":. c #00918E",
">. c #009896",
",. c #029D9B",
"<. c #1F9A99",
"1. c #208183",
"2. c #28898B",
"3. c #2B8184",
"4. c #338287",
"5. c #2F9797",
"6. c #2E9E9E",
"7. c #28A09F",
"8. c #2E9FA1",
"9. c #00A4A2",
"0. c #2BA8A6",
"q. c #2BA2A1",
"w. c #32A6A8",
"e. c #34AAAA",
"r. c #39ADAE",
"t. c #4F888F",
"y. c #418289",
"u. c #479096",
"i. c #7A8087",
"p. c #73858E",
"a. c #7C828B",
"s. c #658B93",
"d. c #738C95",
"f. c #788993",
"g. c #66949D",
"h. c #4D9BA1",
"j. c #629BA4",
"k. c #7F97A1",
"l. c #749FA5",
"z. c #47AAAE",
"x. c #4DA6AB",
"c. c #56ACB3",
"v. c #5DB3BA",
"b. c #70A0A9",
"n. c #64ACB5",
"m. c #64B2BB",
"M. c #6AB7BC",
"N. c #7EB6BF",
"B. c #72BCC4",
"V. c #81878F",
"C. c #818790",
"Z. c #858B94",
"A. c #888F97",
"S. c #888E98",
"D. c #8C939B",
"F. c #949BA4",
"G. c #989FA9",
"H. c #9BA3AC",
"J. c #87ABB3",
"K. c #81B4BE",
"L. c #A4ACB5",
"P. c #A7AFB8",
"I. c #A9B2BC",
"U. c #AEB6C0",
"Y. c #B3BBC5",
"T. c #82C6C9",
"R. c #84CBD3",
"E. c #9BD8DE",
"W. c #9FDEE3",
"Q. c #A5E3E9",
"!. c None",
/* pixels */
"!.!.!.!.!.!.!.!.!.!.!.!.!.!.!.!.!.!.!.!.!.!.!.!.!.!.!.!.!.!.!.v.!.!.!.!.!.!.!.!.!.!.!.!.!.!.!.!.!.!.!.!.!.!.!.!.!.!.!.!.!.!.!.!.",
"!.!.!.!.!.!.!.!.!.!.!.!.!.!.!.!.!.!.!.!.!.!.!.!.!.!.!.!.!.!.!.e.!.!.!.!.!.!.!.!.!.!.!.!.!.!.!.!.!.!.!.!.!.!.!.!.!.!.!.!.!.!.!.!.",
"!.!.!.!.!.!.!.!.!.!.!.!.!.!.!.!.!.!.!.!.!.!.!.!.!.!.!.!.!.!.!.:.!.!.!.!.!.!.!.!.!.!.!.!.!.!.!.!.!.!.!.!.!.!.!.!.!.!.!.!.!.!.!.!.",
"!.!.!.!.!.!.!.!.!.!.!.!.!.!.!.!.!.!.!.!.!.!.!.!.!.!.!.!.!.!.!.V !.!.!.!.!.!.!.!.!.!.!.!.!.!.!.!.!.!.!.!.!.!.!.!.!.!.!.!.!.!.!.!.",
"!.!.!.!.!.!.!.!.!.!.!.!.!.!.!.!.!.!.!.!.!.!.!.!.!.!.!.!.!.!.!.M ,.!.!.!.!.!.!.!.!.!.!.!.!.!.!.!.!.B.m.!.!.!.!.!.!.!.!.!.!.!.!.!.",
"!.!.!.!.!.!.!.!.!.!.!.!.!.!.!.!.!.!.!.!.!.!.!.!.!.!.!.!.!.!.e y -.!.!.!.!.%.%.X.Q W Y 3 9 !.!.e.Q.!.!.!.!.!.!.!.!.!.!.!.!.!.!.!.",
"!.!.!.!.!.!.!.!.!.!.!.!.!.!.!.!.!.!.!.!.!.!.!.!.!.!.P P ) l g a C w !.Z.V.V.a.) I Y L 8 k 2.9.q.W.!.!.!.!.!.!.!.!.!.!.!.!.!.!.!.",
"!.!.!.!.!.!.!.!.!.!.!.!.m.!.!.!.!.!.!.!.!.!.!.!.!...&.O.} T P T _ l } F.F.F.%.. ; 4 3 i V w.e.B !.!.!.!.!.!.!.!.!.!.!.!.!.!.!.!.",
"!.!.!.!.!.!.!.!.!.!.!.!.!.!.x.=.!.!.!.= H 2 0 W W G.Y.L.{ } %.%.n.s.Z.P.L.I.D.s P s 8 x >.x.h.m !.!.!.!.!.!.!.!.!.!.!.!.!.!.!.!.",
"!.!.!.!.!.!.!.!.!.!.!.!.!.!.8.0.W.R.y.- ^ L 2 H I F.Y.P. .$.&.d.v.J.F.A.D.D.f...| L 7 c *.3.S h 9 !.!.!.!.!.!.!.!.!.!.!.!.!.!.!.",
"!.!.!.!.!.!.!.!.!.!.!.!.!.!.!.q.T.B.+.g j.` % * 0 &.G.G.$.X.f.l.z.l.a.[ $.$.%.%.[ I W ] Z r z W s !.!.!.!.!.!.!.!.!.!.!.!.!.!.!.",
"!.!.!.!.!.!.!.!.!.!.!.!.!.!.!.M B B x v K.#.o ; O | S.S.&.%.D.B.5.m U ..%.%.$...s ) C.D.` b o.&.9 !.!.!.!.!.!.!.!.!.!.!.!.!.!.!.",
"!.!.!.!.!.!.!.!.!.!.!.!.!.!.!.u B m y _ L.$.+ 9 & F.U.L.a.a.H.I.W U X.A.C.a.| / W G.Y.I.a.$.i.p.9 !.!.!.!.!.!.!.!.!.!.!.!.!.!.!.",
"!.!.!.!.!.!.!.!.!.!.!.!.!.!.!.4 c c E $.Z.{ 9 H - F.P.f.%.D.P.L.[ ) A.L.L.L.D.| D.I.Y.L.V.O.d.j.L !.!.!.!.!.!.!.!.!.!.!.!.!.!.!.",
"!.!.!.!.!.!.!.!.!.!.!.!.!.!.5 I E Q  .| W Q { ) 9 &.C.{ %.C.S.S.X.X.Z.H.U.Y.L.D.Z.L.L.A.i.X.] t.} !.!.!.!.!.!.!.!.!.!.!.!.!.!.!.",
"!.!.!.!.!.!.!.!.!.!.!.!.!.$ H W Q | X.W > | a.$.0 L Q Q X.L 9 W } %.$.O.H.L.L.H.= a.A.Y X.) H 0 a.!.!.!.!.!.!.!.!.!.!.!.!.!.!.!.",
"!.!.!.!.!.!.!.!.!.!.!.!.!.H H f W W / Q 9 } a.| 2 L W W W H L Q d } O.) %.i.i.X.2 4 Y W / L 4 f $.!.!.!.!.!.!.!.!.!.!.!.!.!.!.!.",
"!.!.!.!.!.!.!.!.!.!.!.!.!.O.} 3 H f I W 3 | O.L * f Y P K 9 K W t ^ [ / ) [ W s : @ > K f 9 4 9 I !.!.!.!.!.!.!.!.!.!.!.!.!.!.!.",
"!.!.!.!.!.!.!.!.!.!.!.!.!.a.X.- 4 3 f L ; } } O * T } / s 3 s E 2.D U / ) ) I   = * : 3 > > > > X !.!.!.!.!.!.!.!.!.!.!.!.!.!.!.",
"!.!.!.!.!.!.!.!.!.!.!.!.!...) $ 9 9 4 > & Q Q & 9 ..a.%.I 0 a F e.;.a T } ..W $ * * : 4 * = * * !.!.!.!.!.!.!.!.!.!.!.!.!.!.!.!.",
"!.!.!.!.!.!.!.!.!.!.!.!.!.5 2 ; 9 9 3 * - 3 3 2 Y ..%.$.) J A 8.c.@.p L O.%.) $ * * * * * : : = !.!.!.!.!.!.!.!.!.!.!.!.!.!.!.!.",
"!.!.!.!.!.!.!.!.!.!.!.!.!.!.$ ; 4 3 - * 4 3 3 9 H W } ) Q T ^ ' G ^ Y W ) | / > * * * * = > 4 2 !.!.!.!.!.!.!.!.!.!.!.!.!.!.!.!.",
"!.!.!.!.!.!.!.!.!.!.!.!.!.!.!.; 3 2 * ; > 9 9 9 9 f L L P I P q # I ) Q W / Y 4 : * * * * 3 H P 2 !.!.!.!.!.!.!.!.!.!.!.!.!.!.!.",
"!.!.!.!.!.!.!.!.!.!.!.!.!.!.!.2 H 4 - * = 2 4 9 9 3 3 > > 9 2 $ & H W Y Y / R 3 > * * * : 3 L / 4 !.!.!.!.!.!.!.!.!.!.!.!.!.!.!.",
"!.!.!.!.!.!.!.!.!.!.!.!.!.!.!.3 T L > * - ; 2 9 9 ; * - ; 4 3 * - > 9 0 9 Y Y 9 4 > = * 4 4 L T 2 !.!.!.!.!.!.!.!.!.!.!.!.!.!.!.",
"!.!.!.!.!.!.!.!.!.!.!.!.!.!.!.3 W P 4 4 9 ; > 9 > * * ; 0 9 3 < v g 3 s s f s 9 2 - * : 9 9 9 s !.!.!.!.!.!.!.!.!.!.!.!.!.!.!.!.",
"!.!.!.!.!.!.!.!.!.!.!.!.!.!.!.: H s 4 9 9 ; ; 9 * ; 3 9 Y H < j u.S d Y I 9 ; > * = ; 3 > 9 4 !.!.!.!.!.!.!.!.!.!.!.!.!.!.!.!.!.",
"!.!.!.!.!.!.!.!.!.!.!.!.!.!.!.* $ > 4 4 9 ; ; 3 * 3 f P Q L < v c.4.d / W s * * * = > 4 * 3 4 !.!.!.!.!.!.!.!.!.!.!.!.!.!.!.!.!.",
"!.!.!.!.!.!.!.!.!.!.!.!.!.!.!.!.* ; ; ; ; * * ; * > H W W L * u 5.M 6 W f 9 > * * * ; * ; * - !.!.!.!.!.!.!.!.!.!.!.!.!.!.!.!.!.",
"!.!.!.!.!.!.!.!.!.!.!.!.!.!.!.!.* * * * * * * * * * 4 H H s : : t u 2 H 9 9 > * * * * * * * !.!.!.!.!.!.!.!.!.!.!.!.!.!.!.!.!.!.",
"!.!.!.!.!.!.!.!.!.!.!.!.!.!.!.!.!.* * * * * * * * * - > - 3 > * o $ - > > > > ; * * * !.!.!.!.!.!.!.!.!.!.!.!.!.!.!.!.!.!.!.!.!.",
"!.!.!.!.!.!.!.!.!.!.!.!.!.!.!.!.!.!.* * * * * * * ; > = * * = * 7 1 = * ; ; : ; * : * !.!.!.!.!.!.!.!.!.!.!.!.!.!.!.!.!.!.!.!.!.",
"!.!.!.!.!.!.!.!.!.!.!.!.!.!.!.!.!.!.!.!.!.* ; * * 4 4 ; ; * * - e , = : * 3 9 3 * ; ; !.!.!.!.!.!.!.!.!.!.!.!.!.!.!.!.!.!.!.!.!.",
"!.!.!.!.!.!.!.!.!.!.!.!.!.!.!.!.!.!.!.!.!.* ; * * 3 9 4 4 2 * * , > : 4 4 9 4 > * ; ; !.!.!.!.!.!.!.!.!.!.!.!.!.!.!.!.!.!.!.!.!.",
"!.!.!.!.!.!.!.!.!.!.!.!.!.!.!.!.!.!.!.!.!.: * * > 4 9 9 9 2 * * = : 4 s s 9 4 > * * ; !.!.!.!.!.!.!.!.!.!.!.!.!.!.!.!.!.!.!.!.!.",
"!.!.!.!.!.!.!.!.!.!.!.!.!.!.!.!.!.!.!.!.!.; * ; 3 9 9 3 3 > * * = 4 9 9 9 9 4 3 ; * 2 !.!.!.!.!.!.!.!.!.!.!.!.!.!.!.!.!.!.!.!.!.",
"!.!.!.!.!.!.!.!.!.!.!.!.!.!.!.!.!.!.!.!.!.!.; * * 3 3 * ; * * * = 3 4 4 4 4 3 * * ; !.!.!.!.!.!.!.!.!.!.!.!.!.!.!.!.!.!.!.!.!.!.",
"!.!.!.!.!.!.!.!.!.!.!.!.!.!.!.!.!.!.!.!.!.; * * * ; ; * * * * * * * > > : : - * ; ; !.!.!.!.!.!.!.!.!.!.!.!.!.!.!.!.!.!.!.!.!.!.",
"!.!.!.!.!.!.!.!.!.!.!.!.!.!.!.!.!.!.!.!.!.* ; * * * * * * * * ; : * * = * * * * * ; 2 !.!.!.!.!.!.!.!.!.!.!.!.!.!.!.!.!.!.!.!.!.",
"!.!.!.!.!.!.!.!.!.!.!.!.!.!.!.!.!.!.!.!.!.* ; ; * * * * * ; * !.!.* * * > ; * * * ; * !.!.!.!.!.!.!.!.!.!.!.!.!.!.!.!.!.!.!.!.!.",
"!.!.!.!.!.!.!.!.!.!.!.!.!.!.!.!.!.!.!.!.!.* : : : : ; : * * : !.!.; : : 4 > * * * * ; !.!.!.!.!.!.!.!.!.!.!.!.!.!.!.!.!.!.!.!.!.",
"!.!.!.!.!.!.!.!.!.!.!.!.!.!.!.!.!.!.!.!.!.; : 3 3 4 3 3 ; * !.!.!.* : 4 9 4 > : * * ; !.!.!.!.!.!.!.!.!.!.!.!.!.!.!.!.!.!.!.!.!.",
"!.!.!.!.!.!.!.!.!.!.!.!.!.!.!.!.!.!.!.!.!.: 2 2 3 3 3 3 * 2 !.!.!.* : 2 9 s 9 2 * ; * !.!.!.!.!.!.!.!.!.!.!.!.!.!.!.!.!.!.!.!.!.",
"!.!.!.!.!.!.!.!.!.!.!.!.!.!.!.!.!.!.!.!.!.!.!.* * * * * * !.!.!.!.; * ; 4 9 s 4 ; * ; !.!.!.!.!.!.!.!.!.!.!.!.!.!.!.!.!.!.!.!.!.",
"!.!.!.!.!.!.!.!.!.!.!.!.!.!.!.!.!.!.!.!.!.!.!.!.!.!.!.!.!.!.!.!.!.!.; ; 4 4 4 4 ; * ; !.!.!.!.!.!.!.!.!.!.!.!.!.!.!.!.!.!.!.!.!.",
"!.!.!.!.!.!.!.!.!.!.!.!.!.!.!.!.!.!.!.!.!.!.!.!.!.!.!.!.!.!.!.!.!.!.; * 2 2 : 2 * * !.!.!.!.!.!.!.!.!.!.!.!.!.!.!.!.!.!.!.!.!.!.",
"!.!.!.!.!.!.!.!.!.!.!.!.!.!.!.!.!.!.!.!.!.!.!.!.!.!.!.!.!.!.!.!.!.!.!.: * * * ; !.!.!.!.!.!.!.!.!.!.!.!.!.!.!.!.!.!.!.!.!.!.!.!.",
"!.!.!.!.!.!.!.!.!.!.!.!.!.!.!.!.!.!.!.!.!.!.!.!.!.!.!.!.!.!.!.!.!.!.!.!.!.!.!.!.!.!.!.!.!.!.!.!.!.!.!.!.!.!.!.!.!.!.!.!.!.!.!.!.",
"!.!.!.!.!.!.!.!.!.!.!.!.!.!.!.!.!.!.!.!.!.!.!.!.!.!.!.!.!.!.!.!.!.!.!.!.!.!.!.!.!.!.!.!.!.!.!.!.!.!.!.!.!.!.!.!.!.!.!.!.!.!.!.!.",
"!.!.!.!.!.!.!.!.!.!.!.!.!.!.!.!.!.!.!.!.!.!.!.!.!.!.!.!.!.!.!.!.!.!.!.!.!.!.!.!.!.!.!.!.!.!.!.!.!.!.!.!.!.!.!.!.!.!.!.!.!.!.!.!.",
"!.!.!.!.!.!.!.!.!.!.!.!.!.!.!.!.!.!.!.!.!.!.!.!.!.!.!.!.!.!.!.!.!.!.!.!.!.!.!.!.!.!.!.!.!.!.!.!.!.!.!.!.!.!.!.!.!.!.!.!.!.!.!.!.",
"!.!.!.!.!.!.!.!.!.!.!.!.!.!.!.!.!.!.!.!.!.!.!.!.!.!.!.!.!.!.!.!.!.!.!.!.!.!.!.!.!.!.!.!.!.!.!.!.!.!.!.!.!.!.!.!.!.!.!.!.!.!.!.!.",
"!.!.!.!.!.!.!.!.!.!.!.!.!.!.!.!.!.!.!.!.!.!.!.!.!.!.!.!.!.!.!.!.!.!.!.!.!.!.!.!.!.!.!.!.!.!.!.!.!.!.!.!.!.!.!.!.!.!.!.!.!.!.!.!.",
"!.!.!.!.!.!.!.!.!.!.!.!.!.!.!.!.!.!.!.!.!.!.!.!.!.!.!.!.!.!.!.!.!.!.!.!.!.!.!.!.!.!.!.!.!.!.!.!.!.!.!.!.!.!.!.!.!.!.!.!.!.!.!.!.",
"!.!.!.!.!.!.!.!.!.!.!.!.!.!.!.!.!.!.!.!.!.!.!.!.!.!.!.!.!.!.!.!.!.!.!.!.!.!.!.!.!.!.!.!.!.!.!.!.!.!.!.!.!.!.!.!.!.!.!.!.!.!.!.!.",
"!.!.!.!.!.!.!.!.!.!.!.!.!.!.!.!.!.!.!.!.!.!.!.!.!.!.!.!.!.!.!.!.!.!.!.!.!.!.!.!.!.!.!.!.!.!.!.!.!.!.!.!.!.!.!.!.!.!.!.!.!.!.!.!.",
"!.!.!.!.!.!.!.!.!.!.!.!.!.!.!.!.!.!.!.!.!.!.!.!.!.!.!.!.!.!.!.!.!.!.!.!.!.!.!.!.!.!.!.!.!.!.!.!.!.!.!.!.!.!.!.!.!.!.!.!.!.!.!.!.",
"!.!.!.!.!.!.!.!.!.!.!.!.!.!.!.!.!.!.!.!.!.!.!.!.!.!.!.!.!.!.!.!.!.!.!.!.!.!.!.!.!.!.!.!.!.!.!.!.!.!.!.!.!.!.!.!.!.!.!.!.!.!.!.!.",
"!.!.!.!.!.!.!.!.!.!.!.!.!.!.!.!.!.!.!.!.!.!.!.!.!.!.!.!.!.!.!.!.!.!.!.!.!.!.!.!.!.!.!.!.!.!.!.!.!.!.!.!.!.!.!.!.!.!.!.!.!.!.!.!.",
"!.!.!.!.!.!.!.!.!.!.!.!.!.!.!.!.!.!.!.!.!.!.!.!.!.!.!.!.!.!.!.!.!.!.!.!.!.!.!.!.!.!.!.!.!.!.!.!.!.!.!.!.!.!.!.!.!.!.!.!.!.!.!.!.",
"!.!.!.!.!.!.!.!.!.!.!.!.!.!.!.!.!.!.!.!.!.!.!.!.!.!.!.!.!.!.!.!.!.!.!.!.!.!.!.!.!.!.!.!.!.!.!.!.!.!.!.!.!.!.!.!.!.!.!.!.!.!.!.!.",
"!.!.!.!.!.!.!.!.!.!.!.!.!.!.!.!.!.!.!.!.!.!.!.!.!.!.!.!.!.!.!.!.!.!.!.!.!.!.!.!.!.!.!.!.!.!.!.!.!.!.!.!.!.!.!.!.!.!.!.!.!.!.!.!.",
"!.!.!.!.!.!.!.!.!.!.!.!.!.!.!.!.!.!.!.!.!.!.!.!.!.!.!.!.!.!.!.!.!.!.!.!.!.!.!.!.!.!.!.!.!.!.!.!.!.!.!.!.!.!.!.!.!.!.!.!.!.!.!.!.",
"!.!.!.!.!.!.!.!.!.!.!.!.!.!.!.!.!.!.!.!.!.!.!.!.!.!.!.!.!.!.!.!.!.!.!.!.!.!.!.!.!.!.!.!.!.!.!.!.!.!.!.!.!.!.!.!.!.!.!.!.!.!.!.!."
};
