/* XPM */
static char *result[] = {
/* columns rows colors chars-per-pixel */
"64 64 168 2 ",
"   c #2A1D22",
".  c #242427",
"X  c #272729",
"o  c #2A2529",
"O  c #2A2B2E",
"+  c #2C2E31",
"@  c #2E3135",
"#  c #273639",
"$  c #2E3339",
"%  c #2A3B3E",
"&  c #303236",
"*  c #31353A",
"=  c #3C373D",
"-  c #34393E",
";  c #383A3F",
":  c #243F44",
">  c #2C3E43",
",  c #363C42",
"<  c #393D43",
"1  c #0D5B5A",
"2  c #16585C",
"3  c #1F595B",
"4  c #224347",
"5  c #2E4146",
"6  c #2D474B",
"7  c #2A4C4F",
"8  c #234C4D",
"9  c #3B4147",
"0  c #3E434A",
"q  c #324A4E",
"w  c #344145",
"e  c #244F53",
"r  c #2A4D52",
"t  c #3C4B51",
"y  c #2C5055",
"u  c #225558",
"i  c #2D565A",
"p  c #2E5A5C",
"a  c #3B5257",
"s  c #37565A",
"d  c #38575B",
"f  c #295F62",
"g  c #375B62",
"h  c #385F65",
"j  c #006967",
"k  c #006D6A",
"l  c #1A6364",
"z  c #156769",
"x  c #186C6A",
"c  c #136D6E",
"v  c #0F7576",
"b  c #047F7E",
"n  c #127476",
"m  c #266466",
"M  c #2B6C6E",
"N  c #386469",
"B  c #336B6E",
"V  c #246D70",
"C  c #386A70",
"Z  c #297376",
"A  c #2B7578",
"S  c #2D7A7D",
"D  c #317677",
"F  c #3C7377",
"G  c #37767B",
"H  c #3B757B",
"J  c #41464C",
"K  c #43484F",
"L  c #444B52",
"P  c #494E55",
"I  c #435056",
"U  c #4B5157",
"Y  c #44535A",
"T  c #4D535A",
"R  c #51555D",
"E  c #51585F",
"W  c #475F65",
"Q  c #4C5C62",
"!  c #555B62",
"~  c #595F66",
"^  c #41656A",
"/  c #4E656C",
"(  c #5A6067",
")  c #55646C",
"_  c #5B626A",
"`  c #50686F",
"'  c #466B71",
"]  c #4F6C72",
"[  c #5C6971",
"{  c #43767A",
"}  c #4A747B",
"|  c #61666E",
" . c #646A72",
".. c #696E76",
"X. c #656F78",
"o. c #6A6F78",
"O. c #697077",
"+. c #63747C",
"@. c #6C727B",
"#. c #70767E",
"$. c #2F7D81",
"%. c #527F86",
"&. c #5C7B83",
"*. c #667E87",
"=. c #6F7881",
"-. c #717780",
";. c #757B84",
":. c #787D86",
">. c #038D8A",
",. c #198E8E",
"<. c #198384",
"1. c #009C9B",
"2. c #2D8C8C",
"3. c #289798",
"4. c #279C9D",
"5. c #299999",
"6. c #349597",
"7. c #359A9B",
"8. c #2EA5A6",
"9. c #3AA8AB",
"0. c #4A848B",
"q. c #5A8087",
"w. c #438E92",
"e. c #498D94",
"r. c #5B8B93",
"t. c #57979B",
"y. c #6A838A",
"u. c #75818A",
"i. c #7C828B",
"p. c #6D8C95",
"a. c #728C94",
"s. c #798891",
"d. c #4B9EA3",
"f. c #6B9DA5",
"g. c #7397A0",
"h. c #779BA4",
"j. c #48A3A8",
"k. c #4CAAAB",
"l. c #51A6AC",
"z. c #53A3A4",
"x. c #66ACB2",
"c. c #6EAFB7",
"v. c #63B1B8",
"b. c #61B9BC",
"n. c #73B9BD",
"m. c #71BAC1",
"M. c #7BC4CC",
"N. c #848A93",
"B. c #8A8E97",
"V. c #888F98",
"C. c #8C939C",
"Z. c #9297A1",
"A. c #929AA3",
"S. c #999DA6",
"D. c #979FA8",
"F. c #989FA8",
"G. c #84A1AA",
"H. c #8DA3AC",
"J. c #9BA3AC",
"K. c #9FA7B0",
"L. c #A0A7B1",
"P. c #A4ACB5",
"I. c #A9B1BB",
"U. c #B1B9C3",
"Y. c #82C4CA",
"T. c #A0DDE4",
"R. c #A3DFE8",
"E. c None",
/* pixels */
"E.E.E.E.E.E.E.E.E.E.E.E.E.E.E.E.E.E.E.E.E.E.E.E.E.E.E.E.E.E.E.E.E.E.E.E.E.E.E.E.E.E.E.E.E.E.E.E.E.E.E.E.E.E.E.E.E.E.E.E.E.E.E.E.",
"E.E.E.E.E.E.E.E.E.E.E.E.E.E.E.E.E.E.E.E.E.E.E.E.E.E.E.E.E.E.E.E.E.E.E.E.E.E.E.E.E.E.E.E.E.E.E.E.E.E.E.E.E.E.E.E.E.E.E.E.E.E.E.E.",
"E.E.E.E.E.E.E.E.E.E.E.E.E.E.E.E.E.E.E.E.E.E.E.E.E.E.E.E.E.E.E.E.E.E.E.E.E.E.E.E.E.E.E.E.E.E.E.E.E.E.E.E.E.E.E.E.E.E.E.E.E.E.E.E.",
"E.E.E.E.E.E.E.E.E.E.E.E.E.E.E.E.E.E.E.E.E.E.E.E.E.E.E.E.E.E.E.E.E.E.E.E.E.E.E.E.E.E.E.E.E.E.E.E.E.E.E.E.E.E.E.E.E.E.E.E.E.E.E.E.",
"E.E.E.E.E.E.E.E.E.E.E.E.E.E.E.E.E.E.E.E.E.E.E.E.E.E.E.E.E.E.E.E.E.E.E.E.E.E.E.E.E.E.E.E.E.E.E.E.E.E.E.E.E.E.E.E.E.E.E.E.E.E.E.E.",
"E.E.E.E.E.E.E.E.E.E.E.E.E.E.E.E.E.E.E.E.E.E.E.E.E.E.E.E.E.E.E.E.E.E.E.E.E.E.E.E.E.E.E.E.E.E.E.E.E.E.E.E.E.E.E.E.E.E.E.E.E.E.E.E.",
"E.E.E.E.E.E.E.E.E.E.E.E.E.E.E.E.E.E.E.E.E.E.E.E.E.E.E.E.E.E.E.E.E.E.E.E.E.E.E.E.E.E.E.E.E.E.E.E.E.E.E.E.E.E.E.E.E.E.E.E.E.E.E.E.",
"E.E.E.E.E.E.E.E.E.E.E.E.E.E.E.E.E.E.E.E.E.E.E.E.E.E.E.E.E.E.E.E.E.E.E.E.E.E.E.E.E.E.E.E.E.E.E.E.E.E.E.E.E.E.E.E.E.E.E.E.E.E.E.E.",
"E.E.E.E.E.E.E.E.E.E.E.E.E.E.E.E.E.E.E.E.E.E.E.E.E.E.E.E.E.E.E.E.E.E.E.E.E.E.E.E.E.E.E.E.E.E.E.E.E.E.E.E.E.E.E.E.E.E.E.E.E.E.E.E.",
"E.E.E.E.E.E.E.E.E.E.E.E.E.E.E.E.E.E.E.E.E.E.E.E.E.E.E.E.E.E.E.E.E.E.E.E.E.E.E.E.E.E.E.E.E.E.E.E.E.E.E.E.E.E.E.E.E.E.E.E.E.E.E.E.",
"E.E.E.E.E.E.E.E.E.E.E.E.E.E.E.E.E.E.E.E.E.E.E.E.E.E.E.E.E.E.E.E.E.E.E.E.E.E.E.E.E.E.E.E.E.E.E.E.E.E.E.E.E.E.E.E.E.E.E.E.E.E.E.E.",
"E.E.E.E.E.E.E.E.E.E.E.E.E.E.E.E.E.E.E.E.E.E.E.E.E.E.E.E.E.E.E.E.E.E.E.E.E.E.E.E.E.E.E.E.E.E.E.E.E.E.E.E.E.E.E.E.E.E.E.E.E.E.E.E.",
"E.E.E.E.E.E.E.E.E.E.E.E.E.E.E.E.E.E.E.E.E.E.E.E.E.E.E.E.E.E.E.E.E.E.E.E.E.E.E.E.E.E.E.E.E.E.E.E.E.E.E.E.E.E.E.E.E.E.E.E.E.E.E.E.",
"E.E.E.E.E.E.E.E.E.E.E.E.E.E.E.E.E.E.E.E.E.E.E.E.E.E.E.E.E.E.E.E.E.E.E.E.E.E.E.E.E.E.E.E.E.E.E.E.E.E.E.E.E.E.E.E.E.E.E.E.E.E.E.E.",
"E.E.E.E.E.E.E.E.E.E.E.E.E.E.E.E.E.E.E.E.E.E.E.E.E.E.E.E.E.E.E.E.E.E.E.E.E.E.E.E.E.E.E.E.E.E.E.E.E.E.E.E.E.E.E.E.E.E.E.E.E.E.E.E.",
"E.E.E.E.E.E.E.E.E.E.E.E.E.E.E.E.E.E.E.E.E.E.E.E.E.E.E.E.E.E.E.E.E.E.E.E.E.E.E.E.E.E.E.E.E.E.E.E.E.E.E.E.E.E.E.E.E.E.E.E.E.E.E.E.",
"E.E.E.E.E.E.E.E.E.E.E.E.E.E.E.E.E.E.E.E.E.E.E.E.E.E.E.E.E.E.E.R.E.E.E.E.E.E.E.E.E.E.E.E.E.E.E.E.E.E.E.E.E.E.E.E.E.E.E.E.E.E.E.E.",
"E.E.E.E.E.E.E.E.E.E.E.E.E.E.E.E.E.E.E.E.E.E.E.E.E.E.E.E.E.E.E.M.E.E.E.E.E.E.E.E.E.E.E.E.E.E.E.E.E.E.E.E.E.E.E.E.E.E.E.E.E.E.E.E.",
"E.E.E.E.E.E.E.E.E.E.E.E.E.E.E.E.E.E.E.E.E.E.E.E.E.E.E.E.E.E.E.9.E.E.E.E.E.E.E.E.E.E.E.E.E.E.E.E.E.E.E.E.E.E.E.E.E.E.E.E.E.E.E.E.",
"E.E.E.E.E.E.E.E.E.E.E.E.E.E.E.E.E.E.E.E.E.E.E.E.E.E.E.E.E.E.E.1.E.E.E.E.E.E.E.E.E.E.E.E.E.E.E.E.E.E.E.E.E.E.E.E.E.E.E.E.E.E.E.E.",
"E.E.E.E.E.E.E.E.E.E.E.E.E.E.E.E.E.E.E.E.E.E.E.E.E.E.E.E.E.E.E.b E.E.E.E.E.E.E.E.E.E.E.E.E.E.E.E.E.E.E.E.E.E.E.E.E.E.E.E.E.E.E.E.",
"E.E.E.E.E.E.E.E.E.E.E.E.E.E.E.E.E.E.E.E.E.E.E.E.E.E.E.E.E.E.z v 1.E.E.E.E.E.E.E.E.E.E.E.E.E.E.E.E.E.E.E.E.E.E.E.E.E.E.E.E.E.E.E.",
"E.E.E.E.E.E.E.E.E.E.E.E.E.E.v.E.E.E.E.E.& * ; J ! ! ~ E.E.E.2 c >.E.E.E.E.E.E.E.E.E.E.E.E.E.E.E.E.E.E.E.E.E.E.E.E.E.E.E.E.E.E.E.",
"E.E.E.E.E.E.E.E.E.E.E.E.E.E.E.l.6.n.E.{ - J K < Q ( ~ ( Q r u 3 l p E.E.E.E.E.E.E.E.E.E.E.E.E.E.E.E.E.E.E.E.E.E.E.E.E.E.E.E.E.E.",
"E.E.E.E.E.E.E.E.E.E.E.E.E.E.E.E.k.Y.Y.e.a Q / - J ( O.O.( L 0 t d U o.B.V.N.u.@._ E.E.E.E.E.E.E.E.m.E.E.E.E.E.E.E.E.E.E.E.E.E.E.",
"E.E.E.E.E.E.E.E.E.E.E.E.E.E.E.E.2.z.t.$.C r.&.- ! C.L.C. .| @.y.t.y.B.P.L.P.J.C._ R P - , E.E.b.T.E.E.E.E.E.E.E.E.E.E.E.E.E.E.E.",
"E.E.E.E.E.E.E.E.E.E.E.E.E.E.E.E.1 k k l } h.a.* _ J.U.J.@.#.s.g.c.G.Z.S.S.J.S.N.R L L 6 m ,.8.l.E.E.E.E.E.E.E.E.E.E.E.E.E.E.E.E.",
"E.E.E.E.E.E.E.E.E.E.E.E.E.E.E.E.% l z g +.C.:.- ! C.L.A.@.#.a.f.x.G.N.o.-.;.@.( - @ 5 3 <.8.3.k E.E.E.E.E.E.E.E.E.E.E.E.E.E.E.E.",
"E.E.E.E.E.E.E.E.E.E.E.E.E.E.E.E.w i h ` @.=.| L ! #.N.N.;.u.g.x.6.F ( ..-.-. .! P < e n 4.j.w.j E.E.E.E.E.E.E.E.E.E.E.E.E.E.E.E.",
"E.E.E.E.E.E.E.E.E.E.E.E.E.E.E.< T ! [ X._ ! ~ @.;.A.K.A.i.N.H.H.' W +.u.i.#. .( _ L y V <.S N q , E.E.E.E.E.E.E.E.E.E.E.E.E.E.E.",
"E.E.E.E.E.E.E.E.E.E.E.E.E.E.- J T ~  . .! L ( ;.;.K.P.C.N.Z.J.S.~ ..V.J.J.C.;.( [ U Y ] m i U R - E.E.E.E.E.E.E.E.E.E.E.E.E.E.E.",
"E.E.E.E.E.E.E.E.E.E.E.E.E.E.P P 9 U T ! ! P ~ ..E N.B.#.i.Z.J.C.@.:.A.P.U.U.C._  .( _ @.` ` +.O.- E.E.E.E.E.E.E.E.E.E.E.E.E.E.E.",
"E.E.E.E.E.E.E.E.E.E.E.E.E.E.#.o.0 , 9 L U K R | J !  .| o.~ ! ..#.-.i.C.I.L.C.;.J.i...;.;.:.;.+.- E.E.E.E.E.E.E.E.E.E.E.E.E.E.E.",
"E.E.E.E.E.E.E.E.E.E.E.E.E.E.#.o.- $ , < 9 * = J * I ~ ~ ~ L t ! ~ o.@.@.N.N.:.i.I.J.N.-.:.u.p.r.t E.E.E.E.E.E.E.E.E.E.E.E.E.E.E.",
"E.E.E.E.E.E.E.E.E.E.E.E.E.E.! T & - , - @ O . . * L T T L 0 L Q s )  .(  .( _ ;.P.A.;.o.-.+.&.%._ E.E.E.E.E.E.E.E.E.E.E.E.E.E.E.",
"E.E.E.E.E.E.E.E.E.E.E.E.E.E.E.. + - - & + + + + = P ! P , , L ^ Z ^ ! ~ ( ! !  .C.| 0 [ o.! L R ;.E.E.E.E.E.E.E.E.E.E.E.E.E.E.E.",
"E.E.E.E.E.E.E.E.E.E.E.E.E.E.E.E.+ * * O + @ @ & K o.-...J , i S 3.A I ~ _ ( T U ..T L ~ ! J < T @.E.E.E.E.E.E.E.E.E.E.E.E.E.E.E.",
"E.E.E.E.E.E.E.E.E.E.E.E.E.E.E.E.& @ + O O + @ < ! #.:.o.! a D 6.d.D t ! @.@.~ 9 L 9 9 0 0 , , 0 P E.E.E.E.E.E.E.E.E.E.E.E.E.E.E.",
"E.E.E.E.E.E.E.E.E.E.E.E.E.E.E.< K < + O O O + < T  .o.| ~ Q { w.0.' Y ~ ....~ J + $ * - @ $ + + E.E.E.E.E.E.E.E.E.E.E.E.E.E.E.E.",
"E.E.E.E.E.E.E.E.E.E.E.E.E.E.* J ! J $ @ @ + O $ , P R T T ! P L q Q ( ~ ~ ~ ~ T + O + $ O O O O E.E.E.E.E.E.E.E.E.E.E.E.E.E.E.E.",
"E.E.E.E.E.E.E.E.E.E.E.E.E.E.& 9 T 0 - , - + O @ , , , , < < * + * U ! ! ! ~ ! P @ O + O + + + O E.E.E.E.E.E.E.E.E.E.E.E.E.E.E.E.",
"E.E.E.E.E.E.E.E.E.E.E.E.E.E.E.@ < < , , - + O @ - $ + + $ , $   + , 0 K L Q T < + + O O + * @ O E.E.E.E.E.E.E.E.E.E.E.E.E.E.E.E.",
"E.E.E.E.E.E.E.E.E.E.E.E.E.E.E.O X @ - - @ + O + + + + + * , , > 7 > * , < K J $ @ + O + * , $ O E.E.E.E.E.E.E.E.E.E.E.E.E.E.E.E.",
"E.E.E.E.E.E.E.E.E.E.E.E.E.E.E.E.O + @ * O O O O O + * , 0 < > f H g 0 L J , * $ * + + + - , * O E.E.E.E.E.E.E.E.E.E.E.E.E.E.E.E.",
"E.E.E.E.E.E.E.E.E.E.E.E.E.E.E.E.O O + O O O O O + - < P ! 0 y G d.H L ! T , O + + O + $ , - * O E.E.E.E.E.E.E.E.E.E.E.E.E.E.E.E.",
"E.E.E.E.E.E.E.E.E.E.E.E.E.E.E.E.E.O O O O O O O + , L ! ! 0 6 M 6.B J ! K , + O X + @ $ + + + E.E.E.E.E.E.E.E.E.E.E.E.E.E.E.E.E.",
"E.E.E.E.E.E.E.E.E.E.E.E.E.E.E.E.E.E.E.E.O O + O + * J P L , > 8 z r = K , - $ O + O + $ + O E.E.E.E.E.E.E.E.E.E.E.E.E.E.E.E.E.E.",
"E.E.E.E.E.E.E.E.E.E.E.E.E.E.E.E.E.E.E.E.E.O + O + + + $ * * + X   o & - - * + + O O O O O E.E.E.E.E.E.E.E.E.E.E.E.E.E.E.E.E.E.E.",
"E.E.E.E.E.E.E.E.E.E.E.E.E.E.E.E.E.E.E.E.E.O + O O + + O O + O + # + O O + + @ + O O E.E.E.E.E.E.E.E.E.E.E.E.E.E.E.E.E.E.E.E.E.E.",
"E.E.E.E.E.E.E.E.E.E.E.E.E.E.E.E.E.E.E.E.E.O + O + * * O + O O # : # O + + * - @ + O E.E.E.E.E.E.E.E.E.E.E.E.E.E.E.E.E.E.E.E.E.E.",
"E.E.E.E.E.E.E.E.E.E.E.E.E.E.E.E.E.E.E.E.E.O O + @ - - * $ + + # : # + * - , - & + O O E.E.E.E.E.E.E.E.E.E.E.E.E.E.E.E.E.E.E.E.E.",
"E.E.E.E.E.E.E.E.E.E.E.E.E.E.E.E.E.E.E.E.E.+ O + & - < , , + X X O + - , , , * + O O & E.E.E.E.E.E.E.E.E.E.E.E.E.E.E.E.E.E.E.E.E.",
"E.E.E.E.E.E.E.E.E.E.E.E.E.E.E.E.E.E.E.E.E.E.+ & - , , - $ + X + + - , , , , - * O O + E.E.E.E.E.E.E.E.E.E.E.E.E.E.E.E.E.E.E.E.E.",
"E.E.E.E.E.E.E.E.E.E.E.E.E.E.E.E.E.E.E.E.E.E.+ + @ - - + + + O O + , , , , - * + O + E.E.E.E.E.E.E.E.E.E.E.E.E.E.E.E.E.E.E.E.E.E.",
"E.E.E.E.E.E.E.E.E.E.E.E.E.E.E.E.E.E.E.E.E.E.O + O + + O + O O + + @ $ @ * @ + O O E.E.E.E.E.E.E.E.E.E.E.E.E.E.E.E.E.E.E.E.E.E.E.",
"E.E.E.E.E.E.E.E.E.E.E.E.E.E.E.E.E.E.E.E.E.E.+ O O O + O O O O O + O O O O O O O O & E.E.E.E.E.E.E.E.E.E.E.E.E.E.E.E.E.E.E.E.E.E.",
"E.E.E.E.E.E.E.E.E.E.E.E.E.E.E.E.E.E.E.E.E.E.+ O O + O O O O + E.E.O + O O O O O O O + E.E.E.E.E.E.E.E.E.E.E.E.E.E.E.E.E.E.E.E.E.",
"E.E.E.E.E.E.E.E.E.E.E.E.E.E.E.E.E.E.E.E.E.+ O + + * & O O O + E.E.+ O O O O O O O O + E.E.E.E.E.E.E.E.E.E.E.E.E.E.E.E.E.E.E.E.E.",
"E.E.E.E.E.E.E.E.E.E.E.E.E.E.E.E.E.E.E.E.E.O + + - , - & O O + E.E.+ O + O O O O O O + E.E.E.E.E.E.E.E.E.E.E.E.E.E.E.E.E.E.E.E.E.",
"E.E.E.E.E.E.E.E.E.E.E.E.E.E.E.E.E.E.E.E.E.+ & * , < < - + O + E.E.E.+ O O O O O O O & E.E.E.E.E.E.E.E.E.E.E.E.E.E.E.E.E.E.E.E.E.",
"E.E.E.E.E.E.E.E.E.E.E.E.E.E.E.E.E.E.E.E.E.+ - , , , , - @ O & E.E.E.+ O O O O + O E.E.E.E.E.E.E.E.E.E.E.E.E.E.E.E.E.E.E.E.E.E.E.",
"E.E.E.E.E.E.E.E.E.E.E.E.E.E.E.E.E.E.E.E.E.+ * , , , , , * & E.E.E.E.E.& E.E.E.E.E.E.E.E.E.E.E.E.E.E.E.E.E.E.E.E.E.E.E.E.E.E.E.E.",
"E.E.E.E.E.E.E.E.E.E.E.E.E.E.E.E.E.E.E.E.E.@ @ * * & $ * - E.E.E.E.E.E.E.E.E.E.E.E.E.E.E.E.E.E.E.E.E.E.E.E.E.E.E.E.E.E.E.E.E.E.E.",
"E.E.E.E.E.E.E.E.E.E.E.E.E.E.E.E.E.E.E.E.E.E.+ X O O O O O E.E.E.E.E.E.E.E.E.E.E.E.E.E.E.E.E.E.E.E.E.E.E.E.E.E.E.E.E.E.E.E.E.E.E."
};
