/* XPM */
static char *result[] = {
/* columns rows colors chars-per-pixel */
"64 64 173 2 ",
"   c black",
".  c #170000",
"X  c #1D1C1E",
"o  c #121519",
"O  c #28161C",
"+  c #181D23",
"@  c #201E20",
"#  c #281A22",
"$  c #1E2124",
"%  c #232325",
"&  c #2A2126",
"*  c #262629",
"=  c #27292C",
"-  c #2A2B2E",
";  c #3B242A",
":  c #272D33",
">  c #2C2D31",
",  c #352E34",
"<  c #2E3135",
"1  c #27363A",
"2  c #2E3439",
"3  c #26393D",
"4  c #313336",
"5  c #31353B",
"6  c #34393E",
"7  c #383A3E",
"8  c #193F44",
"9  c #243D42",
"0  c #363C42",
"q  c #393E44",
"w  c #443E47",
"e  c #174950",
"r  c #1D4E52",
"t  c #145456",
"y  c #1C5758",
"u  c #25454A",
"i  c #20484D",
"p  c #294348",
"a  c #344045",
"s  c #3C4046",
"d  c #3E4349",
"f  c #3F494E",
"g  c #36464D",
"h  c #244E53",
"j  c #2F4C50",
"k  c #3E4D53",
"l  c #374B52",
"z  c #235356",
"x  c #2B5055",
"c  c #315055",
"v  c #35575D",
"b  c #3A595F",
"n  c #175C60",
"m  c #245D61",
"M  c #3A5E64",
"N  c #006363",
"B  c #126B6C",
"V  c #1B6B6B",
"C  c #00716F",
"Z  c #027372",
"A  c #057B7A",
"S  c #107876",
"D  c #1D7778",
"F  c #2D6465",
"G  c #39686D",
"H  c #346369",
"J  c #3E6970",
"K  c #277475",
"L  c #307A7C",
"P  c #41464C",
"I  c #43494F",
"U  c #454C52",
"Y  c #4A4E55",
"T  c #445057",
"R  c #4B5057",
"E  c #4D545B",
"W  c #44565E",
"Q  c #51565D",
"!  c #51585F",
"~  c #4D5C63",
"^  c #555B63",
"/  c #595E65",
"(  c #466167",
")  c #43696C",
"_  c #5A6066",
"`  c #52666D",
"'  c #5C626A",
"]  c #436E75",
"[  c #4C6C71",
"{  c #536A72",
"}  c #5E6870",
"|  c #487077",
" . c #447477",
".. c #5E7077",
"X. c #61676F",
"o. c #646B73",
"O. c #696E76",
"+. c #627077",
"@. c #677179",
"#. c #6C727A",
"$. c #71767E",
"%. c #1D7E80",
"&. c #247E81",
"*. c #397E84",
"=. c #5C7D85",
"-. c #527980",
";. c #677981",
":. c #6F7D85",
">. c #717780",
",. c #747B83",
"<. c #797E86",
"1. c #797F88",
"2. c #088885",
"3. c #008B89",
"4. c #158483",
"5. c #009290",
"6. c #019C9A",
"7. c #338287",
"8. c #3E8F90",
"9. c #279594",
"0. c #2E9FA1",
"q. c #2DA3A3",
"w. c #28ABAA",
"e. c #36A4A5",
"r. c #3AA8AB",
"t. c #418289",
"y. c #4C8D95",
"u. c #7C838B",
"i. c #788892",
"p. c #66949D",
"a. c #72949D",
"s. c #79929C",
"d. c #569AA2",
"f. c #5D9CA4",
"g. c #4DA2A8",
"h. c #53ADB2",
"j. c #48B3B6",
"k. c #63A2AB",
"l. c #7DA3AB",
"z. c #64B4BC",
"x. c #6BB5BA",
"c. c #73B1BB",
"v. c #7BC4CB",
"b. c #81878F",
"n. c #818790",
"m. c #858C94",
"M. c #888F98",
"N. c #8B929B",
"B. c #92949D",
"V. c #9097A0",
"C. c #949BA4",
"Z. c #919FA8",
"A. c #989FA8",
"S. c #9AA2AB",
"D. c #95A3AC",
"F. c #86ABB3",
"G. c #9CABB4",
"H. c #81B4BE",
"J. c #9AB3BC",
"K. c #A4ACB5",
"L. c #ABAFB9",
"P. c #ADB5BE",
"I. c #9DB6C0",
"U. c #AFB7C1",
"Y. c #B2B8C2",
"T. c #B7BFC9",
"R. c #82C6C9",
"E. c #84CBD3",
"W. c #8AD0D5",
"Q. c #9BD8DE",
"!. c #B8C1CB",
"~. c #A3DFE7",
"^. c None",
/* pixels */
"^.^.^.^.^.^.^.^.^.^.^.^.^.^.^.^.^.^.^.^.^.^.^.^.^.^.^.^.^.^.^.^.^.^.^.^.^.^.^.^.^.^.^.^.^.^.^.^.^.^.^.^.^.^.^.^.^.^.^.^.^.^.^.^.",
"^.^.^.^.^.^.^.^.^.^.^.^.^.^.^.^.^.^.^.^.^.^.^.^.^.^.^.^.^.^.^.^.^.^.^.^.^.^.^.^.^.^.^.^.^.^.^.^.^.^.^.^.^.^.^.^.^.^.^.^.^.^.^.^.",
"^.^.^.^.^.^.^.^.^.^.^.^.^.^.^.^.^.^.^.^.^.^.^.^.^.^.^.^.^.^.^.^.^.^.^.^.^.^.^.^.^.^.^.^.^.^.^.^.^.^.^.^.^.^.^.^.^.^.^.^.^.^.^.^.",
"^.^.^.^.^.^.^.^.^.^.^.^.^.^.^.^.^.^.^.^.^.^.^.^.^.^.^.^.^.^.^.^.^.^.^.^.^.^.^.^.^.^.^.^.^.^.^.^.^.^.^.^.^.^.^.^.^.^.^.^.^.^.^.^.",
"^.^.^.^.^.^.^.^.^.^.^.^.^.^.^.^.^.^.^.^.^.^.^.^.^.^.^.^.^.^.^.^.^.^.^.^.^.^.^.^.^.^.^.^.^.^.^.^.^.^.^.^.^.^.^.^.^.^.^.^.^.^.^.^.",
"^.^.^.^.^.^.^.^.^.^.^.^.^.^.^.^.^.^.^.^.^.^.^.^.^.^.^.^.^.^.^.^.^.^.^.^.^.^.^.^.^.^.^.^.^.^.^.^.^.^.^.^.^.^.^.^.^.^.^.^.^.^.^.^.",
"^.^.^.^.^.^.^.^.^.^.^.^.^.^.^.^.^.^.^.^.^.^.^.^.^.^.^.^.^.^.^.^.^.^.^.^.^.^.^.^.^.^.^.^.^.^.^.^.^.^.^.^.^.^.^.^.^.^.^.^.^.^.^.^.",
"^.^.^.^.^.^.^.^.^.^.^.^.^.^.^.^.^.^.^.^.^.^.^.^.^.^.^.^.^.^.^.^.^.^.^.^.^.^.^.^.^.^.^.^.^.^.^.^.^.^.^.^.^.^.^.^.^.^.^.^.^.^.^.^.",
"^.^.^.^.^.^.^.^.^.^.^.^.^.^.^.^.^.^.^.^.^.^.^.^.^.^.^.^.^.^.^.~.^.^.^.^.^.^.^.^.^.^.^.^.^.^.^.^.^.^.^.^.^.^.^.^.^.^.^.^.^.^.^.^.",
"^.^.^.^.^.^.^.^.^.^.^.^.^.^.^.^.^.^.^.^.^.^.^.^.^.^.^.^.^.^.^.v.^.^.^.^.^.^.^.^.^.^.^.^.^.^.^.^.^.^.^.^.^.^.^.^.^.^.^.^.^.^.^.^.",
"^.^.^.^.^.^.^.^.^.^.^.^.^.^.^.^.^.^.^.^.^.^.^.^.^.^.^.^.^.^.^.r.^.^.^.^.^.^.^.^.^.^.^.^.^.^.^.^.^.^.^.^.^.^.^.^.^.^.^.^.^.^.^.^.",
"^.^.^.^.^.^.^.^.^.^.^.^.^.^.^.^.^.^.^.^.^.^.^.^.^.^.^.^.^.^.^.6.^.^.^.^.^.^.^.^.^.^.^.^.^.^.^.^.^.^.^.^.^.^.^.^.^.^.^.^.^.^.^.^.",
"^.^.^.^.^.^.^.^.^.^.^.^.^.^.^.^.^.^.^.^.^.^.^.^.^.^.^.^.^.^.^.A ^.^.^.^.^.^.^.^.^.^.^.^.^.^.^.^.^.^.^.^.^.^.^.^.^.^.^.^.^.^.^.^.",
"^.^.^.^.^.^.^.^.^.^.^.^.^.^.^.^.^.^.^.^.^.^.^.^.^.^.^.^.^.^.^.B 6.^.^.^.^.^.^.^.^.^.^.^.^.^.^.^.^.^.^.^.^.^.^.^.^.^.^.^.^.^.^.^.",
"^.^.^.^.^.^.^.^.^.^.^.^.^.^.^.^.^.^.^.^.^.^.^.^.^.^.^.^.^.^.e y 6.^.^.^.^.^.^.^.^.^.^.^.^.^.^.^.^.^.^.^.^.^.^.^.^.^.^.^.^.^.^.^.",
"^.^.^.^.^.^.^.^.^.^.^.^.z.^.^.^.^.^.^.^.^.^.^.^.^.^.^.^.^.c z z V y ^.^.^.^.^.^.^.^.^.^.^.^.^.^.^.^.^.z.^.^.^.^.^.^.^.^.^.^.^.^.",
"^.^.^.^.^.^.^.^.^.^.^.^.^.^.g.2.^.^.^.- w 4 q ^ / / / / ' R d I M 3 / M.m.m.1.' ! ^ ^ ~ 0 5 j ^.6.W.^.^.^.^.^.^.^.^.^.^.^.^.^.^.",
"^.^.^.^.^.^.^.^.^.^.^.^.^.^.9.w.Q.W.7.> ` T 5 P ! N.K.S.o.X.O.@.f.=.b.K.K.K.K.C.Y 6 q f 5 h &.w.5.x.^.^.^.^.^.^.^.^.^.^.^.^.^.^.",
"^.^.^.^.^.^.^.^.^.^.^.^.^.^.^.q.R.x.7.j p.[ # = 6 A.!.U.o.#.u.i.z.F.V.A.A.A.S.C.P > 0 0 9 Z 0.j.4.^.^.^.^.^.^.^.^.^.^.^.^.^.^.^.",
"^.^.^.^.^.^.^.^.^.^.^.^.^.^.^.B Z Z N H H.=.O < o i.K.S.#.#.u.a.h.F.N.O.>.,.>.o.q Y R 0 h 3.e.d.K z ^.^.^.^.^.^.^.^.^.^.^.^.^.^.",
"^.^.^.^.^.^.^.^.^.^.^.^.^.^.^.p A N t [ K.,.+ 6 2 o.n.M.<.$.s.c.9.L ~ X.,.,.#./ 0 ' X.0 b D Z m k s 5 ^.^.^.^.^.^.^.^.^.^.^.^.^.",
"^.^.^.^.^.^.^.^.^.^.^.^.^.^.^.6 m n ( #.m.X.0 d : M.K.S.u.<.D.J. .M o.u.b.,.o.^ 5 ^ ^ 0 @.[ y M o.Q $ ^.^.^.^.^.^.^.^.^.^.^.^.^.",
"^.^.^.^.^.^.^.^.^.^.^.^.^.^.7 U W ` o.#.^ / o.' : C.U.C.<.m.K.L./ ^ u.S.S.Z.u.^ I 1.,.k ,.#.{ { u./   ^.^.^.^.^.^.^.^.^.^.^.^.^.",
"^.^.^.^.^.^.^.^.^.^.^.^.^.* P ^ / #.#.^ 2 o.u.,.4 m.V.O.,.N.S.Z.O.#.M.K.U.T.S.^ O.K.G.] 1.<.<.u.a.` . ^.^.^.^.^.^.^.^.^.^.^.^.^.",
"^.^.^.^.^.^.^.^.^.^.^.^.^.P P s ^ ^ ' ^ 0 o.1.O.4 ! o.' ,._ E O.#.,.,.u.K.U.V.' S.Y.J.d.:.,.1.:.k...; ^.^.^.^.^.^.^.^.^.^.^.^.^.",
"^.^.^.^.^.^.^.^.^.^.^.^.^.$.o.5 d d R ^ 6 O.$.U - U ^ ^ ' f s ^ Y #.>.X.m.N.,./ b.K.D.] X.$.$.'  .;.#.^.^.^.^.^.^.^.^.^.^.^.^.^.",
"^.^.^.^.^.^.^.^.^.^.^.^.^.u.#.- 0 2 d Y > O.o.+ * I ! E U s U ^ h ` o./ } o.' Y Y m.u.# ! o.' I & #.u.^.^.^.^.^.^.^.^.^.^.^.^.^.",
"^.^.^.^.^.^.^.^.^.^.^.^.^.#.' * 0 0 0 2 % _ _ % * U ^ E a 6 d ~ D G ^ / / ' E : X ^ / 0 E ! U 6 0 ' #.^.^.^.^.^.^.^.^.^.^.^.^.^.",
"^.^.^.^.^.^.^.^.^.^.^.^.^.7 4 > 0 0 2 - > 0 0 - 4 X.1.#.Y 6 a F q.%.l ^ } o.~ * = 6 s 6 q q 0 0 0 5 6 ^.^.^.^.^.^.^.^.^.^.^.^.^.",
"^.^.^.^.^.^.^.^.^.^.^.^.^.^.% < 0 2 > - 5 < - < Y #.u.,.^ w H 9.h.*.p R #.>.' 5 > > > < 0 < > > 2 * ^.^.^.^.^.^.^.^.^.^.^.^.^.^.",
"^.^.^.^.^.^.^.^.^.^.^.^.^.^.^.> < > - - 5 5 < 6 Y ' @.O.' Y ) t.y.| T E +.>.o.Y 6 - = - < > - - - ^.^.^.^.^.^.^.^.^.^.^.^.^.^.^.",
"^.^.^.^.^.^.^.^.^.^.^.^.^.^.^.> - - - - = 5 q 0 5 Y E E ~ ! Q Y 8 ~ ' / / / / ^ d > - - = - > < 4 ^.^.^.^.^.^.^.^.^.^.^.^.^.^.^.",
"^.^.^.^.^.^.^.^.^.^.^.^.^.^.^.7 > > - - = 5 0 0 0 0 0 0 0 q q > = U ^ ^ ^ / / ~ q 2 > - - = 2 0 q ^.^.^.^.^.^.^.^.^.^.^.^.^.^.^.",
"^.^.^.^.^.^.^.^.^.^.^.^.^.^.P ! 0 > = - > 4 q 0 0 2 > > > 0 4 % * 0 d P d ^ ^ d 0 0 2 = - - 2 q ! q ^.^.^.^.^.^.^.^.^.^.^.^.^.^.",
"^.^.^.^.^.^.^.^.^.^.^.^.^.@ U / d > - > = > 5 q 4 > > > 5 0 0 1 h 9 5 0 0 P P 5 0 5 > - - > 5 d ' I O ^.^.^.^.^.^.^.^.^.^.^.^.^.",
"^.^.^.^.^.^.^.^.^.^.^.^.^.% s E q 5 < < > = < 0 > > > 5 U d 5 p *.M q T U 0 2 0 0 > - - = 6 0 q R d ^.^.^.^.^.^.^.^.^.^.^.^.^.^.",
"^.^.^.^.^.^.^.^.^.^.^.^.^.- < 4 0 0 0 5 > - < 0 > 4 0 P / U 1 m h.*.g / ^ q > > > - - = > 5 0 0 5 ^.^.^.^.^.^.^.^.^.^.^.^.^.^.^.",
"^.^.^.^.^.^.^.^.^.^.^.^.^.^.= - > 0 0 > - - > > = 2 f ^ / U : h e.K q / U q 2 = - - - > 5 < 5 0 ^.^.^.^.^.^.^.^.^.^.^.^.^.^.^.^.",
"^.^.^.^.^.^.^.^.^.^.^.^.^.^.^.- = < > - - - = = - > q E R d > 1 S h , R 0 0 5 = - - - > 5 > > 4 ^.^.^.^.^.^.^.^.^.^.^.^.^.^.^.^.",
"^.^.^.^.^.^.^.^.^.^.^.^.^.^.^.- > = = > = > - > - = > 5 4 6 4 - # # > 2 5 0 4 - - - - - - > - - ^.^.^.^.^.^.^.^.^.^.^.^.^.^.^.^.",
"^.^.^.^.^.^.^.^.^.^.^.^.^.^.^.^.- - - - - > - - - > > - > > - - 2 < - - > > > > - - - - - - > ^.^.^.^.^.^.^.^.^.^.^.^.^.^.^.^.^.",
"^.^.^.^.^.^.^.^.^.^.^.^.^.^.^.^.^.^.^.^.- - - - - 5 5 - - - = > i 3 = - > 2 0 2 > > - ^.^.^.^.^.^.^.^.^.^.^.^.^.^.^.^.^.^.^.^.^.",
"^.^.^.^.^.^.^.^.^.^.^.^.^.^.^.^.^.^.^.^.^.- > - > 6 0 5 5 < = > u 1 > 5 4 0 0 5 > > - ^.^.^.^.^.^.^.^.^.^.^.^.^.^.^.^.^.^.^.^.^.",
"^.^.^.^.^.^.^.^.^.^.^.^.^.^.^.^.^.^.^.^.^.> > - > 6 0 0 0 < - - = > 5 q 0 0 0 > - > - ^.^.^.^.^.^.^.^.^.^.^.^.^.^.^.^.^.^.^.^.^.",
"^.^.^.^.^.^.^.^.^.^.^.^.^.^.^.^.^.^.^.^.^.> - - 6 0 0 0 0 4 - - = 5 0 0 0 0 0 5 > - > ^.^.^.^.^.^.^.^.^.^.^.^.^.^.^.^.^.^.^.^.^.",
"^.^.^.^.^.^.^.^.^.^.^.^.^.^.^.^.^.^.^.^.^.^.- > > 5 6 > > - - - - 5 q 6 0 0 5 > > - ^.^.^.^.^.^.^.^.^.^.^.^.^.^.^.^.^.^.^.^.^.^.",
"^.^.^.^.^.^.^.^.^.^.^.^.^.^.^.^.^.^.^.^.^.^.4 - * 4 4 - - - > - - 4 4 5 4 2 < - - < ^.^.^.^.^.^.^.^.^.^.^.^.^.^.^.^.^.^.^.^.^.^.",
"^.^.^.^.^.^.^.^.^.^.^.^.^.^.^.^.^.^.^.^.^.^.- - - - - - - - - > - - - - - - - - - < ^.^.^.^.^.^.^.^.^.^.^.^.^.^.^.^.^.^.^.^.^.^.",
"^.^.^.^.^.^.^.^.^.^.^.^.^.^.^.^.^.^.^.^.^.- - - - - - - - - > ^.^.> > - - - - - - - - ^.^.^.^.^.^.^.^.^.^.^.^.^.^.^.^.^.^.^.^.^.",
"^.^.^.^.^.^.^.^.^.^.^.^.^.^.^.^.^.^.^.^.^.- > - > > > - - > - ^.^.- > - - - - - - < > ^.^.^.^.^.^.^.^.^.^.^.^.^.^.^.^.^.^.^.^.^.",
"^.^.^.^.^.^.^.^.^.^.^.^.^.^.^.^.^.^.^.^.^.- 4 5 5 5 4 > > > > ^.^.> > - > > > > - - - ^.^.^.^.^.^.^.^.^.^.^.^.^.^.^.^.^.^.^.^.^.",
"^.^.^.^.^.^.^.^.^.^.^.^.^.^.^.^.^.^.^.^.^.- 5 q 0 0 6 < 4 - > ^.^.> - - 2 > 4 > - > > ^.^.^.^.^.^.^.^.^.^.^.^.^.^.^.^.^.^.^.^.^.",
"^.^.^.^.^.^.^.^.^.^.^.^.^.^.^.^.^.^.^.^.^.- > q 0 6 6 6 0 5 ^.^.^.^.- > 6 6 7 6 > - 4 ^.^.^.^.^.^.^.^.^.^.^.^.^.^.^.^.^.^.^.^.^.",
"^.^.^.^.^.^.^.^.^.^.^.^.^.^.^.^.^.^.^.^.^.^.4 4 > < < 4 4 4 ^.^.^.^.4 > > 4 < < - > ^.^.^.^.^.^.^.^.^.^.^.^.^.^.^.^.^.^.^.^.^.^.",
"^.^.^.^.^.^.^.^.^.^.^.^.^.^.^.^.^.^.^.^.^.^.^.- > > - - - ^.^.^.^.^.^.> > > - - > ^.^.^.^.^.^.^.^.^.^.^.^.^.^.^.^.^.^.^.^.^.^.^.",
"^.^.^.^.^.^.^.^.^.^.^.^.^.^.^.^.^.^.^.^.^.^.^.^.^.^.^.^.^.^.^.^.^.^.^.^.^.^.^.^.^.^.^.^.^.^.^.^.^.^.^.^.^.^.^.^.^.^.^.^.^.^.^.^.",
"^.^.^.^.^.^.^.^.^.^.^.^.^.^.^.^.^.^.^.^.^.^.^.^.^.^.^.^.^.^.^.^.^.^.^.^.^.^.^.^.^.^.^.^.^.^.^.^.^.^.^.^.^.^.^.^.^.^.^.^.^.^.^.^.",
"^.^.^.^.^.^.^.^.^.^.^.^.^.^.^.^.^.^.^.^.^.^.^.^.^.^.^.^.^.^.^.^.^.^.^.^.^.^.^.^.^.^.^.^.^.^.^.^.^.^.^.^.^.^.^.^.^.^.^.^.^.^.^.^.",
"^.^.^.^.^.^.^.^.^.^.^.^.^.^.^.^.^.^.^.^.^.^.^.^.^.^.^.^.^.^.^.^.^.^.^.^.^.^.^.^.^.^.^.^.^.^.^.^.^.^.^.^.^.^.^.^.^.^.^.^.^.^.^.^.",
"^.^.^.^.^.^.^.^.^.^.^.^.^.^.^.^.^.^.^.^.^.^.^.^.^.^.^.^.^.^.^.^.^.^.^.^.^.^.^.^.^.^.^.^.^.^.^.^.^.^.^.^.^.^.^.^.^.^.^.^.^.^.^.^.",
"^.^.^.^.^.^.^.^.^.^.^.^.^.^.^.^.^.^.^.^.^.^.^.^.^.^.^.^.^.^.^.^.^.^.^.^.^.^.^.^.^.^.^.^.^.^.^.^.^.^.^.^.^.^.^.^.^.^.^.^.^.^.^.^.",
"^.^.^.^.^.^.^.^.^.^.^.^.^.^.^.^.^.^.^.^.^.^.^.^.^.^.^.^.^.^.^.^.^.^.^.^.^.^.^.^.^.^.^.^.^.^.^.^.^.^.^.^.^.^.^.^.^.^.^.^.^.^.^.^.",
"^.^.^.^.^.^.^.^.^.^.^.^.^.^.^.^.^.^.^.^.^.^.^.^.^.^.^.^.^.^.^.^.^.^.^.^.^.^.^.^.^.^.^.^.^.^.^.^.^.^.^.^.^.^.^.^.^.^.^.^.^.^.^.^.",
"^.^.^.^.^.^.^.^.^.^.^.^.^.^.^.^.^.^.^.^.^.^.^.^.^.^.^.^.^.^.^.^.^.^.^.^.^.^.^.^.^.^.^.^.^.^.^.^.^.^.^.^.^.^.^.^.^.^.^.^.^.^.^.^."
};
