/* XPM */
static char *result[] = {
/* columns rows colors chars-per-pixel */
"64 64 41 1 ",
"  c #161519",
". c #181719",
"X c #1E1D1D",
"o c #201F1F",
"O c #21201F",
"+ c #242422",
"@ c #282724",
"# c #2B2A26",
"$ c #2E2D29",
"% c #302E29",
"& c #35352D",
"* c #38362F",
"= c #373730",
"- c #393630",
"; c #3D3B33",
": c #413E36",
"> c #433F38",
", c #434037",
"< c #464339",
"1 c #48453B",
"2 c #4C493E",
"3 c #534E3F",
"4 c #4E4C40",
"5 c #575142",
"6 c #5B5545",
"7 c #5F5847",
"8 c #5F5948",
"9 c #605A47",
"0 c #615B49",
"q c #66614D",
"w c #666551",
"e c #686753",
"r c #6D6B56",
"t c #6F6E58",
"y c #706F59",
"u c #75735C",
"i c #79765F",
"p c #79785F",
"a c #797760",
"s c #7A7960",
"d c #807F65",
/* pixels */
"aaapasaaaasu%O.&tsaaaaaasssadt$$ya8qusaaaaaaay%o5wusaaauaapppu$X",
"apupuiiiuppy&@.&raaaauaupuuuar$&ya88upupaaaaay*@60usaiiiiuuipu$O",
"pp1<9099000885@+;46088081:<<<:X&up4;<168>>77<<66790007<>,,<<<,+O",
"pu,:6967888706$@-1676886<::;:;X&ry1=:<66>>67<>60769976>:,:;;;;++",
"pu,,6877996996;:7777999886<;:;@+@$*,5868669766777997777686:;,;++",
"au<,8877699997,,5777969686<::;@++$;16888999799777777777796,;,;++",
"sp868779998606::777997608885<=+#3968888676779777777777778666,;@O",
"pp888777799996,,567777066685<;+$8086688877777777777777779888,;++",
"9977777779797765>,687706<,,,,;X&tu1,608999997777969996966887:;OO",
"0077777777777796>1677785<;;:,-X&yu1,506069777777977999999866:;@+",
"au97777777777777577786<>:;;;:;X=yi067777797777776969999886,:,;@O",
"au97777779797777777786<;;,,::;X=yp067777777799676999969686::,;@O",
"au00777777777777779706,--,65<;X=yp078077777777779977896886,;;;+O",
"aa967977777779979677961,,1661-X&yi068679777779776977899886,:,;@+",
"aa>>6977779777770996886666061;X&uu2,6066777779777777868886:;,;O+",
"aa>>697777697777699986888865<-X&tu<;6670777777777777888666<;:;@O",
"sa767777977977977777777696<>,;X&ua4-@%5067779969777777661>>;:;@o",
"au077777777777777777779996,;:;X&rr>-%-509777799977777766>;;::;@+",
"90977777979997777977776996,=,-@+%%X#47697777796977777795>;;;;;++",
"009777777966779777776996961:,;#O##@-50767779969977777797<>>>>;+o",
"ay77797769098888770099978776<-+#2656777777779999777777776666>;++",
"aa07777776666868775766778873<-+%9099777777776969777777778865>;++",
"aa877797<>><698805>>>>6996<:<;X&ru0977777777999990997777761,;;++",
"au777765:;;:688607>;;>5786<;,;X&yi957777777796695657777786,;,;++",
"au08861<::;,688897>;;,,288,;<;X&yu2>9999796600091,,1696887<;>>++",
"aa6686;;;,;,686695>:,;-,55<;;=X=yu>:696786886663>;;>688865,;;-++",
"au1<88,;;,;,88<<77>;::;,<<,-$@ =yu4:609909q61,,<:::>89881>>;#+++",
"au>;56,;>;;,55;:55>:;::;;;,-#O =yu>>56666633,;;;;:;:6665;;;=+X++",
"da1;11;,,:::<1::11>>>;::,;<;#+ -aa4;>>11<<1<,,,,::::11<1,:#@++++",
"tt,-;;;;;;;;;-;;;-;;;;;;;;;=#+.&we1-:--:;;;;;;-;;;;;;--;;;++++++",
"&$XXXX++XXXXXXXXXX++oXXXXXXX  ++$$o.ooooXXXXXXXXXXXXoXXXXX    ++",
"$&&&&&$$&&&&=&&&=&@@&&&&=&&&=&++$%-%-&%%&=&&&=&&&&=&&&&&&&&==&+o",
"rryyye66rryrrryyir;:ryytuyyuue$$eutyut66yuyyyyyyyyyyyyyyyyyyyy#o",
"ddiddd70duddddiuuy12upiiuuuuar$&asuuay88yaiiaiaauuidiiiuauayay#o",
"iu>>7077700077>31266000921224<X&tu4>14,<>40000094190004>4>1421@o",
"du::6677666666>>;>696676,;---=X&uu1=;;:,>>576696>:5965>:::----@o",
"ii>:7777677777666766998865<;,;X&uu2;5856577977776679976665>;:;+o",
"iu1>7777777777709098969608<;,;X=uu2<8088997777779977779909<<::@+",
"au957777777777777669998686<;,-X=ta85778877777777977777779755>;@o",
"ai0977777777777799990688061,,;X&tu06878877777777777777767777:;@+",
"du99999777777777777777779866<-X=ua08879777977767966977977776>;++",
"uu969677777777777797799768061-X&eu86777777779799979797777777>;++",
"00977769777777777797777768861-+$88<<607779777777697777977776>;@+",
"00997777777777777777797788861-+$68,;587777777779797977777776:;++",
"uu997777777777777777777777851;X&ru<:507777777777777799696886,;++",
"aa69777777777777777797697786<-X&uu3,607977777977697706998866>;++",
"aa>>7977777777777777779777861-X-ta056966777779777777998886<,,;++",
"aa>>6777777777777777777777051;o=ru080809777777777777688666:;;;++",
"aa777777777777777977967777951=+$507797779677779777777776>>::;;@o",
"uy077777777997797777799977751-o$507977777977977777777776:::::-@o",
">4777777797799779779777696>>>;X-yu0677777777777777777777:;:::;@o",
"--677777777776977777777796>>>-X-ya0697777777779777777777>>>>:;++",
"@#67777777777777779799069975>-+%5q96777779999797777777776666:;@+",
"#%77777777777777777760609695>;o#5099777776667977777777779999>;@o",
"uy0777777777777777779986951:>;o&ra06777796>>6069777777776996>;++",
"aa077777777777777797778695>:>;X-ya06777796::5999777777776966:;++",
"au1<777777779777777888861;:,,-X&yu>>606996##69990699998606,::;++",
"au>;57667779677777766686<;;;:;X&ua4:596765#@59666066668866:;:;++",
"au1;,>>17797>>697886<>>,::,;,;X&ya05>:>>66#+:<:<60990688<::::;++",
"ap1;;;-:5775:>568685,;;;;;;;,-X&ya051;;>66%+-;;:69686866:;:;;;++",
"ap,;::::>:::::>:,,,>,;,;,;#++@ =ta4-::::>::-@@;::::>,,>>::,;@+++",
"uu<;;;;;;;;;:-;;;;;;;;;;,-@oo+ =ry1-:;;;;;:-@+;:;;;;;;;;;;;-++O+",
"#$@+@@+++@@@@@@@++@+++++++++++++##@++@@++@+++++++@++++++++++O+++",
"XXO+oo@o@o@ooooo+++++++++o++o+++oo+oo@oo++o++O++++++++++++++++O+"
};
