/* XPM */
static char *result[] = {
/* columns rows colors chars-per-pixel */
"65 65 89 1 ",
"  c #00151E",
". c #031624",
"X c #031A25",
"o c #011D2B",
"O c #0A1C2A",
"+ c #001E31",
"@ c #02212E",
"# c #0A242E",
"$ c #022333",
"% c #092633",
"& c #052835",
"* c #0C2A36",
"= c #052739",
"- c #0A263B",
"; c #052B3B",
": c #0B2C3B",
"> c #112C35",
", c #122E3A",
"< c #0D313E",
"1 c #12313E",
"2 c #1A343C",
"3 c #0B2E41",
"4 c #122E42",
"5 c #073340",
"6 c #0D3243",
"7 c #0E3844",
"8 c #143443",
"9 c #193644",
"0 c #153945",
"q c #1A3A45",
"w c #133649",
"e c #1B354A",
"r c #153A4B",
"t c #1C3C4B",
"y c #1C3E51",
"u c #253947",
"i c #223D4C",
"p c #2A3D4B",
"a c #213D52",
"s c #13434F",
"d c #1C414E",
"f c #174552",
"g c #1D4353",
"h c #1D4956",
"j c #1E4559",
"k c #1E4C5A",
"l c #23424E",
"z c #2C424E",
"x c #234554",
"c c #2A4452",
"v c #244956",
"b c #2A4A56",
"n c #234659",
"m c #28475A",
"M c #244C5B",
"N c #2A4D5C",
"B c #324D5B",
"V c #25515E",
"C c #2B515E",
"Z c #32525D",
"A c #254E61",
"S c #2A4E61",
"D c #314E63",
"F c #265162",
"G c #2C5263",
"H c #2E5966",
"J c #2E5669",
"K c #2E5869",
"L c #325464",
"P c #385663",
"I c #335966",
"U c #3D5965",
"Y c #325669",
"T c #39556A",
"R c #345A6B",
"E c #395C6D",
"W c #355E71",
"Q c #3A5E71",
"! c #37616F",
"~ c #3C616E",
"^ c #376072",
"/ c #3C6273",
"( c #3E6876",
") c #3F6578",
"_ c #45636E",
"` c #416475",
"' c #486671",
"] c #426679",
"[ c #496C7F",
/* pixels */
"=6=3;$=o;=++++++wQWJYDJJAkAAxg9o8GRAnVVVVCZCZv2$sR!FSJAAWAAnnmiO@",
"wgrrr7w5rww6ww3+wQJDYDTJAjkkxg9@wGEAMVkVvVCCZv1@8GJmASAAAjynxNi$X",
"yLAASnkyAMnnAa4+wQYSDDJJkkkFxh8$3GRMkVVkvvCVCb1@tLLMASAjJAASBPb,@",
"yEGSJFAMAAASDDe.wQYSDSDJkkkFxxqo3SJAhMVMhvCVCb0@8NSnASAnWSDmvbl*X",
"6QLnGAMjAAAADDe+r)WADASSkkkVkk9@3FKnhVkMhvVvVb9@8NLLE/EYELLCbbp>X",
"3QJjSAMnmAaaDDa+yQWADmAAkkkVkf9@3MKMMMVkkvvMCb1oqbLNLLNnNBLLBBz>#",
"3]TyASMMnSAADDa3wQYSDSSAVkVVkh2@3SRnkVVVvvvMZb9o@1:*:&oo::12>2>X ",
"6[QySFMSMSDADDe+4QYSDmSSVkkVhh2@3SIMhVVVMMVbZC0XX%@o@$o+ooXX ##XX",
"w]ESSMGMAjnSDS4.wWJSDaASkkVVMx8XwGLMVMhVVVbvbbq&@>$*e8w-::92,u2  ",
"wQRMAAGAAMnNTSe+wWWJDASDVkkVxxeo6GJnVVvVVVVvbb0@9blbNxmaxxbbicz#X",
"wQYMMMFNSMMAYDe=wQQRDnSJVkkkhge+wGJnVVkVVVVbVb1@9ZDLLvAANvNBzbz#X",
"4QYMMASAANmADDe3w)]TDnADVkkkvx8owJKnVVkCvVVvbv1X:NNNNyAymhNmlzl@o",
"wTJnMMSMSSAADTa33Q)WLghVkkkkvh9XwGHnVVkVMCCbbv8@1NNSSnAnNnGNlBz#O",
"wQYnMAAAnSmmDDe33W)RDhkVsskkvg9XwLKnVVkVMVVvbb1@8GNMAASAAnGGvbv#o",
"wQEMMMAMMAAmDDy-w)QYDmVHkkkVmxqowJJnMVMHVVbvCb2$6SmjjjAjjjANlbl@X",
"w/YMMMSMjSAASDe+y)QFDmFH!FHVNve@8YLnMFMFVCVbbv0&rYJnAjAjAMGCcbl@O",
"6Q^FNjMMFAASNNt@gGE/YJ`E!(!!ZZ9o0JJnCCmFvZICvv0@tGNNDaAAjjVVlzu#.",
"6Q^MAMAASkANmmt&$8rjfyChvVMvxl1$rYLnFCmNvCZbbv2&gLNmDaDSAACVvbuO.",
"3EEFAkAAAMnMbbl*$www;&;$&;:$@#@orJJnNFnVNNCCbl1&gPNmmDYRAkFVbBpO.",
"6ERAAAFAFjMmNZl<$yrrsrr6<00<,<*@rLJMCCmMNvCCZd1&xEDmSSYRAhkVZBuO.",
"3EJAAAFFFAnSCCl<4SSnMMMhvvvhxx,orHKkVCxCVvMCCl1&x~DmxmDFkkkvbZu..",
"6WJAAAFAFMAMbbd&rQYMMxhggvvvcv, rHKMVVhMvvbVVv1&x~PmmaSAkkvvbBu..",
"7EJAAAFFFAMNbbq@=YFhVnNJvVvmbm9orKJkVNhVvbVvvv1$t~YNaaSnVhkvzBuO.",
"7QJkAAFAFMMNbv2@8`RxMgxCMVvxbb9$rKKkVVhVhVVvvvs@t!TNmmAaVkVhccuOO",
"6QRMAAJAAAkAbbq@8QLmMvVNMbMvcc8orKKhhMMMvMvvNM8XxEDDDmAjkhvVvBz .",
"6ERnAAFAFAAjvbt@8QJnMMMVVVNvbb9orKRMhMMGCNvvbv6XxEDBDaAjkhMVvBzO.",
"5EJnAAAAAkAAvbd@4RJmNmCMvbNvBbq$rR^MfxmFbCnvbv2@tIDmmmSnFhkVcBzO.",
"6RGnAAAkAAnmbbd$:YJMFMMVMVNMmbe$0R(GvgmGmbmnbv8otPDDaSSnFkVVBBzO.",
"6IFnFMAkAkMMmbq@3YJMSMMMvVVbCbq+wL]EDNBYSPLBBm9otLNNDmDAHkVMbBz#.",
"<JMnAMAAAjMnvvq@4ELMMmCNMVbCZbq$3SEELLPTPPLBBc9ogLmvSBLAFvVCcBzO.",
"6GnhFkAjAknnvc9owQYMFMCNvVCCZbqo$eaaxayaaciitu,oxYNmDDRVHkVvzBzOX",
"6NnhFMkkAjnnxx9XwQRNNMFFvCbCbb8o+33---$$$-%$-*%XxTBmSGRVFkVVlBzOX",
"*ZCVkVHVHFJIHZv&0RRGNnFNNGMmLm8$+rt6;:;3;:3:91#XtRLMNMRGFVCVvbx#X",
"&VCH!HHHRFII~~Z77IIGNmGNNGMmLN3$:nCgfgyjfggxcl>@tEDNCMJFCMZChbv$X",
"&shVVkkfhddgvVv>6GGGFmCMNGmNLN4$8NJMMAAAMNCbbl1XyQLSNALGCCCHvbl@X",
"@<&77;<<;;;<<27X6JGFCMCmNGNmLNw$=vCmnMnAMMNVbd*XaTDSCNLFCCIZvbl@@",
"&s<<<;<77sdd2s2#8ICCVbVvNCmbYN8$<NLNAAMSSMGbCl, tTDDDmLSCNLLvBl@@",
"7CvvVhkfkVICvvh2dIICCNZvvNNNPB8&8GEFSAASMCNCbl,@aTTDmmDNNNZDcbz@X",
"rR!HHVCVVMCCbZh5dIHVCCLbNBBNIN8$0GRMAMASVVCvbd*XeTDaDmNmNvBNxbl%X",
"6IIVVVVhvhvCvZl>dUICLCRLnGNBPC9$8CImnMASCCvbll*XuTDSmmBnNcNNpbz%@",
"wRSMAMMkVvvvZZq>8IIZICbCbbbZUb8@qGLNSFMJSGGbbx2XeDDSBNmSNNNxcmz,o",
"rRAnFkVkVVvvZVs##IIZCvZPZZbbbb2@qSLNASSGGFNvbb2 4aaeaxgxxbcttie*@",
"yWAjFkFVZVvvbb2#0!bbIZZZBZZBZBl#qCJNSASFJCmvZZ1 O+-+=:&=:<3:$@@@o",
"yWSjMMVFVVvvbv2#dZbbZZZlcZZBZZqXrNRMASASFVmNZb1X+4++=$$$o@$&@ooOX",
"jQGjFMFFVvvvbv2&2~_IZvbUU_'UUUl%8NJNMMASNVNCZc>Xeaeesr8r7<<dlq8,&",
"yQGjAhFVVvvbbvs&#bbvZvbZbZZbcBl10NLMMSAGMNLCbt*@aDAAmxxMvvvMCBd9*",
"jQGjAMVVVVZvZbq> 7&*q72*@#**>1%XqCJNAMASAFGZbq*@eSSaxhhkkvvhvbl<%",
"jQGjAkVkVVVZZbq>*bq72>7>111q21&X8NLMMSMGFMNNbq*@yDYSMhgVhvvdvNv1o",
"yQYynVVVFVCICCl%=SGMnxCvvbVbZc1o1vCvMCSMFMNCNt-$ySFAjMnFnmMxMCc8+",
"yQDyxMVMCVCJCGx=3SJSVNIFGCCLLb9@<bGNMFMAFMmSbt*oyASAAMjAxMmnMCh8+",
"a)YymMVkVMCFNSx==DRGGGRGHZLZLb9@1MCvNFSMMMmNNq%ojFFAMnMMnMvxbCx8$",
"a)DAMMVhMkVCNSx$3DYJFNGCCVCVNc,X1CGMCCANMMvNNe-oyFJjjjnAnMMvNCg6+",
"x`GxMMMhvMFNNGx$3LYGFMGCCCCCbl1o1bCMMFNFMnnNct:ogJJjjjMnxNMnVCx<+",
"aQSxNMvhkVGMMSx$3YYGCCIGCCbCbv1o<vCvMCMAAnmFNt*ojYJjjnnkxMMmbCx<+",
"aENgSMnhMVGNnLx+wYRGCMLGVCMCbl1o<vCMMVAMVnmCNi*ogKJfgAjMnMMNCbd<+",
"yEvxSMMhVFJMNGn+wEEFMnFNCCVbZb9&<vCvnMMMMkmCNt:$jRRjyjMjxMNMNCg<+",
"tPMnMvVgxkMMmNd+wQGASMFCCCGbbc9$>dMbvVMMSMNNNi:+gWWjjSAMMMNMNGx&$",
"yIGVFCFMMVCCNGg$wELmFMFCCCCVbx9&*dldvVkMAMSGmg,$rJWkjAMnxmCMvCx&$",
"8LMxMMChhkCVmNtowRYMSMFMVVNmbv1@*sdsfgdfjhnnct8:wJ^AnAMMnnMmvVg$$",
"8SmgxxVhhMMMnnwowQYSGNCCCCbNbx8@@@@@$&$$$$&=&$XX3J^AmAAMhxMvxNd$+",
"aYSmMMFCMVJCMNg$wQESICGCvCvvbl1o*dr7rr7w666683*:3J^FAAAnMxMnxNd@+",
"qYCnMMHVvMCMxxt$r/QSIGJGvVbvvl1@*dddyfyfyr7884%o6JWAMSMMvnNmxVd$$",
"4LGNCCHFVVFMgny:rQEGHGHCVvNvbl1@1VLCCSAGGFNNbv4$wJWMMSVMMMNNvNg&$",
"8E~/`/(!!^/EYEPywQEJIGZVCVNMbl1@*vCMnhnMAMmSBm:XrJWknFAnNMFNbCg&+",
"=NLREREHHHRHFILqrQRGYSGGVCNvbc9o<NIVNvnVMFCGPv,+xWRjAGMjSMSMNNd@+"
};
