/* XPM */
static char *result[] = {
/* columns rows colors chars-per-pixel */
"64 64 200 2 ",
"   c #010001",
".  c #0D0808",
"X  c #1D0100",
"o  c #14070C",
"O  c #000013",
"+  c #001B12",
"@  c #0B161E",
"#  c #1D1B1D",
"$  c #171517",
"%  c #220000",
"&  c #201F1F",
"*  c #281215",
"=  c #002205",
"-  c #0A261F",
";  c #1C1B21",
":  c #131D24",
">  c #271D21",
",  c #002925",
"<  c #192329",
"1  c #142828",
"2  c #063836",
"3  c #1D3C3B",
"4  c #183637",
"5  c #182A30",
"6  c #232325",
"7  c #2B2226",
"8  c #252529",
"9  c #2C262A",
"0  c #252B2E",
"q  c #2A2A2D",
"w  c #252D33",
"e  c #2C2E31",
"r  c #312E32",
"t  c #2D3135",
"y  c #2E3439",
"u  c #203A3C",
"i  c #243436",
"p  c #323336",
"a  c #32363B",
"s  c #34393E",
"d  c #38373B",
"f  c #35272B",
"g  c #02403F",
"h  c #1E413D",
"j  c #003E42",
"k  c #263E42",
"l  c #353C42",
"z  c #3A3E44",
"x  c #423D45",
"c  c #423640",
"v  c #014343",
"b  c #004549",
"n  c #034949",
"m  c #094948",
"M  c #18484A",
"N  c #004D51",
"B  c #0F4F53",
"V  c #134E52",
"C  c #025256",
"Z  c #0D5256",
"A  c #005C5B",
"S  c #08575B",
"D  c #125155",
"F  c #16555A",
"G  c #19555A",
"H  c #1C5A5D",
"J  c #1A5157",
"K  c #234246",
"L  c #224649",
"P  c #3B4146",
"I  c #3C434A",
"U  c #31474A",
"Y  c #364C51",
"T  c #29575C",
"R  c #39595F",
"E  c #33565A",
"W  c #284B52",
"Q  c #005E61",
"!  c #1B5B61",
"~  c #2B5D62",
"^  c #3D5B61",
"/  c #006361",
"(  c #007674",
")  c #007D7B",
"_  c #1A6265",
"`  c #236267",
"'  c #28656A",
"]  c #366467",
"[  c #3B6E72",
"{  c #3A797C",
"}  c #247475",
"|  c #42454C",
" . c #44494C",
".. c #464B51",
"X. c #4B4C52",
"o. c #4A5057",
"O. c #4D535A",
"+. c #52565D",
"@. c #55575F",
"#. c #5B615A",
"$. c #4A5B63",
"%. c #555C64",
"&. c #5A5E66",
"*. c #565660",
"=. c #675C68",
"-. c #4B696E",
";. c #56656C",
":. c #5C626A",
">. c #5A6067",
",. c #5B6A71",
"<. c #4A787C",
"1. c #547279",
"2. c #63646D",
"3. c #646B72",
"4. c #696E76",
"5. c #6B6B74",
"6. c #647279",
"7. c #6C727B",
"8. c #71757D",
"9. c #72787E",
"0. c #3D7F80",
"q. c #557F87",
"w. c #6D7A82",
"e. c #657B82",
"r. c #747A83",
"t. c #787D86",
"y. c #7A7F89",
"u. c #737780",
"i. c #8D7E93",
"p. c #806C87",
"a. c #9C7CA6",
"s. c #009E9C",
"d. c #188E8E",
"f. c #348C8C",
"g. c #388C8C",
"h. c #348F92",
"j. c #2E8A89",
"k. c #00A09D",
"l. c #1A9FA1",
"z. c #32A6A7",
"x. c #4A8386",
"c. c #4A8D95",
"v. c #508F96",
"b. c #4A939A",
"n. c #52979D",
"m. c #5C969C",
"M. c #68848A",
"N. c #7D838B",
"B. c #7D8B94",
"V. c #76949B",
"C. c #659095",
"Z. c #569CA3",
"A. c #5CA5AE",
"S. c #5CABB4",
"D. c #52B3B9",
"F. c #6CA4A7",
"G. c #75A6AB",
"H. c #66B2B9",
"J. c #74B5BB",
"K. c #75BCC3",
"L. c #65B6C0",
"P. c #6ECFCF",
"I. c #81858E",
"U. c #818790",
"Y. c #838A93",
"T. c #8D8F99",
"R. c #8B929B",
"E. c #87949C",
"W. c #8D9BA3",
"Q. c #949BA4",
"!. c #959BA4",
"~. c #9CA4AD",
"^. c #96A2AB",
"/. c #9FA6B0",
"(. c #91B0B8",
"). c #88AAB1",
"_. c #A3AAB4",
"`. c #A7AFB9",
"'. c #ABB3BD",
"]. c #A5B2BB",
"[. c #B2B4BF",
"{. c #BD9FC7",
"}. c #90BFC6",
"|. c #AFB7C1",
" X c #B3BBC5",
".X c #B6BEC8",
"XX c #B4BBC5",
"oX c #EBBCFA",
"OX c #91C3C9",
"+X c #98CCD3",
"@X c #90DBDF",
"#X c #8DCDD4",
"$X c #BAC2CD",
"%X c #A1CFD7",
"&X c #AFCCD5",
"*X c #96DBE2",
"=X c #A5E2E9",
"-X c #A9E7EE",
";X c #BAF6FD",
":X c None",
/* pixels */
":X:X:X:X:X:X:X:X:X:X:X:X:X:X:X:X:X:X:X:X:X:X:X:X:X:X:X:X:X:X:X:X:X:X:X:X:X:X:X:X:X:X:X:X:X:X:X:X:X:X:X:X:X:X:X:X:X:X:X:X:X:X:X:X",
":X:X:X:X:X:X:X:X:X:X:X:X:X:X:X:X:X:X:X:X:X:X:X:X:X:X:X:X:X:X:X:X:X:X:X:X:X:X:X:X:X:X:X:X:X:X:X:X:X:X:X:X:X:X:X:X:X:X:X:X:X:X:X:X",
":X:X:X:X:X:X:X:X:X:X:X:X:X:X:X:X:X:X:X:X:X:X:X:X:X:X:X:X:X:X:X:X:X:X:X:X:X:X:X:X:X:X:X:X:X:X:X:X:X:X:X:X:X:X:X:X:X:X:X:X:X:X:X:X",
":X:X:X:X:X:X:X:X:X:X:X:X:X:X:X:X:X:X:X:X:X:X:X:X:X:X:X:X:X:X:X:X:X:X:X:X:X:X:X:X:X:X:X:X:X:X:X:X:X:X:X:X:X:X:X:X:X:X:X:X:X:X:X:X",
":X:X:X:X:X:X:X:X:X:X:X:X:X:X:X:X:X:X:X:X:X:X:X:X:X:X:X:X:X:X:X:X:X:X:X:X:X:X:X:X:X:X:X:X:X:X:X:X:X:X:X:X:X:X:X:X:X:X:X:X:X:X:X:X",
":X:X:X:X:X:X:X:X:X:X:X:X:X:X:X:X:X:X:X:X:X:X:X:X:X:X:X:X:X:X:X:X:X:X:X:X:X:X:X:X:X:X:X:X:X:X:X:X:X:X:X:X:X:X:X:X:X:X:X:X:X:X:X:X",
":X:X:X:X:X:X:X:X:X:X:X:X:X:X:X:X:X:X:X:X:X:X:X:X:X:X:X:X:X:X:X:X:X:X:X:X:X:X:X:X:X:X:X:X:X:X:X:X:X:X:X:X:X:X:X:X:X:X:X:X:X:X:X:X",
":X:X:X:X:X:X:X:X:X:X:X:X:X:X:X:X:X:X:X:X:X:X:X:X:X:X:X:X:X:X:X:X:X:X:X:X:X:X:X:X:X:X:X:X:X:X:X:X:X:X:X:X:X:X:X:X:X:X:X:X:X:X:X:X",
":X:X:X:X:X:X:X:X:X:X:X:X:X:X:X) :X:X:X:X:X:X:X:X:X:X:X:X:X:X:X:X:X:X:X:X:X:X:X:X:X:X:X:X:X:X:X:X:X:X:X:X:X:X:X:X:X:X:X:X:X:X:X:X",
":X:X:X:X:X:X:X:X:X:X:X:X:X:X:X( :X:X:X:X:X:X:X:X:X:X:X:X:X:X:X:X:X:X:X:X:X:X:X:X:X:X:X:X:X:X:X:X:X:X:X:X:X:X:X:X:X:X:X:X:X:X:X:X",
":X:X:X:X:X:X:X:X:X:X:X:X:X:X:Xh.:X:X:X:X:X:X:X:X:X:X:X:X:X:X:X:X:X:X:X:X:X:X:X:X:X:X:X:X:X:X:X:X:X:X:X:X:X:X:X:X:X:X:X:X:X:X:X:X",
":X:X:X:X:X:X:X:X:X:X:X:X:X:X:XK.:X:X:X:X:X:X:X:X:X:X:X:X:X:X:X:X:X:X:X:X:X:X:X:X:X:X:X:X:X:X:X:X:X:X:X:X:X:X:X:X:X:X:X:X:X:X:X:X",
":X:X:X:X:X:X:X:X:X:X:X:X:X/ J.-Xg.:X:X:X:X:X:X:X:X:X:X:X:X:X:X:X:X:X:X:X:X:X:X:X:X:X:X:X:X:X:X:X:X:X:X:X:X:X:X:X:X:X:X:X:X:X:X:X",
":X:X:X:X:X:X:X:X:X:X:X:X  2 <.V.<.Y o   :X:X:X:X:X:X:X:X:X:X:X:X:X:X:X:X:X:X:X:X:X:X:X:X:X:X:X:X:X:X:X:X:X:X:X:X:X:X:X:X:X:X:X:X",
":X:X:X:X:X:X:X:X:X:X:X:XO.+.x c 2.:.%.X.:X:X:X:X:X:X:X:X:X:X:X:X:X:X:X:X:X:X:X:X:X:X:X:X:X:X:X:X:X:X:X:X:X:X:X:X:X:X:X:X:X:X:X:X",
":X:X:X:X:X:X:X:X:X:X:X .r.I.I.I.N.U.U.N. .d z :X:X:X:X:X:X:X:X:X:X:X:X:X:X:X:X:X:X:X:X:X:X:X:X:X:X:X:X:X:X:X:X:X:X:X:X:X:X:X:X:X",
":X:X:X:X:X:X:X:X:X;X%X8.9.~.|.'.'.'.'.`.r.8.t.t.:.:X:X:X:X:X:X:X:X:X:X:X:X:X:X:X:X:X:X:X:X:X:X:X:X:X:X:X:X:X:X:X:X:X:X:X:X:X:X:X",
":X:X:X:X:X:X:X:X:XP.K.2.9.`.$X.X.X.X.XXX_.T.6.q.7.| :X:X:X:X:X:X:X:X:X:X:X:X:X:X:X:X:X:X:X:X:X:X:X:X:X:X:X:X:X:X:X:X:X:X:X:X:X:X",
":X:X:X:X:X:X:X:X:Xl.z.q.2.U.!.~.~././._..XE.[ x.!.W.4.:X:X:X:X:X:X:X:X:X:X:X:X:X:X:X:X:X:X:X:X:X:X:X:X:X:X:X:X:X:X:X:X:X:X:X:X:X",
":X:X:X:X:X:X:Xd 9 m.D.k.Y d :.I.y.r.7.y.'.F.0.N.].$XQ.  :X:X:X:X:X:X:X:X:X:X:X:X:X:X:X:X:X:X:X:X:X:X:X:X:X:X:X:X:X:X:X:X:X:X:X:X",
":X:X:X:X:X# P :.u.-.Q ` 7.~.|.'.|.N.=.w.z.*X+X@.3.7.%.. :X:X:X:X:X:X:X:X:X:X:X:X:X:X:X:X:X:X:X:X:X:X:X:X:X:X:X:X:X:X:X:X:X:X:X:X",
":X:X:X:X:Xt ..2.y.u.;.$.N.r.R..X$X9.C.%Xd.m.M.8 P o.:.&.@ :X:X:X:X:X:X:X:X:X:X:X:X:X:X:X:X:X:X:X:X:X:X:X:X:X:X:X:X:X:X:X:X:X:X:X",
":X:X:X:X:Xs o.:.7.r.7.:.3.I t. X_.;.n.@Xf., | 9.s +.N.W.Y.:.:X:X:X:X:X:X:X:X:X:X:X:X:X:X:X:X:X:X:X:X:X:X:X:X:X:X:X:X:X:X:X:X:X:X",
":X:X:X:X:Xy o.:.%.%.%.%.y :.Q.|.U.$.( s.) / Y.[.+.@.W.$X$XI.  :X:X:X:X:X:X:X:X:X:X:X:X:X:X:X:X:X:X:X:X:X:X:X:X:X:X:X:X:X:X:X:X:X",
":X:X:X:X:X& X.:.I z P P y :.Q..X Xe.v Q n W..X'.y.l r.$X Xt.  :X:X:X:X:X:X:X:X:X:X:X:X:X:X:X:X:X:X:X:X:X:X:X:X:X:X:X:X:X:X:X:X:X",
":X:X:X:X:X& = = < q e t y 3.Y.Q. X].Y.@.3.U._..X'.N.u.!.[.V.A J :X:X:X:X:X:X:X:X:X:X:X:X:X:X:X:X:X:X:X:X:X:X:X:X:X:X:X:X:X:X:X:X",
":X:X:X:X:X .p.a.=.s 0 q a &.7.t.~.`.].(.I.8.I.!.~.B.,.M.&XG.A J :X:X:X:X:X:X:X:X:X:X:X:X:X:X:X:X:X:X:X:X:X:X:X:X:X:X:X:X:X:X:X:X",
":X:X:X:X:X#.{.oXi.X.w e l w O.r.8.2.).=XV.r.:.< O.E C j.=XG.O :X:X:X:X:X:X:X:X:X:X:X:X:X:X:X:X:X:X:X:X:X:X:X:X:X:X:X:X:X:X:X:X:X",
":X:X:Xv g 5 2.i.X.s l l e t ..%.%.z p -.H.q.* e %.^ N S B.r.%.:X:X:X:X:X:X:X:X:X:X:X:X:X:X:X:X:X:X:X:X:X:X:X:X:X:X:X:X:X:X:X:X:X",
":X:X:Xn Z 4 p X.l l s t q   3._._.I.X.; d.C 5.^.&.b q.^.y.&.s :X:X:X:X:X:X:X:X:X:X:X:X:X:X:X:X:X:X:X:X:X:X:X:X:X:X:X:X:X:X:X:X:X",
":X:X:Xn F K 7 w y s t q e   3._._.I.%.] F.{ 6.~.Y.$.w._.t.X.  :X:X:X:X:X:X:X:X:X:X:X:X:X:X:X:X:X:X:X:X:X:X:X:X:X:X:X:X:X:X:X:X:X",
":X:X:Xn F L q q 0 q q q q e P %.%.z b g.=XJ.n | |.R.3.u.:.I # :X:X:X:X:X:X:X:X:X:X:X:X:X:X:X:X:X:X:X:X:X:X:X:X:X:X:X:X:X:X:X:X:X",
":X:X:Xm J G V g g i 9 q 8 o.:.:.t.@.j _ g.} j o.'..X!.%.>...& :X:X:X:X:X:X:X:X:X:X:X:X:X:X:X:X:X:X:X:X:X:X:X:X:X:X:X:X:X:X:X:X:X",
":X:X:XN G H D g v u r e q P +.:.5.7.:.C A V I :.R.[.^.I 7.@.. :X:X:X:X:X:X:X:X:X:X:X:X:X:X:X:X:X:X:X:X:X:X:X:X:X:X:X:X:X:X:X:X:X",
":X:X:Xv V D V v b 4 9 q q t I $.*.7.7.E W i d O.:._.!.w 6.O.X :X:X:X:X:X:X:X:X:X:X:X:X:X:X:X:X:X:X:X:X:X:X:X:X:X:X:X:X:X:X:X:X:X",
":X:X:X:Xg g g v v :X:X:Xq s s l &.%.%.%.z ..O.o.o./.^.5 C L t :X:X:X:X:X:X:X:X:X:X:X:X:X:X:X:X:X:X:X:X:X:X:X:X:X:X:X:X:X:X:X:X:X",
":X:X:X:X:X:X:X:X:X:X:X:X8 s l P &.o.l l : R..X_.P ~.~.5 G G G G :X:X:X:X:X:X:X:X:X:X:X:X:X:X:X:X:X:X:X:X:X:X:X:X:X:X:X:X:X:X:X:X",
":X:X:X:X:X:X:X:X:X:X:X:Xq s P P ..P I $.3.Y.`..Xr.8.3.y k K L :X:X:X:X:X:X:X:X:X:X:X:X:X:X:X:X:X:X:X:X:X:X:X:X:X:X:X:X:X:X:X:X:X",
":X:X:X:X:X:X:X:X:X:X:X:Xq a s a t e  .2.u.3.t.W.8.P : l 9 9 7 :X:X:X:X:X:X:X:X:X:X:X:X:X:X:X:X:X:X:X:X:X:X:X:X:X:X:X:X:X:X:X:X:X",
":X:X:X:X:X:X:X:X:X:X:X:Xq q q q q 8 I &.%.&. .  # y l l e e q :X:X:X:X:X:X:X:X:X:X:X:X:X:X:X:X:X:X:X:X:X:X:X:X:X:X:X:X:X:X:X:X:X",
":X:X:X:X:X:X:X:X:X:X:X:X:X9 9 q q y s t p p a s q q t e q e q :X:X:X:X:X:X:X:X:X:X:X:X:X:X:X:X:X:X:X:X:X:X:X:X:X:X:X:X:X:X:X:X:X",
":X:X:X:X:X:X:X:X+   + T J M 4 q e t t 8 q #           q q e q :X:X:X:X:X:X:X:X:X:X:X:X:X:X:X:X:X:X:X:X:X:X:X:X:X:X:X:X:X:X:X:X:X",
":X:X:X:X:X:X:XL { F.C.N ! N 2 * 9 # . $ 6 | 2.t.9.r.2.$ q e e :X:X:X:X:X:X:X:X:X:X:X:X:X:X:X:X:X:X:X:X:X:X:X:X:X:X:X:X:X:X:X:X:X",
":X:X:X:X:X:X- H S.=XOX+ B ` ~ P w P X...q :.Q. X.X$X!.; e q e :X:X:X:X:X:X:X:X:X:X:X:X:X:X:X:X:X:X:X:X:X:X:X:X:X:X:X:X:X:X:X:X:X",
":X:X:X:X:X:X1 H S.x.k , + c.H.S.N E.|._.:.7.N.Y.'.$X~.4...t :X:X:X:X:X:X:X:X:X:X:X:X:X:X:X:X:X:X:X:X:X:X:X:X:X:X:X:X:X:X:X:X:X:X",
":X:X:X:X:X:X  ] *XK.b.Z.b.#X#XV.^.'..X'.3.:.3.3.R.'.].r.P 8 :X:X:X:X:X:X:X:X:X:X:X:X:X:X:X:X:X:X:X:X:X:X:X:X:X:X:X:X:X:X:X:X:X:X",
":X:X:X:X:X:X+ ~ OXJ.Z.A.L.*X}.=.Q.|..X|.r.O.O.:.3.R.R.:.p 8 :X:X:X:X:X:X:X:X:X:X:X:X:X:X:X:X:X:X:X:X:X:X:X:X:X:X:X:X:X:X:X:X:X:X",
":X:X:X:X:X:Xh v j b b ! A.H.c.w j W. X].N.o.I :.>.l 1 a r q :X:X:X:X:X:X:X:X:X:X:X:X:X:X:X:X:X:X:X:X:X:X:X:X:X:X:X:X:X:X:X:X:X:X",
":X:X:X:X:X:X3 n g B G G ` ' ! E 9.U.w.] 2.R R &.I 4 5 l t q :X:X:X:X:X:X:X:X:X:X:X:X:X:X:X:X:X:X:X:X:X:X:X:X:X:X:X:X:X:X:X:X:X:X",
":X:X:X:X:X:X3 n V F G G D Z Z ! -.>.Y b :.U 3 ..a v.b.M y :X:X:X:X:X:X:X:X:X:X:X:X:X:X:X:X:X:X:X:X:X:X:X:X:X:X:X:X:X:X:X:X:X:X:X",
":X:X:X:X:X:X:XM V D D D D Z V M b 4 w u X.<.[ 9 9 m.n.b :X:X:X:X:X:X:X:X:X:X:X:X:X:X:X:X:X:X:X:X:X:X:X:X:X:X:X:X:X:X:X:X:X:X:X:X",
":X:X:X:X:X:X:X:Xg g g g v 2 3 9 q q q 9 X Z.Z.% 9 :X:Xv :X:X:X:X:X:X:X:X:X:X:X:X:X:X:X:X:X:X:X:X:X:X:X:X:X:X:X:X:X:X:X:X:X:X:X:X",
":X:X:X:X:X:X:X:X:X:X:X:X:Xt t q q e e q 9 ~ ~ 7 :X:X:X:X:X:X:X:X:X:X:X:X:X:X:X:X:X:X:X:X:X:X:X:X:X:X:X:X:X:X:X:X:X:X:X:X:X:X:X:X",
":X:X:X:X:X:X:X:X:X:X:X:X:X:Xr q e e r q r u u r :X:X:X:X:X:X:X:X:X:X:X:X:X:X:X:X:X:X:X:X:X:X:X:X:X:X:X:X:X:X:X:X:X:X:X:X:X:X:X:X",
":X:X:X:X:X:X:X:X:X:X:X:X:X:X:X:X:X:X:X:X:X:X:X:X:X:X:X:X:X:X:X:X:X:X:X:X:X:X:X:X:X:X:X:X:X:X:X:X:X:X:X:X:X:X:X:X:X:X:X:X:X:X:X:X",
":X:X:X:X:X:X:X:X:X:X:X:X:X:X:X:X:X:X:X:X:X:X:X:X:X:X:X:X:X:X:X:X:X:X:X:X:X:X:X:X:X:X:X:X:X:X:X:X:X:X:X:X:X:X:X:X:X:X:X:X:X:X:X:X",
":X:X:X:X:X:X:X:X:X:X:X:X:X:X:X:X:X:X:X:X:X:X:X:X:X:X:X:X:X:X:X:X:X:X:X:X:X:X:X:X:X:X:X:X:X:X:X:X:X:X:X:X:X:X:X:X:X:X:X:X:X:X:X:X",
":X:X:X:X:X:X:X:X:X:X:X:X:X:X:X:X:X:X:X:X:X:X:X:X:X:X:X:X:X:X:X:X:X:X:X:X:X:X:X:X:X:X:X:X:X:X:X:X:X:X:X:X:X:X:X:X:X:X:X:X:X:X:X:X",
":X:X:X:X:X:X:X:X:X:X:X:X:X:X:X:X:X:X:X:X:X:X:X:X:X:X:X:X:X:X:X:X:X:X:X:X:X:X:X:X:X:X:X:X:X:X:X:X:X:X:X:X:X:X:X:X:X:X:X:X:X:X:X:X",
":X:X:X:X:X:X:X:X:X:X:X:X:X:X:X:X:X:X:X:X:X:X:X:X:X:X:X:X:X:X:X:X:X:X:X:X:X:X:X:X:X:X:X:X:X:X:X:X:X:X:X:X:X:X:X:X:X:X:X:X:X:X:X:X",
":X:X:X:X:X:X:X:X:X:X:X:X:X:X:X:X:X:X:X:X:X:X:X:X:X:X:X:X:X:X:X:X:X:X:X:X:X:X:X:X:X:X:X:X:X:X:X:X:X:X:X:X:X:X:X:X:X:X:X:X:X:X:X:X",
":X:X:X:X:X:X:X:X:X:X:X:X:X:X:X:X:X:X:X:X:X:X:X:X:X:X:X:X:X:X:X:X:X:X:X:X:X:X:X:X:X:X:X:X:X:X:X:X:X:X:X:X:X:X:X:X:X:X:X:X:X:X:X:X",
":X:X:X:X:X:X:X:X:X:X:X:X:X:X:X:X:X:X:X:X:X:X:X:X:X:X:X:X:X:X:X:X:X:X:X:X:X:X:X:X:X:X:X:X:X:X:X:X:X:X:X:X:X:X:X:X:X:X:X:X:X:X:X:X",
":X:X:X:X:X:X:X:X:X:X:X:X:X:X:X:X:X:X:X:X:X:X:X:X:X:X:X:X:X:X:X:X:X:X:X:X:X:X:X:X:X:X:X:X:X:X:X:X:X:X:X:X:X:X:X:X:X:X:X:X:X:X:X:X"
};
