/* XPM */
static char *result[] = {
/* columns rows colors chars-per-pixel */
"64 64 167 2 ",
"   c #000000",
".  c #0B0603",
"X  c #000900",
"o  c #000008",
"O  c #001700",
"+  c #0A0911",
"@  c #1B1B1D",
"#  c #12161B",
"$  c #240000",
"%  c #200C18",
"&  c #281A1C",
"*  c #002409",
"=  c #062B19",
"-  c #1F1F21",
";  c #281E29",
":  c #1E2123",
">  c #152229",
",  c #0E3326",
"<  c #163427",
"1  c #1F2E31",
"2  c #023336",
"3  c #16393A",
"4  c #232426",
"5  c #252528",
"6  c #2B2529",
"7  c #25292D",
"8  c #2A2B2D",
"9  c #252D32",
"0  c #2C2E32",
"q  c #253137",
"w  c #2D3236",
"e  c #2D343A",
"r  c #2B3C37",
"t  c #343135",
"y  c #32363B",
"u  c #34393F",
"i  c #3A393F",
"p  c #3E403F",
"a  c #233E42",
"s  c #353C42",
"d  c #393D42",
"f  c #004246",
"g  c #004A4A",
"h  c #034C51",
"j  c #06595B",
"k  c #19555A",
"l  c #185357",
"z  c #2E484E",
"x  c #3C4145",
"c  c #32454B",
"v  c #3D4449",
"b  c #344046",
"n  c #364D53",
"m  c #25565C",
"M  c #32555C",
"N  c #005F60",
"B  c #155D61",
"V  c #3F5F66",
"C  c #016A6A",
"Z  c #0A6E6E",
"A  c #156669",
"S  c #00726F",
"D  c #007674",
"F  c #2B6267",
"G  c #414247",
"H  c #42454B",
"J  c #43494F",
"K  c #4C474D",
"L  c #444B52",
"P  c #484E55",
"I  c #504F54",
"U  c #4D535A",
"Y  c #495154",
"T  c #51565D",
"R  c #52585F",
"E  c #415A62",
"W  c #555B63",
"Q  c #595E66",
"!  c #496269",
"~  c #5B626A",
"^  c #456D73",
"/  c #5D6C74",
"(  c #556A72",
")  c #447076",
"_  c #60666F",
"`  c #64686E",
"'  c #6C6B6E",
"]  c #656B73",
"[  c #6A6C75",
"{  c #6A6F78",
"}  c #667078",
"|  c #6D737B",
" . c #6D7077",
".. c #71767E",
"X. c #00807D",
"o. c #597D84",
"O. c #7B6F81",
"+. c #6C7A82",
"@. c #727780",
"#. c #757A83",
"$. c #787E86",
"%. c #7A7F88",
"&. c #737F88",
"*. c #867B8D",
"=. c #008987",
"-. c #008F8C",
";. c #188584",
":. c #01908E",
">. c #009491",
",. c #248485",
"<. c #00A7A4",
"1. c #1CACAB",
"2. c #03B4B2",
"3. c #2FABAB",
"4. c #2BA1A3",
"5. c #37A3A6",
"6. c #39B3B3",
"7. c #5C858D",
"8. c #489198",
"9. c #6F848C",
"0. c #7A8087",
"q. c #74838B",
"w. c #7C828B",
"e. c #5599A1",
"r. c #5C9CA5",
"t. c #59ACB5",
"y. c #57ABB1",
"u. c #41BBBD",
"i. c #5FB2BB",
"p. c #69A5AE",
"a. c #62AAB3",
"s. c #64B2BC",
"d. c #76BCBF",
"f. c #6BB9C2",
"g. c #7DCAD0",
"h. c #80868F",
"j. c #818690",
"k. c #838A92",
"l. c #8A8F98",
"z. c #898D96",
"x. c #8C939C",
"c. c #90969E",
"v. c #939AA3",
"b. c #979FA8",
"n. c #AD8CBA",
"m. c #9CA4AD",
"M. c #9FA7B0",
"N. c #9CB3BD",
"B. c #A3AAB4",
"V. c #A6AEB8",
"C. c #ABB3BD",
"Z. c #B695C2",
"A. c #9BBAC3",
"S. c #AEB6C0",
"D. c #B2BAC4",
"F. c #B2B6C0",
"G. c #C8A0D6",
"H. c #D5ABE3",
"J. c #E4B8F2",
"K. c #BAC2CD",
"L. c #B7C0CA",
"P. c #96DAE1",
"I. c #97E1E6",
"U. c #A2E2EA",
"Y. c #ADEBF0",
"T. c #B4EDF4",
"R. c None",
/* pixels */
"R.R.R.R.R.R.R.R.R.R.R.R.R.R.R.R.R.R.R.R.R.R.R.R.R.R.R.R.R.R.R.R.R.R.R.R.R.R.R.R.R.R.R.R.R.R.R.R.R.R.R.R.R.R.R.R.R.R.R.R.R.R.R.R.",
"R.R.R.R.R.R.R.R.R.R.R.R.R.R.R.R.R.R.R.R.R.R.R.R.R.R.R.R.R.R.R.R.R.R.R.R.R.R.R.R.R.R.R.R.R.R.R.R.R.R.R.R.R.R.R.R.R.R.R.R.R.R.R.R.",
"R.R.R.R.R.R.R.R.R.R.R.R.R.R.R.R.R.R.R.R.R.R.R.R.R.R.R.R.R.R.R.R.R.R.R.R.R.R.R.R.R.R.R.R.R.R.R.R.R.R.R.R.R.R.R.R.R.R.R.R.R.R.R.R.",
"R.R.R.R.R.R.R.R.R.R.R.R.R.R.R.R.R.R.R.R.R.R.R.R.R.R.R.R.R.R.R.R.R.R.R.R.R.R.R.R.R.R.R.R.R.R.R.R.R.R.R.R.R.R.R.R.R.R.R.R.R.R.R.R.",
"R.R.R.R.R.R.R.R.R.R.R.R.R.R.R.R.R.R.R.R.R.R.R.R.R.R.R.R.R.R.R.R.R.R.R.R.R.R.R.R.R.R.R.R.R.R.R.R.R.R.R.R.R.R.R.R.R.R.R.R.R.R.R.R.",
"R.R.R.R.R.R.R.R.R.R.R.R.R.R.R.R.R.R.R.R.R.R.R.R.R.R.R.R.R.R.R.R.R.R.R.R.R.R.R.R.R.R.R.R.R.R.R.R.R.R.R.R.R.R.R.R.R.R.R.R.R.R.R.R.",
"R.R.R.R.R.R.R.R.R.R.R.R.R.R.R.R.R.R.R.R.R.R.R.R.R.R.R.R.R.R.R.R.R.R.R.R.R.R.R.R.R.R.R.R.R.R.R.R.R.R.R.R.R.R.R.R.R.R.R.R.R.R.R.R.",
"R.R.R.R.R.R.R.R.R.R.R.R.R.R.R.R.R.R.R.R.R.R.R.R.R.R.R.R.R.R.R.R.R.R.R.R.R.R.R.R.R.R.R.R.R.R.R.R.R.R.R.R.R.R.R.R.R.R.R.R.R.R.R.R.",
"R.R.R.R.R.R.R.R.R.R.R.R.R.R.R.R.R.R.R.R.R.R.R.R.R.R.R.R.R.R.R.R.R.R.R.R.R.R.R.R.R.R.R.R.R.R.R.R.R.R.R.R.R.R.R.R.R.R.R.R.R.R.R.R.",
"R.R.R.R.R.R.R.R.R.R.R.R.R.R.R.R.R.R.R.R.R.R.R.R.R.R.R.R.R.R.R.R.R.R.R.R.R.R.R.R.R.R.R.R.R.R.R.R.R.R.R.R.R.R.R.R.R.R.R.R.R.R.R.R.",
"R.R.R.R.R.R.R.R.R.R.R.R.R.R.R.R.R.R.R.R.R.R.R.R.R.R.R.R.R.R.R.R.R.R.R.R.R.R.R.R.R.R.R.R.R.R.R.R.R.R.R.R.R.R.R.R.R.R.R.R.R.R.R.R.",
"R.R.R.R.R.R.R.R.R.R.R.R.R.R.R.R.R.R.R.R.R.R.R.R.R.R.R.R.R.R.R.R.R.R.R.R.R.R.R.R.R.R.R.R.R.R.R.R.R.R.R.R.R.R.R.R.R.R.R.R.R.R.R.R.",
"R.R.R.R.R.R.R.R.R.R.R.R.R.R.R.R.R.R.R.R.R.R.R.R.R.R.R.R.R.R.R.R.R.R.R.R.R.R.R.R.R.R.R.R.R.R.R.R.R.R.R.R.R.R.R.R.R.R.R.R.R.R.R.R.",
"R.R.R.R.R.R.R.R.R.R.R.R.R.R.R.R.R.R.R.R.R.R.R.R.R.R.R.R.R.R.R.R.R.R.R.R.R.R.R.R.R.R.R.R.R.R.R.R.R.R.R.R.R.R.R.R.R.R.R.R.R.R.R.R.",
"R.R.R.R.R.R.R.R.R.R.R.R.R.R.R.R.R.R.R.R.R.R.R.R.R.R.R.R.R.R.R.R.R.R.R.R.R.R.R.R.R.R.R.R.R.R.R.R.R.R.R.R.R.R.R.R.R.R.R.R.R.R.R.R.",
"R.R.R.R.R.R.R.R.R.R.R.R.R.R.R.R.R.R.R.R.R.R.R.R.R.R.R.R.R.R.R.R.R.R.R.R.R.R.R.R.R.R.R.R.R.R.R.R.R.R.R.R.R.R.R.R.R.R.R.R.R.R.R.R.",
"R.R.R.R.R.R.R.R.R.R.R.R.R.R.R.R.R.R.R.R.R.R.R.R.R.R.R.R.R.R.R.R.R.R.R.R.R.R.R.R.R.R.R.R.R.R.R.R.R.R.R.R.R.R.R.R.R.R.R.R.R.R.R.R.",
"R.R.R.R.R.R.R.R.R.R.R.R.R.R.R.R.R.R.R.R.R.R.R.R.R.R.R.R.R.R.R.R.R.R.R.R.R.R.R.R.R.R.R.R.R.R.R.R.R.R.R.R.R.R.R.R.R.R.R.R.R.R.R.R.",
"R.R.R.R.R.R.R.R.R.R.R.R.R.R.R.R.R.R.R.R.R.R.R.R.R.R.R.R.R.R.R.R.R.R.R.R.R.R.R.R.R.R.R.R.R.R.R.R.R.R.R.R.R.R.R.R.R.R.R.R.R.R.R.R.",
"R.R.R.R.R.R.R.R.R.R.R.R.R.R.R.R.R.R.R.R.R.R.R.R.R.R.R.R.R.R.R.R.R.R.R.R.R.R.R.R.R.R.R.R.R.R.R.R.R.R.R.R.R.R.R.R.R.R.R.R.R.R.R.R.",
"R.R.R.R.R.R.R.R.R.R.R.R.R.R.R.R.R.R.R.R.R.R.R.R.R.R.R.R.R.R.R.R.R.R.R.R.R.R.R.R.R.R.R.R.R.R.R.R.R.R.R.R.R.R.R.R.R.R.R.R.R.R.R.R.",
"R.R.R.R.R.R.R.R.R.R.R.R.R.R.R.R.R.R.R.R.R.R.R.R.R.R.R.R.R.R.R.R.R.R.R.R.R.R.R.R.R.R.R.R.R.R.R.R.R.R.R.R.R.R.R.R.R.R.R.R.R.R.R.R.",
"R.R.R.R.R.R.R.R.R.R.R.R.R.R.R.R.R.R.R.R.R.R.R.R.R.R.R.R.R.R.R.R.R.R.R.R.R.R.R.R.R.R.R.R.R.R.R.R.R.R.R.R.R.R.R.R.R.R.R.R.R.R.R.R.",
"R.R.R.R.R.R.R.R.R.R.R.R.R.R.R.R.R.R.R.R.R.R.R.R.R.R.R.R.R.R.R.R.R.R.R.R.R.R.R.R.R.R.R.R.R.R.R.R.R.R.R.R.R.R.R.R.R.R.R.R.R.R.R.R.",
"R.R.R.R.R.R.R.R.R.R.R.R.R.R.R.R.R.R.R.R.R.R.R.R.R.R.R.R.R.R.R.R.R.R.R.R.R.R.R.R.R.R.R.R.R.R.R.R.R.R.R.R.R.R.R.R.R.R.R.R.R.R.R.R.",
"R.R.R.R.R.R.R.R.R.R.R.R.R.R.R.R.R.R.R.R.R.R.R.R.R.R.R.R.R.R.R.R.R.R.R.R.R.R.R.R.R.R.R.R.R.R.R.R.R.R.R.R.R.R.R.R.R.R.R.R.R.R.R.R.",
"R.R.R.R.R.R.R.R.R.R.R.R.R.R.R.R.R.R.R.R.R.R.R.R.R.R.R.R.R.R.R.R.R.R.R.R.R.R.R.R.R.R.R.R.R.R.R.R.R.R.R.R.R.R.R.R.R.R.R.R.R.R.R.R.",
"R.R.R.R.R.R.R.R.R.R.R.R.R.R.R.R.R.R.R.R.R.R.R.R.R.R.R.R.R.R.R.R.R.R.R.R.R.R.R.R.R.R.R.R.R.R.R.R.R.R.R.R.R.R.R.R.R.R.R.R.R.R.R.R.",
"R.R.R.R.R.R.R.R.R.R.R.R.R.R.R.R.R.R.R.R.R.R.R.R.R.R.R.R.R.R.R.R.R.R.R.R.R.R.R.R.R.R.R.R.R.R.R.R.R.R.R.R.R.R.R.R.R.R.R.R.R.R.R.R.",
"R.R.R.R.R.R.R.R.R.R.R.R.R.R.R.R.R.R.R.R.R.R.R.R.R.R.R.R.R.R.R.R.R.R.R.R.R.R.R.R.R.R.R.R.R.R.R.R.R.R.R.R.R.R.R.R.R.R.R.R.R.R.R.R.",
"R.R.R.R.R.R.R.R.R.R.R.R.R.R.R.R.R.R.R.R.R.R.R.R.R.R.R.R.R.R.R.R.R.R.R.R.R.R.R.R.R.R.R.R.R.R.R.R.R.R.R.R.R.R.R.R.R.R.R.R.R.R.R.R.",
"R.R.R.R.R.R.R.R.R.R.R.R.R.R.R.R.R.R.R.R.R.R.R.R.R.R.R.R.R.R.R.R.R.R.R.R.R.R.R.R.R.R.R.R.R.R.R.R.R.R.R.R.R.R.R.R.R.R.R.R.R.R.R.R.",
"R.R.R.R.R.R.R.R.R.R.R.R.R.R.R.R.R.R.R.R.R.R.R.R.R.R.R.R.R.R.R.R.R.R.R.R.R.R.R.R.R.R.R.R.R.R.R.R.R.R.R.R.R.R.R.R.R.R.R.R.R.R.R.R.",
"R.R.R.R.R.R.R.R.R.R.R.R.R.R.R.R.R.R.R.R.R.R.R.R.R.R.R.R.R.R.R.R.R.R.R.R.R.R.R.R.R.R.R.R.R.R.R.R.R.R.R.R.R.R.R.R.R.R.R.R.R.R.R.R.",
"R.R.R.R.R.R.R.R.R.R.R.R.R.R.R.R.R.R.R.R.R.R.R.R.R.R.R.R.R.R.R.R.R.R.R.R.R.R.R.R.R.R.R.R.R.R.R.R.R.R.R.R.R.R.R.R.R.R.R.R.R.R.R.R.",
"R.R.R.R.R.R.R.R.R.R.R.R.R.R.R.R.R.R.R.R.R.R.R.R.R.R.R.R.R.R.R.R.R.R.R.R.R.R.R.R.R.R.R.R.R.R.R.R.R.R.R.R.R.R.R.R.R.R.R.R.R.R.R.R.",
"R.R.R.R.R.R.R.R.R.R.R.R.R.R.R.R.R.R.R.R.R.R.R.R.R.R.R.R.R.R.R.R.R.R.R.R.R.R.R.R.R.R.R.R.R.R.R.R.R.R.R.R.R.R.R.R.R.R.R.R.R.R.R.R.",
"R.R.R.R.R.R.R.R.R.R.R.R.R.R.R.R.R.R.R.R.R.R.R.R.R.R.R.R.R.R.R.R.T.R.R.R.R.R.R.R.R.R.R.R.R.R.R.R.R.R.R.R.R.R.R.R.R.R.R.R.R.R.R.R.",
"R.R.R.R.R.R.R.R.R.R.R.R.R.R.R.R.R.R.R.R.R.R.R.R.R.R.R.R.R.R.R.R.U.R.R.R.R.R.R.R.R.R.R.R.R.R.R.R.R.R.R.R.R.R.R.R.R.R.R.R.R.R.R.R.",
"R.R.R.R.R.R.R.R.R.R.R.R.R.R.R.R.R.R.R.R.R.R.R.R.R.R.R.R.R.R.R.R.t.R.R.R.R.R.R.R.R.R.R.R.R.R.R.R.R.R.R.R.R.R.R.R.R.R.R.R.R.R.R.R.",
"R.R.R.R.R.R.R.R.R.R.R.R.R.R.R.R.R.R.R.R.R.R.R.R.R.R.R.R.R.R.R.R.1.R.R.R.R.R.R.R.R.R.R.R.R.R.R.R.R.R.R.R.R.R.R.R.R.R.R.R.R.R.R.R.",
"R.R.R.R.R.R.R.R.R.R.R.R.R.R.R.R.R.R.R.R.R.R.R.R.R.R.R.R.R.R.R.R.:.R.R.R.R.R.R.R.R.R.R.R.R.R.R.R.R.R.R.R.R.R.R.R.R.R.R.R.R.R.R.R.",
"R.R.R.R.R.R.R.R.R.R.R.R.R.R.R.R.R.R.R.R.R.R.R.R.R.R.R.R.R.R.R.R.Z R.R.R.R.R.R.R.R.R.R.R.R.R.R.R.R.R.R.R.R.R.R.R.R.R.R.R.R.R.R.R.",
"R.R.R.R.R.R.R.R.R.R.R.R.s.R.R.R.R.R.R.R.R.R.R.R.R.R.R.R.R.R.R.2.A R.R.R.R.R.R.R.R.R.R.R.R.R.R.R.R.R.R.s.R.R.R.R.R.R.R.R.R.R.R.R.",
"R.R.R.R.R.R.R.R.R.R.R.R.R.T.I.<.R.R.R.R.R.R.R.R.R.R.R.R.R.R.R.=.B k j R.R.R.R.R.R.R.R.R.R.R.R.R.S y.f.R.R.R.R.R.R.R.R.R.R.R.R.R.",
"R.R.R.R.R.R.R.R.R.R.R.R.R.R.f.>.<.D 5 &   ] ]     W @.| @.t X 3 3 2 c W           `  .7 $ 8.P.Y.3.5.R.R.R.R.R.R.R.R.R.R.R.R.R.R.",
"R.R.R.R.R.R.R.R.R.R.R.R.R.R.R.;.u.4.C v 0.j.w.w.w.v.m.m.m.x.+.) U I W ] $.$.%.w.0.k.#.v w 8.g.P.6.R.R.R.R.R.R.R.R.R.R.R.R.R.R.R.",
"R.R.R.R.R.R.R.R.R.R.R.R.R.R.R.,.a.6.:.V C.x.x.D.F.S.C.S.S.F.N.s.w.w. .] C.K.D.F.D.c.{ ( m C D S D R.R.R.R.R.R.R.R.R.R.R.R.R.R.R.",
"R.R.R.R.R.R.R.R.R.R.R.R.R.R.R.R.F ;.D m %.w.0.w.j.@. .w.j./ ,.3.q.%.{ [ S.K.B.%.j.[ 7.y.B h Z X.R.R.R.R.R.R.R.R.R.R.R.R.R.R.R.R.",
"R.R.R.R.R.R.R.R.R.R.R.R.R.R.R.0.f g F } U | *.&.] U 0.B.j.E C :.^ ] ~ U w.x.l.#.[ G q.A.&.M j N q R.R.R.R.R.R.R.R.R.R.R.R.R.R.R.",
"R.R.R.R.R.R.R.R.R.R.R.R.R.R.R.$.q.9.w.#.s U ] ` W W &.v.[ z g j f c d w s ] #.{ U > { B.j./ ! ! y R.R.R.R.R.R.R.R.R.R.R.R.R.R.R.",
"R.R.R.R.R.R.R.R.R.R.R.R.R.R.R.P V.K.B.| v H J v W ~ U y G J G t u G d 0 5 _ { W H d W @.#.%.%.#.v R.R.R.R.R.R.R.R.R.R.R.R.R.R.R.",
"R.R.R.R.R.R.R.R.R.R.R.R.R.4 i W $.V.V.| ; c.m.] ~ 9  .C.C.F.m.| ..M.v.J W J y H @.%.] v W +.@.~ ~ v & R.R.R.R.R.R.R.R.R.R.R.R.R.",
"R.R.R.R.R.R.R.R.R.R.R.R.R.  ^ p.&.z.l.w.e.N.D.B.%.w ..K.x.k.w.] _ B.D.b.[ s @ G &.w.] e W ] ] W Y y . R.R.R.R.R.R.R.R.R.R.R.R.R.",
"R.R.R.R.R.R.R.R.R.R.R.R.R.K o.r.+.@...| e.N.D.M.@.u _ b.] ~ ~ W W l.C.B.{ d 1 n _ #.] s W W U U u U R R.R.R.R.R.R.R.R.R.R.R.R.R.",
"R.R.R.R.R.R.R.R.R.R.R.R.R.j...6 U | ..R % v.B.{ d : s W +.$. .~ W ] @.{ Q d 3 k q [ { s W L e u w @.h.R.R.R.R.R.R.R.R.R.R.R.R.R.",
"R.R.R.R.R.R.R.R.R.R.R.R.R.h.@.y s W ` W s | k.#.H 8 w u , X Y 0./ r O , s t 9 0 w | | e d v u 8 4 ..j.R.R.R.R.R.R.R.R.R.R.R.R.R.",
"R.R.R.R.R.R.R.R.R.R.R.R.R.T T s u v L L s P T Y y : p ..G.H.n.x < n.H.G.O.p : 6 0 Y U s u y 0 6 4 U T R.R.R.R.R.R.R.R.R.R.R.R.R.",
"R.R.R.R.R.R.R.R.R.R.R.R.R.R.4 u s y e u u w : @ 8 @ H *.H.J.Z.* = Z.J.H.*.H - 9 8 7 w s z e 5 0 8 @ R.R.R.R.R.R.R.R.R.R.R.R.R.R.",
"R.R.R.R.R.R.R.R.R.R.R.R.R.R.R.0 u w w s 8 8 8 0 8 4 x ~ ' ' ` ~ Q ` ' ' ~ d 4 8 8 8 w b l a 6 8 0 R.R.R.R.R.R.R.R.R.R.R.R.R.R.R.",
"R.R.R.R.R.R.R.R.R.R.R.R.R.R.R.0 u s y 0 8 8 8 8 8 8 w H ~ ~ ~ ~ ~ ~ ~ ~ H w 8 8 8 y d s w 8 8 8 0 R.R.R.R.R.R.R.R.R.R.R.R.R.R.R.",
"R.R.R.R.R.R.R.R.R.R.R.R.R.R.R.; u 7     8 5 4 8 8 8 8 w J L L P P L L J w 8 8 8 8 8 w 0 +   # 4 @ R.R.R.R.R.R.R.R.R.R.R.R.R.R.R.",
"R.R.R.R.R.R.R.R.R.R.R.R.R.R.H T v } 0.| i i x 7 8 0 8 8 w w w w w t w w 8 8 8 8 8 d u d | w.] v T K R.R.R.R.R.R.R.R.R.R.R.R.R.R.",
"R.R.R.R.R.R.R.R.R.R.R.R.R.. ~ w.~ m.K.C.U U T 5 8 8 8 8 8 8 8 8 7 8 8 8 8 0 8 8 5 U U U S.K.m.W w.Q . R.R.R.R.R.R.R.R.R.R.R.R.R."
};
