/* XPM */
static char *result[] = {
/* columns rows colors chars-per-pixel */
"64 64 62 1 ",
"  c black",
". c #180000",
"X c gray8",
"o c gray11",
"O c #241400",
"+ c #2C1800",
"@ c #342000",
"# c #3C2404",
"$ c #482C04",
"% c #503008",
"& c #58380C",
"* c #603810",
"= c #443434",
"- c #684000",
"; c #785004",
": c #644014",
"> c #684014",
", c #6C4C18",
"< c #744C1C",
"1 c #78581C",
"2 c #000440",
"3 c #00044C",
"4 c #001474",
"5 c #002870",
"6 c #043478",
"7 c #304858",
"8 c gray25",
"9 c #4C4C4C",
"0 c #585858",
"q c #6C6C6C",
"w c #786460",
"e c gray47",
"r c #886408",
"t c #98780C",
"y c #806024",
"u c #886428",
"i c #8C6C28",
"p c #947830",
"a c #A88C10",
"s c #BCA414",
"d c #A08438",
"f c #D0C01C",
"g c #F4E020",
"h c #A88448",
"j c #B49054",
"k c #CCA874",
"l c #0428A0",
"z c #0C4084",
"x c #185090",
"c c #246098",
"v c #0C48CC",
"b c #4480B0",
"n c #848484",
"m c #909090",
"M c gray61",
"N c gray66",
"B c #B4B4B4",
"V c #D4C4B4",
"C c #C0C0C0",
"Z c gray80",
"A c #D8D8D8",
"S c None",
/* pixels */
"SSSSSSSSSSSSSSSSSSSSSSSSSSSSSSSSSSSSSSSSSSSSSSSSSSSSSSSSSSSSSSSS",
"SSSSSSSSSSSSSSSSSSSSSSSSSSSSSSSSSSSSSSSSSSSSSSSSSSSSSSSSSSSSSSSS",
"SSSSSSSSSSSSSSSSSSSSSSSSSSSSSSSSSSSSSSSSSSSSSSSSSSSSSSSSSSSSSSSS",
"SSSSSSSSSSSSSSSSSSSSSSSSSSSSSSSSSSSSSSSSSSSSSSSSSSSSSSSSSSSSSSSS",
"SSSSSSSSSSSSSSSSSSSSSSSSSSSSSSSSSSSSSSSSSSSSSSSSSSSSSSSSSSSSSSSS",
"SSSSSSSSSSSSSSSSSSSSSSSSSSSSSSSSSSSSScBZBbcSSSSSSSSSSSSSSSSSSSSS",
"SSSSSSSSSSSSSSSSSSSSSSSSSSSSSSSSSSSS6bb6xcZ6SSSSSSSSSSSSSSSSSSSS",
"SSSSSSSSSSSSSSSSSSSSSS6SSSSSSSSSSSSxbBz622cbSSSSSSSSSSSSSSSSSSSS",
"SSSSSSSSSSSSSSSSSSSSSSSx6SSSSSSSS6SScZc2  2bSSSSSSSSSSSSSSSSSSSS",
"SSSSSSSSSSSSSSSSSSSSSSS6xx6xxb6SSSSScB662266SSSSSSSSSSSSSSSSSSSS",
"SSSSSSSSSSSSSSSSSSSSSSSSxbZZZbBZcSSSbNbc5b6SxSSSSSSSSSSSSSSSSSSS",
"SSSSSSSSSSSSSSSSSSSSSSSSbZBx6cbBb6SxbbcxBcBSSSSSSSSSSSSSSSSSSSSS",
"SSSSSSSSSSSSSSSSSSSSSSSSbbx6ScbZBcSSxbxxtf;SSSSSSSSSSSSSSSSSSSSS",
"SSSSSSSSSSSSSSSSSSSSSS6S6ZSSS6bbZbcSbxSSrg&SSSSSSSSSSSSSSSSSSSSS",
"SSSSSSSSSSSSSSSSScScS6xSSBSSSScbNZbbcSSS;f@SSSSSSSSSSSSSSSSSSSSS",
"SSSSSSSSSSSSSSSSSScbcxbSxbSSSSSSxxccSSSS@;.SSSSSSSSSSSSSSSSSSSSS",
"SSSSSSSSSSSSSSSSSbb6bSSZBxSSSSSSxSSSSSSSOuh<SSSSSSSSSSSSSSSSSSSS",
"SSSSSSSSSSSSSSSSSS,xSSSSSSSSSSSSSSSSSSSSOjkjSSSSSSSSSSSSSSSSSSSS",
"SSSSSSSSSSSSSSSSSSi<S,xSSSSSSSSSSSSSSSSS.wnn8ABMnSSSSSSSSSSSSSSS",
"SSSSSSSSSSSSSSSSSSyh=iSSSSSSSSSSSSSSSSSSnNCAV0AB8nSSSSSSSSSSSSSS",
"SSSSSSSSSSSSSSSSSS*jjybSSSSSSSSSSSSSSSSnB8M444444MSSSSSSSSSSSSSS",
"SSSSSSSSSSSSSSSSSS,hh=xbSbbcSSSSSSSSSSn8AM4llll43nSSSSSSSSSSSSSS",
"SSSSSSSSSSSSSSSqAqAZACncbcSSSSSSSSSSSSnV0n4lll33SSSSSSSSSSSSSSSS",
"SSSSSSSSSSSSSSqM8VqAq8nncScSSS+@OSSSSSSSnM4ll43SSSSSSSSSSSSSSSSS",
"SSSSSSSSSSSSSSnq9mnne9lqnSSSS@%%$OSSSSSSS444433SSSSSSSSSSSSSSSSS",
"SSSSSSSSSSSSSSq94lllll43SSSSO$*:%#OSSSSS444443SSSSSSSSSSSSSSSSSS",
"SSSSSSSSSSSSSSSS34llll33SSSS+%<<:%OSSSS344ll43SSSSSSSSSSSSSSSSSS",
"SSSSSSSSSSSSSSSSS34ll4333SSS+%><:%.SSS344ll443SSSSSSSSSSSSSSSSSS",
"SSSSSSSSSSSSSSSSSS3444344433X%:::$$S333444l43SSSSSSSSSSSSSSSSSSS",
"SSSSSSSSSSSSSSSSSS344344ll4441y<y=33444llll3SSSSSSSSSSSSSSSSSSSS",
"SSSSSSSSSSSSSSSSSSS3344llvvl44pdi4444lllll43SSSSSSSSSSSSSSSSSSSS",
"SSSSSSSSSSSSSSSSSSSS334llvvlllllllll4lvvl7oSSSSSSSSSSSSSSSSSSSSS",
"SSSSSSSSSSSSSSSSSSSSSS334lllvvvvvvvvllvvl=+SSSSSSSSSSSSSSSSSSSSS",
"SSSSSSSSSSSSSSSSSSSSSSSS334lvvvvvvvvvlll3*+SSSSSSSSSSSSSSSSSSSSS",
"SSSSSSSSSSSSSSSSSSSSSSSSS44lllllllvvll43S#.SSSSSSSSSSSSSSSSSSSSS",
"SSSSSSSSSSSSSSSSSSSSSSSSS344lllllllll443SSSSSSSSSSSSSSSSSSSSSSSS",
"SSSSSSSSSSSSSSSSSSSSSSSSS34l4ll44lll4443SSSSSSSSSSSSSSSSSSSSSSSS",
"SSSSSSSSSSSSSSSSSSSSSSSSS34lll4444444443SSSSSSSSSSSSSSSSSSSSSSSS",
"SSSSSSSSSSSSSSSSSSSSSSSS334llll444444443SSSSSSSSSSSSSSSSSSSSSSSS",
"SSSSSSSSSSSSSSSSSSSSSSSS344llll444l444433SSSSSSSSSSSSSSSSSSSSSSS",
"SSSSSSSSSSSSSSSSSSSSSSSS344llll44lll44433SSSSSSSSSSSSSSSSSSSSSSS",
"SSSSSSSSSSSSSSSSSSSSSSS33444lll44lll44443SSSSSSSSSSSSSSSSSSSSSSS",
"SSSSSSSSSSSSSSSSSSSSSS333444lll44lll44443SSSSSSSSSSSSSSSSSSSSSSS",
"SSSSSSSSSSSSSSSSSSSSS3333444lll44lll444433SSSSSSSSSSSSSSSSSSSSSS",
"SSSSSSSSSSSSSSSSSSSS33334444lll44ll444l433SSSSSSSSSSSSSSSSSSSSSS",
"SSSSSSSSSSSSSSSSSSSS34334444lll4lll44ll4333SSSSSSSSSSSSSSSSSSSSS",
"SSSSSSSSSSSSSSSSSSSS334444l4lllllll44ll44333SSSSSSSSSSSSSSSSSSSS",
"SSSSSSSSSSSSSSSSSSSS33344ll44llllll44ll44333SSSSSSSSSSSSSSSSSSSS",
"SSSSSSSSSSSSSSSSSSSSS3344lll44lllll44lll4433SSSSSSSSSSSSSSSSSSSS",
"SSSSSSSSSSSSSSSSSSSSS3444llll4lllll44lll4433SSSSSSSSSSSSSSSSSSSS",
"SSSSSSSSSSSSSSSSSSSSS34llllll4lllll44lllll43SSSSSSSSSSSSSSSSSSSS",
"SSSSSSSSSSSSSSSSSSSS34lllllll4lllll44llllll44SSSSSSSSSSSSSSSSSSS",
"SSSSSSSSSSSSSSSSSSSS-4lllllll4lllll44lllllll4SSSSSSSSSSSSSSSSSSS",
"SSSSSSSSSSSSSSSSSSSSS-;rlllll4rtaa4444llll--SSSSSSSSSSSSSSSSSSSS",
"SSSSSSSSSSSSSSSSSSSSSSS rasatr    rassatr;SSSSSSSSSSSSSSSSSSSSSS",
"SSSSSSSSSSSSSSSSSSSSSSSS                SSSSSSSSSSSSSSSSSSSSSSSS",
"SSSSSSSSSSSSSSSSSSSSSSSSSSS          SSSSSSSSSSSSSSSSSSSSSSSSSSS",
"SSSSSSSSSSSSSSSSSSSSSSSSSSSSSSSSSSSSSSSSSSSSSSSSSSSSSSSSSSSSSSSS",
"SSSSSSSSSSSSSSSSSSSSSSSSSSSSSSSSSSSSSSSSSSSSSSSSSSSSSSSSSSSSSSSS",
"SSSSSSSSSSSSSSSSSSSSSSSSSSSSSSSSSSSSSSSSSSSSSSSSSSSSSSSSSSSSSSSS",
"SSSSSSSSSSSSSSSSSSSSSSSSSSSSSSSSSSSSSSSSSSSSSSSSSSSSSSSSSSSSSSSS",
"SSSSSSSSSSSSSSSSSSSSSSSSSSSSSSSSSSSSSSSSSSSSSSSSSSSSSSSSSSSSSSSS",
"SSSSSSSSSSSSSSSSSSSSSSSSSSSSSSSSSSSSSSSSSSSSSSSSSSSSSSSSSSSSSSSS",
"SSSSSSSSSSSSSSSSSSSSSSSSSSSSSSSSSSSSSSSSSSSSSSSSSSSSSSSSSSSSSSSS"
};
