/* XPM */
static char *result[] = {
/* columns rows colors chars-per-pixel */
"64 64 58 1 ",
"  c black",
". c #180000",
"X c gray8",
"o c gray11",
"O c #241400",
"+ c #2C1800",
"@ c #342000",
"# c #3C2404",
"$ c #482C04",
"% c #5C3000",
"& c #503008",
"* c #58380C",
"= c #603810",
"- c #443434",
"; c #684000",
": c #785004",
"> c #684014",
", c #6C4C18",
"< c #744C1C",
"1 c #7C5820",
"2 c #000440",
"3 c #00044C",
"4 c #001474",
"5 c #002870",
"6 c #043478",
"7 c gray25",
"8 c #4C4C4C",
"9 c #544440",
"0 c #585858",
"q c #6C6C6C",
"w c gray47",
"e c #886408",
"r c #98780C",
"t c #886428",
"y c #907030",
"u c #9C7C3C",
"i c #A88C10",
"p c #BCA414",
"a c #D0C01C",
"s c #F4E020",
"d c #A88448",
"f c #B49054",
"g c #CCA874",
"h c #0428A0",
"j c #0C4084",
"k c #246098",
"l c #3470A4",
"z c #0C48CC",
"x c #4480B0",
"c c #848484",
"v c #909090",
"b c gray61",
"n c #B4B4B4",
"m c #E8C498",
"M c #D4C4B4",
"N c #C0C0C0",
"B c #D8D8D8",
"V c None",
/* pixels */
"VVVVVVVVVVVVVVVVVVVVVVVVVVVVVVVVVVVVVVVVVVVVVVVVVVVVVVVVVVVVVVVV",
"VVVVVVVVVVVVVVVVVVVVVVVVVVVVVVVVVVVVVVVVVVVVVkVVVVVVVVVVVVVVVVVV",
"VVVVVVVVVVVVVVVVVVVVVVVVVVVVVVVVVVVVVVVVVVVVVVVVVkVVVVVVVVVVVVVV",
"VVVVVVVVVVVVVVVVVVVVVVVVVVVVVVVVVVVVVVVVVVVVVVVVVVVVVVVVVVVVVVVV",
"VVVVVVVVVVVVVVVVVVVVVVVVVVVVVVVVVVVVVVVVVVVVVVVVVVVVVVVVVVVVVVVV",
"VVVVVVVVVVVVVVVVVVVVVVVVVVVVVVVVVVVVVVVVVVVVVVVVVVVVVVVVVVVVVVVV",
"VVVVVVVVVVVVVVVVVVVVVVVVVVVVVVVVVVVVVVVVVVVVVVVVVVVVVVVVVVVVVVVV",
"VVVVVVVVVVVVVVVVVVVVVVVVVVVVVVVVVVVVVVVVVVVVVVVVVVVVVVVVVVVVVVVV",
"VVVVVVVVVVVVVVVVVVVVVVVVVVVVVVVVVVVVVVVVkVVVVVVVVVVVVVVVVVVVVVVV",
"VVVVVVVVVVVVVVVVVVVVVVVVVVVVVVVVVVVVVVVVVVVVVVVVVVVVVVVVVVVVVVVV",
"VVVVVVVVVVVVVVVVVVVVVVVVVVVVVVVVVVVVVVVVVVVVVVVVVVVVVVVVVVVVVVVV",
"VVVVVVVVVVVVVVVVVVVVVVVVVVVVVVVVVVVVVVVVVVVkVVVVVVVVVVVVVVVVVVVV",
"VVVVVVVVVVVVVVVVVVVVVVVVVVVVVVVVVVVVVxVVVkVVVVVVVVVVVVVVVVVVVVVV",
"VVVVVVVVVVVVVVVVVVVVVVVVVVVVVVVVVVVVVVVVkxkVVVVVVVVVVVVVVkVVVVVV",
"VVVVVVVVVVVVVVVVVVVVVVVVVVVVVVVVVVVVVVVVVkVVVVVVVVVVVVVVVVVVVVVV",
"VVVVVVVVVVVVVVVVVVVVVVVVVVVVO@O.9qqVVVkVVVVVVVVkVVVVVVVVkVVVVVVV",
"VVVVVVVVVVVVVVVVVVVVVVVVVV3+###@+vvq<tt<=VVVVVVVVVVkkVkkVVVVVVVV",
"VVVVVVVVVVVVVVVVVVVVVVVVV34$**><=+b9gffuyVVVVVVVVxVVkxnxkVVVVVVV",
"VVVVVVVVVVVVVVVVVVVVVVVVV34*<1dgyqbbdgu<VVVVVVVVkVVx6226xVkVVVVV",
"VVVVVVVVVVVVVVVVVVVVVVVVV33=>1fdu>qbVVVVVVVVVVVknkVn2  2xkVVVVVV",
"VVVVVVVVVVVVVVVVVVVVVVVVV43$y,%<%y=0VVVVVVVVkVVVkVkx6226jVVVVVVV",
"VVVVVVVVVVVVVVVVVVVVVVVV343O$>ytO$$VVVVVVVVkxkVVVVVkx55xVVVVVVVV",
"VVVVVVVVVVVVVVVVVVVVVVVV333433%O;+%+VVVVVVVVkVVVVVxpkklVVVVVVVVV",
"VVVVVVVVVVVVVVVVVVVVVVVV3344h4O:+$:#VVVVVVVVVVVVVV:aaeVVVVVVVVVV",
"VVVVVVVVVVVVVVVVVVVVVVVV344hzh4@%;:$VVVVVVVVVVVVVOispVVVVVVVVVVV",
"VVVVVVVVVVVVVVVVVVVVVVVV34hzh44#%;,,#VVVVVVVVVVVV;sa*VVVVVVVVVVV",
"VVVVVVVVVVVVVVVVVVVVVVVV34hh444+#%;;#VVVVVVVVVVVVrarVVVVVVVVVVVV",
"VVVVVVVVVVVVVVVVVVVVVVVV3444hh43O$$%$VVVVVVVVVVV.ppOVVVVVVVVVVVV",
"VVVVVVVVVVVVVVVVVVVVVVVV344hhh433++$VVVVVVVVVVVV+e;VVVVVVVVVVVVV",
"VVVVVVVVVVVVVVVVVVVVVVVV334hzzh433VVVVVVVVVVVVVV&&VVVVVVVVVVVVVV",
"VVVVVVVVVVVVVVVVVVVVVVV33334hzzh43VVVVVVVVVVVVV+*+VVVVVVVVVVVVVV",
"VVVVVVVVVVVVVVVVVVVVVVV334334zzzh43VVVVVVVVVVVV&&VVVVVVVVVVVVVVV",
"VVVVVVVVVVVVVVVVVVVVVV3334434hzzzh4VVVVVVVVVVV+*+VVVVVVVVVVVVVVV",
"VVVVVVVVVVVVVVVVVVVVV333444334hzh444330cqVVVVV$&VVVVVVVVVVVVVVVV",
"VVVVVVVVVVVVVVVVVVVVV3334443333h44zh44cnn#=XoO*@VVVVVVVVVVVVVVVV",
"VVVVVVVVVVVVVVVVVVVVV3334443333h4zzhhqN7nqfgmgt#VVVVVVVVVVVVVVVV",
"VVVVVVVVVVVVVVVVVVVVV33344433434hhhhhcBqncgmmmftVVVVVVVVVVVVVVVV",
"VVVVVVVVVVVVVVVVVVVVr3334443344333444cBBBqtuygu=VVVVVVVVVVVVVVVV",
"VVVVVVVVVVVVVVVVVVVVe3334443344443333cnqBnVO$#VVVVVVVVVVVVVVVVVV",
"VVVVVVVVVVVVVVVVVVVVVe334443444h444338nBqnV$&.VVVVVVVVVVVVVVVVVV",
"VVVVVVVVVVVVVVVVVVVVVV34443344hh4443VVcqMbO*#VVVVVVVVVVVVVVVVVVV",
"VVVVVVVVVVVVVVVVVVVVV 34443344hhh4433VVB7b#&OVVVVVVVVVVVVVVVVVVV",
"VVVVVVVVVVVVVVVVVVVV 33444334hhhh4443  Vnw-#VVVVVVVVVVVVVVVVVVVV",
"VVVVVVVVVVVVVVVVVVV  3444h334hhhh4443   V#*OVVVVVVVVVVVVVVVVVVVV",
"VVVVVVVVVVVVVVVVVVV  3444h34hhhhhh443   O*#VVVVVVVVVVVVVVVVVVVVV",
"VVVVVVVVVVVVVVVVVVV  344hh4hhhhhhh443   #*OVVVVVVVVVVVVVVVVVVVVV",
"VVVVVVVVVVVVVVVVVVV  :44hhhhhhhhhh443  .*#VVVVVVVVVVVVVVVVVVVVVV",
"VVVVVVVVVVVVVVVVVVVV :44hhhhhhhhhh4e:  #*OVVVVVVVVVVVVVVVVVVVVVV",
"VVVVVVVVVVVVVVVVVVVV e34hhhhhhhhh4e   .&$VVVVVVVVVVVVVVVVVVVVVVV",
"VVVVVVVVVVVVVVVVVVVVV r4hhhhhh4ire    @*OVVVVVVVVVVVVVVVVVVVVVVV",
"VVVVVVVVVVVVVVVVVVVVVV ihhhh4pi     VV&$VVVVVVVVVVVVVVVVVVVVVVVV",
"VVVVVVVVVVVVVVVVVVVVVVVVipapi    VVVV+*OVVVVVVVVVVVVVVVVVVVVVVVV",
"VVVVVVVVVVVVVVVVVVVVVVVVVVVVVVVVVVVVVO@VVVVVVVVVVVVVVVVVVVVVVVVV",
"VVVVVVVVVVVVVVVVVVVVVVVVVVVVVVVVVVVVVVVVVVVVVVVVVVVVVVVVVVVVVVVV",
"VVVVVVVVVVVVVVVVVVVVVVVVVVVVVVVVVVVVVVVVVVVVVVVVVVVVVVVVVVVVVVVV",
"VVVVVVVVVVVVVVVVVVVVVVVVVVVVVVVVVVVVVVVVVVVVVVVVVVVVVVVVVVVVVVVV",
"VVVVVVVVVVVVVVVVVVVVVVVVVVVVVVVVVVVVVVVVVVVVVVVVVVVVVVVVVVVVVVVV",
"VVVVVVVVVVVVVVVVVVVVVVVVVVVVVVVVVVVVVVVVVVVVVVVVVVVVVVVVVVVVVVVV",
"VVVVVVVVVVVVVVVVVVVVVVVVVVVVVVVVVVVVVVVVVVVVVVVVVVVVVVVVVVVVVVVV",
"VVVVVVVVVVVVVVVVVVVVVVVVVVVVVVVVVVVVVVVVVVVVVVVVVVVVVVVVVVVVVVVV",
"VVVVVVVVVVVVVVVVVVVVVVVVVVVVVVVVVVVVVVVVVVVVVVVVVVVVVVVVVVVVVVVV",
"VVVVVVVVVVVVVVVVVVVVVVVVVVVVVVVVVVVVVVVVVVVVVVVVVVVVVVVVVVVVVVVV",
"VVVVVVVVVVVVVVVVVVVVVVVVVVVVVVVVVVVVVVVVVVVVVVVVVVVVVVVVVVVVVVVV",
"VVVVVVVVVVVVVVVVVVVVVVVVVVVVVVVVVVVVVVVVVVVVVVVVVVVVVVVVVVVVVVVV"
};
