/* XPM */
static char *result[] = {
/* columns rows colors chars-per-pixel */
"64 64 64 1 ",
"  c black",
". c #180000",
"X c gray8",
"o c gray11",
"O c #241400",
"+ c #2C1800",
"@ c #342000",
"# c #3C2404",
"$ c #343434",
"% c #482C04",
"& c #5C3000",
"* c #503008",
"= c #58380C",
"- c #603810",
"; c #743414",
": c #443434",
"> c #684000",
", c #785004",
"< c #644014",
"1 c #684014",
"2 c #6C4C18",
"3 c #744C1C",
"4 c #7C5820",
"5 c #000440",
"6 c #00044C",
"7 c #00185C",
"8 c #001474",
"9 c #043478",
"0 c #304858",
"q c gray25",
"w c #585858",
"e c #685450",
"r c #646464",
"t c #6C6C6C",
"y c gray47",
"u c #886408",
"i c #98780C",
"p c #886428",
"a c #907030",
"s c #8C7870",
"d c #A88C10",
"f c #BCA414",
"g c #D0C01C",
"h c #F4E020",
"j c #A88448",
"k c #B49054",
"l c #CCA874",
"z c #0428A0",
"x c #185090",
"c c #246098",
"v c #3470A4",
"b c #0C48CC",
"n c #4480B0",
"m c #848484",
"M c #909090",
"N c gray61",
"B c gray66",
"V c #B4B4B4",
"C c #C0B0A4",
"Z c #E8C498",
"A c #D4C4B4",
"S c gray80",
"D c #D8D8D8",
"F c None",
/* pixels */
"FFFFFFFFFFFFFFFFFFFFFFFFFFFFFFFFFFFFFFFFFFFFFFFFFFFFFFFFFFFFFFFF",
"FFFFFFFFFFFFFFFFFFFFFFFFFFFFFFFFFFFFFFFFFFFFFFFFFFFFFFFFFFFFFFFF",
"FFFFFFFFFFFFFFFFFFFFFFFFFFFFFFFFFFFFFFFFFFFFFFFFFFFFFFFFFFFFFFFF",
"FFFFFFFFFFFFFFFFFFFFFFFFFFFFFFFFFFFFFFFFFFFFFFFFFFFFFFFFFFFFFFFF",
"FFFFFFFFFFFFFFFFFFFFFFFFFFFFFFFFFFFFFFFFFFFFFFFFFFFFFFFFFFFFFFFF",
"FFFFFFFFFFFFFFFFFFFFFFFFFFFFFFFFFFFFFFFFFFFFFFFFFFFFFFFFFFFFFFFF",
"FFFFFFFFFFFFFFFFFFFFFFFFFFFFFFFFFFFFFFFFFFFFFFFFFFFFFFFFFFFFFFFF",
"FFFFFFFFFFFFFFFFFFFFFFFFFFFFFFFFFFFFFFFFFFFFFFFFFFFFFFFFFFFFFFFF",
"FFFFFFFFFFFFFFFFFFFFFFFFFFFFFFFFFFFFFFFFFFFFFFFFFFFFFFFFFFFFFFFF",
"FFFFFFFFFFFFFFFFFFFFFFFFFFFFFFFFFFFFFFFFFFFFFFFFFFFFFFFFFFFFFFFF",
"FFFFFFFFFFFFFFFFFFFFFFFFFFFFFFFFFFFFFFFFFFFFFFFFFFFFFFFFFFFFFFFF",
"FFFFFFFFFFFFFFFFFFFFFFFFFFFFFFFFFFFFFFFFFFFFFFFFFFFFFFFFFFFFFFFF",
"FFFFFFFFFFFFFFFFFFFFFFFFFFFFFFFFFFFFFFFFFFFFFFFFFFFFFFFFFFFFFFFF",
"FFFFFFFFFFFFFFFFFFFFFFFFFFFFFFFFFFFFFFFFFFFFFFFFFFFFFFFFFFFFFFFF",
"FFFFFFFFFFFFFFFFFFFFFFFFFFFFFFFFFFFFFFFFFFFFFFFFFFFFFFFFFFFFFFFF",
"FFFFFFFFFFFFFFFFFFFFFFFFFFFFFFFFFFFFFFFFFFFFFFFFFFFFFFFFFFFFFFFF",
"FFFFFFFFFFFFFFFFFFFFFFFFFFFFFFFFFFFFFFFFFFFFFFFFFFFFFFFFFFFFFFFF",
"FFFFFFFFFFFFFFFFFFFFFFFFFFFFFFFFFFFFFFFFFFFFFFFFFFFFFFFFFFFFFFFF",
"FFFFFFFFFFFFFFFFFFnFFFFFFFFFFFFFFFFFFFFFFFFFFFFFFFFFFFFFFFFFFFFF",
"FFFFFFFFFFFFFFFFFFvSFFFnFFFFFF@@@@FFFFFFFFFFFFFFFFFFFFFFFFFFFFFF",
"FFFFFFFFFFFFFFxvxnVDVnnFFFFFF@>22>@FFFFFFFFFFFFFFFFFFFFFFFFFFFFF",
"FFFFFFFFFFFFFFFxnVnnxVnFFFFF@>%%2%%@FFFFFFFFFFFFFFFFFFFFFFFFFFFF",
"FFFFFFFFFFFFFFxDVn7579Dx6666@>>%%>%>FFFFFFFFFFFFFFFFFFFFFFFFFFFF",
"FFFFFFFFFFFFxvvVn7   7VS88zz@>3--3>>6FFFFFFFFFFFFFFFFFFFFFFFFFFF",
"FFFFFFFFFFFFFFnnS7  79nVSxbz&3lZZl3&8666FFFFFFFFFFFFFFFFFFFFFFFF",
"FFFFFFFFFFFFFFcFV9559nVnzzbb&pklllp&88zz8FFFFFFFFFFFFFFFFFFFFFFF",
"FFFFFFFFFFFFFFFFnVnVSDVnz8zz&&@kap@&8zbzz6FFFFFFFFFFFFFFFFFFFFFF",
"FFFFFFFFFFFFFFFFFBVSnvz8666z&,jj,j,&8zbbz8FFFFFFFFFFFFFFFFFFFFFF",
"FFFFFFFFFFFFFFFFMy$yBwc8666z&2p%%p&&8zbbzz6FFFFFFFFFFFFFFFFFFFFF",
"FFFFFFFFFFFFFFFFB$&@yNw6F66z2#O&@@2#88zbbz8FFFFFFFFFFFFFFFFFFFFF",
"FFFFFFFFFFFFFFFFs1@koBw6F666=O@,&O&<z88zbz86FFFFFFFFFFFFFFFFFFFF",
"FFFFFFFFFFFFFFFF1k1@0Mw6F668O@@@,>&@z68zzz886FFFFFFFFFFFFFFFFFFF",
"FFFFFFFFFFFFFFFF1ajj:mwFF6886##@2>&@886888z86FFFFFFFFFFFFFFFFFFF",
"FFFFFFFFFFFFFFFFF1a;oyFF6688z###>&#6zz8668zz86FFFFFFFFFFFFFFFFFF",
"FFFFFFFFFFFFFFFFFF&@tFFF668zz8uddidzzz8868zbz6FFFFFFFFFFFFFFFFFF",
"FFFFFFFFFFFFFFFFFF4@FFFF668zzdi,u,dzzzz86MMMyr6FFFFFFFFFFFFFFFFF",
"FFFFFFFFFFFFFFFFFF4@FFFF668zzfd30qfzzzz8tBwDAqM6FFFFFFFFFFFFFFFF",
"FFFFFFFFFFFFFFFFFF4@FFF6668zzgi=6#gzzzztMBtDtCMtFFFFFFFFFFFFFFFF",
"FFFFFFFFFFFFFFFFFF4@FFF6688zzhi+ #hzczztoo*4XooMFFFFFFFFFFFFFFFF",
"FFFFFFFFFFFFFFFFFF4@FF66688zzh, c fzzcz8toeleotwFFFFFFFFFFFFFFFF",
"FFFFFFFFFFFFFFFFFF4@FF6688zzzg%cncdzcnn884akjtFFFFFFFFFFFFFFFFFF",
"FFFFFFFFFFFFFFFFFF4@FF6688zzzf@ c #dnzz8ajll4FFFFFFFFFFFFFFFFFFF",
"FFFFFFFFFFFFFFFFFF4@F6688zzziuO   #fzzz888lj4FFFFFFFFFFFFFFFFFFF",
"FFFFFFFFFFFFFFFFFF4@F6888zzzfO    cnzzz8a4k4FFFFFFFFFFFFFFFFFFFF",
"FFFFFFFFFFFFFFFFFF;@F,888zzzg.   cndzzczzk4FFFFFFFFFFFFFFFFFFFFF",
"FFFFFFFFFFFFFFFFFF&@F,68zzzzh     cndcnczazFcFFFFFFFFFFFFFFFFFFF",
"FFFFFFFFFFFFFFFFFF&@FFi8zzzzh    c+nfzczac8FnFFFFFFFFFFFFFFFFFFF",
"FFFFFFFFFFFFFFFFFFFFFFFidzzzg     +cgzzzzncFcFFFFFFFFFFFFFFFFFFF",
"FFFFFFFFFFFFFFFFFFFFFFF  idzg      +hzznzcdFFFFFFFFFFFFFFFFFFFFF",
"FFFFFFFFFFFFFFFFFFFFFFFF  .gi       hzzcfgcFFFFFFFFFFFFFFFFFFFFF",
"FFFFFFFFFFFFFFFFFFFFFFFFF           gfc   FFFFFFFFFFFFFFFFFFFFFF",
"FFFFFFFFFFFFFFFFFFFFFFFFFF               FFFFFFFFFFFFFFFFFFFFFFF",
"FFFFFFFFFFFFFFFFFFFFFFFFFFFF   FFFFFFFFFFFFFFFFFFFFFFFFFFFFFFFFF",
"FFFFFFFFFFFFFFFFFFFFFFFFFFFFFFFFFFFFFFFFFFFFFFFFFFFFFFFFFFFFFFFF",
"FFFFFFFFFFFFFFFFFFFFFFFFFFFFFFFFFFFFFFFFFFFFFFFFFFFFFFFFFFFFFFFF",
"FFFFFFFFFFFFFFFFFFFFFFFFFFFFFFFFFFFFFFFFFFFFFFFFFFFFFFFFFFFFFFFF",
"FFFFFFFFFFFFFFFFFFFFFFFFFFFFFFFFFFFFFFFFFFFFFFFFFFFFFFFFFFFFFFFF",
"FFFFFFFFFFFFFFFFFFFFFFFFFFFFFFFFFFFFFFFFFFFFFFFFFFFFFFFFFFFFFFFF",
"FFFFFFFFFFFFFFFFFFFFFFFFFFFFFFFFFFFFFFFFFFFFFFFFFFFFFFFFFFFFFFFF",
"FFFFFFFFFFFFFFFFFFFFFFFFFFFFFFFFFFFFFFFFFFFFFFFFFFFFFFFFFFFFFFFF",
"FFFFFFFFFFFFFFFFFFFFFFFFFFFFFFFFFFFFFFFFFFFFFFFFFFFFFFFFFFFFFFFF",
"FFFFFFFFFFFFFFFFFFFFFFFFFFFFFFFFFFFFFFFFFFFFFFFFFFFFFFFFFFFFFFFF",
"FFFFFFFFFFFFFFFFFFFFFFFFFFFFFFFFFFFFFFFFFFFFFFFFFFFFFFFFFFFFFFFF",
"FFFFFFFFFFFFFFFFFFFFFFFFFFFFFFFFFFFFFFFFFFFFFFFFFFFFFFFFFFFFFFFF"
};
