/* XPM */
static char *result[] = {
/* columns rows colors chars-per-pixel */
"64 64 59 1 ",
"  c black",
". c #180000",
"X c gray8",
"o c gray11",
"O c #241400",
"+ c #2C1800",
"@ c #342000",
"# c #3C2404",
"$ c #482C04",
"% c #5C3000",
"& c #503008",
"* c #58380C",
"= c #603810",
"- c #443434",
"; c #684000",
": c #785004",
"> c #684014",
", c #6C4C18",
"< c #744C1C",
"1 c #7C5820",
"2 c #000440",
"3 c #00044C",
"4 c #00185C",
"5 c #001474",
"6 c #043478",
"7 c gray25",
"8 c #4C4C4C",
"9 c #646464",
"0 c #6C6C6C",
"q c gray47",
"w c #886408",
"e c #98780C",
"r c #886428",
"t c #907030",
"y c #9C7C3C",
"u c #A88C10",
"i c #BCA414",
"p c #D0C01C",
"a c #F4E020",
"s c #A88448",
"d c #B49054",
"f c #CCA874",
"g c #0428A0",
"h c #0C4084",
"j c #185090",
"k c #246098",
"l c #3470A4",
"z c #0C48CC",
"x c #4480B0",
"c c #848484",
"v c #909090",
"b c gray61",
"n c #B4B4B4",
"m c #E8C498",
"M c #D4C4B4",
"N c #C0C0C0",
"B c gray80",
"V c #D8D8D8",
"C c None",
/* pixels */
"CCCCCCCCCCCCCCCCCCCCCCCCCCCCCCCCCCCCCCCCCCCCCCCCCCCCCCCCCCCCCCCC",
"CCCCCCCCCCCCCCCCCCCCCCCCCCCCCCCCCCCCCCCCCCCCCCCCCCCCCCCCCCCCCCCC",
"CCCCCCCCCCCCCCCCCCCCCCCCCCCCCCCCCCCCCCCCCCCCCCCCCCCCCCCCCCCCCCCC",
"CCCCCCCCCCCCCCCCCCCCCCCCCCCCCCCCCCCCCCCCCCCCCCCCCCCCCCCCCCCCCCCC",
"CCCCCCCCCCCCCCCCCCCCCCCCCCCCCCCCCCCCCCCCCCCCCCCCCCCCCCCCCCCCCCCC",
"CCCCCCCCCCCCCCCCCCCCCCCCCCCCCCCCCCCCCCCCCCCCCCCCCCCCCCCCCCCCCCCC",
"CCCCCCCCCCCCCCCCCCCCCCCCCCCCCCCCCCCCCCCCCCCCCCCCCCCCCCCCCCCCCCCC",
"CCCCCCCCCCCCCCCCCCCCCCCCCCCCCCCCCCCCCCCCCCCCCCCCCCCCCCCCCCCCCCCC",
"CCCCCCCCCCCCCCCCCCCCCCCCCCCCCCCCCCCCCCCCCCCCCCCCCCCCCCCCCCCCCCCC",
"CCCCCCCCCCCCCCCCCCCCCCCCCCCCCCCCCCCCCCCCCCCCCCCCCCCCCCCCCCCCCCCC",
"CCCCCCCCCCCCCCCCCCCCCCCCCCCCCCCCCCCCCCCCCCCCCCCCCCCCCCCCCCCCCCCC",
"CCCCCCCCCCCCCCCCCCCCCCCCCCCCCCCCCCCCCCCCCCCCCCCCCCCCCCCCCCCCCCCC",
"CCCCCCCCCCCCCCCCCCCCCCCCCCCCCCCCCCCCCCCCCCCCCCCCCCCCCCCCCCCCCCCC",
"CCCCCCCCCCCCCCCCCCCCCCCCCCCCCCCCCCCCCCCCCCCCCCCCCCCCCCCCCCCCCCCC",
"CCCCCCCCCCCCCCCCCCCCCCq0CCCCCCCCCCCCCCCCCCCCCCCCCCCCCCCCCCCCCCCC",
"CCCCCCCCCCCCkCkCCCCCCCnbq53C33333333CCCCCCCCCCCCCCCCCCCCCCCCCCCC",
"CCCCCCCCCCCChkxkhCCCCCqV0qg5555.O@Og5CCCCCCCCCCCCCCCCCCCCCCCCCCC",
"CCCCCCCCCCCCChCCCrrdrr<0Vbzg55+@###+g3CCCCCCCCCCCCCCCCCCCCCCCCCC",
"CCCCCCCCCCCCkxjCrsdff<=M0bgg5+=<>**$#5CCCCCCCCCCCCCCCCCCCCCCCCCC",
"CCCCCCCCCCCkjCCCCryror.cnb5533tfs1<*&33CCCCCCCCCCCCCCCCCCCCCCCCC",
"CCCCCCCCCCCCCCCCCCCChdk3nv3CC>ysd1>=-33CCCCCCCCCCCCCCCCCCCCCCCCC",
"CCCCCCCCCCCCCCCjCChCxkCkc0CCCt%<%,t$533CCCCCCCCCCCCCCCCCCCCCCCCC",
"CCCCCCCCCCCCChkxxjxhhCCCCxCCC$Ort>$O553CCCCCCCCCCCCCCCCCCCCCCCCC",
"CCCCCCCCCCCCCCCCkxkCxCCCBlCCC+;O%335gg5CCCCCCCCCCCCCCCCCCCCCCCCC",
"CCCCCCCCCCCCCCCkCkCCCxxnVnxjlj$&++5gzg53CCCCCCCCCCCCCCCCCCCCCCCC",
"CCCCCCCCCCCCCChCCCCCCxnjxxnxjX$+5gg55553CCCCCCCCCCCCCCCCCCCCCCCC",
"CCCCCCCCCCCCCCCCCCCCjV6424xnVj+5gg55gg53CCCCCCCCCCCCCCCCCCCCCCCC",
"CCCCCCCCCCCCCCCCCCCCBn4   4xnlljgg5gzg53CCCCCCCCCCCCCCCCCCCCCCCC",
"CCCCCCCCCCCCCCCCCCCBnx64  4Bxxg-555gzzg3CCCCCCCCCCCCCCCCCCCCCCCC",
"CCCCCCCCCCCCCCCCCCCCxnx6226n#k3;555gzzg53CCCCCCCCCCCCCCCCCCCCCCC",
"CCCCCCCCCCCCCCCCCCCCxnVBnxnxC+355g35gzg53CCCCCCCCCCCCCCCCCCCCCCC",
"CCCCCCCCCCCCCCCCCCCCCCxxxupeCC35gg53gzgg3CCCCCCCCCCCCCCCCCCCCCCC",
"CCCCCCCCCCCCCCCCCCCCCCCx;eaeCC35g5535gzg3CCCCCCCCCCCCCCCCCCCCCCC",
"CCCCCCCCCCCCCCCCCCCCCCCCC;aeCC3gg535555g33CCCCCCCCCCCCCCCCCCCCCC",
"CCCCCCCCCCCCCCCCCCCCCCCCC%euCC3g5535ggg533CCCCCCCCCCCCCCCCCCCCCC",
"CCCCCCCCCCCCCCCCCCCCCCCCCC:e@C35335gzzg533CCCCCCCCCCCCCCCCCCCCCC",
"CCCCCCCCCCCCCCCCCCCCCCCCCCC;#C35cbc9zg5533CCCCCCCCCCCCCCCCCCCCCC",
"CCCCCCCCCCCCCCCCCCCCCCCCCCC+%333b7Nvg55333CCCCCCCCCCCCCCCCCCCCCC",
"CCCCCCCCCCCCCCCCCCCCCCCCCCC@%33==n0Vn533533CCCCCCCCCCCCCCCCCCCCC",
"CCCCCCCCCCCCCCCCCCCCCCCCCCC$#rfmsnVV0335533CCCCCCCCCCCCCCCCCCCCC",
"CCCCCCCCCCCCCCCCCCCCCCCCCCCOrdmmf=n0Vb55533CCCCCCCCCCCCCCCCCCCCC",
"CCCCCCCCCCCCCCCCCCCCCCCCCCCo=yft=5bM0b555533CCCCCCCCCCCCCCCCCCCC",
"CCCCCCCCCCCCCCCCCCCCCCCCCC  o=#$55b7V05g5533CCCCCCCCCCCCCCCCCCCC",
"CCCCCCCCCCCCCCCCCCCCCCCCCC  o%g5558c95gg5533CCCCCCCCCCCCCCCCCCCC",
"CCCCCCCCCCCCCCCCCCCCCCCCCC  #&5g55$855gg5553CCCCCCCCCCCCCCCCCCCC",
"CCCCCCCCCCCCCCCCCCCCCCCCCC  @&Og5555gggg5553CCCCCCCCCCCCCCCCCCCC",
"CCCCCCCCCCCCCCCCCCCCCCCCCCC +*Og555ggggg555eCCCCCCCCCCCCCCCCCCCC",
"CCCCCCCCCCCCCCCCCCCCCCCCCCC O*+5555ggggg555:CCCCCCCCCCCCCCCCCCCC",
"CCCCCCCCCCCCCCCCCCCCCCCCCCCC *@:e55ggggg5e:CCCCCCCCCCCCCCCCCCCCC",
"CCCCCCCCCCCCCCCCCCCCCCCCCCCCC$#  euipiuw: CCCCCCCCCCCCCCCCCCCCCC",
"CCCCCCCCCCCCCCCCCCCCCCCCCCCCC++C       CCCCCCCCCCCCCCCCCCCCCCCCC",
"CCCCCCCCCCCCCCCCCCCCCCCCCCCCCCCCCC    CCCCCCCCCCCCCCCCCCCCCCCCCC",
"CCCCCCCCCCCCCCCCCCCCCCCCCCCCCCCCCCCCCCCCCCCCCCCCCCCCCCCCCCCCCCCC",
"CCCCCCCCCCCCCCCCCCCCCCCCCCCCCCCCCCCCCCCCCCCCCCCCCCCCCCCCCCCCCCCC",
"CCCCCCCCCCCCCCCCCCCCCCCCCCCCCCCCCCCCCCCCCCCCCCCCCCCCCCCCCCCCCCCC",
"CCCCCCCCCCCCCCCCCCCCCCCCCCCCCCCCCCCCCCCCCCCCCCCCCCCCCCCCCCCCCCCC",
"CCCCCCCCCCCCCCCCCCCCCCCCCCCCCCCCCCCCCCCCCCCCCCCCCCCCCCCCCCCCCCCC",
"CCCCCCCCCCCCCCCCCCCCCCCCCCCCCCCCCCCCCCCCCCCCCCCCCCCCCCCCCCCCCCCC",
"CCCCCCCCCCCCCCCCCCCCCCCCCCCCCCCCCCCCCCCCCCCCCCCCCCCCCCCCCCCCCCCC",
"CCCCCCCCCCCCCCCCCCCCCCCCCCCCCCCCCCCCCCCCCCCCCCCCCCCCCCCCCCCCCCCC",
"CCCCCCCCCCCCCCCCCCCCCCCCCCCCCCCCCCCCCCCCCCCCCCCCCCCCCCCCCCCCCCCC",
"CCCCCCCCCCCCCCCCCCCCCCCCCCCCCCCCCCCCCCCCCCCCCCCCCCCCCCCCCCCCCCCC",
"CCCCCCCCCCCCCCCCCCCCCCCCCCCCCCCCCCCCCCCCCCCCCCCCCCCCCCCCCCCCCCCC",
"CCCCCCCCCCCCCCCCCCCCCCCCCCCCCCCCCCCCCCCCCCCCCCCCCCCCCCCCCCCCCCCC"
};
