/* XPM */
static char *result[] = {
/* columns rows colors chars-per-pixel */
"64 64 208 2 ",
"   c #558DBD",
".  c #5A84B9",
"X  c #5C92BC",
"o  c #658DBF",
"O  c #708DB4",
"+  c #6698B9",
"@  c #7395B6",
"#  c #799DB8",
"$  c #7A93B6",
"%  c #79A3BF",
"&  c #75A8BB",
"*  c #75B4BE",
"=  c #4A82C8",
"-  c #5188CD",
";  c #598EC9",
":  c #469BCE",
">  c #5A99CF",
",  c #5299CE",
"<  c #4994D7",
"1  c #5397DC",
"2  c #6C8EC3",
"3  c #669FC3",
"4  c #6A9CCF",
"5  c #7299C7",
"6  c #609CD6",
"7  c #6B9EDD",
"8  c #7D9DD4",
"9  c #5CA5D6",
"0  c #5EB4D7",
"q  c #67A3C7",
"w  c #74A2C4",
"e  c #70A7C9",
"r  c #79A2CC",
"t  c #6BB7CE",
"y  c #6DBECD",
"u  c #74B1CF",
"i  c #61AFD9",
"p  c #6AA8DB",
"a  c #75A9D2",
"s  c #6CB0D5",
"d  c #75BCD6",
"f  c #7DBDD7",
"g  c #7BB8D8",
"h  c #599EE1",
"j  c #4CABEC",
"k  c #65B7EA",
"l  c #78BBEB",
"z  c #68BBF1",
"x  c #7ABFF4",
"c  c #78C5DF",
"v  c #79CDDF",
"b  c #7CC6D6",
"n  c #69D9DF",
"m  c #7AC1E7",
"M  c #7BCBE7",
"N  c #6CDEE5",
"B  c #68D1EE",
"V  c #7AD9E8",
"C  c #77C0FB",
"Z  c #79C7F9",
"A  c #7ACDFE",
"S  c #7CC8F3",
"D  c #5CFBFF",
"F  c #6CEDEF",
"G  c #67E6EB",
"H  c #73E6EB",
"J  c #6FEDF0",
"K  c #75EFF2",
"L  c #63F5F7",
"P  c #6FF7F9",
"I  c #63FBFE",
"U  c #6BFDFF",
"Y  c #73FDFE",
"T  c #7CFDFF",
"R  c #75F5F7",
"E  c #88A0BE",
"W  c #83A9BE",
"Q  c #82A3C1",
"!  c #85B3CB",
"~  c #9EB7CE",
"^  c #95BFCE",
"/  c #9EB9CF",
"(  c #82ADD0",
")  c #91B7D5",
"_  c #9CBED5",
"`  c #98BAD3",
"'  c #8EBFEF",
"]  c #82BAE6",
"[  c #95BFE3",
"{  c #96C3C9",
"}  c #84C4DB",
"|  c #89C1DE",
" . c #9FC8D1",
".. c #9FC5D8",
"X. c #91CBDF",
"o. c #93C6D4",
"O. c #8AD2DC",
"+. c #9CDEDF",
"@. c #9CD0DD",
"#. c #A1C5D5",
"$. c #A2CAD4",
"%. c #A3C9DC",
"&. c #ABC5D8",
"*. c #B6CEDD",
"=. c #B9CED8",
"-. c #A7D5DD",
";. c #B6D2DC",
":. c #86C7E2",
">. c #88C0E8",
",. c #84CCEA",
"<. c #8ACBEC",
"1. c #98C8E5",
"2. c #85D8E6",
"3. c #88DDEB",
"4. c #9CD7E1",
"5. c #99D8EE",
"6. c #96D8EA",
"7. c #89C4F3",
"8. c #91C7F5",
"9. c #83D1F2",
"0. c #8DDCF9",
"q. c #9ED5F3",
"w. c #96DFF6",
"e. c #97D5FE",
"r. c #95DDFF",
"t. c #97D8F7",
"y. c #AACBE4",
"u. c #A4DEE4",
"i. c #AFD9E1",
"p. c #AED5E8",
"a. c #A4D1E7",
"s. c #B1D0E5",
"d. c #B2DFE7",
"f. c #B1D3EF",
"g. c #B6D9E8",
"h. c #A7DEF4",
"j. c #A0DAFF",
"k. c #ABDCFC",
"l. c #B4DDF4",
"z. c #83E3EC",
"x. c #8EE8ED",
"c. c #95E9EC",
"v. c #84EDF0",
"b. c #90E1F5",
"n. c #9BE3F5",
"m. c #94E0FF",
"M. c #9FE1FE",
"N. c #8DF4F6",
"B. c #83FDFE",
"V. c #8BFDFE",
"C. c #83F3F5",
"Z. c #94FEFE",
"A. c #9BFEFE",
"S. c #97F1F4",
"D. c #A8E6EA",
"F. c #B4E7E7",
"G. c #ABE7F2",
"H. c #A4E3FC",
"J. c #ADE5FD",
"K. c #B4E2F4",
"L. c #BDEBFA",
"P. c #B4E8F6",
"I. c #A5F5F7",
"U. c #BBF1F3",
"Y. c #B0F7F9",
"T. c #B5FDFD",
"R. c #B8FFFF",
"E. c #CBDADD",
"W. c #C5D7E2",
"Q. c #C4DDEA",
"!. c #CADBE3",
"~. c #D3DFE0",
"^. c #C6E3EC",
"/. c #CAE4ED",
"(. c #C3EBEE",
"). c #D5E8EC",
"_. c #C3FBEF",
"`. c #C6ECF7",
"'. c #CBEDF5",
"]. c #C7EFFA",
"[. c #CBEBFD",
"{. c #CAE7FA",
"}. c #D5ECF2",
"|. c #DCEDF4",
" X c #D2ECFD",
".X c #DEEFF8",
"XX c #C2F2FC",
"oX c #CAF3FB",
"OX c #CCF8F4",
"+X c #D4F2F2",
"@X c #DEF3F6",
"#X c #D4F3FE",
"$X c #DCF6FD",
"%X c #D3F9FB",
"&X c #DDFAFE",
"*X c #ECEFEF",
"=X c #E3EFF3",
"-X c #E6F5F6",
";X c #EEF5F6",
":X c #E2F6FB",
">X c #ECF6F9",
",X c #E4FAFB",
"<X c #EBFBFD",
"1X c #F0F6F7",
"2X c #F4FAFB",
"3X c #FCFEFE",
"4X c #F1F5F8",
"5X c None",
/* pixels */
"5X5X5X5X5X5X5X5X5X5X5X5X5X5X5X5X5X5X5X5X5X5X5X5X5X5X5X5X5X5X5X5X5X5X5X5X5X5X5X5X5X5X5X5X5X5X5X5X5X5X5X5X5X5X5X5X5X5X5X5X5X5X5X5X",
"5X5X5X5X5X5X5X5X5X5X5X5X5X5X5X5X5X5X5X5X5X5X5X5X5X5X5X5X5X5X5X5X5X5X5X5X5X5X5X5X5X5X5X5X5X5X5X5X5X5X5X5X5X5X5X5X5X5X5X5X5X5X5X5X",
"5X5X5X5X5X5X5X5X5X5X5X5X5X5X5X5X5X5X5X5X5X5X5X5X5X5X5X5X5X5X5X5X5X5X5X5X5X5X5X5X5X5X5X5X5X5X5X5X5X5X5X5X5X5X5X5X5X5X5X5X5X5X5X5X",
"5X5X5X5X5X5X5X5X5X5X5X5X5X5X5X5X5X5X5X5X5X5X5X5X5X5X5X5X5X5X5X5X5X5X5X5X5X5X5X5X5X5X5X5X5X5X5X5X5X5X5X5X5X5X5X5X5X5X5X5X5X5X5X5X",
"5X5X5X5X5X5X5X5X5X5X5X5X5X5X5X5X5X5X5X5X5X5X5X5X5X5X5X5X5X5X5X5X5X5X5X5X5X5X5X5X5X5X5X5X5X5X5X5X5X5X5X5X5X5X5X5X5X5X5X5X5X5X5X5X",
"5X5X5X5X5X5X5X5X5X5X5X5X5X5X5X5X5X5X5X5X5X5X5X5X5X5X5X5X5X5X5X5X5X5X5X5X5X5X5X5X5X5X5X5X5X5X5X5X5X5X5X5X5X5X5X5X5X5X5X5X5X5X5X5X",
"5X5X5X5X5X5X5X5X5X5X5X5X5X5X5X5X5X5X5X5X5X5X5X5X5X5X5X5X5X5X5X5X5X5X5X5X5X5X5X5X5X5X5X5X5X5X5X5X5X5X5X5X5X5X5X5X5X5X5X5X5X5X5X5X",
"5X5X5X5X5X5X5X5X5X5X5X5X5X5X5X5X5X5X5X5X5X5X5X5X5X5X5X5X5X5X5X5X5X5X5X5X5X5X5X5X5X5X5X5X5X5X5X5X5X5X5X5X5X5X5X5X5X5X5X5X5X5X5X5X",
"5X5X5X5X5X5X5X5X5X5X5X5X5X5X5X5X5X5X5X5X5X5X5X5XD 5X5X5X5X5X5X5X5X5X5X5X5X5X5X5X5X5X5X5X5X5X5X5X5X5X5X5X5X5X5X5X5X5X5X5X5X5X5X5X",
"5X5X5X5X5X5X5X5X5X5X5X5X5X5X5X5X5X5X5X5X5X5X5X5XD Y I 5X5X5X5X5X5X5X5X5X5X5X5X5X5XU U I 5X5X5X5X5X5X5X5X5X5X5X5X5X5X5X5X5X5X5X5X",
"5X5X5X5X5X5X5X5X5X5X5X5X5X5X5X5X5X5X5X5X5X5X5X5X5XI T 5X5X5X5X5X5X5X5X5X5X5X5X5X5XD U U I I 5X5X5X5X5X5X5X5X5X5X5X5X5X5X5X5X5X5X",
"5X5X5X5X5X5X5X5X5X5X5X5X5X5X5X5X5X5X5X5X5X5X5X5X5X5X5X5X5X5X5X5X5X5X5X5X5X5X5X5X5X5X5X5X5X5X5X5X5X5X5X5X5X5X5X5X5X5X5X5X5X5X5X5X",
"5X5X5X5X5X5X5X5X5X5X5X5X5X5X5X5X5X5X5X5X5X5X5X5X5X5X5X5X5X5X5X5X5X5X5X5X5X5X5X5X5X5X5X5X5X5X5X5X5X5X5X5X5X5X5X5X5X5X5X5X5X5X5X5X",
"5X5X5X5X5X5X5X5X5X5X5X5X5X5X5X5X5X5X5X5X5X5X5X5X5X5X5X5X5X5X5X5X5X5X5X5X5X5X5X5X5X5X5X5X5X5X5X5X5X5X5X5X5X5X5X5X5X5X5X5X5X5X5X5X",
"5X5X5X5X5X5X5X5X5X5X5X5X5X5X5X5X5X5X5X5X5X5X5X5X5X5X5X5X5X5X5X5X5X5X5X5X5X5X5X5X5X5X5X5X5X5X5X5X5X5X5X5X5X5X5X5X5X5X5X5X5X5X5X5X",
"5X5X5X5X5X5X5X5X5X5X5X5X5X5X5X5X5X5X5X5X5X5X5X5X5X5X5X5X5X5X5X5X5X5X5X5X5X5X5X5X5X5X5X5X5X5X5X5X5X5X5X5X5X5X5X5X5X5X5X5X5X5X5X5X",
"5X5X5X5X5X5X5X5X5X5X5X5X5X5XY T 5X5X5X5X5X5X5X5X5X5X5X5X5X5X5X5X5X5X5X5X5X5X5X5X5X5X5X5X5X5X5X5X5X5X5X5X5XD U 5X5X5X5X5X5X5X5X5X",
"5X5X5X5X5X5X5X5X5X5X5X5X5XI R.U 5X5X5X5X5X5X5X5X5X5X5X5X5X5X5X5X5X5X5X5X5X5X5X5X5X5X5X5XI 5X5X5X5X5X5X5X5X5XT U 5X5X5X5X5X5X5X5X",
"5X5X5X5X5X5X5X5X5X5X5X5X5XU A.I 5X5X5X5X5X5X5X5X5X5XU 5X5X5X5X5XQ -.5X5X5X5X5X5X5X5XI P 5X5X5X5X5X5X5X5X5X5XI B.5X5X5X5X5X5X5X5X",
"5X5X5X5X5X5X5X5X5X5X5X5X5X5X5X5XD 5X5X5X5X5X5X5X5XD B.U 5X5Xa.<X+X5X5X5X5X* 5X5XL Y K y 5X5X5X5X5X5X5X5X5X5X5XU U 5X5X5X5X5X5X5X",
"5X5X5X5X5X5X5X5X5X5X5X5X5X5X5X5X5X5X5X5X5X5X5X5X5X5XY V.S.%X<X,X5X5X5X5X5X5X5XP T R G 5X5X5X5X5X5X5X5X5X5X5X5X5X5X5X5X5X5X5X5X5X",
"5X5X5X5X5X5X5X5X5X5X5X5X5X5X5X5X5X5X5X5X5X5X5X5X5X5X5Xv.,X&X`.5X5X5X5X5X5X5XB.V.R N 5X5X5X5X5X5X5X5X5X5X5X5X5X5X5X5X5X5X5X5X5X5X",
"5X5X5X5X5X5X5X5X5X5X5X5X5X5X5X5X5X5X5X5X5X5X5X5X5X5X5X} V z.5X5X5X5X5X .2X1XN.w.p.5X5X5X5X5X5X5X5X5X5X5X5X5X5X5X5X5X5X5X5X5X5X5X",
"5X5X5X5X5X5X5X5X5X5X5X5X5X5X5X5X5X5X5X5X5X5X5X5X5X5X5X5X5X5X5X5X5Xo XX&X|.2.K. Xu 5X5Xq ) |.5X5X5X5X5X5X5X5X5X5X5X5X5X5X5X5X5X5X",
"5X5X5X5X5X5X5X5X5X5X5X5X5X5X5X5X5X5X5X5X5X5X5X5X5X5X{ @ 5X5X5Xx.n.m.j.q.'.>Xk.#X^.=X|.:X<Xw 5X5X5X5X5X5X5X5X5X5X5X5X5X5X5X5X5X5X",
"5X5X5X5X5X5X5X5X5X5X5X5X5X5XI 5X5X5X5X5X5X5X5X5X5Xu.5X5X5X5X: H.m.XX<X2X`.A oX3X3X[.e.k.>   _ =.E.5X5X5X5X5X5X5X5X5X5X5X5X5X5X5X",
"5X5X5X5X5X5X5X5X5X5X5X5X5X5XI U 5X5X5X5X5X5X5X5X5X5X5X5XO.v n.z L.3X@Xa b.0.n.XXoXj.l < ] <X3X).5X5X5X5X5X5X5X5X5X5X5X5X5X5X5X5X",
"5X5X5X5X5X5X5X5X5X5X5X5X5X5X5XY 5X5XW 5X5X5X5X5X5X5X5X5X+ 1.5X>X-XE ! 2 ; , n.,X,X].k.C 8.[ 5X5X5X+ 5X5X5X5X5X5X5X5X5X5X5X5X5X5X",
"5X5X5X5X5X5X5X5X5X5X5X5X5X5X5XD x.^.5X5X5X5X5X5X5X5X5X2 Q.*.2Xy.=X^.5 5X4 ,.<X_.B c.i 5X5X5X5X5X5X5X5X5X5X5X5X5X5X5X5X5X5X5X5X5X",
"5X5X5X5X5X5X5X5X5X5X5X5X5X5X5X).3X5X-.5X5X5X5X5X5X5X5X^.@X-X>X/._ ).$.o - z &X,Xk < 1 7.#X.X..5X5X5X5XL Y I 5X5X5X5X5X5X5X5X5X5X",
"5X5X5X5X5X5X5X5X5X5X5X5X5X5X-X2X+X1X+X|.-X$ 5X5X5X/ 2X>X2X3X2X3X3X@X| h.&X2X3X3X%X%Xe.k.#X$X{.5.H B.V.B.P 5X5X5X5X5X5X5X5X5X5X5X",
"5X5X5X5X5X5X5X5X5X5X5X=.|.2X3X3X3X3X2X2X3X3X3X3X3X3X3X3X3X3X3X3X3X3X3X3X3X3X3X3X3X<X:X].`.<.,.G.U.Y.N.N 5X5X5X5X5X5X5X5X5X5X5X5X",
"5X5X5X5X5X5X5X5X5X5X5X5X=.$.4.(.;X3X+X5X5X~ /.-X3X3X3X3X3X3X3X3X3X-X;.s.`.a.K.J.L.J.oX#Xk.t.c 3.z.n 5X5X5X5X5X5X5X5X5X5X5X5X5X5X",
"5X5X5X5X5X5X5X5X5X5X5X5X5X5XL S.D 5X$.$ 5X5X5X5X~ Q.3X2X>X}.@.D.+X-Xd.X.<.6 = k k.oX3Xq.f.}.[ 5X5X5X5X5X5X5X5X5X5X5X5X5X5X5X5X5X",
"5X5X5X5X5X5X5X5X5X5X5X5X5XU Y D 5X5X5X5X5X5X5X5X5X5XW.3X>X1.:X( f P.D.:.l U.U.OX9.K.$X2XQ.s 5X5X5X5X5X5X5X5X5X5X5X5X5X5X5XU T D ",
"5X5X5X5X5X5X5X5X5X5X5X5XT T I 5X5X5X5X5X5X5X# 5X5X5X5X!.Q.^ ] &X&X].5.c p 9.S w.j x 7.k 9 u 5X5X5X& 5X5X5X5X5X5X5X5X5X5XY V.Y 5X",
"5X5X5X5X5X5X5X5X5X5X5XY U 5X5X5X5X5X5X5X5X5X5X5X5X5X5X5X!.5X5Xr ,X3X3Xg.p . 1.$X,XoX$Xl.q 5X5X5X5X5X5X5X5X5X5X5X5X5X5XI T U 5X5X",
"5X5X5X5X5X5X5X5X5X5X5X5X5X5X5X5X5X5X5X5X5X5X5X5X5X5X5X5X5X;.5X5Xe F.u.&.#.. s 0 m l.{.' 5X5X5X5X5X5X5X5X5X5X5X5X5X5X5XD 5X5X5X5X",
"5X5X5X5X5X5X5X5X5X5X5X5X5X5X5X5X5X5X5X% 5X5X5X5X5X5X5X5X5X5X%.5X5X5Xc.O 5X+ t F N.H }.3X|.5X5X5X5X5X5X5X5X5X5X5X5X5X5X5X5X5X5X5X",
"5X5X5X5X5X5X5X5X5X5X5X5X5X5X5X5X5X5X5X5X$.5X5X5X5X! F.5X5X& 5 8 5X5X5X2 5XX d G A.T.I.c.1X{ 5X5X5X5X5X5X5X5X5X5X5X5X5X5X5X5X5X5X",
"5X5X5X5X5X5X5X5X5X5X5X5X5X5X5X5X5X5X5X5X$.5X5X5X5Xy G.,X4.5X5X5X7 h Z r.1.; d 5XJ V.R.A.R 5X5X5X5X5X5X5X5X5X5X5X5X5X5X5X5X5X5X5X",
"5X5X5X5X5X5X5X5X5X5X5X5X5X5X5X5X5X5X5X5X5X5X5X5X5XF ,X,X(.5X5X5X5Xl A H.] } 5X5X5X5XL T T U 5X5X5X5X5X5X5X5X5X5X5X5X5X5X5X5X5X5X",
"5X5X5X5X5X5X5X5X5X5XD 5X5X5X5X5X5X5X5X5X5X5X5X5XD B.C.N i.o.5X5X5X5Xw J.L.q 5X5X5X5X5X5XI U I 5X5XI 5X5X5X5X5X5X5X5X5X5X5X5X5X5X",
"5X5X5X5X5X5X5XD Y Y 5X5X5X5X5X5X5X5X5X5X5X5X5X5XY U 5X5X5X5X5X5X5X5X5X} 2X3X{ 5X5X5X5X5X5X5X5X5X5X5X5X5X5X5X5X5X5X5X5X5X5X5X5X5X",
"5X5X5X5X5X5XI U U 5X5X5X5X5X5X5X5X5X5X5X5X5X5XU I 5X5X5X5X5X5X# 5X5X5X5X5X).*X5X5X5X5X5X5X5X5X5X5X5X5X5X5X5X5X5X5X5X5X5X5X5X5X5X",
"5X5X5X5X5X5X5X5X5X5X5X5X5X5X5X5X5X5X5X5X5X5X5X5X5X5X5X5X5X5X5X5X5X5X5X5X5X5X5X5X5X5X5X5X5X5X5X5X5X5X5X5X5X5X5XD 5X5X5X5X5X5X5X5X",
"5X5X5X5X5X5X5X5X5X5X5X5X5X5X5X5X5X5X5X5X5X5X5X5X5X5X5X5X5X5X5X5X5X5X5X5X5X5X5X5X5X5X5X5X5X5X5X5X5X5X5X5X5X5X5XD 5X5X5X5X5X5X5X5X",
"5X5X5X5X5X5X5X5X5X5X5X5X5X5X5X5X5X5X5X5X5X5X5X5X5X5X5X5X5X5X5X5X5X5X5X5X5X5X5X5X5X5X5X5X5X5X5X5X5X5X5X5X5X5X5XD 5X5X5X5X5X5X5X5X",
"5X5X5X5X5X5X5X5X5X5X5X5X5X5X5X5X5X5X5X5X5X5X5X5X5X5X5X5X5X5X5X5X5X5X5X5XU I 5X5X5X5X5X5X5X5X5X5X5X5X5X5X5X5X5X5X5X5X5XI T T D 5X",
"5X5X5X5X5X5X5X5X5X5X5X5X5X5X5X5X5X5X5X5X5X5X5X5X5X5X5X5X5X5X5X5X5X5XD V.B.5X5X5X5X5X5X5X5X5X5X5X5X5X5X5X5X5X5X5X5X5XU Z.B.D 5X5X",
"5X5X5X5X5X5X5X5X5X5X5X5X5X5X5X5X5X5X5X5X5X5X5X5X5X5X5X5X5X5X5X5X5X5XB.V.5X5X5X5X5X5X5X5X5X5X5X5X5X5X5X5X5X5X5X5X5X5XD I 5X5X5X5X",
"5X5X5X5X5X5X5X5X5X5X5X5X5X5X5X5X5XD U 5X5X5X5X5X5X5X5X5X5X5X5X5X5XT T D 5X5X5X5X5X5X5X5X5X5X5X5X5X5X5X5X5X5X5X5X5X5X5X5X5X5X5X5X",
"5X5X5X5X5X5X5X5X5X5X5X5X5X5X5X5X5XY D 5X5X5X5X5X5X5X5X5X5X5X5X5X5XT D 5X5X5X5X5X5X5X5X5X5X5X5X5X5X5X5X5X5X5X5X5X5X5X5X5X5X5X5X5X",
"5X5X5X5X5X5X5X5X5X5X5X5X5X5X5X5XU U 5X5X5X5X5X5X5X5X5X5X5X5X5X5X5XU 5X5X5X5X5X5X5X5X5X5X5X5X5X5X5X5X5X5X5X5X5X5X5X5X5X5X5X5X5X5X",
"5X5X5X5X5X5X5X5X5X5X5X5X5X5X5X5XI 5X5X5X5X5X5X5X5X5X5X5X5X5X5X5X5X5X5X5X5X5X5X5X5X5X5X5X5X5X5X5X5X5X5X5X5X5X5X5X5X5X5X5X5X5X5X5X",
"5X5X5X5X5X5X5X5X5X5X5X5X5X5X5X5X5X5X5X5X5X5X5X5X5X5X5X5X5X5X5X5X5X5X5X5X5X5X5X5X5X5X5X5X5X5X5X5X5X5X5X5X5X5X5X5X5X5X5X5X5X5X5X5X",
"5X5X5X5X5X5X5X5X5X5X5X5X5X5X5X5X5X5X5X5X5X5X5X5X5X5X5X5X5X5X5X5X5X5X5X5X5X5X5X5X5X5X5X5X5X5X5X5X5X5X5X5X5X5X5X5X5X5X5X5X5X5X5X5X",
"5X5X5X5X5X5X5X5X5X5X5X5X5X5X5X5X5X5X5X5X5X5X5X5X5X5X5X5X5X5X5X5X5X5X5X5X5X5X5X5X5X5X5X5X5X5X5X5X5X5X5X5X5X5X5X5X5X5X5X5X5X5X5X5X",
"5X5X5X5X5X5X5X5X5X5X5X5X5X5X5X5X5X5X5X5X5X5X5X5X5X5X5X5X5X5X5X5X5X5X5X5X5X5X5X5X5X5X5X5X5X5X5X5X5X5X5X5X5X5X5X5X5X5X5X5X5X5X5X5X",
"5X5X5X5X5X5X5X5X5X5X5X5X5X5X5X5X5X5X5X5X5X5X5X5X5X5X5X5X5X5X5X5X5X5X5X5X5X5X5X5X5X5X5X5X5X5X5X5X5X5X5X5X5X5X5X5X5X5X5X5X5X5X5X5X",
"5X5X5X5X5X5X5X5X5X5X5X5X5X5X5X5X5X5X5X5X5X5X5X5X5X5X5X5X5X5X5X5X5X5X5X5X5X5X5X5X5X5X5X5X5X5X5X5X5X5X5X5X5X5X5X5X5X5X5X5X5X5X5X5X",
"5X5X5X5X5X5X5X5X5X5X5X5X5X5X5X5X5X5X5X5X5X5X5X5X5X5X5X5X5X5X5X5X5X5X5X5X5X5X5X5X5X5X5X5X5X5X5X5X5X5X5X5X5X5X5X5X5X5X5X5X5X5X5X5X",
"5X5X5X5X5X5X5X5X5X5X5X5X5X5X5X5X5X5X5X5X5X5X5X5X5X5X5X5X5X5X5X5X5X5X5X5X5X5X5X5X5X5X5X5X5X5X5X5X5X5X5X5X5X5X5X5X5X5X5X5X5X5X5X5X",
"5X5X5X5X5X5X5X5X5X5X5X5X5X5X5X5X5X5X5X5X5X5X5X5X5X5X5X5X5X5X5X5X5X5X5X5X5X5X5X5X5X5X5X5X5X5X5X5X5X5X5X5X5X5X5X5X5X5X5X5X5X5X5X5X"
};
