/* XPM */
static char *result[] = {
/* columns rows colors chars-per-pixel */
"64 64 92 1 ",
"  c black",
". c #010000",
"X c #040100",
"o c #060100",
"O c #070100",
"+ c #170600",
"@ c #160E02",
"# c #1C0801",
"$ c #1D0901",
"% c #230D01",
"& c #260F01",
"* c #261001",
"= c #271001",
"- c #281502",
"; c #2E2006",
": c #2E2007",
"> c #2F2007",
", c #783708",
"< c #74571D",
"1 c #8A400B",
"2 c #8C400C",
"3 c #8E410C",
"4 c #90430C",
"5 c #97470D",
"6 c #99480E",
"7 c #9B490E",
"8 c #9F4B0F",
"9 c #9F520E",
"0 c #A14D0F",
"q c #A44E0F",
"w c #AA5809",
"e c #AC5D0F",
"r c #AC5E10",
"t c #B05212",
"y c #B25412",
"u c #B55512",
"i c #B45612",
"p c #B55612",
"a c #B65713",
"s c #B75713",
"d c #B55F11",
"f c #BA5813",
"g c #B36D1E",
"h c #856424",
"j c #926E28",
"k c #937029",
"l c #967129",
"z c #C3660D",
"x c #D6710F",
"c c #D8720F",
"v c #C46B13",
"b c #C56B13",
"n c #C56C13",
"m c #C76814",
"M c #C56C14",
"N c #CA6A14",
"B c #CD6B14",
"V c #D77616",
"C c #DB7410",
"Z c #D87616",
"A c #D87716",
"S c #D87717",
"D c #DA7716",
"F c #DB7816",
"G c #DB7917",
"H c #DD7917",
"J c #DE7A17",
"K c #DE7B18",
"L c #CC7E23",
"P c #CA9A3A",
"I c #CA9A3B",
"U c #CA9B3B",
"Y c #CB9B3B",
"T c #E08B28",
"R c #E38C29",
"E c #E68E2A",
"W c #E6AE44",
"Q c #E6AF45",
"! c #E7AF45",
"~ c #E7B045",
"^ c #FCC04C",
"/ c #FDC14C",
"( c #FDC24C",
") c #FFC24C",
"_ c #FEC24D",
"` c #FFC34D",
"' c #FFC44D",
"] c #FFC54E",
"[ c #FFC74E",
"{ c #FFC64F",
"} c #FFC74F",
"| c None",
/* pixels */
"||||||||||||||||||||||||||||||||||||||||||||||||||||||||||||||||",
"||||||||||||||||||||||||||||||||||||||||||||||||||||||||||||||||",
"||||||||||||||||||||||||||||||||||||||||||||||||||||||||||||||||",
"||||||||||||||||||||||||||||||||||||||||||||||||||||||||||||||||",
"||||||||||||||||||||||||||||||||||||||||||||||||||||||||||||||||",
"||||||||||||||||||||||||||||||||||||||||||||||||||||||||||||||||",
"||||||||||||||||||||||||||||||||||||||||||||||||||||||||||||||||",
"||||||||||||||||||||||||||||||||||||||||||||||||||||||||||||||||",
"||||||||||||||||||||||||||||||||||||||||||||||||||||||||||||||||",
"||||||||||||||||||||||||||||||||||||||||||||||||||||||||||||||||",
"||||||||||||||||||||||||||||||||||||||||||||||||||||||||||||||||",
"||||||||||||||||||||||||||||||||||||||||||||||||||||||||||||||||",
"||||||||||||||||||||||||||||||||||||||||||||||||||||||||||||||||",
"||||||||||||||||||||||||||||||||||||||||||||||||||||||||||||||||",
"||||||||||||||||||||||||||||||||||||||||||||||||||||||||||||||||",
"||||||||||||||||||||||||||||.        |||||||||||||||||||||||||||",
"|||||||||||||||||||||||||||| @hljk<  |||||||||||||||||||||||||||",
"|||||||||||||||||||||||||||| ;Q{/`I  |||||||||||||||||||||||||||",
"|||||||||||||||||||||||||||| :~}('Y .|||||||||||||||||||||||||||",
"|||||||||||||||||||||||||||| :!}('U .|||||||||||||||||||||||||||",
"|||||||||||||||||||||||||||| :~}('Y .|||||||||||||||||||||||||||",
"|||||||||||||||||||||||||||| :~}('Y .|||||||||||||||||||||||||||",
"|||||||||||||||||||||||||||| :~}('Y .|||||||||||||||||||||||||||",
"|||||||||||||||||||||||||||| :~}('Y .|||||||||||||||||||||||||||",
"|||||||||||||||||||||||||||| :~}('Y .|||||||||||||||||||||||||||",
"|||||||||||||||||||||||||||| :~}('Y .|||||||||||||||||||||||||||",
"|||||||||||||||||||||||||||| :~}('Y .|||||||||||||||||||||||||||",
"|||||||||||||||||||||||||||| :![/'U .|||||||||||||||||||||||||||",
"|||||||||||||||||||||||||||| >~}_'Y .|||||||||||||||||||||||||||",
"|||||||||||||||||||||||||||| ;W]^)P  |||||||||||||||||||||||||||",
"|||||||||||||||||||||||||||| -LETRg  |||||||||||||||||||||||||||",
"|||||||||||||||||||||||||||| &zCxcw  |||||||||||||||||||||||||||",
"|||||||||||||||||||||||||||| =MKSGr  |||||||||||||||||||||||||||",
"|||||||||||||||||||||||||||| *bHZDe  |||||||||||||||||||||||||||",
"|||||||||||||||||||||||||||| *bHZDe  |||||||||||||||||||||||||||",
"|||||||||||||||||||||||||||| *bHZDe  |||||||||||||||||||||||||||",
"|||||||||||||||||||||||||||| *bHZDe  |||||||||||||||||||||||||||",
"|||||||||||||||||||||||||||| *bHZDe  |||||||||||||||||||||||||||",
"|||||||||||||||||||||||||||| *bHZDe  |||||||||||||||||||||||||||",
"|||||||||||||||||||||||||||| *bHZDe  |||||||||||||||||||||||||||",
"|||||||||||||||||||||||||||| *bHZDe  |||||||||||||||||||||||||||",
"|||||||||||||||||||||||||||| *vHVDe  |||||||||||||||||||||||||||",
"|||||||||||||||||||||||||||| *nJAFe  |||||||||||||||||||||||||||",
"|||||||||||||||||||||||||||| %dBmN9  |||||||||||||||||||||||||||",
"|||||||||||||||||||||||||||| #8uty2  |||||||||||||||||||||||||||",
"|||||||||||||||||||||||||||| $0ayi3  |||||||||||||||||||||||||||",
"|||||||||||||||||||||||||||| $qfps4  |||||||||||||||||||||||||||",
"|||||||||||||||||||||||||||| +1756,  |||||||||||||||||||||||||||",
"||||||||||||||||||||||||||||         |||||||||||||||||||||||||||",
"||||||||||||||||||||||||||||  oOOOX  |||||||||||||||||||||||||||",
"||||||||||||||||||||||||||||||||||||||||||||||||||||||||||||||||",
"||||||||||||||||||||||||||||||||||||||||||||||||||||||||||||||||",
"||||||||||||||||||||||||||||||||||||||||||||||||||||||||||||||||",
"||||||||||||||||||||||||||||||||||||||||||||||||||||||||||||||||",
"||||||||||||||||||||||||||||||||||||||||||||||||||||||||||||||||",
"||||||||||||||||||||||||||||||||||||||||||||||||||||||||||||||||",
"||||||||||||||||||||||||||||||||||||||||||||||||||||||||||||||||",
"||||||||||||||||||||||||||||||||||||||||||||||||||||||||||||||||",
"||||||||||||||||||||||||||||||||||||||||||||||||||||||||||||||||",
"||||||||||||||||||||||||||||||||||||||||||||||||||||||||||||||||",
"||||||||||||||||||||||||||||||||||||||||||||||||||||||||||||||||",
"||||||||||||||||||||||||||||||||||||||||||||||||||||||||||||||||",
"||||||||||||||||||||||||||||||||||||||||||||||||||||||||||||||||",
"||||||||||||||||||||||||||||||||||||||||||||||||||||||||||||||||"
};
