/* XPM */
static char *result[] = {
/* columns rows colors chars-per-pixel */
"64 64 159 2 ",
"   c black",
".  c #100A01",
"X  c #1C1203",
"o  c #241303",
"O  c #281001",
"+  c #251B04",
"@  c #351901",
"#  c #312407",
"$  c #3B290B",
"%  c #411A02",
"&  c #562404",
"*  c #572906",
"=  c #45330D",
"-  c #48350F",
";  c #773608",
":  c #743E10",
">  c #584115",
",  c #654B18",
"<  c #765621",
"1  c #7D5F25",
"2  c #7E6126",
"3  c #8A4806",
"4  c #98550F",
"5  c #96530F",
"6  c #8A4C14",
"7  c #9A5611",
"8  c #B74A07",
"9  c #B14D0B",
"0  c #B55D0A",
"q  c #B96514",
"w  c #B56513",
"e  c #846324",
"r  c #8F6B27",
"t  c #816229",
"y  c #9C772D",
"u  c #BE6C24",
"i  c #AA7E2F",
"p  c #A47B2E",
"a  c #BD7928",
"s  c #A77D30",
"d  c #CE5700",
"f  c #D05F00",
"g  c #D36500",
"h  c #D56A01",
"j  c #D66E0B",
"k  c #D96F09",
"l  c #DB6902",
"z  c #D77106",
"x  c #D87305",
"c  c #D6710D",
"v  c #DB720A",
"b  c #C16B15",
"n  c #D77210",
"m  c #D87513",
"M  c #DA7917",
"N  c #DB7D1A",
"B  c #E4750A",
"V  c #C77826",
"C  c #D7772B",
"Z  c #DB7F30",
"A  c #A8802F",
"S  c #AC8231",
"D  c #B28633",
"F  c #B78C35",
"G  c #DD801E",
"H  c #DD8113",
"J  c #E08615",
"K  c #DE8424",
"L  c #DF8728",
"P  c #CC8437",
"I  c #DB8131",
"U  c #C19338",
"Y  c #C7983A",
"T  c #CD9234",
"R  c #DF9F3A",
"E  c #E28A24",
"W  c #E08728",
"Q  c #E28B29",
"!  c #E79426",
"~  c #E89723",
"^  c #E5932D",
"/  c #EC9A28",
"(  c #E59432",
")  c #E99C35",
"_  c #E5993A",
"`  c #E99E3C",
"'  c #E39833",
"]  c #D6A33F",
"[  c #DAA53F",
"{  c #F6B02D",
"}  c #FFBE2F",
"|  c #ECA23C",
" . c #EFAA3F",
".. c #F1AA3D",
"X. c #FFBE31",
"o. c #FEBE3D",
"O. c #F3B13C",
"+. c #FFC110",
"@. c #FFC22D",
"#. c #FFC335",
"$. c #FFC937",
"%. c #FFC13C",
"&. c #E79B46",
"*. c #DBA640",
"=. c #DAA841",
"-. c #EFA440",
";. c #E3AC44",
":. c #F3AD41",
">. c #E9B246",
",. c #F5B244",
"<. c #FEBE44",
"1. c #F5B44C",
"2. c #F8B74A",
"3. c #F1B94A",
"4. c #FBBD4A",
"5. c #E7A25D",
"6. c #EFAE58",
"7. c #F2B050",
"8. c #F1B95F",
"9. c #F1B668",
"0. c #F4B763",
"q. c #E7AD7C",
"w. c #FFC344",
"e. c #FFC946",
"r. c #FFC34C",
"t. c #FFC84D",
"y. c #FFC452",
"u. c #FFCA51",
"i. c #FFC65D",
"p. c #FFC95A",
"a. c #FFD354",
"s. c #FFC964",
"d. c #FECA6B",
"f. c #FDC561",
"g. c #FECC74",
"h. c #FFCF7A",
"j. c #FFD076",
"k. c #FFD07C",
"l. c #E7B081",
"z. c #FFD383",
"x. c #FFD68C",
"c. c #FED691",
"v. c #FFD994",
"b. c #FCD799",
"n. c #FFDC9B",
"m. c #F7DEB4",
"M. c #FEE0A7",
"N. c #FFE3AB",
"B. c #FDE5B5",
"V. c #FFE8B6",
"C. c #FFEBBB",
"Z. c #FFEFC4",
"A. c #FFF0C7",
"S. c #FFF3CB",
"D. c #FFF6D1",
"F. c #FFF9D6",
"G. c #FFFADA",
"H. c #FFFFE3",
"J. c None",
/* pixels */
"J.J.J.J.J.J.J.J.J.J.J.J.J.J.J.J.J.J.J.J.J.J.J.J.J.J.J.J.J.J.J.J.J.J.J.J.J.J.J.J.J.J.J.J.J.J.J.J.J.J.J.J.J.J.J.J.J.J.J.J.J.J.J.J.",
"J.J.J.J.J.J.J.J.J.J.J.J.J.J.J.J.J.J.J.J.J.J.J.J.J.J.J.J.J.J.J.J.J.J.J.J.J.J.J.J.J.J.J.J.J.J.J.J.J.J.J.J.J.J.J.J.J.J.J.J.J.J.J.J.",
"J.J.J.J.J.J.J.J.J.J.J.J.J.J.J.J.J.J.J.J.J.J.J.J.J.J.J.J.J.J.J.J.J.J.J.J.J.J.J.J.J.J.J.J.J.J.J.J.J.J.J.J.J.J.J.J.J.J.J.J.J.J.J.J.",
"J.J.J.J.J.J.J.J.J.J.J.J.J.J.J.J.J.J.J.J.J.J.J.J.J.J.J.J.J.J.J.J.J.J.J.J.J.J.J.J.J.J.J.J.J.J.J.J.J.J.J.J.J.J.J.J.J.J.J.J.J.J.J.J.",
"J.J.J.J.J.J.J.J.J.J.J.J.J.J.J.J.J.J.J.J.J.J.J.J.J.J.J.J.J.J.J.J.J.J.J.J.J.J.J.J.J.J.J.J.J.J.J.J.J.J.J.J.J.J.J.J.J.J.J.J.J.J.J.J.",
"J.J.J.J.J.J.J.J.J.J.J.J.J.J.J.J.J.J.J.J.J.J.J.J.J.J.J.J.J.J.J.J.J.J.J.J.J.J.J.J.J.J.J.J.J.J.J.J.J.J.J.J.J.J.J.J.J.J.J.J.J.J.J.J.",
"J.J.J.J.J.J.J.J.J.J.J.J.J.J.J.J.J.J.J.J.J.J.J.J.J.J.J.J.J.J.J.J.J.J.J.J.J.J.J.J.J.J.J.J.J.J.J.J.J.J.J.J.J.J.J.J.J.J.J.J.J.J.J.J.",
"J.J.J.J.J.J.J.J.J.J.J.J.J.J.J.J.J.J.J.J.J.J.J.J.J.J.J.J.J.J.J.J.J.J.J.J.J.J.J.J.J.J.J.J.J.J.J.J.J.J.J.J.J.J.J.J.J.J.J.J.J.J.J.J.",
"J.J.J.J.J.J.J.J.J.J.J.J.J.J.J.J.J.J.J.J.J.J.J.J.J.J.J.J.J.J.J.J.J.J.J.J.J.J.J.J.J.J.J.J.J.J.J.J.J.J.J.J.J.J.J.J.J.J.J.J.J.J.J.J.",
"J.J.J.J.J.J.J.J.J.J.J.J.J.J.J.J.J.J.J.J.J.J.J.J.J.J.J.J.J.J.J.J.J.J.J.J.J.J.J.J.J.J.J.J.J.J.J.J.J.J.J.J.J.J.J.J.J.J.J.J.J.J.J.J.",
"J.J.J.J.J.J.J.J.J.J.J.J.J.J.J.J.J.J.J.J.J.J.J.J.J.J.J.J.J.J.J.J.J.J.J.J.J.J.J.J.J.J.J.J.J.J.J.J.J.J.J.J.J.J.J.J.J.J.J.J.J.J.J.J.",
"J.J.J.J.J.J.J.J.J.J.J.J.J.J.J.J.J.J.J.J.J.J.J.J.J.J.J.J.J.J.J.J.J.J.J.J.J.J.J.J.J.J.J.J.J.J.J.J.J.J.J.J.J.J.J.J.J.J.J.J.J.J.J.J.",
"J.J.J.J.J.J.J.J.J.J.J.J.J.J.J.J.J.J.J.J.J.J.J.J.J.J.J.J.J.J.J.J.J.J.J.J.J.J.J.J.J.J.J.J.J.J.J.J.J.J.J.J.J.J.J.J.J.J.J.J.J.J.J.J.",
"J.J.J.J.J.J.J.J.J.J.J.J.J.J.J.J.J.J.J.J.J.J.J.J.J.J.J.J.J.J.J.J.J.J.J.J.J.J.J.J.J.J.J.J.J.J.J.J.J.J.J.J.J.J.J.J.J.J.J.J.J.J.J.J.",
"J.J.J.J.J.J.J.J.J.J.J.J.J.J.J.J.J.J.J.J.J.J.J.J.J.J.X X X X X X X X X X X X X J.J.J.J.J.J.J.J.J.J.J.J.J.J.J.J.J.J.J.J.J.J.J.J.J.",
"J.J.J.J.J.J.J.J.J.J.J.J.J.J.J.J.J.J.J.J.J.J.J.J.J.J.                          J.J.J.J.J.J.J.J.J.J.J.J.J.J.J.J.J.J.J.J.J.J.J.J.J.",
"J.J.J.J.J.J.J.J.J.J.J.J.J.J.J.J.J.J.J.J.J.J.J.J.  e ;.;.;.;.;.;.;.;.;.;.;.=. .>   J.J.J.J.J.J.J.J.J.J.J.J.J.J.J.J.J.J.J.J.J.J.J.",
"J.J.J.J.J.J.J.J.J.J.J.J.J.J.J.J.J.J.J.J.J.J.J.J.  2 r.t.t.u.u.t.u.u.t.t.u.t.t.=   J.J.J.J.J.J.J.J.J.J.J.J.J.J.J.J.J.J.J.J.J.J.J.",
"J.J.J.J.J.J.J.J.J.J.J.J.J.J.J.J.J.J.J.J.J.J.J.r S U r.r.,. ... . ... . .:. . .D S e J.J.J.J.J.J.J.J.J.J.J.J.J.J.J.J.J.J.J.J.J.J.",
"J.J.J.J.J.J.J.J.J.J.J.J.J.J.J.J.J.J.J.J.J.J.  S u.r.<.w.K h c c j j c j c c j r.a.y     J.J.J.J.J.J.J.J.J.J.J.J.J.J.J.J.J.J.J.J.",
"J.J.J.J.J.J.J.J.J.J.J.J.J.J.J.J.J.J.J.J.J., - F t.y.d.d._ G K K K K K L K K K <.4.A > , J.J.J.J.J.J.J.J.J.J.J.J.J.J.J.J.J.J.J.J.",
"J.J.J.J.J.J.J.J.J.J.J.J.J.J.J.J.J.J.J.#   D a.y.o.h.S.S.k.%.y.r.r.w.r.w.w.r.r.C j ..u.=.  X J.J.J.J.J.J.J.J.J.J.J.J.J.J.J.J.J.J.",
"J.J.J.J.J.J.J.J.J.J.J.J.J.J.J.J.J.J.J.#   D t.y.%.h.S.S.k.%.y.r.i.s.s.s.s.y.r.K c :.t.=.  + J.J.J.J.J.J.J.J.J.J.J.J.J.J.J.J.J.J.",
"J.J.J.J.J.J.J.J.J.J.J.J.J.J.J.J.J.J.J.+   S u.r.%.h.S.S.h.%.y.X.N.D.S.S.S.i.w.K c :.u.=.  . J.J.J.J.J.J.J.J.J.J.J.J.J.J.J.J.J.J.",
"J.J.J.J.J.J.J.J.J.J.J.J.J.J.J.J.J.J.J.-   F u.y.r.h.Z.S.h.%.y.X.N.S.S.S.S.i.r.K M :.r.[   $ J.J.J.J.J.J.J.J.J.J.J.J.J.J.J.J.J.J.",
"J.J.J.J.J.J.J.J.J.J.J.J.J.J.J.J.J.    Y >.3.%.z.Z.N.h.h.i.u.| N 0.k.v.S.S.i.r.2.2.) L ' >.]   X J.J.J.J.J.J.J.J.J.J.J.J.J.J.J.J.",
"J.J.J.J.J.J.J.J.J.J.J.J.J.J.J.J.J.    =.u.y.} v.G.C.y.w.%.%.! d ..#.k.S.S.y.X.%.%.! g ^ a.>.  o J.J.J.J.J.J.J.J.J.J.J.J.J.J.J.J.",
"J.J.J.J.J.J.J.J.J.J.J.J.J.J.J.J.J.    *.r.y.X.c.F.V.y.4.x.n.6.~ 2.w.z.S.S.n.v.v.n.5.h ( u.>.  X J.J.J.J.J.J.J.J.J.J.J.J.J.J.J.J.",
"J.J.J.J.J.J.J.J.J.J.J.J.J.J.J.J.J.    =.u.y.X.c.F.V.p.w.Z.H.x.#.y.<.z.D.D.G.G.D.F.l.h ( u.>.  X J.J.J.J.J.J.J.J.J.J.J.J.J.J.J.J.",
"J.J.J.J.J.J.J.J.J.J.J.J.J.J.J.J.J.    T ,.2.#.c.F.B.1...b.B.g.<.y.w.g.N.N.N.N.S.S.q.h ' u.>.  X J.J.J.J.J.J.J.J.J.J.J.J.J.J.J.J.",
"J.J.J.J.J.J.J.J.J.J.J.J.J.J.J.J.J.    0 g _ #.c.G.m.C h { @.w.y.r.r.w.X.} } } Z.S.q.g ' u.>.  X J.J.J.J.J.J.J.J.J.J.J.J.J.J.J.J.",
"J.J.J.J.J.J.J.J.J.J.J.J.J.J.J.J.J.    q v -.#.v.F.m.I x 2.u.r.4.r.r.r.y.y.y.r.Z.D.q.h ' u.>.  X J.J.J.J.J.J.J.J.J.J.J.J.J.J.J.J.",
"J.J.J.J.J.J.J.J.J.J.J.J.J.J.J.J.J.    q v ` #.c.F.m.I x 2.r.r.r.r.y.r.r.r.r.r.S.D.q.h ' t.>.  X J.J.J.J.J.J.J.J.J.J.J.J.J.J.J.J.",
"J.J.J.J.J.J.J.J.J.J.J.J.J.J.J.J.J.    q v ` #.c.F.m.Z x ,.r.4.4.r.r.r.r.r.4.4.C.A.q.h ' t.>.  X J.J.J.J.J.J.J.J.J.J.J.J.J.J.J.J.",
"J.J.J.J.J.J.J.J.J.J.J.J.J.J.J.J.J.    q k ` #.c.G.m.I v Q Q Q K :.t.r.y.y.Q Q d.j.&.h ( u.>.  X J.J.J.J.J.J.J.J.J.J.J.J.J.J.J.J.",
"J.J.J.J.J.J.J.J.J.J.J.J.J.J.J.J.J.    q v ` #.c.F.m.C h j g n h ..y.w.X.} j g o.w.^ j ^ u.>.  X J.J.J.J.J.J.J.J.J.J.J.J.J.J.J.J.",
"J.J.J.J.J.J.J.J.J.J.J.J.J.J.J.J.J.    w z ` #.c.F.B.7.:.:.,.Q h ..r.d.N.N.1...r.r.) j ^ u.>.  X J.J.J.J.J.J.J.J.J.J.J.J.J.J.J.J.",
"J.J.J.J.J.J.J.J.J.J.J.J.J.J.J.J.J.    b B  .$.v.G.C.w.@.r.u.' g ,.e.x.G.G.s.r.y.u.^ f ^ a.3.  X J.J.J.J.J.J.J.J.J.J.J.J.J.J.J.J.",
"J.J.J.J.J.J.J.J.J.J.J.J.J.J.J.J.J.J.J.3 3 a / 9.v.b.M.N.d.r.' j ^ ) 6.x.x.y.w.| ) | ..[ S p J.J.J.J.J.J.J.J.J.J.J.J.J.J.J.J.J.J.",
"J.J.J.J.J.J.J.J.J.J.J.J.J.J.J.J.J.J.J.    3 l ! +.g.S.F.h.%.( g j g H X.X.r.r.M g ,.u.=.    J.J.J.J.J.J.J.J.J.J.J.J.J.J.J.J.J.J.",
"J.J.J.J.J.J.J.J.J.J.J.J.J.J.J.J.J.J.J.@   7 B &.r.h.A.S.k.w.:.' ) ' ..y.y.r.r.K m :.t.*.  # J.J.J.J.J.J.J.J.J.J.J.J.J.J.J.J.J.J.",
"J.J.J.J.J.J.J.J.J.J.J.J.J.J.J.J.J.J.J.O   7 v ) w.h.S.S.k.X.r.r.r.w.r.r.r.r.r.N c ..u.=.  o J.J.J.J.J.J.J.J.J.J.J.J.J.J.J.J.J.J.",
"J.J.J.J.J.J.J.J.J.J.J.J.J.J.J.J.J.J.J.o   5 v _ <.g.Z.S.z.r.i.i.i.i.i.i.i.i.i.L M :.r.*.  X J.J.J.J.J.J.J.J.J.J.J.J.J.J.J.J.J.J.",
"J.J.J.J.J.J.J.J.J.J.J.J.J.J.J.J.J.J.J.J.J.J.@ 6 q P f.i.B.A.Z.A.Z.Z.Z.Z.Z.Z.Z.i.<.S - - J.J.J.J.J.J.J.J.J.J.J.J.J.J.J.J.J.J.J.J.",
"J.J.J.J.J.J.J.J.J.J.J.J.J.J.J.J.J.J.J.J.J.J.  ; 8 V r.%.C.G.S.D.S.D.S.D.D.D.D.s.t.y     J.J.J.J.J.J.J.J.J.J.J.J.J.J.J.J.J.J.J.J.",
"J.J.J.J.J.J.J.J.J.J.J.J.J.J.J.J.J.J.J.J.J.J.J.J.% : u u 8.d.d.d.d.d.d.d.d.d.s.t , J.J.J.J.J.J.J.J.J.J.J.J.J.J.J.J.J.J.J.J.J.J.J.",
"J.J.J.J.J.J.J.J.J.J.J.J.J.J.J.J.J.J.J.J.J.J.J.J.  & 9 9 O.e.w.w.w.w.w.w.w.w.w.=   J.J.J.J.J.J.J.J.J.J.J.J.J.J.J.J.J.J.J.J.J.J.J.",
"J.J.J.J.J.J.J.J.J.J.J.J.J.J.J.J.J.J.J.J.J.J.J.J.J.J.* * < 2 2 2 1 1 2 1 2 1 2 J.J.J.J.J.J.J.J.J.J.J.J.J.J.J.J.J.J.J.J.J.J.J.J.J.",
"J.J.J.J.J.J.J.J.J.J.J.J.J.J.J.J.J.J.J.J.J.J.J.J.J.J.                          J.J.J.J.J.J.J.J.J.J.J.J.J.J.J.J.J.J.J.J.J.J.J.J.J.",
"J.J.J.J.J.J.J.J.J.J.J.J.J.J.J.J.J.J.J.J.J.J.J.J.J.J.J.J.J.J.J.J.J.J.J.J.J.J.J.J.J.J.J.J.J.J.J.J.J.J.J.J.J.J.J.J.J.J.J.J.J.J.J.J.",
"J.J.J.J.J.J.J.J.J.J.J.J.J.J.J.J.J.J.J.J.J.J.J.J.J.J.J.J.J.J.J.J.J.J.J.J.J.J.J.J.J.J.J.J.J.J.J.J.J.J.J.J.J.J.J.J.J.J.J.J.J.J.J.J.",
"J.J.J.J.J.J.J.J.J.J.J.J.J.J.J.J.J.J.J.J.J.J.J.J.J.J.J.J.J.J.J.J.J.J.J.J.J.J.J.J.J.J.J.J.J.J.J.J.J.J.J.J.J.J.J.J.J.J.J.J.J.J.J.J.",
"J.J.J.J.J.J.J.J.J.J.J.J.J.J.J.J.J.J.J.J.J.J.J.J.J.J.J.J.J.J.J.J.J.J.J.J.J.J.J.J.J.J.J.J.J.J.J.J.J.J.J.J.J.J.J.J.J.J.J.J.J.J.J.J.",
"J.J.J.J.J.J.J.J.J.J.J.J.J.J.J.J.J.J.J.J.J.J.J.J.J.J.J.J.J.J.J.J.J.J.J.J.J.J.J.J.J.J.J.J.J.J.J.J.J.J.J.J.J.J.J.J.J.J.J.J.J.J.J.J.",
"J.J.J.J.J.J.J.J.J.J.J.J.J.J.J.J.J.J.J.J.J.J.J.J.J.J.J.J.J.J.J.J.J.J.J.J.J.J.J.J.J.J.J.J.J.J.J.J.J.J.J.J.J.J.J.J.J.J.J.J.J.J.J.J.",
"J.J.J.J.J.J.J.J.J.J.J.J.J.J.J.J.J.J.J.J.J.J.J.J.J.J.J.J.J.J.J.J.J.J.J.J.J.J.J.J.J.J.J.J.J.J.J.J.J.J.J.J.J.J.J.J.J.J.J.J.J.J.J.J.",
"J.J.J.J.J.J.J.J.J.J.J.J.J.J.J.J.J.J.J.J.J.J.J.J.J.J.J.J.J.J.J.J.J.J.J.J.J.J.J.J.J.J.J.J.J.J.J.J.J.J.J.J.J.J.J.J.J.J.J.J.J.J.J.J.",
"J.J.J.J.J.J.J.J.J.J.J.J.J.J.J.J.J.J.J.J.J.J.J.J.J.J.J.J.J.J.J.J.J.J.J.J.J.J.J.J.J.J.J.J.J.J.J.J.J.J.J.J.J.J.J.J.J.J.J.J.J.J.J.J.",
"J.J.J.J.J.J.J.J.J.J.J.J.J.J.J.J.J.J.J.J.J.J.J.J.J.J.J.J.J.J.J.J.J.J.J.J.J.J.J.J.J.J.J.J.J.J.J.J.J.J.J.J.J.J.J.J.J.J.J.J.J.J.J.J.",
"J.J.J.J.J.J.J.J.J.J.J.J.J.J.J.J.J.J.J.J.J.J.J.J.J.J.J.J.J.J.J.J.J.J.J.J.J.J.J.J.J.J.J.J.J.J.J.J.J.J.J.J.J.J.J.J.J.J.J.J.J.J.J.J.",
"J.J.J.J.J.J.J.J.J.J.J.J.J.J.J.J.J.J.J.J.J.J.J.J.J.J.J.J.J.J.J.J.J.J.J.J.J.J.J.J.J.J.J.J.J.J.J.J.J.J.J.J.J.J.J.J.J.J.J.J.J.J.J.J.",
"J.J.J.J.J.J.J.J.J.J.J.J.J.J.J.J.J.J.J.J.J.J.J.J.J.J.J.J.J.J.J.J.J.J.J.J.J.J.J.J.J.J.J.J.J.J.J.J.J.J.J.J.J.J.J.J.J.J.J.J.J.J.J.J.",
"J.J.J.J.J.J.J.J.J.J.J.J.J.J.J.J.J.J.J.J.J.J.J.J.J.J.J.J.J.J.J.J.J.J.J.J.J.J.J.J.J.J.J.J.J.J.J.J.J.J.J.J.J.J.J.J.J.J.J.J.J.J.J.J.",
"J.J.J.J.J.J.J.J.J.J.J.J.J.J.J.J.J.J.J.J.J.J.J.J.J.J.J.J.J.J.J.J.J.J.J.J.J.J.J.J.J.J.J.J.J.J.J.J.J.J.J.J.J.J.J.J.J.J.J.J.J.J.J.J."
};
