/* XPM */
static char *result[] = {
/* columns rows colors chars-per-pixel */
"64 64 58 1 ",
"  c black",
". c #180000",
"X c gray11",
"o c #241400",
"O c #2C1800",
"+ c #342000",
"@ c #3C2404",
"# c #482C04",
"$ c #5C3000",
"% c #503008",
"& c #58380C",
"* c #603810",
"= c #684000",
"- c #785004",
"; c #644014",
": c #684014",
"> c #6C4C18",
", c #744C1C",
"< c #7C5820",
"1 c #000440",
"2 c #00044C",
"3 c #001474",
"4 c #002870",
"5 c #043478",
"6 c gray25",
"7 c #685450",
"8 c #646464",
"9 c #6C6C6C",
"0 c gray47",
"q c #886408",
"w c #98780C",
"e c #886428",
"r c #907030",
"t c #9C7C3C",
"y c #A88C10",
"u c #BCA414",
"i c #D0C01C",
"p c #F4E020",
"a c #A88448",
"s c #B49054",
"d c #CCA874",
"f c #0428A0",
"g c #0C4084",
"h c #185090",
"j c #246098",
"k c #0C48CC",
"l c #4480B0",
"z c #848484",
"x c #909090",
"c c gray61",
"v c gray66",
"b c #B4B4B4",
"n c #E8C498",
"m c #D4C4B4",
"M c #C0C0C0",
"N c gray80",
"B c #D8D8D8",
"V c None",
/* pixels */
"VVVVVVVVVVVVVVVVVVVVVVVVVVVVVVVVVVVVVVVVVVVVVVVVVVVVVVVVVVVVVVVV",
"VVVVVVVVVVVVVVVVVVVVVVVVVVVVVVVVVVVVVVVVVVVVVVVVVVVVVVVVVVVVVVVV",
"VVVVVVVVVVVVVVVVVVVVVVVVVVVVVVVVVVVVVVVVVVVVVVVVVVVVVVVVVVVVVVVV",
"VVVVVVVVVVVVVVVVVVVVVVVVVVVVVVVVVVVVVVVVVVVVVVVVVVVVVVVVVVVVVVVV",
"VVVVVVVVVVVVVVVVVVVVVVVVVVVVVVVVVVVVVVVVVVVVVVVVVVVVVVVVVVVVVVVV",
"VVVVVVVVVVVVVVVVVVVVVVVVVVVVVVVVVVVVVVVVVVVVVVVVVVVVVVVVVVVVVVVV",
"VVVVVVVVVVVVVVVVVVVVVVVVVVVVVVVVVVVVVVVVVVVVVVVVVVVVVVVVVVVVVVVV",
"VVVVVVVVVVVVVVV5VVVVVVVVVVVVVVVVVVVVVVVVVVVVVVVVVVVVVVVVVVVVVVVV",
"VVVVVVVVVVVV5h5hVVVVVVVVVVVVVVVVVVVVVVVVVVVVVVVVVVVVVVVVVVVVVVVV",
"VVVVVVVVVVV5hllhVVVVVVVVVVVVVVVVVVVVVVVVVVVVVVVVVVVVVVVVVVVVVVVV",
"VVVVVVVVVV5hlblh5VVVVVVVVVVVVVVVVVVVVVVVVVVVVVVVVVVVVVVVVVVVVVVV",
"VVV5VVVVV5hlN5hllhVVVVVV979VVVVVVVVVVVVVVVVVVVVVVVVVVVVVVVVVVVVV",
"VVVVh5VVVVV5NVVVVVVVVVV9xx2VVVVVVVVVVVVVVVVVVVVVVVVVVVVVVVVVVVVV",
"VVVV5hhll5VhbVVVVV5VVVVxB932VVVVVVVVVVVVVVVVVVVVVVVVVVVVVVVVVVVV",
"VVVVVhlNlNblhVVVV*,ee,*c9Bff322222VVVVVVVVVVVVVVVVVVVVVVVVVVVVVV",
"VVVVV5NbhVVVVVVVVrtssdaxm9kkf33322222VVVVVVVVVVVVVVVVVVVVVVVVVVV",
"VVVVVhNh5VVVV55VVV,tda>9ccfff333233332VVVVVVVVVVVVVVVVVVVVVVVVVV",
"VVVVVhN5VVVjljjljVVV,,V97c322233f.o+o33VVVVVVVVVVVVVVVVVVVVVVVVV",
"VVVVVlljj5VVjbNbljVVVVVV9x79VVVfO+@@@O2VVVVVVVVVVVVVVVVVVVVVVVVV",
"VVVVV5blllj5bl5hjN5VVVVVVV9VVVVO*,:&&#3VVVVVVVVVVVVVVVVVVVVVVVVV",
"VVVVVVNbNllvbg511jlVVVVVVVVVVVV7rda<,&32VVVVVVVVVVVVVVVVVVVVVVVV",
"VVVVVVjlbNvbNj1  1lVVVVVVVVVVVV:tas<:*22VVVVVVVVVVVVVVVVVVVVVVVV",
"VVVVVVV5jlNvbg51155VVVVVVVVVVV*r$,$>r#322VVVVVVVVVVVVVVVVVVVVVVV",
"VVVVVVVVbjblvlg4lqVhVVVVVVVVVV##oer:#o322VVVVVVVVVVVVVVVVVVVVVVV",
"VVVVVVVjVV5j5V+uiqVVVVVVVVVVVO$O=o$223f3VVVVVVVVVVVVVVVVVVVVVVVV",
"VVVVVV5VVVV5VV+ypwVVVVVVVVVV@--#O-o33ff32VVVVVVVVVVVVVVVVVVVVVVV",
"VVVVVVVVVVVVVVVwpwVVVVVVVVVV@>==#O233ff32VVVVVVVVVVVVVVVVVVVVVVV",
"VVVVVVVVVVVVVVV=iwVVVVVVVVVV#=$@O233f3332VVVVVVVVVVVVVVVVVVVVVVV",
"VVVVVVVVVVVVVVVo--VVVVVVVVVV@#@O23fffff32VVVVVVVVVVVVVVVVVVVVVVV",
"VVVVVVVVVVVVVVV@%OVVVVVVVVVVVV233ffkkff32VVVVVVVVVVVVVVVVVVVVVVV",
"VVVVVVVVVVVVVVV@%@VVVVzbzVVVV23ffkkkff3222VVVVVVVVVVVVVVVVVVVVVV",
"VVVVVVVVVVVVVVV@%;**VVc6M222333fkkkf322322VVVVVVVVVVVVVVVVVVVVVV",
"VVVVVVVVVVVVVVV@ednte@bb9ffffff3fkf3222322VVVVVVVVVVVVVVVVVVVVVV",
"VVVVVVVVVVVVVVVesnnaa0MBbkfkkkkff322232332VVVVVVVVVVVVVVVVVVVVVV",
"VVVVVVVVVVVVVVV*tds*oB9BMkfffkkf32222333322VVVVVVVVVVVVVVVVVVVVV",
"VVVVVVVVVVVVVVVVo@#@X9BBbffff33223222333322VVVVVVVVVVVVVVVVVVVVV",
"VVVVVVVVVVVVVVVV.$VV0m9Mz3222222333223f3322VVVVVVVVVVVVVVVVVVVVV",
"VVVVVVVVVVVVVVVV@$VVz6BcVVVVVV2333f223f3322VVVVVVVVVVVVVVVVVVVVV",
"VVVVVVVVVVVVVVVV@$VVzMbzVVVVVV2333f323f3322VVVVVVVVVVVVVVVVVVVVV",
"VVVVVVVVVVVVVVVV@$VV8czVVVVVV 233ff323ff322VVVVVVVVVVVVVVVVVVVVV",
"VVVVVVVVVVVVVVVV@#VVV8VVVVVVV 233fff2fff332VVVVVVVVVVVVVVVVVVVVV",
"VVVVVVVVVVVVVVVV@%VVVVVVVVVV 233ffff3fff3322VVVVVVVVVVVVVVVVVVVV",
"VVVVVVVVVVVVVVVV+%VVVVVVVVVV 233ffff3fff3332VVVVVVVVVVVVVVVVVVVV",
"VVVVVVVVVVVVVVVVO&VVVVVVVVVV 233ffff3ffff332VVVVVVVVVVVVVVVVVVVV",
"VVVVVVVVVVVVVVVVo&OVVVVVVVV  333fffffffff3332VVVVVVVVVVVVVVVVVVV",
"VVVVVVVVVVVVVVVVV&+VVVVVVV   333ffffffffff332VVVVVVVVVVVVVVVVVVV",
"VVVVVVVVVVVVVVVVV#@VVVVVVV   233ffffffffff332VVVVVVVVVVVVVVVVVVV",
"VVVVVVVVVVVVVVVVVOOVVVVVVV    -3ffffffffff32-VVVVVVVVVVVVVVVVVVV",
"VVVVVVVVVVVVVVVVVVVVVVVVVVV    qffffffffff3-VVVVVVVVVVVVVVVVVVVV",
"VVVVVVVVVVVVVVVVVVVVVVVVVVVVV   wyqffffffqqVVVVVVVVVVVVVVVVVVVVV",
"VVVVVVVVVVVVVVVVVVVVVVVVVVVVVV    yuiuywq VVVVVVVVVVVVVVVVVVVVVV",
"VVVVVVVVVVVVVVVVVVVVVVVVVVVVVVVVV        VVVVVVVVVVVVVVVVVVVVVVV",
"VVVVVVVVVVVVVVVVVVVVVVVVVVVVVVVVVVVVVVVVVVVVVVVVVVVVVVVVVVVVVVVV",
"VVVVVVVVVVVVVVVVVVVVVVVVVVVVVVVVVVVVVVVVVVVVVVVVVVVVVVVVVVVVVVVV",
"VVVVVVVVVVVVVVVVVVVVVVVVVVVVVVVVVVVVVVVVVVVVVVVVVVVVVVVVVVVVVVVV",
"VVVVVVVVVVVVVVVVVVVVVVVVVVVVVVVVVVVVVVVVVVVVVVVVVVVVVVVVVVVVVVVV",
"VVVVVVVVVVVVVVVVVVVVVVVVVVVVVVVVVVVVVVVVVVVVVVVVVVVVVVVVVVVVVVVV",
"VVVVVVVVVVVVVVVVVVVVVVVVVVVVVVVVVVVVVVVVVVVVVVVVVVVVVVVVVVVVVVVV",
"VVVVVVVVVVVVVVVVVVVVVVVVVVVVVVVVVVVVVVVVVVVVVVVVVVVVVVVVVVVVVVVV",
"VVVVVVVVVVVVVVVVVVVVVVVVVVVVVVVVVVVVVVVVVVVVVVVVVVVVVVVVVVVVVVVV",
"VVVVVVVVVVVVVVVVVVVVVVVVVVVVVVVVVVVVVVVVVVVVVVVVVVVVVVVVVVVVVVVV",
"VVVVVVVVVVVVVVVVVVVVVVVVVVVVVVVVVVVVVVVVVVVVVVVVVVVVVVVVVVVVVVVV",
"VVVVVVVVVVVVVVVVVVVVVVVVVVVVVVVVVVVVVVVVVVVVVVVVVVVVVVVVVVVVVVVV",
"VVVVVVVVVVVVVVVVVVVVVVVVVVVVVVVVVVVVVVVVVVVVVVVVVVVVVVVVVVVVVVVV"
};
