/* XPM */
static char *result[] = {
/* columns rows colors chars-per-pixel */
"64 64 61 1 ",
"  c black",
". c #180000",
"X c gray8",
"o c #241400",
"O c #2C1800",
"+ c #342000",
"@ c #3C2404",
"# c #282828",
"$ c #482C04",
"% c #503008",
"& c #603810",
"* c #443434",
"= c #684000",
"- c #785004",
"; c #644014",
": c #684014",
"> c #6C4C18",
", c #744C1C",
"< c #78581C",
"1 c #000440",
"2 c #00044C",
"3 c #00185C",
"4 c #001474",
"5 c #043478",
"6 c #304858",
"7 c gray25",
"8 c #4C4C4C",
"9 c #544440",
"0 c #585858",
"q c #646464",
"w c #6C6C6C",
"e c gray47",
"r c #886408",
"t c #98780C",
"y c #806024",
"u c #8C6C28",
"i c #947830",
"p c #A88C10",
"a c #BCA414",
"s c #A08438",
"d c #D0C01C",
"f c #F4E020",
"g c #A88448",
"h c #B49054",
"j c #0428A0",
"k c #0C4084",
"l c #185090",
"z c #246098",
"x c #3470A4",
"c c #0C48CC",
"v c #4480B0",
"b c #848484",
"n c #909090",
"m c gray61",
"M c gray66",
"N c #B4B4B4",
"B c #D4C4B4",
"V c #C0C0C0",
"C c gray80",
"Z c #D8D8D8",
"A c None",
/* pixels */
"AAAAAAAAAAAAAAAAAAAAAAAAAAAAAAAAAAAAAAAAAAAAAAAAAAAAAAAAAAAAAAAA",
"AAAAAAAAAAAAAAAAAAAAAAAAAAAAAAAAAAAAAAAAAAAAAAAAAAAAAAAAAAAAAAAA",
"AAAAAAAAAAAAAAAAAAAAAAAAAAAAAAAAAAAAAAAAAAAAAAAAAAAAAAAAAAAAAAAA",
"AAAAAAAAAAAAAAAAAAAAAAAAAAAAAAAAAAAAAAAAAAAAAAAAAAAAAAAAAAAAAAAA",
"AAAAAAAAAAAAAAAAAAAAAAAAAAAAAAAAAAAAAAAAAAAAAAAAAAAAAAAAAAAAAAAA",
"AAAAAAAAAAAAAAAAAAAAAAAAAAAAAAAAAAAAAAAAAAAAAAAAAAAAAAAAAAAAAAAA",
"AAAAAAAAAAAAAAAAAAAAAAAAAAAAAAAAAAAAAAAAAAAAvAAAAAAAAAAAAAAAAAAA",
"AAAAAAAAAAAAAAAAAAAAAAAAAAAAAAAAAAAAAAAAAAAAxCAAAvAAAAAAAAAAAAAA",
"AAAAAAAAAAAAAAAAAAAAAAAAAAAAAAAAAAAAAAAAlxlvNZNvvAAAAAAAAAAAAAAA",
"AAAAAAAAAAAAAAAAAAAAAAAAAAAAAAAAAAAAAAAAAlvNvvlNvAAAAAAAAAAAAAAA",
"AAAAAAAAAAAAAAAAAAAAAAAAAAAAAAAAAAAAAAAAlZNv3135ZlAAAAAAAAAAAAAA",
"AAAAAAAAAAAAAAAAAAAAAAAAAAAAAAAAAAAAAAlxxNv3   3NCAAAAAAAAAAAAAA",
"AAAAAAAAAAAAAAAAAAzAzAAAAAAAAAAAAAAAAAAAvvC3  35vNCAAAAAAAAAAAAA",
"AAAAAAAAAAAAAAAAAAAzvzAvAAAAAAAAAAAAAAAAzAN5115vNvAAAAAAAAAAAAAA",
"AAAAAAAAAAAAAAAAkzvvlvkkAAAAAAAAAAAAAAAAAAvNvNCZNvAAAAAAAAAAAAAA",
"AAAAAAAAAAAAAzlAAAlAAkAvzAzAAAAAAAAAAAAAAAAMNCvxAAAAAAAAAAAAAAAA",
"AAAAAAAAAAAAAAzvlA>AAAAkAzAAAAAAAAAAAAAAAAA$dd=AAAAAAAAAAAAAAAAA",
"AAAAAAAAAAAAAAAkAAu,A>AAAAAAAAAAAAAAAAAAAAA@da@AAAAAAAAAAAAAAAAA",
"AAAAAAAAAAAAAAkzvzkg*uAAAAAAAAAAAAAAAAAAAAAtftoAAAAAAAAAAAAAAAAA",
"AAAAAAAAAAAAAAzAzA&hhyAAAAAAAAAAAAAAAAAAAAA-ftAAAAAAAAAAAAAAAAAA",
"AAAAAAAAAAAAAAAAA8wwne8AAAAAAO+oAAAAAAAAAAA=dtAAAAAAAAAAAAAAAAAA",
"AAAAAAAAAAAAAAAAwmVnw8nAAAAA+%%$oAAAAAAAAAA$drAAAAAAAAAAAAAAAAAA",
"AAAAAAAAAAAAAAAwmVw4442AAAAo$&;%@oAAAAAAAAAoa-AAAAAAAAAAAAAAAAAA",
"AAAAAAAAAAAAAAAnww44422AAAAO%,,;%oAAAAAAAAAA$@AAAAAAAAAAAAAAAAAA",
"AAAAAAAAAAAAAAAnV844222AAAAO%:,;%.AAAAAAAAAA$@AAAAAAAAAAAAAAAAAA",
"AAAAAAAAAAAAAAAem242244442AX%;;;$$AAAAAAAAAA$@AAAAAAAAAAAAAAAAAA",
"AAAAAAAAAAAAAAA8n222444jj224<y,y*22AAAAAAAAA$$AAAAAAAAAAAAAAAAAA",
"AAAAAAAAAAAAAAAA80A244jcc4444isu4442222AAAAA$$AAAAAAAAAAAAAAAAAA",
"AAAAAAAAAAAAAAAAAAAA24jccjjjjjjjj44jj442A242*@2AAAAAAAAAAAAAAAAA",
"AAAAAAAAAAAAAAAAAAAAA22jjjcccccccj4jcjj244jj69*AAAAAAAAAAAAAAAAA",
"AAAAAAAAAAAAAAAAAAAAAA224jccccccccjcccj42224qNmwAAAAAAAAAAAAAAAA",
"AAAAAAAAAAAAAAAAAAAAAAA244jjjjjjccjjjjjj424444wNwAAAAAAAAAAAAAAA",
"AAAAAAAAAAAAAAAAAAAAAAA2444jjjjjjjj44jjjj44jjj4bmwAAAAAAAAAAAAAA",
"AAAAAAAAAAAAAAAAAAAAAAA24j4444jjjj4444jjjj4jjjjjZnAAAAAAAAAAAAAA",
"AAAAAAAAAAAAAAAAAAAAAAA24jj444444444424jjj4jjjj47ZAAAAAAAAAAAAAA",
"AAAAAAAAAAAAAAAAAAAAAA244jjj4444j4444222jj444jj4B0AAAAAAAAAAAAAA",
"AAAAAAAAAAAAAAAAAAAAAA244jjjj444jj4442AA2422444wmwAAAAAAAAAAAAAA",
"AAAAAAAAAAAAAAAAAAAAAA244jjjj44jjj4442AAAAAA#64mqAAAAAAAAAAAAAAA",
"AAAAAAAAAAAAAAAAAAAAA2244jjjj44jjjj4442AAAAA$@AAAAAAAAAAAAAAAAAA",
"AAAAAAAAAAAAAAAAAAAA22244jjjj44jjjj4442AAAAA$@AAAAAAAAAAAAAAAAAA",
"AAAAAAAAAAAAAAAAAAA2442444jj444jjjj44422AAAA$@AAAAAAAAAAAAAAAAAA",
"AAAAAAAAAAAAAAAAAA24224444jj444jjjj44422AAAA$@AAAAAAAAAAAAAAAAAA",
"AAAAAAAAAAAAAAAAAA242244444jj4jjjjj44422AAAA$@AAAAAAAAAAAAAAAAAA",
"AAAAAAAAAAAAAAAAAA22244jjj4jjjjjjjj444422AAA$@AAAAAAAAAAAAAAAAAA",
"AAAAAAAAAAAAAAAAAAA2244jjj44jjjjjjj444422AAA$@AAAAAAAAAAAAAAAAAA",
"AAAAAAAAAAAAAAAAAAA2444jjjj4jjjjjj44444422AA$+AAAAAAAAAAAAAAAAAA",
"AAAAAAAAAAAAAAAAAAA2444jjjjjjjjjjj444j4422AA$@AAAAAAAAAAAAAAAAAA",
"AAAAAAAAAAAAAAAAAA244jjjjjjjjjjjjj44jjjj42AA@+AAAAAAAAAAAAAAAAAA",
"AAAAAAAAAAAAAAAAAA=44jjjjjj4jjjjjj44jjjjj4AAAAAAAAAAAAAAAAAAAAAA",
"AAAAAAAAAAAAAAAAAAA=-4444444444jjj44jjjjjj2AAAAAAAAAAAAAAAAAAAAA",
"AAAAAAAAAAAAAAAAAAAA rrttpdap44jjj44jjjjjj=AAAAAAAAAAAAAAAAAAAAA",
"AAAAAAAAAAAAAAAAAAAAA        pt4jj44jjjr-=AAAAAAAAAAAAAAAAAAAAAA",
"AAAAAAAAAAAAAAAAAAAAAAA        tpadaptrAAAAAAAAAAAAAAAAAAAAAAAAA",
"AAAAAAAAAAAAAAAAAAAAAAAAA           AAAAAAAAAAAAAAAAAAAAAAAAAAAA",
"AAAAAAAAAAAAAAAAAAAAAAAAAAAAAAAAAAAAAAAAAAAAAAAAAAAAAAAAAAAAAAAA",
"AAAAAAAAAAAAAAAAAAAAAAAAAAAAAAAAAAAAAAAAAAAAAAAAAAAAAAAAAAAAAAAA",
"AAAAAAAAAAAAAAAAAAAAAAAAAAAAAAAAAAAAAAAAAAAAAAAAAAAAAAAAAAAAAAAA",
"AAAAAAAAAAAAAAAAAAAAAAAAAAAAAAAAAAAAAAAAAAAAAAAAAAAAAAAAAAAAAAAA",
"AAAAAAAAAAAAAAAAAAAAAAAAAAAAAAAAAAAAAAAAAAAAAAAAAAAAAAAAAAAAAAAA",
"AAAAAAAAAAAAAAAAAAAAAAAAAAAAAAAAAAAAAAAAAAAAAAAAAAAAAAAAAAAAAAAA",
"AAAAAAAAAAAAAAAAAAAAAAAAAAAAAAAAAAAAAAAAAAAAAAAAAAAAAAAAAAAAAAAA",
"AAAAAAAAAAAAAAAAAAAAAAAAAAAAAAAAAAAAAAAAAAAAAAAAAAAAAAAAAAAAAAAA",
"AAAAAAAAAAAAAAAAAAAAAAAAAAAAAAAAAAAAAAAAAAAAAAAAAAAAAAAAAAAAAAAA",
"AAAAAAAAAAAAAAAAAAAAAAAAAAAAAAAAAAAAAAAAAAAAAAAAAAAAAAAAAAAAAAAA"
};
