/* XPM */
static char *result[] = {
/* columns rows colors chars-per-pixel */
"64 64 58 1 ",
"  c black",
". c #180000",
"X c gray11",
"o c #241400",
"O c #2C1800",
"+ c #342000",
"@ c #3C2404",
"# c #482C04",
"$ c #5C3000",
"% c #503008",
"& c #58380C",
"* c #603810",
"= c #684000",
"- c #785004",
"; c #644014",
": c #684014",
"> c #6C4C18",
", c #744C1C",
"< c #7C5820",
"1 c #000440",
"2 c #00044C",
"3 c #001474",
"4 c #002870",
"5 c #043478",
"6 c gray25",
"7 c #685450",
"8 c #646464",
"9 c #6C6C6C",
"0 c gray47",
"q c #886408",
"w c #98780C",
"e c #886428",
"r c #907030",
"t c #9C7C3C",
"y c #A88C10",
"u c #BCA414",
"i c #D0C01C",
"p c #F4E020",
"a c #A88448",
"s c #B49054",
"d c #CCA874",
"f c #0428A0",
"g c #0C4084",
"h c #185090",
"j c #246098",
"k c #0C48CC",
"l c #4480B0",
"z c #848484",
"x c #909090",
"c c gray61",
"v c gray66",
"b c #B4B4B4",
"n c #E8C498",
"m c #D4C4B4",
"M c #C0C0C0",
"N c gray80",
"B c #D8D8D8",
"V c None",
/* pixels */
"VVVVVVVVVVVVVVVVVVVVVVVVVVVVVVVVVVVVVVVVVVVVVVVVVVVVVVVVVVVVVVVV",
"VVVVVVVVVVVVVVVVVVVVVVVVVVVVVVVVVVVVVVVVVVVVVVVVVVVVVVVVVVVVVVVV",
"VVVVVVVVVVVVVVVVVVVVVVVVVVVVVVVVVVVVVVVVVVVVVVVVVVVVVVVVVVVVVVVV",
"VVVVVVVVVVVVVVVVVVVVVVVVVVVVVVVVVVVVVVVVVVVVVVVVVVVVVVVVVVVVVVVV",
"VVVVVVVVVVVVVVVVVVVVVVVVVVVVVVVVVVVVVVVVVVVVVVVVVVVVVVVVVVVVVVVV",
"VVVVVVVVVVVVVVVVVVVVVVVVVVVVVVVVVVVVVVVVVVVVVVVVVVVVVVVVVVVVVVVV",
"VVVVVVVVVVVVVVVVVVVVVVVVVVVVVVVVVVVVVVVVVVVVVVVVVVVVVVVVVVVVVVVV",
"VVVVVVVVVVVVVVVVVVVVVVVVVVVVVVVVVVVVVVVVVVVVVVVV5VVVVVVVVVVVVVVV",
"VVVVVVVVVVVVVVVVVVVVVVVVVVVVVVVVVVVVVVVVVVVVVVVVh5h5VVVVVVVVVVVV",
"VVVVVVVVVVVVVVVVVVVVVVVVVVVVVVVVVVVVVVVVVVVVVVVVhllh5VVVVVVVVVVV",
"VVVVVVVVVVVVVVVVVVVVVVVVVVVVVVVVVVVVVVVVVVVVVVV5hlblh5VVVVVVVVVV",
"VVVVVVVVVVVVVVVVVVVVVVVVVVVVVVVVVVVVV979VVVVVVhllh5Nlh5VVVVV5VVV",
"VVVVVVVVVVVVVVVVVVVVVVVVVVVVVVVVVVVVV2xx9VVVVVVVVVVN5VVVVV5hVVVV",
"VVVVVVVVVVVVVVVVVVVVVVVVVVVVVVVVVVVV239BxVVVV5VVVVVbhV5llhh5VVVV",
"VVVVVVVVVVVVVVVVVVVVVVVVVVVVVV222223ffB9c*,ee,*VVVVhlbNlNlhVVVVV",
"VVVVVVVVVVVVVVVVVVVVVVVVVVV22222333fkk9mxadsstrVVVVVVVVhbN5VVVVV",
"VVVVVVVVVVVVVVVVVVVVVVVVVV233332333fffcc9>adt,VVV55VVVV5hNhVVVVV",
"VVVVVVVVVVVVVVVVVVVVVVVVV33o+o.f332223c79V,,VVVjljjljVVV5NhVVVVV",
"VVVVVVVVVVVVVVVVVVVVVVVVV2O@@@+OfVVV97x9VVVVVVjlbNbjVV5jjllVVVVV",
"VVVVVVVVVVVVVVVVVVVVVVVVV3#&&:,*OVVVV9VVVVVVV5Njh5lb5jlllb5VVVVV",
"VVVVVVVVVVVVVVVVVVVVVVVV23&,<adr7VVVVVVVVVVVVlj115gbvllNbNVVVVVV",
"VVVVVVVVVVVVVVVVVVVVVVVV22*:<sat:VVVVVVVVVVVVl1  1jNbvNbljVVVVVV",
"VVVVVVVVVVVVVVVVVVVVVVV223#r>$,$r*VVVVVVVVVVV55115gbvNlj5VVVVVVV",
"VVVVVVVVVVVVVVVVVVVVVVV223o#:reo##VVVVVVVVVVhVql4glvlbjbVVVVVVVV",
"VVVVVVVVVVVVVVVVVVVVVVVV3f322$o=O$OVVVVVVVVVVVqiu+V5j5VVjVVVVVVV",
"VVVVVVVVVVVVVVVVVVVVVVV23ff33o-O#--@VVVVVVVVVVwpy+VV5VVVV5VVVVVV",
"VVVVVVVVVVVVVVVVVVVVVVV23ff332O#==>@VVVVVVVVVVwpwVVVVVVVVVVVVVVV",
"VVVVVVVVVVVVVVVVVVVVVVV2333f332O@$=#VVVVVVVVVVwi=VVVVVVVVVVVVVVV",
"VVVVVVVVVVVVVVVVVVVVVVV23fffff32O@#@VVVVVVVVVV--oVVVVVVVVVVVVVVV",
"VVVVVVVVVVVVVVVVVVVVVVV23ffkkff332VVVVVVVVVVVVO%@VVVVVVVVVVVVVVV",
"VVVVVVVVVVVVVVVVVVVVVV2223ffkkkff32VVVVzbzVVVV@%@VVVVVVVVVVVVVVV",
"VVVVVVVVVVVVVVVVVVVVVV223223fkkkf333222M6cVV**;%@VVVVVVVVVVVVVVV",
"VVVVVVVVVVVVVVVVVVVVVV2232223fkf3ffffff9bb@etnde@VVVVVVVVVVVVVVV",
"VVVVVVVVVVVVVVVVVVVVVV233232223ffkkkkfkbBM0aannseVVVVVVVVVVVVVVV",
"VVVVVVVVVVVVVVVVVVVVV22333322223fkkfffkMB9Bo*sdt*VVVVVVVVVVVVVVV",
"VVVVVVVVVVVVVVVVVVVVV22333322232233ffffbBB9X@#@oVVVVVVVVVVVVVVVV",
"VVVVVVVVVVVVVVVVVVVVV2233f3223332222223zM9m0VV$.VVVVVVVVVVVVVVVV",
"VVVVVVVVVVVVVVVVVVVVV2233f322f3332VVVVVVcB6zVV$@VVVVVVVVVVVVVVVV",
"VVVVVVVVVVVVVVVVVVVVV2233f323f3332VVVVVVzbMzVV$@VVVVVVVVVVVVVVVV",
"VVVVVVVVVVVVVVVVVVVVV223ff323ff332 VVVVVVzc8VV$@VVVVVVVVVVVVVVVV",
"VVVVVVVVVVVVVVVVVVVVV233fff2fff332 VVVVVVV8VVV#@VVVVVVVVVVVVVVVV",
"VVVVVVVVVVVVVVVVVVVV2233fff3ffff332 VVVVVVVVVV%@VVVVVVVVVVVVVVVV",
"VVVVVVVVVVVVVVVVVVVV2333fff3ffff332 VVVVVVVVVV%+VVVVVVVVVVVVVVVV",
"VVVVVVVVVVVVVVVVVVVV233ffff3ffff332 VVVVVVVVVV&OVVVVVVVVVVVVVVVV",
"VVVVVVVVVVVVVVVVVVV2333fffffffff333  VVVVVVVVO&oVVVVVVVVVVVVVVVV",
"VVVVVVVVVVVVVVVVVVV233ffffffffff333   VVVVVVV+&VVVVVVVVVVVVVVVVV",
"VVVVVVVVVVVVVVVVVVV233ffffffffff332   VVVVVVV@#VVVVVVVVVVVVVVVVV",
"VVVVVVVVVVVVVVVVVVV-23ffffffffff3-    VVVVVVVOOVVVVVVVVVVVVVVVVV",
"VVVVVVVVVVVVVVVVVVVV-3ffffffffffq    VVVVVVVVVVVVVVVVVVVVVVVVVVV",
"VVVVVVVVVVVVVVVVVVVVVqqffffffqyw   VVVVVVVVVVVVVVVVVVVVVVVVVVVVV",
"VVVVVVVVVVVVVVVVVVVVVV qwyuiuy    VVVVVVVVVVVVVVVVVVVVVVVVVVVVVV",
"VVVVVVVVVVVVVVVVVVVVVVV        VVVVVVVVVVVVVVVVVVVVVVVVVVVVVVVVV",
"VVVVVVVVVVVVVVVVVVVVVVVVVVVVVVVVVVVVVVVVVVVVVVVVVVVVVVVVVVVVVVVV",
"VVVVVVVVVVVVVVVVVVVVVVVVVVVVVVVVVVVVVVVVVVVVVVVVVVVVVVVVVVVVVVVV",
"VVVVVVVVVVVVVVVVVVVVVVVVVVVVVVVVVVVVVVVVVVVVVVVVVVVVVVVVVVVVVVVV",
"VVVVVVVVVVVVVVVVVVVVVVVVVVVVVVVVVVVVVVVVVVVVVVVVVVVVVVVVVVVVVVVV",
"VVVVVVVVVVVVVVVVVVVVVVVVVVVVVVVVVVVVVVVVVVVVVVVVVVVVVVVVVVVVVVVV",
"VVVVVVVVVVVVVVVVVVVVVVVVVVVVVVVVVVVVVVVVVVVVVVVVVVVVVVVVVVVVVVVV",
"VVVVVVVVVVVVVVVVVVVVVVVVVVVVVVVVVVVVVVVVVVVVVVVVVVVVVVVVVVVVVVVV",
"VVVVVVVVVVVVVVVVVVVVVVVVVVVVVVVVVVVVVVVVVVVVVVVVVVVVVVVVVVVVVVVV",
"VVVVVVVVVVVVVVVVVVVVVVVVVVVVVVVVVVVVVVVVVVVVVVVVVVVVVVVVVVVVVVVV",
"VVVVVVVVVVVVVVVVVVVVVVVVVVVVVVVVVVVVVVVVVVVVVVVVVVVVVVVVVVVVVVVV",
"VVVVVVVVVVVVVVVVVVVVVVVVVVVVVVVVVVVVVVVVVVVVVVVVVVVVVVVVVVVVVVVV",
"VVVVVVVVVVVVVVVVVVVVVVVVVVVVVVVVVVVVVVVVVVVVVVVVVVVVVVVVVVVVVVVV"
};
