/* XPM */
static char *result[] = {
/* columns rows colors chars-per-pixel */
"64 64 221 2 ",
"   c #687EAF",
".  c #5E83B9",
"X  c #4995B6",
"o  c #678EB5",
"O  c #6085BB",
"+  c #6788BA",
"@  c #5AA0CA",
"#  c #5FA9D3",
"$  c #6BAFC9",
"%  c #78ACC6",
"&  c #6FA2D0",
"*  c #63B2D2",
"=  c #65B1D7",
"-  c #6FB3D4",
";  c #7DB2D1",
":  c #7EC8DC",
">  c #7CD3E8",
",  c #57F7FF",
"<  c #5CF5FF",
"1  c #58F9FF",
"2  c #5AF9FF",
"3  c #5BF9FF",
"4  c #5AFBFF",
"5  c #5DFAFF",
"6  c #5DFBFF",
"7  c #5EFBFF",
"8  c #5FFBFF",
"9  c #5BFDFF",
"0  c #5CFCFF",
"q  c #5CFDFF",
"w  c #5DFDFF",
"e  c #5FFCFF",
"r  c #79E0EC",
"t  c #70E9EB",
"y  c #7FECEF",
"u  c #66F5F6",
"i  c #60F7FF",
"p  c #6CF7F8",
"a  c #63F8FC",
"s  c #63FAFC",
"d  c #60FAFF",
"f  c #67F9FD",
"g  c #66FAFD",
"h  c #65FAFF",
"j  c #67FAFF",
"k  c #60FCFF",
"l  c #62FDFF",
"z  c #60FFFF",
"x  c #64FDFF",
"c  c #65FDFF",
"v  c #66FCFF",
"b  c #67FCFF",
"n  c #68FAFF",
"m  c #6AFCFD",
"M  c #68FCFF",
"N  c #69FCFF",
"B  c #68FDFF",
"V  c #6BFEFF",
"C  c #6DFCFD",
"Z  c #6CFCFF",
"A  c #6DFEFF",
"S  c #6EFEFF",
"D  c #6FFEFF",
"F  c #74F8F9",
"G  c #72FEFF",
"H  c #74FEFF",
"J  c #77FEFF",
"K  c #79FEFE",
"L  c #78FEFF",
"P  c #7FFEFF",
"I  c #859FBC",
"U  c #8FA3BB",
"Y  c #8CA6BF",
"T  c #85B2CF",
"R  c #9FB1CD",
"E  c #9FBCCC",
"W  c #97ADD0",
"Q  c #82B8D9",
"!  c #87CBD9",
"~  c #9BC7D5",
"^  c #B6C1C2",
"/  c #A3C3D3",
"(  c #A4C3D3",
")  c #A5CBD6",
"_  c #80C7E0",
"`  c #85C1E5",
"'  c #8CC3E4",
"]  c #8EC9E0",
"[  c #98C7E0",
"{  c #90CAE4",
"}  c #92C6E8",
"|  c #94CEEB",
" . c #8DD5EA",
".. c #97D2EE",
"X. c #95D8EB",
"o. c #81DBF2",
"O. c #8ED9F7",
"+. c #8FD8F9",
"@. c #97DFF4",
"#. c #B0C8E1",
"$. c #A6D2E5",
"%. c #ABD5E1",
"&. c #A8D5EA",
"*. c #BBD5E4",
"=. c #BFDBE3",
"-. c #BEDBE7",
";. c #B3D8EA",
":. c #ACDFF8",
">. c #9EE7FE",
",. c #84F7F9",
"<. c #80FCFF",
"1. c #80FEFF",
"2. c #81FEFF",
"3. c #81FFFF",
"4. c #85FDFE",
"5. c #84FEFF",
"6. c #85FEFF",
"7. c #86FEFF",
"8. c #87FEFF",
"9. c #86FFFF",
"0. c #88FDFD",
"q. c #88FDFF",
"w. c #95FFFF",
"e. c #97FFFF",
"r. c #9DFEFF",
"t. c #B6E4ED",
"y. c #B5EEF7",
"u. c #B9EBF5",
"i. c #B0EDFF",
"p. c #AAF5F8",
"a. c #AFF2FF",
"s. c #A5FFFF",
"d. c #A9FEFF",
"f. c #ABFFFF",
"g. c #B3F6FE",
"h. c #BBF1FF",
"j. c #B1FFFF",
"k. c #B3FEFF",
"l. c #C3D8DA",
"z. c #C6D7E6",
"x. c #C8DEE5",
"c. c #C6E0E7",
"v. c #C0E2EB",
"b. c #C3E7EB",
"n. c #C9E0EB",
"m. c #CCE7EA",
"M. c #C6E8EC",
"N. c #CCECED",
"B. c #DEE7E7",
"V. c #D4E4EE",
"C. c #D7EDEE",
"Z. c #DDE8EE",
"A. c #CFE8F2",
"S. c #D7EAF1",
"D. c #D7EEF2",
"F. c #C6F5FF",
"G. c #CFF9FF",
"H. c #D6F0F7",
"J. c #D2F1F9",
"K. c #D7F4F9",
"L. c #DBF6FB",
"P. c #DBF9FA",
"I. c #DAFBFD",
"U. c #DFFFFF",
"Y. c #E7ECEC",
"T. c #E4EFEF",
"R. c #E2EEF2",
"E. c #E2F0F0",
"W. c #E0F1F2",
"Q. c #E9F7F7",
"!. c #E3F4F9",
"~. c #EDF4F8",
"^. c #EEF6F8",
"/. c #EFF7F8",
"(. c #E2F8FA",
"). c #E6F8FB",
"_. c #E3FFFF",
"`. c #E5FFFF",
"'. c #EAFBFB",
"]. c #E9FBFD",
"[. c #E9FDFF",
"{. c #E8FFFF",
"}. c #E9FFFF",
"|. c #ECFDFD",
" X c #ECFFFF",
".X c #F3F8F9",
"XX c #F1F9FB",
"oX c #F3FAFA",
"OX c #F6F9F9",
"+X c #F5FBFB",
"@X c #F6FCFB",
"#X c #F7FCFB",
"$X c #F1FCFD",
"%X c #F1FFFF",
"&X c #F3FFFF",
"*X c #F4FCFD",
"=X c #F4FCFE",
"-X c #F4FFFF",
";X c #F6FFFF",
":X c #F8FAFA",
">X c #F8FCFB",
",X c #FBFBFC",
"<X c #F8FCFC",
"1X c #FAFDFC",
"2X c #F8FEFE",
"3X c #F9FEFE",
"4X c #F8FEFF",
"5X c #FAFEFE",
"6X c #FBFEFE",
"7X c #FAFFFF",
"8X c #FBFFFF",
"9X c gray99",
"0X c #FDFDFD",
"qX c #FCFEFE",
"wX c #FDFEFF",
"eX c #FCFFFF",
"rX c #FDFFFF",
"tX c #FEFEFE",
"yX c #FEFFFF",
"uX c white",
"iX c None",
/* pixels */
"iXiXiXiXiXiXiXiXiXiXiXiXiXiXiXiXiXiXiXiXiXiXiXiXiXiXiXiXiXiXiXiXiXiXiXiXiXiXiXiXiXiXiXiXiXiXiXiXiXiXiXiXiXiXiXiXiXiXiXiXiXiXiXiX",
"iXiXiXiXiXiXiXiXiXiXiXiXiXiXiXiXiXiXiXiXiXiXiXiXiXiXiXiXiXiXiXiXiXiXiXiXiXiXiXiXiXiXiXiXiXiXiXiXiXiXiXiXiXiXiXiXiXiXiXiXiXiXiXiX",
"iXiXiXiXiXiXiXiXiXiXiXiXiXiXiXiXiXiXiXiXiXiXiXiXiXiXiXiXiXiXiXiXiXiXiXiXiXiXiXiXiXiXiXiXiXiXiXiXiXiXiXiXiXiXiXiXiXiXiXiXiXiXiXiX",
"iXiXiXiXiXiXiXiXiXiXiXiXiXiXiXiXiXiXiXiXiXiXiXiXiXiXiXiXiXiXiXiXiXiXiXiXiXiXiXiXiXiXiXiXiXiXiXiXiXiXiXiXiXiXiXiXiXiXiXiXiXiXiXiX",
"iXiXiXiXiXiXiXiXiXiXiXiXb iXiXiXiXiXiXiXiXiXiXiXiXiXiXiXiXiXiXiXiXiXiXiXiXiXiXiXiXiXiXiXiXiXiXiXiXiXiXiXiXiXiXiXiXiXiXiXiXiXiXiX",
"iXiXiXiXiXiXiXiXiXiXiX0 Z iXiXiXiXiXiXiXiXiXiXiXiXiXiXiXiXiXiXiXiXiXiXiXiXiXiXiXiXiXiXiXiXiXiXiXiXiXiXiXiXiXiXiXiXiXiXiXiXiXiXiX",
"iXiXiXiXiXiXiXiXiXiXiX< 1 iXiXiXiXiXiXiXiXiXiXiXiXiXiXiXiXiXiXiXiXiXiXiXiXiXiXiXiXiXiXiXiXiXiXiXiXiXiXiXiXiXiXiXiXiXiXiXiXiXiXiX",
"iXiXiXiXiXiXiXiXiXiXiXiXiXiXiXiXiXiXiXiXiXiXiXiXiXiXiXiXiXiXiXiXiXiXiXiXiXiXiXiXiXiXiXiXiXiXiXiXiXiXiXiXiXiXiXiXiXiXiXiXiXiXiXiX",
"iXiXiXiXiXiXiXiXiXiXiXiXiXiXiXiXiXiXiXiXiXiXiXiXiXiXiXiXiXiXiXiXiXiXiXiXiXiXiXiXiXiXiXiXiXiXiXiXiXiXiXiXiXiXiXiXiXiXiXiXiXiXiXiX",
"iXiXiXiXiXiXiXiXiXiXiXiXiXiXiXiXiXiXiXiXiXiXiXiXiXiXiXiXiXiXiXiXiXiXiXiXiXiXiXiXiXiXiXiXiXiXiXiXiXiXiXiXiXiXiXiXiXiXiXiXiXiXiXiX",
"iXiXiXiXiXiXA 3.b iXiXiXiXiXiXiXiXiXiXiXiXiXiXiXiXiXiXiXiXiXiXiXiXiXiXiXiXiXiXiXiXiXiXiXiXiXiXiXiXiXiXiXiXiXiXiXiXiXiXiXiXiXiXiX",
"iXiXiXiXiXG 6.V iXiXiXiXiXiXiXiXiXiXiXiXiXiX6 iXiXiXiXiXiXiXiXiXiXiXiXiXiXiXiXiXiXiXiXiXiXiXiXiXiXiXiXiXiXiXiXiXiXiXiXiXiXiXiXiX",
"iXiXiXiXiXiXiXiXiXiXiXiXiXiXiXiXiXiXiXiXiX7 iXiXiXiXiXiXiXiXiXiXiXiXiXiXiXiXiXiXiXiXiXiXiXiXiXiXiXiXiXiXiXiXiXiXiXiXiXiXiXiXiXiX",
"iXiXiXiXiXiXiXiXiXiXiXiXiXiXiXiXiXiXiXiXiX2.6 iXiXiXiXiXiXiXiXiXiXiXiXiXiXiXiXiXiXiXiXiXiXiXiXiXiXiXiXiXiXiXiXiXiXiXiXiXiXiXiXiX",
"iXiXiXiXiXiXiXiXiXiXiXiXiXiXiXiXiXiXiXiX5 s.M iXiXiXiXiXiXiXiXiXiXiXiXiXiXiXiXiXiXiXiXiXiXiXiXiXiXiXiXiXiXiXiXiXiXiXiXiXiXiXiXiX",
"iXiXiXiXiXiXiXiXiXiXiXiXiXiXiXiXiXiXiXiXiXe.b iXiXiXiXiXiXiXiXiXiXiXiXiXiXiXiXiXiXiXiXiXiXiXiXiXiXiXiXiXiXiXiXiXiXiXiXiXiXiXiXiX",
"iXiXiXiXiXiXiXiXiXiXiXiXiXiXiXiXiXiXiXiXiXi , iXiXiXiXiXiXiXiXiXiXiXiXiXiXiXiXiXiXiXiXiXiXiXiXiXiXiXiXiXiXiXiXiXiXiXiXiXiXiXiXiX",
"iXiXiXiXiXiXiXiXiXiXiXiXiXiXiXiXiXiXiXiXiXiXiXiXiXiXiXiXiXiXiXiXiXiXiXiXiXiXiXiXiXiXiXiXiXiXiXiXiXiXiXiXiXiXiXiXiXiXiXiXiXiXiXiX",
"iXiXiXiXiXiXiXiXiXiXiXiXd iXiXiXiXiXiXiXiXiXiXiXiXiXiXiXiXiXiXiXiXiXiXiXiXiXiXiXiXiXiXiXiXiXiXiXiXiXiXiXiXiXiXiXiXiXiXiXiXiXiXiX",
"iXiXiXiXiXiXiXiXiXiXl 5.k iXiXiXiXiXiXiXiXiXiXiXiXiXiXiXiXiXiXiXiXiXiXiXiXiXiXiXiXiXiXiXiXiXiXiXiXiXiXiXiXiXiXiXiXiXiXiXiXiXiXiX",
"iXiXiXiXiXiXiXiXiXB d.H iXiXiXiXiXiXiXiXiXiXiXiXiXiXiXiXiXiXiXiXiXiXiXiXiXiXiXiXiXiXiXiXiXiXiXiXiXiXiXiXiXiXiXiXiXiXiXiXiXiXiXiX",
"iXiXiXiXiXiXiXiXg j.<.iXiXiXiXiXiXiXiXiXiXiXiXiXiXiXiXiXiXiXiXiXiXiXiXiXiXiXiXiXiXiXiXiXiXiXiXiXiXiXiXiXiXiXiXiXiXiXiXiXiXiXiXiX",
"w 1.Z iXiXiXiXiXK G iXiXiXiXiXiXiXiXiXiXiXiXiXiXiXiXiXiXiXiXiXiXiXiXiXiXiXiXiXiXiXiXiXiXiXiXiXiXiXiXiXiXiXiXiXiXiXiXiXiXiXiXiXiX",
"9.1.iXiXiXiXiXiXiXiXiXiXiXY.iXiXiXiXiXiXiXiXiXs iXiXiXiXiXiXiXiXiXiXiXiXiXiXiXiXiXiXiXiXiXiXiXiXiXiXiXiXiXiXiXiXiXiXiXiXiXiXiXiX",
"L iXiXiXiXiXiXiXiXiXiXiXiX/.uXOXiXiXiXiXa 8.f.k.4.iXiXiXiXiXiXiXiXiXiXiXiXiXiXiXiXiXiXiXiXiXiXiXiXiXiXiXiXiXiXiXiXiXiXiXiXiXiXiX",
"iXiXiXiXiXiXiXiXiXiXiXiXiXiX*XrX|.iXiX: t H P ,.u iXiXiXiXiXiXiXiXiXiXiXiXiXiXiXiXiXiXiXiXiXiXiXiXiXiXiXiXiXiXiXiXiXiXiXiXiXiXiX",
"iXiXiXiXiXiX3 iXiXiXiXiXiXiXiX| i.>.] * ! iXiXiXiXiXiXiXiXiXiXiXiXiXiXiXiXiXiXiXiXiXiXiXiXiXiXiXiXiXiXiXiXiXiXiXiXiXiXiXiXiXiXiX",
"iXiXiXiXiXf iXiXiXiX) .XT.=.[ ' :.F.a.O.= iXiXiX% iXiXiXiXiXiXiXiXiXiXiXiXiXiXiXiXiXiXiXiXiXiXiXiXiXiXiXiXiXiXiXiXiXiXiXiXiXiXiX",
"iXiXiXiXp iXiXiXiXiX$ - XXuXuX&X{.{.%X`.@.iX~ iXiXiXiXiXiXiXiXiXiXiXiXiXiXiXiXiXiXiXiXiXiXiXiXiXiXiXiXiXiXiXiXiXiXiXiXiXiXiXiXiX",
"iXiXiXiXiXiXiXiXiXO { u...*XuXuXuXuXuX8X .o iXC.iXiXiXiXiXiXiXiXiXiXiXiXiXiXiXiXiXiXiXiXiXiXiXiXiXiXiXiXiXiXiXiXiXiXiXiXiXiXiXiX",
"z.iXiXiXiXiXiX+ Q & _ X.y.2XuXuXuXuXuXrXP.%.R.m.Q.I iXiXiXiXiXiXiXiXiXiXiXiXiXiXiXiXiXiXiXiXiXiXiXiXiXiXiXiXiXiXiXiXiXiXiXiXiXiX",
"#.9X9X~.D.M.b.t.(.H.K.$X3XyXuXuXuXuXuXuX5X<X>X>X>X1XoXc.Y iXiXiXiXiXiXiXiXiXiXiXiXiXiXiXiXiXiXiXiXiXiXiXiXiXiXiXiXiXiXiXiXiXiXiX",
"S.0XtX0X^.V.n.-.v.).rXuXuXeXuXuXuXuXuXuX5X#X@X#X>X>X>X@XW./ iXiXiXiXiXiXiXiXiXiXiXiXiXiXiXiXiXiXiXiXiXiXiXiXiXiXiXiXiXiXiXiXiXiX",
"R *.W iXiXiXiXiX  ; $.!.yX7XuXuXuXuXuXuXg.` +Xx.E N.( iXiXiXiXiXiXiXiXiXiXiXiXiXiXiXiXiXiXiXiXiXiXiXiXiXiXiXiXiXiXiXiXiXiXiXiXiX",
"iXiXiXiXiXiXiXiXiXiX. } L.6XuXuXuXyXrXeX;X4XU iXiXiXiXiXiXiXiXiXiXiXiXiXiXiXiXiXiXiXiXiXiXiXiXiXiXiXiXiXiXiXiXiXiXiXiXiXiXiXiXiX",
"iXiXiXiXiXiXiXiXiXiXZ.uXuXuXyXyX_.U.rXeX[.+.iXiXiXiXiXiXiXiXiXiXiXiXiXiXiXiXiXiXiXiXiXiXiXiXiXiXiXiXiXiXiXiXiXiXiXiXiXiXiXiXiXiX",
"iXiXiXiXiXiXiXiX^ ,XyXwX=X`. X8XyXI.-XG.h.T iXiXiXiXiXiXiXiXiXiXiXiXiXiXiXiXiXiXiXiXiXiXiXiXiXiXiXiXiXiXiXiXiXiXiXiXiXiXiXiXiXiX",
"S iXiXiXiXiXiXiXiXiXiXX J.U.}.yX'.o.%X].> iXiXiXiXiXiXiXiXiXiXiXiXiXiXiXiXiXiXiXiXiXiXiXiXiXiXiXiXiXiXiXiXiXiXiXiXiXiXiXiXiXiXiX",
"N iXiXiXiXiXiXiXiXiXiXE.uXqXA.# @ &.;.r p.F iXiXiXiXiXiXiXiXiXiXiXiXiXiXiXiXiXiXiXiXiXiXiXiXiXiXiXiXiXiXiXiXiXiXiXiXiXiXiXiXiXiX",
"iXiXiXiXiXiXiXiXiXiXB.:Xl.iXiXiXiXiXiXiXy 0.C iXiXiXiXiXiXiXiXiXiXiXiXiXiXiXiXiXiXiXiXiXiXiXiXiXiXiXiXiXiXiXiXiXiXiXiXiXiXiXiXiX",
"iXiXiXiX3 q iXiXiXiXiXiXiXiXiXiXiXiXiXiXiXiXn iXiXiXiXiXiXiXiXiXiXiXiXiXiXiXiXiXiXiXiXiXiXiXiXiXiXiXiXiXiXiXiXiXiXiXiXiXiXiXiXiX",
"iXiXiXiXJ w.e.D iXiXiXiXiXiXiXiXiXiXiXiXiXiXiXiXiXiXiXiXiXiXiXiXiXiXiXiXiXiXiXiXiXiXiXiXiXiXiXiXiXiXiXiXiXiXiXiXiXiXiXiXiXiXiXiX",
"iXiXiXiXiXq z iXiXiXiXiXiXiXiXiXiXiXiXiXiXiXiXiXiXiXiXiXiXiXiXiXiXiXiXiXiXiXiXiXiXiXiXiXiXiXiXiXiXiXiXiXiXiXiXiXiXiXiXiXiXiXiXiX",
"iXiXiXiXiXiXiXiXiXiXiXiXiXiXiXiXiXiXiXiXiXiXiXiXiXiXiXiXiXiXiXiXiXiXiXiXiXiXiXiXiXiXiXiXiXiXiXiXiXiXiXiXiXiXiXiXiXiXiXiXiXiXiXiX",
"iXiXiXiXiXiXiXiXiXiXiXiXiXiXiXiXiXiXiXiXiXiXiXiXiXiXiXiXiXiXiXiXiXiXiXiXiXiXiXiXiXiXiXiXiXiXiXiXiXiXiXiXiXiXiXiXiXiXiXiXiXiXiXiX",
"iXiXiXiXiXiXiXiXiXiXiXiXiXiXiXiXiXiXiXiXiXiXiXiXiXiXiXiXiXiXiXiXiXiXiXiXiXiXiXiXiXiXiXiXiXiXiXiXiXiXiXiXiXiXiXiXiXiXiXiXiXiXiXiX",
"iXiXiXiXiXiXiXiXm iXiXiXiXiXiXiXiXiXiXiXiXiXiXiXiXiXiXiXiXiXiXiXiXiXiXiXiXiXiXiXiXiXiXiXiXiXiXiXiXiXiXiXiXiXiXiXiXiXiXiXiXiXiXiX",
"iXiXiXiXiXiXiXiX7.5.8 iXiXiXiXiXiXiXiXiXiXiXiXiXiXiXiXiXiXiXiXiXiXiXiXiXiXiXiXiXiXiXiXiXiXiXiXiXiXiXiXiXiXiXiXiXiXiXiXiXiXiXiXiX",
"iXiXiXiXiXiXiXiXx r.7.iXiXiXiXiXiXiXiXiXiXiXiXiXiXiXiXiXiXiXiXiXiXiXiXiXiXiXiXiXiXiXiXiXiXiXiXiXiXiXiXiXiXiXiXiXiXiXiXiXiXiXiXiX",
"iXiXiXiXiXiXiXiXiXL q.h iXiXiXiXiXiXiXv iXiXiXiXiXiXiXiXiXiXiXiXiXiXiXiXiXiXiXiXiXiXiXiXiXiXiXiXiXiXiXiXiXiXiXiXiXiXiXiXiXiXiXiX",
"iXiXiXiXiXiXiXiXiXiXc q iXiXiXiXiXiXe iXiXiXiXiXiXiXiXiXiXiXiXiXiXiXiXiXiXiXiXiXiXiXiXiXiXiXiXiXiXiXiXiXiXiXiXiXiXiXiXiXiXiXiXiX",
"iXiX9 2 iXiXiXiXiXiXiXiXiXiXiXiXiXiXiXiXiXiXiXiXiXiXiXiXiXiXiXiXiXiXiXiXiXiXiXiXiXiXiXiXiXiXiXiXiXiXiXiXiXiXiXiXiXiXiXiXiXiXiXiX",
"iXiXc iXiXiXiXiXiXiXiXiXiXiXiXiXiXiXiXiXiXiXiXiXiXiXiXiXiXiXiXiXiXiXiXiXiXiXiXiXiXiXiXiXiXiXiXiXiXiXiXiXiXiXiXiXiXiXiXiXiXiXiXiX",
"iXiXj iXiXiXiXiXiXiXiXiXiXiXiXiXiXiXiXiXiXiXiXiXiXiXiXiXiXiXiXiXiXiXiXiXiXiXiXiXiXiXiXiXiXiXiXiXiXiXiXiXiXiXiXiXiXiXiXiXiXiXiXiX",
"iXiX4 iXiXiXiXiXiXiXiXiXiXiXiXiXiXiXiXiXiXiXiXiXiXiXiXiXiXiXiXiXiXiXiXiXiXiXiXiXiXiXiXiXiXiXiXiXiXiXiXiXiXiXiXiXiXiXiXiXiXiXiXiX",
"iXiXiXiXiXiXiXiXiXiXiXiXiXiXiXiXiXiXiXiXiXiXiXiXiXiXiXiXiXiXiXiXiXiXiXiXiXiXiXiXiXiXiXiXiXiXiXiXiXiXiXiXiXiXiXiXiXiXiXiXiXiXiXiX",
"iXiXiXiXiXiXiXiXiXiXiXiXiXiXiXiXiXiXiXiXiXiXiXiXiXiXiXiXiXiXiXiXiXiXiXiXiXiXiXiXiXiXiXiXiXiXiXiXiXiXiXiXiXiXiXiXiXiXiXiXiXiXiXiX",
"iXiXiXiXiXiXiXiXiXiXiXiXiXiXiXiXiXiXiXiXiXiXiXiXiXiXiXiXiXiXiXiXiXiXiXiXiXiXiXiXiXiXiXiXiXiXiXiXiXiXiXiXiXiXiXiXiXiXiXiXiXiXiXiX",
"iXiXiXiXiXiXiXiXiXiXiXiXiXiXiXiXiXiXiXiXiXiXiXiXiXiXiXiXiXiXiXiXiXiXiXiXiXiXiXiXiXiXiXiXiXiXiXiXiXiXiXiXiXiXiXiXiXiXiXiXiXiXiXiX",
"iXiXiXiXiXiXiXiXiXiXiXiXiXiXiXiXiXiXiXiXiXiXiXiXiXiXiXiXiXiXiXiXiXiXiXiXiXiXiXiXiXiXiXiXiXiXiXiXiXiXiXiXiXiXiXiXiXiXiXiXiXiXiXiX",
"iXiXiXiXiXiXiXiXiXiXiXiXiXiXiXiXiXiXiXiXiXiXiXiXiXiXiXiXiXiXiXiXiXiXiXiXiXiXiXiXiXiXiXiXiXiXiXiXiXiXiXiXiXiXiXiXiXiXiXiXiXiXiXiX",
"iXiXiXiXiXiXiXiXiXiXiXiXiXiXiXiXiXiXiXiXiXiXiXiXiXiXiXiXiXiXiXiXiXiXiXiXiXiXiXiXiXiXiXiXiXiXiXiXiXiXiXiXiXiXiXiXiXiXiXiXiXiXiXiX",
"iXiXiXiXiXiXiXiXiXiXiXiXiXiXiXiXiXiXiXiXiXiXiXiXiXiXiXiXiXiXiXiXiXiXiXiXiXiXiXiXiXiXiXiXiXiXiXiXiXiXiXiXiXiXiXiXiXiXiXiXiXiXiXiX",
"iXiXiXiXiXiXiXiXiXiXiXiXiXiXiXiXiXiXiXiXiXiXiXiXiXiXiXiXiXiXiXiXiXiXiXiXiXiXiXiXiXiXiXiXiXiXiXiXiXiXiXiXiXiXiXiXiXiXiXiXiXiXiXiX"
};
