/* XPM */
static char *result[] = {
/* columns rows colors chars-per-pixel */
"64 64 194 2 ",
"   c #4577B8",
".  c #4988BA",
"X  c #5A8FB7",
"o  c #5C88BC",
"O  c #6595BF",
"+  c #779CBD",
"@  c #7AA2BE",
"#  c #79B0BF",
"$  c #3D91D1",
"%  c #4183C2",
"&  c #5186C5",
"*  c #5F99CB",
"=  c #5491C3",
"-  c #5598D1",
";  c #5C9ED0",
":  c #6696C7",
">  c #629ECD",
",  c #779DC5",
"<  c #7695CB",
"1  c #6498DD",
"2  c #57A3D5",
"3  c #61A8C7",
"4  c #6EADCF",
"5  c #6CA8C4",
"6  c #70ABC1",
"7  c #7DACC6",
"8  c #77A8C7",
"9  c #69B0CA",
"0  c #79B5C9",
"q  c #69A7D2",
"w  c #6AAADF",
"e  c #62AADD",
"r  c #72AEDD",
"t  c #6BB4DB",
"y  c #79BBDA",
"u  c #5EB6EC",
"i  c #68ACE6",
"p  c #6FB8E5",
"a  c #78BAE5",
"s  c #70BBEF",
"d  c #76BEE3",
"f  c #70C2CC",
"g  c #69CBD6",
"h  c #73C8D0",
"j  c #78CAD5",
"k  c #7FCDDB",
"l  c #75D0DD",
"z  c #6FC5EB",
"x  c #7EC0EC",
"c  c #71C8E9",
"v  c #78C7E9",
"b  c #67D8E0",
"n  c #6DDEE6",
"m  c #6BC1F4",
"M  c #79C7F8",
"N  c #5DFBFE",
"B  c #6CEAEF",
"V  c #79E0E7",
"C  c #76E1E8",
"Z  c #7EE8EB",
"A  c #69EDF1",
"S  c #76EFF2",
"D  c #63F3F5",
"F  c #6BF3F3",
"G  c #61F6FA",
"H  c #6AF7F9",
"J  c #63FBFE",
"K  c #6BFCFE",
"L  c #74FBFC",
"P  c #7BFDFE",
"I  c #74F5F6",
"U  c #9DADB6",
"Y  c #87AEC5",
"T  c #80A6CE",
"R  c #83AFCC",
"E  c #91ACC3",
"W  c #87B1C8",
"Q  c #9FB8C7",
"!  c #80B7D6",
"~  c #8FB5D0",
"^  c #84BFD1",
"/  c #8CB6DE",
"(  c #82BCD9",
")  c #87B4DD",
"_  c #AFBCC0",
"`  c #8FBAE7",
"'  c #84BAE8",
"]  c #96BFE6",
"[  c #9EC4CF",
"{  c #8BC4D1",
"}  c #8EC9D6",
"|  c #87CDDE",
" . c #87C2D2",
".. c #9AC0D1",
"X. c #90C9DD",
"o. c #9FD1D9",
"O. c #ABCFDB",
"+. c #A6D3DD",
"@. c #B3D3DD",
"#. c #80C5ED",
"$. c #87DAE4",
"%. c #9BDDE4",
"&. c #94DAE9",
"*. c #9CDDEA",
"=. c #98D4E7",
"-. c #94C8F0",
";. c #84DAF4",
":. c #91D7F8",
">. c #93D8FF",
",. c #9ADFF9",
"<. c #96D2F6",
"1. c #AACBE4",
"2. c #A4D3ED",
"3. c #ACDBE1",
"4. c #BBDCE3",
"5. c #B5DCE8",
"6. c #A3DBF2",
"7. c #ACDBFD",
"8. c #B3DDF2",
"9. c #80EBEF",
"0. c #88E3EC",
"q. c #97E9EC",
"w. c #9DE2E2",
"e. c #99E7F5",
"r. c #87F7F9",
"t. c #8AF7F9",
"y. c #83FCFE",
"u. c #8BFDFE",
"i. c #93F7F8",
"p. c #98F7F8",
"a. c #92FDFE",
"s. c #9CFDFD",
"d. c #98F1F3",
"f. c #B1E5EE",
"g. c #BCE5EC",
"h. c #B6E9EE",
"j. c #BCEBED",
"k. c #BCE4E6",
"l. c #A4E4F5",
"z. c #A4EBF4",
"x. c #A2E3FE",
"c. c #A6E8FF",
"v. c #ABE9FF",
"b. c #AAE4F8",
"n. c #BAE1F2",
"m. c #BCEFFF",
"M. c #B4E4F7",
"N. c #A8F6F8",
"B. c #A5FEFE",
"V. c #ACFEFE",
"C. c #A3F0FA",
"Z. c #B5F4F9",
"A. c #B3FCFD",
"S. c #BAFEFF",
"D. c #C7DADB",
"F. c #D0DEE2",
"G. c #C9E1E7",
"H. c #C5E2EA",
"J. c #C8E3E9",
"K. c #C3EBEC",
"L. c #CEEBED",
"P. c #D3E9ED",
"I. c #CCF0EF",
"U. c #CCE6F4",
"Y. c #CDEBF4",
"T. c #C8EEFF",
"R. c #C5E4F7",
"E. c #D5EDF3",
"W. c #DBECF1",
"Q. c #D7E7F8",
"!. c #C2F2F4",
"~. c #CEF3F4",
"^. c #C3F5FC",
"/. c #CBF5FA",
"(. c #C4FDFE",
"). c #CEFBFD",
"_. c #D3F2F3",
"`. c #DCF4F4",
"'. c #D4F4FA",
"]. c #DCF5FD",
"[. c #D3FDFF",
"{. c #DBFBFC",
"}. c #E5ECED",
"|. c #E2EEF3",
" X c #E4F3F5",
".X c #E9F5F5",
"XX c #E8F8F7",
"oX c #E3F4FB",
"OX c #ECF7FB",
"+X c #E4FCFD",
"@X c #ECFCFD",
"#X c #F4FCFC",
"$X c #FCFEFE",
"%X c None",
/* pixels */
"%X%X%X%X%X%X%X%X%X%X%X%X%X%X%X%X%X%X%X%X%X%X%X%X%X%X%X%X%X%X%X%X%X%X%X%X%X%X%X%X%X%X%X%X%X%X%X%X%X%X%X%X%X%X%X%X%X%X%X%X%X%X%X%X",
"y.u.K %X%X%X%X%X%X%X%X%X%X%X%X%X%X%X%X%X%X%X%X%X%X%X%X%X%X%X%X%X%X%X%X%X%X%X%X%X%X%X%X%X%X%X%X%X%X%X%X%X%X%X%X%X%X%X%X%X%X%X%X%X",
"u.S.A.u.%X%X%X%X%X%X%X%X%X%X%X%X%X%X%X%X%X%X%X%X%X%X%X%X%X%X%X%X%X%X%X%X%X%X%X%X%X%X%X%X%X%X%X%X%X%X%X%X%X%X%X%X%X%X%X%X%X%X%X%X",
"J K P P J %X%X%X%X%X%X%X%X%X%X%X%X%X%X%X%X%X%X%X%X%X%XL K K %X%X%X%X%X%X%X%X%X%X%X%X%X%X%X%X%X%X%X%X%X%X%X%X%X%X%X%X%X%X%X%X%X%X",
"%X%X%X%X%X%X%X%X%X%X%X%X%X%X%X%X%X%X%X%X%X%X%X%X%XN u.u.J %X%X%X%X%X%X%X%X%X%X%X%X%X%X%X%X%X%X%X%X%X%X%X%X%X%X%X%X%X%X%X%X%X%X%X",
"%X%X%X%X%X%X%X%X%X%X%X%X%X%X%X%X%X%X%X%X%X%X%X%X%XP u.J %X%X%X%X%X%X%X%X%X%X%X%X%X%X%X%X%X%X%X%X%X%X%X%X%X%X%X%X%X%X%X%X%X%X%X%X",
"%X%X%X%X%X%X%X%X%X%X%X%X%X%X%X%X%XN %X%X%X%X%X%X%XJ %X%X%X%X%X%X%X%X%X%X%X%X%X%X%X%X%X%X%X%X%X%X%X%X%X%X%X%X%X%X%X%X%X%X%X%X%X%X",
"%X%X%X%X%X%X%X%XJ %X%X%X%X%X%X%XN %X%X%X%X%X%X%X%X%X%X%X%X%X%X%X%X%X%X%X%X%X%X%X%X%X%X%X%X%X%X%X%X%X%X%X%X%X%X%X%X%X%X%X%X%X%X%X",
"%X%X%X%X%X%X%XN K N %X%X%X%X%X%X%X%X%X%X%X%X%X%X%X%X%X%X%X%X%X%X%X%X%X%X%X%X%X%X%X%X%X%X%X%X%X%X%X%X%X%X%X%X%X%X%X%X%X%X%X%X%X%X",
"%X%X%X%X%X%XN %Xy.a.%X%X%X%X%X%X%X%X%X%X%X%X%X%X%X%X%X%X%X%X%X%X%X%X%X%X%X%X%X%X%X%X%X%X%X%X%X%X%X%X%X%X%X%X%X%X%X%X%X%X%X%X%X%X",
"%X%X%X%X%X%X%X%XV.[.N %X%X%X%X%X%X%X%X%X%X%X%X%X%X%X%X%X%X%X%X%X%X%X%X%X%X%X%X%X%X%X%X%X%X%X%X%X%X%X%X%X%X%X%X%X%X%X%X%X%X%X%X%X",
"%X%X%X%X%X%X%X%Xs.{.K %X%X%X%X%X%X%X%X%X%X%X%X%X%X%X%X%X%X%X%X%X%X%X%X%X%X%X%X%X%X%X%X%X%X%X%X%X%X%X%X%X%X%X%X%X%X%X%X%X%X%X%X%X",
"%X%X%X%X%X%X%X%XK A.K %X%X%X%X%X%X%X%X%X%X%X%X%X%X%X%X%X%X%X%X%X%X%X%X%X%X%X%X%X%X%X%X%X%X%X%X%X%X%X%X%X%X%X%X%X%X%X%X%X%X%X%X%X",
"%X%X%X%X%X%X%X%X%XP K %X%X%X%X%X%X%X%X%X%X%X%X%X%X%X%X%X%X%X%X%X%X%X%X%X%X%X%X%X%X%X%X%X%X%X%X%X%X%X%X%X%X%X%X%X%X%X%X%X%X%X%X%X",
"%X%X%X%X%X%X%X%X%X%XK %XG J G %X%X%X%X%X%X%X%X%X%X%X%X%X%X%X%X%X%X%X%X%X%X%X%X%X%X%X%X%X%X%X%X%X%X%X%X%X%X%X%X%X%X%X%X%X%X%X%X%X",
"%X%X%X%X%X%X%X%X%X%XJ %X%X%X%X%X%X%X%X%X%X%X%X%X%X%X%X%X%X%X%X%X%X%X%X%X%X%X%X%X%X%X%X%X%X%X%X%X%X%X%X%X%X%X%X%X%X%X%X%X%X%X%X%X",
"%X%X%X%X%X%X%X%X%X%X%X%X%X%X%XD %X%X%X%X%X%X%X%X%X%X%X%X%X%X%X%X%X%X%X%X%X%X%X%X%X%X%X%X%X%X%X%X%X%X%X%X%X%X%X%X%X%X%X%X%X%X%X%X",
"%X%X%X%X%X%X%X%X%X%X%X%X%X%X%XP H %X%X%X%X%X%X%X%X%XG %X%X%X%X%X%X%X%X%X%X%X%X%X%X%X%X%X%X%X%X%X%X%X%X%X%X%X%X%X%X%X%X%X%X%X%X%X",
"%X%X%X%X%X%X%X%X%X%X%X%X%X%XG (.u.%X%X%X%X%X%X%XL L %X%X%X%X%X%XK %X%X%X%X%X%X%X%X%X%X%X%X%X%X%X%X%X%X%X%X%X%X%X%X%X%X%X%X%X%X%X",
"%X%X%X%X%X%X%X%X%X%X%X%X%X%XJ {.s.%X%X%X%X%X%XP a.K %X%X%X%X%XK P %X%X%X%X%X%X%X%X%X%X%X%X%X%X%X%X%X%X%X%X%X%X%X%X%X%X%X%X%X%X%X",
"%X%X%X%X%X%X%X%X%X%X%X%X%X%XJ S.u.%X%X%X%Xg 9.a.d.b %X%X%X%XJ (.s.%X%X%X%X%X%X%X%X%X%X%X%X%X%X%X%X%X%X%X%X%X%X%X%X%X%X%X%X%X%X%X",
"%X%X%X%X%X%X%X%X%X%X%X%X%X%X%Xa.L.}.7 5 %X%XV 0.&.j %X%X%XC B.[.P %X%X%X%X%X%X%X%X%X%X%X%X%X%X%X%X%X%X%X%X%X%X%X%X%X%X%X%X%X%X%X",
"%X%X%X%X%X%XK %X%X%X%X%X%X%X%X%Xf $X$X|.%X%X%X0 *.=.%X%X%Xy.@Xs.%X%X%X%X%X%X%X%X%X%X%X%X%X%X%X%X%X%X%X%X%X%X%X%X%X%X%X%X%X%X%X%X",
"%X%X%X%XK a.P %X%X%X%X%X%X%X%X6 %X7 @X@Xg.. X :  .h. .%X%Xs.V.~.%X%X%X%X%X%X%X%X%X%X%X%X%X%X%X%X%X%X%X%X%X%X%X%X%X%X%X%X%X%X%X%X",
"%X%X%XK V.V.N %X%X%X%X%X%X%X%X%X%X%X% l.[.].f.= ( %.!. .A u.H | L.%X%X%X%X%X%X%X%X%X%X%X%X%X%X%X%X%X%X%X%X%X%X%X%X%X%X%X%X%X%X%X",
"%X%XJ B.B.K %X%X%X%X%X%X%X%X%X%X%X4 '.+X@X^.).p %X%Xg.~.w.%X%X%XO.H.%X%X%X%X%X%X%X%X%X%X%X%X%X%X%X%X%X%X%X%X%X%X%X%X%X%X%X%X%X%X",
"%X%Xy.y.%X%X%X%X%X%X$X4.0 %X%X%X| e c #.v.M u Z.y > q X.I.} %X@ %X XP.%X%X%X%X%X%X%X%X%X%X%X%X%X%X%X%X%X%X%X%X%X%X%X%X%X%X%X%X%X",
"%XP J %X%X%X%X%X%X%XE.$XOX%X%X4 y  X$XOXn.#.v #X+X^.].o R `.o.%X3.Y #XJ.%X%X%X%X%X%X%X%X%X%X%X%X%X%X%X%X%X%X%X%X%X%X%X%X%X%X%X%X",
"K %X%X%X%X%X%X%X%X%X%X/ 7.<.6.U.X.> 8.$X$X#X).;.z.z./.&.+ + `.k.@ .X}.#X4.%X%X%X%X%X%X%X%X%X%X%X%X%X%X%X%X%X%X%X%X%X%X%X%X%X%X%X",
"%X%X%X%X%X%X%X,  XW.1.' -.7.>.m M.#X#X).+X+X^.c.y h.+X/.w.w.{ P.`.I.$X$X#X_.%X%X%X%X%X%X%X%X%X%X%X%X%X%X%X%X%X%X%X%X%X%X%X%X%X%X",
"I u.y.A %X%X%X( i Q.$X@X@X@X+X{.x.i oX/.l.#Xs i <.'.#X#XoXI.~.k.K.$X$X#X$X$X4.W.%X%X%X%X%X%X%X%X%X%X%X%X%X%X%X%X%X%X%X%X%X%X%X%X",
"@X$X#X/.*./ / 2.E.OX$X$X$X$X$X#X$X$X#X$X$X$X$XoXU.'.OX$X#X#X#X#X#X#X#X#X$X#X#X#X$X@.%X%X%X%X%X%X%X%X%X%X%X%X%X%X%X%X%X%X%X%X%X%X",
"#X$X#X!.=.2.8.M.'.@X$X$X$X$X$X$X$X$X$X$X$X$X$X$X$X$X$X$X$X$X$X$X#X$X$X#X#X$X$X#X#XJ.%X%X%X%X%X%X%X%X%X%X%X%X%X%X%X%X%X%X%X%X%X%X",
"r.r.S n %X%X< R.@X@X@X$X$X$X$X$X$X$X#X$X$X$X$X$X$X#X$X#X$X#X#X#X$X$X#X$X#X$X#XF.%X%X%X%X%X%X%X%X%X%X%X%X%X%X%X%X%X%X%X%X%X%X%X%X",
"I P %X%X%X%X%XT R.#X+X$X$X$X$X#X:.#.`.Y.{.e.Z.#X$X@X'.$X#X#XXX X#X$X#X3.#XE %X%X%X%X%X%X%X%X%X%X%X%X%X%X%X%X%X%X%X%X%X%X%X%X%X%X",
"%XL %X%X%X%X%X: R.#X$X$X$X#X+X{.v.1 ` ,.;.C./.@X(./.OXG.~ O.XXXX.X#XU }.%X%X%X%X%X%X%X%X%X%X%X%X%X%X%X%X%X%X%X%X%X%X%X%X%X%X%X%X",
"%XH H %X%X%XU #X$X$X+XXX)./.+X$X$X+Xe.'.$X$X$X$X@Xt > Y.#X|.Q XXXX%XW.%X%X%X%X%X%X%X%X%X%X%X%X%X%X%X%X%X%X%X%X%X%X%X%X%X%X%X%X%X",
"%X%Xy.%X%X_ F.@.( 7./.#X$X+X$X$XOXr $ i v.v.[.l.c v OX].R G.#XJ.%XJ.%X%X%X%X%X%X%X%X%X%X%X%X%X%X%X%X%X%X%X%X%X%X%X%X%X%X%X%X%X%X",
"%X%XP %X%X%X%X%XH.#X].2.P.Q.8.a 2 - ^.c.x.2.  & 6.c.c E.#X#X_ %X@.%X%X%X%X%X%X%X%X%X%X%X%X%X%X%X%X%X%X%X%X%X%X%X%X%X%X%X%X%X%X%X",
"%X%X%X%X%X%X%XD..X..%X%X%X%X%X3 9 #X#XoX: %Xo {.m.'.$X$XE.%X%XW %X%X%X%X%X%X%X%X%X%X%X%X%X%X%X%X%X%X%X%X%X%X%X%X%X%X%X%X%X%X%X%X",
"%X%X%X%X%X%X%X%X%X%X%X%X%X%X%XZ $XOXn.3 %X%XR @X$X$X$X^.%X%X%X%X%X%X%X%X%X%X%X%X%X%X%X%X%X%X%X%X%X%X%X%X%X%X%X%X%X%X%X%X%X%X%X%X",
"%X%X%X%X%X%X%X%X%X%X%X%X%XK L q.l %X%X%X%XR #X$X$X_.(.a.%X%X%X%X%X%X%X%X%X%X%X%X%X%X%X%X%X%X%X%X%X%X%X%X%X%X%X%X%X%X%X%X%X%X%X%X",
"%X%X%X%X%X%X%X%X%X%X%XJ J G %Xh %X%X%X%X+.#XOXg.%XK (.a.%X%X%X%X%X%X%X%X%X%X%X%X%X%X%X%X%X%X%X%X%X%X%X%X%X%X%X%X%X%X%X%X%X%X%X%X",
"%X%X%X%X%X%X%X%XN %X%X%X%X%X%X%X%XI N.`.H.{ %X%X%XN B.P %X%X%X%X%X%X%X%X%X%X%X%X%X%X%X%X%X%X%X%X%X%X%X%X%X%X%X%X%X%X%X%X%X%X%X%X",
"%X%X%X%X%X%X%X%XJ %X%X%X%X%X%XD t.{./.$.%X%X%X%X%XN P %X%X%X%X%X%X%X%X%X%X%X%X%X%X%X%X%X%X%X%X%X%X%X%X%X%X%X%X%X%X%X%X%X%X%X%X%X",
"J N %X%X%X%X%X%XN %X%X%X%X%X%Xi.{.Z.0.k %X%X%X%X%X%X%X%X%X%X%X%X%X%X%X%X%X%X%X%X%X%X%X%X%X%X%X%X%X%X%X%X%X%X%X%X%X%X%X%X%X%X%X%X",
"y.y.K %X%X%X%X%X%X%X%X%X%X%Xg p.B.S %X%X%X%X%X%X%X%X%X%X%X%X%X%X%X%X%X%X%X%X%X%X%X%X%X%X%X%X%X%X%X%X%X%X%X%X%X%X%X%X%X%X%X%X%X%X",
"%X%X%X%X%X%X%X%X%X%X%X%X%X%X%XB F D %X%X%X%X%X%X%X%X%X%X%X%X%X%X%X%X%X%X%X%X%X%X%X%X%X%X%X%X%X%X%X%X%X%X%X%X%X%X%X%X%X%X%X%X%X%X",
"%X%X%X%X%X%X%X%X%X%X%X%X%X%X%X%X%X%X%X%X%X%X%X%X%X%X%X%X%X%X%X%X%X%X%X%X%X%X%X%X%X%X%X%X%X%X%X%X%X%X%X%X%X%X%X%X%X%X%X%X%X%X%X%X",
"%X%X%X%X%X%X%XP y.u.F %X%X%X%X%X%X%X%X%X%X%XJ K %X%X%X%X%X%X%X%X%X%X%X%X%X%X%X%X%X%X%X%X%X%X%X%X%X%X%X%X%X%X%X%X%X%X%X%X%X%X%X%X",
"%X%X%X%X%X%X%X%XD I K %X%X%X%X%X%X%X%X%X%X%X%XP P N %X%X%X%X%X%X%X%X%X%X%X%X%X%X%X%X%X%X%X%X%X%X%X%X%X%X%X%X%X%X%X%X%X%X%X%X%X%X",
"%X%X%X%X%X%X%X%X%X%X%X%X%X%X%X%X%X%X%X%X%X%X%X%XP P J %X%X%X%X%X%X%X%X%X%X%X%X%X%X%X%X%X%X%X%X%X%X%X%X%X%X%X%X%X%X%X%X%X%X%X%X%X",
"%X%X%X%X%X%X%X%X%X%X%X%X%X%X%X%X%X%X%X%X%X%X%X%X%X%X%X%X%X%X%X%X%X%X%X%X%X%X%X%X%X%X%X%X%X%X%X%X%X%X%X%X%X%X%X%X%X%X%X%X%X%X%X%X",
"%X%X%X%X%X%X%X%X%X%X%X%X%X%X%X%X%X%X%X%X%X%X%X%X%X%X%X%X%X%X%X%X%X%X%X%X%X%X%X%X%X%X%X%X%X%X%X%X%X%X%X%X%X%X%X%X%X%X%X%X%X%X%X%X",
"%X%X%X%X%X%X%X%X%X%X%X%X%X%X%X%XL %X%X%X%X%X%X%X%X%X%X%X%X%X%X%X%X%X%X%X%X%X%X%X%X%X%X%X%X%X%X%X%X%X%X%X%X%X%X%X%X%X%X%X%X%X%X%X",
"%X%X%X%X%X%X%X%X%X%X%X%X%X%X%XJ u.J %X%X%X%XN N N %X%X%X%X%X%X%X%X%X%X%X%X%X%X%X%X%X%X%X%X%X%X%X%X%X%X%X%X%X%X%X%X%X%X%X%X%X%X%X",
"%X%X%X%X%X%X%X%X%X%X%X%X%X%X%XJ a.N %X%X%X%X%X%XN N %X%X%X%X%X%X%X%X%X%X%X%X%X%X%X%X%X%X%X%X%X%X%X%X%X%X%X%X%X%X%X%X%X%X%X%X%X%X",
"%X%X%X%X%X%X%X%X%X%X%X%X%X%X%X%XJ %X%X%X%X%X%X%X%X%X%X%X%X%X%X%X%X%X%X%X%X%X%X%X%X%X%X%X%X%X%X%X%X%X%X%X%X%X%X%X%X%X%X%X%X%X%X%X",
"%X%X%X%X%X%X%X%X%X%X%X%X%X%X%X%X%X%X%X%X%X%X%X%X%X%X%X%X%X%X%X%X%X%X%X%X%X%X%X%X%X%X%X%X%X%X%X%X%X%X%X%X%X%X%X%X%X%X%X%X%X%X%X%X",
"%XN J N %X%X%X%X%X%X%X%X%X%X%X%X%X%X%X%X%X%X%X%X%X%X%X%X%X%X%X%X%X%X%X%X%X%X%X%X%X%X%X%X%X%X%X%X%X%X%X%X%X%X%X%X%X%X%X%X%X%X%X%X",
"%X%X%X%X%X%X%X%X%X%XL %X%X%X%X%X%X%X%X%X%X%X%X%X%X%X%X%X%X%X%X%X%X%X%X%X%X%X%X%X%X%X%X%X%X%X%X%X%X%X%X%X%X%X%X%X%X%X%X%X%X%X%X%X",
"%X%X%X%X%X%X%X%X%X%X%XN %X%X%X%X%X%X%X%X%X%X%X%X%X%X%X%X%X%X%X%X%X%X%X%X%X%X%X%X%X%X%X%X%X%X%X%X%X%X%X%X%X%X%X%X%X%X%X%X%X%X%X%X",
"%X%X%X%X%X%X%X%X%X%X%X%X%X%X%X%X%X%X%X%X%X%X%X%X%X%X%X%X%X%X%X%X%X%X%X%X%X%X%X%X%X%X%X%X%X%X%X%X%X%X%X%X%X%X%X%X%X%X%X%X%X%X%X%X",
"%X%X%X%X%X%X%X%X%X%X%X%X%X%X%X%X%X%X%X%X%X%X%X%X%X%X%X%X%X%X%X%X%X%X%X%X%X%X%X%X%X%X%X%X%X%X%X%X%X%X%X%X%X%X%X%X%X%X%X%X%X%X%X%X"
};
