/* XPM */
static char *result[] = {
/* columns rows colors chars-per-pixel */
"64 64 58 1 ",
"  c black",
". c #180000",
"X c gray8",
"o c gray11",
"O c #241400",
"+ c #2C1800",
"@ c #342000",
"# c #3C2404",
"$ c #482C04",
"% c #5C3000",
"& c #503008",
"* c #58380C",
"= c #603810",
"- c #443434",
"; c #684000",
": c #785004",
"> c #684014",
", c #6C4C18",
"< c #744C1C",
"1 c #7C5820",
"2 c #000440",
"3 c #00044C",
"4 c #001474",
"5 c #002870",
"6 c #043478",
"7 c gray25",
"8 c #4C4C4C",
"9 c #544440",
"0 c #585858",
"q c #6C6C6C",
"w c gray47",
"e c #886408",
"r c #98780C",
"t c #886428",
"y c #907030",
"u c #9C7C3C",
"i c #A88C10",
"p c #BCA414",
"a c #D0C01C",
"s c #F4E020",
"d c #A88448",
"f c #B49054",
"g c #CCA874",
"h c #0428A0",
"j c #0C4084",
"k c #246098",
"l c #3470A4",
"z c #0C48CC",
"x c #4480B0",
"c c #848484",
"v c #909090",
"b c gray61",
"n c #B4B4B4",
"m c #E8C498",
"M c #D4C4B4",
"N c #C0C0C0",
"B c #D8D8D8",
"V c None",
/* pixels */
"VVVVVVVVVVVVVVVVVVVVVVVVVVVVVVVVVVVVVVVVVVVVVVVVVVVVVVVVVVVVVVVV",
"VVVVVVVVVVVVVVVVVVkVVVVVVVVVVVVVVVVVVVVVVVVVVVVVVVVVVVVVVVVVVVVV",
"VVVVVVVVVVVVVVkVVVVVVVVVVVVVVVVVVVVVVVVVVVVVVVVVVVVVVVVVVVVVVVVV",
"VVVVVVVVVVVVVVVVVVVVVVVVVVVVVVVVVVVVVVVVVVVVVVVVVVVVVVVVVVVVVVVV",
"VVVVVVVVVVVVVVVVVVVVVVVVVVVVVVVVVVVVVVVVVVVVVVVVVVVVVVVVVVVVVVVV",
"VVVVVVVVVVVVVVVVVVVVVVVVVVVVVVVVVVVVVVVVVVVVVVVVVVVVVVVVVVVVVVVV",
"VVVVVVVVVVVVVVVVVVVVVVVVVVVVVVVVVVVVVVVVVVVVVVVVVVVVVVVVVVVVVVVV",
"VVVVVVVVVVVVVVVVVVVVVVVVVVVVVVVVVVVVVVVVVVVVVVVVVVVVVVVVVVVVVVVV",
"VVVVVVVVVVVVVVVVVVVVVVVkVVVVVVVVVVVVVVVVVVVVVVVVVVVVVVVVVVVVVVVV",
"VVVVVVVVVVVVVVVVVVVVVVVVVVVVVVVVVVVVVVVVVVVVVVVVVVVVVVVVVVVVVVVV",
"VVVVVVVVVVVVVVVVVVVVVVVVVVVVVVVVVVVVVVVVVVVVVVVVVVVVVVVVVVVVVVVV",
"VVVVVVVVVVVVVVVVVVVVkVVVVVVVVVVVVVVVVVVVVVVVVVVVVVVVVVVVVVVVVVVV",
"VVVVVVVVVVVVVVVVVVVVVVkVVVxVVVVVVVVVVVVVVVVVVVVVVVVVVVVVVVVVVVVV",
"VVVVVVkVVVVVVVVVVVVVVkxkVVVVVVVVVVVVVVVVVVVVVVVVVVVVVVVVVVVVVVVV",
"VVVVVVVVVVVVVVVVVVVVVVkVVVVVVVVVVVVVVVVVVVVVVVVVVVVVVVVVVVVVVVVV",
"VVVVVVVkVVVVVVVVkVVVVVVVVkVVVqq9.O@OVVVVVVVVVVVVVVVVVVVVVVVVVVVV",
"VVVVVVVVkkVkkVVVVVVVVVV=<tt<qvv+@###+3VVVVVVVVVVVVVVVVVVVVVVVVVV",
"VVVVVVVkxnxkVVxVVVVVVVVyuffg9b+=<>**$43VVVVVVVVVVVVVVVVVVVVVVVVV",
"VVVVVkVx6226xVVkVVVVVVVV<ugdbbqygd1<*43VVVVVVVVVVVVVVVVVVVVVVVVV",
"VVVVVVkx2  2nVknkVVVVVVVVVVVbq>udf1>=33VVVVVVVVVVVVVVVVVVVVVVVVV",
"VVVVVVVj6226xkVkVVVkVVVVVVVV0=y%<%,y$34VVVVVVVVVVVVVVVVVVVVVVVVV",
"VVVVVVVVx55xkVVVVVkxkVVVVVVVV$$Oty>$O343VVVVVVVVVVVVVVVVVVVVVVVV",
"VVVVVVVVVlkkpxVVVVVkVVVVVVVV+%+;O%334333VVVVVVVVVVVVVVVVVVVVVVVV",
"VVVVVVVVVVeaa:VVVVVVVVVVVVVV#:$+:O4h4433VVVVVVVVVVVVVVVVVVVVVVVV",
"VVVVVVVVVVVpsiOVVVVVVVVVVVVV$:;%@4hzh443VVVVVVVVVVVVVVVVVVVVVVVV",
"VVVVVVVVVVV*as;VVVVVVVVVVVV#,,;%#44hzh43VVVVVVVVVVVVVVVVVVVVVVVV",
"VVVVVVVVVVVVrarVVVVVVVVVVVV#;;%#+444hh43VVVVVVVVVVVVVVVVVVVVVVVV",
"VVVVVVVVVVVVOpp.VVVVVVVVVVV$%$$O34hh4443VVVVVVVVVVVVVVVVVVVVVVVV",
"VVVVVVVVVVVVV;e+VVVVVVVVVVVV$++334hhh443VVVVVVVVVVVVVVVVVVVVVVVV",
"VVVVVVVVVVVVVV&&VVVVVVVVVVVVVV334hzzh433VVVVVVVVVVVVVVVVVVVVVVVV",
"VVVVVVVVVVVVVV+*+VVVVVVVVVVVVV34hzzh43333VVVVVVVVVVVVVVVVVVVVVVV",
"VVVVVVVVVVVVVVV&&VVVVVVVVVVVV34hzzz433433VVVVVVVVVVVVVVVVVVVVVVV",
"VVVVVVVVVVVVVVV+*+VVVVVVVVVVV4hzzzh4344333VVVVVVVVVVVVVVVVVVVVVV",
"VVVVVVVVVVVVVVVV&$VVVVVqc033444hzh433444333VVVVVVVVVVVVVVVVVVVVV",
"VVVVVVVVVVVVVVVV@*OoX=#nnc44hz44h3333444333VVVVVVVVVVVVVVVVVVVVV",
"VVVVVVVVVVVVVVVV#tgmgfqn7Nqhhzz4h3333444333VVVVVVVVVVVVVVVVVVVVV",
"VVVVVVVVVVVVVVVVtfmmmgcnqBchhhhh43433444333VVVVVVVVVVVVVVVVVVVVV",
"VVVVVVVVVVVVVVVV=ugyutqBBBc4443334433444333rVVVVVVVVVVVVVVVVVVVV",
"VVVVVVVVVVVVVVVVVV#$OVnBqnc3333444433444333eVVVVVVVVVVVVVVVVVVVV",
"VVVVVVVVVVVVVVVVVV.&$VnqBn833444h444344433eVVVVVVVVVVVVVVVVVVVVV",
"VVVVVVVVVVVVVVVVVVV#*ObMqcVV3444hh44334443VVVVVVVVVVVVVVVVVVVVVV",
"VVVVVVVVVVVVVVVVVVVO&#b7BVV3344hhh44334443 VVVVVVVVVVVVVVVVVVVVV",
"VVVVVVVVVVVVVVVVVVVV#-wnV  3444hhhh43344433 VVVVVVVVVVVVVVVVVVVV",
"VVVVVVVVVVVVVVVVVVVVO*#V   3444hhhh433h4443  VVVVVVVVVVVVVVVVVVV",
"VVVVVVVVVVVVVVVVVVVVV#*O   344hhhhhh43h4443  VVVVVVVVVVVVVVVVVVV",
"VVVVVVVVVVVVVVVVVVVVVO*#   344hhhhhhh4hh443  VVVVVVVVVVVVVVVVVVV",
"VVVVVVVVVVVVVVVVVVVVVV#*.  344hhhhhhhhhh44:  VVVVVVVVVVVVVVVVVVV",
"VVVVVVVVVVVVVVVVVVVVVVO*#  :e4hhhhhhhhhh44: VVVVVVVVVVVVVVVVVVVV",
"VVVVVVVVVVVVVVVVVVVVVVV$&.   e4hhhhhhhhh43e VVVVVVVVVVVVVVVVVVVV",
"VVVVVVVVVVVVVVVVVVVVVVVO*@    eri4hhhhhh4r VVVVVVVVVVVVVVVVVVVVV",
"VVVVVVVVVVVVVVVVVVVVVVVV$&VV     ip4hhhhi VVVVVVVVVVVVVVVVVVVVVV",
"VVVVVVVVVVVVVVVVVVVVVVVVO*+VVVV    ipapiVVVVVVVVVVVVVVVVVVVVVVVV",
"VVVVVVVVVVVVVVVVVVVVVVVVV@OVVVVVVVVVVVVVVVVVVVVVVVVVVVVVVVVVVVVV",
"VVVVVVVVVVVVVVVVVVVVVVVVVVVVVVVVVVVVVVVVVVVVVVVVVVVVVVVVVVVVVVVV",
"VVVVVVVVVVVVVVVVVVVVVVVVVVVVVVVVVVVVVVVVVVVVVVVVVVVVVVVVVVVVVVVV",
"VVVVVVVVVVVVVVVVVVVVVVVVVVVVVVVVVVVVVVVVVVVVVVVVVVVVVVVVVVVVVVVV",
"VVVVVVVVVVVVVVVVVVVVVVVVVVVVVVVVVVVVVVVVVVVVVVVVVVVVVVVVVVVVVVVV",
"VVVVVVVVVVVVVVVVVVVVVVVVVVVVVVVVVVVVVVVVVVVVVVVVVVVVVVVVVVVVVVVV",
"VVVVVVVVVVVVVVVVVVVVVVVVVVVVVVVVVVVVVVVVVVVVVVVVVVVVVVVVVVVVVVVV",
"VVVVVVVVVVVVVVVVVVVVVVVVVVVVVVVVVVVVVVVVVVVVVVVVVVVVVVVVVVVVVVVV",
"VVVVVVVVVVVVVVVVVVVVVVVVVVVVVVVVVVVVVVVVVVVVVVVVVVVVVVVVVVVVVVVV",
"VVVVVVVVVVVVVVVVVVVVVVVVVVVVVVVVVVVVVVVVVVVVVVVVVVVVVVVVVVVVVVVV",
"VVVVVVVVVVVVVVVVVVVVVVVVVVVVVVVVVVVVVVVVVVVVVVVVVVVVVVVVVVVVVVVV",
"VVVVVVVVVVVVVVVVVVVVVVVVVVVVVVVVVVVVVVVVVVVVVVVVVVVVVVVVVVVVVVVV"
};
