/* XPM */
static char *result[] = {
/* columns rows colors chars-per-pixel */
"64 63 99 2 ",
"   c #010101",
".  c #090000",
"X  c #070807",
"o  c #080807",
"O  c #010B0B",
"+  c #0A0A0A",
"@  c #110700",
"#  c #150900",
"$  c #1A0E00",
"%  c #0F100E",
"&  c #1F1101",
"*  c #100F10",
"=  c #0E1212",
"-  c #131313",
";  c #181816",
":  c #161918",
">  c #1A1C1C",
",  c #310A0A",
"<  c #261501",
"1  c #2B1802",
"2  c #311D04",
"3  c #241A1A",
"4  c #392204",
"5  c #3C2909",
"6  c #000129",
"7  c #1E2121",
"8  c #222222",
"9  c #2A2D2B",
"0  c #302923",
"q  c #2D312E",
"w  c #2C3332",
"e  c #323333",
"r  c #353937",
"t  c #3F3831",
"y  c #363B3A",
"u  c #3A3C3B",
"i  c #442B01",
"p  c #41290C",
"a  c #4E3802",
"s  c #44300C",
"d  c #493511",
"f  c #503C13",
"g  c #3C413E",
"h  c #574404",
"j  c #554418",
"k  c #5C4B1D",
"l  c #615005",
"z  c #6D5F07",
"x  c #4B4739",
"c  c #000741",
"v  c #020942",
"b  c #01135C",
"n  c #042677",
"m  c #3D4340",
"M  c #414643",
"N  c #454945",
"B  c #474C48",
"V  c #4A4D4A",
"C  c #4D524D",
"Z  c #575846",
"A  c #51544D",
"S  c #4E5450",
"D  c #515651",
"F  c #555A54",
"G  c #5A5C55",
"H  c #575C5B",
"J  c #5A5D59",
"K  c #5D625C",
"L  c #61655E",
"P  c #64685F",
"I  c #626661",
"U  c #656A63",
"Y  c #696D65",
"T  c #696B68",
"R  c #6D7066",
"E  c #6E726A",
"W  c #717363",
"Q  c #72756C",
"!  c #7C7369",
"~  c #75796E",
"^  c #797B6F",
"/  c #727770",
"(  c #767A71",
")  c #7A7D73",
"_  c #7E7E7E",
"`  c #7D8176",
"'  c #7D8279",
"]  c #808276",
"[  c #81857B",
"{  c #85897E",
"}  c #868B82",
"|  c #898E84",
" . c #8D9186",
".. c #8C9289",
"X. c #92978C",
"o. c #92988E",
"O. c #969B92",
"+. c #999E96",
"@. c None",
/* pixels */
"@.@.@.@.@.@.@.@.@.@.@.@.@.@.@.@.@.@.@.@.@.@.@.@.@.@.@.@.@.@.@.@.@.@.@.@.@.@.@.@.@.@.@.@.@.@.@.@.@.@.@.@.@.@.@.@.@.@.@.@.@.@.@.@.",
"@.@.@.@.@.@.@.@.@.@.@.@.@.@.@.@.@.@.@.@.@.@.@.@.@.@.@.D ..}  .} | ..| ....T @.@.@.@.@.@.@.@.@.@.@.@.@.@.@.@.@.@.@.@.@.@.@.@.@.@.",
"@.@.@.@.@.@.@.@.@.@.@.@.@.@.@.@.@.@.@.@.@.@.@.@.@.@.@.| o.}  .} | | } { } ' K @.@.@.@.@.@.@.@.@.@.@.@.@.@.@.@.@.@.@.@.@.@.@.@.@.",
"@.@.@.@.@.@.@.@.@.@.@.@.@.@.@.@.@.@.@.@.@.@.@.@.@.@.w | ( ` ] ^ ( ' E U U R S @.@.@.@.@.@.@.@.@.@.@.@.@.@.@.@.@.@.@.@.@.@.@.@.@.",
"@.@.@.@.@.@.@.@.@.@.@.@.@.@.@.@.@.@.@.@.@.@.@.@.@.@.w ( ` ` ) ` ) [ Y I E E m @.@.@.@.@.@.@.@.@.@.@.@.@.@.@.@.@.@.@.@.@.@.@.@.@.",
"@.@.@.@.@.@.@.@.@.@.@.@.@.@.@.@.@.@.@.@.@.@.@.@.@.@.@.K ` ` ^ ` ) [ Q U R I @.@.@.@.@.@.@.@.@.@.@.@.@.@.@.@.@.@.@.@.@.@.@.@.@.@.",
"@.@.@.@.@.@.@.@.@.@.@.@.@.@.@.@.@.@.@.@.@.@.@.@.@.@.@.D ' / ` ~ ) ' Q E E K w @.@.@.@.@.@.@.@.@.@.@.@.@.@.@.@.@.@.@.@.@.@.@.@.@.",
"@.@.@.@.@.@.@.@.@.@.@.@.@.@.@.@.@.@.@.@.@.@.@.@.@.S C N ~ / ` ~ ) ) Q / / G S H @.@.@.@.@.@.@.@.@.@.@.@.@.@.@.@.@.@.@.@.@.@.@.@.",
"@.@.@.@.@.@.@.@.@.@.@.@.@.@.@.@.S K @.@.@.@.@.K ` ..' B I ( Q U / ) ) ) ( B } O.| E C @.@.@.@.R M @.@.@.@.@.@.@.@.@.@.@.@.@.@.@.",
"@.@.@.@.@.@.@.@.@.@.@.@.@.@.@.K ' ' A @.@.K ' } ' / / B D ( E E ( Q Q [ E D } / E } { Q x @.Q X.| C @.@.@.@.@.@.@.@.@.@.@.@.@.@.",
"@.@.@.@.@.@.@.@.@.@.@.@.@.@.E | ' ' R K K O.{ R E R Q F C { [ ) } ) ) ) E I { E R P ~  .G Y X.{ | | V @.@.@.@.@.@.@.@.@.@.@.@.@.",
"@.@.@.@.@.@.@.@.@.@.@.@.@.K | ( Q / / E U ' ` ' ' ' ( U G ` ) [ ) [ ) ( I E ' ~ ~ E Q W Z  .| { ] [ ` g @.@.@.@.@.@.@.@.@.@.@.@.",
"@.@.@.@.@.@.@.@.@.@.@.@.C | / ~ ' ( ~ ' I F ' ( / ~ / K B L Y E Y Q T T D ~ ' ~ ` Q ^ Z ^ | { { { [ [ ) @.@.@.@.@.@.@.@.@.@.@.@.",
"@.@.@.@.@.@.@.@.@.@.@.@.N ~ ( E ~ / ` / ' D Y ^ ' I 9 > = 7 7 > > > 7 8 = 9 u E E ` Z W  .` [ ] ] | { L @.@.@.@.@.@.@.@.@.@.@.@.",
"@.@.@.@.@.@.@.@.@.@.@.@.@.@.U ' ` Q E E ' / C K 9                               e K C ` ` [ ] ` ` { K @.@.@.@.@.@.@.@.@.@.@.@.@.",
"@.@.@.@.@.@.@.@.@.@.@.@.@.@.N L ' / / ` ` R 9     X               X           X     N ~ ~ ^ [ } ` F F @.@.@.@.@.@.@.@.@.@.@.@.@.",
"@.@.@.@.@.@.@.@.@.@.@.@.@.K | C U ( E ( U >   +                                 X +   t G E ) ` N ` [ N @.@.@.@.@.@.@.@.@.@.@.@.",
"@.@.@.@.@.@.@.@.@.@.@.@.D ..{ ` C / E G 7   +                                       X < 0 K L M ( [ [ R y @.@.@.@.@.@.@.@.@.@.@.",
"@.@.@.@.@.@.@.@.@.@.@.@.' { E ` I M D >   X                                           & 1 9 g [ | ' { ` K @.@.@.@.@.@.@.@.@.@.@.",
"@.@.@.@.@.@.@.@.@.@.@.I ' ~ ^ ' { K                           # $ @                   < <   M ) ( { { ' ~ C @.@.@.@.@.@.@.@.@.@.",
"@.@.@.@.@.@.@.@.@.@.@.F ^ ^ ) ` ^ r   X                     & 1 1 < @                 & < o   C ] [ ` ` ~ B @.@.@.@.@.@.@.@.@.@.",
"@.@.@.@.@.@.@.@.@.@.R K D Y Q [ I   X                     @ < 2 4 1 & @               $ 1     > R ` Q U F K @.@.@.@.@.@.@.@.@.@.",
"@.@.@.@.@.@.@.@.@.@.` { E T U ) r                         # 1 p 5 4 1 @               1 d 2 o   g U K U Q Q C @.@.@.@.@.@.@.@.@.",
"@.@.@.@.@.@.@.@.@.@.[ Q ( { ^ A                           # 1 4 p 4 1 .               1 k d 2   > C ` ` Q ^ U @.@.@.@.@.@.@.@.@.",
"@.@.@.@.@.@.@.@.@.Y ] ^ Q W ( M   +                       X 1 4 4 4 < <                 q u V e   K ( W ^ ( ^ @.@.@.@.@.@.@.@.@.",
"@.@.@.@.@.@.@.@.@.F ] Q Q Q Q g   X               6 6 6 6 c p d p d 3 6 6 c c c 6 6 c 6 c v v V 9 D Q Q E Q ) @.@.@.@.@.@.@.@.@.",
"@.@.@.@.@.@.@.@.@.C ~ W Y Q K :                 6 c c c c c c j k f v c c b b b b c 6 c c b b v J w U Q W Q ^ u @.@.@.@.@.@.@.@.",
"@.@.@.@.@.@.@.@.@.T R U Y U r   X             6 c b b b c b b b b b b b b b n n n b c 6 c b b b T V B I I G K L @.@.@.@.@.@.@.@.",
"@.@.@.@.@.@.D E | O.O.O.+...r                 6 b n n b b b n n n n n n b b n n b b b c 6 c b c u T D ....{ ..O.X.` E r @.@.@.@.",
"@.@.@.@.@.@.I ( E E G L E Q r                 6 b n n b b n n n n n n n n b b c c b b b c 6 c 6 8 _ V Q ^ ( { ( Y ) I y @.@.@.@.",
"@.@.@.@.@.@./ | Q ' ) E E Q r                 6 b n b b c b b b n n b b b b c 6 c c b b b b 6 6 ! e J } ( ` { ' ) ^ U y @.@.@.@.",
"@.@.@.@.@.@.(  .E ' } { Q Q r   X           6 c c n b c c b b b b b b b b c c 6 6 6 c c b c 6 u J u K } Y ) ` ` ) ] I y @.@.@.@.",
"@.@.@.@.@.@.U ' ) ) ) [ ) R r               6 c c n b c c c b b b b b c c c c 6     6 6 6 & e 8 J   U X.Q ) ` ' ) ) U y @.@.@.@.",
"@.@.@.@.@.@.K ^ Q ( ( ( ) Q r               c c b b b c c c c c b b c c b c c 6         & & u J u   K ..Q ( ( ) Q Q K y @.@.@.@.",
"@.@.@.@.@.@.H Q L I U Y ( E e   X       q c b b n b c 6 c c b c c c c b b c c 6         & &   B X   J | Q E E E U U F u @.@.@.@.",
"@.@.@.@.@.@.D U L J D S F G r         u c b b n n b 6 c c b b b c c b b b b c c 6       & <         V K D S F G G F D g @.@.@.@.",
"@.@.@.@.@.@.g u u N L E U F r         8 c b n n n b 6 c c b b b c c b b b b c c 6       $ <         u G / ( K g u m g @.@.@.@.@.",
"@.@.@.@.@.@.@.@.@.I X.+.X.] r   X     U u b n n n b 6 c b b b b c c b b b b c c 6       # 1     X   F | ....( V @.@.@.@.@.@.@.@.",
"@.@.@.@.@.@.@.@.@.I | | ) ^ u         8 q b n n b c 6 c b b b c c c b b b b c c 6 6     # 1     +   I X.U R T B @.@.@.@.@.@.@.@.",
"@.@.@.@.@.@.@.@.@.F ) | ) ^ r         u T c b b b c 6 c b b b c c c b b b b c c 6 6     . $     +   I ..Q ) ( V @.@.@.@.@.@.@.@.",
"@.@.@.@.@.@.@.@.@.F Q ) ] ) r   X       U u r e c 6 c c b b b b c c b b b b c c 6 6 6           X   J } Q Y ( B @.@.@.@.@.@.@.@.",
"@.@.@.@.@.@.@.@.@.F Q ` ] W r           u > e   c 6 c c b b b b b c b b b b c c 6 6 6           X   J [ I I Y B @.@.@.@.@.@.@.@.",
"@.@.@.@.@.@.@.@.@.G / ^ Q Y r             B     c 6 c c b b b b b b b b b b b c 6 c 6 6             D ) U G I B @.@.@.@.@.@.@.@.",
"@.@.@.@.@.@.@.@.@.K Q T I U r   X             6 6 6 c c b b b b b b b b b b b c 6 c 6 6             V / E U E V @.@.@.@.@.@.@.@.",
"@.@.@.@.@.@.@.@.@.w m m u w e                 6 c 6 c b b b b b b b b b b b b c c c c 6             M B M B B e @.@.@.@.@.@.@.@.",
"@.@.@.@.@.@.F _ } ....} ' ' r               6 c c c c b b b b b b c b b b b b c c b b c 6           V _ [ [ ' ( ) E T m @.@.@.@.",
"@.@.@.@.@.@.K  .[ } }  .} ' y   X           6 c b c c b b b b b c c b b b b b c b b b b c 6     +   I X.) ] ` ) } { I y @.@.@.@.",
"@.@.@.@.@.@.I [ W ^ ) ^ ) Y e             6 c b b c c b b b b c c c c b b b b c b b b c c 4     X   J ) D U Q [ [ ` I y @.@.@.@.",
"@.@.@.@.@.@.T ' / ' [ ^ Q R e   X         6 b b b c c b b b c c c l l b b b b c b b c a 5       +   K | L Y ]  .{ ^ U g @.@.@.@.",
"@.@.@.@.@.@.( | ~ } ] ~ R E r             4 c b b c c b b c c c l < < z l b b h l h a i         +   I O.W ^ ) ^ ^ ) I y @.@.@.@.",
"@.@.@.@.@.@.R | ~ ` ` ^ E E r               4 5 c c c c c a z l   1 1   a z l l                 X   K ..) [ ] ] Q ^ U M @.@.@.@.",
"@.@.@.@.@.@.U { ^ ` [ Q Q U e                   4 h l z l a       1 & .                         X   G } ) ) ) } ) Q L u @.@.@.@.",
"@.@.@.@.@.@.G ) ( ^ E U U I r   X                                                                   B / ) ) Q ( / U S y @.@.@.@.",
"@.@.@.@.@.@.C F G S M V V C e                                     X X X X + X   X X X X X X X   X + u m M M V S S y N m @.@.@.@.",
"@.@.@.@.@.@.@.@.@.A ' | ) Q r                           X + + + + + + + + + o o + + X X o o X X +   N ( ....( M @.@.@.@.@.@.@.@.",
"@.@.@.@.@.@.@.@.@.G Q ( ` ) r                     X + + + + + + + + o o o o o o X   X   X X   X -   J | Q / ( B @.@.@.@.@.@.@.@.",
"@.@.@.@.@.@.@.@.@.F ~ / ( ) r               X X + + + + + X + X o X X o X X   X X X   X X   X X :   U ..Y ^ Q N @.@.@.@.@.@.@.@.",
"@.@.@.@.@.@.@.@.@.K ` / E ^ u         X X + + + + + + X X X X + o X   X   X   @.@.@.@.@.@.@.@.+ :   I | E ) ( B @.@.@.@.@.@.@.@.",
"@.@.@.@.@.@.@.@.@.L [ Q E ) r   X   + + + + + + + X X X X X X o X o @.@.@.@.@.@.@.@.@.@.@.@.@.@.@.@.G [ E E ' C @.@.@.@.@.@.@.@.",
"@.@.@.@.@.@.@.@.@.L ` Q E R r   + + + + + + o + + + X X X @.@.@.@.@.@.@.@.@.@.@.@.@.@.@.@.@.@.@.@.@.D ( ~ ) [ C @.@.@.@.@.@.@.@.",
"@.@.@.@.@.@.@.@.@.K ^ Y U I r   * * + + X X + + + + o @.@.@.@.@.@.@.@.@.@.@.@.@.@.@.@.@.@.@.@.@.@.@.C ^ ( [ } A @.@.@.@.@.@.@.@.",
"@.@.@.@.@.@.@.@.@.D U L L G u   - * + O + * + * * @.@.@.@.@.@.@.@.@.@.@.@.@.@.@.@.@.@.@.@.@.@.@.@.@.B R T E ( V @.@.@.@.@.@.@.@.",
"@.@.@.@.@.@.@.@.@.m m M m y e - - - * , + * - @.@.@.@.@.@.@.@.@.@.@.@.@.@.@.@.@.@.@.@.@.@.@.@.@.@.@.w g m m N m @.@.@.@.@.@.@.@."
};
