/* XPM */
static char *result[] = {
/* columns rows colors chars-per-pixel */
"64 64 218 2 ",
"   c black",
".  c #05070D",
"X  c #160606",
"o  c #000117",
"O  c #021117",
"+  c #1D1D1E",
"@  c #141110",
"#  c #231C1D",
"$  c #362410",
"%  c #000127",
"&  c #001B2C",
"*  c #191E22",
"=  c #2D1D2F",
"-  c #0A292A",
";  c #1B2227",
":  c #002337",
">  c #1D3637",
",  c #162A35",
"<  c #232325",
"1  c #242629",
"2  c #26282C",
"3  c #2A2A2D",
"4  c #2B2326",
"5  c #342C2B",
"6  c #2D2E31",
"7  c #242A30",
"8  c #213335",
"9  c #2D3135",
"0  c #2D343A",
"q  c #233A3D",
"w  c #293B3F",
"e  c #303235",
"r  c #32353A",
"t  c #33393E",
"y  c #3A322E",
"u  c #442C18",
"i  c #42373A",
"p  c #422934",
"a  c #6E4A13",
"s  c #6A4C2C",
"d  c #6C5137",
"f  c #745639",
"g  c #6E693E",
"h  c #1F3944",
"j  c #003245",
"k  c #263B42",
"l  c #353C42",
"z  c #393E43",
"x  c #004442",
"c  c #0A4748",
"v  c #17494D",
"b  c #004D51",
"n  c #005B5B",
"m  c #035558",
"M  c #145459",
"N  c #1A555A",
"B  c #175459",
"V  c #244145",
"C  c #24484B",
"Z  c #3E444A",
"A  c #37444A",
"S  c #3B4953",
"D  c #344755",
"F  c #265559",
"G  c #3B525A",
"H  c #33545B",
"J  c #2A4F55",
"K  c #395B64",
"L  c #255E64",
"P  c #006A67",
"I  c #0C7676",
"U  c #187A7C",
"Y  c #276969",
"T  c #42464C",
"R  c #43494F",
"E  c #444B52",
"W  c #494E54",
"Q  c #4E4751",
"!  c #4A5057",
"~  c #4C535A",
"^  c #44565D",
"/  c #52555C",
"(  c #525656",
")  c #675344",
"_  c #7F6142",
"`  c #6A6953",
"'  c #4E5B63",
"]  c #465967",
"[  c #555B63",
"{  c #595E65",
"}  c #575C66",
"|  c #5C636B",
" . c #52676D",
".. c #586973",
"X. c #5C7179",
"o. c #4C6C6B",
"O. c #63656D",
"+. c #66676B",
"@. c #7B6E67",
"#. c #627F6E",
"$. c #646B73",
"%. c #686B74",
"&. c #6B727A",
"*. c #627179",
"=. c #71767E",
"-. c #72787F",
";. c #70746F",
":. c #AB7634",
">. c #896745",
",. c #9E7445",
"<. c #9D7549",
"1. c #9E7B5A",
"2. c #8E6F4B",
"3. c #A17645",
"4. c #A57947",
"5. c #A37B4C",
"6. c #AE7C46",
"7. c #A37D53",
"8. c #B27E46",
"9. c #887363",
"0. c #857872",
"q. c #788672",
"w. c #73937A",
"e. c #F3A038",
"r. c #988153",
"t. c #A8834D",
"y. c #AA8156",
"u. c #B68955",
"i. c #BE925C",
"p. c #B28C56",
"a. c #978376",
"s. c #8E8E60",
"d. c #B48C62",
"f. c #B99265",
"g. c #BF9C74",
"h. c #AB8F74",
"j. c #C78D4A",
"k. c #D79649",
"l. c #DF9D53",
"z. c #D59956",
"x. c #E09E53",
"c. c #E79F4E",
"v. c #DBA15B",
"b. c #EBA04C",
"n. c #EAA454",
"m. c #E6A254",
"M. c #F4AA56",
"N. c #F0A243",
"B. c #C69B68",
"V. c #C6A175",
"C. c #D4AB7B",
"Z. c #3A7F87",
"A. c #4D7880",
"S. c #6D7C83",
"D. c #687685",
"F. c #747A82",
"G. c #797D85",
"H. c #797B85",
"J. c #198589",
"K. c #009D9A",
"L. c #318383",
"P. c #2B8D8D",
"I. c #00A9A8",
"U. c #22A3A1",
"Y. c #588488",
"T. c #5C999E",
"R. c #4E8E87",
"E. c #6A868B",
"W. c #7D838C",
"Q. c #76838C",
"!. c #789388",
"~. c #7C8991",
"^. c #758D94",
"/. c #66959A",
"(. c #739095",
"). c #669BA1",
"_. c #56B5BA",
"`. c #75A6AB",
"'. c #6CABB1",
"]. c #64B5C0",
"[. c #6AC8CA",
"{. c #82868E",
"}. c #808690",
"|. c #838A93",
" X c #8D949D",
".X c #989699",
"XX c #909486",
"oX c #B29882",
"OX c #B6A592",
"+X c #B5A88D",
"@X c #8C9DA6",
"#X c #8694A2",
"$X c #959BA4",
"%X c #9D9DA1",
"&X c #9CA3AD",
"*X c #96A2AB",
"=X c #9EA7B0",
"-X c #8DB6B5",
";X c #8BACB5",
":X c #A3AAB4",
">X c #A5AFBA",
",X c #ACB4BE",
"<X c #A5B0B9",
"1X c #B1B1AF",
"2X c #D1AB80",
"3X c #C7A887",
"4X c #C1AFA1",
"5X c #AFB7C1",
"6X c #AFB9C2",
"7X c #B3BBC5",
"8X c #B6BFCA",
"9X c #B6BCC7",
"0X c #95D3D9",
"qX c #93CED4",
"wX c #B9C1CB",
"eX c #B6CAD4",
"rX c #A6E1E8",
"tX c None",
/* pixels */
"tXtXtXtXtXtXtXtXtXtXtXtXtXtXtXtXtXtXtXtXtXtXtXtXtXtXtXtXtXtXtXtXtXtXtXtXtXtXtXtXtXtXtXtXtXtXtXtXtXtXtXtXtXtXtXtXtXtXtXtXtXtXtXtX",
"tXtXtXtXtXtXtXtXtXtXtXtXtXtXtXtXtXtXtXtXtXtXtXtXtXtXtXtXtXtXtXtXtXtXtXtXtXtXtXtXtXtXtXtXtXtXtXtXtXtXtXtXtXtXtXtXtXtXtXtXtXtXtXtX",
"tXtXtXtXtXtXtXtXtXtXtXtXtXtXtXtXtXtXtXtXtXtXtXtXtXtXtXtXtXtXtXtXtXtXtXtXtXtXtXtXtXtXtXtXtXtXtXtXtXtXtXtXtXtXtXtXtXtXtXtXtXtXtXtX",
"tXtXtXtXtXtXtXtXtXtXtXtXtXtXtXtXtXtXtXtXtXtXtXtXtXtXtXtXtXtXtXtXtXtXtXtXtXtXtXtXtXtXtXtXtXtXtXtXtXtXtXtXtXtXtXtXtXtXtXtXtXtXtXtX",
"tXtXtXtXtXtXtXtXtXtXtXtXtXtXtXtXtXtXtXtXtXtXtXtXtXtXtXtXtXtXtXtXtXtXtXtXtXtXtXx.x.tXtXtXtXtXtXtXtXtXtXtXtXtXtXtXtXtXtXtXtXtXtXtX",
"tXtXtXtXtXtXtXtXtXtXtXtXtXtXtXtXtXtXtXtXtXtXtXtXtXtXtXtXtXtXtXtXtXtXtXtXtXtXtXtXx.x.tXtXtXtXtXtXtXtXtXtXtXtXtXtXtXtXtXtXtXtXtXtX",
"tXtXtXtXtXtXtXtXtXtXtXtXtXtXtXtXtXtXtXtXtXtXtXtXtXtXtXtXtXtXtXtXtXtXtXtXtXtXtXtXtXtXtXtXl.x.x.tXtXtXtXtXtXtXtXtXtXtXtXtXtXtXtXtX",
"tXtXtXtXtXtXtXtXtXtXtXtXtXtXtXtXtXtXtXtXtXtXtXtXtXtXtXtXtXtXtXtXtXtXtXtXtXtXtXtXtXtXtXtXx.x.x.x.x.tXtXtXtXtXtXtXtXtXtXtXtXtXtXtX",
"tXtXtXtXtXtXtXtXtXtXtXtXtXtXtXtXtXtXtXtXtXtXtXtXtXtXtXtXtXtXtXtXtXtXtXtXtXtXtXtXtXtXtXtXtXtXtXx.x.x.x.x.x.tXtXtXtXtXtXtXtXtXtXtX",
"tXtXtXtXtXtXtXtXtXtXtXtXtXtXtXtXtXtXtXtXtXtXtXtXtXtXtXtXtXtXtXtXtXtXtXtXtXtXtXtXtXtXtXtXtXtXtXtXl.x.l.x.x.x.tXtXtXtXtXtXtXtXtXtX",
"tXtXtXtXtXtXtXtXtXtXtXtXtXtXtXtXtXtXtXtXtXtXtXtXtXtXtXtXtXtXtXtXtXtXtXtXtXtXtXtXtXtXtXtXtXtXtXtXtXl.m.x.x.x.x.x.x.tXtXtXtXtXtXtX",
"tXtXtXtXtXtXtXtXtXtXtXtXtXtXtXtXtXtXtXtXtXtXtXtXtXtXtXtXtXtXtXtXtXtXtXtXtXtXtXtXtXtXtXtXtXtXtXtXtXtXx.x.x.z.z.x.x.x.x.l.tXtXtXtX",
"tXtXtXtXtXtXtXtXtXtXtXtXtXtXtXtXtXtXtXtXtXtXtXtXtXtXtXtXtXtXtXtXtXtXtXtXtXtXtXtXtXtXtXtXtXtXtXtXtXtXtXx.c.q.q.m.x.x.x.x.x.tXtXtX",
"tXtXtXtXtXtXtXtXtXtXtXtXtXtXtXtXtXtXtXtXtXtXtXtXtXtXtXtXtXtXtXtXtXtXtXtXtXtXtXtXtXtXtXtXtXtXtXtXtXtXtXtXb.#.#.b.x.x.x.x.x.x.tXtX",
"tXtXtXtXtXtXtXtXtXtXtXtXtXtXtXtXtXtXtXtXtXtXtXtXtXtXtXtXtXtXtXtXtXtXtXtXtXtXtXtXtXtXtXtXtXtXtXtXtXtXtXtXN.!.!.N.x.x.x.l.x.x.x.tX",
"tXtXtXtXtXtXtXtXtXtXtXtXtXtXtXtXtXtXtXtXtXtXtXtXtXtXtXtXtXtXtXtXtXtXtXtXtXtXtXtXtXtXtXtXtXtXtXtXtXtXtXtXk.-X-Xk.x.x.x.x.x.x.x.x.",
"tXtXtXtXtXtXtXtXtXtXtXtXtXtXtXtXtXtXtXtXtXtXtXtXtXtXtXtXtXtXtXtXtXtXtXtXtXtXtXtXtXtXtXtXtXtXtXtXtXtXtXtXY 0X0Xo.v.n.m.x.x.x.x.x.",
"tXtXtXtXtXtXtXtXtXtXtXtXtXtXtXtXtXtXtXtXtXtXtXtXtXtXtXtXtXtXtXtXtXtXtXtXtXtXtXtXtXtXtXtXtXtXtXtXtXtXX k K /.T.x s j.M.M.x.x.x.x.",
"tXtXtXtXtXtXtXtXtXtXtXtXtXtXtXtXtXtXtXtXtXtXtXtXtXtXtXtXtXtXtXtXtXtXtXtXtXtXtXtXtXtXtXtXtXtXtXtXtXE [ } $.Q i Q J 2.:.t.l.x.l.x.",
"tXtXtXtXtXtXtXtXtXtXtXtXtXtXtXtXtXtXtXtXtXtXtXtXtXtXtXtXtXtXtXtXtXtXtXtXtXtXtXtXtXtXtXtXtXtXtX! 8 &.|.}.}.W.}.W.W./ % y z.m.x.x.",
"tXtXtXtXtXtXtXtXtXtXtXtXtXtXtXtXtXtXtXtXtXtXtXtXtXtXtXtXtXtXtXtXtXtXtXtXtXtXtXtXtXtXtXtXtXl ~.>XI *X9X,X,X,X5X>XG.H.| u k.n.m.x.",
"tXtXtXtXtXtXtXtXtXtXtXtXtXtXtXtXtXtXtXtXtXtXtXtXtXtXtXtXtXtXtXtXtXtXx.tXtXtXtXtXtXtXtXtX; }.5X6XE.Y.$XwXwX&X:X7X}.D.| / 9.9.7.e.",
"tXtXtXtXtXtXtXtXtXtXtXtXtXtXtXtXtXtXtXtXtXtXtXtXtXtXtXtXtXtXtXtXtXtXx.tXtXtXtXtXtXtXtXtXo =XeX5XH./.'.-X=XG.W.&XG.} E ' ] ] ;.+X",
"tXtXtXtXtXtXtXtXtXtXtXtXtXtXtXtXtXtXtXtXtXtXtXtXtXtXtXtXtXtXtXtXtXtXtXtXm.x.x.x.x.n.6.e $ .X9X:X[ qX0XK.^.$.| W.}.$.T Z  .| R.I.",
"tXtXtXtXtXtXtXtXtXtXtXtXtXtXtXtXtXtXtXtXtXtXtXtXtXtXtXtXtXtXtXtXtXtXtXtXtXtXtXx.x.n.j.<.7.d.a. .k G Y P.rX).X.6X5X5X%XD.U._.T.- ",
"tXtXtXtXtXtXtXtXtXtXtXtXtXtXtXtXtXtXtXtXtXtXtXtXtXtXtXtXtXtXtXtXtXtXtXtXtXtXtXtXtXtXtXa u.u.7.2.h.2.g w.[.J.S.wX9X XF.Q.Z.J.o.| ",
"tXtXtXtXtXtXtXtXtXtXtXtXtXtXtXtXtXtXtXtXtXtXtXtXtXtXtXtXtXtXtXtXtXtXtXtXtXtXtXtXtXtXK W.OXoX1.6.C.V.s.s./.P X.>X7XH.E $.G G X.~.",
"tXtXtXtXtXtXtXtXtXtXtXtXtXtXtXtXtXtXtXtXtXtXtXtXtXtXtXtXtXtXtXtXtXtXtXtXtXtXtXtXtX  {.wX7X#X;.7.V.C.B.r.t.` ' {.5X$X| 0 [ S.H.S.",
"tXtXtXtXtXtXtXtXtXtXtXtXtXtXtXtXtXtXtXtXtXtXtXtXtXtXtXtXtXtXtXtXtXtXtXtXtXtXtXtXtX  W.9X9XF.T H.F.h.i.i.f.d.f.3X9X@X| l } O.| | ",
"tXtXtXtXtXtXtXtXtXtXtXtXtXtXtXtXtXtXtXtXtXtXtXtXtXtXtXtXtXtXtXtXtXtXtXtXtXtXtXtXB n ^.,X$X=.{.>X>X.Xa.a.u.B.C.2XOXoX9.: A S E E ",
"tXtXtXtXtXtXtXtXtXtXtXtXtXtXtXtXtXtXtXtXtXtXtXtXtXtXtXtXtXtXtXtXtXtXtXtXtXtXtXtXB n `.eXE...W.=X$X}.D.~.1XOXV.V.B.u.7.) ) i , 0 ",
"tXtXtXtXtXtXtXtXtXtXtXtXtXtXtXtXtXtXtXtXtXtXtXtXtXtXtXtXtXtXtXtXtXtXtXtXtXtXtXtXtXo `.rXP.m H [ 0 ..F.Q.rX;X0.u.d.7.5.5.4.f 2 2 ",
"tXtXtXtXtXtXtXtXtXtXtXtXtXtXtXtXtXtXtXtXtXtXtXtXtXtXtXtXtXtXtXtXtXtXtXtXtXtXtXtXtX[ Q.~.m b H | F.&.! 0 ! '.T.u 5 ,.u.y.,.5.f % ",
"tXtXtXtXtXtXtXtXtXtXtXtXtXtXtXtXtXtXtXtXtXtXtXtXtXtXtXtXtXtXtXtXtXtXtXtXtXtXtXtXtXt { G.*XQ.^ | { E F.$Xp I I = | .X4XB.5.5.7.7.",
"tXtXtXtXtXtXtXtXtXtXtXtXtXtXtXtXtXtXtXtXtXtXtXtXtXtXtXtXtXtXtXtXtXtXtXtXtXtXtXtXtX  R H.:X{.[ } * $.$X$XK T.T.H O.#X1XB.5.,.y.f.",
"tXtXtXtXtXtXtXtXtXtXtXtXtXtXtXtXtXtXtXtXtXtXtXtXtXtXtXtXtXtXtXtXtXtXtXtXtXtXtXtXtX+ Z | &.$.[ [ R =X&XO P 0X0XP q S @.7.3.,.,.3.",
"tXtXtXtXtXtXtXtXtXtXtXtXtXtXtXtXtXtXtXtXtXtXtXtXtXtXtXtXtXtXtXtXtXtXtXtXtXtXtXtXtX+ R | O.| ! ! =XwX$X- M L.L.M 8 $.=.+.<.3.,.,.",
"tXtXtXtXtXtXtXtXtXtXtXtXtXtXtXtXtXtXtXtXtXtXtXtXtXtXtXtXtXtXtXtXtXtXtXtXtXtXtXtXtXX / -.W [ ! ! ,X:XW.! A m n F %.&.O.} ) >.3.,.",
"tXtXtXtXtXtXtXtXtXtXtXtXtXtXtXtXtXtXtXtXtXtXtXtXtXtXtXtXtXtXtXtXtXtXtXtXtXtXtXtXtXX ~ *.A E S ! ,X X[ E 6 k J ] F.O.[ ! j >.4.,.",
"tXtXtXtXtXtXtXtXtXtXtXtXtXtXtXtXtXtXtXtXtXtXtXtXtXtXtXtXtXtXtXtXtXtXtXtXtXtXtXtXtX6 C m l r 2 / ,X|.E ! ~ Z Z { [ | ~ 0 k _ 3.,.",
"tXtXtXtXtXtXtXtXtXtXtXtXtXtXtXtXtXtXtXtXtXtXtXtXtXtXtXtXtXtXtXtXtXtXtXtXtXtXtXtXN B B N A 6 * ~ 7XF.$.5X7X&.O l l [ [ t l 6 d 5.",
"tXtXtXtXtXtXtXtXtXtXtXtXtXtXtXtXtXtXtXtXtXtXtXtXtXtXtXtXtXtXtXtXtXtXtXtXtXtXtXtXtXC V k l 9 3 T =.$. XwX&XW.| ~ l z Z l l : d u.",
"tXtXtXtXtXtXtXtXtXtXtXtXtXtXtXtXtXtXtXtXtXtXtXtXtXtXtXtXtXtXtXtXtXtXtXtXtXtXtXtXtX4 3 3 l 9 6 9   ! W.$X$.O.%.| W E Z r r : f k.",
"tXtXtXtXtXtXtXtXtXtXtXtXtXtXtXtXtXtXtXtXtXtXtXtXtXtXtXtXtXtXtXtXtXtXtXtXtXtXtXtXtX6 3 6 l r 9 9 3 < < ; * @ l } } | ! < 3 & f j.",
"tXtXtXtXtXtXtXtXtXtXtXtXtXtXtXtXtXtXtXtXtXtXtXtXtXtXtXtXtXtXtXtXtXtXtXtXtXtXtXtXtXtX6 6 3 W | / e 1 3 3 3 3 3 9 e e e 3 3 & d 5.",
"tXtXtXtXtXtXtXtXtXtXtXtXtXtXtXtXtXtXtXtXtXtXtXtXtXtXtXtXtXtXtXtXtXtXtXtXtXtXtXtXtXtXtX6 1 / | R 6 3 6 1     . . 1 6 ;     o s :.",
"tXtXtXtXtXtXtXtXtXtXtXtXtXtXtXtXtXtXtXtXtXtXtXtXtXtXtXtXtXtXtXtXtXtXtXtXtXtXtXtXtXtXtXtX3 W ! r 0 6 < e &.F.G.F.{ E { -.-.S ( XX",
"tXtXtXtXtXtXtXtXtXtXtXtXtXtXtXtXtXtXtXtXtXtXtXtXtXtXtXtXtXtXtXtXtXtXtXtXtXtXtXtXtXtXtXtXtXr z l l 6 + ( ,XwX8X,X|.{ |.9XwXW.Z._.",
"tXtXtXtXtXtXtXtXtXtXtXtXtXtXtXtXtXtXtXtXtXtXtXtXtXtXtXtXtXtXtXtXtXtXtXtXtXtXtXtXtXtXtXtXtX3 3 3 6 + E W.,X9X:XW.W.| W.9X7X7X&XQ.",
"tXtXtXtXtXtXtXtXtXtXtXtXtXtXtXtXtXtXtXtXtXtXtXtXtXtXtXtXtXtXtXtXtXtXtXtXtXtXtXtXtXtXtXtX1 W ~ e 3   W |.7X:XW.| $.O. XwXwX@XX.( ",
"tXtXtXtXtXtXtXtXtXtXtXtXtXtXtXtXtXtXtXtXtXtXtXtXtXtXtXtXtXtXtXtXtXtXtXtXtXtXtXtXtXtXtXtX6 ! ! l 3 T { &.@XW.| [ ! O.~.*X:XS.v h ",
"tXtXtXtXtXtXtXtXtXtXtXtXtXtXtXtXtXtXtXtXtXtXtXtXtXtXtXtXtXtXtXtXtXtXtXtXtXtXtXtXtXtXtXtXl l l t < $.&.t ; E | [ A ! ^ b &.G.X.m ",
"tXtXtXtXtXtXtXtXtXtXtXtXtXtXtXtXtXtXtXtXtXtXtXtXtXtXtXtXtXtXtXtXtXtXtXtXtXtXtXtXtXtXtXtX3 9 6 6 3 2 } F.C q ! | F ' ~ x Z K L N ",
"tXtXtXtXtXtXtXtXtXtXtXtXtXtXtXtXtXtXtXtXtXtXtXtXtXtXtXtXtXtXtXtXtXtXtXtXtXtXtXtXtXtXtXtXe 6 3 6 3 # S  .c q Z E c A z > 3 > M C ",
"tXtXtXtXtXtXtXtXtXtXtXtXtXtXtXtXtXtXtXtXtXtXtXtXtXtXtXtXtXtXtXtXtXtXtXtXtXtXtXtXtXtXtXtXtXtXtXtX6 3 q x x w e 0 c > 4 3 3 5 tXtX",
"tXtXtXtXtXtXtXtXtXtXtXtXtXtXtXtXtXtXtXtXtXtXtXtXtXtXtXtXtXtXtXtXtXtXtXtXtXtXtXtXtXtXtXtXtXtXtXtXtXtX5 2 c 8 4 9 N C 4 3 3 9 tXtX",
"tXtXtXtXtXtXtXtXtXtXtXtXtXtXtXtXtXtXtXtXtXtXtXtXtXtXtXtXtXtXtXtXtXtXtXtXtXtXtXtXtXtXtXtXtXtXtXtXtXtXtXtXtXtXtXtXtXtXtXtXtXtXtXtX",
"tXtXtXtXtXtXtXtXtXtXtXtXtXtXtXtXtXtXtXtXtXtXtXtXtXtXtXtXtXtXtXtXtXtXtXtXtXtXtXtXtXtXtXtXtXtXtXtXtXtXtXtXtXtXtXtXtXtXtXtXtXtXtXtX",
"tXtXtXtXtXtXtXtXtXtXtXtXtXtXtXtXtXtXtXtXtXtXtXtXtXtXtXtXtXtXtXtXtXtXtXtXtXtXtXtXtXtXtXtXtXtXtXtXtXtXtXtXtXtXtXtXtXtXtXtXtXtXtXtX",
"tXtXtXtXtXtXtXtXtXtXtXtXtXtXtXtXtXtXtXtXtXtXtXtXtXtXtXtXtXtXtXtXtXtXtXtXtXtXtXtXtXtXtXtXtXtXtXtXtXtXtXtXtXtXtXtXtXtXtXtXtXtXtXtX",
"tXtXtXtXtXtXtXtXtXtXtXtXtXtXtXtXtXtXtXtXtXtXtXtXtXtXtXtXtXtXtXtXtXtXtXtXtXtXtXtXtXtXtXtXtXtXtXtXtXtXtXtXtXtXtXtXtXtXtXtXtXtXtXtX",
"tXtXtXtXtXtXtXtXtXtXtXtXtXtXtXtXtXtXtXtXtXtXtXtXtXtXtXtXtXtXtXtXtXtXtXtXtXtXtXtXtXtXtXtXtXtXtXtXtXtXtXtXtXtXtXtXtXtXtXtXtXtXtXtX",
"tXtXtXtXtXtXtXtXtXtXtXtXtXtXtXtXtXtXtXtXtXtXtXtXtXtXtXtXtXtXtXtXtXtXtXtXtXtXtXtXtXtXtXtXtXtXtXtXtXtXtXtXtXtXtXtXtXtXtXtXtXtXtXtX",
"tXtXtXtXtXtXtXtXtXtXtXtXtXtXtXtXtXtXtXtXtXtXtXtXtXtXtXtXtXtXtXtXtXtXtXtXtXtXtXtXtXtXtXtXtXtXtXtXtXtXtXtXtXtXtXtXtXtXtXtXtXtXtXtX"
};
