/* XPM */
static char *result[] = {
/* columns rows colors chars-per-pixel */
"64 64 215 2 ",
"   c black",
".  c #05080D",
"X  c #180606",
"o  c #000117",
"O  c #021117",
"+  c #191819",
"@  c #211E1F",
"#  c #36240F",
"$  c #000127",
"%  c #001B2C",
"&  c #191E22",
"*  c #2C1C2F",
"=  c #0B292B",
"-  c #1B2227",
";  c #002337",
":  c #1D3638",
">  c #162A35",
",  c #232325",
"<  c #242629",
"1  c #26282C",
"2  c #2A2B2E",
"3  c #2A2426",
"4  c #322B2A",
"5  c #2D2E31",
"6  c #242B30",
"7  c #213335",
"8  c #2D3135",
"9  c #2D343A",
"0  c #233A3D",
"q  c #293B3F",
"w  c #303235",
"e  c #32353A",
"r  c #34393E",
"t  c #39322E",
"y  c #442D18",
"u  c #42373A",
"i  c #422934",
"p  c #6E4A13",
"a  c #6A4C2C",
"s  c #6C5137",
"d  c #745639",
"f  c #6E693E",
"g  c #103743",
"h  c #243A43",
"j  c #353C42",
"k  c #393E43",
"l  c #004443",
"z  c #0A4748",
"x  c #17494D",
"c  c #004D51",
"v  c #005B5B",
"b  c #035558",
"n  c #1A555A",
"m  c #165459",
"M  c #244145",
"N  c #24484B",
"B  c #3E444A",
"V  c #37444A",
"C  c #3B4953",
"Z  c #344755",
"A  c #265559",
"S  c #3B525A",
"D  c #33545B",
"F  c #2A4F55",
"G  c #395B64",
"H  c #255E63",
"J  c #006A67",
"K  c #0C7676",
"L  c #187A7C",
"P  c #276869",
"I  c #42464C",
"U  c #43494F",
"Y  c #444B52",
"T  c #494E54",
"R  c #4E4751",
"E  c #4A5057",
"W  c #4C535A",
"Q  c #44565D",
"!  c #52565D",
"~  c #525656",
"^  c #675444",
"/  c #7F6142",
"(  c #6A6953",
")  c #4E5B63",
"_  c #465967",
"`  c #555B63",
"'  c #595E65",
"]  c #575B65",
"[  c #5C636B",
"{  c #55646C",
"}  c #586973",
"|  c #5C7179",
" . c #4C6D6B",
".. c #63656D",
"X. c #66676B",
"o. c #7B6E67",
"O. c #637F6E",
"+. c #646B73",
"@. c #686B74",
"#. c #6B727A",
"$. c #627179",
"%. c #71767E",
"&. c #72787F",
"*. c #70746F",
"=. c #AB7634",
"-. c #896745",
";. c #9E7445",
":. c #9D7549",
">. c #9E7B5A",
",. c #8E6F4B",
"<. c #A17645",
"1. c #A57947",
"2. c #A37B4C",
"3. c #AE7C46",
"4. c #A37D53",
"5. c #B27E46",
"6. c #887363",
"7. c #857872",
"8. c #788672",
"9. c #73937A",
"0. c #F29F37",
"q. c #988153",
"w. c #A8834D",
"e. c #AA8156",
"r. c #B68955",
"t. c #B58D57",
"y. c #978376",
"u. c #8E8E60",
"i. c #B48C62",
"p. c #B99265",
"a. c #BF9C74",
"s. c #AB8F74",
"d. c #C78D4A",
"f. c #D79648",
"g. c #DF9D53",
"h. c #D59956",
"j. c #C0935E",
"k. c #E09E53",
"l. c #DAA05B",
"z. c #E9A04F",
"x. c #EEA146",
"c. c #EBA454",
"v. c #E6A254",
"b. c #F4AA56",
"n. c #F0A243",
"m. c #C69B68",
"M. c #C6A275",
"N. c #D4AB7B",
"B. c #3A7F87",
"V. c #4D7880",
"C. c #6D7C83",
"Z. c #687685",
"A. c #747A82",
"S. c #797D85",
"D. c #797B85",
"F. c #198589",
"G. c #009D9A",
"H. c #318383",
"J. c #2B8D8D",
"K. c #00A9A8",
"L. c #22A3A1",
"P. c #588488",
"I. c #5C999E",
"U. c #4E8E87",
"Y. c #6A868B",
"T. c #7C838C",
"R. c #76838C",
"E. c #789388",
"W. c #7C8991",
"Q. c #758D94",
"!. c #66959A",
"~. c #739095",
"^. c #669BA1",
"/. c #56B5BA",
"(. c #75A6AB",
"). c #6CABB1",
"_. c #64B5C0",
"`. c #6AC8CA",
"'. c #81868E",
"]. c #808690",
"[. c #838A92",
"{. c #8D949D",
"}. c #989699",
"|. c #909486",
" X c #B29882",
".X c #B6A592",
"XX c #B4A78C",
"oX c #8C9DA6",
"OX c #8694A2",
"+X c #959BA4",
"@X c #9D9DA1",
"#X c #9CA3AD",
"$X c #96A2AB",
"%X c #9EA6B0",
"&X c #8DB6B5",
"*X c #8BACB5",
"=X c #A3AAB4",
"-X c #A5AFBA",
";X c #ACB4BE",
":X c #A5B0B9",
">X c #B1B1AF",
",X c #D1AB80",
"<X c #C7A887",
"1X c #C1AFA1",
"2X c #AFB7C1",
"3X c #AFB9C2",
"4X c #B3BBC5",
"5X c #B6BFCA",
"6X c #B6BCC7",
"7X c #95D3D9",
"8X c #93CED5",
"9X c #B9C1CB",
"0X c #B6CAD4",
"qX c #A6E1E8",
"wX c None",
/* pixels */
"wXwXwXwXwXwXwXwXwXwXwXwXwXwXwXwXwXwXwXwXwXwXwXwXwXwXwXwXwXwXwXwXwXwXwXwXwXwXwXwXwXwXwXwXwXwXwXwXwXwXwXwXwXwXwXwXwXwXwXwXwXwXwXwX",
"wXwXwXwXwXwXwXwXwXwXwXwXwXwXwXwXwXwXwXwXwXwXwXwXwXwXwXwXwXwXwXwXwXwXwXwXwXwXwXwXwXwXwXwXwXwXwXwXwXwXwXwXwXwXwXwXwXwXwXwXwXwXwXwX",
"wXwXwXwXwXwXwXwXwXwXwXwXwXwXwXwXwXwXwXwXwXwXwXwXwXwXwXwXwXwXwXwXwXwXwXwXwXwXwXwXwXwXwXwXwXwXwXwXwXwXwXwXwXwXwXwXwXwXwXwXwXwXwXwX",
"wXwXwXwXwXwXwXwXwXwXwXwXwXwXwXwXwXwXwXwXwXwXwXwXwXwXwXwXwXwXwXwXwXwXwXwXwXwXwXwXwXwXwXwXwXwXwXwXwXwXwXwXwXwXwXwXwXwXwXwXwXwXwXwX",
"wXwXwXwXwXwXwXwXwXwXwXwXwXwXwXwXwXwXwXwXwXwXwXk.k.wXwXwXwXwXwXwXwXwXwXwXwXwXwXwXwXwXwXwXwXwXwXwXwXwXwXwXwXwXwXwXwXwXwXwXwXwXwXwX",
"wXwXwXwXwXwXwXwXwXwXwXwXwXwXwXwXwXwXwXwXwXwXk.k.wXwXwXwXwXwXwXwXwXwXwXwXwXwXwXwXwXwXwXwXwXwXwXwXwXwXwXwXwXwXwXwXwXwXwXwXwXwXwXwX",
"wXwXwXwXwXwXwXwXwXwXwXwXwXwXwXwXwXk.k.k.wXwXwXwXwXwXwXwXwXwXwXwXwXwXwXwXwXwXwXwXwXwXwXwXwXwXwXwXwXwXwXwXwXwXwXwXwXwXwXwXwXwXwXwX",
"wXwXwXwXwXwXwXwXwXwXwXwXwXwXwXk.k.k.g.g.wXwXwXwXwXwXwXwXwXwXwXwXwXwXwXwXwXwXwXwXwXwXwXwXwXwXwXwXwXwXwXwXwXwXwXwXwXwXwXwXwXwXwXwX",
"wXwXwXwXwXwXwXwXwXwXwXk.k.k.g.k.k.wXwXwXwXwXwXwXwXwXwXwXwXwXwXwXwXwXwXwXwXwXwXwXwXwXwXwXwXwXwXwXwXwXwXwXwXwXwXwXwXwXwXwXwXwXwXwX",
"wXwXwXwXwXwXwXwXwXwXg.g.k.g.k.k.wXwXwXwXwXwXwXwXwXwXwXwXwXwXwXwXwXwXwXwXwXwXwXwXwXwXwXwXwXwXwXwXwXwXwXwXwXwXwXwXwXwXwXwXwXwXwXwX",
"wXwXwXwXwXwXwXv.g.v.k.v.g.v.g.wXwXwXwXwXwXwXwXwXwXwXwXwXwXwXwXwXwXwXwXwXwXwXwXwXwXwXwXwXwXwXwXwXwXwXwXwXwXwXwXwXwXwXwXwXwXwXwXwX",
"wXwXwXwXk.k.g.g.k.h.h.k.g.k.wXwXwXwXwXwXwXwXwXwXwXwXwXwXwXwXwXwXwXwXwXwXwXwXwXwXwXwXwXwXwXwXwXwXwXwXwXwXwXwXwXwXwXwXwXwXwXwXwXwX",
"wXwXwXk.g.g.g.g.g.8.8.z.g.wXwXwXwXwXwXwXwXwXwXwXwXwXwXwXwXwXwXwXwXwXwXwXwXwXwXwXwXwXwXwXwXwXwXwXwXwXwXwXwXwXwXwXwXwXwXwXwXwXwXwX",
"wXwXk.k.v.k.g.v.z.O.8.z.wXwXwXwXwXwXwXwXwXwXwXwXwXwXwXwXwXwXwXwXwXwXwXwXwXwXwXwXwXwXwXwXwXwXwXwXwXwXwXwXwXwXwXwXwXwXwXwXwXwXwXwX",
"wXk.k.k.k.g.g.g.n.E.E.n.wXwXwXwXwXwXwXwXwXwXwXwXwXwXwXwXwXwXwXwXwXwXwXwXwXwXwXwXwXwXwXwXwXwXwXwXwXwXwXwXwXwXwXwXwXwXwXwXwXwXwXwX",
"k.k.g.k.k.g.k.g.f.&X&Xf.wXwXwXwXwXwXwXwXwXwXwXwXwXwXwXwXwXwXwXwXwXwXwXwXwXwXwXwXwXwXwXwXwXwXwXwXwXwXwXwXwXwXwXwXwXwXwXwXwXwXwXwX",
"k.k.g.k.k.k.c.g. .7XqXP wXwXwXwXwXwXwXwXwXwXwXwXwXwXwXwXwXwXwXwXwXwXwXwXwXwXwXwXwXwXwXwXwXwXwXwXwXwXwXwXwXwXwXwXwXwXwXwXwXwXwXwX",
"k.k.g.g.c.b.d.a l P.!.H M X wXwXwXwXwXwXwXwXwXwXwXwXwXwXwXwXwXwXwXwXwXwXwXwXwXwXwXwXwXwXwXwXwXwXwXwXwXwXwXwXwXwXwXwXwXwXwXwXwXwX",
"k.k.k.g.5.3.-.D R u R X.[ ` U wXwXwXwXwXwXwXwXwXwXwXwXwXwXwXwXwXwXwXwXwXwXwXwXwXwXwXwXwXwXwXwXwXwXwXwXwXwXwXwXwXwXwXwXwXwXwXwXwX",
"k.g.v.h.t $ ) S.].].'.'.T.[.#.7 E wXwXwXwXwXwXwXwXwXwXwXwXwXwXwXwXwXwXwXwXwXwXwXwXwXwXwXwXwXwXwXwXwXwXwXwXwXwXwXwXwXwXwXwXwXwXwX",
"k.c.c.f.y [ D.T.:X;X;X;X;X4XoXK -XT.j wXwXwXwXwXwXwXwXwXwXwXwXwXwXwXwXwXwXwXwXwXwXwXwXwXwXwXwXwXwXwXwXwXwXwXwXwXwXwXwXwXwXwXwXwX",
"0.4.6.6.` [ Z.].4X%X%X9X9XoXP.R.3X3X[.- wXwXwXwXwXwXwXwXwXk.wXwXwXwXwXwXwXwXwXwXwXwXwXwXwXwXwXwXwXwXwXwXwXwXwXwXwXwXwXwXwXwXwXwX",
".X*._ ) ! Y ` S.#XT.T.=X&X).!.D.2X0X%Xo wXwXwXwXwXwXwXwXwXk.wXwXwXwXwXwXwXwXwXwXwXwXwXwXwXwXwXwXwXwXwXwXwXwXwXwXwXwXwXwXwXwXwXwX",
"K.U.} { B I ..].R...+.~.G.7X8X! =X6X}.# w 3.c.v.k.k.k.v.wXwXwXwXwXwXwXwXwXwXwXwXwXwXwXwXwXwXwXwXwXwXwXwXwXwXwXwXwXwXwXwXwXwXwXwX",
"= I./.L.%.#X3X;X3X$.!.qXJ.P Z g { y.i.4.:.d.v.k.g.wXwXwXwXwXwXwXwXwXwXwXwXwXwXwXwXwXwXwXwXwXwXwXwXwXwXwXwXwXwXwXwXwXwXwXwXwXwXwX",
"..V.B.B.R.A.{.4X9XC.J.`.9.f ,.s.,.4.r.r.p wXwXwXwXwXwXwXwXwXwXwXwXwXwXwXwXwXwXwXwXwXwXwXwXwXwXwXwXwXwXwXwXwXwXwXwXwXwXwXwXwXwXwX",
"].} m F +.U T.4X=X| J U.u.i.M.N.4.>. X.XS.G wXwXwXwXwXwXwXwXwXwXwXwXwXwXwXwXwXwXwXwXwXwXwXwXwXwXwXwXwXwXwXwXwXwXwXwXwXwXwXwXwXwX",
"A.D.#.) 8 [ +X;X'. .( w.q.M.,XM.4.o.OX4X9X[.  wXwXwXwXwXwXwXwXwXwXwXwXwXwXwXwXwXwXwXwXwXwXwXwXwXwXwXwXwXwXwXwXwXwXwXwXwXwXwXwXwX",
"[ ..[ ' j { +X4X<Xp.i.p.p.p.s.&.S.I %.5X6X'.  wXwXwXwXwXwXwXwXwXwXwXwXwXwXwXwXwXwXwXwXwXwXwXwXwXwXwXwXwXwXwXwXwXwXwXwXwXwXwXwXwX",
"Y Y B Z ; 6. X.X,XN.m.r.y.y.}.-X-X'.%.+X;XQ.v m wXwXwXwXwXwXwXwXwXwXwXwXwXwXwXwXwXwXwXwXwXwXwXwXwXwXwXwXwXwXwXwXwXwXwXwXwXwXwXwX",
"9 > u ^ ^ 4.t.j.M.M..X>XW.Z.[.+X%X].} Y.0X(.v m wXwXwXwXwXwXwXwXwXwXwXwXwXwXwXwXwXwXwXwXwXwXwXwXwXwXwXwXwXwXwXwXwXwXwXwXwXwXwXwX",
"1 1 d 1.4.2.e.i.t.7.*XqXQ.%...9 ! F v J.qX(.o wXwXwXwXwXwXwXwXwXwXwXwXwXwXwXwXwXwXwXwXwXwXwXwXwXwXwXwXwXwXwXwXwXwXwXwXwXwXwXwXwX",
"$ / <.<.4.r.,.t y ^.^.W 9 E @.A...D c b Q.A.` wXwXwXwXwXwXwXwXwXwXwXwXwXwXwXwXwXwXwXwXwXwXwXwXwXwXwXwXwXwXwXwXwXwXwXwXwXwXwXwXwX",
">.4.2.2.m.1X@X] * K K i +XA.Y ` [ Q A.$XS.' r wXwXwXwXwXwXwXwXwXwXwXwXwXwXwXwXwXwXwXwXwXwXwXwXwXwXwXwXwXwXwXwXwXwXwXwXwXwXwXwXwX",
"t.4.;.2.m.>XOX+.D I.I.G +X+X@.& ] ` '.-XS.T   wXwXwXwXwXwXwXwXwXwXwXwXwXwXwXwXwXwXwXwXwXwXwXwXwXwXwXwXwXwXwXwXwXwXwXwXwXwXwXwXwX",
"2.<.;.;.4.6.C h J 7X7XJ O #X=XI ` ] +.#.[ I @ wXwXwXwXwXwXwXwXwXwXwXwXwXwXwXwXwXwXwXwXwXwXwXwXwXwXwXwXwXwXwXwXwXwXwXwXwXwXwXwXwX",
"<.;.;.<.( A.+.7 m H.H.m = +X5X=XE E [ [ [ I + wXwXwXwXwXwXwXwXwXwXwXwXwXwXwXwXwXwXwXwXwXwXwXwXwXwXwXwXwXwXwXwXwXwXwXwXwXwXwXwXwX",
";.<.-.^ [ } @.$.A v b V T R.-X;XE E ` E &.! + wXwXwXwXwXwXwXwXwXwXwXwXwXwXwXwXwXwXwXwXwXwXwXwXwXwXwXwXwXwXwXwXwXwXwXwXwXwXwXwXwX",
";.<.-.g E ! +.A._ F h 8 Y ` {.;XW C T j $.W X wXwXwXwXwXwXwXwXwXwXwXwXwXwXwXwXwXwXwXwXwXwXwXwXwXwXwXwXwXwXwXwXwXwXwXwXwXwXwXwXwX",
";.,./ h r W { ! [ I V W E Y [.;XW 1 9 V b M 2 wXwXwXwXwXwXwXwXwXwXwXwXwXwXwXwXwXwXwXwXwXwXwXwXwXwXwXwXwXwXwXwXwXwXwXwXwXwXwXwXwX",
"<.s 8 j j ] ] j k O A.2X;X+.A.4X! & w V m n n n wXwXwXwXwXwXwXwXwXwXwXwXwXwXwXwXwXwXwXwXwXwXwXwXwXwXwXwXwXwXwXwXwXwXwXwXwXwXwXwX",
"d.s % j j k k j T [ R.#X5X{.@.%.I 2 8 j q M M wXwXwXwXwXwXwXwXwXwXwXwXwXwXwXwXwXwXwXwXwXwXwXwXwXwXwXwXwXwXwXwXwXwXwXwXwXwXwXwXwX",
"h.d % j j k Y E [ +.X.+.+X].W   8 2 8 j 3 2 3 wXwXwXwXwXwXwXwXwXwXwXwXwXwXwXwXwXwXwXwXwXwXwXwXwXwXwXwXwXwXwXwXwXwXwXwXwXwXwXwXwX",
"d.d % 2 < E [ ] ' r + & , & , 2 8 w r r 5 2 5 wXwXwXwXwXwXwXwXwXwXwXwXwXwXwXwXwXwXwXwXwXwXwXwXwXwXwXwXwXwXwXwXwXwXwXwXwXwXwXwXwX",
"1.s % 2 2 w e w w 5 1 2 2 2 1 w ! [ W 1 5 w wXwXwXwXwXwXwXwXwXwXwXwXwXwXwXwXwXwXwXwXwXwXwXwXwXwXwXwXwXwXwXwXwXwXwXwXwXwXwXwXwXwX",
"=.a o     & 5 <   .     1 2 1 5 U [ ! , 2 wXwXwXwXwXwXwXwXwXwXwXwXwXwXwXwXwXwXwXwXwXwXwXwXwXwXwXwXwXwXwXwXwXwXwXwXwXwXwXwXwXwXwX",
"|.~ Z A.A.] Y ] A.R.D.#.w , 5 w e E T 1 wXwXwXwXwXwXwXwXwXwXwXwXwXwXwXwXwXwXwXwXwXwXwXwXwXwXwXwXwXwXwXwXwXwXwXwXwXwXwXwXwXwXwXwX",
"/.B.W.5X9X[.' ].;X4X9X;X! + 8 j j j e wXwXwXwXwXwXwXwXwXwXwXwXwXwXwXwXwXwXwXwXwXwXwXwXwXwXwXwXwXwXwXwXwXwXwXwXwXwXwXwXwXwXwXwXwX",
"R.%X4X4X9XT.[ T.T.=X9X;XT.U + 8 2 2 2 wXwXwXwXwXwXwXwXwXwXwXwXwXwXwXwXwXwXwXwXwXwXwXwXwXwXwXwXwXwXwXwXwXwXwXwXwXwXwXwXwXwXwXwXwX",
"~ +.oX5X9X{.+.+.[ T.-X4X[.T   5 w W T , wXwXwXwXwXwXwXwXwXwXwXwXwXwXwXwXwXwXwXwXwXwXwXwXwXwXwXwXwXwXwXwXwXwXwXwXwXwXwXwXwXwXwXwX",
"h x C.=X$XT...E ` [ T.{.#.' U 1 r W W 8 wXwXwXwXwXwXwXwXwXwXwXwXwXwXwXwXwXwXwXwXwXwXwXwXwXwXwXwXwXwXwXwXwXwXwXwXwXwXwXwXwXwXwXwX",
"b | D.#.c Q W j { [ U - r #.@., r r r j wXwXwXwXwXwXwXwXwXwXwXwXwXwXwXwXwXwXwXwXwXwXwXwXwXwXwXwXwXwXwXwXwXwXwXwXwXwXwXwXwXwXwXwX",
"m H D B l ) { n [ E 0 N &.] 2 2 5 5 w 2 wXwXwXwXwXwXwXwXwXwXwXwXwXwXwXwXwXwXwXwXwXwXwXwXwXwXwXwXwXwXwXwXwXwXwXwXwXwXwXwXwXwXwXwX",
"F x 0 5 6 V V z U I 0 z  .V @ 2 2 5 2 w wXwXwXwXwXwXwXwXwXwXwXwXwXwXwXwXwXwXwXwXwXwXwXwXwXwXwXwXwXwXwXwXwXwXwXwXwXwXwXwXwXwXwXwX",
"wXwX4 2 2 3 : z 9 w q l c : 4 5 wXwXwXwXwXwXwXwXwXwXwXwXwXwXwXwXwXwXwXwXwXwXwXwXwXwXwXwXwXwXwXwXwXwXwXwXwXwXwXwXwXwXwXwXwXwXwXwX",
"wXwX8 1 2 3 M n 8 3 : g 2 4 wXwXwXwXwXwXwXwXwXwXwXwXwXwXwXwXwXwXwXwXwXwXwXwXwXwXwXwXwXwXwXwXwXwXwXwXwXwXwXwXwXwXwXwXwXwXwXwXwXwX",
"wXwXwXwXwXwXwXwXwXwXwXwXwXwXwXwXwXwXwXwXwXwXwXwXwXwXwXwXwXwXwXwXwXwXwXwXwXwXwXwXwXwXwXwXwXwXwXwXwXwXwXwXwXwXwXwXwXwXwXwXwXwXwXwX",
"wXwXwXwXwXwXwXwXwXwXwXwXwXwXwXwXwXwXwXwXwXwXwXwXwXwXwXwXwXwXwXwXwXwXwXwXwXwXwXwXwXwXwXwXwXwXwXwXwXwXwXwXwXwXwXwXwXwXwXwXwXwXwXwX",
"wXwXwXwXwXwXwXwXwXwXwXwXwXwXwXwXwXwXwXwXwXwXwXwXwXwXwXwXwXwXwXwXwXwXwXwXwXwXwXwXwXwXwXwXwXwXwXwXwXwXwXwXwXwXwXwXwXwXwXwXwXwXwXwX",
"wXwXwXwXwXwXwXwXwXwXwXwXwXwXwXwXwXwXwXwXwXwXwXwXwXwXwXwXwXwXwXwXwXwXwXwXwXwXwXwXwXwXwXwXwXwXwXwXwXwXwXwXwXwXwXwXwXwXwXwXwXwXwXwX",
"wXwXwXwXwXwXwXwXwXwXwXwXwXwXwXwXwXwXwXwXwXwXwXwXwXwXwXwXwXwXwXwXwXwXwXwXwXwXwXwXwXwXwXwXwXwXwXwXwXwXwXwXwXwXwXwXwXwXwXwXwXwXwXwX",
"wXwXwXwXwXwXwXwXwXwXwXwXwXwXwXwXwXwXwXwXwXwXwXwXwXwXwXwXwXwXwXwXwXwXwXwXwXwXwXwXwXwXwXwXwXwXwXwXwXwXwXwXwXwXwXwXwXwXwXwXwXwXwXwX",
"wXwXwXwXwXwXwXwXwXwXwXwXwXwXwXwXwXwXwXwXwXwXwXwXwXwXwXwXwXwXwXwXwXwXwXwXwXwXwXwXwXwXwXwXwXwXwXwXwXwXwXwXwXwXwXwXwXwXwXwXwXwXwXwX",
"wXwXwXwXwXwXwXwXwXwXwXwXwXwXwXwXwXwXwXwXwXwXwXwXwXwXwXwXwXwXwXwXwXwXwXwXwXwXwXwXwXwXwXwXwXwXwXwXwXwXwXwXwXwXwXwXwXwXwXwXwXwXwXwX"
};
