/* XPM */
static char *result[] = {
/* columns rows colors chars-per-pixel */
"64 64 181 2 ",
"   c black",
".  c #00000F",
"X  c #0C0F14",
"o  c #061117",
"O  c #111C1F",
"+  c #1C1C1E",
"@  c #181718",
"#  c #17080D",
"$  c #230006",
"%  c #29121B",
"&  c #001D2D",
"*  c #0D1B22",
"=  c #1D1E22",
"-  c #001B3B",
";  c #231F22",
":  c #00202F",
">  c #1C2428",
",  c #19232A",
"<  c #1D2D38",
"1  c #1D3538",
"2  c #222325",
"3  c #242629",
"4  c #2B2629",
"5  c #27282C",
"6  c #2A2A2D",
"7  c #2A2224",
"8  c #32272D",
"9  c #2B2D31",
"0  c #222D34",
"q  c #322E32",
"w  c #2E3136",
"e  c #25353B",
"r  c #2D3339",
"t  c #26373A",
"y  c #323236",
"u  c #33363B",
"i  c #33393E",
"p  c #393B3F",
"a  c #6A4000",
"s  c #002840",
"d  c #273C40",
"f  c #353C42",
"g  c #393D43",
"h  c #06474A",
"j  c #1C4B4F",
"k  c #084F54",
"l  c #1A4C51",
"z  c #005255",
"x  c #00575A",
"c  c #18565A",
"v  c #3B4146",
"b  c #3E444A",
"n  c #264E52",
"m  c #344B51",
"M  c #235053",
"N  c #2B5258",
"B  c #3E5259",
"V  c #254248",
"C  c #1B5A60",
"Z  c #255E62",
"A  c #3B5C63",
"S  c #375D63",
"D  c #006364",
"F  c #006E6C",
"G  c #0D6A6B",
"H  c #136768",
"J  c #017573",
"K  c #027C7B",
"L  c #38686E",
"P  c #42454B",
"I  c #42484F",
"U  c #49454C",
"Y  c #464B52",
"T  c #494E55",
"R  c #4B5157",
"E  c #4C535B",
"W  c #435157",
"Q  c #50565D",
"!  c #53585F",
"~  c #7A5D43",
"^  c #545C63",
"/  c #595E66",
"(  c #465D64",
")  c #655F68",
"_  c #47646A",
"`  c #5D636B",
"'  c #5B6A75",
"]  c #43767D",
"[  c #57737E",
"{  c #61666D",
"}  c #646B73",
"|  c #686D75",
" . c #6B6F78",
".. c #616C7A",
"X. c #756E79",
"o. c #61727A",
"O. c #6C737B",
"+. c #71767F",
"@. c #7D747F",
"#. c #845E39",
"$. c #856037",
"%. c #B17934",
"&. c #93755F",
"*. c #AD7B45",
"=. c #87736A",
"-. c #02807D",
";. c #B58047",
":. c #9C867B",
">. c #C38740",
",. c #C38946",
"<. c #DF9E53",
"1. c #E09E53",
"2. c #E8A14C",
"3. c #E4A154",
"4. c #EAA656",
"5. c #EDA857",
"6. c #F6AD5B",
"7. c #4A7B82",
"8. c #6A7C86",
"9. c #647682",
"0. c #727780",
"q. c #757B84",
"w. c #787C85",
"e. c #7B7F89",
"r. c #038684",
"t. c #1B9392",
"y. c #178684",
"u. c #2E8386",
"i. c #00A09D",
"p. c #01A8A5",
"a. c #19A5A3",
"s. c #38AAAC",
"d. c #2EAFAE",
"f. c #5A868D",
"g. c #4C9097",
"h. c #569099",
"j. c #7D838C",
"k. c #76848D",
"l. c #7A8991",
"z. c #5899A2",
"x. c #5BABAE",
"c. c #45ABB1",
"v. c #5FACB5",
"b. c #57B7BC",
"n. c #65B3BC",
"m. c #6CB4BD",
"M. c #70B6B9",
"N. c #6CBAC4",
"B. c #81858E",
"V. c #808790",
"C. c #848A93",
"Z. c #898E97",
"A. c #8B929B",
"S. c #A38F85",
"D. c #949BA4",
"F. c #999FA8",
"G. c #9097A0",
"H. c #879CA5",
"J. c #9BA3AC",
"K. c #97A4AD",
"L. c #9FA6B0",
"P. c #9CACB5",
"I. c #84ADB5",
"U. c #A1A6AF",
"Y. c #A3ABB4",
"T. c #A7AEB8",
"R. c #A0A7B1",
"E. c #ABB2BC",
"W. c #9AB7C1",
"Q. c #AEB9C3",
"!. c #B3BBC5",
"~. c #B5BCC6",
"^. c #8FD4DD",
"/. c #92D1DA",
"(. c #89CAD3",
"). c #BAC2CC",
"_. c #9DEBF0",
"`. c #ACE9F0",
"'. c #B1EBF2",
"]. c #BAF1FA",
"[. c None",
/* pixels */
"[.[.[.[.[.[.[.[.[.[.[.[.[.[.[.[.[.[.[.[.[.[.[.[.[.[.[.[.[.[.[.[.[.[.[.[.[.[.[.[.[.[.[.[.[.[.[.[.[.[.[.[.[.[.[.[.[.[.[.[.[.[.[.[.",
"[.[.[.[.[.[.[.[.[.[.[.[.[.[.[.[.[.[.[.[.[.[.[.[.[.[.[.[.[.[.[.[.[.[.[.[.[.[.[.[.[.[.[.[.[.[.[.[.[.[.[.[.[.[.[.[.[.[.[.[.[.[.[.[.",
"[.[.[.[.[.[.[.[.[.[.[.[.[.[.[.[.[.[.[.[.[.[.[.[.[.[.[.[.[.[.[.[.[.[.[.[.[.[.[.[.[.[.[.[.[.[.[.[.[.[.[.[.[.[.[.[.[.[.[.[.[.[.[.[.",
"[.[.[.[.[.[.[.[.[.[.[.[.[.[.[.[.[.[.[.[.[.[.[.[.[.[.[.[.[.[.[.[.[.[.[.[.[.[.[.[.[.[.[.[.[.[.[.[.[.[.[.[.[.[.[.[.[.[.[.[.[.[.[.[.",
"[.[.[.[.[.[.[.[.[.[.[.[.[.[.[.[.[.[.[.[.[.[.[.[.[.[.[.[.[.[.[.[.[.[.[.[.[.[.[.[.[.[.[.[.[.[.[.[.[.[.[.[.[.[.[.[.[.[.[.[.[.[.[.[.",
"[.[.[.[.[.[.[.[.[.[.[.[.[.[.[.[.[.[.[.[.[.[.[.[.[.[.[.[.[.[.[.[.[.[.[.[.[.[.[.[.[.[.[.[.[.[.[.[.[.[.[.[.[.[.[.[.[.[.[.[.[.[.[.[.",
"[.[.[.[.[.[.[.[.[.[.[.[.[.[.[.[.[.[.[.[.[.[.[.[.[.[.[.[.[.[.[.[.[.[.[.[.[.[.[.[.[.[.[.[.[.[.[.[.[.[.[.[.[.[.[.[.[.[.[.[.[.[.[.[.",
"[.[.[.[.[.[.[.[.[.[.[.[.[.[.[.[.[.[.[.[.[.[.[.[.[.[.[.[.[.[.[.[.[.[.[.[.[.[.[.[.[.[.[.[.[.[.[.[.[.[.[.[.[.[.[.[.[.[.[.[.[.[.[.[.",
"[.[.[.[.[.[.[.[.[.[.[.[.[.[.[.[.[.[.[.[.[.[.[.[.[.[.[.[.[.[.[.[.[.[.[.[.[.[.[.[.[.[.[.[.[.[.[.[.[.[.[.[.[.[.[.[.[.[.[.[.[.[.[.[.",
"[.[.[.[.[.[.[.[.[.[.[.[.[.[.[.[.[.[.[.[.[.[.[.[.[.[.[.[.[.[.[.[.[.[.[.[.[.[.[.[.[.[.[.[.[.[.[.[.[.[.[.[.[.[.[.[.[.[.[.[.[.[.[.[.",
"[.[.[.[.[.[.[.[.[.[.[.[.[.[.[.[.[.[.[.[.[.[.[.[.[.[.[.[.[.[.[.[.[.[.[.[.[.[.[.[.[.[.[.[.[.[.[.[.[.[.[.[.[.[.[.[.[.[.[.[.[.[.[.[.",
"[.[.[.[.[.[.[.[.[.[.[.[.[.[.[.[.[.[.[.[.[.[.[.[.[.[.[.[.[.[.[.[.[.[.[.[.[.[.[.[.[.[.[.[.[.[.[.[.[.[.[.[.[.[.[.[.[.[.[.[.[.[.[.[.",
"[.[.[.[.[.[.[.[.[.[.[.[.[.[.[.[.[.[.[.[.[.[.[.[.[.[.[.[.[.[.[.[.[.[.[.[.[.[.[.[.[.[.[.[.[.[.[.[.[.[.[.[.[.[.[.[.[.[.[.[.[.[.[.[.",
"[.[.[.[.[.[.[.[.[.[.[.[.[.[.[.[.[.[.[.[.[.[.[.[.[.[.[.[.[.[.[.[.[.[.[.[.[.[.[.[.[.[.[.[.[.[.[.[.[.[.[.[.[.[.[.[.[.[.[.[.[.[.[.[.",
"[.[.[.[.[.[.[.[.[.[.[.[.[.[.[.[.[.[.[.[.[.[.[.[.[.[.[.[.[.[.[.[.[.[.[.[.[.[.[.[.[.[.[.[.[.[.[.[.[.[.[.[.[.[.[.[.[.[.[.[.[.[.[.[.",
"[.[.[.[.[.[.[.[.[.[.[.[.[.[.[.[.[.[.[.[.[.[.[.[.[.[.[.[.[.[.[.[.[.[.[.[.[.[.[.[.[.[.[.[.[.[.[.[.[.[.[.[.[.[.[.[.[.[.[.[.[.[.[.[.",
"[.[.[.[.[.[.[.[.[.[.[.[.[.[.[.[.[.[.[.[.[.[.[.[.[.[.[.[.[.[.[.[.[.[.[.[.[.[.[.[.[.[.[.[.[.[.[.[.[.[.[.[.[.[.[.[.[.[.[.[.[.[.[.[.",
"[.[.[.[.[.[.[.[.[.[.[.[.[.[.[.[.[.[.[.[.[.[.[.[.[.[.[.[.[.[.[.[.[.[.[.[.[.[.[.[.[.[.[.[.[.[.[.[.[.[.[.[.[.[.[.[.[.[.[.[.[.[.[.[.",
"[.[.[.[.[.[.[.[.[.[.[.[.[.[.[.[.[.[.[.[.[.[.[.[.[.[.[.[.[.[.[.[.[.[.[.[.[.[.[.[.[.[.[.[.[.[.[.[.[.[.[.[.[.[.[.[.[.[.[.[.[.[.[.[.",
"[.[.[.[.[.[.[.[.[.[.[.[.[.[.[.[.[.[.[.[.[.[.[.[.[.[.[.[.[.[.[.[.[.[.[.[.[.[.[.[.[.[.[.[.[.[.[.[.[.[.[.[.[.[.[.[.[.[.[.[.[.[.[.[.",
"[.[.[.[.[.[.[.[.[.[.[.[.[.[.[.[.[.[.[.[.[.[.[.[.[.[.[.[.[.[.[.[.[.[.[.[.[.[.[.[.[.[.[.[.[.[.[.[.[.[.[.[.[.[.[.[.[.[.[.[.[.[.[.[.",
"[.[.[.[.[.[.[.[.[.[.[.[.[.[.[.[.[.[.[.[.[.[.[.[.[.[.[.[.[.[.[.[.[.[.[.[.[.[.[.[.[.[.[.[.[.[.[.[.[.[.[.[.[.[.[.[.[.[.[.[.[.[.[.[.",
"[.[.[.[.[.[.[.[.[.[.[.[.[.[.[.[.[.[.[.[.[.[.[.[.[.[.[.[.[.[.[.[.[.[.[.[.[.[.[.[.[.[.[.[.[.[.[.[.[.[.[.[.[.[.[.[.[.[.[.[.[.[.[.[.",
"[.[.[.[.[.[.[.[.[.[.[.[.[.[.[.[.[.[.[.[.[.[.[.[.[.[.[.[.[.[.[.[.[.[.[.[.[.[.[.[.[.[.[.[.[.[.[.[.[.[.[.[.[.[.[.[.[.[.[.[.[.[.[.[.",
"[.[.[.[.[.[.[.[.[.[.[.[.[.[.[.[.[.[.[.[.[.[.[.[.[.[.[.[.[.[.[.[.[.[.[.[.[.[.[.[.[.[.[.[.[.[.[.[.[.[.[.[.[.[.[.[.[.[.[.[.[.[.[.[.",
"[.[.[.[.[.[.[.[.[.[.[.[.[.[.[.[.[.[.[.[.[.[.[.[.[.[.[.[.[.[.[.[.[.[.[.[.[.[.[.[.[.[.[.[.[.[.[.[.[.[.[.[.[.[.[.[.[.[.[.[.[.[.[.[.",
"[.[.[.[.[.[.[.[.[.[.[.[.[.[.[.[.[.[.[.[.[.[.[.[.[.[.[.[.[.[.[.[.[.[.[.[.[.[.[.[.[.[.[.[.[.[.[.[.[.[.[.[.[.[.[.[.[.[.[.[.[.[.[.[.",
"[.[.[.[.[.[.[.[.[.[.[.[.[.[.[.[.[.[.[.[.[.[.[.[.[.[.[.[.[.[.[.[.[.[.[.[.[.[.[.[.[.[.[.[.[.[.[.[.[.[.[.[.[.[.[.[.[.[.[.[.[.[.[.[.",
"[.[.[.[.[.[.[.[.[.[.[.[.[.[.[.[.[.[.[.[.[.[.[.[.[.[.[.[.[.[.[.[.[.[.[.[.[.[.[.[.[.[.[.[.[.[.[.[.[.[.[.[.[.[.[.[.[.[.[.[.[.[.[.[.",
"[.[.[.[.[.[.[.[.[.[.[.[.[.[.[.[.[.[.[.[.[.[.[.[.[.[.[.[.[.[.[.[.[.[.[.[.[.[.[.[.[.[.[.[.[.[.[.[.[.[.[.[.[.[.[.[.[.[.[.[.[.[.[.[.",
"[.[.[.[.[.[.[.[.[.[.[.[.[.[.[.[.[.[.[.[.[.[.[.[.[.[.[.[.[.[.[.[.[.[.[.[.[.[.[.[.[.[.[.[.[.[.[.[.[.[.[.[.[.[.[.[.[.[.[.[.[.[.[.[.",
"[.[.[.[.[.[.[.[.[.[.[.[.[.[.[.[.[.[.[.[.[.[.[.[.[.[.[.[.[.[.[.[.[.[.[.[.[.[.[.[.[.[.[.[.[.[.[.[.[.[.[.[.[.[.[.[.[.[.[.[.[.[.[.[.",
"[.[.[.[.[.[.[.[.[.[.[.[.[.[.[.[.[.[.[.[.[.[.[.[.[.[.[.[.[.[.[.[.[.[.[.[.[.[.[.[.[.[.[.[.[.[.[.[.[.[.[.[.[.[.[.[.[.[.[.[.[.[.[.[.",
"[.[.[.[.[.[.[.[.[.[.[.[.[.[.[.[.[.[.[.[.[.[.[.[.[.[.[.[.[.[.[.[.[.[.[.[.[.[.[.[.[.[.[.[.[.[.[.[.[.[.[.[.[.[.[.[.[.[.[.[.[.[.[.[.",
"[.[.[.[.[.[.[.[.[.[.[.[.[.[.[.[.[.[.[.[.[.[.[.[.[.[.[.[.[.[.[.[.[.[.[.[.[.[.[.[.[.[.[.[.[.[.[.[.[.[.[.[.[.[.[.[.[.[.[.[.[.[.[.[.",
"[.[.[.[.[.[.[.[.[.[.[.[.[.[.[.[.[.[.[.[.[.[.[.[.[.[.[.[.[.[.[.[.[.[.[.[.[.[.[.[.[.[.[.[.[.[.[.[.[.[.[.[.[.[.[.[.[.[.[.[.[.[.[.[.",
"[.[.[.[.[.[.[.[.[.[.[.[.[.[.[.[.[.[.[.[.[.[.[.[.[.[.[.[.[.[.[.[.'.[.[.[.[.[.[.[.[.[.[.[.[.[.[.[.[.[.[.[.[.[.[.[.[.[.[.[.[.[.[.[.",
"[.[.[.[.[.[.[.[.[.[.[.[.[.[.[.[.[.[.[.[.[.[.[.[.[.[.[.[.[.[.[.[.(.[.[.[.[.[.[.[.[.[.[.[.[.[.[.[.[.[.[.[.[.[.[.[.[.[.[.[.[.[.[.[.",
"[.[.[.[.[.[.[.[.[.[.[.[.[.[.[.[.[.[.[.[.[.[.[.[.[.[.[.[.[.[.[.[.c.[.[.[.[.[.[.[.[.[.[.[.[.[.[.[.[.[.[.[.[.[.[.[.[.[.[.[.[.[.[.[.",
"[.[.[.[.[.[.[.[.[.[.[.[.[.[.[.[.[.[.[.[.[.[.[.[.[.[.[.[.[.[.[.[.p.[.[.[.[.[.[.[.[.[.[.[.[.[.[.[.[.[.[.[.[.[.[.[.[.[.[.[.[.[.[.[.",
"[.[.[.[.[.[.[.[.[.[.[.[.[.[.[.[.[.[.[.[.[.[.[.[.[.[.[.[.[.[.[.[.-.[.[.[.[.[.[.[.[.[.[.[.[.[.[.[.[.[.[.[.[.[.[.[.[.[.[.[.[.[.[.[.",
"[.[.[.[.[.[.[.[.[.[.[.[.N.[.[.[.[.[.[.[.[.[.[.[.[.[.[.[.[.[.[.p.G [.[.[.[.[.[.[.[.[.[.[.[.[.[.[.[.[.[.n.[.[.[.[.[.[.[.[.[.[.[.[.",
"[.[.[.[.[.[.[.[.[.[.[.[.v.^.[.[.[.[.[.[.[.[.[.[.[.[.[.[.[.[.y.p.H l [.[.[.[.[.[.[.[.[.[.[.[.[.[.[.[.n.n.[.[.[.1.[.[.[.[.[.[.[.[.",
"[.[.[.[.[.[.[.[.[.[.[.[.[.]._.i.[.[.[.[.6 p p 6 6 u g g g 8 M J c c n y 9 6 9 6 6 p p [.[.[.[.[.-.b.N.[.[.[.[.<.[.[.[.[.[.[.[.[.",
"[.[.[.[.[.[.[.[.[.[.[.[.[.[.[.r.p.-.0 7 o } {   o ` O.+.+.P   2 3 * v ^ @   X ,   { | 9 $ g.^.`.d.[.[.[.[.[.[.<.[.[.[.[.[.[.[.[.",
"[.[.[.[.[.[.[.[.[.[.[.[.[.[.[.t.b.s.K B F.Z.V.F.J.R.Y.Y.Y.U.H.h.| { ` } A.D.D.J.J.A. .U V u.x.M.d.[.[.[.[.[.[.3.[.[.[.[.[.[.[.[.",
"[.[.[.[.[.[.[.[.3.[.[.[.[.[.[.y.z.s.r.S Y.A.Z.T.T.R.J.R.Y.U.I.b.l.j.O.| !.).!.Y.T.C.O.f.c D F F J [.[.[.[.[.[.[.[.[.[.[.[.[.[.[.",
"[.[.[.[.[.[.[.[.1.[.[.[.[.[.[.[.h F J B O.q.w.0.0./ { j.w.B J a.k.0.| ` Y.!.J.O.+./ f.N.L j H J [.[.[.[.[.[.[.[.[.[.[.[.[.[.[.[.",
"[.[.[.[.[.[.[.[.1.1.[.[.[.[.[.w.k h L 0.P | j.w.` W C.Q.B.( D r.Z ` Q g ` e.j.e.} i k.Q.j.A z x t [.[.[.[.[.[.<.[.[.[.[.[.[.[.[.",
"[.[.[.[.[.[.[.[.1.1.[.[.[.[.[.` F.K.A.+.v g T E / } j.D.B._ D -.x ' 0.| O.q.q.{ b O { D.B.O.o...y [.[.[.[.[.[.1.[.[.[.[.[.[.[.[.",
"[.[.[.[.[.[.[.[.1.<.<.[.[.[.# T L.~.T.O.i {  .T ^ q.0./ } W z H h ` | | } } / E Q ^ ^ ` O.e.j.O.R u [.[.[.[.[.<.[.[.[.[.[.[.[.[.",
"[.[.[.[.[.[.[.[.1.1.1.1.[.. W o.O.L.R.O.m J.E.j.` O.{ + 3 6 q 8 w 5 3 5 6 ; > P q.j.} r ^ O.O.^ ` I + [.[.[.[.1.[.[.[.[.[.[.[.[.",
"[.[.[.[.[.[.[.[.1.1.1.1.[.  7.m.k.j.j.k.v.W.!.E.V.Q p R E R E ^ ! E E ^ ^ g 2 I q.j.} f ^ ` ` ^ P 9 @ [.[.[.1.1.[.[.[.[.[.[.[.[.",
"[.[.[.[.[.[.[.[.1.1.1.1.[.=.[ 7...0.+.} ] Y.E.A.` = { J.L.Y.D.O.O.D.A.R ` P 1 N Q 0.| f ` E Y Y i { | [.[.[.<.<.[.[.[.[.[.[.[.[.",
"[.[.[.[.[.[.[.[.[.1.<.1.2.S...% T |  .^ $ A.J.| g   e.).R.L.G.O. .T.E.j.` v 1 j < |  .i E b r w 9 0.C.[.[.[.<.<.[.[.[.[.[.[.[.[.",
"[.[.[.[.[.[.[.[.[.[.1.<.2.:.' u r R ^ ^ f ` q.+.b   +.E.} E ^ ^ E D.~.E.| p ; 6 w | | r i f u 5 +  .k.[.[.[.3.<.[.[.[.[.[.[.[.[.",
"[.[.[.[.[.[.[.[.[.[.1.1.4.~ s g f v v v f b b u 9 = I O.w.e.O.^ ` 8.C.j.} v 2 6 6 g P f g r 6 6 6 e - [.1.<.[.[.[.[.[.[.[.[.[.[.",
"[.[.[.[.[.[.[.[.[.[.[.1.3.,.#.< f w r f r 9 6 2 6 5 y Y ^ ^ ` 0.` Q Q E T i 4 6 6 5 w f n d 4 6 , $.,.[.1.1.[.[.[.[.[.[.[.[.[.[.",
"[.[.[.[.[.[.[.[.[.[.[.<.1.6.;.& f r w u 6 5 5 6 6 6 9 9 > o T 0.` v O 3 9 9 6 6 6 9 i f l t 4 6 & ;.6.<.3.<.[.[.[.[.[.[.[.[.[.[.",
"[.[.[.[.[.[.[.[.[.[.[.1.1.5.*.: f f i 3 6 6 6 6 6 6 9 y u y U ^ / P y p y 9 6 6 5 i f i 6 6 9 6 & *.4.1.1.1.[.[.[.[.[.[.[.[.[.[.",
"[.[.[.[.[.[.[.[.[.[.[.1.1.5.*.& r f 6     ; 6 2 6 2 v { X.w.) 2 2 ) @.X.` v 2 6 3 6 =   = r 9 = & *.5.<.1.1.[.[.[.[.[.[.[.[.[.[.",
"[.[.[.[.[.[.[.[.[.[.[.1.1.6.%.  ` E O.D.J.} r W y ; u E |  .) R E {  .| E i 2 y R r { F.F.O.^ `   %.6.<.1.<.[.[.[.[.[.[.[.[.[.[.",
"[.[.[.[.[.[.[.[.[.[.[.1.3.>.&.q.D.| C.).E.O.v ` y t t u W R R ^ ! E E W i 6 3 y / f e.).~.C.` j.0.&.,.1.1.1.[.[.[.[.[.[.[.[.[.[.",
"[.[.[.[.[.[.[.[.[.[.[.1.4.a 9.).~.j.j.E.j.T P ^ y l l 4 i i f f i i i i 6 6 5 y ^ f 0.~.~.l./ l.~.8.a 5.1.[.[.[.[.[.[.[.[.[.[.[."
};
