/* XPM */
static char *result[] = {
/* columns rows colors chars-per-pixel */
"64 64 197 2 ",
"   c black",
".  c #00040D",
"X  c #0E0C0D",
"o  c #150506",
"O  c #000013",
"+  c #061418",
"@  c #141213",
"#  c #1D1D1E",
"$  c #231A1D",
"%  c #000D2A",
"&  c #011C2A",
"*  c #1C1F21",
"=  c #121C23",
"-  c #000F30",
";  c #0E272C",
":  c #1D2024",
">  c #1B2329",
",  c #162429",
"<  c #003836",
"1  c #1D3435",
"2  c #1F3B3D",
"3  c #232325",
"4  c #2B2225",
"5  c #25262A",
"6  c #27292C",
"7  c #2A2A2D",
"8  c #2B2628",
"9  c #332429",
"0  c #36302F",
"q  c #242B31",
"w  c #2D2E31",
"e  c #213335",
"r  c #2D3135",
"t  c #2D343A",
"y  c #233A3D",
"u  c #2A3C3F",
"i  c #303236",
"p  c #32353A",
"a  c #33393E",
"s  c #3F323B",
"d  c #453233",
"f  c #524438",
"g  c #614933",
"h  c #725438",
"j  c #002F41",
"k  c #1F3C41",
"l  c #243A42",
"z  c #353C43",
"x  c #393E43",
"c  c #004443",
"v  c #0A4748",
"b  c #17494D",
"n  c #024C51",
"m  c #174D51",
"M  c #025457",
"N  c #005B5B",
"B  c #05565A",
"V  c #145459",
"C  c #1A545A",
"Z  c #175459",
"A  c #244145",
"S  c #24484B",
"D  c #3E4147",
"F  c #3E444A",
"G  c #35454A",
"H  c #2A4F55",
"J  c #2D5458",
"K  c #22545A",
"L  c #33545B",
"P  c #3B525A",
"I  c #3A4856",
"U  c #255E64",
"Y  c #3C5E60",
"T  c #006C69",
"R  c #006363",
"E  c #00716E",
"W  c #027573",
"Q  c #007C79",
"!  c #0E7A78",
"~  c #1C7B7C",
"^  c #3A6669",
"/  c #42464C",
"(  c #43484F",
")  c #444B52",
"_  c #4A4E54",
"`  c #4E4751",
"'  c #4A5057",
"]  c #4D535A",
"[  c #44565D",
"{  c #52555C",
"}  c #545057",
"|  c #4D5D64",
" . c #495B63",
".. c #555B63",
"X. c #595D65",
"o. c #595B64",
"O. c #54646B",
"+. c #5C636B",
"@. c #5C6166",
"#. c #4C6970",
"$. c #596B73",
"%. c #587479",
"&. c #4D666C",
"*. c #61656D",
"=. c #63686F",
"-. c #6A6568",
";. c #646B73",
":. c #6A6E77",
">. c #6A6770",
",. c #706C76",
"<. c #637179",
"1. c #6B7279",
"2. c #71767E",
"3. c #72787F",
"4. c #805F3D",
"5. c #86623D",
"6. c #846647",
"7. c #956E41",
"8. c #9D7446",
"9. c #977148",
"0. c #A57946",
"q. c #A57B4B",
"w. c #806E60",
"e. c #BA874C",
"r. c #C28B4D",
"t. c #D59853",
"y. c #4A7980",
"u. c #6C7C83",
"i. c #727780",
"p. c #747A82",
"a. c #797D86",
"s. c #7B7F89",
"d. c #008987",
"f. c #009D9A",
"g. c #168286",
"h. c #2E898A",
"j. c #238A88",
"k. c #368284",
"l. c #359091",
"z. c #00AFAD",
"x. c #22A3A1",
"c. c #538082",
"v. c #5C9A9E",
"b. c #4B8689",
"n. c #67878C",
"m. c #7C838C",
"M. c #76838C",
"N. c #7C8991",
"B. c #758D94",
"V. c #67969A",
"C. c #739095",
"Z. c #5E9BA3",
"A. c #6A9AA0",
"S. c #56B5BA",
"D. c #64A2AB",
"F. c #75A6AB",
"G. c #74B4B7",
"H. c #6FBAC3",
"J. c #6BB7C0",
"K. c #6CC9CA",
"L. c #80868F",
"P. c #818790",
"I. c #848A94",
"U. c #8E959E",
"Y. c #8C9FA6",
"T. c #9197A1",
"R. c #949BA4",
"E. c #939EA9",
"W. c #8DA2A9",
"Q. c #96A2AB",
"!. c #9CA3AD",
"~. c #8DAFB6",
"^. c #9EA7B0",
"/. c #9EAEB7",
"(. c #8AB0B8",
"). c #94B3BA",
"_. c #B0A9A6",
"`. c #A4ABB5",
"'. c #AAAFB7",
"]. c #ACB4BE",
"[. c #A5B0B9",
"{. c #B2B4BF",
"}. c #AFB7C1",
"|. c #AFB9C2",
" X c #B3BBC5",
".X c #B7BFC9",
"XX c #BABFCA",
"oX c #B0B7C1",
"OX c #8ED8DD",
"+X c #93D0D6",
"@X c #96D5DB",
"#X c #99C4CB",
"$X c #B9C1CB",
"%X c #AFCCD5",
"&X c #BEC7D2",
"*X c #A7E1E8",
"=X c None",
/* pixels */
"=X=X=X=X=X=X=X=X=X=X=X=X=X=X=X=X=X=X=X=X=X=X=X=X=X=X=X=X=X=X=X=X=X=X=X=X=X=X=X=X=X=X=X=X=X=X=X=X=X=X=X=X=X=X=X=X=X=X=X=X=X=X=X=X",
"=X=X=X=X=X=X=X=X=X=X=X=X=X=X=X=X=X=X=X=X=X=X=X=X=X=X=X=X=X=X=X=X=X=X=X=X=X=X=X=X=X=X=X=X=X=X=X=X=X=X=X=X=X=X=X=X=X=X=X=X=X=X=X=X",
"=X=X=X=X=X=X=X=X=X=X=X=X=X=X=X=X=X=X=X=X=X=X=X=X=X=X=X=X=X=X=X=X=X=X=X=X=X=X=X=X=X=X=X=X=X=X=X=X=X=X=X=X=X=X=X=X=X=X=X=X=X=X=X=X",
"=X=X=X=X=X=X=X=X=X=X=X=X=X=X=X=X=X=X=X=X=X=X=X=X=X=X=X=X=X=X=X=X=X=X=X=X=X=X=X=X=X=X=X=X=X=X=X=X=X=X=X=X=X=X=X=X=X=X=X=X=X=X=X=X",
"=X=X=X=X=X=X=X=X=X=X=X=X=X=X=X=X=X=X=X=X=X=X=X=X=X=X=X=X=X=X=X=X=X=X=X=X=X=X=X=X=X=X=X=X=X=X=X=X=X=X=X=X=X=X=X=X=X=X=X=X=X=X=X=X",
"=X=X=X=X=X=X=X=X=X=X=X=X=X=X=X=X=X=X=X=X=X=X=X=X=X=X=X=X=X=X=X=X=X=X=X=X=X=X=X=X=X=X=X=X=X=X=X=X=X=X=X=X=X=X=X=X=X=X=X=X=X=X=X=X",
"=X=X=X=X=X=X=X=X=X=X=X=X=X=X=X=X=X=X=X=X=X=X=X=X=X=X=X=X=X=X=X=X=X=X=X=X=X=X=X=X=X=X=X=X=X=X=X=X=X=X=X=X=X=X=X=X=X=X=X=X=X=X=X=X",
"=X=X=X=X=X=X=X=X=X=X=X=X=X=X=X=X=X=X=X=X=X=X=X=X=X=X=X=X=X=X=X=X=X=X=X=X=X=X=X=X=X=X=X=X=X=X=X=X=X=X=X=X=X=X=X=X=X=X=X=X=X=X=X=X",
"=X=X=X=X=X=X=X=X=X=X=X=X=X=X=X=X=X=X=X=X=X=X=X=X=X=X=X=X=X=X=X=X=X=X=X=X=X=X=X=X=X=X=X=X=X=X=X=X=X=X=X=X=X=X=X=X=X=X=X=X=X=X=X=X",
"=X=X=X=X=X=X=X=X=X=X=X=X=X=X=X=X=X=X=X=X=X=X=X=X=X=X=X=X=X=X=X=X=X=X=X=X=X=X=X=X=X=X=X=X=X=X=X=X=X=X=X=X=X=X=X=X=X=X=X=X=X=X=X=X",
"=X=X=X=X=X=X=X=X=X=X=X=X=X=X=X=X=X=X=X=X=X=X=X=X=X=X=X=X=X=X=X=X=X=X=X=X=X=X=X=X=X=X=X=X=X=X=X=X=X=X=X=X=X=X=X=X=X=X=X=X=X=X=X=X",
"=X=X=X=X=X=X=X=X=X=X=X=X=X=X=X=X=X=X=X=X=X=X=X=X=X=X=X=X=X=X=X=X=X=X=X=X=X=X=X=X=X=X=X=X=X=X=X=X=X=X=X=X=X=X=X=X=X=X=X=X=X=X=X=X",
"=X=X=X=X=X=X=X=X=X=X=X=X=X=X=X=X=X=X=X=X=X=X=X=X=X=X=X=X=X=X=X=X=X=X=X=X=X=X=X=X=X=X=X=X=X=X=X=X=X=X=X=X=XQ Q =X=X=X=X=X=X=X=X=X",
"=X=X=X=X=X=X=X=X=X=X=X=X=X=X=X=X=X=X=X=X=X=X=X=X=X=X=X=X=X=X=X=X=X=X=X=X=X=X=X=X=X=X=X=X=X=X=X=X=X=X=X=X=XW W =X=X=X=X=X=X=X=X=X",
"=X=X=X=X=X=X=X=X=X=X=X=X=X=X=X=X=X=X=X=X=X=X=X=X=X=X=X=X=X=X=X=X=X=X=X=X=X=X=X=X=X=X=X=X=X=X=X=X=X=X=X=X=Xl.l.=X=X=X=X=X=X=X=X=X",
"=X=X=X=X=X=X=X=X=X=X=X=X=X=X=X=X=X=X=X=X=X=X=X=X=X=X=X=X=X=X=X=X=X=X=X=X=X=X=X=X=X=X=X=X=X=X=X=X=X=X=X=X=XH.H.=X=X=X=X=X=X=X=X=X",
"=X=X=X=X=X=X=X=X=X=X=X=X=X=X=X=X=X=X=X=X=X=X=X=X=X=X=X=X=X=X=X=X=X=X=X=X=X=X=X=X=X=X=X=X=X=X=X=X=X=X=X=XW @X@XW =X=X=X=X=X=X=X=X",
"=X=X=X=X=X=X=X=X=X=X=X=X=X=X=X=X=X=X=X=X=X=X=X=X=X=X=X=X=X=X=X=X=X=X=X=X=X=X=X=X=X=X=X=X=X=X=X=X=X=XX u  .V.n.c + =X=X=X=X=X=X=X",
"=X=X=X=X=X=X=X=X=X=X=X=X=X=X=X=X=X=X=X=X=X=X=X=X=X=X=X=X=X=X=X=X=X=X=X=X=X=X=X=X=X=X=X=X=X=X=X=X=X) o.o.;.` d ` X.D =X=X=X=X=X=X",
"=X=X=X=X=X=X=X=X=X=X=X=X=X=X=X=X=X=X=X=X=X=X=X=X=X=X=X=X=X=X=X=X=X=X=X=X=X=X=X=X=X=X=X=X=X=X=X_ e 1.I.m.m.I.N.m.m.X.7 7 =X=X=X=X",
"=X=X=X=X=X=X=X=X=X=X=X=X=X=X=X=X=X=X=X=X=X=X=X=X=X=X=X=X=X=X=X=X=X=X=X=X=X=X=X=X=X=X=X=X=Xz L.[.! Q. X].].{.}.[.m.a.=.@ =X=X=X=X",
"=X=X=X=X=X=X=X=X=X=X=X=X=X=X=X=X=X=X=X=X=X=X=X=X=X=X=X=X=X=X=X=X=X=X=X=X=X=X=X=X=X=X=X=X> P.}.|.n.c.W.XXXX!.`. XP.1.+.] @.O.=X=X",
"=X=X=X=X=X=X=X=X=X=X=X=X=X=X=X=X=X=X=X=X=X=X=X=X=X=X=X=X=X=X=X=X=X=X=X=X=X=X=X=X=X=X=X=X+ `.&X].a.V.G.).!.a.m.!.m.o.( ..*.>.$.=X",
"=X=X=X=X=X=X=X=X=X=X=X=X=X=X=X=X=X=X=X=X=X=X=X=X=X=X=X=X=X=X=X=X=X=X=X=X=X=X=X=X=X=X=Xw @ U. X`.{ #XOXf.B.;.+.m.P.+.F F O.$.b.z.",
"=X=X=X=X=X=X=X=X=X=X=X=X=X=X=X=X=X=X=X=X=X=X=X=X=X=X=X=X=X=X=X=X=X=X=X=X=X=X=X=X=X=X=Xp ] =.:.;.t ) ^ l.*XV.<.|.]. X!.2.x.S.Z.; ",
"=X=X=X=X=X=X=X=X=X=X=X=X=X=X=X=X=X=X=X=X=X=X=X=X=X=X=X=X=X=X=X=X=X=X=X=X=X=X=X=X=X=X=XX ;.+.I ' T.O.< j.K.h.u.$X XU.3.M.~ g.%.*.",
"=X=X=X=X=X=X=X=X=X=X=X=X=X=X=X=X=X=X=X=X=X=X=X=X=X=X=X=X=X=X=X=X=X=X=X=X=X=X=X=X=X=X@.m.T.m._ _  XQ.%.W d.R <.`. XM.( ;.P P %.m.",
"=X=X=X=X=X=X=X=X=X=X=X=X=X=X=X=X=X=X=X=X=X=X=X=X=X=X=X=X=X=X=X=X=X=X=X=X=X=X=X=X=X  L.$X.XT...] `..XR.n L C &.P.|.R.*.r X.1.M.p.",
"=X=X=X=X=X=X=X=X=X=X=X=X=X=X=X=X=X=X=X=X=X=X=X=X=X=X=X=X=X=X=X=X=X=X=X=X=X=X=X=X=X  m. XXXp.x i.a.m.m.p.p.1.I.|. XR.+.a o.+.*.+.",
"=X=X=X=X=X=X=X=X=X=X=X=X=X=X=X=X=X=X=X=X=X=X=X=X=X=X=X=X=X=X=X=X=X=X=X=X=X=X=X=XZ N C.{.R.i.P.[.[.I.i.a.,.T. X XR.I.:.t ( ) ) ) ",
"=X=X=X=X=X=X=X=X=X=X=X=X=X=X=X=X=X=X=X=X=X=X=X=X=X=X=X=X=X=X=X=X=X=X=X=X=X=X=X=XC N F.%Xn.$.m.`.E.I.i.N.~./.`.!.M.:...t i r t t ",
"=X=X=X=X=X=X=X=X=X=X=X=X=X=X=X=X=X=X=X=X=X=X=X=X=X=X=X=X=X=X=X=X=X=X=X=X=X=X=X=X=XO F.*Xh.M J { t =.i.N.*X~.:.1.p.{ t D 7 6 7 6 ",
"=X=X=X=X=X=X=X=X=X=X=X=X=X=X=X=X=X=X=X=X=X=X=X=X=X=X=X=X=X=X=X=X=X=X=X=X=X=X=X=X=X..p.N.B n L +.p.1.' t ' D.Z.9 7 ( .._ w p t * ",
"=X=X=X=X=X=X=X=X=X=X=X=X=X=X=X=X=X=X=X=X=X=X=X=X=X=X=X=X=X=X=X=X=X=X=X=X=X=X=X=X=Xa @.m.Q.u.[ +.X.) p.E.d W ~ 9 @.U.'.E.) q } >.",
"=X=X=X=X=X=X=X=X=X=X=X=X=X=X=X=X=X=X=X=X=X=X=X=X=X=X=X=X=X=X=X=X=X=X=X=X=X=X=X=X=X  ) a.`.m.....= ;.T.R.Y v.v.J ;.U.'._.) & ` :.",
"=X=X=X=X=X=X=X=X=X=X=X=X=X=X=X=X=X=X=X=X=X=X=X=X=X=X=X=X=X=X=X=X=X=X=X=X=X=X=X=X=X# F +.p.;...o.( ^.!.+ T +X+XT l I w.q.f 5 q t ",
"=X=X=X=X=X=X=X=X=X=X=X=X=X=X=X=X=X=X=X=X=X=X=X=X=X=X=X=X=X=X=X=X=X=X=X=X=X=X=X=X=X$ / +.+.+._ ] `.$XR.; V k.k.V e ;.2.-.8.g % ; ",
"=X=X=X=X=X=X=X=X=X=X=X=X=X=X=X=X=X=X=X=X=X=X=X=X=X=X=X=X=X=X=X=X=X=X=X=X=X=X=X=X=XX { 3._ ..' ' ].`.m.' G M N K ;.:.*.+.q.7.4.4.",
"=X=X=X=X=X=X=X=X=X=X=X=X=X=X=X=X=X=X=X=X=X=X=X=X=X=X=X=X=X=X=X=X=X=X=X=X=X=X=X=X=Xo ] <.G ) / ] ].U.o.) w l H  .i.;...} 6.8.0.0.",
"=X=X=X=X=X=X=X=X=X=X=X=X=X=X=X=X=X=X=X=X=X=X=X=X=X=X=X=X=X=X=X=X=X=X=X=X=X=X=X=X=Xr A M z a q ] ].P.( ' ] D ( O.o.X.{ l j 4.0.0.",
"=X=X=X=X=X=X=X=X=X=X=X=X=X=X=X=X=X=X=X=X=X=X=X=X=X=X=X=X=X=X=X=X=X=X=X=X=X=X=X=XC C V C G w * ]  X3.;.}. X1.+ z z ....z l 6.q.0.",
"=X=X=X=X=X=X=X=X=X=X=X=X=X=X=X=X=X=X=X=X=X=X=X=X=X=X=X=X=X=X=X=X=X=X=X=X=X=X=X=X=XS A l z r 7 / 3.;.U.$XQ.m.+.' z F F z z d 5.e.",
"=X=X=X=X=X=X=X=X=X=X=X=X=X=X=X=X=X=X=X=X=X=X=X=X=X=X=X=X=X=X=X=X=X=X=X=X=X=X=X=X=X4 7 7 z r 7 r   ] m.T.=.*.:.+._ ) F t a - h t.",
"=X=X=X=X=X=X=X=X=X=X=X=X=X=X=X=X=X=X=X=X=X=X=X=X=X=X=X=X=X=X=X=X=X=X=X=X=X=X=X=X=X0 7 7 a a r r 7 3 : > 3 @ z @...X.] 5 7 & h r.",
"=X=X=X=X=X=X=X=X=X=X=X=X=X=X=X=X=X=X=X=X=X=X=X=X=X=X=X=X=X=X=X=X=X=X=X=X=X=X=X=X=X=Xw w 6 _ +...i 8 7 7 7 7 7 i i i i 7 w 6 0 d ",
"=X=X=X=X=X=X=X=X=X=X=X=X=X=X=X=X=X=X=X=X=X=X=X=X=X=X=X=X=X=X=X=X=X=X=X=X=X=X=X=X=X=X=Xw 3 o.@.( w 6 7 5     . . 5 r :     $ $   ",
"=X=X=X=X=X=X=X=X=X=X=X=X=X=X=X=X=X=X=X=X=X=X=X=X=X=X=X=X=X=X=X=X=X=X=X=X=X=X=X=X=X=X=X=X5 ' ' p r w 3 i 1.p.a.a.@.) X.3.p.) m y.",
"=X=X=X=X=X=X=X=X=X=X=X=X=X=X=X=X=X=X=X=X=X=X=X=X=X=X=X=X=X=X=X=X=X=X=X=X=X=X=X=X=X=X=X=X=Xp z z z w # { }.$X X].P...P.$X$XN.k.J.",
"=X=X=X=X=X=X=X=X=X=X=X=X=X=X=X=X=X=X=X=X=X=X=X=X=X=X=X=X=X=X=X=X=X=X=X=X=X=X=X=X=X=X=X=X=X7 7 w w # ) m.[.$X`.m.m.@.m. X X X!.M.",
"=X=X=X=X=X=X=X=X=X=X=X=X=X=X=X=X=X=X=X=X=X=X=X=X=X=X=X=X=X=X=X=X=X=X=X=X=X=X=X=X=X=X=X=X5 ) ' i 7   _ I.$X`.m.+.;.;.U.$X$XY.%.} ",
"=X=X=X=X=X=X=X=X=X=X=X=X=X=X=X=X=X=X=X=X=X=X=X=X=X=X=X=X=X=X=X=X=X=X=X=X=X=X=X=X=X=X=X=Xr ] ] a 6 ( X.1.R.m.+.{ ' +.N.Q.`.p.b l ",
"=X=X=X=X=X=X=X=X=X=X=X=X=X=X=X=X=X=X=X=X=X=X=X=X=X=X=X=X=X=X=X=X=X=X=X=X=X=X=X=X=X=X=X=Xa a a a 3 ;.1.a , ) +.@.z ]  .n 1.a.%.M ",
"=X=X=X=X=X=X=X=X=X=X=X=X=X=X=X=X=X=X=X=X=X=X=X=X=X=X=X=X=X=X=X=X=X=X=X=X=X=X=X=X=X=X=X=Xw w w w 6 7 { p.S y ' O.C  .{ c F L U Z ",
"=X=X=X=X=X=X=X=X=X=X=X=X=X=X=X=X=X=X=X=X=X=X=X=X=X=X=X=X=X=X=X=X=X=X=X=X=X=X=X=X=X=X=X=Xi w w w 7 $ I #.v y F ) v G D e w 2 b H ",
"=X=X=X=X=X=X=X=X=X=X=X=X=X=X=X=X=X=X=X=X=X=X=X=X=X=X=X=X=X=X=X=X=X=X=X=X=X=X=X=X=X=X=X=X=X=X=X=Xw 7 y v c u p p b 1 4 w 7 8 =X=X",
"=X=X=X=X=X=X=X=X=X=X=X=X=X=X=X=X=X=X=X=X=X=X=X=X=X=X=X=X=X=X=X=X=X=X=X=X=X=X=X=X=X=X=X=X=X=X=X=X=X=X7 8 v e 4 w C A 8 7 7 r =X=X",
"=X=X=X=X=X=X=X=X=X=X=X=X=X=X=X=X=X=X=X=X=X=X=X=X=X=X=X=X=X=X=X=X=X=X=X=X=X=X=X=X=X=X=X=X=X=X=X=X=X=X=X=X=X=X=X=X=X=X=X=X=X=X=X=X",
"=X=X=X=X=X=X=X=X=X=X=X=X=X=X=X=X=X=X=X=X=X=X=X=X=X=X=X=X=X=X=X=X=X=X=X=X=X=X=X=X=X=X=X=X=X=X=X=X=X=X=X=X=X=X=X=X=X=X=X=X=X=X=X=X",
"=X=X=X=X=X=X=X=X=X=X=X=X=X=X=X=X=X=X=X=X=X=X=X=X=X=X=X=X=X=X=X=X=X=X=X=X=X=X=X=X=X=X=X=X=X=X=X=X=X=X=X=X=X=X=X=X=X=X=X=X=X=X=X=X",
"=X=X=X=X=X=X=X=X=X=X=X=X=X=X=X=X=X=X=X=X=X=X=X=X=X=X=X=X=X=X=X=X=X=X=X=X=X=X=X=X=X=X=X=X=X=X=X=X=X=X=X=X=X=X=X=X=X=X=X=X=X=X=X=X",
"=X=X=X=X=X=X=X=X=X=X=X=X=X=X=X=X=X=X=X=X=X=X=X=X=X=X=X=X=X=X=X=X=X=X=X=X=X=X=X=X=X=X=X=X=X=X=X=X=X=X=X=X=X=X=X=X=X=X=X=X=X=X=X=X",
"=X=X=X=X=X=X=X=X=X=X=X=X=X=X=X=X=X=X=X=X=X=X=X=X=X=X=X=X=X=X=X=X=X=X=X=X=X=X=X=X=X=X=X=X=X=X=X=X=X=X=X=X=X=X=X=X=X=X=X=X=X=X=X=X",
"=X=X=X=X=X=X=X=X=X=X=X=X=X=X=X=X=X=X=X=X=X=X=X=X=X=X=X=X=X=X=X=X=X=X=X=X=X=X=X=X=X=X=X=X=X=X=X=X=X=X=X=X=X=X=X=X=X=X=X=X=X=X=X=X",
"=X=X=X=X=X=X=X=X=X=X=X=X=X=X=X=X=X=X=X=X=X=X=X=X=X=X=X=X=X=X=X=X=X=X=X=X=X=X=X=X=X=X=X=X=X=X=X=X=X=X=X=X=X=X=X=X=X=X=X=X=X=X=X=X"
};
