/* XPM */
static char *result[] = {
/* columns rows colors chars-per-pixel */
"64 64 197 2 ",
"   c #000100",
".  c #0A0302",
"X  c #001706",
"o  c #000F17",
"O  c #13181B",
"+  c #171516",
"@  c #200C0E",
"#  c #2B1C1F",
"$  c #002500",
"%  c #07261A",
"&  c #1B1F20",
"*  c #261C22",
"=  c #002928",
"-  c #1D252B",
";  c #182326",
":  c #00312C",
">  c #003D3C",
",  c #0C3E3B",
"<  c #003631",
"1  c #143C3C",
"2  c #1C3939",
"3  c #232224",
"4  c #27272B",
"5  c #2B2629",
"6  c #27292C",
"7  c #2A2B2D",
"8  c #2D2527",
"9  c #302C2E",
"0  c #252C32",
"q  c #2C2E31",
"w  c #352E34",
"e  c #2D3135",
"r  c #2D353A",
"t  c #233B3C",
"y  c #223736",
"u  c #303235",
"i  c #32363B",
"p  c #34393E",
"a  c #3B3C3B",
"s  c #4A303A",
"d  c #00403E",
"f  c #003F41",
"g  c #243F42",
"h  c #2A3E42",
"j  c #363C41",
"k  c #393E44",
"l  c #024444",
"z  c #02454A",
"x  c #03494A",
"c  c #094443",
"v  c #1E4B4E",
"b  c #194347",
"n  c #0B4E51",
"m  c #004E50",
"M  c #114F52",
"N  c #1C4E53",
"B  c #025354",
"V  c #0B5153",
"C  c #00555A",
"Z  c #035C5C",
"A  c #145256",
"S  c #1B5257",
"D  c #155459",
"F  c #1A555B",
"G  c #16595F",
"H  c #1D5A5F",
"J  c #2D444A",
"K  c #27484C",
"L  c #3B4046",
"P  c #3D444A",
"I  c #33444A",
"U  c #27555B",
"Y  c #39565C",
"T  c #005F64",
"R  c #185A60",
"E  c #235D62",
"W  c #2A5C61",
"Q  c #3A5B62",
"!  c #006363",
"~  c #006865",
"^  c #007D7B",
"/  c #0F7473",
"(  c #136368",
")  c #286468",
"_  c #376669",
"`  c #3B6F74",
"'  c #247879",
"]  c #37757A",
"[  c #43464D",
"{  c #43484F",
"}  c #4A474C",
"|  c #454B52",
" . c #4B4C53",
".. c #544F57",
"X. c #4C5157",
"o. c #4C535B",
"O. c #43555C",
"+. c #52545C",
"@. c #52585F",
"#. c #4C5B62",
"$. c #555C64",
"%. c #595E66",
"&. c #595F68",
"*. c #5F5661",
"=. c #4E6269",
"-. c #496C6F",
";. c #5B6067",
":. c #5C636B",
">. c #546369",
",. c #5C6C74",
"<. c #576F77",
"1. c #537A7D",
"2. c #61666D",
"3. c #646B73",
"4. c #6A6E77",
"5. c #696F78",
"6. c #606770",
"7. c #736C76",
"8. c #796C7D",
"9. c #6D737C",
"0. c #65737B",
"q. c #72767F",
"w. c #3D7C81",
"e. c #6F7880",
"r. c #747B83",
"t. c #7B7E87",
"y. c #7A7F88",
"u. c #777781",
"i. c #8B6E93",
"p. c #008A88",
"a. c #1B8282",
"s. c #009895",
"d. c #149E9F",
"f. c #368887",
"g. c #3D9393",
"h. c #12A7A5",
"j. c #458689",
"k. c #5D8689",
"l. c #448D91",
"z. c #76838B",
"x. c #7C828B",
"c. c #688E94",
"v. c #6D8B90",
"b. c #4A9CA4",
"n. c #569CA5",
"m. c #669FA8",
"M. c #799DA3",
"N. c #5CADB5",
"B. c #5EB0BA",
"V. c #49ACAE",
"C. c #69A4A9",
"Z. c #6EB0B3",
"A. c #6CB4BB",
"S. c #63B0B9",
"D. c #75B3BA",
"F. c #76A6AE",
"G. c #77B9C0",
"H. c #78C4C9",
"J. c #81858E",
"K. c #838A93",
"L. c #888F98",
"P. c #8E8193",
"I. c #8C939C",
"U. c #92959E",
"Y. c #8D98A1",
"T. c #9097A1",
"R. c #949CA5",
"E. c #989FA9",
"W. c #9A9DA6",
"Q. c #9BA3AC",
"!. c #8DAEB5",
"~. c #9FA6B0",
"^. c #98AAB1",
"/. c #8DB3BA",
"(. c #A3ABB4",
"). c #A6ABB5",
"_. c #ABB2BC",
"`. c #A1B3BB",
"'. c #AEB7C1",
"]. c #ABBCC5",
"[. c #B2BAC4",
"{. c #B7BFC9",
"}. c #B8BFCA",
"|. c #CFA5DC",
" X c #D1A9DF",
".X c #93C5CA",
"XX c #89CED6",
"oX c #88C1C6",
"OX c #BAC2CC",
"+X c #B7C0CA",
"@X c #A2D1D8",
"#X c #9DDDE5",
"$X c #A6DFE5",
"%X c #A7E5EB",
"&X c #ACE3EA",
"*X c #AEEAF2",
"=X c None",
/* pixels */
"=X=X=X=X=X=X=X=X=X=X=X=X=X=X=X=X=X=X=X=X=X=X=X=X=X=X=X=X=X=X=X=X=X=X=X=X=X=X=X=X=X=X=X=X=X=X=X=X=X=X=X=X=X=X=X=X=X=X=X=X=X=X=X=X",
"=X=X=X=X=X=X=X=X=X=X=X=X=X=X=X=X=X=X=X=X=X=X=X=X=X=X=X=X=X=X=X=X=X=X=X=X=X=X=X=X=X=X=X=X=X=X=X=X=X=X=X=X=X=X=X=X=X=X=X=X=X=X=X=X",
"=X=X=X=X=X=X=X=X=X=X=X=X=X=X=X=X=X=X=X=X=X=X=X=X=X=X=X=X=X=X=X=X=X=X=X=X=X=X=X=X=X=X=X=X=X=X=X=X=X=X=X=X=X=X=X=X=X=X=X=X=X=X=X=X",
"=X=X=X=X=X=X=X=X=X=X=X=X=X=X=X=X=X=X=X=X=X=X=X=X=X=X=X=X=X=X=X=X=X=X=X=X=X=X=X=X=X=X=X=X=X=X=X=X=X=X=X=X=X=X=X=X=X=X=X=X=X=X=X=X",
"=X=X=X=X=X=X=X=X=X=X=X=X=X=X=X=X=X=X=X=X=X=X=X=X=X=X=X=X=X=X=X=X=X=X=X=X=X=X=X=X=X=X=X=X=X=X=X=X=X=X=X=X=X=X=X=X=X=X=X=X=X=X=X=X",
"=X=X=X=X=X=X=X=X=X=X=X=X=X=X=X=X=X=X=X=X=X=X=X=X=X=X=X=X=X=X=X=X=X=X=X=X=X=X=X=X=X=X=X=X=X=X=X=X=X=X=X=X=X=X=X=X=X=X=X=X=X=X=X=X",
"=X=X=X=X=X=X=X=X=X=X=X=X=X=X=X=X=X=X=X=X=X=X=X=X=X=X=X=X=X=X=X=X=X=X=X=X=X=X=X=X=X=X=X=X=X=X=X=X=X=X=X=X=X=X=X=X=X=X=X=X=X=X=X=X",
"=X=X=X=X=X=X=X=X=X=X=X=X=X=X=X=X=X=X=X=X=X=X=X=X=X=X=X=X=X=X=X=X=X=X=X=X=X=X=X=X=X=X=X=X=X=X=X=X=X=X=X=X=X=X=X=X=X=X=X=X=X=X=X=X",
"=X=X=X=X=X=X=X=X=X=X=X=X=X=X=X=X=X=X=X=X=X=X=X=X=X=X=X=X=X=X=X=X=X=X=X=X=X=X=X=X=X=X=X=X=X=X=X=X=X=X=X=X=X=X=X=X=X=X=X=X=X=X=X=X",
"=X=X=X=X=X=X=X=X=X=X=X=X=X=X=X=X=X=X=X=X=X=X=X=X^ =X=X=X=X=X=X=X=X=X=X=X=X=X=X=X=X=X=X=X=X=X=X=X=X=X=X=X=X=X=X=X=X=X=X=X=X=X=X=X",
"=X=X=X=X=X=X=X=X=X=X=X=X=X=X=X=X=X=X=X=X=X=X=X=X^ =X=X=X=X=X=X=X=X=X=X=X=X=X=X=X=X=X=X=X=X=X=X=X=X=X=X=X=X=X=X=X=X=X=X=X=X=X=X=X",
"=X=X=X=X=X=X=X=X=X=X=X=X=X=X=X=X=X=X=X=X=X=X=X=Xa.=X=X=X=X=X=X=X=X=X=X=X=X=X=X=X=X=X=X=X=X=X=X=X=X=X=X=X=X=X=X=X=X=X=X=X=X=X=X=X",
"=X=X=X=X=X=X=X=X=X=X=X=X=X=X=X=X=X=X=X=X=X=X=X=XN.=X=X=X=X=X=X=X=X=X=X=X=X=X=X=X=X=X=X=X=X=X=X=X=X=X=X=X=X=X=X=X=X=X=X=X=X=X=X=X",
"=X=X=X=X=X=X=X=X=X=X=X=X=X=X=X=X=X=X=X=X=X=X=Xg.#XA.=X=X=X=X=X=X=X=X=X=X=X=X=X=X=X=X=X=X=X=X=X=X=X=X=X=X=X=X=X=X=X=X=X=X=X=X=X=X",
"=X=X=X=X=X=X=X=X=X=X=X=X=X=X=X=X=X=X=X=X=X=Xd f..XF.Z =X=X=X=X=X=X=X=X=X=X=X=X=X=X=X=X=X=X=X=X=X=X=X=X=X=X=X=X=X=X=X=X=X=X=X=X=X",
"=X=X=X=X=X=X=X=X=X=X=X=X=X=X=X=X=X=X=X=X=Xp k w * +.%.[ [ =X=X=X=X=X=X=X=X=X=X=X=X=X=X=X=X=X=X=X=X=X=X=X=X=X=X=X=X=X=X=X=X=X=X=X",
"=X=X=X=X=X=X=X=X=X=X=X=X=X=X=X=X=X=X=X7 . 2.r.9.9.q.9.9.q.X..   =X=X=X=X=X=X=X=X=X=X=X=X=X=X=X=X=X=X=X=X=X=X=X=X=X=X=X=X=X=X=X=X",
"=X=X=X=X=X=X=X=X=X=X=X=X=X=X=X=X=X=X=Xi 3.q.I.(.(.(.~.(._.k.1.U.$.=X=X=X=X=X=X=X=X=X=X=X=X=X=X=X=X=X=X=X=X=X=X=X=X=X=X=X=X=X=X=X",
"=X=X=X=X=X=X=X=X=X=X=X=X=X=X=X=X=X=X|  .9.9.U.+X)._.+X{.^.k.M.}.R.3.=X=X=X=X=X=X=X=X=X=X=X=X=X=X=X=X=X=X=X=X=X=X=X=X=X=X=X=X=X=X",
"=X=X=X=X=X=X=X=X=X=X=X=X=X*X*X=X&.3.:.&.$.3.T._.r.E.[.`.f.1.U.[.+XJ.  =X=X=X=X=X=X=X=X=X=X=X=X=X=X=X=X=X=X=X=X=X=X=X=X=X=X=X=X=X",
"=X=X=X=X=X=X=X=X=X=X=X=X=X=X=Xh.>.*.+.i - :.x.y.2.7.c.V.%XM.y.+X+Xr.  7 =X=X=X=X=X=X=X=X=X=X=X=X=X=X=X=X=X=X=X=X=X=X=X=X=X=X=X=X",
"=X=X=X=X=X=X=X=X=X=X=X=X=X=X< ' m.b.j.4.R.~.(.R.Y /.oXp.M.=.+.K.K.3.k 4 =X=X=X=X=X=X=X=X=X=X=X=X=X=X=X=X=X=X=X=X=X=X=X=X=X=X=X=X",
"=X=X=X=X=X=X=X=X=X=X=X=X=XL } +.b.d.l.J.R._.+X'.U H.H.~   :.9.P | 2.*.  =X=X=X=X=X=X=X=X=X=X=X=X=X=X=X=X=X=X=X=X=X=X=X=X=X=X=X=X",
"=X=X=X=X=X=X=X=X=X=X=X=X4 X.9.r.Y x >.e.0 T.}.(.#.p.s./ ) (.Q.- &.z.r.[ =X=X=X=X=X=X=X=X=X=X=X=X=X=X=X=X=X=X=X=X=X=X=X=X=X=X=X=X",
"=X=X=X=X=X=X=X=X=X=X=X=Xp r >.x.r.3.X.| 4.(.).e.U C C _ ).OXR.0 9.Q.[.(.X.=X=X=X=X=X=X=X=X=X=X=X=X=X=X=X=X=X=X=X=X=X=X=X=X=X=X=X",
"=X=X=X=X=X=X=X=X=X=X=X=XL r X.9.0.3.X.k e.).[.E.<.,.,.9.Y.Y.x.;.| Q.OX_.+.=X=X=X=X=X=X=X=X=X=X=X=X=X=X=X=X=X=X=X=X=X=X=X=X=X=X=X",
"=X=X=X=X=X=X=X=X=X=X=X=Xi a P o.X.#.| P e.T._.}.E.J.r.y.9.K.R.U.@.L._._.-.m =X=X=X=X=X=X=X=X=X=X=X=X=X=X=X=X=X=X=X=X=X=X=X=X=X=X",
"=X=X=X=X=X=X=X=X=X=X=X=X6 p j i i p r P 9.9.I.'.[.R.z.y.r.Q.'._.x.5.Y.].f.~ S =X=X=X=X=X=X=X=X=X=X=X=X=X=X=X=X=X=X=X=X=X=X=X=X=X",
"=X=X=X=X=X=X=X=X=X=X=X=X7 q q q q q e j j 4.J.J.u.@X@X8.x.;.@.5.Y ! D.&X-.=X=X=X=X=X=X=X=X=X=X=X=X=X=X=X=X=X=X=X=X=X=X=X=X=X=X=X",
"=X=X=X=X=X=X=X=X=X=X=X, 0 3 O & r 7 r { P { } #.m.F.k.[ 2.4.:.o.A c j.!.<.=X=X=X=X=X=X=X=X=X=X=X=X=X=X=X=X=X=X=X=X=X=X=X=X=X=X=X",
"=X=X=X=X=X=X=X=X=X=Xx A 0 a  ...k - %.L.L.3.w g b.E s y.$.2.4.&.Y e.x.4.&.=X=X=X=X=X=X=X=X=X=X=X=X=X=X=X=X=X=X=X=X=X=X=X=X=X=X=X",
"=X=X=X=X=X=X=X=X=Xd V S ; 8.P.7.P o u.[.[.T.&.I f.Z r._.q.P P :.#.Q.(.9.p =X=X=X=X=X=X=X=X=X=X=X=X=X=X=X=X=X=X=X=X=X=X=X=X=X=X=X",
"=X=X=X=X=X=X=X=X=Xd n S    X X% q ; | 5.3...N f.&XZ.C %._.9.- :.$.r.y.&.u =X=X=X=X=X=X=X=X=X=X=X=X=X=X=X=X=X=X=X=X=X=X=X=X=X=X=X",
"=X=X=X=X=X=X=X=X=Xd n F % i.i.% 7 * k %.5. .> ' Z.l.l [ '._.z.P &.,.2.@.u =X=X=X=X=X=X=X=X=X=X=X=X=X=X=X=X=X=X=X=X=X=X=X=X=X=X=X",
"=X=X=X=X=X=X=X=X=Xd n F J $ X 7 7 4 [ :.e.6.Y B Z B J $.E.{.Q.- &.@.&.3.p =X=X=X=X=X=X=X=X=X=X=X=X=X=X=X=X=X=X=X=X=X=X=X=X=X=X=X",
"=X=X=X=X=X=X=X=X=X> n F F G v 8 7 u | %.$.u.e.A S h [ :.5.(.E.0 $.k @.e.k =X=X=X=X=X=X=X=X=X=X=X=X=X=X=X=X=X=X=X=X=X=X=X=X=X=X=X",
"=X=X=X=X=X=X=X=X=Xd V F F G K 6 7 i j P &.:.:.$.L 0 ; r $.~.Q.6 k k I U u =X=X=X=X=X=X=X=X=X=X=X=X=X=X=X=X=X=X=X=X=X=X=X=X=X=X=X",
"=X=X=X=X=X=X=X=X=X=Xx V V V b q 7 i j k :.o.{ [ ; J.~.I.L ~.Q.; w p K C N S =X=X=X=X=X=X=X=X=X=X=X=X=X=X=X=X=X=X=X=X=X=X=X=X=X=X",
"=X=X=X=X=X=X=X=X=X=X=Xd > d 1 7 4 r j k o.P i | X.I.}.[.2.K.K.0 7 u I v v S =X=X=X=X=X=X=X=X=X=X=X=X=X=X=X=X=X=X=X=X=X=X=X=X=X=X",
"=X=X=X=X=X=X=X=X=X=X=X=X=X=X=X=Xq j k k k j | ,.r.9.I.).x.| ; j q j p 8 7 =X=X=X=X=X=X=X=X=X=X=X=X=X=X=X=X=X=X=X=X=X=X=X=X=X=X=X",
"=X=X=X=X=X=X=X=X=X=X=X=X=X=X=X=Xj k j L &.%.:.&.| P | o.{ L j j 7 i j 6 7 =X=X=X=X=X=X=X=X=X=X=X=X=X=X=X=X=X=X=X=X=X=X=X=X=X=X=X",
"=X=X=X=X=X=X=X=X=X=X=X=X=X=X=X=Xq r e u P P o.%.u 4 0 e 6 e e e 7 q q 7 u =X=X=X=X=X=X=X=X=X=X=X=X=X=X=X=X=X=X=X=X=X=X=X=X=X=X=X",
"=X=X=X=X=X=X=X=X=X=X=X=X=X=X=Xy q 5 7 4 4 + p X.q 5 e i 7 6 7 6 r q q q 7 =X=X=X=X=X=X=X=X=X=X=X=X=X=X=X=X=X=X=X=X=X=X=X=X=X=X=X",
"=X=X=X=X=X=X=X=X=XA _ _ H R D l 0 7 7 7 7 7 7 4 7 7 6 6 7 7 7 q j k p 7 =X=X=X=X=X=X=X=X=X=X=X=X=X=X=X=X=X=X=X=X=X=X=X=X=X=X=X=X",
"=X=X=X=X=X=X=X=X: l.XX$X_ z D c @ # *     7 p r - - O   4 7 7 7 j k p 7 =X=X=X=X=X=X=X=X=X=X=X=X=X=X=X=X=X=X=X=X=X=X=X=X=X=X=X=X",
"=X=X=X=X=X=X=X=X: n.S.c.,   ) b.n.T =.R.R.9.X.9.R.W.R.I.i + e j j k j q =X=X=X=X=X=X=X=X=X=X=X=X=X=X=X=X=X=X=X=X=X=X=X=X=X=X=X=X",
"=X=X=X=X=X=X=X=X= D.G.( ] ] n.XXD.c.R.+XOXK.>.J.(.[.OX_.:.e 7 p j j u =X=X=X=X=X=X=X=X=X=X=X=X=X=X=X=X=X=X=X=X=X=X=X=X=X=X=X=X=X",
"=X=X=X=X=X=X=X=XX .X#XN.S.B.XX&Xy.E.[.[.[.K.:.r.9.Q.+X_.K.o.+ 7 j r 7 =X=X=X=X=X=X=X=X=X=X=X=X=X=X=X=X=X=X=X=X=X=X=X=X=X=X=X=X=X",
"=X=X=X=X=X=X=X=X> _ ` ) H n.G.G.o.b v.+X+XT.4.:.&.9.Q.[.K. .. 7 6 7 7 =X=X=X=X=X=X=X=X=X=X=X=X=X=X=X=X=X=X=X=X=X=X=X=X=X=X=X=X=X",
"=X=X=X=X=X=X=X=Xc > f M n ] f.w.A #.x.T.v.q.%.[ $.:.9.r.+.3.;.4 o.L 5 =X=X=X=X=X=X=X=X=X=X=X=X=X=X=X=X=X=X=X=X=X=X=X=X=X=X=X=X=X",
"=X=X=X=X=X=X=X=Xd x M F F n z m C <.9.;.l O.o.K $.$.k = X.3.;.7 @.[ 7 =X=X=X=X=X=X=X=X=X=X=X=X=X=X=X=X=X=X=X=X=X=X=X=X=X=X=X=X=X",
"=X=X=X=X=X=X=X=Xd M F D D D D D F C b r > X.#.F $.[ 2 v r.+.. q i k k =X=X=X=X=X=X=X=X=X=X=X=X=X=X=X=X=X=X=X=X=X=X=X=X=X=X=X=X=X",
"=X=X=X=X=X=X=X=X=Xc x x z z z l =X=Xr e 7 e r d k k j z W J 8 7 q u 7 =X=X=X=X=X=X=X=X=X=X=X=X=X=X=X=X=X=X=X=X=X=X=X=X=X=X=X=X=X",
"=X=X=X=X=X=X=X=X=X=X=X=X2 t 2 t =X=X7 9 7 8 g V r w t c b y 7 w 7 e =X=X=X=X=X=X=X=X=X=X=X=X=X=X=X=X=X=X=X=X=X=X=X=X=X=X=X=X=X=X",
"=X=X=X=X=X=X=X=X=X=X=X=X=X=X=X=X=X=X=Xq e 5 J U e 8 y f 5 =X=X=X=X=X=X=X=X=X=X=X=X=X=X=X=X=X=X=X=X=X=X=X=X=X=X=X=X=X=X=X=X=X=X=X",
"=X=X=X=X=X=X=X=X=X=X=X=X=X=X=X=X=X=X=X=X=X=X=X=X=X=X=X=X=X=X=X=X=X=X=X=X=X=X=X=X=X=X=X=X=X=X=X=X=X=X=X=X=X=X=X=X=X=X=X=X=X=X=X=X",
"=X=X=X=X=X=X=X=X=X=X=X=X=X=X=X=X=X=X=X=X=X=X=X=X=X=X=X=X=X=X=X=X=X=X=X=X=X=X=X=X=X=X=X=X=X=X=X=X=X=X=X=X=X=X=X=X=X=X=X=X=X=X=X=X",
"=X=X=X=X=X=X=X=X=X=X=X=X=X=X=X=X=X=X=X=X=X=X=X=X=X=X=X=X=X=X=X=X=X=X=X=X=X=X=X=X=X=X=X=X=X=X=X=X=X=X=X=X=X=X=X=X=X=X=X=X=X=X=X=X",
"=X=X=X=X=X=X=X=X=X=X=X=X=X=X=X=X=X=X=X=X=X=X=X=X=X=X=X=X=X=X=X=X=X=X=X=X=X=X=X=X=X=X=X=X=X=X=X=X=X=X=X=X=X=X=X=X=X=X=X=X=X=X=X=X",
"=X=X=X=X=X=X=X=X=X=X=X=X=X=X=X=X=X=X=X=X=X=X=X=X=X=X=X=X=X=X=X=X=X=X=X=X=X=X=X=X=X=X=X=X=X=X=X=X=X=X=X=X=X=X=X=X=X=X=X=X=X=X=X=X",
"=X=X=X=X=X=X=X=X=X=X=X=X=X=X=X=X=X=X=X=X=X=X=X=X=X=X=X=X=X=X=X=X=X=X=X=X=X=X=X=X=X=X=X=X=X=X=X=X=X=X=X=X=X=X=X=X=X=X=X=X=X=X=X=X",
"=X=X=X=X=X=X=X=X=X=X=X=X=X=X=X=X=X=X=X=X=X=X=X=X=X=X=X=X=X=X=X=X=X=X=X=X=X=X=X=X=X=X=X=X=X=X=X=X=X=X=X=X=X=X=X=X=X=X=X=X=X=X=X=X",
"=X=X=X=X=X=X=X=X=X=X=X=X=X=X=X=X=X=X=X=X=X=X=X=X=X=X=X=X=X=X=X=X=X=X=X=X=X=X=X=X=X=X=X=X=X=X=X=X=X=X=X=X=X=X=X=X=X=X=X=X=X=X=X=X",
"=X=X=X=X=X=X=X=X=X=X=X=X=X=X=X=X=X=X=X=X=X=X=X=X=X=X=X=X=X=X=X=X=X=X=X=X=X=X=X=X=X=X=X=X=X=X=X=X=X=X=X=X=X=X=X=X=X=X=X=X=X=X=X=X"
};
