/* XPM */
static char *result[] = {
/* columns rows colors chars-per-pixel */
"64 64 181 2 ",
"   c #000000",
".  c #090000",
"X  c #09181F",
"o  c #191718",
"O  c #1F1D1F",
"+  c #141518",
"@  c #220000",
"#  c #27030A",
"$  c #2A0B15",
"%  c #2C1319",
"&  c #03231F",
"*  c #191E23",
"=  c #3D0D22",
"-  c #211F21",
";  c #2B1D21",
":  c #023235",
">  c #153737",
",  c #222224",
"<  c #2B2327",
"1  c #26272A",
"2  c #2B272A",
"3  c #26292B",
"4  c #2A2B2D",
"5  c #30262D",
"6  c #262D33",
"7  c #2C2E31",
"8  c #302F33",
"9  c #2E3136",
"0  c #2D343A",
"q  c #26393D",
"w  c #2B393D",
"e  c #313337",
"r  c #31353B",
"t  c #3B343C",
"y  c #34383E",
"u  c #3B3A3F",
"i  c #2B3D40",
"p  c #253C41",
"a  c #363C42",
"s  c #393E45",
"d  c #1E4A4E",
"f  c #034C51",
"g  c #0C4C50",
"h  c #1D4C51",
"j  c #055559",
"k  c #19565A",
"l  c #17595E",
"z  c #244044",
"x  c #284747",
"c  c #24494D",
"v  c #3B4046",
"b  c #3D4349",
"n  c #34484C",
"m  c #234E53",
"M  c #344C51",
"N  c #245458",
"B  c #205F5E",
"V  c #265659",
"C  c #3B5259",
"Z  c #375459",
"A  c #155C61",
"S  c #285D63",
"D  c #355960",
"F  c #016464",
"G  c #0E686A",
"H  c #1A6668",
"J  c #00726E",
"K  c #007877",
"L  c #007B7A",
"P  c #007572",
"I  c #157E7D",
"U  c #2B6368",
"Y  c #39666A",
"T  c #2C7D7F",
"R  c #3C7678",
"E  c #41454C",
"W  c #43484F",
"Q  c #49494F",
"!  c #444B51",
"~  c #4A4D54",
"^  c #534C54",
"/  c #4D5057",
"(  c #4D545B",
")  c #52545B",
"_  c #53585F",
"`  c #55535B",
"'  c #435F66",
"]  c #555C64",
"[  c #585E65",
"{  c #466268",
"}  c #5C636B",
"|  c #52686F",
" . c #4A6E74",
".. c #5C6E75",
"X. c #576971",
"o. c #43767D",
"O. c #63666E",
"+. c #62686F",
"@. c #646C74",
"#. c #696E76",
"$. c #6D6F79",
"%. c #716F78",
"&. c #65747C",
"*. c #6D727B",
"=. c #72767F",
"-. c #4B7C83",
";. c #477A80",
":. c #547F86",
">. c #687982",
",. c #717780",
"<. c #787780",
"1. c #757B84",
"2. c #797D85",
"3. c #7B7F89",
"4. c #008987",
"5. c #008988",
"6. c #028382",
"7. c #138A89",
"8. c #009491",
"9. c #009B99",
"0. c #208484",
"q. c #3A858A",
"w. c #3F8D93",
"e. c #289D9E",
"r. c #359999",
"t. c #00A9A5",
"y. c #00B6B3",
"u. c #2EAAA9",
"i. c #36A8AB",
"p. c #27B2B2",
"a. c #3DB1B2",
"s. c #31B1B0",
"d. c #43858C",
"f. c #4C858C",
"g. c #5A868E",
"h. c #529199",
"j. c #77858E",
"k. c #7C838B",
"l. c #798790",
"z. c #768C95",
"x. c #6D939B",
"c. c #71929B",
"v. c #7599A3",
"b. c #5BACB3",
"n. c #41BBBD",
"m. c #5AB1B9",
"M. c #63ABB4",
"N. c #65B3BC",
"B. c #6EB5BE",
"V. c #76BCBF",
"C. c #6BB9C2",
"Z. c #72BAC2",
"A. c #7DCBD1",
"S. c #80868D",
"D. c #848B94",
"F. c #8A8F97",
"G. c #8E959E",
"H. c #84949E",
"J. c #90969F",
"K. c #9097A0",
"L. c #939AA3",
"P. c #9CA3AC",
"I. c #9FA6B0",
"U. c #9BACB5",
"Y. c #96B6BF",
"T. c #A4ABB5",
"R. c #A7AFB9",
"E. c #A0A7B1",
"W. c #AAB2BC",
"Q. c #B2B5BF",
"!. c #9BB7C1",
"~. c #AEB6C0",
"^. c #AAB8C2",
"/. c #B2B9C3",
"(. c #B4BBC6",
"). c #B9C1CB",
"_. c #98DDE4",
"`. c #97E1E6",
"'. c #ADEAF0",
"]. c #B3ECF3",
"[. c None",
/* pixels */
"[.[.[.[.[.[.[.[.[.[.[.[.[.[.[.[.[.[.[.[.[.[.[.[.[.[.[.[.[.[.[.[.[.[.[.[.[.[.[.[.[.[.[.[.[.[.[.[.[.[.[.[.[.[.[.[.[.[.[.[.[.[.[.[.",
"[.[.[.[.[.[.[.[.[.[.[.[.[.[.[.[.[.[.[.[.[.[.[.[.[.[.[.[.[.[.[.[.[.[.[.[.[.[.[.[.[.[.[.[.[.[.[.[.[.[.[.[.[.[.[.[.[.[.[.[.[.[.[.[.",
"[.[.[.[.[.[.[.[.[.[.[.[.[.[.[.[.[.[.[.[.[.[.[.[.[.[.[.[.[.[.[.[.[.[.[.[.[.[.[.[.[.[.[.[.[.[.[.[.[.[.[.[.[.[.[.[.[.[.[.[.[.[.[.[.",
"[.[.[.[.[.[.[.[.[.[.[.[.[.[.[.[.[.[.[.[.[.[.[.[.[.[.[.[.[.[.[.[.[.[.[.[.[.[.[.[.[.[.[.[.[.[.[.[.[.[.[.[.[.[.[.[.[.[.[.[.[.[.[.[.",
"[.[.[.[.[.[.[.[.[.[.[.[.[.[.[.[.[.[.[.[.[.[.[.[.[.[.[.[.[.[.[.[.[.[.[.[.[.[.[.[.[.[.[.[.[.[.[.[.[.[.[.[.[.[.[.[.[.[.[.[.[.[.[.[.",
"[.[.[.[.[.[.[.[.[.[.[.[.[.[.[.[.[.[.[.[.[.[.[.[.[.[.[.[.[.[.[.[.[.[.[.[.[.[.[.[.[.[.[.[.[.[.[.[.[.[.[.[.[.[.[.[.[.[.[.[.[.[.[.[.",
"[.[.[.[.[.[.[.[.[.[.[.[.[.[.[.[.[.[.[.[.[.[.[.[.[.[.[.[.[.[.[.[.[.[.[.[.[.[.[.[.[.[.[.[.[.[.[.[.[.[.[.[.[.[.[.[.[.[.[.[.[.[.[.[.",
"[.[.[.[.[.[.[.[.[.[.[.[.[.[.[.[.[.[.[.[.[.[.[.[.[.[.[.[.[.[.[.[.[.[.[.[.[.[.[.[.[.[.[.[.[.[.[.[.[.[.[.[.[.[.[.[.[.[.[.[.[.[.[.[.",
"[.[.[.[.[.[.[.[.[.[.[.[.[.[.[.[.[.[.[.[.[.[.[.[.[.[.[.[.[.[.[.[.[.[.[.[.[.[.[.[.[.[.[.[.[.[.[.[.[.[.[.[.[.[.[.[.[.[.[.[.[.[.[.[.",
"[.[.[.[.[.[.[.[.[.[.[.[.[.[.[.[.[.[.[.[.[.[.[.[.[.[.[.[.[.[.[.[.[.[.[.[.[.[.[.[.[.[.[.[.[.[.[.[.[.[.[.[.[.[.[.[.[.[.[.[.[.[.[.[.",
"[.[.[.[.[.[.[.[.[.[.[.[.[.[.[.[.[.[.[.[.[.[.[.[.[.[.[.[.[.[.[.[.[.[.[.[.[.[.[.[.[.[.[.[.[.[.[.[.[.[.[.[.[.[.[.[.[.[.[.[.[.[.[.[.",
"[.[.[.[.[.[.[.[.[.[.[.[.[.[.[.[.[.[.[.[.[.[.[.[.[.[.[.[.[.[.[.'.[.[.[.[.[.[.[.[.[.[.[.[.[.[.[.[.[.[.[.[.[.[.[.[.[.[.[.[.[.[.[.[.",
"[.[.[.[.[.[.[.[.[.[.[.[.[.[.[.[.[.[.[.[.[.[.[.[.[.[.[.[.[.[.[.Z.[.[.[.[.[.[.[.[.[.[.[.[.[.[.[.[.[.[.[.[.[.[.[.[.[.[.[.[.[.[.[.[.",
"[.[.[.[.[.[.[.[.[.[.[.[.[.[.[.[.[.[.[.[.[.[.[.[.[.[.[.[.[.[.[.s.[.[.[.[.[.[.[.[.[.[.[.[.[.[.[.[.[.[.[.[.[.[.[.[.[.[.[.[.[.[.[.[.",
"[.[.[.[.[.[.[.[.[.[.[.[.[.[.[.[.[.[.[.[.[.[.[.[.[.[.[.[.[.[.[.9.[.[.[.[.[.[.[.[.[.[.[.[.[.[.[.[.[.[.[.[.[.[.[.[.[.[.[.[.[.[.[.[.",
"[.[.[.[.[.[.[.[.[.[.[.[.N.[.[.[.[.[.[.[.[.[.[.[.[.[.[.[.[.[.[.6.y.[.[.[.[.[.[.[.[.[.[.[.[.[.[.[.[.[.[.N.[.[.[.[.[.[.[.[.[.[.[.[.",
"[.[.[.[.[.[.[.[.[.[.[.[.[.C.b.J [.[.[.9 y 7 2 4 [.[.[.[.[.l k A 5.[.[.[.[.[.[.[.4 4 4 4 4 y = [.t.`.].[.[.[.[.[.[.[.[.[.[.[.[.[.",
"[.[.[.[.[.[.[.[.[.[.[.[.[.[.i.u.'._.f.% Q E 9 4 7       ] n : > > & Q =.*.,.[   1 7 9 r 2 9 H t.8.V.[.[.[.[.[.[.[.[.[.[.[.[.[.[.",
"[.[.[.[.[.[.[.[.[.[.[.[.[.[.[.s._.A.w.i g.{ 7 2 , #.k.2.@.) ~ `  .Z *.E.P.P.L.2.s 1 0 a 0 G e.n.7.[.[.[.[.[.[.[.[.[.[.[.[.[.[.[.",
"[.[.[.[.[.[.[.[.[.[.[.[.[.[.[.L J P F U B.:.$ 4   K.).W.@.*.k.z.B.f.3./.~.~./.R./ a b a h 8.a.b.0.[.[.[.[.[.[.[.[.[.[.[.[.[.[.[.",
"[.[.[.[.[.[.[.[.[.[.[.[.[.[.[.x L G f Y ^.k.X y r ] *.k.1.<.c.m.p.L C #.k.D.3.} a #.#.0 f L I S > r s [.[.[.[.[.[.[.[.[.[.[.[.[.",
"[.[.[.[.[.[.[.[.[.[.[.[.[.[.[.3 F j D ,.L.+.X 0 6 k.I.P.k.%.H.Y.R U ] @.*.} ] ] s E b v &.Y j g O.` 3 [.[.[.[.[.[.[.[.[.[.[.[.[.",
"[.[.[.[.[.[.[.[.[.[.[.[.[.[.u W C ' ..,.O.[ ] ) 6 P.(.E.3.D.T./.^ ` k.L.K.F.,.] 6 O.@.a 2.@.' | 3._   [.[.[.[.[.[.[.[.[.[.[.[.[.",
"[.[.[.[.[.[.[.[.[.[.[.[.[.O W } [ ,.*.] 9 @.S.1.r L.E.$.,.P./.T.&.@.G././.).P.( ! E.I.M ,.3.3.k.l.] . [.[.[.[.[.[.[.[.[.[.[.[.[.",
"[.[.[.[.[.[.[.[.[.[.[.[.[.o 6 E [ X.O.] a @.k.2.y ] @.} 3.} ` &.M.c.<.D./.).P.} T.(.!.M.j.2.1.l.B.;.  [.[.[.[.[.[.[.[.[.[.[.[.[.",
"[.[.[.[.[.[.[.[.[.[.[.[.[.#.O.y ! b ( } a #.*.( 4 ~ } } #.! r X.N.v.%.@.G.L.k.} J.~.U.o.@.1.1.@.-.>.O.[.[.[.[.[.[.[.[.[.[.[.[.[.",
"[.[.[.[.[.[.[.[.[.[.[.[.[.D.1.6 r 0 b ] 0 #.&.* 3 W ( ( / s E ..N.x.O.[ @.#.} _ _ L.F.# ) *.@.! % =.D.[.[.[.[.[.[.[.[.[.[.[.[.[.",
"[.[.[.[.[.[.[.[.[.[.[.[.[.2.#., a a a 0 - @.@.% 3 a b v a r E ..M.g.` } [ } ( 0 + } O.a ] [ / w 0 *.2.[.[.[.[.[.[.[.[.[.[.[.[.[.",
"[.[.[.[.[.[.[.[.[.[.[.[.[.u u 4 a a y 4 2 s s 3 o O.2.*.b y w S N.d.M } [ } / 1 2 s b a v v s a a v y [.[.[.[.[.[.[.[.[.[.[.[.[.",
"[.[.[.[.[.[.[.[.[.[.[.[.[.[., 7 a r 6 4 r 9 4 7 ~ *.k.1.] t U 9.q.H d ~ *.,.} 3 4 4 6 r a r 7 9 r 1 [.[.[.[.[.[.[.[.[.[.[.[.[.[.",
"[.[.[.[.[.[.[.[.[.[.[.[.[.[.[.7 r 7 2 7 y 7 4 r ( @.,.&.O.~ R r.D Z Z ! *.,.@.b r 4 1 7 r 7 4 4 4 [.[.[.[.[.[.[.[.[.[.[.[.[.[.[.",
"[.[.[.[.[.[.[.[.[.[.[.[.[.[.[.7 7 4 4 4 4 4 9 a y / } ] [ [ ] ` [ [ } } [ ] } } b 6 4 4 4 4 4 4 7 [.[.[.[.[.[.[.[.[.[.[.[.[.[.[.",
"[.[.[.[.[.[.[.[.[.[.[.[.[.[.[.3 4 4 4 4 4 4 e a a s s b b s a e # ` O.} } [ } [ b 7 3 4 4 4 4 4 a [.[.[.[.[.[.[.[.[.[.[.[.[.[.[.",
"[.[.[.[.[.[.[.[.[.[.[.[.[.[.E ( a 6 4 4 4 4 9 a s r 7 6 7 y 8 i h. .a ~ W ] ] ! v y e 4 4 3 4 a ) b [.[.[.[.[.[.[.[.[.[.[.[.[.[.",
"[.[.[.[.[.[.[.[.[.[.[.[.[.O ~ } b 7 4 4 4 4 9 a y 7 4 4 7 r 2 n N.-.@ r 0 ~ ~ w a y e 4 4 7 r b X.( * [.[.[.[.[.[.[.[.[.[.[.[.[.",
"[.[.[.[.[.[.[.[.[.[.[.[.[.- E ] v 9 4 4 4 2 e a 4 4 4 7 v s 4 M N.-.2 v v s r a a e 3 4 4 y a s ] b % [.[.[.[.[.[.[.[.[.[.[.[.[.",
"[.[.[.[.[.[.[.[.[.[.[.[.[.4 e r a a r 4 4 4 e a 6 4 3 e [ ! q U N.d.n } } b 1 6 7 4 4 6 4 y a a y [.[.[.[.[.[.[.[.[.[.[.[.[.[.[.",
"[.[.[.[.[.[.[.[.[.[.[.[.[.[.1 4 9 a y 3 4 4 7 9 4 4 3 8 E u 4 N a.T 4 E b r 2 4 4 4 4 4 4 7 y a [.[.[.[.[.[.[.[.[.[.[.[.[.[.[.[.",
"[.[.[.[.[.[.[.[.[.[.[.[.[.[.[.9 3 e r 3 4 7 4 4 4 4 4 4 , 3 ; w 4.B # < , 4 4 4 4 4 4 4 4 3 9 r [.[.[.[.[.[.[.[.[.[.[.[.[.[.[.[.",
"[.[.[.[.[.[.[.[.[.[.[.[.[.[.[.4 4 4 4 4 4 4 4 4 4 4 4 4 4 4 4 4 $ ; 6 4 4 4 4 4 7 4 4 4 4 4 4 4 [.[.[.[.[.[.[.[.[.[.[.[.[.[.[.[.",
"[.[.[.[.[.[.[.[.[.[.[.[.[.[.[.[.2 2 2 2 2 4 4 4 4 4 4 4 4 4 4 4 4 4 4 4 4 4 4 4 4 4 4 2 2 4 2 [.[.[.[.[.[.[.[.[.[.[.[.[.[.[.[.[.",
"[.[.[.[.[.[.[.[.[.[.[.[.[.[.[.[.m m c d d q 2 4 3 3 4 4 7 4 4 4 4 4 4 4 4 4 7 4 4 2 q c c N c [.[.[.[.[.[.[.[.[.[.[.[.[.[.[.[.[.",
"[.[.[.[.[.[.[.[.[.[.[.[.[.[.[.[.k k A l A z 2 9 e r 8 4 4 4 4 7 4 4 4 4 4 4 4 4 4 < z A A k m [.[.[.[.[.[.[.[.[.[.[.[.[.[.[.[.[.",
"[.[.[.[.[.[.[.[.[.[.[.[.[.[.[.[.[.m k k l q 7 s a a y 4 7 4 4 4 4 7 4 4 4 7 4 7 4 2 p l k c [.[.[.[.[.[.[.[.[.[.[.[.[.[.[.[.[.[.",
"[.[.[.[.[.[.[.[.[.[.[.[.[.[.[.[.[.[.[.[.[.4 r a a a a a a e 4 [.[.7 4 9 y a a y 6 4 9 [.[.[.[.[.[.[.[.[.[.[.[.[.[.[.[.[.[.[.[.[.",
"[.[.[.[.[.[.[.[.[.[.[.[.[.[.[.[.[.[.[.[.[.4 9 r a a a a r e 4 [.[.4 4 4 a a a a 4 e 4 [.[.[.[.[.[.[.[.[.[.[.[.[.[.[.[.[.[.[.[.[.",
"[.[.[.[.[.[.[.[.[.[.[.[.[.[.[.[.[.[.[.[.[.8 3 4 y y y y 4 4 9 [.[.4 4 e y y y y 4 4 8 [.[.[.[.[.[.[.[.[.[.[.[.[.[.[.[.[.[.[.[.[.",
"[.[.[.[.[.[.[.[.[.[.[.[.[.[.[.[.[.[.[.[.[.[.e 4 4 4 4 4 4 4 4 [.[.e 4 4 4 4 3 4 4 e [.[.[.[.[.[.[.[.[.[.[.[.[.[.[.[.[.[.[.[.[.[.",
"[.[.[.[.[.[.[.[.[.[.[.[.[.[.[.[.[.[.[.[.[.[.[.[.[.[.[.[.[.[.[.[.[.[.[.[.[.[.[.[.[.[.[.[.[.[.[.[.[.[.[.[.[.[.[.[.[.[.[.[.[.[.[.[.",
"[.[.[.[.[.[.[.[.[.[.[.[.[.[.[.[.[.[.[.[.[.[.[.[.[.[.[.[.[.[.[.[.[.[.[.[.[.[.[.[.[.[.[.[.[.[.[.[.[.[.[.[.[.[.[.[.[.[.[.[.[.[.[.[.",
"[.[.[.[.[.[.[.[.[.[.[.[.[.[.[.[.[.[.[.[.[.[.[.[.[.[.[.[.[.[.[.[.[.[.[.[.[.[.[.[.[.[.[.[.[.[.[.[.[.[.[.[.[.[.[.[.[.[.[.[.[.[.[.[.",
"[.[.[.[.[.[.[.[.[.[.[.[.[.[.[.[.[.[.[.[.[.[.[.[.[.[.[.[.[.[.[.[.[.[.[.[.[.[.[.[.[.[.[.[.[.[.[.[.[.[.[.[.[.[.[.[.[.[.[.[.[.[.[.[.",
"[.[.[.[.[.[.[.[.[.[.[.[.[.[.[.[.[.[.[.[.[.[.[.[.[.[.[.[.[.[.[.[.[.[.[.[.[.[.[.[.[.[.[.[.[.[.[.[.[.[.[.[.[.[.[.[.[.[.[.[.[.[.[.[.",
"[.[.[.[.[.[.[.[.[.[.[.[.[.[.[.[.[.[.[.[.[.[.[.[.[.[.[.[.[.[.[.[.[.[.[.[.[.[.[.[.[.[.[.[.[.[.[.[.[.[.[.[.[.[.[.[.[.[.[.[.[.[.[.[.",
"[.[.[.[.[.[.[.[.[.[.[.[.[.[.[.[.[.[.[.[.[.[.[.[.[.[.[.[.[.[.[.[.[.[.[.[.[.[.[.[.[.[.[.[.[.[.[.[.[.[.[.[.[.[.[.[.[.[.[.[.[.[.[.[.",
"[.[.[.[.[.[.[.[.[.[.[.[.[.[.[.[.[.[.[.[.[.[.[.[.[.[.[.[.[.[.[.[.[.[.[.[.[.[.[.[.[.[.[.[.[.[.[.[.[.[.[.[.[.[.[.[.[.[.[.[.[.[.[.[.",
"[.[.[.[.[.[.[.[.[.[.[.[.[.[.[.[.[.[.[.[.[.[.[.[.[.[.[.[.[.[.[.[.[.[.[.[.[.[.[.[.[.[.[.[.[.[.[.[.[.[.[.[.[.[.[.[.[.[.[.[.[.[.[.[.",
"[.[.[.[.[.[.[.[.[.[.[.[.[.[.[.[.[.[.[.[.[.[.[.[.[.[.[.[.[.[.[.[.[.[.[.[.[.[.[.[.[.[.[.[.[.[.[.[.[.[.[.[.[.[.[.[.[.[.[.[.[.[.[.[.",
"[.[.[.[.[.[.[.[.[.[.[.[.[.[.[.[.[.[.[.[.[.[.[.[.[.[.[.[.[.[.[.[.[.[.[.[.[.[.[.[.[.[.[.[.[.[.[.[.[.[.[.[.[.[.[.[.[.[.[.[.[.[.[.[.",
"[.[.[.[.[.[.[.[.[.[.[.[.[.[.[.[.[.[.[.[.[.[.[.[.[.[.[.[.[.[.[.[.[.[.[.[.[.[.[.[.[.[.[.[.[.[.[.[.[.[.[.[.[.[.[.[.[.[.[.[.[.[.[.[.",
"[.[.[.[.[.[.[.[.[.[.[.[.[.[.[.[.[.[.[.[.[.[.[.[.[.[.[.[.[.[.[.[.[.[.[.[.[.[.[.[.[.[.[.[.[.[.[.[.[.[.[.[.[.[.[.[.[.[.[.[.[.[.[.[.",
"[.[.[.[.[.[.[.[.[.[.[.[.[.[.[.[.[.[.[.[.[.[.[.[.[.[.[.[.[.[.[.[.[.[.[.[.[.[.[.[.[.[.[.[.[.[.[.[.[.[.[.[.[.[.[.[.[.[.[.[.[.[.[.[.",
"[.[.[.[.[.[.[.[.[.[.[.[.[.[.[.[.[.[.[.[.[.[.[.[.[.[.[.[.[.[.[.[.[.[.[.[.[.[.[.[.[.[.[.[.[.[.[.[.[.[.[.[.[.[.[.[.[.[.[.[.[.[.[.[.",
"[.[.[.[.[.[.[.[.[.[.[.[.[.[.[.[.[.[.[.[.[.[.[.[.[.[.[.[.[.[.[.[.[.[.[.[.[.[.[.[.[.[.[.[.[.[.[.[.[.[.[.[.[.[.[.[.[.[.[.[.[.[.[.[."
};
