/* XPM */
static char *result[] = {
/* columns rows colors chars-per-pixel */
"64 64 161 2 ",
"   c #000100",
".  c #000D00",
"X  c #080303",
"o  c #140000",
"O  c #1E0000",
"+  c #110C0A",
"@  c #001501",
"#  c #09141B",
"$  c #191315",
"%  c #1B1618",
"&  c #1D1B1D",
"*  c #171818",
"=  c #2E0000",
"-  c #201E1F",
";  c #1E1E20",
":  c #211F21",
">  c #022F2A",
",  c #072D29",
"<  c #122725",
"1  c #1E2123",
"2  c #00332E",
"3  c #003733",
"4  c #003A37",
"5  c #013B39",
"6  c #123837",
"7  c #163B3B",
"8  c #242325",
"9  c #262729",
"0  c #26292C",
"q  c #2A2B2D",
"w  c #3A272B",
"e  c #272C32",
"r  c #2C2E31",
"t  c #362F33",
"y  c #233234",
"u  c #2E3135",
"i  c #2E3439",
"p  c #2B383B",
"a  c #303236",
"s  c #31363B",
"d  c #33393E",
"f  c #393A3E",
"g  c #00413F",
"h  c #2B3D41",
"j  c #363C42",
"k  c #393E44",
"l  c #503A57",
"z  c #014342",
"x  c #0E4242",
"c  c #004548",
"v  c #0A4949",
"b  c #1A4445",
"n  c #194F4F",
"m  c #114343",
"M  c #19595B",
"N  c #2A4448",
"B  c #3C4146",
"V  c #3D434A",
"C  c #3A4949",
"Z  c #304446",
"A  c #285859",
"S  c #2A5156",
"D  c #39545A",
"F  c #1E5C62",
"G  c #245F63",
"H  c #286468",
"J  c #366061",
"K  c #2C6B72",
"L  c #326C73",
"P  c #357176",
"I  c #3B7277",
"U  c #377379",
"Y  c #3D7479",
"T  c #434646",
"R  c #41454B",
"E  c #45494C",
"W  c #484A4F",
"Q  c #454B52",
"!  c #494E54",
"~  c #4F4557",
"^  c #56465E",
"/  c #514F54",
"(  c #4A5057",
")  c #4D545A",
"_  c #40545B",
"`  c #51565D",
"'  c #51585F",
"]  c #555B63",
"[  c #585F66",
"{  c #5F5868",
"}  c #5D5368",
"|  c #5D6364",
" . c #5B626A",
".. c #62676E",
"X. c #616770",
"o. c #656B73",
"O. c #696E76",
"+. c #696F78",
"@. c #6D737B",
"#. c #6B7076",
"$. c #71777E",
"%. c #3B7C83",
"&. c #4E7D85",
"*. c #407E86",
"=. c #6F7881",
"-. c #777381",
";. c #757B83",
":. c #787E86",
">. c #787F88",
",. c #8B7C90",
"<. c #3C8287",
"1. c #3D838A",
"2. c #408186",
"3. c #42848B",
"4. c #46888F",
"5. c #4A898E",
"6. c #4C8F97",
"7. c #5A949A",
"8. c #7A8087",
"9. c #7B828B",
"0. c #76848D",
"q. c #7F8C93",
"w. c #5297A0",
"e. c #559DA5",
"r. c #5AA3AB",
"t. c #5AABB4",
"y. c #74A6AA",
"u. c #64B2BB",
"i. c #6BB4BD",
"p. c #6ABAC3",
"a. c #74C1CA",
"s. c #81868E",
"d. c #808B8F",
"f. c #818790",
"g. c #838A93",
"h. c #8C949C",
"j. c #9C85A5",
"k. c #9097A1",
"l. c #959DA5",
"z. c #B195BB",
"x. c #9EA5AE",
"c. c #80ACB2",
"v. c #9DA7B0",
"b. c #A2A9B3",
"n. c #A8AFB9",
"m. c #AAB1BB",
"M. c #A0B0BA",
"N. c #BF9EC8",
"B. c #9CB8C2",
"V. c #AFB6C0",
"C. c #B3BAC4",
"Z. c #C29BCF",
"A. c #C39CD0",
"S. c #E2B5F2",
"D. c #85C7CF",
"F. c #85C8D0",
"G. c #A3D8DE",
"H. c #A9E4EC",
"J. c #AEE9F1",
"K. c #F5C3FF",
"L. c None",
/* pixels */
"L.L.L.L.L.L.L.L.L.L.L.L.L.L.L.L.L.L.L.L.L.L.L.L.L.L.L.L.L.L.L.L.L.L.L.L.L.L.L.L.L.L.L.L.L.L.L.L.L.L.L.L.L.L.L.L.L.L.L.L.L.L.L.L.",
"L.L.L.L.L.L.L.L.L.L.L.L.L.L.L.L.L.L.L.L.L.L.L.L.L.L.L.L.L.L.L.L.L.L.L.L.L.L.L.L.L.L.L.L.L.L.L.L.L.L.L.L.L.L.L.L.L.L.L.L.L.L.L.L.",
"L.L.L.L.L.L.L.L.L.L.L.L.L.L.L.L.L.L.L.L.L.L.L.L.L.L.L.L.L.L.L.L.L.L.L.L.L.L.L.L.L.L.L.L.L.L.L.L.L.L.L.L.L.L.L.L.L.L.L.L.L.L.L.L.",
"L.L.L.L.L.L.L.L.L.L.L.L.L.L.L.L.L.L.L.L.L.L.L.L.L.L.L.L.L.L.L.L.L.L.L.L.L.L.L.L.L.L.L.L.L.L.L.L.L.L.L.L.L.L.L.L.L.L.L.L.L.L.L.L.",
"L.L.L.L.L.L.L.L.L.L.L.L.L.L.L.L.L.L.L.L.L.L.L.L.L.L.L.L.L.L.L.L.L.L.L.L.L.L.L.L.L.L.L.L.L.L.L.L.L.L.L.L.L.L.L.L.L.L.L.L.L.L.L.L.",
"L.L.L.L.L.L.L.L.L.L.L.L.L.L.L   . @       . < B L.L.L.L.L.L.L.L.L.L.L.L.L.L.L.L.k <   @ . @       P L.L.L.L.L.L.L.L.L.L.L.L.L.L.",
"L.L.L.L.L.L.L.L.L.L.L.L.L.L 3.2.3.<.7.y.5.3.Y p L.L.L.L.L.L.L.L.L.L.L.L.L.L.L.L.p I 3.3.3.<.7.y.3.1.L L.L.L.L.L.L.L.L.L.L.L.L.L.",
"L.L.L.L.L.L.L.L.L.L.L.L.L.  2.p.u.t.D.H.p.u.e.> L.L.L.L.L.L.L.L.L.L.L.L.L.L.L.L.> r.p.u.u.t.F.J.a.%.  L.L.L.L.L.L.L.L.L.L.L.L.L.",
"L.L.L.L.L.L.L.L.L.L.L.L.L.  3.u.H v A D n <.%.5 L.L.L.L.L.L.L.L.L.L.L.L.L.L.L.L.> r.r.v G F I w.p.3.  L.L.L.L.L.L.L.L.L.L.L.L.L.",
"L.L.L.L.L.L.L.L.L.L.L.L.L.> U w.U L L K L <.U 3 L.L.L.L.L.L.L.L.L.L.L.L.L.L.L.L.3 4.6.L U U U %.3.H 2 L.L.L.L.L.L.L.L.L.L.L.L.L.",
"L.L.L.L.L.L.L.L.L.L.L.L.L.5 M L U U U U P U H g L.L.L.L.L.L.L.L.L.L.L.L.L.L.L.L.5 G L U U P I L c c z L.L.L.L.L.L.L.L.L.L.L.L.L.",
"L.L.L.L.L.L.L.L.L.L.L.L.L.z g 5 5 3 5 5 3 5 g z L.L.L.L.L.L.L.L.L.L.L.L.L.L.L.L.z z 5 3 5 5 3 5 g g z L.L.L.L.L.L.L.L.L.L.L.L.L.",
"L.L.L.L.L.L.L.L.L.L.L.L.L.L.L.u e q e q r 7 c z L.L.L.L.L.L.L.L.L.L.L.L.L.L.L.L.z c 7 q e q e e a L.L.L.L.L.L.L.L.L.L.L.L.L.L.L.",
"L.L.L.L.L.L.L.L.L.L.L.L.L.L.$     & q q w 7 g y L.L.L.L.L.L.L.L.L.L.L.L.L.L.L.L.y x 6 $ % % % % % 8 L.L.L.L.L.L.L.L.L.L.L.L.L.L.",
"L.L.L.L.L.L.L.L.L.L.L.L.L.  / 8.8.!   0 $ 3 m y L.L.L.L.L.L.L.L.L.L.L.L.L.L.L.L.q , Z ' ) ` ` ` ` W 8 L.L.L.L.L.L.L.L.L.L.L.L.L.",
"L.L.L.L.L.L.L.L.L.L.L.L.L.N q.C.C.>.a E W N g z L.L.L.L.L.L.L.L.L.L.L.L.L.L.L.L.q q ] 9.8.8.>.;.>./ X L.L.L.L.L.L.L.L.L.L.L.L.L.",
"L.L.L.L.L.L.L.L.L.L.L.L.L.J.G.t W l.b.;.m.:.  L.L.L.L.      X ; :   X 9 8 L.L.L.: o.=. .;.9.+.k k L.L.L.L.L.L.L.L.L.L.L.L.L.L.L.",
"L.L.L.L.L.L.L.L.L.L.L.L.L.L.c.  # f.k.>.l...  q L.L.#.b.x.b.h...o.k.h.! ] B L.L.$ [ +.+.;.>.o.e 9 6 L.L.L.L.L.L.L.L.L.L.L.L.L.L.",
"L.L.L.L.L.L.L.L.L.L.L.L.L.L.  r e ! @.:...] ! 9 L.  +.x.l.l.h.8.;.h.g.C ) E : L.R V =.k.9.9.o.i q 7 L.L.L.L.L.L.L.L.L.L.L.L.L.L.",
"L.L.L.L.L.L.L.L.L.L.L.L.2.H , u ! V ] $.f O.O.- L.q r j ^ l { ;.[ ~ ^ } R s 8 L. .i ;.V.9.;.X.i r L.L.L.L.L.L.L.L.L.L.L.L.L.L.L.",
"L.L.L.L.L.L.L.L.L.L.L.L.L.L.L.Q n.k...j j j i 0 L.. T ,.S.K.A.@   Z.K.S.,.T & e j 0 ] g.9.] i j q b K 2.L.L.L.L.L.L.L.L.L.L.L.L.",
"L.L.L.L.L.L.L.L.L.L.L.L.L.L.o w h.h.O.e = 0.9.  ' s T -.z.Z.j.C C j.N.z.-.T 1 j X.O. .) o.+.[ j s h S L.L.L.L.L.L.L.L.L.L.L.L.L.",
"L.L.L.L.L.L.L.L.L.L.L.L.L.O D &.=.+.] j Y M.n.$.;.W i ` | | |  . .| | | ) j 9 Q >.q.+.e ' @.o.i k t = L.L.L.L.L.L.L.L.L.L.L.L.L.",
"L.L.L.L.L.L.L.L.L.L.L.L.L.= &.i.0./ : _ t.B.C.m.9.W ; k ' ' ] ] [ ] ] ` j e 0 V @.8.O.j [ [ ( j j k d L.L.L.L.L.L.L.L.L.L.L.L.L.",
"L.L.L.L.L.L.L.L.L.L.L.L.L.:.@.D X.Q V [ Z v.b.j k 0 1 9 a a a s s a u r 0 8 9 a j @.@.j  .! j j i @.:.L.L.L.L.L.L.L.L.L.L.L.L.L.",
"L.L.L.L.L.L.L.L.L.L.L.L.L.g.;.q V ) [ [ q s.>.  + l ` ( 9 & & : 8 % s ) ( ` T & & @.@.i Q V s u 9 ;.g.L.L.L.L.L.L.L.L.L.L.L.L.L.",
"L.L.L.L.L.L.L.L.L.L.L.L.L.o...s a Q ] ) j ] ' 0 B '  .| E B V B s f (  . . .] j 8 [  .s i j u 9 8  .O.L.L.L.L.L.L.L.L.L.L.L.L.L.",
"L.L.L.L.L.L.L.L.L.L.L.L.L.* q j j j h j j d r a  . . . . . . .[ B )  . . .[  . .s e s j j i q q q 8 & L.L.L.L.L.L.L.L.L.L.L.L.L.",
"L.L.L.L.L.L.L.L.L.L.L.L.L.L.L.a j j j j r r 9 a ]  . . . . . .[ B )  .[  . . .[ a 9 a k j j s q u L.L.L.L.L.L.L.L.L.L.L.L.L.L.L.",
"L.L.L.L.L.L.L.L.L.L.L.L.L.L.L.b s j j j r 0 q r B E Q ! [  . . .j )  . .! ! Q V e 9 a j j s u q L.L.L.L.L.L.L.L.L.L.L.L.L.L.L.L.",
"L.L.L.L.L.L.L.L.L.L.L.L.L.L.z z 0 a j j r q q q ; 0 u s ( ' ' ) j ( ] ( i u e 8 q q a k j r q q L.L.L.L.L.L.L.L.L.L.L.L.L.L.L.L.",
"L.L.L.L.L.L.L.L.L.L.L.L.L.z z L.L.0 a j r 0 q q a a u u s d s p j j d s a q q q q q a j e r q L.L.L.L.L.L.L.L.L.L.L.L.L.L.L.L.L.",
"L.L.L.L.L.L.L.L.L.L.L.L.L.L.L.L.L.q a q q q 9 a ] [ ] ] a 9 r e e q 0 r [ Q u e q s d q q a q L.L.L.L.L.L.L.L.L.L.L.L.L.L.L.L.L.",
"L.L.L.L.L.L.L.L.L.L.L.L.L.L.L.L.L.L.q a a q q r B ] .. .k s d s q r T ` ( V a q q a a q r q L.z L.L.L.L.L.L.L.L.L.L.L.L.L.L.L.L.",
"L.L.L.L.L.L.L.L.L.L.L.L.L.L.L.L.L.L.L.q q q r q : T ) ! d a s i q e T ) s a u e q r q r q L.L.z L.L.L.L.L.L.L.L.L.L.L.L.L.L.L.L.",
"L.L.L.L.L.L.L.L.L.L.L.L.L.L.L.L.L.L.L.L.L.q r q q 0 q r a a u u e a u r a a r q q q q L.L.L.L.L.L.L.L.L.L.L.L.L.L.L.L.L.L.L.L.L.",
"L.L.L.L.L.L.L.L.L.L.L.L.L.L.L.L.L.L.L.L.L.L.L.q q u Q [ [ [ [ ] r ! [ ] ] [ ( 9 q L.L.L.L.L.L.L.L.L.L.L.L.L.L.L.L.L.L.L.L.L.L.L.",
"L.L.L.L.L.L.L.L.L.L.L.L.L.L.L.L.L.L.L.L.L.L.L.a q u (  .X.) Q Q s ) X. . .] V 9 a L.L.L.L.L.L.L.L.L.L.L.L.L.L.L.L.L.L.L.L.L.L.L.",
"L.L.L.L.L.L.L.L.L.L.L.L.L.L.L.L.L.L.L.L.L.L.L.e q r V ) ' V i u s ! ] ) ` k q q q L.L.L.L.L.L.L.L.L.L.L.L.L.L.L.L.L.L.L.L.L.L.L.",
"L.L.L.L.L.L.L.L.L.L.L.L.L.L.L.L.L.L.L.L.L.L.L.L.q e 0 0 s j s 9 q u d s 9 9 r q L.L.L.L.L.L.L.L.L.L.L.L.L.L.L.L.L.L.L.L.L.L.L.L.",
"L.L.L.L.L.L.L.L.L.L.L.L.L.L.L.L.L.L.L.L.L.L.L.L.r r q q r q 9 8 0 0 q q q q a q L.L.L.L.L.L.L.L.L.L.L.L.L.L.L.L.L.L.L.L.L.L.L.L.",
"L.L.L.L.L.L.L.L.L.L.L.L.L.L.L.L.L.L.L.L.L.L.L.L.q q q q a Q ] ( j Q ! u q q q q L.L.L.L.L.L.L.L.L.L.L.L.L.L.L.L.L.L.L.L.L.L.L.L.",
"L.L.L.L.L.L.L.L.L.L.L.L.L.L.L.L.L.L.L.L.L.L.L.L.q r q e s ! [ ) B ( ( s q q e q L.L.L.L.L.L.L.L.L.L.L.L.L.L.L.L.L.L.L.L.L.L.L.L.",
"L.L.L.L.L.L.L.L.L.L.L.L.L.L.L.L.L.L.L.L.L.L.L.L.q q q q q u s j j j u q q q q q L.L.L.L.L.L.L.L.L.L.L.L.L.L.L.L.L.L.L.L.L.L.L.L.",
"L.L.L.L.L.L.L.L.L.L.L.L.L.L.L.L.L.L.L.L.L.L.L.L.9 9 8 9 q q r r e e q 8 q q q q L.L.L.L.L.L.L.L.L.L.L.L.L.L.L.L.L.L.L.L.L.L.L.L.",
"L.L.L.L.L.L.L.L.L.L.L.L.L.L.L.L.L.L.L.L.L.L.L.L.( ) ) ) k q q q q r V ( f e q q L.L.L.L.L.L.L.L.L.L.L.L.L.L.L.L.L.L.L.L.L.L.L.L.",
"L.L.L.L.L.L.L.L.L.L.L.L.L.L.L.L.L.L.L.L.L.L.L.f  . .] ' j r q q q u (  .V i u q r L.L.L.L.L.L.L.L.L.L.L.L.L.L.L.L.L.L.L.L.L.L.L.",
"L.L.L.L.L.L.L.L.L.L.L.L.L.L.L.L.L.L.L.L.L.L.q s ] E i s q q q q q u Q [ B j s q a r L.L.L.L.L.L.L.L.L.L.L.L.L.L.L.L.L.L.L.L.L.L.",
"L.L.L.L.L.L.L.L.L.L.L.L.L.L.L.L.L.L.L.L.L.L.q a B s q q q q q L.L.r s V j u q q q t L.L.L.L.L.L.L.L.L.L.L.L.L.L.L.L.L.L.L.L.L.L.",
"L.L.L.L.L.L.L.L.L.L.L.L.L.L.L.L.L.L.L.L.L.L.a q q q : 8 q q u L.L.q u j e q 0 0 q r L.L.L.L.L.L.L.L.L.L.L.L.L.L.L.L.L.L.L.L.L.L.",
"L.L.L.L.L.L.L.L.L.L.L.L.L.L.L.L.L.L.L.L.L.L.r q e k T T s r q L.L.q u j T j u u r r L.L.L.L.L.L.L.L.L.L.L.L.L.L.L.L.L.L.L.L.L.L.",
"L.L.L.L.L.L.L.L.L.L.L.L.L.L.L.L.L.L.L.L.L.L.q a f ]  .[ V a q L.L.q u V [ ! j j a r L.L.L.L.L.L.L.L.L.L.L.L.L.L.L.L.L.L.L.L.L.L.",
"L.L.L.L.L.L.L.L.L.L.L.L.L.L.L.L.L.L.L.L.L.q q q s ] ] j j f q L.L.q s k B j j j k a q L.L.L.L.L.L.L.L.L.L.L.L.L.L.L.L.L.L.L.L.L.",
"L.L.L.L.L.L.L.L.L.L.L.L.L.L.L.L.L.L.L.L.L.q a q u V T e u u L.L.L.L.u a u f j u a a q L.L.L.L.L.L.L.L.L.L.L.L.L.L.L.L.L.L.L.L.L.",
"L.L.L.L.L.L.L.L.L.L.L.L.L.L.L.L.L.L.L.L.L.a q q q u u q e q L.L.L.L.q q q a a q q q a L.L.L.L.L.L.L.L.L.L.L.L.L.L.L.L.L.L.L.L.L.",
"L.L.L.L.L.L.L.L.L.L.L.L.L.L.L.L.L.L.L.L.L.L.a q e q q q q a L.L.L.L.a q q q q q q a L.L.L.L.L.L.L.L.L.L.L.L.L.L.L.L.L.L.L.L.L.L.",
"L.L.L.L.L.L.L.L.L.L.L.L.L.L.L.L.L.L.L.L.L.L.L.L.L.L.L.L.L.L.L.L.L.L.L.L.L.L.L.L.L.L.L.L.L.L.L.L.L.L.L.L.L.L.L.L.L.L.L.L.L.L.L.L.",
"L.L.L.L.L.L.L.L.L.L.L.L.L.L.L.L.L.L.L.L.L.L.L.L.L.L.L.L.L.L.L.L.L.L.L.L.L.L.L.L.L.L.L.L.L.L.L.L.L.L.L.L.L.L.L.L.L.L.L.L.L.L.L.L.",
"L.L.L.L.L.L.L.L.L.L.L.L.L.L.L.L.L.L.L.L.L.L.L.L.L.L.L.L.L.L.L.L.L.L.L.L.L.L.L.L.L.L.L.L.L.L.L.L.L.L.L.L.L.L.L.L.L.L.L.L.L.L.L.L.",
"L.L.L.L.L.L.L.L.L.L.L.L.L.L.L.L.L.L.L.L.L.L.L.L.L.L.L.L.L.L.L.L.L.L.L.L.L.L.L.L.L.L.L.L.L.L.L.L.L.L.L.L.L.L.L.L.L.L.L.L.L.L.L.L.",
"L.L.L.L.L.L.L.L.L.L.L.L.L.L.L.L.L.L.L.L.L.L.L.L.L.L.L.L.L.L.L.L.L.L.L.L.L.L.L.L.L.L.L.L.L.L.L.L.L.L.L.L.L.L.L.L.L.L.L.L.L.L.L.L.",
"L.L.L.L.L.L.L.L.L.L.L.L.L.L.L.L.L.L.L.L.L.L.L.L.L.L.L.L.L.L.L.L.L.L.L.L.L.L.L.L.L.L.L.L.L.L.L.L.L.L.L.L.L.L.L.L.L.L.L.L.L.L.L.L.",
"L.L.L.L.L.L.L.L.L.L.L.L.L.L.L.L.L.L.L.L.L.L.L.L.L.L.L.L.L.L.L.L.L.L.L.L.L.L.L.L.L.L.L.L.L.L.L.L.L.L.L.L.L.L.L.L.L.L.L.L.L.L.L.L.",
"L.L.L.L.L.L.L.L.L.L.L.L.L.L.L.L.L.L.L.L.L.L.L.L.L.L.L.L.L.L.L.L.L.L.L.L.L.L.L.L.L.L.L.L.L.L.L.L.L.L.L.L.L.L.L.L.L.L.L.L.L.L.L.L."
};
