/* XPM */
static char *result[] = {
/* columns rows colors chars-per-pixel */
"64 64 181 2 ",
"   c black",
".  c #050307",
"X  c #1D0000",
"o  c #140B0A",
"O  c #001000",
"+  c #061518",
"@  c #1C1415",
"#  c #1C1B1D",
"$  c #260303",
"%  c #00261F",
"&  c #1F1D21",
"*  c #231D21",
"=  c #2A1E21",
"-  c #002D2A",
";  c #002924",
":  c #1B2528",
">  c #1B2C2E",
",  c #00312D",
"<  c #1F2A30",
"1  c #003234",
"2  c #003D3C",
"3  c #003835",
"4  c #193737",
"5  c #232325",
"6  c #2A2326",
"7  c #262729",
"8  c #292529",
"9  c #26292C",
"0  c #2A2B2D",
"q  c #31262A",
"w  c #252D31",
"e  c #2C2E31",
"r  c #352E32",
"t  c #2E3135",
"y  c #25373C",
"u  c #2D3339",
"i  c #2B3539",
"p  c #313236",
"a  c #32363B",
"s  c #33393E",
"d  c #393A3E",
"f  c #42383C",
"g  c #462B35",
"h  c #01413F",
"j  c #003B41",
"k  c #293F42",
"l  c #363C42",
"z  c #3A3E44",
"x  c #4C3D44",
"c  c #014342",
"v  c #004549",
"b  c #034B4D",
"n  c #0B4B4C",
"m  c #184749",
"M  c #014D52",
"N  c #1D4C51",
"B  c #174B51",
"V  c #055155",
"C  c #135155",
"Z  c #195456",
"A  c #155559",
"S  c #1B565B",
"D  c #1C595C",
"F  c #264449",
"G  c #354141",
"H  c #3C4147",
"J  c #3D434A",
"K  c #33484D",
"L  c #244E53",
"P  c #3B4D54",
"I  c #334A50",
"U  c #235559",
"Y  c #3F565C",
"T  c #1D5F65",
"R  c #265C61",
"E  c #00666B",
"W  c #286468",
"Q  c #326167",
"!  c #386569",
"~  c #3C6D74",
"^  c #2B7176",
"/  c #317174",
"(  c #317378",
")  c #43454B",
"_  c #44494F",
"`  c #4A4B4C",
"'  c #49434A",
"]  c #454B52",
"[  c #494D53",
"{  c #534958",
"}  c #4C5156",
"|  c #47555C",
" . c #4D545B",
".. c #475A5E",
"X. c #52565D",
"o. c #51585F",
"O. c #4B5D63",
"+. c #555C63",
"@. c #595E66",
"#. c #49646A",
"$. c #5B626B",
"%. c #526368",
"&. c #5B6971",
"*. c #417173",
"=. c #5E757B",
"-. c #62666E",
";. c #6A686B",
":. c #646A72",
">. c #696D75",
",. c #696F78",
"<. c #6C737B",
"1. c #65747C",
"2. c #71747D",
"3. c #7A767E",
"4. c #3D7D84",
"5. c #367A80",
"6. c #507C83",
"7. c #757B83",
"8. c #767F88",
"9. c #3F8186",
"0. c #42838A",
"q. c #4A858A",
"w. c #458E96",
"e. c #4B8D94",
"r. c #4A939B",
"t. c #51959D",
"y. c #6B8087",
"u. c #73828B",
"i. c #7E848D",
"p. c #738087",
"a. c #758B93",
"s. c #71989D",
"d. c #4A9EA6",
"f. c #529BA2",
"g. c #5C9CA3",
"h. c #769EA4",
"j. c #59A4AC",
"k. c #53A2AA",
"l. c #5DACB4",
"z. c #5BABB4",
"x. c #63A4AC",
"c. c #65AEB7",
"v. c #65B1BA",
"b. c #76B3BC",
"n. c #69BAC3",
"m. c #67B7C0",
"M. c #75BDC5",
"N. c #71C2CC",
"B. c #7CC9D2",
"V. c #80868E",
"C. c #858C95",
"Z. c #878F98",
"A. c #8F969E",
"S. c #9299A2",
"D. c #9B9DA6",
"F. c #A58DAF",
"G. c #A88EB1",
"H. c #96A1AA",
"J. c #9CA3AC",
"K. c #9FA6B0",
"L. c #85B4B9",
"P. c #91B8BF",
"I. c #A4ACB6",
"U. c #A7AFB9",
"Y. c #ACB3BD",
"T. c #86BAC2",
"R. c #98B9C2",
"E. c #B4BBC5",
"W. c #B6BEC8",
"Q. c #D7ADE4",
"!. c #85C7CE",
"~. c #85C8CF",
"^. c #8DCCD4",
"/. c #95CBD1",
"(. c #8BD2DB",
"). c #91D0D7",
"_. c #B2C1CB",
"`. c #9EDEE6",
"'. c #A9E2E9",
"]. c #A8E0E7",
"[. c None",
/* pixels */
"[.[.[.[.[.[.[.[.[.[.[.[.[.[.[.[.[.[.[.[.[.[.[.[.[.[.[.[.[.[.[.[.[.[.[.[.[.[.[.[.[.[.[.[.[.[.[.[.[.[.[.[.[.[.[.[.[.[.[.[.[.[.[.[.",
"[.[.[.[.[.[.[.[.[.[.[.[.[.[.[.[.[.[.[.[.[.[.[.[.[.[.[.[.[.[.[.[.[.[.[.[.[.[.[.[.[.[.[.[.[.[.[.[.[.[.[.[.[.[.[.[.[.[.[.[.[.[.[.[.",
"[.[.[.[.[.[.[.[.[.[.[.[.[.[.[.[.[.[.[.[.[.[.[.[.[.[.[.[.[.[.[.[.[.[.[.[.[.[.[.[.[.[.[.[.[.[.[.[.[.[.[.[.[.[.[.[.[.[.[.[.[.[.[.[.",
"[.[.[.[.[.[.[.[.[.[.[.[.[.[.[.[.[.[.[.[.[.[.[.W ! Q D D b [.[.[.[.[.[.[.[.[.[.[.[.[.[.[.[.[.[.[.[.[.[.[.[.[.[.[.[.[.[.[.[.[.[.[.",
"[.[.[.[.[.[.[.[.[.[.[.[.[.[.[.- O ; , - [.  ( n.].!.z.z.S 3 c [.[.[.[.[.[.[.[.[.[.[.[.[.[.[.[.[.[.[.[.[.[.[.[.[.[.[.[.[.[.[.[.[.",
"[.[.[.[.[.[.[.[.[.[.[.[.[.[.[.c./.b.k.f.U   4.M.(.x.5.6.D M c [.[.[.[.[.[.[.[.[.[.[.[.[.[.[.[.[.[.[.[.[.[.[.[.[.[.[.[.[.[.[.[.[.",
"[.[.[.[.[.[.[.[.[.[.[.[.[.[.5.c.`.M.f.f.A 1 / f.t.Q 1 b U m 4 [.[.[.[.[.[.[.[.[.[.[.[.[.[.[.[.[.[.[.[.[.[.[.[.[.[.[.[.[.[.[.[.[.",
"[.[.[.[.[.[.[.[.[.[.[.[.[.2 b W l.9.- , c C S L @ r I Z l p 8 [.[.[.[.[.[.[.[.[.[.[.[.[.[.[.[.[.[.[.[.[.[.[.[.[.[.[.[.[.[.[.[.[.",
"[.[.[.[.[.[.[.[.[.[.[.[.[.  ^ v.n.9.1 M C V #.1.m | O.j l p = # [.[.[.[.[.[.[.[.[.[.[.[.[.[.[.[.[.[.[.[.[.[.[.[.[.[.[.[.[.[.[.[.",
"[.[.[.[.[.[.[.[.[.[.[.[.  L.).v.4.e.f.r.T v 7.I.n P O.C | z } >.d 7 [.[.[.[.[.[.[.[.[.[.[.[.[.[.[.[.[.[.[.[.[.[.[.[.[.[.[.[.[.[.",
"[.[.[.[.[.[.[.[.[.[.[.[.; L.^.z.4.j.B.~.Q j 8.I.a.7.@.L @.]  .1.d 0 0 [.[.[.[.[.[.[.[.[.[.[.[.[.[.[.[.[.[.[.[.[.[.[.[.[.[.[.[.[.",
"[.[.[.[.[.[.[.[.[.[.[.[.c c 0.n.v.j.~.'.%._ $.8.Y.A.@.z @.] m M t 0 9 e t [.[.[.[.[.[.[.[.[.[.[.[.[.[.[.[.[.[.[.[.[.[.[.[.[.[.[.",
"[.[.[.[.[.[.[.[.[.[.[.[., r.(.'.*.- q.M.8.O.N ] >.@.X.+.+.L j w l e # 5 9 9 0 [.[.[.[.[.[.[.[.[.[.[.[.[.[.[.[.[.[.[.[.[.[.[.[.[.",
"[.[.[.[.[.[.[.[.[.[.[.[.[./ g.x.m 1 T w.b.6.: l $ L.R.2.D.D.H.S.H X.>.-.a 8 0 7 [.[.[.[.[.[.[.[.[.[.[.[.[.[.[.[.[.[.[.[.[.[.[.[.",
"[.[.[.[.[.[.[.[.[.[.[.[.[.[.    c A v A m.6.X y *.T.P.8.R._.E.I.z :.V.<.p * 6 s [.[.[.[.[.[.[.[.[.[.[.[.[.[.[.[.[.[.[.[.[.[.[.[.",
"[.[.[.[.[.[.[.[.[.[.[.[.[.[.[.[.T n 2 [.[.[.[.O.c.~ g u.x.P.J.-.0 -.2.@.H p = K n.[.[.[.[.[.[.[.[.[.[.[.[.[.[.[.[.[.[.[.[.[.[.[.",
"[.[.[.[.[.[.[.[.[.[.[.[.[.[.[.[.[.[.[.[.[.  7.Y.O.e K Q u.C.>.. 6 a @.7.7.:.[ w W F $ [.[.[.[.[.[.[.[.[.[.[.[.[.[.[.[.[.[.[.[.[.",
"[.[.[.[.[.[.[.[.[.[.[.[.[.[.[.[.[.[.[.[.5 z <.C.X.p > k  .@.u.H.x.! { V.i.$.p w v | ] * [.[.[.[.[.[.[.[.[.[.[.[.[.[.[.[.[.[.[.[.",
"[.[.[.[.[.[.[.[.[.[.[.[.[.[.[.[.[.[.[.[.9 o.@.) | ] d * 5 s 2.D.x.~ ' >.>.) o t #.&.+.9 [.[.[.[.[.[.[.[.[.[.[.[.[.[.[.[.[.[.[.[.",
"[.[.[.[.[.[.[.[.[.[.[.[.[.[.[.[.[.[.[.U 9  .+.s [ @. .e u 5 s Y m F s t : 7 7 z 7.<. .l [.[.[.[.[.[.[.[.[.[.[.[.[.[.[.[.[.[.[.[.",
"[.[.[.[.[.[.[.[.[.[.[.[.[.[.[.[.[.[.[.[.& <.:._ I.7.l @.@.X s.'...= z l e 5 H $.$.$.O.s [.[.[.[.[.[.[.[.[.[.[.[.[.[.[.[.[.[.[.[.",
"[.[.[.[.[.[.[.[.[.[.[.[.[.[.[.[.[.[.[.[.7 _ X.<.E.8.+ ) @.} =.s.l 5 u t 9 r H [ ] @.+.9 [.[.[.[.[.[.[.[.[.[.[.[.[.[.[.[.[.[.[.[.",
"[.[.[.[.[.[.[.[.[.[.[.[.[.[.[.[.[.[.[.[.0   @.J.E.h.E y @.:.]   6 9 9 9 9 s l s e G l 5 [.[.[.[.[.[.[.[.[.[.[.[.[.[.[.[.[.[.[.[.",
"[.[.[.[.[.[.[.[.[.[.[.[.[.[.[.[.[.[.[.[.0   <.E.Y.T.d.B @.$. .l e e e 0 9 a l l p { { p [.[.[.[.[.[.[.[.[.[.[.[.[.[.[.[.[.[.[.[.",
"[.[.[.[.[.[.[.[.[.[.[.[.[.[.[.[.[.[.[.[.[.@  .>.x x.j.r +.$.+.l l l a 9 0 0 e ) ;.Q.Q.;.[.[.[.[.[.[.[.[.[.[.[.[.[.[.[.[.[.[.[.[.",
"[.[.[.[.[.[.[.[.[.[.[.[.[.[.[.[.[.[.[.[.[.= q P t.0.U & +.+.z e l z s 9 0 9 e z } F.F.` [.[.[.[.[.[.[.[.[.[.[.[.[.[.[.[.[.[.[.[.",
"[.[.[.[.[.[.[.[.[.[.[.[.[.[.[.[.[.[.[.[.[.4 : k f.a.3.7.+.z e 9 l z s 9 0 9 t s i } ` + [.[.[.[.[.[.[.[.[.[.[.[.[.[.[.[.[.[.[.[.",
"[.[.[.[.[.[.[.[.[.[.[.[.[.[.[.[.[.[.[.[.[.^ R r @.D.W.U. .u s e s l s 7 e e 9 e d s p 0 [.[.[.[.[.[.[.[.[.[.[.[.[.[.[.[.[.[.[.[.",
"[.[.[.[.[.[.[.[.[.[.[.[.[.[.[.[.[.[.[.[.b z.g.f I.Z.$.>.@.] p e e l s e l l a 9 e e p 9 [.[.[.[.[.[.[.[.[.[.[.[.[.[.[.[.[.[.[.[.",
"[.[.[.[.[.[.[.[.[.[.[.[.[.[.[.[.[.[.[.[.[.[.( ` E.Z.] +.$.[ e 9 8 e e 0 0 e 9 5 0 9 [.[.[.[.[.[.[.[.[.[.[.[.[.[.[.[.[.[.[.[.[.[.",
"[.[.[.[.[.[.[.[.[.[.[.[.[.[.[.[.[.[.[.[.[.[.[.) A.7.+.@.+.J u 9 u e 8 0 z J ) x p [.[.[.[.[.[.[.[.[.[.[.[.[.[.[.[.[.[.[.[.[.[.[.",
"[.[.[.[.[.[.[.[.[.[.[.[.[.[.[.[.[.[.[.[.[.[.[.t   ] $.+.l l s e l e 9 l @.&.$.+.a [.[.[.[.[.[.[.[.[.[.[.[.[.[.[.[.[.[.[.[.[.[.[.",
"[.[.[.[.[.[.[.[.[.[.[.[.[.[.[.[.[.[.[.[.[.[.[.D 7 u J z l z u 5 7 5 J $.$.$.$.@.a [.[.[.[.[.[.[.[.[.[.[.[.[.[.[.[.[.[.[.[.[.[.[.",
"[.[.[.[.[.[.[.[.[.[.[.[.[.[.[.[.[.[.[.[.[.[.[.[.B O.} u t u J  . .H z [ ] ] ] _ p [.[.[.[.[.[.[.[.[.[.[.[.[.[.[.[.[.[.[.[.[.[.[.",
"[.[.[.[.[.[.[.[.[.[.[.[.[.[.[.[.[.[.[.[.[.[.[.[.B O.} s 8 z +.$.+.) u u t s l u t [.[.[.[.[.[.[.[.[.[.[.[.[.[.[.[.[.[.[.[.[.[.[.",
"[.[.[.[.[.[.[.[.[.[.[.[.[.[.[.[.[.[.[.[.[.[.[.[.6 u z z 9  .$.O.z l s 7 7 u l l e [.[.[.[.[.[.[.[.[.[.[.[.[.[.[.[.[.[.[.[.[.[.[.",
"[.[.[.[.[.[.[.[.[.[.[.[.[.[.[.[.[.[.[.[.[.[.[.[.[.u ]  .z z H H z p 0 0 9 e 0 e t [.[.[.[.[.[.[.[.[.[.[.[.[.[.[.[.[.[.[.[.[.[.[.",
"[.[.[.[.[.[.[.[.[.[.[.[.[.[.[.[.[.[.[.[.[.[.[.[.[.J i.J.z . t l z p 0 0 9 a s s p [.[.[.[.[.[.[.[.[.[.[.[.[.[.[.[.[.[.[.[.[.[.[.",
"[.[.[.[.[.[.[.[.[.[.[.[.[.[.[.[.[.[.[.[.[.[.[.[.[.| C.J.V.+.a a s e 8 9 0 a s s e [.[.[.[.[.[.[.[.[.[.[.[.[.[.[.[.[.[.[.[.[.[.[.",
"[.[.[.[.[.[.[.[.[.[.[.[.[.[.[.[.[.[.[.[.[.[.[.[.[.$.@.$.Y.C.J 5 7 e p 0 0 9 0 8 [.[.[.[.[.[.[.[.[.[.[.[.[.[.[.[.[.[.[.[.[.[.[.[.",
"[.[.[.[.[.[.[.[.[.[.[.[.[.[.[.[.[.[.[.[.[.[.[.[.[.-.%.H :.:. .7 & | X.t 0 9 0 0 [.[.[.[.[.[.[.[.[.[.[.[.[.[.[.[.[.[.[.[.[.[.[.[.",
"[.[.[.[.[.[.[.[.[.[.[.[.[.[.[.[.[.[.[.[.[.[.[.[.[.H ) z +. .z e [ @.$. .l e 0 e [.[.[.[.[.[.[.[.[.[.[.[.[.[.[.[.[.[.[.[.[.[.[.[.",
"[.[.[.[.[.[.[.[.[.[.[.[.[.[.[.[.[.[.[.[.[.[.[.[.[.7 w H  .J w p @.-.@. .J t 0 0 [.[.[.[.[.[.[.[.[.[.[.[.[.[.[.[.[.[.[.[.[.[.[.[.",
"[.[.[.[.[.[.[.[.[.[.[.[.[.[.[.[.[.[.[.[.[.[.[.[.[.0 u d s l a t +.@.| s l p 0 [.[.[.[.[.[.[.[.[.[.[.[.[.[.[.[.[.[.[.[.[.[.[.[.[.",
"[.[.[.[.[.[.[.[.[.[.[.[.[.[.[.[.[.[.[.[.[.[.[.[.[.[.t e 0 s u p @.| l l e e e [.[.[.[.[.[.[.[.[.[.[.[.[.[.[.[.[.[.[.[.[.[.[.[.[.",
"[.[.[.[.[.[.[.[.[.[.[.[.[.[.[.[.[.[.[.[.[.[.[.[.[.[.r e 9 s a t ] J s r 9 e 0 [.[.[.[.[.[.[.[.[.[.[.[.[.[.[.[.[.[.[.[.[.[.[.[.[.",
"[.[.[.[.[.[.[.[.[.[.[.[.[.[.[.[.[.[.[.[.[.[.[.[.[.[.[.0 0 s u 8 e l a 8 e e e [.[.[.[.[.[.[.[.[.[.[.[.[.[.[.[.[.[.[.[.[.[.[.[.[.",
"[.[.[.[.[.[.[.[.[.[.[.[.[.[.[.[.[.[.[.[.[.[.[.[.[.[.[.[.8 z z p 9 s s 9 9 0 r [.[.[.[.[.[.[.[.[.[.[.[.[.[.[.[.[.[.[.[.[.[.[.[.[.",
"[.[.[.[.[.[.[.[.[.[.[.[.[.[.[.[.[.[.[.[.[.[.[.[.[.[.[.[.7 } $.+.p 9 0 0 0 r [.[.[.[.[.[.[.[.[.[.[.[.[.[.[.[.[.[.[.[.[.[.[.[.[.[.",
"[.[.[.[.[.[.[.[.[.[.[.[.[.[.[.[.[.[.[.[.[.[.[.[.[.[.[.[.5 o.%.] s a p 0 0 0 t [.[.[.[.[.[.[.[.[.[.[.[.[.[.[.[.[.[.[.[.[.[.[.[.[.",
"[.[.[.[.[.[.[.[.[.[.[.[.[.[.[.[.[.[.[.[.[.[.[.[.[.[.[.[.9 ` ] s l l u 0 0 t e [.[.[.[.[.[.[.[.[.[.[.[.[.[.[.[.[.[.[.[.[.[.[.[.[.",
"[.[.[.[.[.[.[.[.[.[.[.[.[.[.[.[.[.[.[.[.[.[.[.[.[.[.[.[.w 5 t d l t 0 0 0 e 0 [.[.[.[.[.[.[.[.[.[.[.[.[.[.[.[.[.[.[.[.[.[.[.[.[.",
"[.[.[.[.[.[.[.[.[.[.[.[.[.[.[.[.[.[.[.[.[.[.[.[.[.[.[.[.[.e t e t 0 0 e e t 0 [.[.[.[.[.[.[.[.[.[.[.[.[.[.[.[.[.[.[.[.[.[.[.[.[.",
"[.[.[.[.[.[.[.[.[.[.[.[.[.[.[.[.[.[.[.[.[.[.[.[.[.[.[.[.[.[.r e 0 r e e 0 r [.[.[.[.[.[.[.[.[.[.[.[.[.[.[.[.[.[.[.[.[.[.[.[.[.[.",
"[.[.[.[.[.[.[.[.[.[.[.[.[.[.[.[.[.[.[.[.[.[.[.[.[.[.[.[.[.[.[.[.[.[.[.[.[.[.[.[.[.[.[.[.[.[.[.[.[.[.[.[.[.[.[.[.[.[.[.[.[.[.[.[.",
"[.[.[.[.[.[.[.[.[.[.[.[.[.[.[.[.[.[.[.[.[.[.[.[.[.[.[.[.[.[.[.[.[.[.[.[.[.[.[.[.[.[.[.[.[.[.[.[.[.[.[.[.[.[.[.[.[.[.[.[.[.[.[.[.",
"[.[.[.[.[.[.[.[.[.[.[.[.[.[.[.[.[.[.[.[.[.[.[.[.[.[.[.[.[.[.[.[.[.[.[.[.[.[.[.[.[.[.[.[.[.[.[.[.[.[.[.[.[.[.[.[.[.[.[.[.[.[.[.[.",
"[.[.[.[.[.[.[.[.[.[.[.[.[.[.[.[.[.[.[.[.[.[.[.[.[.[.[.[.[.[.[.[.[.[.[.[.[.[.[.[.[.[.[.[.[.[.[.[.[.[.[.[.[.[.[.[.[.[.[.[.[.[.[.[.",
"[.[.[.[.[.[.[.[.[.[.[.[.[.[.[.[.[.[.[.[.[.[.[.[.[.[.[.[.[.[.[.[.[.[.[.[.[.[.[.[.[.[.[.[.[.[.[.[.[.[.[.[.[.[.[.[.[.[.[.[.[.[.[.[.",
"[.[.[.[.[.[.[.[.[.[.[.[.[.[.[.[.[.[.[.[.[.[.[.[.[.[.[.[.[.[.[.[.[.[.[.[.[.[.[.[.[.[.[.[.[.[.[.[.[.[.[.[.[.[.[.[.[.[.[.[.[.[.[.[.",
"[.[.[.[.[.[.[.[.[.[.[.[.[.[.[.[.[.[.[.[.[.[.[.[.[.[.[.[.[.[.[.[.[.[.[.[.[.[.[.[.[.[.[.[.[.[.[.[.[.[.[.[.[.[.[.[.[.[.[.[.[.[.[.[.",
"[.[.[.[.[.[.[.[.[.[.[.[.[.[.[.[.[.[.[.[.[.[.[.[.[.[.[.[.[.[.[.[.[.[.[.[.[.[.[.[.[.[.[.[.[.[.[.[.[.[.[.[.[.[.[.[.[.[.[.[.[.[.[.[.",
"[.[.[.[.[.[.[.[.[.[.[.[.[.[.[.[.[.[.[.[.[.[.[.[.[.[.[.[.[.[.[.[.[.[.[.[.[.[.[.[.[.[.[.[.[.[.[.[.[.[.[.[.[.[.[.[.[.[.[.[.[.[.[.[.",
"[.[.[.[.[.[.[.[.[.[.[.[.[.[.[.[.[.[.[.[.[.[.[.[.[.[.[.[.[.[.[.[.[.[.[.[.[.[.[.[.[.[.[.[.[.[.[.[.[.[.[.[.[.[.[.[.[.[.[.[.[.[.[.[."
};
