/* XPM */
static char *result[] = {
/* columns rows colors chars-per-pixel */
"64 64 200 2 ",
"   c #000000",
".  c #0A0301",
"X  c #001704",
"o  c #000F17",
"O  c #13181B",
"+  c #171516",
"@  c #200C0E",
"#  c #2B1C1F",
"$  c #002500",
"%  c #0A2115",
"&  c #062A1F",
"*  c #1B1F20",
"=  c #261C22",
"-  c #002928",
";  c #162326",
":  c #1D252B",
">  c #1C2027",
",  c #00312C",
"<  c #003D3C",
"1  c #043A37",
"2  c #133D3C",
"3  c #1C3939",
"4  c #232224",
"5  c #24272B",
"6  c #2B2629",
"7  c #27292C",
"8  c #2A2B2D",
"9  c #2D2527",
"0  c #302C2E",
"q  c #252C32",
"w  c #2C2E31",
"e  c #352E34",
"r  c #2D3135",
"t  c #2D353A",
"y  c #233B3B",
"u  c #223736",
"i  c #313236",
"p  c #32363B",
"a  c #34393E",
"s  c #3B3C3B",
"d  c #4A3039",
"f  c #00403E",
"g  c #003F41",
"h  c #243F42",
"j  c #2A3E42",
"k  c #363C41",
"l  c #393E44",
"z  c #024444",
"x  c #02454A",
"c  c #03494A",
"v  c #094443",
"b  c #1F4B4E",
"n  c #194347",
"m  c #0B4E50",
"M  c #004E50",
"N  c #114F52",
"B  c #1C4E53",
"V  c #025354",
"C  c #0B5153",
"Z  c #00555A",
"A  c #035C5C",
"S  c #145256",
"D  c #1A5257",
"F  c #155459",
"G  c #1A555B",
"H  c #16595F",
"J  c #1D5A5F",
"K  c #2D444A",
"L  c #27484C",
"P  c #3B4046",
"I  c #3D444A",
"U  c #33444A",
"Y  c #28555B",
"T  c #39565C",
"R  c #005F64",
"E  c #1C5B61",
"W  c #265D62",
"Q  c #3A5B62",
"!  c #006363",
"~  c #006865",
"^  c #007D7B",
"/  c #0E7473",
"(  c #136368",
")  c #286468",
"_  c #376669",
"`  c #3B6F74",
"'  c #247879",
"]  c #37757A",
"[  c #43464D",
"{  c #43484F",
"}  c #4A474C",
"|  c #454C52",
" . c #4B4C53",
".. c #4C5157",
"X. c #4C535A",
"o. c #43555C",
"O. c #52545C",
"+. c #52585F",
"@. c #544F57",
"#. c #4C5B62",
"$. c #555C64",
"%. c #595E65",
"&. c #595F68",
"*. c #5F5661",
"=. c #4E6269",
"-. c #496C6F",
";. c #5B6067",
":. c #5C636B",
">. c #546369",
",. c #5C6C74",
"<. c #576F77",
"1. c #537A7D",
"2. c #61666E",
"3. c #646B73",
"4. c #6A6E77",
"5. c #696F78",
"6. c #606770",
"7. c #736C76",
"8. c #7A6C7E",
"9. c #6D737C",
"0. c #65737B",
"q. c #72767F",
"w. c #3D7C81",
"e. c #717780",
"r. c #747B83",
"t. c #7B7E87",
"y. c #797F88",
"u. c #7C7781",
"i. c #8B6E94",
"p. c #008A88",
"a. c #1B8282",
"s. c #009895",
"d. c #149E9F",
"f. c #368887",
"g. c #3D9393",
"h. c #12A7A5",
"j. c #428C8C",
"k. c #488489",
"l. c #5D8689",
"z. c #458D91",
"x. c #76838B",
"c. c #7C838B",
"v. c #688E94",
"b. c #6D8B90",
"n. c #4A9CA4",
"m. c #569CA5",
"M. c #669FA8",
"N. c #799DA3",
"B. c #5CADB5",
"V. c #5EB1BA",
"C. c #49ACAD",
"Z. c #69A4A9",
"A. c #6EB0B3",
"S. c #6CB4BB",
"D. c #63B0B9",
"F. c #75B4BA",
"G. c #77A6AE",
"H. c #77B9C0",
"J. c #78C4C9",
"K. c #82848E",
"L. c #838A93",
"P. c #888F98",
"I. c #8E8193",
"U. c #8C939C",
"Y. c #92959E",
"T. c #8D98A1",
"R. c #9097A0",
"E. c #949CA5",
"W. c #989FA9",
"Q. c #9A9DA6",
"!. c #9BA3AC",
"~. c #8DAEB5",
"^. c #9FA6B0",
"/. c #98AAB1",
"(. c #8DB3BA",
"). c #A3ABB4",
"_. c #ACAFBA",
"`. c #ABB2BC",
"'. c #A1B3BB",
"]. c #AFB7C1",
"[. c #ABBCC5",
"{. c #B2BAC4",
"}. c #B7BFC9",
"|. c #B8BFCA",
" X c #CFA5DC",
".X c #D1A9DF",
"XX c #93C5CA",
"oX c #89CED6",
"OX c #87C1C6",
"+X c #B9C1CC",
"@X c #B7C0CA",
"#X c #BDC6D0",
"$X c #A2D1D8",
"%X c #9CDAE2",
"&X c #A6DFE5",
"*X c #9FE0E7",
"=X c #A7E5EB",
"-X c #ACE3EA",
";X c #AEEAF2",
":X c None",
/* pixels */
":X:X:X:X:X:X:X:X:X:X:X:X:X:X:X:X:X:X:X:X:X:X:X:X:X:X:X:X:X:X:X:X:X:X:X:X:X:X:X:X:X:X:X:X:X:X:X:X:X:X:X:X:X:X:X:X:X:X:X:X:X:X:X:X",
":X:X:X:X:X:X:X:X:X:X:X:X:X:X:X:X:X:X:X:X:X:X:X:X:X:X:X:X:X:X:X:X:X:X:X:X:X:X:X:X:X:X:X:X:X:X:X:X:X:X:X:X:X:X:X:X:X:X:X:X:X:X:X:X",
":X:X:X:X:X:X:X:X:X:X:X:X:X:X:X:X:X:X:X:X:X:X:X:X:X:X:X:X:X:X:X:X:X:X:X:X:X:X:X:X:X:X:X:X:X:X:X:X:X:X:X:X:X:X:X:X:X:X:X:X:X:X:X:X",
":X:X:X:X:X:X:X:X:X:X:X:X:X:X:X:X:X:X:X:X:X:X:X:X:X:X:X:X:X:X:X:X:X:X:X:X:X:X:X:X:X:X:X:X:X:X:X:X:X:X:X:X:X:X:X:X:X:X:X:X:X:X:X:X",
":X:X:X:X:X:X:X:X:X:X:X:X:X:X:X:X:X:X:X:X:X:X:X:X:X:X:X:X:X:X:X:X:X:X:X:X:X:X:X:X:X:X:X:X:X:X:X:X:X:X:X:X:X:X:X:X:X:X:X:X:X:X:X:X",
":X:X:X:X:X:X:X:X:X:X:X:X:X:X:X:X:X:X:X:X:X:X:X:X:X:X:X:X:X:X:X:X:X:X:X:X:X:X:X:X:X:X:X:X:X:X:X:X:X:X:X:X:X:X:X:X:X:X:X:X:X:X:X:X",
":X:X:X:X:X:X:X:X:X:X:X:X:X:X:X:X:X:X:X:X:X:X:X:X:X:X:X:X:X:X:X:X:X:X:X:X:X:X:X:X:X:X:X:X:X:X:X:X:X:X:X:X:X:X:X:X:X:X:X:X:X:X:X:X",
":X:X:X:X:X:X:X:X:X:X:X:X:X:X:X:X:X:X:X:X:X:X:X:X:X:X:X:X:X:X:X:X:X:X:X:X:X:X:X:X:X:X:X:X:X:X:X:X:X:X:X:X:X:X:X:X:X:X:X:X:X:X:X:X",
":X:X:X:X:X:X:X:X:X:X:X:X:X:X:X:X:X:X:X:X:X:X:X:X:X:X:X:X:X:X:X:X:X:X:X:X:X:X:X:X:X:X:X:X:X:X:X:X:X:X:X:X:X:X:X:X:X:X:X:X:X:X:X:X",
":X:X:X:X:X:X:X:X:X:X:X:X:X:X:X:X:X:X:X:X:X:X:X:X:X:X:X:X:X:X:X:X:X:X:X:X:X:X:X^ :X:X:X:X:X:X:X:X:X:X:X:X:X:X:X:X:X:X:X:X:X:X:X:X",
":X:X:X:X:X:X:X:X:X:X:X:X:X:X:X:X:X:X:X:X:X:X:X:X:X:X:X:X:X:X:X:X:X:X:X:X:X:X:X^ :X:X:X:X:X:X:X:X:X:X:X:X:X:X:X:X:X:X:X:X:X:X:X:X",
":X:X:X:X:X:X:X:X:X:X:X:X:X:X:X:X:X:X:X:X:X:X:X:X:X:X:X:X:X:X:X:X:X:X:X:X:X:X:Xa.:X:X:X:X:X:X:X:X:X:X:X:X:X:X:X:X:X:X:X:X:X:X:X:X",
":X:X:X:X:X:X:X:X:X:X:X:X:X:X:X:X:X:X:X:X:X:X:X:X:X:X:X:X:X:X:X:X:X:X:X:X:X:X:XB.:X:X:X:X:X:X:X:X:X:X:X:X:X:X:X:X:X:X:X:X:X:X:X:X",
":X:X:X:X:X:X:X:X:X:X:X:X:X:X:X:X:X:X:X:X:X:X:X:X:X:X:X:X:X:X:X:X:X:X:X:X:X:XS.*Xg.:X:X:X:X:X:X:X:X:X:X:X:X:X:X:X:X:X:X:X:X:X:X:X",
":X:X:X:X:X:X:X:X:X:X:X:X:X:X:X:X:X:X:X:X:X:X:X:X:X:X:X:X:X:X:X:X:X:X:X:X:XA G.XXf.z :X:X:X:X:X:X:X:X:X:X:X:X:X:X:X:X:X:X:X:X:X:X",
":X:X:X:X:X:X:X:X:X:X:X:X:X:X:X:X:X:X:X:X:X:X:X:X:X:X:X:X:X:X:X:X:X:X:XP [ %.O.= e s a :X:X:X:X:X:X:X:X:X:X:X:X:X:X:X:X:X:X:X:X:X",
":X:X:X:X:X:X:X:X:X:X:X:X:X:X:X:X:X:X:X:X:X:X:X:X:X:X:X:X:X:X:X:X  .  .r.9.q.q.9.9.r.2.. 8 :X:X:X:X:X:X:X:X:X:X:X:X:X:X:X:X:X:X:X",
":X:X:X:X:X:X:X:X:X:X:X:X:X:X:X:X:X:X:X:X:X:X:X:X:X:X:X:X:X:X:X$.Y.1.l.`.).!.).).).U.e.2.i :X:X:X:X:X:X:X:X:X:X:X:X:X:X:X:X:X:X:X",
":X:X:X:X:X:X:X:X:X:X:X:X:X:X:X:X:X:X:X:X:X:X:X:X:X:X:X:X:X:X3.W.|.N.l./.{.@X].).|.R.q.q. . .:X:X:X:X:X:X:X:X:X:X:X:X:X:X:X:X:X:X",
":X:X:X:X:X:X:X:X:X:X:X:X:X:X:X:X:X:X:X:X:X:X:X:X:X:X:X:X:X  c.+X{.Y.1.f.'.{.W.r.`.R.3.#.>.:.3.%.:X;X;X:X:X:X:X:X:X:X:X:X:X:X:X:X",
":X:X:X:X:X:X:X:X:X:X:X:X:X:X:X:X:X:X:X:X:X:X:X:X:X:X:X:X8   r.@X|.i.N.=XC.v.q.2.t.t.:.: p O.+.>.h.:X:X:X:X:X:X:X:X:X:X:X:X:X:X:X",
":X:X:X:X:X:X:X:X:X:X:X:X:X:X:X:X:X:X:X:X:X:X:X:X:X:X:X:X5 P 6.L.L.O.-.N.p.OX(.o.W.).!.W.4.j.n.Z.' , :X:X:X:X:X:X:X:X:X:X:X:X:X:X",
":X:X:X:X:X:X:X:X:X:X:X:X:X:X:X:X:X:X:X:X:X:X:X:X:X:X:X:X  $.:...I 5.;.  ~ J.J.T ].+X`.W.K.j.d.m.+.} l :X:X:X:X:X:X:X:X:X:X:X:X:X",
":X:X:X:X:X:X:X:X:X:X:X:X:X:X:X:X:X:X:X:X:X:X:X:X:X:X:X:X[ r.c.&.: !.).W / s.p.Q ).@XT.5 9.=.z T x.5...8 :X:X:X:X:X:X:X:X:X:X:X:X",
":X:X:X:X:X:X:X:X:X:X:X:X:X:X:X:X:X:X:X:X:X:X:X:X:X:X:X..).{.!.9.q !.@X'._ Z A Y 9.).).5.{ X.3.x.y.&.p k :X:X:X:X:X:X:X:X:X:X:X:X",
":X:X:X:X:X:X:X:X:X:X:X:X:X:X:X:X:X:X:X:X:X:X:X:X:X:X:XO.`.+X!. .;.x.E.Y.0.3.,.,.!.{.).q.P X.3.0.0...p l :X:X:X:X:X:X:X:X:X:X:X:X",
":X:X:X:X:X:X:X:X:X:X:X:X:X:X:X:X:X:X:X:X:X:X:X:X:X:XM -.`.`.L.$.U.!.L.9.t.r.K.!.@X`.E.q.I { +.X...[ k p :X:X:X:X:X:X:X:X:X:X:X:X",
":X:X:X:X:X:X:X:X:X:X:X:X:X:X:X:X:X:X:X:X:X:X:X:X:XB ~ f.[.T.0.c.`.`.!.q.r.x.!.`.`.U.9.9.I t p p p k a 8 :X:X:X:X:X:X:X:X:X:X:X:X",
":X:X:X:X:X:X:X:X:X:X:X:X:X:X:X:X:X:X:X:X:X:X:X:X:X:X:X1.=XS.! T 3.+.;.c.q.$X$Xi.K.K.4.k a r 8 8 w w w 8 :X:X:X:X:X:X:X:X:X:X:X:X",
":X:X:X:X:X:X:X:X:X:X:X:X:X:X:X:X:X:X:X:X:X:X:X:X:X:X:X,.~.k.c C #.2.3.3.[ l.G.M.=.} { I { p 8 p * O > 8 1 :X:X:X:X:X:X:X:X:X:X:X",
":X:X:X:X:X:X:X:X:X:X:X:X:X:X:X:X:X:X:X:X:X:X:X:X:X:X:X%.7.c.0.T %.3.2.+.r.d J n.y e 5.P.P.;.> P @. .s q N c :X:X:X:X:X:X:X:X:X:X",
":X:X:X:X:X:X:X:X:X:X:X:X:X:X:X:X:X:X:X:X:X:X:X:X:X:X:Xa 4.).!.$.;.I [ r.`.q.A f.L :.Y.`.@Xq.o [ 7.I.8.; G C f :X:X:X:X:X:X:X:X:X",
":X:X:X:X:X:X:X:X:X:X:X:X:X:X:X:X:X:X:X:X:X:X:X:X:X:X:Xp &.y.r.&.:.: 9._.;.V A.=Xf.b @.5.5. .4 w & .X.X  S C < :X:X:X:X:X:X:X:X:X",
":X:X:X:X:X:X:X:X:X:X:X:X:X:X:X:X:X:X:X:X:X:X:X:X:X:X:Xp +.6.6.$.I c._.`.} f z.A.' <  .5.&.l = 8 % i.i.% D C < :X:X:X:X:X:X:X:X:X",
":X:X:X:X:X:X:X:X:X:X:X:X:X:X:X:X:X:X:X:X:X:X:X:X:X:X:Xa 6.%.+.$.: !.@X!.+.K V ! V o.6.9.:.[ 7 7 8 X $ K D C < :X:X:X:X:X:X:X:X:X",
":X:X:X:X:X:X:X:X:X:X:X:X:X:X:X:X:X:X:X:X:X:X:X:X:X:X:Xk r.+.I $.u !.).4.;.} j D F 0.e.$.&.| t 7 6 b H F G C f :X:X:X:X:X:X:X:X:X",
":X:X:X:X:X:X:X:X:X:X:X:X:X:X:X:X:X:X:X:X:X:X:X:X:X:X:Xi Y U l I : !.).+.t ; q I $.,.:.&.I k p 8 6 L H G G C f :X:X:X:X:X:X:X:X:X",
":X:X:X:X:X:X:X:X:X:X:X:X:X:X:X:X:X:X:X:X:X:X:X:X:X:XD B Z K a w ; ^.^.I U.^.c.> { I X.;.l k p 8 r n C m C c :X:X:X:X:X:X:X:X:X:X",
":X:X:X:X:X:X:X:X:X:X:X:X:X:X:X:X:X:X:X:X:X:X:X:X:X:XD b b K p 8 q L.L.:.{.{.Y.X.| p I X.l l p 8 8 2 f f f :X:X:X:X:X:X:X:X:X:X:X",
":X:X:X:X:X:X:X:X:X:X:X:X:X:X:X:X:X:X:X:X:X:X:X:X:X:X:X8 9 a p 8 a ; | c.`.P.9.r.,.| k l k k a 8 :X:X:X:X:X:X:X:X:X:X:X:X:X:X:X:X",
":X:X:X:X:X:X:X:X:X:X:X:X:X:X:X:X:X:X:X:X:X:X:X:X:X:X:X8 8 a a 8 k k P { X.| I | &.;.>.%.P k P k :X:X:X:X:X:X:X:X:X:X:X:X:X:X:X:X",
":X:X:X:X:X:X:X:X:X:X:X:X:X:X:X:X:X:X:X:X:X:X:X:X:X:X:Xi 8 r w 8 r i r 8 q w 7 p &...I I i w t i :X:X:X:X:X:X:X:X:X:X:X:X:X:X:X:X",
":X:X:X:X:X:X:X:X:X:X:X:X:X:X:X:X:X:X:X:X:X:X:X:X:X:X:X8 8 r r i 8 8 7 8 p w 4 w ..a + 6 7 8 8 8 u :X:X:X:X:X:X:X:X:X:X:X:X:X:X:X",
":X:X:X:X:X:X:X:X:X:X:X:X:X:X:X:X:X:X:X:X:X:X:X:X:X:X:X:X8 a k k 8 8 8 8 7 8 w 7 7 8 q 8 7 8 8 8 z F E E _ _ S :X:X:X:X:X:X:X:X:X",
":X:X:X:X:X:X:X:X:X:X:X:X:X:X:X:X:X:X:X:X:X:X:X:X:X:X:X:X8 a P a 8 8 8 7   O : : r k q     = # @ x S z _ =XoXj., :X:X:X:X:X:X:X:X",
":X:X:X:X:X:X:X:X:X:X:X:X:X:X:X:X:X:X:X:X:X:X:X:X:X:X:X:X8 a P k a r + p U.W.W.E.9...9.E.!.#.R m.n.)   2 v.S.n., :X:X:X:X:X:X:X:X",
":X:X:X:X:X:X:X:X:X:X:X:X:X:X:X:X:X:X:X:X:X:X:X:X:X:X:X:X:Xp k k a 8 r 2.`.#X{.).L.&.L.|.@XT.v.F.oXZ.] ] ( F.F.- :X:X:X:X:X:X:X:X",
":X:X:X:X:X:X:X:X:X:X:X:X:X:X:X:X:X:X:X:X:X:X:X:X:X:X:X:X:X8 t a 8 + ..L.`.{.!.9.r.:.L.{.{.{.Q.x.=XoXV.D.D.%XXXX :X:X:X:X:X:X:X:X",
":X:X:X:X:X:X:X:X:X:X:X:X:X:X:X:X:X:X:X:X:X:X:X:X:X:X:X:X:Xw 8 8 8 .  .L.{.!.9.;.:.3.E.@X+Xb.n o.S.H.m.E ) ` _ < :X:X:X:X:X:X:X:X",
":X:X:X:X:X:X:X:X:X:X:X:X:X:X:X:X:X:X:X:X:X:X:X:X:X:X:X:X:X4 P O.7 ;.2.+.q.9.:.$.[ &.e.x.E.x.#.B ] j.] V S f 1 z :X:X:X:X:X:X:X:X",
":X:X:X:X:X:X:X:X:X:X:X:X:X:X:X:X:X:X:X:X:X:X:X:X:X:X:X:X:X8 { +.8 ;.3...- P $.%.K #.T z %.9.<.Z M g m E G N c z :X:X:X:X:X:X:X:X",
":X:X:X:X:X:X:X:X:X:X:X:X:X:X:X:X:X:X:X:X:X:X:X:X:X:X:X:X:Xk k p 8 . X.r.n 3 [ &.F #.X.1 t n Z G F F F S F G N f :X:X:X:X:X:X:X:X",
":X:X:X:X:X:X:X:X:X:X:X:X:X:X:X:X:X:X:X:X:X:X:X:X:X:X:X:X:Xr i r r 6 K Y x j P U v y e q w i :X:Xg x c x x c c :X:X:X:X:X:X:X:X:X",
":X:X:X:X:X:X:X:X:X:X:X:X:X:X:X:X:X:X:X:X:X:X:X:X:X:X:X:X:X:X0 8 8 0 t n z y e t S h 7 8 w 8 :X:Xy h y 3 :X:X:X:X:X:X:X:X:X:X:X:X",
":X:X:X:X:X:X:X:X:X:X:X:X:X:X:X:X:X:X:X:X:X:X:X:X:X:X:X:X:X:X:X:X:X:X:X8 2 u 9 r Y j 9 8 w :X:X:X:X:X:X:X:X:X:X:X:X:X:X:X:X:X:X:X",
":X:X:X:X:X:X:X:X:X:X:X:X:X:X:X:X:X:X:X:X:X:X:X:X:X:X:X:X:X:X:X:X:X:X:X:X:X:X:X:X:X:X:X:X:X:X:X:X:X:X:X:X:X:X:X:X:X:X:X:X:X:X:X:X",
":X:X:X:X:X:X:X:X:X:X:X:X:X:X:X:X:X:X:X:X:X:X:X:X:X:X:X:X:X:X:X:X:X:X:X:X:X:X:X:X:X:X:X:X:X:X:X:X:X:X:X:X:X:X:X:X:X:X:X:X:X:X:X:X",
":X:X:X:X:X:X:X:X:X:X:X:X:X:X:X:X:X:X:X:X:X:X:X:X:X:X:X:X:X:X:X:X:X:X:X:X:X:X:X:X:X:X:X:X:X:X:X:X:X:X:X:X:X:X:X:X:X:X:X:X:X:X:X:X",
":X:X:X:X:X:X:X:X:X:X:X:X:X:X:X:X:X:X:X:X:X:X:X:X:X:X:X:X:X:X:X:X:X:X:X:X:X:X:X:X:X:X:X:X:X:X:X:X:X:X:X:X:X:X:X:X:X:X:X:X:X:X:X:X",
":X:X:X:X:X:X:X:X:X:X:X:X:X:X:X:X:X:X:X:X:X:X:X:X:X:X:X:X:X:X:X:X:X:X:X:X:X:X:X:X:X:X:X:X:X:X:X:X:X:X:X:X:X:X:X:X:X:X:X:X:X:X:X:X",
":X:X:X:X:X:X:X:X:X:X:X:X:X:X:X:X:X:X:X:X:X:X:X:X:X:X:X:X:X:X:X:X:X:X:X:X:X:X:X:X:X:X:X:X:X:X:X:X:X:X:X:X:X:X:X:X:X:X:X:X:X:X:X:X",
":X:X:X:X:X:X:X:X:X:X:X:X:X:X:X:X:X:X:X:X:X:X:X:X:X:X:X:X:X:X:X:X:X:X:X:X:X:X:X:X:X:X:X:X:X:X:X:X:X:X:X:X:X:X:X:X:X:X:X:X:X:X:X:X",
":X:X:X:X:X:X:X:X:X:X:X:X:X:X:X:X:X:X:X:X:X:X:X:X:X:X:X:X:X:X:X:X:X:X:X:X:X:X:X:X:X:X:X:X:X:X:X:X:X:X:X:X:X:X:X:X:X:X:X:X:X:X:X:X",
":X:X:X:X:X:X:X:X:X:X:X:X:X:X:X:X:X:X:X:X:X:X:X:X:X:X:X:X:X:X:X:X:X:X:X:X:X:X:X:X:X:X:X:X:X:X:X:X:X:X:X:X:X:X:X:X:X:X:X:X:X:X:X:X"
};
