/* XPM */
static char *result[] = {
/* columns rows colors chars-per-pixel */
"64 64 194 2 ",
"   c #4577B8",
".  c #4988BA",
"X  c #5A8FB7",
"o  c #5C88BC",
"O  c #6595BF",
"+  c #779CBD",
"@  c #7AA2BE",
"#  c #79B0BF",
"$  c #3D91D1",
"%  c #4183C2",
"&  c #5186C5",
"*  c #5F99CB",
"=  c #5491C3",
"-  c #5598D1",
";  c #5C9ED0",
":  c #6696C7",
">  c #629ECD",
",  c #779DC5",
"<  c #7695CB",
"1  c #6498DD",
"2  c #57A3D5",
"3  c #61A8C7",
"4  c #6EADCF",
"5  c #6CA8C4",
"6  c #70ABC1",
"7  c #7DACC6",
"8  c #77A8C7",
"9  c #69B0CA",
"0  c #79B5C9",
"q  c #69A7D2",
"w  c #6AAADF",
"e  c #62AADD",
"r  c #72AEDD",
"t  c #6BB4DB",
"y  c #79BBDA",
"u  c #5EB6EC",
"i  c #68ACE6",
"p  c #6FB8E5",
"a  c #78BAE5",
"s  c #70BBEF",
"d  c #76BEE3",
"f  c #70C2CC",
"g  c #69CBD6",
"h  c #73C8D0",
"j  c #78CAD5",
"k  c #7FCDDB",
"l  c #75D0DD",
"z  c #6FC5EB",
"x  c #7EC0EC",
"c  c #71C8E9",
"v  c #78C7E9",
"b  c #67D8E0",
"n  c #6DDEE6",
"m  c #6BC1F4",
"M  c #79C7F8",
"N  c #5DFBFE",
"B  c #6CEAEF",
"V  c #79E0E7",
"C  c #76E1E8",
"Z  c #7EE8EB",
"A  c #69EDF1",
"S  c #76EFF2",
"D  c #63F3F5",
"F  c #6BF3F3",
"G  c #61F6FA",
"H  c #6AF7F9",
"J  c #63FBFE",
"K  c #6BFCFE",
"L  c #74FBFC",
"P  c #7BFDFE",
"I  c #74F5F6",
"U  c #9DADB6",
"Y  c #87AEC5",
"T  c #80A6CE",
"R  c #83AFCC",
"E  c #91ACC3",
"W  c #87B1C8",
"Q  c #9FB8C7",
"!  c #80B7D6",
"~  c #8FB5D0",
"^  c #84BFD1",
"/  c #8CB6DE",
"(  c #82BCD9",
")  c #87B4DD",
"_  c #AFBCC0",
"`  c #8FBAE7",
"'  c #84BAE8",
"]  c #96BFE6",
"[  c #9EC4CF",
"{  c #8BC4D1",
"}  c #8EC9D6",
"|  c #87CDDE",
" . c #87C2D2",
".. c #9AC0D1",
"X. c #90C9DD",
"o. c #9FD1D9",
"O. c #ABCFDB",
"+. c #A6D3DD",
"@. c #B3D3DD",
"#. c #80C5ED",
"$. c #87DAE4",
"%. c #9BDDE4",
"&. c #94DAE9",
"*. c #9CDDEA",
"=. c #98D4E7",
"-. c #94C8F0",
";. c #84DAF4",
":. c #91D7F8",
">. c #93D8FF",
",. c #9ADFF9",
"<. c #96D2F6",
"1. c #AACBE4",
"2. c #A4D3ED",
"3. c #ACDBE1",
"4. c #BBDCE3",
"5. c #B5DCE8",
"6. c #A3DBF2",
"7. c #ACDBFD",
"8. c #B3DDF2",
"9. c #80EBEF",
"0. c #88E3EC",
"q. c #97E9EC",
"w. c #9DE2E2",
"e. c #99E7F5",
"r. c #87F7F9",
"t. c #8AF7F9",
"y. c #83FCFE",
"u. c #8BFDFE",
"i. c #93F7F8",
"p. c #98F7F8",
"a. c #92FDFE",
"s. c #9CFDFD",
"d. c #98F1F3",
"f. c #B1E5EE",
"g. c #BCE5EC",
"h. c #B6E9EE",
"j. c #BCEBED",
"k. c #BCE4E6",
"l. c #A4E4F5",
"z. c #A4EBF4",
"x. c #A2E3FE",
"c. c #A6E8FF",
"v. c #ABE9FF",
"b. c #AAE4F8",
"n. c #BAE1F2",
"m. c #BCEFFF",
"M. c #B4E4F7",
"N. c #A8F6F8",
"B. c #A5FEFE",
"V. c #ACFEFE",
"C. c #A3F0FA",
"Z. c #B5F4F9",
"A. c #B3FCFD",
"S. c #BAFEFF",
"D. c #C7DADB",
"F. c #D0DEE2",
"G. c #C9E1E7",
"H. c #C5E2EA",
"J. c #C8E3E9",
"K. c #C3EBEC",
"L. c #CEEBED",
"P. c #D3E9ED",
"I. c #CCF0EF",
"U. c #CCE6F4",
"Y. c #CDEBF4",
"T. c #C8EEFF",
"R. c #C5E4F7",
"E. c #D5EDF3",
"W. c #DBECF1",
"Q. c #D7E7F8",
"!. c #C2F2F4",
"~. c #CEF3F4",
"^. c #C3F5FC",
"/. c #CBF5FA",
"(. c #C4FDFE",
"). c #CEFBFD",
"_. c #D3F2F3",
"`. c #DCF4F4",
"'. c #D4F4FA",
"]. c #DCF5FD",
"[. c #D3FDFF",
"{. c #DBFBFC",
"}. c #E5ECED",
"|. c #E2EEF3",
" X c #E4F3F5",
".X c #E9F5F5",
"XX c #E8F8F7",
"oX c #E3F4FB",
"OX c #ECF7FB",
"+X c #E4FCFD",
"@X c #ECFCFD",
"#X c #F4FCFC",
"$X c #FCFEFE",
"%X c None",
/* pixels */
"%X%X%X%X%X%X%X%X%X%X%X%X%X%X%X%X%X%X%X%X%X%X%X%X%X%X%X%X%X%X%X%X%X%X%X%X%X%X%X%X%X%X%X%X%X%X%X%X%X%X%X%X%X%X%X%X%X%X%X%X%X%X%X%X",
"%X%X%X%X%X%X%X%X%X%X%X%X%X%X%X%X%X%X%X%X%X%X%X%X%X%X%X%X%X%X%X%X%X%X%X%X%X%X%X%X%X%X%X%X%X%X%X%X%X%X%X%X%X%X%X%X%X%X%X%X%X%X%X%X",
"%X%X%X%X%X%X%X%X%X%X%X%X%X%X%X%X%X%X%X%X%X%X%X%X%X%X%X%X%X%X%X%X%X%X%X%X%X%X%X%X%X%X%X%X%X%X%X%X%X%X%X%XN %X%X%X%X%X%X%X%X%X%X%X",
"%X%X%X%X%X%X%X%X%X%X%X%X%X%X%X%X%X%X%X%X%X%X%X%X%X%X%X%X%X%X%X%X%X%X%X%X%X%X%X%X%X%X%X%X%X%X%X%X%X%X%X%X%XL %X%X%X%X%X%X%X%X%X%X",
"%X%X%X%X%X%X%X%X%X%X%X%X%X%X%X%X%X%X%X%X%X%X%X%X%X%X%X%X%X%X%X%X%X%X%X%X%X%X%X%X%X%X%X%X%X%X%X%X%X%X%X%X%X%X%X%X%X%X%X%XN K N %X",
"%X%X%X%X%X%X%X%X%X%X%X%X%X%X%X%X%X%X%X%X%X%X%X%X%X%X%X%X%X%X%X%X%X%X%X%X%X%X%X%X%X%X%X%X%X%X%X%X%X%X%X%X%X%X%X%X%X%X%X%X%X%X%X%X",
"%X%X%X%X%X%X%X%X%X%X%X%X%X%X%X%X%X%X%X%X%X%X%X%X%X%X%X%X%X%X%X%X%X%X%X%X%X%X%X%X%X%X%X%X%X%X%XK %X%X%X%X%X%X%X%X%X%X%X%X%X%X%X%X",
"%X%X%X%X%X%X%X%X%X%X%X%X%X%X%X%X%X%X%X%X%X%X%X%X%X%X%X%X%X%X%X%X%X%X%X%X%X%XN N %X%X%X%X%X%XN a.K %X%X%X%X%X%X%X%X%X%X%X%X%X%X%X",
"%X%X%X%X%X%X%X%X%X%X%X%X%X%X%X%X%X%X%X%X%X%X%X%X%X%X%X%X%X%X%X%X%X%X%X%X%X%X%XN N N %X%X%X%XJ u.J %X%X%X%X%X%X%X%X%X%X%X%X%X%X%X",
"%X%X%X%X%X%X%X%X%X%X%X%X%X%X%X%X%X%X%X%X%X%X%X%X%X%X%X%X%X%X%X%X%X%X%X%X%X%X%X%X%X%X%X%X%X%X%XL %X%X%X%X%X%X%X%X%X%X%X%X%X%X%X%X",
"%X%X%X%X%X%X%X%X%X%X%X%X%X%X%X%X%X%X%X%X%X%X%X%X%X%X%X%X%X%X%X%X%X%X%X%X%X%X%X%X%X%X%X%X%X%X%X%X%X%X%X%X%X%X%X%X%X%X%X%X%X%X%X%X",
"%X%X%X%X%X%X%X%X%X%X%X%X%X%X%X%X%X%X%X%X%X%X%X%X%X%X%X%X%X%X%X%X%X%X%X%X%X%X%X%X%X%X%X%X%X%X%X%X%X%X%X%X%X%X%X%X%X%X%X%X%X%X%X%X",
"%X%X%X%X%X%X%X%X%X%X%X%X%X%X%X%X%X%X%X%X%X%X%X%X%X%X%X%X%X%X%X%X%X%X%X%X%XJ P L %X%X%X%X%X%X%X%X%X%X%X%X%X%X%X%X%X%X%X%X%X%X%X%X",
"%X%X%X%X%X%X%X%X%X%X%X%X%X%X%X%X%X%X%X%X%X%X%X%X%X%X%X%X%X%X%X%X%X%X%X%X%X%XN P P %X%X%X%X%X%X%X%X%X%X%X%XH L F %X%X%X%X%X%X%X%X",
"%X%X%X%X%X%X%X%X%X%X%X%X%X%X%X%X%X%X%X%X%X%X%X%X%X%X%X%X%X%X%X%X%X%X%X%X%X%X%X%XK K %X%X%X%X%X%X%X%X%X%X%XF u.y.L %X%X%X%X%X%X%X",
"%X%X%X%X%X%X%X%X%X%X%X%X%X%X%X%X%X%X%X%X%X%X%X%X%X%X%X%X%X%X%X%X%X%X%X%X%X%X%X%X%X%X%X%X%X%X%X%X%X%X%X%X%X%X%X%X%X%X%X%X%X%X%X%X",
"%X%X%X%X%X%X%X%X%X%X%X%X%X%X%X%X%X%X%X%X%X%X%X%X%X%X%X%X%X%X%X%X%X%X%X%X%X%X%X%X%X%X%X%X%X%XN F B %X%X%X%X%X%X%X%X%X%X%X%X%X%X%X",
"%X%X%X%X%X%X%X%X%X%X%X%X%X%X%X%X%X%X%X%X%X%X%X%X%X%X%X%X%X%X%X%X%X%X%X%X%X%X%X%X%X%X%X%X%X%XS N.p.g %X%X%X%X%X%X%X%X%X%X%XK y.y.",
"%X%X%X%X%X%X%X%X%X%X%X%X%X%X%X%X%X%X%X%X%X%X%X%X%X%X%X%X%X%X%X%X%X%X%X%X%X%X%X%X%X%X%X%Xk 0.A.{.i.%X%X%X%X%X%XN %X%X%X%X%X%XN J ",
"%X%X%X%X%X%X%X%X%X%X%X%X%X%X%X%X%X%X%X%X%X%X%X%X%X%X%X%X%X%X%X%X%X%X%X%X%XL J %X%X%X%X%X$./.{.i.D %X%X%X%X%X%XJ %X%X%X%X%X%X%X%X",
"%X%X%X%X%X%X%X%X%X%X%X%X%X%X%X%X%X%X%X%X%X%X%X%X%X%X%X%X%X%X%X%X%X%X%X%XP B.J %X%X%X{ K.`.N.I %X%X%X%X%X%X%X%XN %X%X%X%X%X%X%X%X",
"%X%X%X%X%X%X%X%X%X%X%X%X%X%X%X%X%X%X%X%X%X%X%X%X%X%X%X%X%X%X%X%X%X%X%X%Xa.S.K %Xg.OX#X+.%X%X%X%Xh %XG J J %X%X%X%X%X%X%X%X%X%X%X",
"%X%X%X%X%X%X%X%X%X%X%X%X%X%X%X%X%X%X%X%X%X%X%X%X%X%X%X%X%X%X%X%X%X%X%X%Xs.(._.#X$X#X7 %X%X%X%Xl q.L K %X%X%X%X%X%X%X%X%X%X%X%X%X",
"%X%X%X%X%X%X%X%X%X%X%X%X%X%X%X%X%X%X%X%X%X%X%X%X%X%X%X%X%X%X%X%X%X%X%X%X^.$X$X$X@XR %X%X> g.OX$XZ %X%X%X%X%X%X%X%X%X%X%X%X%X%X%X",
"%X%X%X%X%X%X%X%X%X%X%X%X%X%X%X%X%X%X%X%X%X%X%X%X%X%X%X%X%X%X%X%XW %X%XP.$X$X'.m.].o %X: +X#X#X4 3 %X%X%X%X%X[ .XD.%X%X%X%X%X%X%X",
"%X%X%X%X%X%X%X%X%X%X%X%X%X%X%X%X%X%X%X%X%X%X%X%X%X%X%X%X%X%X%X@.%X_ #X$XE.z c.6.&   2.x.c.^.- 2 a 8.E.E.2.].#XH.%X%X%X%X%XP %X%X",
"%X%X%X%X%X%X%X%X%X%X%X%X%X%X%X%X%X%X%X%X%X%X%X%X%X%X%X%X%X%XL.%XH.#XG.R {.OXv z l.[.v.v.u $ r OX$X$X].$X#XT.7.! @.F._ %X%Xy.%X%X",
"%X%X%X%X%X%X%X%X%X%X%X%X%X%X%X%X%X%X%X%X%X%X%X%X%X%X%X%X%XW.%X.X X.. X#XY.> t #X$X$X$X$X'.,.+X$X#X@X/.[.+X+X$X$X#XU %X%X%XH H %X",
"%X%X%X%X%X%X%X%X%X%X%X%X%X%X%X%X%X%X%X%X%X%X%X%X%X%X%X%X XE .X.X.X.XO.~ H.OX^.(.@X(.C.;.,.` 1 v.+X+X@X$X$X$X$XR.O %X%X%X%X%XP %X",
"%X%X%X%X%X%X%X%X%X%X%X%X%X%X%X%X%X%X%X%X%X%X%X%X%X%XU #X4.#X$X$X X X$X$X$X'.@X$X$XZ.e.{.Y.`.x :.#X$X$X$X$X+X#XU.T %X%X%X%X%XI L ",
"%X%X%X%X%X%X%X%X%X%X%X%X%X%X%X%X%X%X%X%X%X%X%X%XP.#X$X$X#X$X#X$X#X#X$X#X#X$X#X$X$X$X$X$X$X#X$X$X$X$X$X$X$X@X+X@XR.< %X%Xn S r.r.",
"%X%X%X%X%X%X%X%X%X%X%X%X%X%X%X%X%X%X%X%X%X%XG.#X#X#X#X#X#X#X$X#X$X#X$X$X$X$X$X$X$X$X$X$X$X$X$X$X$X$X$X$X$X$X@X'.M.8.2.=.^.#X$X#X",
"%X%X%X%X%X%X%X%X%X%X%X%X%X%X%X%X%X%X%X%X%X%X@.#X$X$X$X$X#X$X#X#X#X$X#X#X$X#X'.Y.oX$X$X$X$X@X$X$X#X$X$X$X$X$X@XE.2.` / *./.$X$X@X",
"%X%X%X%X%X%X%X%X%X%X%X%X%X%X%X%X%X%X%X%X%X%X%X%XW.@.#X$X$X$X$Xj.k._.K. X#X#X_.<.i s #Xl./.oXi b.{.{.@X@X@X$XQ.i ! %X%X%XB y.u.I ",
"%X%X%X%X%X%X%X%X%X%X%X%X%X%X%X%X%X%X%X%X%X%X%X%X%X%X_.#X#X#XI. XL.{ w.w./.].h.y c.^.@X+X[.#X#XM.s >.7.-.' 1.W. X, %X%X%X%X%X%X%X",
"%X%X%X%X%X%X%X%X%X%X%X%X%X%X%X%X%X%X%X%X%X%X%X%X%X%X%X@.$X}.XX@ k.`.+ + *./.z.z.;.).#X$X$X8.; ] U.6.>.7.) %X%X%X%X%X%X%X%X%X%XK ",
"%X%X%X%X%X%X%X%X%X%X%X%X%X%X%X%X%X%X%X%X%X%X%X%X%X%X%X%XH.#XY 3.%Xo.`.R X '.m.XX@Xv #.8.OX$X Xy 4 %X%X@X$XE.%X%X%X%X%X%X%XN P %X",
"%X%X%X%X%X%X%X%X%X%X%X%X%X%X%X%X%X%X%X%X%X%X%X%X%X%X%X%X%XP. X%X@ %X} _.=.q * v Z.u M v.x c e | %X%X%X0 4.$X%X%X%X%X%X%Xy.u.%X%X",
"%X%X%X%X%X%X%X%X%X%X%X%X%X%X%X%X%X%X%X%X%X%X%X%X%X%X%X%X%X%XH.O.%X%X%X%./.j.%X%Xp ).^.#X+X'.4 %X%X%X%X%X%X%X%X%X%X%XK B.B.N %X%X",
"%X%X%X%X%X%X%X%X%X%X%X%X%X%X%X%X%X%X%X%X%X%X%X%X%X%X%X%X%X%X%XL.k H u.B  .!.o.( = f.{.[.l.% %X%X%X%X%X%X%X%X%X%X%XJ V.V.K %X%X%X",
"%X%X%X%X%X%X%X%X%X%X%X%X%X%X%X%X%X%X%X%X%X%X%X%X%X%X%X%X%X%X%X%X~.V.s.%X%X .h. .: X . n.@X@X7 %X6 %X%X%X%X%X%X%X%XP a.K %X%X%X%X",
"%X%X%X%X%X%X%X%X%X%X%X%X%X%X%X%X%X%X%X%X%X%X%X%X%X%X%X%X%X%X%X%Xs.@Xy.%X%X%X=.*.9 %X%X%X}.$X$Xf %X%X%X%X%X%X%X%X%XK %X%X%X%X%X%X",
"%X%X%X%X%X%X%X%X%X%X%X%X%X%X%X%X%X%X%X%X%X%X%X%X%X%X%X%X%X%X%XP ).B.C %X%X%Xj &.0.V %X%X5 0 }.P.a.%X%X%X%X%X%X%X%X%X%X%X%X%X%X%X",
"%X%X%X%X%X%X%X%X%X%X%X%X%X%X%X%X%X%X%X%X%X%X%X%X%X%X%X%X%X%X%Xs.(.K %X%X%X%Xb d.a.9.g %X%X%X%Xt.S.J %X%X%X%X%X%X%X%X%X%X%X%X%X%X",
"%X%X%X%X%X%X%X%X%X%X%X%X%X%X%X%X%X%X%X%X%X%X%X%X%X%X%X%X%X%X%XP K %X%X%X%X%XK a.P %X%X%X%X%X%Xa.[.K %X%X%X%X%X%X%X%X%X%X%X%X%X%X",
"%X%X%X%X%X%X%X%X%X%X%X%X%X%X%X%X%X%X%X%X%X%X%X%X%X%X%X%X%X%X%XK %X%X%X%X%X%XL L %X%X%X%X%X%X%Xa.(.G %X%X%X%X%X%X%X%X%X%X%X%X%X%X",
"%X%X%X%X%X%X%X%X%X%X%X%X%X%X%X%X%X%X%X%X%X%X%X%X%X%X%X%X%X%X%X%X%X%X%X%X%XG %X%X%X%X%X%X%X%X%XH P %X%X%X%X%X%X%X%X%X%X%X%X%X%X%X",
"%X%X%X%X%X%X%X%X%X%X%X%X%X%X%X%X%X%X%X%X%X%X%X%X%X%X%X%X%X%X%X%X%X%X%X%X%X%X%X%X%X%X%X%X%X%X%X%XD %X%X%X%X%X%X%X%X%X%X%X%X%X%X%X",
"%X%X%X%X%X%X%X%X%X%X%X%X%X%X%X%X%X%X%X%X%X%X%X%X%X%X%X%X%X%X%X%X%X%X%X%X%X%X%X%X%X%X%X%X%X%X%X%X%X%X%X%X%XJ %X%X%X%X%X%X%X%X%X%X",
"%X%X%X%X%X%X%X%X%X%X%X%X%X%X%X%X%X%X%X%X%X%X%X%X%X%X%X%X%X%X%X%X%X%X%X%X%X%X%X%X%X%X%X%X%X%X%X%X%XG H N %XK %X%X%X%X%X%X%X%X%X%X",
"%X%X%X%X%X%X%X%X%X%X%X%X%X%X%X%X%X%X%X%X%X%X%X%X%X%X%X%X%X%X%X%X%X%X%X%X%X%X%X%X%X%X%X%X%X%X%X%X%X%X%X%X%XK L %X%X%X%X%X%X%X%X%X",
"%X%X%X%X%X%X%X%X%X%X%X%X%X%X%X%X%X%X%X%X%X%X%X%X%X%X%X%X%X%X%X%X%X%X%X%X%X%X%X%X%X%X%X%X%X%X%X%X%X%X%X%X%XK S.K %X%X%X%X%X%X%X%X",
"%X%X%X%X%X%X%X%X%X%X%X%X%X%X%X%X%X%X%X%X%X%X%X%X%X%X%X%X%X%X%X%X%X%X%X%X%X%X%X%X%X%X%X%X%X%X%X%X%X%X%X%X%XK {.s.%X%X%X%X%X%X%X%X",
"%X%X%X%X%X%X%X%X%X%X%X%X%X%X%X%X%X%X%X%X%X%X%X%X%X%X%X%X%X%X%X%X%X%X%X%X%X%X%X%X%X%X%X%X%X%X%X%X%X%X%X%X%XN [.B.%X%X%X%X%X%X%X%X",
"%X%X%X%X%X%X%X%X%X%X%X%X%X%X%X%X%X%X%X%X%X%X%X%X%X%X%X%X%X%X%X%X%X%X%X%X%X%X%X%X%X%X%X%X%X%X%X%X%X%X%X%X%X%Xa.y.%XN %X%X%X%X%X%X",
"%X%X%X%X%X%X%X%X%X%X%X%X%X%X%X%X%X%X%X%X%X%X%X%X%X%X%X%X%X%X%X%X%X%X%X%X%X%X%X%X%X%X%X%X%X%X%X%X%X%X%X%X%X%XJ K N %X%X%X%X%X%X%X",
"%X%X%X%X%X%X%X%X%X%X%X%X%X%X%X%X%X%X%X%X%X%X%X%X%X%X%X%X%X%X%X%X%X%X%X%X%X%X%X%X%X%X%X%X%X%X%XN %X%X%X%X%X%X%XK %X%X%X%X%X%X%X%X",
"%X%X%X%X%X%X%X%X%X%X%X%X%X%X%X%X%X%X%X%X%X%X%X%X%X%X%X%X%X%X%X%X%X%X%X%X%X%XK %X%X%X%X%X%X%XN %X%X%X%X%X%X%X%X%X%X%X%X%X%X%X%X%X",
"%X%X%X%X%X%X%X%X%X%X%X%X%X%X%X%X%X%X%X%X%X%X%X%X%X%X%X%X%X%X%X%X%X%X%X%XJ y.P %X%X%X%X%X%X%X%X%X%X%X%X%X%X%X%X%X%X%X%X%X%X%X%X%X",
"%X%X%X%X%X%X%X%X%X%X%X%X%X%X%X%X%X%X%X%X%X%X%X%X%X%X%X%X%X%X%X%X%X%X%XK u.u.N %X%X%X%X%X%X%X%X%X%X%X%X%X%X%X%X%X%X%X%X%X%X%X%X%X",
"%X%X%X%X%X%X%X%X%X%X%X%X%X%X%X%X%X%X%X%X%X%X%X%X%X%X%X%X%X%X%X%X%X%XK K L %X%X%X%X%X%X%X%X%X%X%X%X%X%X%X%X%X%X%X%X%X%XK P P L N ",
"%X%X%X%X%X%X%X%X%X%X%X%X%X%X%X%X%X%X%X%X%X%X%X%X%X%X%X%X%X%X%X%X%X%X%X%X%X%X%X%X%X%X%X%X%X%X%X%X%X%X%X%X%X%X%X%X%X%X%X%Xy.A.S.a.",
"%X%X%X%X%X%X%X%X%X%X%X%X%X%X%X%X%X%X%X%X%X%X%X%X%X%X%X%X%X%X%X%X%X%X%X%X%X%X%X%X%X%X%X%X%X%X%X%X%X%X%X%X%X%X%X%X%X%X%X%X%XK y.y.",
"%X%X%X%X%X%X%X%X%X%X%X%X%X%X%X%X%X%X%X%X%X%X%X%X%X%X%X%X%X%X%X%X%X%X%X%X%X%X%X%X%X%X%X%X%X%X%X%X%X%X%X%X%X%X%X%X%X%X%X%X%X%X%X%X"
};
