/* XPM */
static char *result[] = {
/* columns rows colors chars-per-pixel */
"64 64 63 1 ",
"  c black",
". c gray11",
"X c #241400",
"o c #342000",
"O c #3C2404",
"+ c #282828",
"@ c #482C04",
"# c #5C3000",
"$ c #503008",
"% c #58380C",
"& c #603810",
"* c #443434",
"= c #684000",
"- c #785004",
"; c #644014",
": c #684014",
"> c #6C4C18",
", c #744C1C",
"< c #000440",
"1 c #00044C",
"2 c #001474",
"3 c #002870",
"4 c #043478",
"5 c #304858",
"6 c gray25",
"7 c #544440",
"8 c #585858",
"9 c #685450",
"0 c #6C6C6C",
"q c gray47",
"w c #886408",
"e c #98780C",
"r c #886428",
"t c #8C6C28",
"y c #907030",
"u c #9C7C3C",
"i c #8C7870",
"p c #A88C10",
"a c #BCA414",
"s c #D0C01C",
"d c #F4E020",
"f c #A88448",
"g c #B49054",
"h c #CCA874",
"j c #0428A0",
"k c #0C4084",
"l c #185090",
"z c #246098",
"x c #3470A4",
"c c #0C48CC",
"v c #4480B0",
"b c #848484",
"n c #9C8880",
"m c #909090",
"M c gray61",
"N c gray66",
"B c #B4B4B4",
"V c #C0B0A4",
"C c #E8C498",
"Z c #D4C4B4",
"A c gray80",
"S c #D8D8D8",
"D c None",
/* pixels */
"DDDDDDDDDDDDDDDDDDDDDDDDDDDDDDDDDDDDDDDDDDDDDDDDDDDDDDDDDDDDDDDD",
"DDDDDDDDDDDDDDDDDDDDDDDDDDDDDDDDDDDDDDDDDDDDDDDDDDDDDDDDDDDDDDDD",
"DDDDDDDDDDDDDDDDDDDDDDDDDDDDDDDDDDDDDDDDDDDDDDDDDDDDDDDDDDDDDDDD",
"DDDDDDDDDDDDDDDDDDDDDDDDDDDDDDDDDDDDDDDDDDDDDDDDDDDDDDDDDDDDDDDD",
"DDDDDDDDDDDDDDDDDDDDDDDDDDDDDDDDDDDDDDDDDDDDDDDDDDDDDDDDDDDDDDDD",
"DDDDDDDDDDDDDDDDDDDDDDDDDDDDDDDDDDDDDDDDDDDDDDDDDDDDDDDDDDDDDDDD",
"DDDDDDDDDDDDDDDDDDDDDDDDDDDDDDDDDDDDDDDDDDDDDDDDDDDDDDDDDDDDDDDD",
"DDDDDDDDDDDDDDDDDDDDDDDDDDDDDDDDDDDDDDDDDDDDDDDDDDDDDDDDDDDDDDDD",
"DDDDDDDDDDDDDDDDDDDDDDDDDDDDDDDDDDDDDDDDDDDDDDDDDDDDDDDDDDDDDDDD",
"DDDDDDDDDDDDDDDDDDDDDDDDDDDDDDDDDDDDDDDDDDDDDDDDDDDDDDDDDDDDDDDD",
"DDDDDDDDDDDDDDDDDDDDDDDDDDDDDDDDDDDDDDDDDDDDDDDDDDDDDDDDDDDDDDDD",
"DDDDDDDDDDDDDDDDDDDDDDDDDDDDDDDDDDDDDDDDDDDDDDDDDDDDDDDDDDDDDDDD",
"DDDDDDDDDDDDDDDDDDDDDDDDDDDDDDDDDDDDDDDDDDDDDDDDDDDDDDDDDDDDDDDD",
"DDDDDDDDDDDDDDDDDDDDDDDDDDDDDDDDDDDDDDDDDDDDDDDDDDDDDDDDDDDDDDDD",
"DDDDDDDDDDDDDDDDDDDDDDDDDDDDDDDDDDDDDDDDDDDDDDDDDDDDDDDDDDDDDDDD",
"DDDDDDDDDDDDDDDDDDDDDDDDDDDDDDDDDDDDDDDDDDDDDDDDDDDDDDDDDDDDDDDD",
"DDDDDDDDDDDDDDDDDDDDDDDDDDDDDDDDDDDDDDDDDDDDDDDDDDDDDDDDDDDDDDDD",
"DDDDDDDDDDDDDDDDDDDDDDDDDDDDDDDDDDDDDDDDDDDDDDDDDDDDDDDDDDDDDDDD",
"DDDDDDDDDDDDDDDDDDDDDDDDDDDDDDDDDDDDDDDDDDDDDDDDDDDDDDDDDDDDDDDD",
"DDDDDDDDDDDDDDDDDDDDDDDDDDDDDDooooDDDDDDDDDDDDDDDDDDDDDDDDDDDDDD",
"DDDDDDDDDDDDDDDDDDDDDDDDDDDDDo=>>=oDDDDDDDDDDDDDDDDDDDDDDDDDDDDD",
"DDDDDDDDDDDDDDDDDDDDDDDDDDDDo=@@>@@o111DDDDDDDDDDDDDDDDDDDDDDDDD",
"DDDDDDDDDDDDDDDDDDDDDDDDDDDDo==@@=@=jj2211DDDDDDDDDDDDDDDDDDDDDD",
"DDDDDDDDDDDDDDDDDDDDDDDDDDDDo=,&&,==jcjjj211DDDDDDDDDDDDDDDDDDDD",
"DDDDDDDDDDDDDDDDDDDDDDDDDD11#,hCCh,#jccjjjcj21DDDDDDDDDDDDDDDDDD",
"DDDDDDDDDDDDDDDDDDDDDDDDD122#rghhhr#2jjccc22jj211DDDDDDDDDDDDDDD",
"DDDDDDDDDDDDDDDDDDDDDDD1212j##ogyro#2112jcc1jbNNNbDDDDDDDDDDDDDD",
"DDDDDDDDDDDDDDDDDDDDDD12jj22#-ff-f-#21DD1221bNSZ6N8DDDDDDDDDDDDD",
"DDDDDDDDDDDDDDDDDDDDDD2jjj2j#>r@@r##21DDD11bN0S0Vb8DDDDDDDDDDDDD",
"DDDDDDDDDDDDDDDDDDDDD12ccj2j>OX#oo>O21DDD11NS8M&&.8DDDDDDDDDDDDD",
"DDDDDDDDDDDDDDDDDDDDD1jcc22j%Xo-#X#;22DDDD1NS8.g&&8DDDDDDDDDDDDD",
"DDDDDDDDDDDDDDDDDDDDD2jcj22joo-=#oo#221DDDbMS..hhubDDDDDDDDDDDDD",
"DDDDDDDDDDDDDDDDDDDD12jcj222Oo>=#oo2221DDD8MN.8hggu&DDDDDDDDDDDD",
"DDDDDDDDDDDDDDDDDDDD12jjj2jjOO=#O71j221DDD8MMb8u&DgrDDDDDDDDDDDD",
"DDDDDDDDDDDDDDDDDDDD12jjj1jjjjypetp22221DD8bM8DODD7uDDDDDDDDDDDD",
"DDDDDDDDDDDDDDDDDDDD1222212jjja-waaa2j21DDDDzDDDDDvuDDDDDDDDDDDD",
"DDDDDDDDDDDDDDDDDDDD1122112jjjs$eppsjj211DDzvzDDDDDDDDDDDDDDDDDD",
"DDDDDDDDDDDDDDDDDDDD1222112jjjdXwppdjj211DDDzDDDzDzDDDDDDDDDDDDD",
"DDDDDDDDDDDDDDDDDDD112jccj2jjjd -eesjj2111DDDDDzBzDDDDDDDDDDDDDD",
"DDDDDDDDDDDDDDDDDDD1j1bN0b2jjjs o-wajj21111DDDDDzDDDDDDDDDDDDDDD",
"DDDDDDDDDDDDDDDDDD1c12NS8N2cjjs XO%pjj221211DDDDDvDDDDDDDDDDDDDD",
"DDDDDDDDDDDDDDDDDDj12NSSANbccja  Xoopjj21221DDDDDDDDDDDDDDDDDDDD",
"DDDDDDDDDDDDDDDDDD12bSb.*5Nccja   O$sjj2122wDDDzDDDDDDDDDDDDDDDD",
"DDDDDDDDDDDDDDDDDDjbN..*;+bccjp   %:ajj2222eDDDDDDDDDDDDDDDDDDDD",
"DDDDDDDDDDDDDDDDDDbN..19hi2cjwp   %:pwjj22eDDDvDDDDDDDDDDDDDDDDD",
"DDDDDDDDDDDDDDDDDDN..1hfh92jjp1   $:&ejj22pDkvDDDzDDDDDDDDDDDDDD",
"DDDDDDDDDDDDDDDDDDbNb5gfCn2jja1   k%op2k2pkzvzDDDDDDDDDDDDDDDDDD",
"DDDDDDDDDDDDDDDDDDDDDjuq1cjjjs1  k   ak2a zkbDDzDDDDDDDDDDDDDDDD",
"DDDDDDDDDDDDDDDDDDDDDD5ccckjlvl  l   sls DkmzDzvzDDDDDDDDDDDDDDD",
"DDDDDDDDDDDDDDDDDDDlDlk4kvklvvlkkv   kv zBmkkDDzDDDDDDDDDDDDDDDD",
"DDDDDDDDDDDDDDDDDDDDkDkv4<44vllllvvv v kBkkDDDDDDDDDDDDDDDDDDDDD",
"DDDDDDDDDDDDDDDDDDDDlDx3< <lllvBSSBBBSSBvDDDDDDDDDDDDDDDDDDDDDDD",
"DDDDDDDDDDDDDDDDDDlllkl3< <lvBBBBBBvvblDDDDDDzDDDDDDDDDDDDDDDDDD",
"DDDDDDDDDDDDDDDDDllvvllk4<44vBSBvvvzzvllDDDDzvzDDDDDDDDDDDDDDDDD",
"DDDDDDDDDDDDDDDDDDvBBvllkvklBSSSBBvzzDDDDDDDDzDDDDDDDDDDDDDDDDDD",
"DDDDDDDDDDDDDDDDDDlvSBlllllvSSBvlkkzDDDDDDDDDDDDDDDDDDDDDDDDDDDD",
"DDDDDDDDDDDDDDDDDDDlBSBSBvlBSBvlDDDDDDDDDDDDDDDDDDDDDDDDDDDDDDDD",
"DDDDDDDDDDDDDDDDDDllvBvSBBvSBvlvkDDDDDDDDDDDDDDDDDDDDDDDDDDDDDDD",
"DDDDDDDDDDDDDDDDDlvvlBlSvlBBvkklvkDDDDDDDDDDDDDDDDDDDDDDDDDDDDDD",
"DDDDDDDDDDDDDDDDDDDlDlDBlkvlDlDDDlDDDDDDDDDDDDDDDDDDDDDDDDDDDDDD",
"DDDDDDDDDDDDDDDDDDDDDDDvlDlDDDkDDDkDDDDDDDDDDDDDDDDDDDDDDDDDDDDD",
"DDDDDDDDDDDDDDDDDDDDDDDlDDkDDDDDDDDDDDDDDDDDDDDDDDDDDDDDDDDDDDDD",
"DDDDDDDDDDDDDDDDDDDDDDDDDDDDDDDDDDDDDDDDDDDDDDDDDDDDDDDDDDDDDDDD",
"DDDDDDDDDDDDDDDDDDDDDDDDDDDDDDDDDDDDDDDDDDDDDDDDDDDDDDDDDDDDDDDD"
};
