/* XPM */
static char *result[] = {
/* columns rows colors chars-per-pixel */
"64 64 57 1 ",
"  c black",
". c #180000",
"X c gray11",
"o c #241400",
"O c #2C1800",
"+ c #342000",
"@ c #3C2404",
"# c #282828",
"$ c #482C04",
"% c #5C3000",
"& c #58380C",
"* c #603810",
"= c #443434",
"- c #684000",
"; c #785004",
": c #644014",
"> c #684014",
", c #6C4C18",
"< c #744C1C",
"1 c #000440",
"2 c #00044C",
"3 c #001474",
"4 c #002870",
"5 c #043478",
"6 c #304858",
"7 c gray25",
"8 c #544440",
"9 c #585858",
"0 c #685450",
"q c #6C6C6C",
"w c #886408",
"e c #98780C",
"r c #806024",
"t c #886428",
"y c #907030",
"u c #9C7C3C",
"i c #A88C10",
"p c #BCA414",
"a c #D0C01C",
"s c #A88448",
"d c #B49054",
"f c #CCA874",
"g c #0428A0",
"h c #0C4084",
"j c #246098",
"k c #3470A4",
"l c #0C48CC",
"z c #4480B0",
"x c #848484",
"c c gray61",
"v c gray66",
"b c #B4B4B4",
"n c #C0B0A4",
"m c #E8C498",
"M c #D4C4B4",
"N c #D8D8D8",
"B c None",
/* pixels */
"BBBBBBBBBBBBBBBBBBBBBBBBBBBBBBBBBBBBBBBBBBBBBBBBBBBBBBBBBBBBBBBB",
"BBBBBBBBBBBBBBBBBBBBBBBBBBBBBBBBBBBBBBBBBBBBBBBBBBBBBBBBBBBBBBBB",
"BBBBBBBBBBBBBBBBBBBBBBBBBBBBBBBBBBBBBBBBBBBBBBBBBBBBBBBBBBBBBBBB",
"BBBBBBBBBBBBBBBBBBBBBBBBBBBBBBBBBBBBBBBBBBBBBBBBBBBBBBBBBBBBBBBB",
"BBBBBBBBBBBBBBBBBBBBBBBBBBBBBBBBBBBBBBBBBBBBBBBBBBBBBBBBBBBBBBBB",
"BBBBBBBBBBBBBBBBBBBBBBBBBBBBBBBBBBBBBBBBBBBBBBBBBBBBBBBBBBBBBBBB",
"BBBBBBBBBBBBBBBBBBBBBBBBBBBBBBBBBBBBBBBBBBBBBBBBBBBBBBBBBBBBBBBB",
"BBBBBBBBBBBBBBBBBBBBBBBBBBBBBBBBBBBBBBBBBBBBBBBBBBBBBBBBBBBBBBBB",
"BBBBBBBBBBBBBBBBBBBBBBBBBBBBBBBBBBBBBBBBBBBBBBBBBBBBBBBBBBBBBBBB",
"BBBBBBBBBBBBBBBBBBBBBBBBBBBBBBBBBBBBBBBBBBBBBBBBBBBBBBBBBBBBBBBB",
"BBBBBBBBBBBBBBBBBBBBBBBBBBBBBBBBBBBBBBBBBBBBBBBBBBBBBBBBBBBBBBBB",
"BBBBBBBBBBBBBBBBBBBBBBBBBBBBBBBBBBBBBBBBBBBBBBBBBBBBBBBBBBBBBBBB",
"BBBBBBBBBBBBBBBBBBBBBBBBBBBBBBBBBBBBBBBBBBBBBBBBBBBBBBBBBBBBBBBB",
"BBBBBBBBBBBBBBBBBBBBBBBBBBBBBBBBBBBBBBBBBBBBBBBBBBBBBBBBBBBBBBBB",
"BBBBBBBBBBBBBBBBBBBBBBBBBBBBBBBBBBBBBBBBBBBBBBBBBBBBBBBBBBBBBBBB",
"BBBBBBBBBBBBBBBBBBBBBBBBBBBBBBBBBBBBBBBBBBBBBBBBBBBBBBBBBBBBBBBB",
"BBBBBBBBBBBBBBBBBBBBBBBBBBBBBBBBBBBBBBBBBBBBBBBBBBBBBBBBBBBBBBBB",
"BBBBBBBBBBBBBBBBBBBBBBBBBBBBBBBBBBBBBBBBBBBBBBBBBBBBBBBBBBBBBBBB",
"BBBBBBBBBBBBBBBBBBBBBBBBBBBBBBBBBBBBBBBBBBBBBBBBBBBBBBBBBBBBBBBB",
"BBBBBBBBBBBBBBBBBBBBBBBBBBBBBBBBBBBBBBBBBBBBBBBBBBBBBBBBBBBBBBBB",
"BBBBBBBBBBBBBBBBBBBBBBBBBBBBBB++++BBBBBBBBBBBBBBBBBBBBBBBBBBBBBB",
"BBBBBBBBBBBBBBBBBBBBBBBBBBBBB+-,,-+BBBBBBBBBBBBBBBBBBBBBBBBBBBBB",
"BBBBBBBBBBBBBBBBBBBBBBBBBBBB+-$$,$$+BBBBBBBBBBBBBBBBBBBBBBBBBBBB",
"BBBBBBBBBBBBBBBBBBBBBBBBBBBB+--$$-$-2BBBBBBBBBBBBBBBBBBBBBBBBBBB",
"BBBBBBBBBBBBBBBBBBBBBBBBBB23+-<**<--332BBBBBBBBBBBBBBBBBBBBBBBBB",
"BBBBBBBBBBBBBBBBBBBBBB223232%<fmmf<%gg32BBBBBBBBBBBBBBBBBBBBBBBB",
"BBBBBBBBBBBBBBBBBBBBB23gggg2%tdffft%llg32BBBBBBBBBBBBBBBBBBBBBBB",
"BBBBBBBBBBBBBBBBBBBB23gllgg3%%+dyt+%llgg32BBBBBBBBBBBBBBBBBBBBBB",
"BBBBBBBBBBBBBBBBBBBB2glllggg%;ss;s;%3ggg32BBBBBBBBBBBBBBBBBBBBBB",
"BBBBBBBBBBBBBBBBBBB2ggllgglg%,t$$t%%32ggg32BBBBBBBBBBBBBBBBBBBBB",
"BBBBBBBBBBBBBBBBBB23gllg23gg,@o%++,@323ggg2BBBBBBBBBBBBBBBBBBBBB",
"BBBBBBBBBBBBBBBBBB23gll323gg&o+;%o%:3223gg32BBBBBBBBBBBBBBBBBBBB",
"BBBBBBBBBBBBBBBBB233glg2233go++;-%+%322233g322BBBBBBBBBBBBBBBBBB",
"BBBBBBBBBBBBBBBBB233332223332@+,-%+3g3322gllgxxxBBBBBBBBBBBBBBBB",
"BBBBBBBBBBBBBBBBB23g322233ggg@@-%@2gg3322gllvM7vBBBBBBBBBBBBBBBB",
"BBBBBBBBBBBBBBBBB2g6=B2233ggw@@-%@2gg33223gcNqnxBBBBBBBBBBBBBBBB",
"BBBBBBBBBBBBBBBB23g362223ggge;w;wuggg3322xNqNNxBBBBBBBBBBBBBBBBB",
"BBBBBBBBBBBBBBB23xvM7x323gggar67eewgg332xvN9c*BBBBBBBBBBBBBBBBBB",
"BBBBBBBBBBBBBB23xNNqnv2233gga82gwwpgg3322xx9fuBBBBBBBBBBBBBBBBBB",
"BBBBBBBBBBBBB2gxNxXX6vx233ggaO  ;wpggg322BBfddu*zBBBBBBBBBBBBBBB",
"BBBBBBBBBBBBB3xNxX0s0jzbz j a   O>aggg322BBu*BdtBBBBBBBBBBBBBBBB",
"BBBBBBBBBBBBBBqxX6ffjz515jjep   o+aggg322BB@BB8uBBBBBBBBBBBBBBBB",
"BBBBBBBBBBBBBBvXX8fmj41 1z pe    oaggg3322BBBBBuBBBBBBBBBBBBBBBB",
"BBBBBBBBBBBBBBxvX0mfk41 1bjp      agggg3322jBBBBBBBBBBBBBBBBBBBB",
"BBBBBBBBBBBBBBBxv0f#@z515zjp      agggg333jzjBBBBBBBBBBBBBBBBBBB",
"BBBBBBBBBBBBBBBB+=d063hzzjgj2j    pggggg3g3jBBBBBjBBBBBBBBBBBBBB",
"BBBBBBBBBBBBBBBBB.80233jgggpjzj   pggggggggwBBBBjzjBBBBBBBBBBBBB",
"BBBBBBBBBBBBBBBBBBBB233gjggp j    pwggggggwBBBBBBjBBBBBBBBBBBBBB",
"BBBBBBBBBBBBBBBBBBBBw3ggggga       pggggieBBBBBBBBBBBBBBBBBBBBBB",
"BBBBBBBBBBBBBBBBBBBBBwe3ggga       ag3pi  BBBBBzBBBBBBBBBBBBBBBB",
"BBBBBBBBBBBBBBBBBBBBB  wepaa       app   BBBBBBBBBBBBBBBBBBBBBBB",
"BBBBBBBBBBBBBBBBBBBBB                   BBBBBBBBBBBBBBBBBBBBBBBB",
"BBBBBBBBBBBBBBBBBBBBBBB                BBBBBBBBBBBBBBBBBBBBBBBBB",
"BBBBBBBBBBBBBBBBBBBBBBBBB      BBBBBBBBBBBBBBBBBBBBBBBBBBBBBBBBB",
"BBBBBBBBBBBBBBBBBBBBBBBBBBBBBBBBBBBBBBBBBBBBBBBBBBBBBBBBBBBBBBBB",
"BBBBBBBBBBBBBBBBBBBBBBBBBBBBBBBBBBBBBBBBBBBBBBBBBBBBBBBBBBBBBBBB",
"BBBBBBBBBBBBBBBBBBBBBBBBBBBBBBBBBBBBBBBBBBBBBBBBBBBBBBBBBBBBBBBB",
"BBBBBBBBBBBBBBBBBBBBBBBBBBBBBBBBBBBBBBBBBBBBBBBBBBBBBBBBBBBBBBBB",
"BBBBBBBBBBBBBBBBBBBBBBBBBBBBBBBBBBBBBBBBBBBBBBBBBBBBBBBBBBBBBBBB",
"BBBBBBBBBBBBBBBBBBBBBBBBBBBBBBBBBBBBBBBBBBBBBBBBBBBBBBBBBBBBBBBB",
"BBBBBBBBBBBBBBBBBBBBBBBBBBBBBBBBBBBBBBBBBBBBBBBBBBBBBBBBBBBBBBBB",
"BBBBBBBBBBBBBBBBBBBBBBBBBBBBBBBBBBBBBBBBBBBBBBBBBBBBBBBBBBBBBBBB",
"BBBBBBBBBBBBBBBBBBBBBBBBBBBBBBBBBBBBBBBBBBBBBBBBBBBBBBBBBBBBBBBB",
"BBBBBBBBBBBBBBBBBBBBBBBBBBBBBBBBBBBBBBBBBBBBBBBBBBBBBBBBBBBBBBBB"
};
