/* XPM */
static char *result[] = {
/* columns rows colors chars-per-pixel */
"64 64 167 2 ",
"   c #5687BC",
".  c #5A8CBA",
"X  c #5995BC",
"o  c #6588A8",
"O  c #648EB6",
"+  c #638ABC",
"@  c #639EBC",
"#  c #7095B1",
"$  c #799BBA",
"%  c #68A0BA",
"&  c #67ACBE",
"*  c #71A6BA",
"=  c #79A1BD",
"-  c #74ABBC",
";  c #4D93CC",
":  c #569ECB",
">  c #569DDA",
",  c #659DCC",
"<  c #739BC5",
"1  c #5FA1CE",
"2  c #5AA2D4",
"3  c #65A1C1",
"4  c #6CAFCA",
"5  c #75A3C4",
"6  c #76A9CE",
"7  c #7CABC9",
"8  c #6FB1C1",
"9  c #6FB2C9",
"0  c #7ABAC6",
"q  c #6FAAD4",
"w  c #72ACD6",
"e  c #7EAEDF",
"r  c #6FB6D0",
"t  c #6FBDDA",
"y  c #7CB2D4",
"u  c #73B1DE",
"i  c #76BADA",
"p  c #75B1D3",
"a  c #59A4EA",
"s  c #61A3E0",
"d  c #65B9E6",
"f  c #76B3E1",
"g  c #75BAE6",
"h  c #74B7ED",
"j  c #74BFE9",
"k  c #6CB6FB",
"l  c #6CBDF5",
"z  c #70B2F2",
"x  c #70BEF7",
"c  c #77C0D6",
"v  c #6FC0ED",
"b  c #7BC2ED",
"n  c #7AC6F6",
"m  c #7BC8F5",
"M  c #79CFFE",
"N  c #5EF3F5",
"B  c #5AF7FD",
"V  c #5CFBFF",
"C  c #62EBEF",
"Z  c #78E0E5",
"A  c #70E6EA",
"S  c #64F4F7",
"D  c #6BF3F7",
"F  c #63FCFF",
"G  c #6BFCFF",
"H  c #70F3F4",
"J  c #7BF7F8",
"K  c #73FDFE",
"L  c #7CFEFF",
"P  c #7CF1F4",
"I  c #839DB8",
"U  c #80A4BF",
"Y  c #86AAC6",
"T  c #81AECA",
"R  c #8AAEC9",
"E  c #8DB1C3",
"W  c #80B2CE",
"Q  c #83BFCF",
"!  c #93BBCB",
"~  c #84AFD8",
"^  c #80BEDD",
"/  c #92B3D1",
"(  c #A2BBCC",
")  c #82BFEE",
"_  c #92BEE2",
"`  c #8FC2CE",
"'  c #93C3D5",
"]  c #9DC3D3",
"[  c #90C6D8",
"{  c #85D5DF",
"}  c #99D9DE",
"|  c #A7C0C9",
" . c #A0C4D7",
".. c #A5C9D3",
"X. c #ADC9D3",
"o. c #A0C8D9",
"O. c #B5CDD6",
"+. c #A7D5DF",
"@. c #ADD2DC",
"#. c #B3D4DF",
"$. c #80C2E7",
"%. c #8DC1E1",
"&. c #8FCDED",
"*. c #90C9E1",
"=. c #97C9EB",
"-. c #98CAE8",
";. c #91D4E3",
":. c #84C7FC",
">. c #82CFF8",
",. c #8BCAFE",
"<. c #8BD0F4",
"1. c #86D2FC",
"2. c #8DD7FF",
"3. c #9DDAF5",
"4. c #91D9FF",
"5. c #9FDBFF",
"6. c #AACEE0",
"7. c #B1CFE0",
"8. c #A0DAE1",
"9. c #ACDCE8",
"0. c #ADD3ED",
"q. c #BED6E1",
"w. c #B6DAE1",
"e. c #B6D8EF",
"r. c #BAD9EB",
"t. c #A6DEF5",
"y. c #ABD1F9",
"u. c #A0D9FD",
"i. c #ACDCFE",
"p. c #87E6EB",
"a. c #82FDFE",
"s. c #8DFEFF",
"d. c #93FEFF",
"f. c #9DFEFF",
"g. c #ADE1E4",
"h. c #BCE5EF",
"j. c #A7E7FF",
"k. c #ABE6FE",
"l. c #BDE6F0",
"z. c #BEE9F5",
"x. c #B5E0FF",
"c. c #C0D1D1",
"v. c #CED8D8",
"b. c #CADFE6",
"n. c #CDE1E6",
"m. c #C7E3ED",
"M. c #D3E0E6",
"N. c #D4E4E9",
"B. c #DEE6EA",
"V. c #C3E5FF",
"C. c #C9EBFD",
"Z. c #D3EBF4",
"A. c #C6F0F6",
"S. c #CDF0F1",
"D. c #C3F2FF",
"F. c #D5F5F8",
"G. c #DBF5FB",
"H. c #DCFCFF",
"J. c #E0EDF2",
"K. c #E9EFF2",
"L. c #E3F2F3",
"P. c #EBF5F6",
"I. c #EAF8F7",
"U. c #ECFAFC",
"Y. c #F5FBFC",
"T. c #FBFCFC",
"R. c None",
/* pixels */
"R.R.R.R.R.R.R.R.R.R.R.R.R.R.R.R.R.R.R.R.R.R.R.R.R.R.R.R.R.R.R.R.R.R.R.R.R.R.R.R.R.R.R.R.R.R.R.R.R.R.R.R.R.R.R.R.R.R.R.R.R.R.R.R.",
"R.R.R.R.R.R.R.R.R.R.R.R.R.R.R.R.R.R.R.R.R.R.R.R.R.R.R.R.R.R.R.R.R.R.R.R.R.R.R.R.R.R.R.R.R.R.R.R.R.R.R.R.R.R.R.R.R.R.R.R.R.R.R.R.",
"R.R.R.R.R.R.R.R.R.R.R.R.R.R.R.R.R.R.R.R.R.R.R.R.R.R.R.R.R.R.R.R.R.R.R.R.R.R.R.R.R.R.R.R.R.R.R.R.R.R.R.R.R.R.R.R.R.R.R.R.R.R.R.R.",
"R.R.R.R.R.R.R.R.R.R.R.R.R.R.R.R.R.R.R.R.R.R.R.R.R.R.R.R.R.R.R.R.R.R.R.R.R.R.R.R.R.R.R.R.R.R.R.R.R.R.R.R.R.R.R.R.R.R.R.R.R.R.R.R.",
"R.R.R.R.R.R.R.R.R.R.R.R.R.R.R.R.R.R.R.R.R.R.R.R.R.R.R.R.R.R.R.R.R.R.R.R.R.R.R.R.R.R.R.R.R.R.R.R.R.R.R.R.R.R.R.R.R.R.R.R.R.R.R.R.",
"R.R.R.R.R.R.R.R.R.R.R.R.R.R.R.R.R.R.R.R.R.R.R.R.R.R.R.R.R.R.R.R.R.R.R.R.R.R.R.R.R.R.R.R.R.R.R.R.R.R.R.R.R.R.R.R.R.R.R.R.R.R.R.R.",
"R.R.R.R.R.R.R.R.R.R.R.R.R.R.R.R.R.R.R.R.R.R.R.R.R.R.R.R.R.R.R.R.R.R.R.R.R.R.R.R.R.R.R.R.R.R.R.R.R.R.R.R.R.R.R.R.R.R.R.R.R.R.R.R.",
"R.R.R.R.R.R.R.R.R.R.R.R.R.R.R.R.R.R.R.R.R.R.R.R.R.R.R.R.R.R.R.R.R.R.R.R.R.R.R.R.R.R.R.R.R.R.R.R.R.R.R.R.R.R.R.R.R.R.R.R.R.R.R.R.",
"R.R.R.R.R.R.R.R.R.R.R.R.R.R.R.R.R.R.R.R.R.R.R.R.R.R.R.R.R.R.R.R.R.R.R.R.R.R.R.R.R.R.R.R.R.R.R.R.R.R.R.R.R.R.R.R.R.R.R.R.R.R.R.R.",
"R.R.R.R.R.R.R.R.R.R.R.R.R.R.R.R.R.R.R.R.R.R.R.R.R.R.R.R.R.R.R.R.G V R.R.R.R.R.R.R.R.R.R.R.R.R.R.R.R.R.R.R.R.R.R.R.R.R.R.R.R.R.R.",
"R.R.R.R.R.R.R.R.R.R.R.R.R.R.R.R.R.R.R.R.R.R.R.R.R.R.R.R.R.R.F K R.R.R.R.R.R.R.R.R.R.R.R.R.R.R.R.R.R.R.R.R.R.R.R.R.R.R.R.R.R.R.R.",
"R.R.R.R.R.R.R.R.R.R.R.R.R.R.R.R.R.R.R.R.R.R.R.R.R.R.R.R.R.V V R.R.R.R.R.R.R.R.R.R.R.R.R.R.R.R.R.R.R.R.R.R.R.R.R.R.R.R.R.R.R.R.R.",
"R.R.R.R.R.R.R.R.R.R.R.R.R.R.R.R.R.R.R.R.R.R.R.R.R.R.R.R.R.R.R.R.R.R.R.R.R.R.R.R.R.R.R.R.R.R.R.R.R.R.R.R.R.R.R.R.R.R.R.R.R.R.R.R.",
"R.R.R.R.R.R.R.R.R.R.R.R.R.R.R.R.R.R.R.R.R.R.R.R.R.R.R.R.R.V R.R.R.R.R.R.R.R.R.R.R.R.R.R.R.R.R.R.R.R.R.R.R.R.R.R.R.R.R.R.R.R.R.R.",
"R.R.R.R.R.R.R.R.R.R.R.R.R.R.R.R.R.R.R.R.R.R.R.R.R.R.R.R.R.R.R.R.R.R.R.R.R.R.R.R.R.R.R.R.R.R.R.R.R.R.R.R.R.R.R.R.R.R.R.R.R.R.R.R.",
"R.R.R.R.R.R.R.R.R.R.R.R.R.R.R.R.R.R.R.R.R.R.R.R.R.R.R.R.R.R.R.R.R.R.R.R.R.G R.R.R.R.R.R.R.R.R.R.R.R.R.R.R.R.R.R.R.R.R.R.R.R.R.R.",
"R.R.R.R.R.R.R.R.R.R.R.R.R.R.R.R.R.R.R.R.R.R.R.R.R.R.R.R.R.R.R.R.R.R.R.R.R.R.V R.R.R.R.R.R.R.R.R.R.R.R.R.R.R.R.R.R.R.R.R.R.R.R.R.",
"R.R.R.R.R.R.R.R.R.R.R.R.R.R.R.R.F a.F R.R.R.R.$.l.R.R.R.R.R.R.R.R.R.R.R.R.R.R.R.R.R.R.R.R.R.R.R.R.R.R.R.R.R.R.R.R.R.R.R.R.R.R.R.",
"R.R.R.R.R.R.R.R.R.R.R.R.R.R.R.R.R.K d.G R.R.g k.F.] R.R.R.R.R.R.R.R.R.R.R.R.R.R.R.R.R.R.R.R.R.R.R.R.R.R.R.R.R.R.R.R.R.R.R.R.R.R.",
"R.R.R.R.R.R.R.R.R.R.R.R.R.R.R.R.R.R.F G R.R.>.9.R.R.R.R.R.R.R.R.R.R.G s.d.L G V R.R.R.R.R.R.R.R.R.R.R.R.R.R.R.R.R.R.R.R.R.R.R.R.",
"R.R.R.R.R.R.R.R.R.R.R.R.R.R.R.R.R.R.R.R.R.R.R.R.R.R.R.R.R.R.R.R.r Z.f.f.d.a.p.R.R.R.R.R.R.R.R.R.R.R.R.R.R.R.R.R.R.R.R.R.R.R.R.R.",
"R.R.R.R.R.R.R.R.R.R.R.R.R.R.R.R.R.R.R.R.R.R.R.R.R.R.R.R.R.c.R.f i.;.R.R.R.R.R.R.R.R.R.R.R.R.R.R.R.R.R.R.R.R.R.R.R.R.R.R.R.R.R.R.",
"R.R.R.R.R.R.R.R.R.R.R.R.R.R.R.R.R.R.R.R.R.R.R.R.R.R.R.l.U.o.7 :.%.R.R.R.R.R.R.R.R.R.R.R.R.R.R.R.R.R.R.R.R.R.R.R.R.R.R.R.R.R.R.R.",
"R.R.R.R.R.R.R.R.R.R.R.R.R.R.R.R.R.R.R.R.R.R.R.R.R.w 4.k.A.S.R.R.R.R.0 ' Z.U.R.R.R.R.R.R.R.R.R.R.R.R.R.R.R.R.R.R.R.R.R.R.R.R.R.R.",
"R.R.R.R.R.R.R.R.R.R.R.R.R.R.R.R.R.Z { R.R.R.8 R.l 2.D.G.[ R.R.4 *.Y.Y.x.i.R.R.R.R.R.R.R.R.R.R.R.R.R.R.R.R.R.R.R.R.R.R.R.R.R.R.R.",
"R.R.R.R.R.R.R.R.R.R.R.R.R.R.R.R.R.R.R.R.& R.R.R.. + 5 R.R.R.R.d v u.,.=.# R.R.e.Y.B.R.R.R.R.R.R.R.R.R.R.R.R.R.R.R.R.R.R.R.R.R.R.",
"R.R.R.R.R.R.R.R.R.R.R.R.R.R.R.R.R.R.R.N R.R.R.R.R.R.R.R.R.R.9 t b a q R.R.1 h R R.R.R.R.R.R.R.R.L R.R.R.R.R.R.R.R.R.R.R.R.R.R.R.",
"R.R.R.R.R.R.R.R.R.R.R.R.R.R.R.R.R.R.R.R.R.R.R.R.` E R.R.R.R.R.R.R.R.R.R.R.R.R.R.R.R.R.R.R.R.R.R.L L R.R.R.R.R.R.R.R.R.R.R.R.R.R.",
"R.R.R.R.R.R.R.R.R.R.R.R.R.R.R.R.R.R.R.- R.R.R.R.R.R.R.R.R.R.Q R.R.R.R.R.R.R.R.R.R.R.R.R.R.R.R.R.V L V R.R.R.R.R.R.R.R.R.R.R.R.R.",
"R.R.R.R.R.R.R.R.R.R.R.R.R.R.R.R.R.R.R.R.R.R.R.R.R.R.R.R.R.R.R.R.X 3 R.R.R., _ 7 R.R.R.R.R.R.R.R.R.R.R.R.R.R.R.R.R.R.R.R.R.R.R.R.",
"R.R.R.R.R.R.R.R.R.R.R.R.R.R.R.R.R.N.b.#.R.I R.R.g.R.R.R.R.f t.F.l.;.: a k ,.V.G.r.R.R.R.R.R.R.R.R.R.R.R.R.R.R.R.R.R.R.R.R.R.R.R.",
"R.O.b.L.Y.L.P.I.P.U.I.L.L.P.P.P.Y.T.T.T.T.L.N.q.7.o.] =.m 1.k.H.G.] R.R.R.R.R.R.R.R.R.R.R.R.R.R.R.R.R.R.R.R.R.R.R.R.R.R.R.R.R.R.",
"R.R.R.R.n.R.R.R.R.R.R.R.R.R.R.( R.R.M.I.R.R.#.R.R.R.R.R.R.R.R.R.R.R.R.R.R.R.R.R.R.R.R.R.R.R.R.R.R.R.R.R.R.R.R.R.R.R.R.R.R.R.R.R.",
"R.R.R.R.R.R.R.R.R.R.R.R.R.R.R.R.R.A R.R.R.R.R.R.R.R.R.R.R.R.R.  z ~ X c @ R.R.R.R.R.R.R.R.R.R.R.R.R.R.R.R.R.R.R.R.R.R.R.R.R.R.R.",
"R.R.R.R.R.R.R.R.R.R.R.R.R.R.R.P J B R.R.R.R.$ R.R.R.R.R.R.R.R.R.o ,.C.Z.R.R.e y.< R.R.R.R.R.R.R.R.R.R.R.R.R.R.R.R.R.R.R.R.R.R.R.",
"R.R.R.R.R.R.R.R.R.R.R.R.R.S a.L V R.R.R.R.R.2 $.W R.R.R.R.R.R.R.R.R.y 7.N.R.R.R.R./ R.R.R.R.R.R.R.R.R.R.R.R.R.R.R.R.R.R.R.R.R.R.",
"R.R.R.R.R.R.R.R.R.R.R.R.V K J D R.R.R.R.R.R.R.w k.H.m.p R.R.R.R.R.R.R.R.R.R.R.R.R.R.R.R.R.R.R.R.R.R.R.R.R.R.R.R.R.R.R.R.R.R.R.R.",
"R.R.R.R.R.R.R.R.R.R.R.R.R.R.R.R.R.R.R.R.R.R.R.R.6 F.J.L.Y R.R.% W C.=.R.R.R.R.R.R.R.R.R.R.R.R.R.R.R.R.R.R.R.R.R.R.R.R.R.R.R.R.R.",
"R.R.R.R.R.R.R.R.R.R.R.R.R.R.R.R.C R.R.R.R.! R.R.R.} +.R.R.R.O R.R.R.x u.i.=.R.R.R.R.R.R.R.R.R.R.R.R.R.R.R.R.R.R.R.R.R.R.R.R.R.R.",
"R.R.R.R.R.R.R.R.R.R.R.R.R.R.R.R.R.R.R.R.R.R.R.R.R.R...U R.R.R.R.R.R.R.$.:.; R.R.R.R.R.R.R.R.R.R.R.R.R.R.R.R.R.R.R.R.R.R.R.R.R.R.",
"R.R.R.R.R.R.R.R.R.R.R.! R.R.R.R.R.R.R.R.R.R.= R.R.R.R.R.R.R.R.R.R.R.R.R.0.U.6.R.R.R.R.R.R.R.R.R.R.R.R.R.R.R.R.R.R.R.R.R.R.R.R.R.",
"R.R.R.R.R.R.R.R.R.R.R.R.R.R.R.R.R.R.$ g.R.R.R.R.R.R.R.R.R.R.R.R.R.* R.R.R.| U.R.R.R.R.R.R.R.R.R.R.R.R.R.R.R.R.R.R.R.R.R.R.R.R.R.",
"R.R.R.R.R.R.R.R.R.R.R.R.R.R.R.R.R.R.R.8.' R.R.R.R.R., > n 3.5 R.R.R.R.R.R.R.R.R.R.R.R.R.R.R.R.R.R.R.R.R.R.R.R.R.R.R.R.R.R.R.R.R.",
"R.R.R.R.R.R.R.R.R.R.R.R.R.R.R.R.R.R.R.R.R.R.R.R.R.R.R.b M <.i R.R.R.R.R.R.R.R.R.R.R.R.R.R.R.R.R.R.R.R.R.R.R.R.R.R.R.R.R.R.R.R.R.",
"R.R.R.R.R.R.R.R.R.R.R.R.R.R.R.R.R.R.R.R.R.R.R.G V R.R.R.W D.A.R.R.R.R.R.R.R.R.R.R.R.R.R.R.R.R.R.R.R.R.R.R.R.R.R.R.R.R.R.R.R.R.R.",
"R.R.R.R.R.R.R.R.R.R.R.R.R.R.R.R.R.R.R.R.R.R.R.K V R.R.R.R.X.T.P.R.R.R.R.R.R.R.R.R.F F R.R.R.R.R.R.R.R.R.R.R.R.R.R.R.R.R.R.R.R.R.",
"R.R.R.R.R.R.R.R.R.R.R.R.R.R.R.R.R.R.R.R.R.R.R.K R.R.R.R.R.R.R.v.R.R.R.R.R.R.R.R.R.V F F R.R.R.R.R.R.R.R.R.R.R.R.R.R.R.R.R.R.R.R.",
"R.R.R.R.R.R.R.R.R.R.R.R.R.R.R.R.R.R.R.R.R.R.R.H R.R.R.R.R.R.R.R.R.R.R.R.R.R.R.R.R.R.R.R.R.R.R.R.R.R.R.R.R.R.R.R.R.R.R.R.R.R.R.R.",
"R.R.R.R.R.R.R.R.R.R.R.R.R.R.R.R.R.R.R.R.R.R.R.R.R.R.R.R.R.R.R.R.R.R.R.R.R.R.R.R.R.R.R.R.R.R.R.R.R.R.R.R.R.R.R.R.R.R.R.R.R.R.R.R.",
"R.R.R.R.R.R.R.V R.R.R.R.R.R.R.R.R.R.R.R.R.R.R.R.R.R.R.R.R.R.R.R.R.R.R.R.R.R.R.R.R.R.R.R.R.R.R.R.R.R.R.R.R.R.R.R.R.R.R.R.R.R.R.R.",
"R.R.R.R.R.R.R.R.R.R.R.R.R.R.R.R.R.R.R.R.R.R.R.R.R.R.R.R.R.R.R.R.R.R.V K F R.R.R.R.R.R.R.R.R.R.R.R.R.R.R.R.R.R.R.R.R.R.R.R.R.R.R.",
"R.R.R.R.R.R.R.R.R.R.R.R.R.R.G R.R.R.R.R.R.R.R.R.R.R.R.R.R.R.R.R.R.R.R.K d.L R.R.R.R.R.R.R.R.R.R.R.R.R.R.R.R.R.R.R.R.R.R.R.R.R.R.",
"R.R.R.R.R.R.R.R.R.R.R.R.R.R.L L R.R.R.R.R.R.R.R.R.R.R.R.R.R.R.R.R.R.R.R.G a.K R.R.R.R.R.R.R.R.R.R.R.R.R.R.R.R.R.R.R.R.R.R.R.R.R.",
"R.R.R.R.R.R.R.R.R.R.R.R.R.R.R.a.G R.R.R.R.R.R.R.R.R.R.R.R.R.R.R.R.R.R.R.R.R.R.R.R.R.R.R.R.R.R.R.R.R.R.R.R.R.R.R.R.R.R.R.R.R.R.R.",
"R.R.R.R.R.R.R.R.R.R.R.R.R.R.R.R.V R.R.R.R.R.R.R.R.R.R.R.R.R.R.R.R.R.R.R.R.R.R.R.R.R.R.R.R.R.R.R.R.R.R.R.R.R.R.R.R.R.R.R.R.R.R.R.",
"R.R.R.R.R.R.R.R.R.R.R.R.R.R.R.R.R.R.R.R.R.R.R.R.R.R.R.R.R.R.R.R.R.R.R.R.R.R.R.R.R.R.R.R.R.R.R.R.R.R.R.R.R.R.R.R.R.R.R.R.R.R.R.R.",
"R.R.R.R.R.R.R.R.R.R.R.R.R.R.R.R.R.R.R.R.R.R.R.R.R.R.R.R.R.R.R.R.R.R.R.R.R.R.R.R.R.R.R.R.R.R.R.R.R.R.R.R.R.R.R.R.R.R.R.R.R.R.R.R.",
"R.R.R.R.R.R.R.R.R.R.R.R.R.R.R.R.R.R.R.R.R.R.R.R.R.R.R.R.R.R.R.R.R.R.R.R.R.R.R.R.R.R.R.R.R.R.R.R.R.R.R.R.R.R.R.R.R.R.R.R.R.R.R.R.",
"R.R.R.R.R.R.R.R.R.R.R.R.R.R.R.R.R.R.R.R.R.R.R.R.R.R.R.R.R.R.R.R.R.R.R.R.R.R.R.R.R.R.R.R.R.R.R.R.R.R.R.R.R.R.R.R.R.R.R.R.R.R.R.R.",
"R.R.R.R.R.R.R.R.R.R.R.R.R.R.R.R.R.R.R.R.R.R.R.R.R.R.R.R.R.R.R.R.R.R.R.R.R.R.R.R.R.R.R.R.R.R.R.R.R.R.R.R.R.R.R.R.R.R.R.R.R.R.R.R.",
"R.R.R.R.R.R.R.R.R.R.R.R.R.R.R.R.R.R.R.R.R.R.R.R.R.R.R.R.R.R.R.R.R.R.R.R.R.R.R.R.R.R.R.R.R.R.R.R.R.R.R.R.R.R.R.R.R.R.R.R.R.R.R.R.",
"R.R.R.R.R.R.R.R.R.R.R.R.R.R.R.R.R.R.R.R.R.R.R.R.R.R.R.R.R.R.R.R.R.R.R.R.R.R.R.R.R.R.R.R.R.R.R.R.R.R.R.R.R.R.R.R.R.R.R.R.R.R.R.R.",
"R.R.R.R.R.R.R.R.R.R.R.R.R.R.R.R.R.R.R.R.R.R.R.R.R.R.R.R.R.R.R.R.R.R.R.R.R.R.R.R.R.R.R.R.R.R.R.R.R.R.R.R.R.R.R.R.R.R.R.R.R.R.R.R.",
"R.R.R.R.R.R.R.R.R.R.R.R.R.R.R.R.R.R.R.R.R.R.R.R.R.R.R.R.R.R.R.R.R.R.R.R.R.R.R.R.R.R.R.R.R.R.R.R.R.R.R.R.R.R.R.R.R.R.R.R.R.R.R.R."
};
