/* XPM */
static char *result[] = {
/* columns rows colors chars-per-pixel */
"64 64 186 2 ",
"   c #010000",
".  c #0B0907",
"X  c #000814",
"o  c #1B1A1B",
"O  c #1A1418",
"+  c #260000",
"@  c #200C17",
"#  c #2B191E",
"$  c #2E141C",
"%  c #000825",
"&  c #061927",
"*  c #1F1B20",
"=  c #000F38",
"-  c #001B31",
";  c #2B1F27",
":  c #0B222C",
">  c #1F2328",
",  c #002034",
"<  c #1F2A33",
"1  c #232426",
"2  c #2B2427",
"3  c #252629",
"4  c #2C2529",
"5  c #26292C",
"6  c #2A2A2D",
"7  c #35292D",
"8  c #2C2D31",
"9  c #252D30",
"0  c #263135",
"q  c #2D3136",
"w  c #2E3439",
"e  c #2B393D",
"r  c #313134",
"t  c #31353A",
"y  c #39353B",
"u  c #33393E",
"i  c #5A4533",
"p  c #7E5C3A",
"a  c #77583C",
"s  c #0D2F40",
"d  c #253F42",
"f  c #26394A",
"g  c #353C42",
"h  c #393E44",
"j  c #453C44",
"k  c #024649",
"l  c #1A474C",
"z  c #1F4F54",
"x  c #005E5F",
"c  c #075959",
"v  c #125456",
"b  c #15595E",
"n  c #1C5A5B",
"m  c #18565C",
"M  c #274244",
"N  c #244A4E",
"B  c #274345",
"V  c #3A4046",
"C  c #3E444A",
"Z  c #33454A",
"A  c #254D51",
"S  c #2A4D52",
"D  c #235056",
"F  c #215658",
"G  c #165B61",
"H  c #185D63",
"J  c #285E63",
"K  c #3A5F65",
"L  c #066D6D",
"P  c #186C6C",
"I  c #077472",
"U  c #2D676B",
"Y  c #3F6F74",
"T  c #2D7578",
"R  c #41444A",
"E  c #43484F",
"W  c #4C464D",
"Q  c #454B52",
"!  c #494E55",
"~  c #504A52",
"^  c #4D5057",
"/  c #4D535A",
"(  c #415159",
")  c #52565D",
"_  c #51585F",
"`  c #7B5C42",
"'  c #63665A",
"]  c #555C64",
"[  c #595E66",
"{  c #5A5F68",
"}  c #476168",
"|  c #55646B",
" . c #5C626B",
".. c #5A6067",
"X. c #556A71",
"o. c #5C6D74",
"O. c #5D7178",
"+. c #497278",
"@. c #61656D",
"#. c #656B73",
"$. c #6A6E76",
"%. c #606770",
"&. c #716E77",
"*. c #6D737B",
"=. c #72767E",
"-. c #815D38",
";. c #AD743C",
":. c #DB8E02",
">. c #F49805",
",. c #C58438",
"<. c #858061",
"1. c #898171",
"2. c #DF9E53",
"3. c #E49E4B",
"4. c #E09E53",
"5. c #E8A14F",
"6. c #E4A154",
"7. c #E9A455",
"8. c #4A7B81",
"9. c #427C84",
"0. c #547C84",
"q. c #6C7981",
"w. c #747A83",
"e. c #797D86",
"r. c #717780",
"t. c #008C8B",
"y. c #038786",
"u. c #1C8D8D",
"i. c #009D9B",
"p. c #089493",
"a. c #298687",
"s. c #368688",
"d. c #289393",
"f. c #3C8D96",
"g. c #00A9A7",
"h. c #15A5A4",
"j. c #3BB6B7",
"k. c #38A3AA",
"l. c #49868D",
"z. c #7C828B",
"x. c #73828B",
"c. c #688992",
"v. c #798C95",
"b. c #77969F",
"n. c #5399A1",
"m. c #599BA3",
"M. c #6C9BA4",
"N. c #46ACB1",
"B. c #56B2BA",
"V. c #4FB1B7",
"C. c #64A5AA",
"Z. c #72AAB3",
"A. c #64B2BC",
"S. c #66ABB4",
"D. c #62B9C3",
"F. c #7ACFD7",
"G. c #81838C",
"H. c #808690",
"J. c #858C95",
"K. c #888F99",
"L. c #8C929C",
"P. c #90969E",
"I. c #80A591",
"U. c #ACA688",
"Y. c #8F96A0",
"T. c #939AA3",
"R. c #959CA5",
"E. c #9CA3AC",
"W. c #9CB4BD",
"Q. c #A3ABB5",
"!. c #A3A7B1",
"~. c #ACB3BD",
"^. c #B1B6BF",
"/. c #CEC2AA",
"(. c #C2C5B5",
"). c #80B8C0",
"_. c #9CBAC4",
"`. c #AFB7C1",
"'. c #B3BBC5",
"]. c #82D0DA",
"[. c #89CAD3",
"{. c #B9C2CC",
"}. c #AED2D0",
"|. c #A3E6ED",
" X c #B1EBF2",
".X c None",
/* pixels */
".X.X.X.X.X.X.X.X.X.X.X.X.X.X.X4.4.4.4.4.4..X.X.X.X.X.X.X.X.X.X.X.X.X.X.X.X.X.X.X.X.X.X.X4.4.4.4.4..X.X.X.X.X.X.X.X.X.X.X.X.X.X.X",
".X.X.X.X.X.X.X.X.X.X.X.X.X.X.X.X4.4.4.4.4.4..X.X.X.X.X.X.X.X.X.X.X.X.X.X.X.X.X.X.X.X.X.X4.4.4.4.4..X.X.X.X.X.X.X.X.X.X.X.X.X.X.X",
".X.X.X.X.X.X.X.X.X.X.X.X.X.X.X.X4.4.4.4.4.4..X.X.X.X.X.X.X.X.X.X.X.X.X.X.X.X.X.X.X.X.X.X4.4.4.4.4..X.X.X.X.X.X.X.X.X.X.X.X.X.X.X",
".X.X.X.X.X.X.X.X.X.X.X.X.X.X.X.X4.4.4.2.4.4..X.X.X.X.X.X.X.X.X.X.X.X.X.X.X.X.X.X.X.X.X.X4.4.4.4.4..X.X.X.X.X.X.X.X.X.X.X.X.X.X.X",
".X.X.X.X.X.X.X.X.X.X.X.X.X.X.X.X4.2.4.4.4.4..X.X.X.X.X.X.X.X.X X.X.X.X.X.X.X.X.X.X.X.X.X4.4.4.4.4.4..X.X.X.X.X.X.X.X.X.X.X.X.X.X",
".X.X.X.X.X.X.X.X.X.X.X.X.X.X.X.X4.4.4.4.4.4..X.X.X.X.X.X.X.X.X[..X.X.X.X.X.X.X.X.X.X.X.X4.4.4.4.4.4..X.X.X.X.X.X.X.X.X.X.X.X.X.X",
".X.X.X.X.X.X.X.X.X.X.X.X.X.X.X4.4.4.4.4.4.4.2..X.X.X.X.X.X.X.XN..X.X.X.X.X.X.X.X.X.X.X.X4.4.4.4.4.4..X.X.X.X.X.X.X.X.X.X.X.X.X.X",
".X.X.X.X.X.X.X.X.X.X.X.X.X.X.X6.4.4.4.4.4.4.4.4..X.X.X.X.X.X.Xg..X.X.X.X.X.X.X.X.X.X.X4.4.4.4.4.4.4..X.X.X.X.X.X.X.X.X.X.X.X.X.X",
".X.X.X.X.X.X.X.X.X.X.X.XA..X.X5.4.4.4.7.7.7.7.7..X.X.X.X.X.X.Xt.g..X.X.X.X.X.X.X.X.X.X7.7.7.4.4.5.>.U.B..X.X.X.X.X.X.X.X.X.X.X.X",
".X.X.X.X.X.X.X.X.X.X.X.X.XD.C.<.:.>.,.a ` -.p -..X.X.X.X.X.XG L i..X.X.X.X.X.X.X6 : i -.p ` ;.3.I.}.}..X.X.X.X.X.X.X.X.X.X.X.X.X",
".X.X.X.X.X.X.X.X.X.X.X.X.X.Xk.p.(./.1.% f s - - .X.X.X.X.XS l l c k .X.X.X.X.X.X6 r < , & = @.U.p.F..X.X.X.X.X.X.X.X.X.X.X.X.X.X",
".X.X.X.X.X.X.X.X.X.X.X.X.X.X.Xj.|.].f.4 o./ w 6 6 R ! ^  .! r u Z 6 { K.J.K.e.^ r 3 t g 6 l t.g.y..X.X.X.X.X.X.X.X.X.X.X.X.X.X.X",
".X.X.X.X.X.X.X.X.X.X.X.X.X.X.Xt.s.d.L F B.+.$ 5   L.{.Q.#.#.=.w.S.0.G.'.^.^.'.Q./ 3 t h l t.N.B.u..X.X.X.X.X.X.X.X.X.X.X.X.X.X.X",
".X.X.X.X.X.X.X.X.X.X.X.X.X.X.XF I L c U _.x.O t 8 $.L.L.=.=.v.C.V.a. .J.L.T.Y.v.C ..@.d k y.d.9.v M .X.X.X.X.X.X.X.X.X.X.X.X.X.X",
".X.X.X.X.X.X.X.X.X.X.X.X.X.X.X6 L x D O.!.=.& u e #.H.L.e.w.b.).d.P K { *.*...^ g  ...h } U x k ! W t .X.X.X.X.X.X.X.X.X.X.X.X.X",
".X.X.X.X.X.X.X.X.X.X.X.X.X.X.Xu D m X.e.=.) V C 3 R.{.~.z.e.R.`.! E $.G.G.*. .] h C C C e.X.v K e.[   .X.X.X.X.X.X.X.X.X.X.X.X.X",
".X.X.X.X.X.X.X.X.X.X.X.X.Xo C ..] *.*.| C %.e.*.w E.~.z.r.E.'.`.@.@.L.'.`.`.R./ X T.P.; r.e.w.w.e.) . .X.X.X.X.X.X.X.X.X.X.X.X.X",
".X.X.X.X.X.X.X.X.X.X.X.X.X. t ^ ..#.#.] w #.G.e.u *.e.%.e.e.e.v.M.c.G.R.'.{.E.| Y.~.~.n.x.e.e.z.Z.+.  .X.X.X.X.X.X.X.X.X.X.X.X.X",
".X.X.X.X.X.X.X.X.X.X.X.X.X) ) u / / _ | g #.e. .q C ] ..q.E * X.A.b.&.*.E.Q.L. .!.'.W.n.q.w.w.q.m.0.W .X.X.X.X.X.X.X.X.X.X.X.X.X",
".X.X.X.X.X.X.X.X.X.X.X.X.XH.=.w g w Q ] u $.*.9 3 ! ..] ] E j o.B.b.$.{ *.r.#.] #.!.Y.@ ] q.*./ 7 =.H..X.X.X.X.X.X.X.X.X.X.X.X.X",
".X.X.X.X.X.X.X.X.X.X.X.X.XG.=.1 g g h C 1 *.$.> 6 t g g h u R o.A.c.[ { .. .] h q r.r.u { @.] g w w.z..X.X.X.X.X.X.X.X.X.X.X.X.X",
".X.X.X.X.X.X.X.X.X.X.X.X.X) ^ 3 u h u 8 1 ! ^ 1 O ] $.%.h w g } A.l.Q @.] | ! 6 * Q / g Q Q C g u ) ) .X.X.X.X.X.X.X.X.X.X.X.X.X",
".X.X.X.X.X.X.X.X.X.X.X.X.X.Xo q g g q 3 q 8 3 8 g $.H.e./ y F y.n.T N ) #.$.] 3 6 6 q u u w r u u 1 .X.X.X.X.X.X.X.X.X.X.X.X.X.X",
".X.X.X.X.X.X.X.X.X.X.X.X.X.X.Xq u q 5 8 g q 3 t ] *.e.w.%.j T h.b z A E =.z.#.g 8 6 5 6 g q 6 3 6 .X.X.X.X.X.X.X.X.X.X.X.X.X.X.X",
".X.X.X.X.X.X.X.X.X.X.X.X.X.X.X.X8 6 6 6 8 y g g g ] o. . .{ | X.| ] [ [  . . .] V 8 6 6 8 8 9 6 .X.X.X.X.X.X.X.X.X.X.X.X.X.X.X.X",
".X.X.X.X.X.X.X.X.X.X.X.X.X.X.X.X1 4 6 8 3 t V g u C Q E Q ! E j 7 ) %. ...| ..{ C 8 5 6 6 3 8 w .X.X.X.X.X.X.X.X.X.X.X.X.X.X.X.X",
".X.X.X.X.X.X.X.X.X.X.X.X.X.X.X.XC g 8 6 3 u h g g u q q 8 u 8 0 +.} ! / / { [ / h t 8 6 6 6 h ! .X.X.X.X.X.X.X.X.X.X.X.X.X.X.X.X",
".X.X.X.X.X.X.X.X.X.X.X.X.X.X.Xu ..! q 6 6 t g g g r 3 6 6 u 8 Z A.8.+ u u / ) e g g u 6 6 t ^ ..u .X.X.X.X.X.X.X.X.X.X.X.X.X.X.X",
".X.X.X.X.X.X.X.X.X.X.X.X.X.X.Xy ..^ q 5 6 6 t g q 6 6 8 t h 4 Z S.8.$ u g h h h h t 6 8 u t ! ..u .X.X.X.X.X.X.X.X.X.X.X.X.X.X.X",
".X.X.X.X.X.X.X.X.X.X.X.X.X.X.Xt C V g t 6 5 q g 8 3 3 t ) E e J A.l.Z ] _ h 9 w r 8 3 8 h g C R .X.X.X.X.X.X.X.X.X.X.X.X.X.X.X.X",
".X.X.X.X.X.X.X.X.X.X.X.X.X.X.X6 1 q g g 8 6 8 u 8 6 3 r ) C 0 J V.s.g ) ) g 1 6 6 6 6 8 t h t o .X.X.X.X.X.X.X.X.X.X.X.X.X.X.X.X",
".X.X.X.X.X.X.X.X.X.X.X.X.X.X.X.X6 6 q u 8 6 6 6 6 6 6 6 1 4 # M i.P + 1 3 6 6 6 6 6 6 6 3 u h .X.X.X.X.X.X.X.X.X.X.X.X.X.X.X.X.X",
".X.X.X.X.X.X.X.X.X.X.X.X.X.X.X.X6 8 6 6 6 6 6 6 8 6 6 8 6 6 6 q B w 4 6 6 6 6 6 6 6 8 6 6 r q .X.X.X.X.X.X.X.X.X.X.X.X.X.X.X.X.X",
".X.X.X.X.X.X.X.X.X.X.X.X.X.X.X.X.X6 3 2 3 6 8 6 6 6 6 6 6 6 6 6 # 4 8 6 8 6 6 9 6 6 6 2 4 6 .X.X.X.X.X.X.X.X.X.X.X.X.X.X.X.X.X.X",
".X.X.X.X.X.X.X.X.X.X.X.X.X.X.X.X.Xd B d M q 4 6 6 6 6 6 6 6 6 6 6 6 6 6 6 6 6 6 6 3 0 M B e .X.X.X.X.X.X.X.X.X.X.X.X.X.X.X.X.X.X",
".X.X.X.X.X.X.X.X.X.X.X.X.X.X.X.X.XD m b b M 2 0 6 0 6 8 6 6 6 6 6 9 6 8 8 6 6 8 6 2 M b H N .X.X.X.X.X.X.X.X.X.X.X.X.X.X.X.X.X.X",
".X.X.X.X.X.X.X.X.X.X.X.X.X.X.X.X.X.XA H b M 6 u u g t 3 6 6 6 6 8 8 6 6 6 4 6 6 6 2 M b H S .X.X.X.X.X.X.X.X.X.X.X.X.X.X.X.X.X.X",
".X.X.X.X.X.X.X.X.X.X.X.X.X.X.X.X.X.X.XA A q y V V V h u u r 6 q r 6 8 8 u u u u 6 6 q D N .X.X.X.X.X.X.X.X.X.X.X.X.X.X.X.X.X.X.X",
".X.X.X.X.X.X.X.X.X.X.X.X.X.X.X.X.X.X.X.X.X6 q u t u y u h r 6 .X.X6 8 8 u u u u q 6 7 .X.X.X.X.X.X.X.X.X.X.X.X.X.X.X.X.X.X.X.X.X",
".X.X.X.X.X.X.X.X.X.X.X.X.X.X.X.X.X.X.X.X.X.X8 6 6 6 6 6 6 6 6 .X.X6 6 6 6 6 3 6 6 q .X.X.X.X.X.X.X.X.X.X.X.X.X.X.X.X.X.X.X.X.X.X",
".X.X.X.X.X.X.X.X.X.X.X.X.X.X.X.X.X.X.X.X.X.X.X.X.X.X.X.X.X.X.X.X.X.X.X.X.X.X.X.X.X.X.X.X.X.X.X.X.X.X.X.X.X.X.X.X.X.X.X.X.X.X.X.X",
".X.X.X.X.X.X.X.X.X.X.X.X.X.X.X.X.X.X.X.X.X.X.X.X.X.X.X.X.X.X.X.X.X.X.X.X.X.X.X.X.X.X.X.X.X.X.X.X.X.X.X.X.X.X.X.X.X.X.X.X.X.X.X.X",
".X.X.X.X.X.X.X.X.X.X.X.X.X.X.X.X.X.X.X.X.X.X.X.X.X.X.X.X.X.X.X.X.X.X.X.X.X.X.X.X.X.X.X.X.X.X.X.X.X.X.X.X.X.X.X.X.X.X.X.X.X.X.X.X",
".X.X.X.X.X.X.X.X.X.X.X.X.X.X.X.X.X.X.X.X.X.X.X.X.X.X.X.X.X.X.X.X.X.X.X.X.X.X.X.X.X.X.X.X.X.X.X.X.X.X.X.X.X.X.X.X.X.X.X.X.X.X.X.X",
".X.X.X.X.X.X.X.X.X.X.X.X.X.X.X.X.X.X.X.X.X.X.X.X.X.X.X.X.X.X.X.X.X.X.X.X.X.X.X.X.X.X.X.X.X.X.X.X.X.X.X.X.X.X.X.X.X.X.X.X.X.X.X.X",
".X.X.X.X.X.X.X.X.X.X.X.X.X.X.X.X.X.X.X.X.X.X.X.X.X.X.X.X.X.X.X.X.X.X.X.X.X.X.X.X.X.X.X.X.X.X.X.X.X.X.X.X.X.X.X.X.X.X.X.X.X.X.X.X",
".X.X.X.X.X.X.X.X.X.X.X.X.X.X.X.X.X.X.X.X.X.X.X.X.X.X.X.X.X.X.X.X.X.X.X.X.X.X.X.X.X.X.X.X.X.X.X.X.X.X.X.X.X.X.X.X.X.X.X.X.X.X.X.X",
".X.X.X.X.X.X.X.X.X.X.X.X.X.X.X.X.X.X.X.X.X.X.X.X.X.X.X.X.X.X.X.X.X.X.X.X.X.X.X.X.X.X.X.X.X.X.X.X.X.X.X.X.X.X.X.X.X.X.X.X.X.X.X.X",
".X.X.X.X.X.X.X.X.X.X.X.X.X.X.X.X.X.X.X.X.X.X.X.X.X.X.X.X.X.X.X.X.X.X.X.X.X.X.X.X.X.X.X.X.X.X.X.X.X.X.X.X.X.X.X.X.X.X.X.X.X.X.X.X",
".X.X.X.X.X.X.X.X.X.X.X.X.X.X.X.X.X.X.X.X.X.X.X.X.X.X.X.X.X.X.X.X.X.X.X.X.X.X.X.X.X.X.X.X.X.X.X.X.X.X.X.X.X.X.X.X.X.X.X.X.X.X.X.X",
".X.X.X.X.X.X.X.X.X.X.X.X.X.X.X.X.X.X.X.X.X.X.X.X.X.X.X.X.X.X.X.X.X.X.X.X.X.X.X.X.X.X.X.X.X.X.X.X.X.X.X.X.X.X.X.X.X.X.X.X.X.X.X.X",
".X.X.X.X.X.X.X.X.X.X.X.X.X.X.X.X.X.X.X.X.X.X.X.X.X.X.X.X.X.X.X.X.X.X.X.X.X.X.X.X.X.X.X.X.X.X.X.X.X.X.X.X.X.X.X.X.X.X.X.X.X.X.X.X",
".X.X.X.X.X.X.X.X.X.X.X.X.X.X.X.X.X.X.X.X.X.X.X.X.X.X.X.X.X.X.X.X.X.X.X.X.X.X.X.X.X.X.X.X.X.X.X.X.X.X.X.X.X.X.X.X.X.X.X.X.X.X.X.X",
".X.X.X.X.X.X.X.X.X.X.X.X.X.X.X.X.X.X.X.X.X.X.X.X.X.X.X.X.X.X.X.X.X.X.X.X.X.X.X.X.X.X.X.X.X.X.X.X.X.X.X.X.X.X.X.X.X.X.X.X.X.X.X.X",
".X.X.X.X.X.X.X.X.X.X.X.X.X.X.X.X.X.X.X.X.X.X.X.X.X.X.X.X.X.X.X.X.X.X.X.X.X.X.X.X.X.X.X.X.X.X.X.X.X.X.X.X.X.X.X.X.X.X.X.X.X.X.X.X",
".X.X.X.X.X.X.X.X.X.X.X.X.X.X.X.X.X.X.X.X.X.X.X.X.X.X.X.X.X.X.X.X.X.X.X.X.X.X.X.X.X.X.X.X.X.X.X.X.X.X.X.X.X.X.X.X.X.X.X.X.X.X.X.X",
".X.X.X.X.X.X.X.X.X.X.X.X.X.X.X.X.X.X.X.X.X.X.X.X.X.X.X.X.X.X.X.X.X.X.X.X.X.X.X.X.X.X.X.X.X.X.X.X.X.X.X.X.X.X.X.X.X.X.X.X.X.X.X.X",
".X.X.X.X.X.X.X.X.X.X.X.X.X.X.X.X.X.X.X.X.X.X.X.X.X.X.X.X.X.X.X.X.X.X.X.X.X.X.X.X.X.X.X.X.X.X.X.X.X.X.X.X.X.X.X.X.X.X.X.X.X.X.X.X",
".X.X.X.X.X.X.X.X.X.X.X.X.X.X.X.X.X.X.X.X.X.X.X.X.X.X.X.X.X.X.X.X.X.X.X.X.X.X.X.X.X.X.X.X.X.X.X.X.X.X.X.X.X.X.X.X.X.X.X.X.X.X.X.X",
".X.X.X.X.X.X.X.X.X.X.X.X.X.X.X.X.X.X.X.X.X.X.X.X.X.X.X.X.X.X.X.X.X.X.X.X.X.X.X.X.X.X.X.X.X.X.X.X.X.X.X.X.X.X.X.X.X.X.X.X.X.X.X.X",
".X.X.X.X.X.X.X.X.X.X.X.X.X.X.X.X.X.X.X.X.X.X.X.X.X.X.X.X.X.X.X.X.X.X.X.X.X.X.X.X.X.X.X.X.X.X.X.X.X.X.X.X.X.X.X.X.X.X.X.X.X.X.X.X",
".X.X.X.X.X.X.X.X.X.X.X.X.X.X.X.X.X.X.X.X.X.X.X.X.X.X.X.X.X.X.X.X.X.X.X.X.X.X.X.X.X.X.X.X.X.X.X.X.X.X.X.X.X.X.X.X.X.X.X.X.X.X.X.X",
".X.X.X.X.X.X.X.X.X.X.X.X.X.X.X.X.X.X.X.X.X.X.X.X.X.X.X.X.X.X.X.X.X.X.X.X.X.X.X.X.X.X.X.X.X.X.X.X.X.X.X.X.X.X.X.X.X.X.X.X.X.X.X.X",
".X.X.X.X.X.X.X.X.X.X.X.X.X.X.X.X.X.X.X.X.X.X.X.X.X.X.X.X.X.X.X.X.X.X.X.X.X.X.X.X.X.X.X.X.X.X.X.X.X.X.X.X.X.X.X.X.X.X.X.X.X.X.X.X"
};
