/* XPM */
static char *result[] = {
/* columns rows colors chars-per-pixel */
"64 64 177 2 ",
"   c black",
".  c #000E00",
"X  c #1F0000",
"o  c #161C1C",
"O  c #00221C",
"+  c #2B331E",
"@  c #031F23",
"#  c #00192C",
"$  c #001C31",
"%  c #002724",
"&  c #002D28",
"*  c #002E29",
"=  c #002E2B",
"-  c #1D252C",
";  c #00302C",
":  c #19362C",
">  c #00283B",
",  c #003131",
"<  c #003432",
"1  c #003135",
"2  c #00363D",
"3  c #00393F",
"4  c #003F3C",
"5  c #003E3D",
"6  c #222124",
"7  c #292A2C",
"8  c #29292E",
"9  c #2A2B2E",
"0  c #32272A",
"q  c #39252B",
"w  c #353924",
"e  c #30332E",
"r  c #373E2E",
"t  c #3A3F30",
"y  c #33373D",
"u  c #3A353A",
"i  c #33393F",
"p  c #00403D",
"a  c #00403F",
"s  c #38493E",
"d  c #7F5A26",
"f  c #78583A",
"g  c #003D41",
"h  c #003F4A",
"j  c #113444",
"k  c #363C42",
"l  c #373E44",
"z  c #373F47",
"x  c #3C3F44",
"c  c #014241",
"v  c #004342",
"b  c #074342",
"n  c #004344",
"m  c #034544",
"M  c #0A4441",
"N  c #00404C",
"B  c #02474C",
"V  c #00454E",
"C  c #00474F",
"Z  c #004B49",
"A  c #00494B",
"S  c #054A4E",
"D  c #074B4F",
"F  c #0A494A",
"G  c #0C4A4C",
"H  c #004E56",
"J  c #0B4F50",
"K  c #0E4E53",
"L  c #004F58",
"P  c #0D5456",
"I  c #165050",
"U  c #125256",
"Y  c #1A5455",
"T  c #17555A",
"R  c #18555B",
"E  c #18565B",
"W  c #19565B",
"Q  c #1F5659",
"!  c #2B5353",
"~  c #3C5551",
"^  c #1F5F64",
"/  c #225F65",
"(  c #2D6166",
")  c #396468",
"_  c #3B686E",
"`  c #3D7075",
"'  c #474444",
"]  c #454A50",
"[  c #524C54",
"{  c #415957",
"}  c #425E5D",
"|  c #57525A",
" . c #4D645C",
".. c #5F6A5C",
"X. c #7E6048",
"o. c #636C5C",
"O. c #535A62",
"+. c #545A61",
"@. c #4B797C",
"#. c #6B7970",
"$. c #7C747F",
"%. c #805C37",
"&. c #805E3E",
"*. c #80764E",
"=. c #8F7E4E",
"-. c #8F7E4F",
";. c #827856",
":. c #AA7F4B",
">. c #9A8555",
",. c #9F8755",
"<. c #B98447",
"1. c #B6854E",
"2. c #B8854C",
"3. c #C18F4E",
"4. c #C2904F",
"5. c #CD924F",
"6. c #D0944E",
"7. c #D1944F",
"8. c #C18D52",
"9. c #C39150",
"0. c #D49854",
"q. c #D99A51",
"w. c #DB9B51",
"e. c #DF9E52",
"r. c #E09C52",
"t. c #E19D52",
"y. c #E09E53",
"u. c #E19F53",
"i. c #E7A052",
"p. c #E7A354",
"a. c #E9A354",
"s. c #E8A455",
"d. c #EAA455",
"f. c #EEA756",
"g. c #F0A554",
"h. c #F3A956",
"j. c #2E7D84",
"k. c #27828B",
"l. c #3B8087",
"z. c #3F828A",
"x. c #408087",
"c. c #44858B",
"v. c #49868B",
"b. c #4A898E",
"n. c #47939B",
"m. c #618F94",
"M. c #469BA5",
"N. c #4D9EA6",
"B. c #539CA5",
"V. c #699EA4",
"C. c #4FA2AB",
"Z. c #5DA3AA",
"A. c #5AA5AC",
"S. c #58A8B0",
"D. c #5BA8B1",
"F. c #5CABB4",
"G. c #6FA0A5",
"H. c #62A8AF",
"J. c #75A8AC",
"K. c #63B0B9",
"L. c #6DB6BF",
"P. c #72B7BF",
"I. c #67B9C2",
"U. c #74C1CA",
"Y. c #79C5CE",
"T. c #7FC7D0",
"R. c #81C3CB",
"E. c #8FC7CE",
"W. c #90C2C7",
"Q. c #8BCFD8",
"!. c #96CDD2",
"~. c #9FDFE7",
"^. c #AAE6ED",
"/. c #ACE8EE",
"(. c #AEE9F0",
"). c #B1EDF5",
"_. c None",
/* pixels */
"_._._._._._._._._._._._._._._._._._._._._._._._._._._._._._._._._._._._._._._._._._._._._._._._._._._._._._._._._._._._._._._._.",
"_._._._._._._._._._._._._._._._._._._._._._._._._._._._._._._._._._._._._._._._._._._._._._._._._._._._._._._._._._._._._._._._.",
"_._._._._._._._._._._._._._._._._._._._._._._._._._._._._._._._._._._._._._._._._._._._._._._._._._._._._._._._._._._._._._._._.",
"_._._._._._._._._._._._._._._._._._._._._._._._._._._._._._._._._._._._._._._._._._._._._._._._._._._._._._._._._._._._._._._._.",
"_._._._._._._._._._._._._._._._._._._._._._._._._._._._._._._._._._._._._._._._._._._._._._._._._._._._._._._._._._._._._._._._.",
"_._._._._._._._._._._._._._._._._._._._._._._._._._._._._._._._._._._._._._._._._._._._._._._._._._._._._._._._._._._._._._._._.",
"_._._._._._._._._._._._._._._._._._._._._._._._._._._._._._._._._._._._._._._._._._._._._._._._._._._._._._._._._._._._._._._._.",
"_._._._._._._._._._._._._._._._._._._._._._._._._._._._._._._._._._._._._._._._._._._._._._._._._._._._._._._._._._._._._._._._.",
"_._._._._._._._._._._._._._._._._._._._._._._._._._._._._._._._._._._._._._._._._._._._._._._._._._._._._._._._._._._._._._._._.",
"_._._._._._._._._._._._._._._._._._._._._._._._._._._._._._._._._._._._._._._._._._._._._._._._._._._._._._._._._._._._._._._._.",
"_._._._._._._._._._._._._._._._._._._._._._._._._._._._._._._._._._._._._._._._._._._._._._._._._._._._._._._._._._._._._._._._.",
"_._._._._._._._._._._._._._._._._._._._._._._._._._._._._._._._._._._._._._._._._._._._._._._._._._._._._._._._._._._._._._._._.",
"_._._._._._._._._._._._._._._._._._._._._._._._._._._._._._._._._._._._._._._._._._._._._._._._._._._._._._._._._._._._._._._._.",
"_._._._._._._._._._._._._._._._._._._._._._._._._._._._._._._._._._._._._._._._._._._._._._._._._._._._._._._._._._._._._._._._.",
"_._._._._._._._._._._._._._._._._._._._._._._._._._._._._._._._._._._._._._._._._._._._._._._._._._._._._._._._._._._._._._._._.",
"_._._._._._._._._._._._._._._._._._._._._._._._._._._._._._._._._._._._._._._._._._._._._._._._._._._._._._._._._._._._._._._._.",
"_._._._._._._._._._._._._._._._._._._._._._._._._._._._._._._._._._._._._._._._._._._._._._._._._._._._._._._._._._._._._._._._.",
"_._._._._._._._._._._._._._._._._._._._._._._._._._._._._._._._._._._._._._._._._._._._._._._._._._._._._._._._._._._._._._._._.",
"_._._._._._._._._._._._._._._._._._._._._._._._._._._._._._._._._._._._._._._._._._._._._._._._._._._._._._._._._._._._._._._._.",
"_._._._._._._._._._._._._._._._._._._._._._._._._._._._._._._._._._._._._._._._._._._._._._._._._._._._._._._._._._._._._._._._.",
"_._._._._._._._._._._._._._._._._._._._._._._._._._._._._._._._._._._._._._._._._._._._._._._._._._._._._._._._._._._._._._._._.",
"_._._._._._._._._._._._._._._._._._._._._._._._._._._._._._._._._._._._._._._._._._._._._._._._._._._._._._._._._._._._._._._./.",
"_._._._._._._._._._._._._._._._._._._._._._._._._._._._._._._._._._._._._._._._._._._._._._._._._._._._._._._._._._._._._._._.).",
"_._._._._._._._._._._._._._._._._._._._._._._._._._._._._._._._._._._._._._._._._._._._._._._._._._._._._._._._._._._._._._._._.",
"_._._._._._._._._._._._._._._._._._._._._._._._._._._._._._._._._._._._._._._._._._._._._._._._._._._._._._._._._._._._._._._.6 ",
"_._._._._._._._._._._._._._._._._._._._._._._._._._._._._._._._._._._._._._._._._._._._._._._._._._._._._._._._._._._._._._.x +.",
"_._._._._._._._._._._._._._._._._._._._._._._._._._._._._._._._._._._._._._._._._._._._._._._._._._._._._._._._._._._._._.- ] O.",
"_._._._._._._._._._._._._._._._._._._._._._._._._._._._._._._._._._._._._._._._._._._._._._._._._._._._._._._._._._._._._.' z i ",
"_._._._._._._._._._._._._._._._._._._._._._._._._._._._._._._._._._._._._._._._._._._._._._._._._._._._._._._._._._._.y.a.X.j k ",
"_._._._._._._._._._._._._._._._._._._._._._._._._._._._._._._._._._._._._._._._._._._._._._._._._._._._._._._._._._.e.y.s.&.> l ",
"_._._._._._._._._._._._._._._._._._._._._._._._._._._._._._._._._._._._._._._._._._._._._._._._._._._._._._._._._._.u.p.f.%.$ y ",
"_._._._._._._._._._._._._._._._._._._._._._._._._._._._._._._._._._._._._._._._._._._._._._._._._._._._._._._._._._.w.7.q.f # 7 ",
"_._._._._._._._._._._._._._._._._._._._._._._._._._._._._._._._._._._._._._._._._._._._._._._._._._._._._._._._._._.<.: r e 8 9 ",
"_._._._._._._._._._._._._._._._._._._._._._._._._._._._._._._._._._._._._._._._._._._._._._._._._._._._._._._._._.d #.M.C._ X o ",
"_._._._._._._._._._._._._._._._._._._._._._._._._._._._._._._._._._._._._._._._._._._._._._._._._._._._._._._._._.  k.I.A.) q | ",
"_._._._._._._._._._._._._._._._._._._._._._._._._._._._._._._._._._._._._._._._._._._._._._._._._._._._._._._._._.  b.L.I   [ $.",
"_._._._._._._._._._._._._._._._._._._._._._._._._._._._._._._._._._._._._._._._._._._._._._._._._._._._._._._._._.  J.^.` @ 0 u ",
"_._._._._._._._._._._._._._._._._._._._._._._._._._._._._._._._._._._._._._._._._._._._._._._._._._._._._._._._._.O @.G.( V N h ",
"_._._._._._._._._._._._._._._._._._._._._._._._._._._._._._._._._._._._._._._._._._._._._._._._._._._._._._._._._.M n 2 L  .o...",
"_._._._._._._._._._._._._._._._._._._._._._._._._._._._._._._._._._._._._._._._._._._._._._._._._._._._._._._._._.5 A T Q ;.,.>.",
"_._._._._._._._._._._._._._._._._._._._._._._._._._._._._._._._._._._._._._._._._._._._._._._._._._._._._._._._._._._.Z *.-.=.=.",
"_._._._._._._._._._._._._._._._._._._._._._._._._._._._._._._._._._._._._._._._._._._._._._._._._._._._._._._._._._.5.:.3.9.4.4.",
"_._._._._._._._._._._._._._._._._._._._._._._._._._._._._._._._._._._._._._._._._._._._._._._._._._._._._._._._._._.d.h.g.i.r.t.",
"_._._._._._._._._._._._._._._._._._._._._._._._._._._._._._._._._._._._._._._._._._._._._._._._._._._._._._._._._._.6.7.0.8.1.2.",
"_._._._._._._._._._._._._._._._._._._._._._._._._._._._._._._._._._._._._._._._._._._._._._._._._._._._._._._._._.t w + { } ~ s ",
"_._._._._._._._._._._._._._._._._._._._._._._._._._._._._._._._._._._._._._._._._._._._._._._._._._._._._._._._.* j.P.E.^ C H 3 ",
"_._._._._._._._._._._._._._._._._._._._._._._._._._._._._._._._._._._._._._._._._._._._._._._._._._._._._._._._.; N.T.W.! % / l.",
"_._._._._._._._._._._._._._._._._._._._._._._._._._._._._._._._._._._._._._._._._._._._._._._._._._._._._._._._.& H.Z.= Y m v.U.",
"_._._._._._._._._._._._._._._._._._._._._._._._._._._._._._._._._._._._._._._._._._._._._._._._._._._._._._._._.. !.~.F.K.S.R.(.",
"_._._._._._._._._._._._._._._._._._._._._._._._._._._._._._._._._._._._._._._._._._._._._._._._._._._._._._._._.< m.V.z.x.D.Y.Q.",
"_._._._._._._._._._._._._._._._._._._._._._._._._._._._._._._._._._._._._._._._._._._._._._._._._._._._._._._._.b , 1 B g c.B.n.",
"_._._._._._._._._._._._._._._._._._._._._._._._._._._._._._._._._._._._._._._._._._._._._._._._._._._._._._._._.c v G W W K S D ",
"_._._._._._._._._._._._._._._._._._._._._._._._._._._._._._._._._._._._._._._._._._._._._._._._._._._._._._._._.a U W W W E R R ",
"_._._._._._._._._._._._._._._._._._._._._._._._._._._._._._._._._._._._._._._._._._._._._._._._._._._._._._._._._.F P J J J J J ",
"_._._._._._._._._._._._._._._._._._._._._._._._._._._._._._._._._._._._._._._._._._._._._._._._._._._._._._._._._._.p 4 4 4 4 4 ",
"_._._._._._._._._._._._._._._._._._._._._._._._._._._._._._._._._._._._._._._._._._._._._._._._._._._._._._._._._._._._._._._._.",
"_._._._._._._._._._._._._._._._._._._._._._._._._._._._._._._._._._._._._._._._._._._._._._._._._._._._._._._._._._._._._._._._.",
"_._._._._._._._._._._._._._._._._._._._._._._._._._._._._._._._._._._._._._._._._._._._._._._._._._._._._._._._._._._._._._._._.",
"_._._._._._._._._._._._._._._._._._._._._._._._._._._._._._._._._._._._._._._._._._._._._._._._._._._._._._._._._._._._._._._._.",
"_._._._._._._._._._._._._._._._._._._._._._._._._._._._._._._._._._._._._._._._._._._._._._._._._._._._._._._._._._._._._._._._.",
"_._._._._._._._._._._._._._._._._._._._._._._._._._._._._._._._._._._._._._._._._._._._._._._._._._._._._._._._._._._._._._._._.",
"_._._._._._._._._._._._._._._._._._._._._._._._._._._._._._._._._._._._._._._._._._._._._._._._._._._._._._._._._._._._._._._._.",
"_._._._._._._._._._._._._._._._._._._._._._._._._._._._._._._._._._._._._._._._._._._._._._._._._._._._._._._._._._._._._._._._.",
"_._._._._._._._._._._._._._._._._._._._._._._._._._._._._._._._._._._._._._._._._._._._._._._._._._._._._._._._._._._._._._._._."
};
