/* XPM */
static char *result[] = {
/* columns rows colors chars-per-pixel */
"64 64 198 2 ",
"   c black",
".  c #00050D",
"X  c #0E0C0D",
"o  c #160506",
"O  c #000013",
"+  c #051418",
"@  c #141213",
"#  c #1C1B1D",
"$  c #211D1E",
"%  c #25171D",
"&  c #000D2A",
"*  c #011C2A",
"=  c #1D1F21",
"-  c #111C23",
";  c #000F30",
":  c #0E272C",
">  c #1D2024",
",  c #1B2329",
"<  c #162429",
"1  c #003836",
"2  c #1D3435",
"3  c #1F3B3E",
"4  c #232325",
"5  c #2B2225",
"6  c #25262A",
"7  c #2A2728",
"8  c #27292C",
"9  c #2A2B2E",
"0  c #312A2B",
"q  c #342127",
"w  c #36302F",
"e  c #242C31",
"r  c #2D2E31",
"t  c #213335",
"y  c #2D3135",
"u  c #2D343A",
"i  c #233A3D",
"p  c #2A3C3F",
"a  c #303236",
"s  c #32353A",
"d  c #33393E",
"f  c #3F323B",
"g  c #453233",
"h  c #534438",
"j  c #614933",
"k  c #725438",
"l  c #002F41",
"z  c #1F3C41",
"x  c #243A42",
"c  c #353C43",
"v  c #393E43",
"b  c #004443",
"n  c #0A4748",
"m  c #17494D",
"M  c #024D51",
"N  c #164D51",
"B  c #025457",
"V  c #005B5B",
"C  c #05565A",
"Z  c #165257",
"A  c #14555A",
"S  c #1A545A",
"D  c #18555B",
"F  c #244145",
"G  c #24484B",
"H  c #3E4147",
"J  c #3E444A",
"K  c #35454A",
"L  c #2A4F55",
"P  c #2D5458",
"I  c #22545A",
"U  c #33545B",
"Y  c #3B525A",
"T  c #3B4856",
"R  c #255E63",
"E  c #3C5E60",
"W  c #006C69",
"Q  c #006363",
"!  c #00716E",
"~  c #027573",
"^  c #007C79",
"/  c #0D7A78",
"(  c #1C7B7C",
")  c #3A6669",
"_  c #41464C",
"`  c #43484F",
"'  c #444B52",
"]  c #4A4E54",
"[  c #4E4751",
"{  c #4A5057",
"}  c #4D535A",
"|  c #44565D",
" . c #53565D",
".. c #545057",
"X. c #4D5D64",
"o. c #495B63",
"O. c #555B63",
"+. c #595D65",
"@. c #585760",
"#. c #54646B",
"$. c #5C636B",
"%. c #5C6067",
"&. c #4C6970",
"*. c #596B72",
"=. c #587479",
"-. c #4D666C",
";. c #62656D",
":. c #63686F",
">. c #6A6568",
",. c #646B73",
"<. c #6A6E77",
"1. c #6A6770",
"2. c #706C76",
"3. c #627279",
"4. c #6B7179",
"5. c #71767E",
"6. c #72787F",
"7. c #805F3C",
"8. c #86623D",
"9. c #846647",
"0. c #956E41",
"q. c #9D7446",
"w. c #977148",
"e. c #A57946",
"r. c #A67D4E",
"t. c #806E60",
"y. c #BA874C",
"u. c #C08B4D",
"i. c #D59853",
"p. c #4A7980",
"a. c #6C7C83",
"s. c #727780",
"d. c #747A82",
"f. c #797D86",
"g. c #7B7F89",
"h. c #008987",
"j. c #009D9A",
"k. c #168286",
"l. c #2E898A",
"z. c #238A88",
"x. c #368284",
"c. c #359091",
"v. c #00AFAD",
"b. c #22A3A1",
"n. c #538082",
"m. c #5C999E",
"M. c #4B8689",
"N. c #67878C",
"B. c #7C838C",
"V. c #77828A",
"C. c #7C8991",
"Z. c #758D94",
"A. c #67969A",
"S. c #739095",
"D. c #5E9BA3",
"F. c #6A9BA0",
"G. c #56B5BA",
"H. c #75A6AB",
"J. c #6CABB1",
"K. c #6EB9C2",
"L. c #6CC9CA",
"P. c #80868F",
"I. c #808690",
"U. c #848A93",
"Y. c #8E959E",
"T. c #8C9FA6",
"R. c #9297A1",
"E. c #949BA4",
"W. c #939EAA",
"Q. c #8DA2A9",
"!. c #96A2AB",
"~. c #9CA3AD",
"^. c #8DAFB6",
"/. c #9EA6B0",
"(. c #9EAEB7",
"). c #8AB0B8",
"_. c #94B3BA",
"`. c #A4ABB5",
"'. c #AAAFB7",
"]. c #ACB4BE",
"[. c #A5B0B9",
"{. c #B2B4BF",
"}. c #B1A9A6",
"|. c #AFB7C1",
" X c #AFB9C2",
".X c #B3BBC5",
"XX c #B7BFC9",
"oX c #BABFCA",
"OX c #B0B7C1",
"+X c #8ED8DD",
"@X c #93D0D6",
"#X c #96D5DB",
"$X c #99C4CB",
"%X c #B9C1CB",
"&X c #AFCCD5",
"*X c #BEC7D2",
"=X c #A7E1E8",
"-X c None",
/* pixels */
"-X-X-X-X-X-X-X-X-X-X-X-X-X-X-X-X-X-X-X-X-X-X-X-X-X-X-X-X-X-X-X-X-X-X-X-X-X-X-X-X-X-X-X-X-X-X-X-X-X-X-X-X-X-X-X-X-X-X-X-X-X-X-X-X",
"-X-X-X-X-X-X-X-X-X-X-X-X-X-X-X-X-X-X-X-X-X-X-X-X-X-X-X-X-X-X-X-X-X-X-X-X-X-X-X-X-X-X-X-X-X-X-X-X-X-X-X-X-X-X-X-X-X-X-X-X-X-X-X-X",
"-X-X-X-X-X-X-X-X-X-X-X-X-X-X-X-X-X-X-X-X-X-X-X-X-X-X-X-X-X-X-X-X-X-X-X-X-X-X-X-X-X-X-X-X-X-X-X-X-X-X-X-X-X-X-X-X-X-X-X-X-X-X-X-X",
"-X-X-X-X-X-X-X-X-X-X-X-X-X-X-X-X-X-X-X-X-X-X-X-X-X-X-X-X-X-X-X-X-X-X-X-X-X-X-X-X-X-X-X-X-X-X-X-X-X-X-X-X-X-X-X-X-X-X-X-X-X-X-X-X",
"-X-X-X-X-X-X-X-X-X-X-X-X-X-X-X-X-X-X-X-X-X-X-X-X-X-X-X-X-X-X-X-X-X-X-X-X-X-X-X-X-X-X-X-X-X-X-X-X-X-X-X-X-X-X-X-X-X-X-X-X-X-X-X-X",
"-X-X-X-X-X-X-X-X-X-X-X-X-X-X-X-X-X-X-X-X-X-X-X-X-X-X-X-X-X-X-X-X-X-X-X-X-X-X-X-X-X-X-X-X-X-X-X-X-X-X-X-X-X-X-X-X-X-X-X-X-X-X-X-X",
"-X-X-X-X-X-X-X-X-X-X-X-X-X-X-X-X-X-X-X-X-X-X-X-X-X-X-X-X-X-X-X-X-X-X-X-X-X-X-X-X-X-X-X-X-X-X-X-X-X-X-X-X-X-X-X-X-X-X-X-X-X-X-X-X",
"-X-X-X-X-X-X-X-X-X-X-X-X-X-X-X-X-X-X-X-X-X-X-X-X-X-X-X-X-X-X-X-X-X-X-X-X-X-X-X-X-X-X-X-X-X-X-X-X-X-X-X-X-X-X-X-X-X-X-X-X-X-X-X-X",
"-X-X-X-X-X-X-X-X-X-X-X-X-X-X-X-X-X-X-X-X-X-X-X-X-X-X-X-X-X-X-X-X-X-X-X-X-X-X-X-X-X-X-X-X-X-X-X-X-X-X-X-X-X-X-X-X-X-X-X-X-X-X-X-X",
"-X-X-X-X-X-X-X-X-X-X-X-X-X-X-X-X-X-X-X-X-X-X-X-X-X-X-X-X-X-X-X-X-X-X-X-X-X-X-X-X-X-X-X-X-X-X-X-X-X-X-X-X-X-X-X-X-X-X-X-X-X-X-X-X",
"-X-X-X-X-X-X-X-X-X-X-X-X-X-X-X-X-X-X-X-X-X-X-X-X-X-X-X-X-X-X-X-X-X-X-X-X-X-X-X-X-X-X-X-X-X-X-X-X-X-X-X-X-X-X-X-X-X-X-X-X-X-X-X-X",
"-X-X-X-X-X-X-X-X-X-X-X-X-X-X-X-X-X-X-X-X-X-X-X-X-X-X-X-X-X-X-X-X-X-X-X-X-X-X-X-X-X-X-X-X-X-X-X-X-X-X-X-X-X-X-X-X-X-X-X-X-X-X-X-X",
"-X-X-X-X-X-X-X-X-X^ ^ -X-X-X-X-X-X-X-X-X-X-X-X-X-X-X-X-X-X-X-X-X-X-X-X-X-X-X-X-X-X-X-X-X-X-X-X-X-X-X-X-X-X-X-X-X-X-X-X-X-X-X-X-X",
"-X-X-X-X-X-X-X-X-X~ ~ -X-X-X-X-X-X-X-X-X-X-X-X-X-X-X-X-X-X-X-X-X-X-X-X-X-X-X-X-X-X-X-X-X-X-X-X-X-X-X-X-X-X-X-X-X-X-X-X-X-X-X-X-X",
"-X-X-X-X-X-X-X-X-Xc.c.-X-X-X-X-X-X-X-X-X-X-X-X-X-X-X-X-X-X-X-X-X-X-X-X-X-X-X-X-X-X-X-X-X-X-X-X-X-X-X-X-X-X-X-X-X-X-X-X-X-X-X-X-X",
"-X-X-X-X-X-X-X-X-XK.K.-X-X-X-X-X-X-X-X-X-X-X-X-X-X-X-X-X-X-X-X-X-X-X-X-X-X-X-X-X-X-X-X-X-X-X-X-X-X-X-X-X-X-X-X-X-X-X-X-X-X-X-X-X",
"-X-X-X-X-X-X-X-X~ #X#XW -X-X-X-X-X-X-X-X-X-X-X-X-X-X-X-X-X-X-X-X-X-X-X-X-X-X-X-X-X-X-X-X-X-X-X-X-X-X-X-X-X-X-X-X-X-X-X-X-X-X-X-X",
"-X-X-X-X-X-X-X+ b N.A.) c X -X-X-X-X-X-X-X-X-X-X-X-X-X-X-X-X-X-X-X-X-X-X-X-X-X-X-X-X-X-X-X-X-X-X-X-X-X-X-X-X-X-X-X-X-X-X-X-X-X-X",
"-X-X-X-X-X-X_ +.[ g [ :.O.O._ -X-X-X-X-X-X-X-X-X-X-X-X-X-X-X-X-X-X-X-X-X-X-X-X-X-X-X-X-X-X-X-X-X-X-X-X-X-X-X-X-X-X-X-X-X-X-X-X-X",
"-X-X-X-X9 9 %.B.I.I.I.I.I.U.5.t ] -X-X-X-X-X-X-X-X-X-X-X-X-X-X-X-X-X-X-X-X-X-X-X-X-X-X-X-X-X-X-X-X-X-X-X-X-X-X-X-X-X-X-X-X-X-X-X",
"-X-X-X-X@ :.f.B.[.OX|.].]..XQ./ [.B.c -X-X-X-X-X-X-X-X-X-X-X-X-X-X-X-X-X-X-X-X-X-X-X-X-X-X-X-X-X-X-X-X-X-X-X-X-X-X-X-X-X-X-X-X-X",
"-X-X$.+.} :.4.C.OX`.~.XXXXT.n.N..X|.U., -X-X-X-X-X-X-X-X-X-X-X-X-X-X-X-X-X-X-X-X-X-X-X-X-X-X-X-X-X-X-X-X-X-X-X-X-X-X-X-X-X-X-X-X",
"-X&.1.;. ._ O.B.~.g.g.`._.J.A.f.].*X~.+ -X-X-X-X-X-X-X-X-X-X-X-X-X-X-X-X-X-X-X-X-X-X-X-X-X-X-X-X-X-X-X-X-X-X-X-X-X-X-X-X-X-X-X-X",
"v.M.$.&.J _ :.P.B.:.,.Z.j.+X$X@.`..XR.@ r -X-X-X-X-X-X-X-X-X-X-X-X-X-X-X-X-X-X-X-X-X-X-X-X-X-X-X-X-X-X-X-X-X-X-X-X-X-X-X-X-X-X-X",
": D.G.b.a.~.|.].OX3.A.=Xc.) ' u ,.<.*. .s -X-X-X-X-X-X-X-X-X-X-X-X-X-X-X-X-X-X-X-X-X-X-X-X-X-X-X-X-X-X-X-X-X-X-X-X-X-X-X-X-X-X-X",
"1.=.k.k.V.s.Y..X%Xd.l.L.z.1 #.R.] ' $.,.X -X-X-X-X-X-X-X-X-X-X-X-X-X-X-X-X-X-X-X-X-X-X-X-X-X-X-X-X-X-X-X-X-X-X-X-X-X-X-X-X-X-X-X",
"B.,.U Y ,.' f..X`.3.Q h.! =.!..X] { V.R.V.+.-X-X-X-X-X-X-X-X-X-X-X-X-X-X-X-X-X-X-X-X-X-X-X-X-X-X-X-X-X-X-X-X-X-X-X-X-X-X-X-X-X-X",
"d.f.6. .u $.E.OXU.#.S P M W.XX`.} O.R.XX%XU.  -X-X-X-X-X-X-X-X-X-X-X-X-X-X-X-X-X-X-X-X-X-X-X-X-X-X-X-X-X-X-X-X-X-X-X-X-X-X-X-X-X",
"$.:.$.%.c $.E..X XU.<.d.d.V.P.f.s.J s.oXXXg.  -X-X-X-X-X-X-X-X-X-X-X-X-X-X-X-X-X-X-X-X-X-X-X-X-X-X-X-X-X-X-X-X-X-X-X-X-X-X-X-X-X",
"' ' ' ' u ,.U.E..X XR.2.f.s.U.'.[.B.5.E.{.S.V Z -X-X-X-X-X-X-X-X-X-X-X-X-X-X-X-X-X-X-X-X-X-X-X-X-X-X-X-X-X-X-X-X-X-X-X-X-X-X-X-X",
"y y y u u O.4.V./.`.(.^.C.s.U.W.`.C.*.N.&XH.V S -X-X-X-X-X-X-X-X-X-X-X-X-X-X-X-X-X-X-X-X-X-X-X-X-X-X-X-X-X-X-X-X-X-X-X-X-X-X-X-X",
"8 9 9 9 H u } d.4.<.).=XC.s.:.u  .L B l.=XH.O -X-X-X-X-X-X-X-X-X-X-X-X-X-X-X-X-X-X-X-X-X-X-X-X-X-X-X-X-X-X-X-X-X-X-X-X-X-X-X-X-X",
"= y s 0 } } ' 9 q D.D.| u } <.d.;.U M C Z.d.O.-X-X-X-X-X-X-X-X-X-X-X-X-X-X-X-X-X-X-X-X-X-X-X-X-X-X-X-X-X-X-X-X-X-X-X-X-X-X-X-X-X",
"1...t ' W.'.Y.$.q ( / g W.d.' O.$.| a.!.B.%.d -X-X-X-X-X-X-X-X-X-X-X-X-X-X-X-X-X-X-X-X-X-X-X-X-X-X-X-X-X-X-X-X-X-X-X-X-X-X-X-X-X",
"2...* ' }.'.R.,.P A.m.Y W.R.,.- O.O.P.'.f.`   -X-X-X-X-X-X-X-X-X-X-X-X-X-X-X-X-X-X-X-X-X-X-X-X-X-X-X-X-X-X-X-X-X-X-X-X-X-X-X-X-X",
"u 8 4 h y.>.T x W @X@XW + ~.`._ O.O.,.4.$._ $ -X-X-X-X-X-X-X-X-X-X-X-X-X-X-X-X-X-X-X-X-X-X-X-X-X-X-X-X-X-X-X-X-X-X-X-X-X-X-X-X-X",
": ; j q.>.6.:.e A x.x.C : E.XX/.} ] $.$.$._ $ -X-X-X-X-X-X-X-X-X-X-X-X-X-X-X-X-X-X-X-X-X-X-X-X-X-X-X-X-X-X-X-X-X-X-X-X-X-X-X-X-X",
"8.k 0.r.>.*.<.,.I V B K ] V.'.|.{ { O.{ 6. .X -X-X-X-X-X-X-X-X-X-X-X-X-X-X-X-X-X-X-X-X-X-X-X-X-X-X-X-X-X-X-X-X-X-X-X-X-X-X-X-X-X",
"e.e.q.9. .X.,.a.o.L x r ' O.Y.].} J ' H 3.} o -X-X-X-X-X-X-X-X-X-X-X-X-X-X-X-X-X-X-X-X-X-X-X-X-X-X-X-X-X-X-X-X-X-X-X-X-X-X-X-X-X",
"q.e.9.l u } +.O.%.` J } } _ U.|.} e d c C F 9 -X-X-X-X-X-X-X-X-X-X-X-X-X-X-X-X-X-X-X-X-X-X-X-X-X-X-X-X-X-X-X-X-X-X-X-X-X-X-X-X-X",
"q.e.9.x c X.@.c v + s.|.|.,.s..X .> a K S D D D -X-X-X-X-X-X-X-X-X-X-X-X-X-X-X-X-X-X-X-X-X-X-X-X-X-X-X-X-X-X-X-X-X-X-X-X-X-X-X-X",
"y.8.h c c J v s { $.V.~.XXY.,.6.J 8 y c p F F -X-X-X-X-X-X-X-X-X-X-X-X-X-X-X-X-X-X-X-X-X-X-X-X-X-X-X-X-X-X-X-X-X-X-X-X-X-X-X-X-X",
"i.k ; d u J ' } %.,.;.:.R.P.}   u 9 y c 9 9 5 -X-X-X-X-X-X-X-X-X-X-X-X-X-X-X-X-X-X-X-X-X-X-X-X-X-X-X-X-X-X-X-X-X-X-X-X-X-X-X-X-X",
"u.k * r 6 } +.+.+.v @ 4 , > 4 9 u a s d 9 9 r -X-X-X-X-X-X-X-X-X-X-X-X-X-X-X-X-X-X-X-X-X-X-X-X-X-X-X-X-X-X-X-X-X-X-X-X-X-X-X-X-X",
"g w 8 r 9 y s a a 9 9 9 9 9 7 a O.%.{ 8 0 y -X-X-X-X-X-X-X-X-X-X-X-X-X-X-X-X-X-X-X-X-X-X-X-X-X-X-X-X-X-X-X-X-X-X-X-X-X-X-X-X-X-X",
"  % #     = r 6 . .     7 9 8 r ` $. .4 r -X-X-X-X-X-X-X-X-X-X-X-X-X-X-X-X-X-X-X-X-X-X-X-X-X-X-X-X-X-X-X-X-X-X-X-X-X-X-X-X-X-X-X",
"p.Z ' d.d.+.' +.6.V.f.4.u > r a u } ] 8 -X-X-X-X-X-X-X-X-X-X-X-X-X-X-X-X-X-X-X-X-X-X-X-X-X-X-X-X-X-X-X-X-X-X-X-X-X-X-X-X-X-X-X-X",
"J.x.C.oXXXC.+.U.]..X%X].} # y c c c s -X-X-X-X-X-X-X-X-X-X-X-X-X-X-X-X-X-X-X-X-X-X-X-X-X-X-X-X-X-X-X-X-X-X-X-X-X-X-X-X-X-X-X-X-X",
"C./..X X.XB.$.V.B.`.XX|.V.' # r r 9 8 -X-X-X-X-X-X-X-X-X-X-X-X-X-X-X-X-X-X-X-X-X-X-X-X-X-X-X-X-X-X-X-X-X-X-X-X-X-X-X-X-X-X-X-X-X",
" .3.T.XX%XY.,.,.;.B.`..XU.]   r y ] ] 4 -X-X-X-X-X-X-X-X-X-X-X-X-X-X-X-X-X-X-X-X-X-X-X-X-X-X-X-X-X-X-X-X-X-X-X-X-X-X-X-X-X-X-X-X",
"z m a.`.!.C.;.] O.$.B.E.4.+.` 8 c } } y -X-X-X-X-X-X-X-X-X-X-X-X-X-X-X-X-X-X-X-X-X-X-X-X-X-X-X-X-X-X-X-X-X-X-X-X-X-X-X-X-X-X-X-X",
"B 3.f.4.M | } K O.$.' < d <.,.4 d d d c -X-X-X-X-X-X-X-X-X-X-X-X-X-X-X-X-X-X-X-X-X-X-X-X-X-X-X-X-X-X-X-X-X-X-X-X-X-X-X-X-X-X-X-X",
"A R U J b X.X.S %.[ p G s.O.9 9 r r a 9 -X-X-X-X-X-X-X-X-X-X-X-X-X-X-X-X-X-X-X-X-X-X-X-X-X-X-X-X-X-X-X-X-X-X-X-X-X-X-X-X-X-X-X-X",
"G N 3 r e v K m ' _ i n &.J $ 9 9 r 0 a -X-X-X-X-X-X-X-X-X-X-X-X-X-X-X-X-X-X-X-X-X-X-X-X-X-X-X-X-X-X-X-X-X-X-X-X-X-X-X-X-X-X-X-X",
"-X-X0 r 9 5 2 n p a p b M i 9 r -X-X-X-X-X-X-X-X-X-X-X-X-X-X-X-X-X-X-X-X-X-X-X-X-X-X-X-X-X-X-X-X-X-X-X-X-X-X-X-X-X-X-X-X-X-X-X-X",
"-X-Xr r 9 7 F D y 5 t b 7 0 -X-X-X-X-X-X-X-X-X-X-X-X-X-X-X-X-X-X-X-X-X-X-X-X-X-X-X-X-X-X-X-X-X-X-X-X-X-X-X-X-X-X-X-X-X-X-X-X-X-X",
"-X-X-X-X-X-X-X-X-X-X-X-X-X-X-X-X-X-X-X-X-X-X-X-X-X-X-X-X-X-X-X-X-X-X-X-X-X-X-X-X-X-X-X-X-X-X-X-X-X-X-X-X-X-X-X-X-X-X-X-X-X-X-X-X",
"-X-X-X-X-X-X-X-X-X-X-X-X-X-X-X-X-X-X-X-X-X-X-X-X-X-X-X-X-X-X-X-X-X-X-X-X-X-X-X-X-X-X-X-X-X-X-X-X-X-X-X-X-X-X-X-X-X-X-X-X-X-X-X-X",
"-X-X-X-X-X-X-X-X-X-X-X-X-X-X-X-X-X-X-X-X-X-X-X-X-X-X-X-X-X-X-X-X-X-X-X-X-X-X-X-X-X-X-X-X-X-X-X-X-X-X-X-X-X-X-X-X-X-X-X-X-X-X-X-X",
"-X-X-X-X-X-X-X-X-X-X-X-X-X-X-X-X-X-X-X-X-X-X-X-X-X-X-X-X-X-X-X-X-X-X-X-X-X-X-X-X-X-X-X-X-X-X-X-X-X-X-X-X-X-X-X-X-X-X-X-X-X-X-X-X",
"-X-X-X-X-X-X-X-X-X-X-X-X-X-X-X-X-X-X-X-X-X-X-X-X-X-X-X-X-X-X-X-X-X-X-X-X-X-X-X-X-X-X-X-X-X-X-X-X-X-X-X-X-X-X-X-X-X-X-X-X-X-X-X-X",
"-X-X-X-X-X-X-X-X-X-X-X-X-X-X-X-X-X-X-X-X-X-X-X-X-X-X-X-X-X-X-X-X-X-X-X-X-X-X-X-X-X-X-X-X-X-X-X-X-X-X-X-X-X-X-X-X-X-X-X-X-X-X-X-X",
"-X-X-X-X-X-X-X-X-X-X-X-X-X-X-X-X-X-X-X-X-X-X-X-X-X-X-X-X-X-X-X-X-X-X-X-X-X-X-X-X-X-X-X-X-X-X-X-X-X-X-X-X-X-X-X-X-X-X-X-X-X-X-X-X",
"-X-X-X-X-X-X-X-X-X-X-X-X-X-X-X-X-X-X-X-X-X-X-X-X-X-X-X-X-X-X-X-X-X-X-X-X-X-X-X-X-X-X-X-X-X-X-X-X-X-X-X-X-X-X-X-X-X-X-X-X-X-X-X-X"
};
