/* XPM */
static char *result[] = {
/* columns rows colors chars-per-pixel */
"65 65 50 1 ",
"  c #151519",
". c #19171C",
"X c #1C1C1C",
"o c #201F1F",
"O c #1F201F",
"+ c #21201F",
"@ c #1F1F20",
"# c #211F20",
"$ c #1F2020",
"% c #242321",
"& c #282724",
"* c #2B2A27",
"= c #2D2C28",
"- c #302E2A",
"; c #34322C",
": c #39362E",
"> c #38382F",
", c #393731",
"< c #3D3B34",
"1 c #413E36",
"2 c #434037",
"3 c #454339",
"4 c #4A463B",
"5 c #4D493D",
"6 c #514C3F",
"7 c #4F4D40",
"8 c #534E41",
"9 c #565445",
"0 c #5C5645",
"q c #5F5847",
"w c #575748",
"e c #5B5748",
"r c #5E5948",
"t c #605947",
"y c #615B49",
"u c #63614F",
"i c #68634F",
"p c #656351",
"a c #6A6652",
"s c #6E6A56",
"d c #6F6C58",
"f c #716C57",
"g c #716E59",
"h c #76755D",
"j c #78765F",
"k c #79785F",
"l c #777760",
"z c #797760",
"x c #7B7A61",
"c c #807F66",
/* pixels */
"zzzxkkkzzzch2o *uxxzzzzzzzzzzz9 9zs0szxzzzczzci&-9azzzzzzzzzzxh*o",
"zkhhhhkjjkkh3+X*yzzllllllhhlll7.9xa0ihkkhjhhzzy=:0ahzzzzhzhhhhh&X",
"zh54qrttyyytt0;+,40yyyyy833347-.wcp1<39t918t91580qtyyyt11414441&o",
"xh3<qrrqrrqqtt>+,18tqqtq7<1<<1=@9zu<<15r8,7t815ttqttet011111<1<+%",
"kh2<0rqqqqqqtq2>80ttqqteq95,<1;#&;;<500r000tt900qqqqqqt00q6<<2<%%",
"zh420rqqqqqqtq418tteqqqqt07111-%+&;16rrrqtt0tttttqqqqqetqrq2<<<+#",
"xkr0rqqtqqqqqq418yqqqqqqtqq071*#166qqqrq0tt0t0t0qqqqq0ttqq0092<&%",
"khyrrtqqqqqqtq418qqqqqetqq007<-#4yr0qqqqt0ttttttqqqqqtt0qqqq02<+%",
"yyqqqqqqtqttt008718yt0tt833421=X6hu>6qqqqqqqt0t0qqqqqqt0qqqq02>&%",
"ytqqqqqqqq0t0ttt118ttttt4<<112=Xrcu16tqqqqqqqqttqtqqttttqqq0621+#",
"jgyqqqtqtqqttqt0999qtt812<<<<2=X0ks66yqqqqqqqqqqqqqqqqttqq0422<+%",
"cjyqqq0qqqt0qqqtqttqt07,11<2<2=Xwkfqqqrqqqqqtqqtqqqtqq0t0q0<<22+%",
"jhttetqqttqqqtqqqqqqtt5<<<7841=Xwksrrrqqqqqqqtqqqqqqttttrr0<<<<+#",
"jjtet0qq00tqqqqqqqqqt071<18r81*X0ks00rqrqqqqqqqqqqqq0t0t0r02<2>&%",
"cj710tttt0tqqttqqqqqqq9888qt81=Xwxp36yt0qqqqqqqttqqq0tqqrt01<2<+%",
"jz410te0ttqqqqqqqtqqqqtttqt05<=X0xu<5qqqqqtqqtqq00tqqqqqqq91<2<&%",
"zz98eqqqqqqqqt0tetqqqqqqt08431=.tcy1111qttt0qqqqqqqqqqqq0411111##",
"jhytetqqqqqqqqteqqqqqqqqt06<11=.9ji1*#1ett0tqqtqtqqqqqqt01,1111#%",
"iittqqqqqqqqq0ttqqqqqqqqtq5<<1;@,51&118tet0ttqtqt0qqqqqq81,1,11#%",
"0t0tqqqqqqqqqt0tqqqqqqqqt05<11-%##oo1ytqtetqqqqqtt0tqqet011111<&#",
"ddtqqqqqtttttqqqqqyytqqq0t0851=%:4448qqqetqqqqqqetet0tqqt86681,&%",
"zzyqqqqqqqq0qqqqqttyqqqqtttq5<=%1yytqqqq0tqqqttqt0ttqqqqttyt01,&%",
"zztqqqyq87559tqqt081170qt09441=X6satqqqqqqqqqq0tettttqeq0t0541<&%",
"zhyqqqq01,,18tqqtq11118qt04<<2*X0cstqqqeqqqqqttte0t00ttqt091<1,%%",
"zhytr0852<<19tt0tq11,1469t6<12-X9za58tqqttqqqrtt055580qqqt01,1<#+",
"zzttr01<11<18t0tt05111>16t6<<2*X9cy,5qqq0rqqt0t081,<40tqq001111#+",
"zz87rq3<1<<19t850t5111<1452<:;&X9xu,7ttqtrtt965641,14ttt05511--#%",
"zh1<00311<<1903<8t111111<<11-+XXezu<4qqqt00r81,<111140t091,1,#o&%",
"xz1<771111<2552<564111111<11;%XXecp<1877856641<11111358751<--#+%%",
"xz71111112221122111111111221;&XXexp<1111121112131111211111<&%&&%%",
"87-***--=*=***=*-*---*****-=&OX+<93**-**======**-**-=***=-*oXXX%%",
"@..@@X##XXOXXOXXo.o#o.oXXXXX.X+%X..X..@#XXXXXXXXXX.XXoXXXXXXXX.%%",
"989qt01189999000ww<=4ee9ww99w01o<w0www6370999ee99ew989eee9wwwe9&o",
"xxxzccyyhczczzzccz9<pczzxxxkcx9.wxxhxcgraccjzzxzxxxxczzxxxxxxxl=X",
"xxaisstyaddfddiypu98ygfsapuuip3.wxhuuur68yaffsssaupfddsuuuuuupr&o",
"zh1180000000ee11,<8t0qt04><<<<*Xwky<><<<1110ytqq8<1qtt8,,,<<<<<%%",
"xh1<00qqq00qqq85459t00t0942<11=.wxu;2555510qq0q097700005551<,<,%#",
"xl110qqqtqqqqqqqrtt00tttr06<11-.wzu<5rrrqtyqtqqqqtqttt0tty01<1<%%",
"zh87qqqqqqqqqqqtttt0ttrttr5<11=.0xi56ryrqqqqqqeqtqqqtqtttte77<<&%",
"zlrqqqqqqqqqqqqqt0ttt0trrr5<11=.wxsqtqqqqqqqqqttqqqq0t0tqqqq91<%#",
"zlyrqqtqqqqtqqqqqqqqtqqttq8711=#wxsrtt00t0tt0t00qqqqtqqtqqqq91<#%",
"zztqqqqqqqqqqqqqqqqqqqqqt0tt81&#wxg0tyttttqtttttqqqqqqqqqqqq01<&%",
"fsrqqqqqqqqqtqqqqqqtqqqqqqtt81=#6gu66tqqqqtqt0qtqqqqqqqqqqqq01<&%",
"qqqqqtqqqqqqqqqqqqqqtqqtqetq71=#2y6<5qrqqqqqqqqqqqqqtqqtqqqq01<%#",
"iiqtqqqqqqqqqqqqte0tqtqqq0te81&#5a9>50tqqqqqqqqqqqqqqqqqqqqt01<%%",
"zzyttqqqqqqqqqqqett0qqqqqqtt71=.0ku>5rrrqqqqqtqtqqqqqqqqqqqt01<&%",
"xz98qqqqqqqqqqqqtqtt0ttqqqqq71*owca46rrrqqqqqtqqqqqtqqqqqq0881<%#",
"zl319qqqqqqqqqqqqq0ttqqq0qqq51&owks00rrtqqqqqqqqqqqqqqqqqq01<1<%%",
"zl730qqqqqte0qqq0tettqqqqqq071*#8faqqqqqetettqqtqqqqqqqq081111,#%",
"zzqqtqqqqtt0ttqqttt0qqqqqqtt71-#1yyeqqqqt0tt0qqqqqqqqqqq0111111#%",
"saytqqqqq0ttqqqqt00tqqqqqq0841*#1ay0qqqqqqt0ttqqt0qqqqqq0111111##",
"11qtqqqtqt0tqqqqt0tqqqqqq07111*.0cfq0qqqqq0tt0qtttqqqqqt8111111&%",
";:9tqtqqqqqqqqqqqqtqqqqqqq8111=#8zst0tqqqqqq0ttq0tqqqqqqt414111o%",
"#&eqqqqtqqqqqqqqqqqqqqqtqqq081=#1yt0qqqqqqqtttqqetqqqqqqtttt811&#",
"<1qqqqqqqqqqqqqqqqqqqqqqqq0051-#1yyttqqtt0009tttettqqqqqttttt1:+%",
"lgyqqqqqqqqqqqqqqqqtqqqqqq5111=#qjst0tqet08150ttt0eqqqqqt0tt611&%",
"czt88tttqqqqqqqqtttttqtq005<<1&Xqxs8etqqqt5>4qt0qrqqqqqqt00061,&#",
"jh41ttttqqqqqqqq0t0tqqt05<<112=Xexu<5qqqqt4+>0ttqqqqtqqqtt0111,&%",
"jh418080qqqq00qq0trr99004<<<<2=Xexp<5099qr5+:9t00qqqqqqq0t81>1<+%",
"zh1111110qqq118qt0rr51111<1<12*Xwxgq51116t5+*11150tqqqqq811111<&%",
"zh4111:160t8110q00094<<<<1<<<<=X0jf051,,5q4&->1>30q0q06q61>11<:%#",
"xj4<1111111111112<11<11<1<;%%&OX0kp<111111<<:+=1111<11322111<&%%%",
"hg1>111111111111<<<<<<<<<<=O$&XX9ht,,1<<<<11;+-<1<<<>1<1<<<<<%o%%",
"*-+&+oo&#o&#####%&%%&%%%%&+&O%%%&*&&%&##+&%+&++&++&+&&++&++&%%+%%",
"Xo++%%%%+%%%%#%%#%%#%%%#%%#%%%%%oXo+%%%%#%%%#%%#%%#%%%#%%#%%%#%%%"
};
