/* XPM */
static char *result[] = {
/* columns rows colors chars-per-pixel */
"64 64 218 2 ",
"   c #1D1C1D",
".  c #1E1D1E",
"X  c #2C0F16",
"o  c #281D1F",
"O  c #232122",
"+  c #232325",
"@  c #2B2225",
"#  c #252528",
"$  c #262628",
"%  c #272729",
"&  c #27272A",
"*  c #2B2629",
"=  c #2F242B",
"-  c #262829",
";  c #26292B",
":  c #27292C",
">  c #28282A",
",  c #28282B",
"<  c #28292B",
"1  c #29292B",
"2  c #2A282A",
"3  c #2A282B",
"4  c #29292C",
"5  c #2A292C",
"6  c #282A2C",
"7  c #292A2C",
"8  c #282A2D",
"9  c #292A2D",
"0  c #2B2B2C",
"q  c #2A2A2D",
"w  c #2A2B2D",
"e  c #2B2B2D",
"r  c #282B2E",
"t  c #292B2E",
"y  c #2A2B2E",
"u  c #2B2B2E",
"i  c #2A2B2F",
"p  c #2B2B2F",
"a  c #292D2F",
"s  c #2B2C2E",
"d  c #2A2C2F",
"f  c #2B2C2F",
"g  c #2B2D2F",
"h  c #2C2C2E",
"j  c #2D2D2F",
"k  c #2F2F2F",
"l  c #2B2C30",
"z  c #2B2D30",
"x  c #2A2E31",
"c  c #2B2E31",
"v  c #282F33",
"b  c #2B2E32",
"n  c #2C2C30",
"m  c #2C2D30",
"M  c #2C2D31",
"N  c #2C2E31",
"B  c #2D2E31",
"V  c #2D2F31",
"C  c #2E2E30",
"Z  c #2F2F30",
"A  c #2F2F31",
"S  c #2C2E32",
"D  c #2D2E32",
"F  c #2D2F32",
"G  c #2C2F33",
"H  c #2D2F33",
"J  c #2E2F32",
"K  c #2E2F33",
"L  c #2C2F34",
"P  c #273536",
"I  c #2F3030",
"U  c #2F3033",
"Y  c #293134",
"T  c #2D3034",
"R  c #2D3035",
"E  c #2E3034",
"W  c #2E3035",
"Q  c #2E3135",
"!  c #2F3135",
"~  c #2D3136",
"^  c #2E3136",
"/  c #2F3136",
"(  c #2D3237",
")  c #2E3236",
"_  c #2F3236",
"`  c #2E3237",
"'  c #2F3237",
"]  c #263338",
"[  c #283438",
"{  c #2F3439",
"}  c #223B3F",
"|  c #29393E",
" . c #303134",
".. c #313237",
"X. c #313437",
"o. c #303338",
"O. c #303438",
"+. c #313439",
"@. c #31353A",
"#. c #32353A",
"$. c #33353A",
"%. c #31363A",
"&. c #30363B",
"*. c #31363B",
"=. c #32363B",
"-. c #33363B",
";. c #30363C",
":. c #31373D",
">. c #32363C",
",. c #32373C",
"<. c #33373C",
"1. c #33373D",
"2. c #37373D",
"3. c #35393B",
"4. c #33383D",
"5. c #32383E",
"6. c #33383E",
"7. c #33393E",
"8. c #33393F",
"9. c #34393E",
"0. c #34393F",
"q. c #343A3F",
"w. c #383A3E",
"e. c #412E37",
"r. c #243F43",
"t. c #2B3F44",
"y. c #343A40",
"u. c #353A40",
"i. c #353B40",
"p. c #343B41",
"a. c #353B41",
"s. c #363B41",
"d. c #353C41",
"f. c #363C41",
"g. c #363C42",
"h. c #363C43",
"j. c #363D43",
"k. c #373D43",
"l. c #373D44",
"z. c #373E44",
"x. c #383B40",
"c. c #393C40",
"v. c #383E44",
"b. c #383E45",
"n. c #383F45",
"m. c #393F45",
"M. c #393F46",
"N. c #0A454A",
"B. c #1A5358",
"V. c #1D575D",
"C. c #274041",
"Z. c #274445",
"A. c #394046",
"S. c #3A4047",
"D. c #3B4147",
"F. c #3C4046",
"G. c #3D4147",
"H. c #3B4148",
"J. c #3B4248",
"K. c #3C4248",
"L. c #3D4248",
"P. c #3C4249",
"I. c #3C4349",
"U. c #38444B",
"Y. c #3F4449",
"T. c #3D444A",
"R. c #33484E",
"E. c #26595E",
"W. c #265F63",
"Q. c #136A69",
"!. c #3C757C",
"~. c #41454B",
"^. c #43454A",
"/. c #41464C",
"(. c #40474D",
"). c #43464D",
"_. c #44494F",
"`. c #454950",
"'. c #464A50",
"]. c #444B52",
"[. c #454C53",
"{. c #464D54",
"}. c #484C53",
"|. c #484D53",
" X c #484D54",
".X c #4A5158",
"XX c #4C535A",
"oX c #4E545C",
"OX c #4E555C",
"+X c #4F555D",
"@X c #4F565D",
"#X c #4D585F",
"$X c #51565D",
"%X c #50575E",
"&X c #475C63",
"*X c #535961",
"=X c #545B63",
"-X c #565D65",
";X c #575E66",
":X c #585F67",
">X c #576169",
",X c #596068",
"<X c #5A6169",
"1X c #5A616A",
"2X c #5A626A",
"3X c #5B626A",
"4X c #5B626B",
"5X c #5C6169",
"6X c #5C626A",
"7X c #5C636C",
"8X c #5D646C",
"9X c #5E646C",
"0X c #5E656D",
"qX c #009F9C",
"wX c #358287",
"eX c #569AA2",
"rX c #55B5BA",
"tX c None",
/* pixels */
"tXtXtXtXtXtXtXtXtXtXtXtXtXtXtXN y y y y 7 ,.k.g.8.%X8X3X3X3X6X>XV.&X5X,X,X,X<X-XH.G 4 y y y q 9 M tXtXtXtXtXtXtXtXtXtXtXtXtXtXtX",
"tXtXtXtXtXtXtXtXtXtXtXtXtXtXtX$ < y y y 7 ,.k.g.a.(.{.[.[.[._.L.} #X0X3X4X<X3X,XJ.b > y y 9 E *.& tXtXtXtXtXtXtXtXtXtXtXtXtXtXtX",
"tXtXtXtXtXtXtXtXtXtXtXtXtXtXx.~.+.z q y 7 ,.l.g.k.*.~ ` ~ :.( O o ^.+X@XOX;X:XXXM.@.H w y , ^ m./.x.tXtXtXtXtXtXtXtXtXtXtXtXtXtX",
"tXtXtXtXtXtXtXtXtXtXtXtXtX. }.2XI.L 4 y 9 %.g.g.g.E > 9 9 4.4.9 v ; b 8.&.+X+X;.g.k.=.9 y y R J.1X|.. tXtXtXtXtXtXtXtXtXtXtXtXtX",
"tXtXtXtXtXtXtXtXtXtXtXtXtX  '.2XK.S > 9 y y O.f.H 9 1 y *.g.$.6 N.t.2.8.5.m.S.h.z.o.y y 9 %.y.D.1X|.. tXtXtXtXtXtXtXtXtXtXtXtXtX",
"tXtXtXtXtXtXtXtXtXtXtXtXtX- c.Y.v.7.,.,.l > ' j.d ' { >.oX).| E.eX!.R.$X*XF.8 _ ' z 9 y > 4.z.k.`.w.tXtXtXtXtXtXtXtXtXtXtXtXtXtX",
"tXtXtXtXtXtXtXtXtXtXtXtXtXtX% # @.g.j.>.l 4 T =.y *.T..X7X X] W.rXwXU.9X=XG.: 1 4 q y d ^ @.i.s.+ tXtXtXtXtXtXtXtXtXtXtXtXtXtXtX",
"tXtXtXtXtXtXtXtXtXtXtXtXtXtXtXB 1 ,.,.< y y q 7 7 ~ ].<X:X].= C.qXQ.e.-Xv.p.4.7 y y 9 z a.T ! d.tXtXtXtXtXtXtXtXtXtXtXtXtXtXtXtX",
"tXtXtXtXtXtXtXtXtXtXtXtXtXtXtXU y l l y y y y y y 9 #.P.J.A.=.a Z.P ..J.k.z.1.7 y y y y z y D m tXtXtXtXtXtXtXtXtXtXtXtXtXtXtXtX",
"tXtXtXtXtXtXtXtXtXtXtXtXtXtXtXtXf J B B y y y y y 1 y T G ^ T 5 X @ c T ) ^ N 4 y y f J B  .w tXtXtXtXtXtXtXtXtXtXtXtXtXtXtXtXtX",
"tXtXtXtXtXtXtXtXtXtXtXtXtXtXtXtXi y u e y f y y w E H > , 1 5 x r.[ 3 , > M _ _ f f y t y e tXtXtXtXtXtXtXtXtXtXtXtXtXtXtXtXtXtX",
"tXtXtXtXtXtXtXtXtXtXtXtXtXtXtXtXtXtXtXtXy y y y 7 6.0.f z d 3 Y B.r.* z f 4.z.u.z B t tXtXtXtXtXtXtXtXtXtXtXtXtXtXtXtXtXtXtXtXtX",
"tXtXtXtXtXtXtXtXtXtXtXtXtXtXtXtXtXtXtXtXtXt B y , >.k.i.s.Q 4 d Y r E s.i.j.,.w y F q tXtXtXtXtXtXtXtXtXtXtXtXtXtXtXtXtXtXtXtXtX",
"tXtXtXtXtXtXtXtXtXtXtXtXtXtXtXtXtXtXtXtXtXf J l ,.a.k.z.n.' 4 y 2 / q.k.j.j.a.=.f J u tXtXtXtXtXtXtXtXtXtXtXtXtXtXtXtXtXtXtXtXtX",
"tXtXtXtXtXtXtXtXtXtXtXtXtXtXtXtXtXtXtXtXtXV y z ,.g.a.=.<.H 9 y 7 4.n.h.j.k.s.,.z y V tXtXtXtXtXtXtXtXtXtXtXtXtXtXtXtXtXtXtXtXtX",
"tXtXtXtXtXtXtXtXtXtXtXtXtXtXtXtXtXtXtXtXtXtXA l 1 ,.,., 7 w y y 9 *.g.i.i.g.@.< l A tXtXtXtXtXtXtXtXtXtXtXtXtXtXtXtXtXtXtXtXtXtX",
"tXtXtXtXtXtXtXtXtXtXtXtXtXtXtXtXtXtXtXtXtXtXA m y l l y y y f m z z z z z z f y m A tXtXtXtXtXtXtXtXtXtXtXtXtXtXtXtXtXtXtXtXtXtX",
"tXtXtXtXtXtXtXtXtXtXtXtXtXtXtXtXtXtXtXtXtXC p f y q q y y f s A A s u 9 9 9 q y f u C tXtXtXtXtXtXtXtXtXtXtXtXtXtXtXtXtXtXtXtXtX",
"tXtXtXtXtXtXtXtXtXtXtXtXtXtXtXtXtXtXtXtXtXm D 9 9 9 q y y M j tXtXj M y y y y y y F n tXtXtXtXtXtXtXtXtXtXtXtXtXtXtXtXtXtXtXtXtX",
"tXtXtXtXtXtXtXtXtXtXtXtXtXtXtXtXtXtXtXtXtXg N z z z f y y m g tXtXg m y y y y y y m g tXtXtXtXtXtXtXtXtXtXtXtXtXtXtXtXtXtXtXtXtX",
"tXtXtXtXtXtXtXtXtXtXtXtXtXtXtXtXtXtXtXtXtXq o.s.i.g.@., 4 B f tXtXf D y 9 7 7 9 y m g tXtXtXtXtXtXtXtXtXtXtXtXtXtXtXtXtXtXtXtXtX",
"tXtXtXtXtXtXtXtXtXtXtXtXtXtXtXtXtXtXtXtXtX0 -.b.z.v.g.4.q.X.tXtXtXtXh M ,.6.6.,.l B n tXtXtXtXtXtXtXtXtXtXtXtXtXtXtXtXtXtXtXtXtX",
"tXtXtXtXtXtXtXtXtXtXtXtXtXtXtXtXtXtXtXtXtXh W 9.4.4.6.0.s.3.tXtXtXtXk K 4.0.0.4.N u C tXtXtXtXtXtXtXtXtXtXtXtXtXtXtXtXtXtXtXtXtX",
"tXtXtXtXtXtXtXtXtXtXtXtXtXtXtXtXtXtXtXtXtXtXA 7 q q q q 7 Z tXtXtXtXI y w q q w y A tXtXtXtXtXtXtXtXtXtXtXtXtXtXtXtXtXtXtXtXtXtX",
"tXtXtXtXtXtXtXtXtXtXtXtXtXtXtXtXtXtXtXtXtXtXtXtXtXtXtXtXtXtXtXtXtXtXtXtXtXtXtXtXtXtXtXtXtXtXtXtXtXtXtXtXtXtXtXtXtXtXtXtXtXtXtXtX",
"tXtXtXtXtXtXtXtXtXtXtXtXtXtXtXtXtXtXtXtXtXtXtXtXtXtXtXtXtXtXtXtXtXtXtXtXtXtXtXtXtXtXtXtXtXtXtXtXtXtXtXtXtXtXtXtXtXtXtXtXtXtXtXtX",
"tXtXtXtXtXtXtXtXtXtXtXtXtXtXtXtXtXtXtXtXtXtXtXtXtXtXtXtXtXtXtXtXtXtXtXtXtXtXtXtXtXtXtXtXtXtXtXtXtXtXtXtXtXtXtXtXtXtXtXtXtXtXtXtX",
"tXtXtXtXtXtXtXtXtXtXtXtXtXtXtXtXtXtXtXtXtXtXtXtXtXtXtXtXtXtXtXtXtXtXtXtXtXtXtXtXtXtXtXtXtXtXtXtXtXtXtXtXtXtXtXtXtXtXtXtXtXtXtXtX",
"tXtXtXtXtXtXtXtXtXtXtXtXtXtXtXtXtXtXtXtXtXtXtXtXtXtXtXtXtXtXtXtXtXtXtXtXtXtXtXtXtXtXtXtXtXtXtXtXtXtXtXtXtXtXtXtXtXtXtXtXtXtXtXtX",
"tXtXtXtXtXtXtXtXtXtXtXtXtXtXtXtXtXtXtXtXtXtXtXtXtXtXtXtXtXtXtXtXtXtXtXtXtXtXtXtXtXtXtXtXtXtXtXtXtXtXtXtXtXtXtXtXtXtXtXtXtXtXtXtX",
"tXtXtXtXtXtXtXtXtXtXtXtXtXtXtXtXtXtXtXtXtXtXtXtXtXtXtXtXtXtXtXtXtXtXtXtXtXtXtXtXtXtXtXtXtXtXtXtXtXtXtXtXtXtXtXtXtXtXtXtXtXtXtXtX",
"tXtXtXtXtXtXtXtXtXtXtXtXtXtXtXtXtXtXtXtXtXtXtXtXtXtXtXtXtXtXtXtXtXtXtXtXtXtXtXtXtXtXtXtXtXtXtXtXtXtXtXtXtXtXtXtXtXtXtXtXtXtXtXtX",
"tXtXtXtXtXtXtXtXtXtXtXtXtXtXtXtXtXtXtXtXtXtXtXtXtXtXtXtXtXtXtXtXtXtXtXtXtXtXtXtXtXtXtXtXtXtXtXtXtXtXtXtXtXtXtXtXtXtXtXtXtXtXtXtX",
"tXtXtXtXtXtXtXtXtXtXtXtXtXtXtXtXtXtXtXtXtXtXtXtXtXtXtXtXtXtXtXtXtXtXtXtXtXtXtXtXtXtXtXtXtXtXtXtXtXtXtXtXtXtXtXtXtXtXtXtXtXtXtXtX",
"tXtXtXtXtXtXtXtXtXtXtXtXtXtXtXtXtXtXtXtXtXtXtXtXtXtXtXtXtXtXtXtXtXtXtXtXtXtXtXtXtXtXtXtXtXtXtXtXtXtXtXtXtXtXtXtXtXtXtXtXtXtXtXtX",
"tXtXtXtXtXtXtXtXtXtXtXtXtXtXtXtXtXtXtXtXtXtXtXtXtXtXtXtXtXtXtXtXtXtXtXtXtXtXtXtXtXtXtXtXtXtXtXtXtXtXtXtXtXtXtXtXtXtXtXtXtXtXtXtX",
"tXtXtXtXtXtXtXtXtXtXtXtXtXtXtXtXtXtXtXtXtXtXtXtXtXtXtXtXtXtXtXtXtXtXtXtXtXtXtXtXtXtXtXtXtXtXtXtXtXtXtXtXtXtXtXtXtXtXtXtXtXtXtXtX",
"tXtXtXtXtXtXtXtXtXtXtXtXtXtXtXtXtXtXtXtXtXtXtXtXtXtXtXtXtXtXtXtXtXtXtXtXtXtXtXtXtXtXtXtXtXtXtXtXtXtXtXtXtXtXtXtXtXtXtXtXtXtXtXtX",
"tXtXtXtXtXtXtXtXtXtXtXtXtXtXtXtXtXtXtXtXtXtXtXtXtXtXtXtXtXtXtXtXtXtXtXtXtXtXtXtXtXtXtXtXtXtXtXtXtXtXtXtXtXtXtXtXtXtXtXtXtXtXtXtX",
"tXtXtXtXtXtXtXtXtXtXtXtXtXtXtXtXtXtXtXtXtXtXtXtXtXtXtXtXtXtXtXtXtXtXtXtXtXtXtXtXtXtXtXtXtXtXtXtXtXtXtXtXtXtXtXtXtXtXtXtXtXtXtXtX",
"tXtXtXtXtXtXtXtXtXtXtXtXtXtXtXtXtXtXtXtXtXtXtXtXtXtXtXtXtXtXtXtXtXtXtXtXtXtXtXtXtXtXtXtXtXtXtXtXtXtXtXtXtXtXtXtXtXtXtXtXtXtXtXtX",
"tXtXtXtXtXtXtXtXtXtXtXtXtXtXtXtXtXtXtXtXtXtXtXtXtXtXtXtXtXtXtXtXtXtXtXtXtXtXtXtXtXtXtXtXtXtXtXtXtXtXtXtXtXtXtXtXtXtXtXtXtXtXtXtX",
"tXtXtXtXtXtXtXtXtXtXtXtXtXtXtXtXtXtXtXtXtXtXtXtXtXtXtXtXtXtXtXtXtXtXtXtXtXtXtXtXtXtXtXtXtXtXtXtXtXtXtXtXtXtXtXtXtXtXtXtXtXtXtXtX",
"tXtXtXtXtXtXtXtXtXtXtXtXtXtXtXtXtXtXtXtXtXtXtXtXtXtXtXtXtXtXtXtXtXtXtXtXtXtXtXtXtXtXtXtXtXtXtXtXtXtXtXtXtXtXtXtXtXtXtXtXtXtXtXtX",
"tXtXtXtXtXtXtXtXtXtXtXtXtXtXtXtXtXtXtXtXtXtXtXtXtXtXtXtXtXtXtXtXtXtXtXtXtXtXtXtXtXtXtXtXtXtXtXtXtXtXtXtXtXtXtXtXtXtXtXtXtXtXtXtX",
"tXtXtXtXtXtXtXtXtXtXtXtXtXtXtXtXtXtXtXtXtXtXtXtXtXtXtXtXtXtXtXtXtXtXtXtXtXtXtXtXtXtXtXtXtXtXtXtXtXtXtXtXtXtXtXtXtXtXtXtXtXtXtXtX",
"tXtXtXtXtXtXtXtXtXtXtXtXtXtXtXtXtXtXtXtXtXtXtXtXtXtXtXtXtXtXtXtXtXtXtXtXtXtXtXtXtXtXtXtXtXtXtXtXtXtXtXtXtXtXtXtXtXtXtXtXtXtXtXtX",
"tXtXtXtXtXtXtXtXtXtXtXtXtXtXtXtXtXtXtXtXtXtXtXtXtXtXtXtXtXtXtXtXtXtXtXtXtXtXtXtXtXtXtXtXtXtXtXtXtXtXtXtXtXtXtXtXtXtXtXtXtXtXtXtX",
"tXtXtXtXtXtXtXtXtXtXtXtXtXtXtXtXtXtXtXtXtXtXtXtXtXtXtXtXtXtXtXtXtXtXtXtXtXtXtXtXtXtXtXtXtXtXtXtXtXtXtXtXtXtXtXtXtXtXtXtXtXtXtXtX",
"tXtXtXtXtXtXtXtXtXtXtXtXtXtXtXtXtXtXtXtXtXtXtXtXtXtXtXtXtXtXtXtXtXtXtXtXtXtXtXtXtXtXtXtXtXtXtXtXtXtXtXtXtXtXtXtXtXtXtXtXtXtXtXtX",
"tXtXtXtXtXtXtXtXtXtXtXtXtXtXtXtXtXtXtXtXtXtXtXtXtXtXtXtXtXtXtXtXtXtXtXtXtXtXtXtXtXtXtXtXtXtXtXtXtXtXtXtXtXtXtXtXtXtXtXtXtXtXtXtX",
"tXtXtXtXtXtXtXtXtXtXtXtXtXtXtXtXtXtXtXtXtXtXtXtXtXtXtXtXtXtXtXtXtXtXtXtXtXtXtXtXtXtXtXtXtXtXtXtXtXtXtXtXtXtXtXtXtXtXtXtXtXtXtXtX",
"tXtXtXtXtXtXtXtXtXtXtXtXtXtXtXtXtXtXtXtXtXtXtXtXtXtXtXtXtXtXtXtXtXtXtXtXtXtXtXtXtXtXtXtXtXtXtXtXtXtXtXtXtXtXtXtXtXtXtXtXtXtXtXtX",
"tXtXtXtXtXtXtXtXtXtXtXtXtXtXtXtXtXtXtXtXtXtXtXtXtXtXtXtXtXtXtXtXtXtXtXtXtXtXtXtXtXtXtXtXtXtXtXtXtXtXtXtXtXtXtXtXtXtXtXtXtXtXtXtX",
"tXtXtXtXtXtXtXtXtXtXtXtXtXtXtXtXtXtXtXtXtXtXtXtXtXtXtXtXtXtXtXtXtXtXtXtXtXtXtXtXtXtXtXtXtXtXtXtXtXtXtXtXtXtXtXtXtXtXtXtXtXtXtXtX",
"tXtXtXtXtXtXtXtXtXtXtXtXtXtXtXtXtXtXtXtXtXtXtXtXtXtXtXtXtXtXtXtXtXtXtXtXtXtXtXtXtXtXtXtXtXtXtXtXtXtXtXtXtXtXtXtXtXtXtXtXtXtXtXtX",
"tXtXtXtXtXtXtXtXtXtXtXtXtXtXtXtXtXtXtXtXtXtXtXtXtXtXtXtXtXtXtXtXtXtXtXtXtXtXtXtXtXtXtXtXtXtXtXtXtXtXtXtXtXtXtXtXtXtXtXtXtXtXtXtX",
"tXtXtXtXtXtXtXtXtXtXtXtXtXtXtXtXtXtXtXtXtXtXtXtXtXtXtXtXtXtXtXtXtXtXtXtXtXtXtXtXtXtXtXtXtXtXtXtXtXtXtXtXtXtXtXtXtXtXtXtXtXtXtXtX",
"tXtXtXtXtXtXtXtXtXtXtXtXtXtXtXtXtXtXtXtXtXtXtXtXtXtXtXtXtXtXtXtXtXtXtXtXtXtXtXtXtXtXtXtXtXtXtXtXtXtXtXtXtXtXtXtXtXtXtXtXtXtXtXtX",
"tXtXtXtXtXtXtXtXtXtXtXtXtXtXtXtXtXtXtXtXtXtXtXtXtXtXtXtXtXtXtXtXtXtXtXtXtXtXtXtXtXtXtXtXtXtXtXtXtXtXtXtXtXtXtXtXtXtXtXtXtXtXtXtX",
"tXtXtXtXtXtXtXtXtXtXtXtXtXtXtXtXtXtXtXtXtXtXtXtXtXtXtXtXtXtXtXtXtXtXtXtXtXtXtXtXtXtXtXtXtXtXtXtXtXtXtXtXtXtXtXtXtXtXtXtXtXtXtXtX",
"tXtXtXtXtXtXtXtXtXtXtXtXtXtXtXtXtXtXtXtXtXtXtXtXtXtXtXtXtXtXtXtXtXtXtXtXtXtXtXtXtXtXtXtXtXtXtXtXtXtXtXtXtXtXtXtXtXtXtXtXtXtXtXtX",
"tXtXtXtXtXtXtXtXtXtXtXtXtXtXtXtXtXtXtXtXtXtXtXtXtXtXtXtXtXtXtXtXtXtXtXtXtXtXtXtXtXtXtXtXtXtXtXtXtXtXtXtXtXtXtXtXtXtXtXtXtXtXtXtX",
"tXtXtXtXtXtXtXtXtXtXtXtXtXtXtXtXtXtXtXtXtXtXtXtXtXtXtXtXtXtXtXtXtXtXtXtXtXtXtXtXtXtXtXtXtXtXtXtXtXtXtXtXtXtXtXtXtXtXtXtXtXtXtXtX"
};
