/* XPM */
static char *result[] = {
/* columns rows colors chars-per-pixel */
"64 64 198 2 ",
"   c #010001",
".  c #0D0808",
"X  c #1C0100",
"o  c #13080C",
"O  c #000013",
"+  c #001B13",
"@  c #0B161E",
"#  c #1E1C1D",
"$  c #171617",
"%  c #220000",
"&  c #281215",
"*  c #002205",
"=  c #1C1B21",
"-  c #121D24",
";  c #271D22",
":  c #032823",
">  c #192329",
",  c #132926",
"<  c #192A30",
"1  c #063836",
"2  c #1D3C3B",
"3  c #183637",
"4  c #232325",
"5  c #2B2226",
"6  c #252529",
"7  c #2C262A",
"8  c #252B2E",
"9  c #2A2A2D",
"0  c #252D33",
"q  c #2C2E31",
"w  c #312E32",
"e  c #2D3135",
"r  c #2E3439",
"t  c #203A3C",
"y  c #243436",
"u  c #323336",
"i  c #33363B",
"p  c #34393E",
"a  c #38373B",
"s  c #35272B",
"d  c #02403F",
"f  c #1D403D",
"g  c #003E42",
"h  c #263E42",
"j  c #353C42",
"k  c #3A3E44",
"l  c #423D45",
"z  c #423640",
"x  c #014343",
"c  c #004549",
"v  c #034949",
"b  c #074C4B",
"n  c #164749",
"m  c #004D51",
"M  c #0F4F54",
"N  c #134E52",
"B  c #025256",
"V  c #0D5256",
"C  c #005C5B",
"Z  c #08575B",
"A  c #115155",
"S  c #16555A",
"D  c #19555A",
"F  c #1C5A5D",
"G  c #1A5157",
"H  c #234246",
"J  c #22464A",
"K  c #3B4046",
"L  c #3C434A",
"P  c #31474A",
"I  c #364C51",
"U  c #29575C",
"Y  c #39595F",
"T  c #33565A",
"R  c #284C52",
"E  c #005E61",
"W  c #1B5B61",
"Q  c #2B5D62",
"!  c #3D5B61",
"~  c #006361",
"^  c #007977",
"/  c #1A6265",
"(  c #236267",
")  c #28656A",
"_  c #366467",
"`  c #3B6E72",
"'  c #3A797C",
"]  c #247475",
"[  c #42454B",
"{  c #44494C",
"}  c #464B51",
"|  c #4B4D52",
" . c #4A5057",
".. c #4D535B",
"X. c #52565D",
"o. c #55575F",
"O. c #5B615A",
"+. c #4A5B63",
"@. c #555C64",
"#. c #5A5E66",
"$. c #565660",
"%. c #675C68",
"&. c #4B686E",
"*. c #56656C",
"=. c #5C626A",
"-. c #5A6067",
";. c #5B6A71",
":. c #4A787C",
">. c #547279",
",. c #62646D",
"<. c #6C676F",
"1. c #656B73",
"2. c #696E76",
"3. c #666B74",
"4. c #647379",
"5. c #6C727B",
"6. c #71757D",
"7. c #3D7F80",
"8. c #557F87",
"9. c #6D7A82",
"0. c #657B82",
"q. c #747A83",
"w. c #787D86",
"e. c #7A7F89",
"r. c #737780",
"t. c #8D7E93",
"y. c #806C87",
"u. c #9C7CA6",
"i. c #009E9C",
"p. c #188E8E",
"a. c #348C8C",
"s. c #388C8C",
"d. c #348F92",
"f. c #2E8A89",
"g. c #00A09D",
"h. c #1A9FA1",
"j. c #32A6A7",
"k. c #4A8386",
"l. c #4A8D95",
"z. c #508F96",
"x. c #4A939A",
"c. c #52979D",
"v. c #5C959C",
"b. c #68848A",
"n. c #7D838B",
"m. c #7D8B94",
"M. c #76949B",
"N. c #658F95",
"B. c #569CA4",
"V. c #5CA5AE",
"C. c #5CABB4",
"Z. c #52B3B9",
"A. c #6CA4A7",
"S. c #75A6AB",
"D. c #66B2B9",
"F. c #74B5BB",
"G. c #75BCC3",
"H. c #65B6C0",
"J. c #6ECFCF",
"K. c #81858E",
"L. c #818790",
"P. c #838A93",
"I. c #8D8F99",
"U. c #8B929B",
"Y. c #87949C",
"T. c #8D9BA3",
"R. c #949BA4",
"E. c #959CA5",
"W. c #9CA3AC",
"Q. c #96A2AB",
"!. c #9FA6B0",
"~. c #91B0B8",
"^. c #88AAB1",
"/. c #A3AAB4",
"(. c #A7AFB9",
"). c #ABB3BD",
"_. c #A5B2BB",
"`. c #B2B4BF",
"'. c #BD9FC7",
"]. c #90BFC6",
"[. c #AFB7C1",
"{. c #B3BBC5",
"}. c #B6BEC9",
"|. c #B4BBC5",
" X c #EBBCFA",
".X c #91C3C9",
"XX c #98CCD3",
"oX c #90DBDF",
"OX c #8DCDD4",
"+X c #BAC2CD",
"@X c #A1CFD7",
"#X c #AFCCD5",
"$X c #96DBE2",
"%X c #9FE0E8",
"&X c #A6E2E8",
"*X c #A9E7EE",
"=X c #BAF6FD",
"-X c None",
/* pixels */
"-X-X-X-X-X-X-X-X-X-X-X-X-X-X-X-X-X-X-X-X-X-X-X-X-X-X-X-X-X-X-X-X-X-X-X-X-X-X-X-X-X-X-X-X-X-X-X-X-X-X-X-X-X-X-X-X-X-X-X-X-X-X-X-X",
"-X-X-X-X-X-X-X-X-X-X-X-X-X-X-X-X-X-X-X-X-X-X-X-X-X-X-X-X-X-X-X-X-X-X-X-X-X-X-X-X-X-X-X-X-X-X-X-X-X-X-X-X-X-X-X-X-X-X-X-X-X-X-X-X",
"-X-X-X-X-X-X-X-X-X-X-X-X-X-X-X-X-X-X-X-X-X-X-X-X-X-X-X-X-X-X-X-X-X-X-X-X-X-X-X-X-X-X-X-X-X-X-X-X-X-X-X-X-X-X-X-X-X-X-X-X-X-X-X-X",
"-X-X-X-X-X-X-X-X-X-X-X-X-X-X-X-X-X-X-X-X-X-X-X-X-X-X-X-X-X-X-X-X-X-X-X-X-X-X-X-X-X-X-X-X-X-X-X-X-X-X-X-X-X-X-X-X-X-X-X-X-X-X-X-X",
"-X-X-X-X-X-X-X-X-X-X-X-X-X-X-X-X-X-X-X-X-X-X-X-X-X-X-X-X-X-X-X-X-X-X-X-X-X-X-X-X-X-X-X-X-X-X-X-X-X-X-X-X-X-X-X-X-X-X-X-X-X-X-X-X",
"-X-X-X-X-X-X-X-X-X-X-X-X-X-X-X-X-X-X-X-X-X-X-X-X-X-X-X-X-X-X-X-X-X-X-X-X-X-X-X-X-X-X-X-X-X-X-X-X-X-X-X-X-X-X-X-X-X-X-X-X-X-X-X-X",
"-X-X-X-X-X-X-X-X-X-X-X-X-X-X-X-X-X-X-X-X-X-X-X-X-X-X-X-X-X-X-X-X-X-X-X-X-X-X-X-X-X-X-X-X-X-X-X-X-X-X-X-X-X-X-X-X-X-X-X-X-X-X-X-X",
"-X-X-X-X-X-X-X-X-X-X-X-X-X-X-X-X-X-X-X-X-X-X-X-X-X-X-X-X-X-X-X-X-X-X-X-X-X-X-X-X-X-X-X-X-X-X-X-X-X-X-X-X-X-X-X-X-X-X-X-X-X-X-X-X",
"-X-X-X-X-X-X-X-X-X-X-X-X-X-X-X-X-X-X-X-X-X-X-X-X-X-X-X-X-X-X-X-X-X-X-X-X-X-X-X-X-X-X-X-X-X-X-X-X^ -X-X-X-X-X-X-X-X-X-X-X-X-X-X-X",
"-X-X-X-X-X-X-X-X-X-X-X-X-X-X-X-X-X-X-X-X-X-X-X-X-X-X-X-X-X-X-X-X-X-X-X-X-X-X-X-X-X-X-X-X-X-X-X-X^ -X-X-X-X-X-X-X-X-X-X-X-X-X-X-X",
"-X-X-X-X-X-X-X-X-X-X-X-X-X-X-X-X-X-X-X-X-X-X-X-X-X-X-X-X-X-X-X-X-X-X-X-X-X-X-X-X-X-X-X-X-X-X-X-Xd.-X-X-X-X-X-X-X-X-X-X-X-X-X-X-X",
"-X-X-X-X-X-X-X-X-X-X-X-X-X-X-X-X-X-X-X-X-X-X-X-X-X-X-X-X-X-X-X-X-X-X-X-X-X-X-X-X-X-X-X-X-X-X-X-XG.-X-X-X-X-X-X-X-X-X-X-X-X-X-X-X",
"-X-X-X-X-X-X-X-X-X-X-X-X-X-X-X-X-X-X-X-X-X-X-X-X-X-X-X-X-X-X-X-X-X-X-X-X-X-X-X-X-X-X-X-X-X-X-Xa.*XF.~ -X-X-X-X-X-X-X-X-X-X-X-X-X",
"-X-X-X-X-X-X-X-X-X-X-X-X-X-X-X-X-X-X-X-X-X-X-X-X-X-X-X-X-X-X-X-X-X-X-X-X-X-X-X-X-X-X-X-X  o I :.M.:.1   -X-X-X-X-X-X-X-X-X-X-X-X",
"-X-X-X-X-X-X-X-X-X-X-X-X-X-X-X-X-X-X-X-X-X-X-X-X-X-X-X-X-X-X-X-X-X-X-X-X-X-X-X-X-X-X-X-X| $.=.,.z l X. .-X-X-X-X-X-X-X-X-X-X-X-X",
"-X-X-X-X-X-X-X-X-X-X-X-X-X-X-X-X-X-X-X-X-X-X-X-X-X-X-X-X-X-X-X-X-X-X-X-X-X-X-X-X-Xk a { n.P.K.K.L.L.P.6.{ -X-X-X-X-X-X-X-X-X-X-X",
"-X-X-X-X-X-X-X-X-X-X-X-X-X-X-X-X-X-X-X-X-X-X-X-X-X-X-X-X-X-X-X-X-X-X-X-X-X-X-X=.w.q.6.q.(.[.).).`.`.W.6.2.@X=X-X-X-X-X-X-X-X-X-X",
"-X-X-X-X-X-X-X-X-X-X-X-X-X-X-X-X-X-X-X-X-X-X-X-X-X-X-X-X-X-X-X-X-X-X-X-X-X-X[ 9.8.9.I./.{.}.}.}.}.+X(.q.%.J.J.-X-X-X-X-X-X-X-X-X",
"-X-X-X-X-X-X-X-X-X-X-X-X-X-X-X-X-X-X-X-X-X-X-X-X-X-X-X-X-X-X-X-X-X-X-X-X-X2.R.U.8.` Y.}./.W.!.W.W.Q.L.1.8.j.h.-X-X-X-X-X-X-X-X-X",
"-X-X-X-X-X-X-X-X-X-X-X-X-X-X-X-X-X-X-X-X-X-X-X-X-X-X-X-X-X-X-X-X-X-X-X-X  E.}._.n.' A._.e.5.q.n.n.-.a I g.Z.v.s a -X-X-X-X-X-X-X",
"-X-X-X-X-X-X-X-X-X-X-X-X-X-X-X-X-X-X-X-X-X-X-X-X-X-X-X-X-X-X-X-X-X-X-X-X. -.5.1.X.XX$Xj.q.#.K.[.).`.W.5.( ~ &.q.=.K # -X-X-X-X-X",
"-X-X-X-X-X-X-X-X-X-X-X-X-X-X-X-X-X-X-X-X-X-X-X-X-X-X-X-X-X-X-X-X-X-X-X@ #.#. .K > b.v.p.@Xb.q.}.+XU.6.n.+.*.6.n.;.} q -X-X-X-X-X",
"-X-X-X-X-X-X-X-X-X-X-X-X-X-X-X-X-X-X-X-X-X-X-X-X-X-X-X-X-X-X-X-X-X-X=.L.R.n.X.p 6.K : a.oXc.*./.{.n.L 1.=.5.6.5.=. .i -X-X-X-X-X",
"-X-X-X-X-X-X-X-X-X-X-X-X-X-X-X-X-X-X-X-X-X-X-X-X-X-X-X-X-X-X-X-X-X  L.+X}.T.@.X.{.Y.~ ^ i.^ +.P.).Q.=.e o.#.@.@.=. .i -X-X-X-X-X",
"-X-X-X-X-X-X-X-X-X-X-X-X-X-X-X-X-X-X-X-X-X-X-X-X-X-X-X-X-X-X-X-X-X  n.|.}.q.k w.).}.T.m E x 0.[.}.R.=.r K L K L =.} ; -X-X-X-X-X",
"-X-X-X-X-X-X-X-X-X-X-X-X-X-X-X-X-X-X-X-X-X-X-X-X-X-X-X-X-X-X-X-XS C M.`.R.6.n.).}./.L.;.$.P._.}.R.P.3.r e q 8 = * * = -X-X-X-X-X",
"-X-X-X-X-X-X-X-X-X-X-X-X-X-X-X-X-X-X-X-X-X-X-X-X-X-X-X-X-X-X-X-XG C S.#Xb.;.m.W.E.L.6.n.~._./.W.w.5.#.i 9 8 a %.u.y.{ -X-X-X-X-X",
"-X-X-X-X-X-X-X-X-X-X-X-X-X-X-X-X-X-X-X-X-X-X-X-X-X-X-X-X-X-X-X-X-XO S.&Xf.B T X.- ,.q.m.&X^.<.5.w...0 p q 0 | L. X'.O.-X-X-X-X-X",
"-X-X-X-X-X-X-X-X-X-X-X-X-X-X-X-X-X-X-X-X-X-X-X-X-X-X-X-X-X-X-X-X-X$.9.m.Z B ! @.8 ; k.F.&.u K $.@.} r q p j p  .t.,.< d x -X-X-X",
"-X-X-X-X-X-X-X-X-X-X-X-X-X-X-X-X-X-X-X-X-X-X-X-X-X-X-X-X-X-X-X-X-Xp #.e.Q.>.c -.Q.<.V p.# | m././.1.  9 e p K p | u 3 V v -X-X-X",
"-X-X-X-X-X-X-X-X-X-X-X-X-X-X-X-X-X-X-X-X-X-X-X-X-X-X-X-X-X-X-X-X-X  { n.(.9.+.P.W.4.s.A._ @.L././.1.  9 8 u p u e 5 h D v -X-X-X",
"-X-X-X-X-X-X-X-X-X-X-X-X-X-X-X-X-X-X-X-X-X-X-X-X-X-X-X-X-X-X-X-X-X# [ *.5.,.U.|.[ v S.&Xa.c k @.$.K q 9 9 9 9 8 8 9 H S v -X-X-X",
"-X-X-X-X-X-X-X-X-X-X-X-X-X-X-X-X-X-X-X-X-X-X-X-X-X-X-X-X-X-X-X-X-X> [ -.@.R.|.). .g ] s./ 3 $.q.#.#. .6 9 9 y x d n D S v -X-X-X",
"-X-X-X-X-X-X-X-X-X-X-X-X-X-X-X-X-X-X-X-X-X-X-X-X-X-X-X-X-X-X-X-X-Xo o.6.L Q.`.U.#.L N E B *.5.1.;.$.K 6 q w y x d S F D b -X-X-X",
"-X-X-X-X-X-X-X-X-X-X-X-X-X-X-X-X-X-X-X-X-X-X-X-X-X-X-X-X-X-X-X-X-XX ..4.8 Q./.=...j y R Y 4.5.@.$.L r 9 9 7 2 v x M A V x -X-X-X",
"-X-X-X-X-X-X-X-X-X-X-X-X-X-X-X-X-X-X-X-X-X-X-X-X-X-X-X-X-X-X-X-X-Xe n B < Q./. .| X.{ k @.@.#.@.j j i 9 -X-X-Xx x d d d -X-X-X-X",
"-X-X-X-X-X-X-X-X-X-X-X-X-X-X-X-X-X-X-X-X-X-X-X-X-X-X-X-X-X-X-X-XD D D D < W.W.K /.{.U.- j j  .-.L j i 9 -X-X-X-X-X-X-X-X-X-X-X-X",
"-X-X-X-X-X-X-X-X-X-X-X-X-X-X-X-X-X-X-X-X-X-X-X-X-X-X-X-X-X-X-X-X-XJ H H i 1.6.q.}.(.P.1.X.L K } j j i 9 -X-X-X-X-X-X-X-X-X-X-X-X",
"-X-X-X-X-X-X-X-X-X-X-X-X-X-X-X-X-X-X-X-X-X-X-X-X-X-X-X-X-X-X-X-X-X5 7 7 j - K 6.T.w.4.9.;.} q r i i i 9 -X-X-X-X-X-X-X-X-X-X-X-X",
"-X-X-X-X-X-X-X-X-X-X-X-X-X-X-X-X-X-X-X-X-X-X-X-X-X-X-X-X-X-X-X-X-X9 q q p j e #   { #.$.#.K 4 9 0 9 9 9 -X-X-X-X-X-X-X-X-X-X-X-X",
"-X-X-X-X-X-X-X-X-X-X-X-X-X-X-X-X-X-X-X-X-X-X-X-X-X-X-X-X-X-X-X-X-X9 q 9 9 q 9 9 j i e u u p i 9 9 s 9 -X-X-X-X-X-X-X-X-X-X-X-X-X",
"-X-X-X-X-X-X-X-X-X-X-X-X-X-X-X-X-X-X-X-X-X-X-X-X-X-X-X-X-X-X-X-X-X9 q q 9         . # 8 6 e e 9 9 3 n D U +   + -X-X-X-X-X-X-X-X",
"-X-X-X-X-X-X-X-X-X-X-X-X-X-X-X-X-X-X-X-X-X-X-X-X-X-X-X-X-X-X-X-X-Xq q 9 $ ,.q.6.q.,.[ # $ . # 9 & 1 m W m N.A.' J -X-X-X-X-X-X-X",
"-X-X-X-X-X-X-X-X-X-X-X-X-X-X-X-X-X-X-X-X-X-X-X-X-X-X-X-X-X-X-X-X-Xq 9 q # Q.+X}.|.R.,.9 [ | k 0 P T Q V + .X&XC.F , -X-X-X-X-X-X",
"-X-X-X-X-X-X-X-X-X-X-X-X-X-X-X-X-X-X-X-X-X-X-X-X-X-X-X-X-X-X-X-X-X-Xq [ 2.W.+X).P.n.2.;./.[.Y.m C.D.l.+ : f l.C.F , -X-X-X-X-X-X",
"-X-X-X-X-X-X-X-X-X-X-X-X-X-X-X-X-X-X-X-X-X-X-X-X-X-X-X-X-X-X-X-X-X-X8 K q.).).U.3.1.=.1.[.}.[.Q.M.XXOXx.B.x.F.$X_   -X-X-X-X-X-X",
"-X-X-X-X-X-X-X-X-X-X-X-X-X-X-X-X-X-X-X-X-X-X-X-X-X-X-X-X-X-X-X-X-X-X4 a =.U.U.;.-. ...r.`.{.).E.%..X$XH.V.B.G..XQ + -X-X-X-X-X-X",
"-X-X-X-X-X-X-X-X-X-X-X-X-X-X-X-X-X-X-X-X-X-X-X-X-X-X-X-X-X-X-X-X-X-Xq q i > j #.=.L ..m.(.{.T.g < l.D.V.F c c 1 d f -X-X-X-X-X-X",
"-X-X-X-X-X-X-X-X-X-X-X-X-X-X-X-X-X-X-X-X-X-X-X-X-X-X-X-X-X-X-X-X-X-X9 u j 3 3 [ -.Y Y =._ q.K.q.T W ) ( D D N d x 2 -X-X-X-X-X-X",
"-X-X-X-X-X-X-X-X-X-X-X-X-X-X-X-X-X-X-X-X-X-X-X-X-X-X-X-X-X-X-X-X-X-X-Xu n x.z.w } 2 P #.c I @.&.W V V A D D S A v 2 -X-X-X-X-X-X",
"-X-X-X-X-X-X-X-X-X-X-X-X-X-X-X-X-X-X-X-X-X-X-X-X-X-X-X-X-X-X-X-X-X-X-X-Xc c.v.7 0 ` :.| t 0 t c J N M A A A S N n -X-X-X-X-X-X-X",
"-X-X-X-X-X-X-X-X-X-X-X-X-X-X-X-X-X-X-X-X-X-X-X-X-X-X-X-X-X-X-X-X-X-X-X-Xg -X-X9 % B.B.X 9 9 9 7 7 3 d d d d d d -X-X-X-X-X-X-X-X",
"-X-X-X-X-X-X-X-X-X-X-X-X-X-X-X-X-X-X-X-X-X-X-X-X-X-X-X-X-X-X-X-X-X-X-X-X-X-X-X-X5 Q Q 7 9 q q 9 q e e -X-X-X-X-X-X-X-X-X-X-X-X-X",
"-X-X-X-X-X-X-X-X-X-X-X-X-X-X-X-X-X-X-X-X-X-X-X-X-X-X-X-X-X-X-X-X-X-X-X-X-X-X-X-Xq t t q q q w 9 w 9 -X-X-X-X-X-X-X-X-X-X-X-X-X-X",
"-X-X-X-X-X-X-X-X-X-X-X-X-X-X-X-X-X-X-X-X-X-X-X-X-X-X-X-X-X-X-X-X-X-X-X-X-X-X-X-X-X-X-X-X-X-X-X-X-X-X-X-X-X-X-X-X-X-X-X-X-X-X-X-X",
"-X-X-X-X-X-X-X-X-X-X-X-X-X-X-X-X-X-X-X-X-X-X-X-X-X-X-X-X-X-X-X-X-X-X-X-X-X-X-X-X-X-X-X-X-X-X-X-X-X-X-X-X-X-X-X-X-X-X-X-X-X-X-X-X",
"-X-X-X-X-X-X-X-X-X-X-X-X-X-X-X-X-X-X-X-X-X-X-X-X-X-X-X-X-X-X-X-X-X-X-X-X-X-X-X-X-X-X-X-X-X-X-X-X-X-X-X-X-X-X-X-X-X-X-X-X-X-X-X-X",
"-X-X-X-X-X-X-X-X-X-X-X-X-X-X-X-X-X-X-X-X-X-X-X-X-X-X-X-X-X-X-X-X-X-X-X-X-X-X-X-X-X-X-X-X-X-X-X-X-X-X-X-X-X-X-X-X-X-X-X-X-X-X-X-X",
"-X-X-X-X-X-X-X-X-X-X-X-X-X-X-X-X-X-X-X-X-X-X-X-X-X-X-X-X-X-X-X-X-X-X-X-X-X-X-X-X-X-X-X-X-X-X-X-X-X-X-X-X-X-X-X-X-X-X-X-X-X-X-X-X",
"-X-X-X-X-X-X-X-X-X-X-X-X-X-X-X-X-X-X-X-X-X-X-X-X-X-X-X-X-X-X-X-X-X-X-X-X-X-X-X-X-X-X-X-X-X-X-X-X-X-X-X-X-X-X-X-X-X-X-X-X-X-X-X-X",
"-X-X-X-X-X-X-X-X-X-X-X-X-X-X-X-X-X-X-X-X-X-X-X-X-X-X-X-X-X-X-X-X-X-X-X-X-X-X-X-X-X-X-X-X-X-X-X-X-X-X-X-X-X-X-X-X-X-X-X-X-X-X-X-X",
"-X-X-X-X-X-X-X-X-X-X-X-X-X-X-X-X-X-X-X-X-X-X-X-X-X-X-X-X-X-X-X-X-X-X-X-X-X-X-X-X-X-X-X-X-X-X-X-X-X-X-X-X-X-X-X-X-X-X-X-X-X-X-X-X",
"-X-X-X-X-X-X-X-X-X-X-X-X-X-X-X-X-X-X-X-X-X-X-X-X-X-X-X-X-X-X-X-X-X-X-X-X-X-X-X-X-X-X-X-X-X-X-X-X-X-X-X-X-X-X-X-X-X-X-X-X-X-X-X-X",
"-X-X-X-X-X-X-X-X-X-X-X-X-X-X-X-X-X-X-X-X-X-X-X-X-X-X-X-X-X-X-X-X-X-X-X-X-X-X-X-X-X-X-X-X-X-X-X-X-X-X-X-X-X-X-X-X-X-X-X-X-X-X-X-X"
};
