/* XPM */
static char *result[] = {
/* columns rows colors chars-per-pixel */
"64 64 168 2 ",
"   c #010100",
".  c #1D030D",
"X  c #00180E",
"o  c #00130F",
"O  c #001A11",
"+  c #2B1C1F",
"@  c #00221D",
"#  c #002B26",
"$  c #002E2A",
"%  c #062524",
"&  c #1C2C2E",
"*  c #00312C",
"=  c #002F30",
"-  c #003633",
";  c #003833",
":  c #013D3C",
">  c #083E3D",
",  c #1F3737",
"<  c #173836",
"1  c #242325",
"2  c #2A2729",
"3  c #262B2D",
"4  c #2A2B2D",
"5  c #272427",
"6  c #302D2F",
"7  c #2D2E31",
"8  c #302F33",
"9  c #243235",
"0  c #2D3134",
"q  c #2D3539",
"w  c #233B3D",
"e  c #2E393D",
"r  c #303236",
"t  c #32353B",
"y  c #33393E",
"u  c #02403F",
"i  c #143F42",
"p  c #253D41",
"a  c #353C42",
"s  c #3A3D43",
"d  c #004346",
"f  c #0A4140",
"g  c #0D4748",
"h  c #064A4C",
"j  c #0D4949",
"k  c #124C4C",
"l  c #1C4D4F",
"z  c #1F4649",
"x  c #0D4E51",
"c  c #114E52",
"v  c #1E4B50",
"b  c #0B5154",
"n  c #035557",
"m  c #125154",
"M  c #1B5254",
"N  c #1A565B",
"B  c #1D5A5E",
"V  c #17565B",
"C  c #2A4343",
"Z  c #3A4046",
"A  c #3D4349",
"S  c #3C4B4F",
"D  c #294D52",
"F  c #384D52",
"G  c #2B5154",
"H  c #225659",
"J  c #27565B",
"K  c #3A555C",
"L  c #3D595F",
"P  c #005C60",
"I  c #1F5A60",
"U  c #215C61",
"Y  c #15656A",
"T  c #007977",
"R  c #007471",
"E  c #2B6266",
"W  c #266469",
"Q  c #2C666C",
"!  c #2D6A6F",
"~  c #25686D",
"^  c #35696D",
"/  c #2C6B71",
"(  c #346C71",
")  c #367379",
"_  c #3A767E",
"`  c #3A797E",
"'  c #377A7F",
"]  c #444047",
"[  c #41454C",
"{  c #464C53",
"}  c #494D55",
"|  c #4B5057",
" . c #475158",
".. c #4C545B",
"X. c #51565D",
"o. c #495C63",
"O. c #555B63",
"+. c #595E66",
"@. c #5C626B",
"#. c #4E6A71",
"$. c #5A6D75",
"%. c #60656E",
"&. c #666971",
"*. c #6E6E76",
"=. c #65757D",
"-. c #6C747D",
";. c #3E7C83",
":. c #427D84",
">. c #637F86",
",. c #747A83",
"<. c #008584",
"1. c #009D9B",
"2. c #2C8185",
"3. c #3A878A",
"4. c #00A19C",
"5. c #00AAA7",
"6. c #03ABA9",
"7. c #44848C",
"8. c #458287",
"9. c #5B868E",
"0. c #568B8F",
"q. c #458891",
"w. c #498B92",
"e. c #558B90",
"r. c #4F959C",
"t. c #52959C",
"y. c #52989F",
"u. c #7E848C",
"i. c #638A93",
"p. c #68989E",
"a. c #73959E",
"s. c #4F98A0",
"d. c #559CA3",
"f. c #6A9DA3",
"g. c #7A9EA8",
"h. c #40A8AB",
"j. c #57A0A7",
"k. c #55A1AA",
"l. c #5AA3AC",
"z. c #5EAAB3",
"x. c #56A9B2",
"c. c #46B1B5",
"v. c #61ACB5",
"b. c #65B2BC",
"n. c #6DB5BD",
"m. c #6ABBC4",
"M. c #45C2C4",
"N. c #74C1CA",
"B. c #868B93",
"V. c #949DA6",
"C. c #979FA8",
"Z. c #989FA8",
"A. c #8FA0AA",
"S. c #9BA3AC",
"D. c #87AEB7",
"F. c #9DAEB7",
"G. c #96B3BC",
"H. c #A2AAB3",
"J. c #A0A7B1",
"K. c #ABB2BC",
"L. c #89B9C2",
"P. c #B3B8C2",
"I. c #85C7CF",
"U. c #85C8D0",
"Y. c #BAC2CC",
"T. c #B7C0CA",
"R. c #A9E4EC",
"E. c None",
/* pixels */
"E.E.E.E.E.E.E.E.E.E.E.E.E.  { ,.O.Z.P.P... ...5 2 2 7 7 4 4 4 4 4 4 4 4 7 4 4 4 1 ..| } K.P.Z.O.,...  E.E.E.E.E.E.E.E.E.E.E.E.E.",
"E.E.E.E.E.E.E.E.E.E.E.E.  u.H.J.@.S.P.B.[ O...3 v p 1 1 1 5 1 1 3 5 1 5 1 1 1 5 1 X.....K.Y.S...,.Z.B.  E.E.E.E.E.E.E.E.E.E.E.E.",
"E.E.E.E.E.E.E.E.E.E.E.E.  J.T.V.@.B.A.i.s { { 1 D p t ] A S [ A 7 a [ [ [ [ Z p 3 { [ } L.H.B.@.&.S.V.  E.E.E.E.E.E.E.E.E.E.E.E.",
"E.E.E.E.E.E.E.E.E.E.E.E.  V.S...O.X.9.z.L t a q 5 0 { @.@.+.@.O.7 ..@.+.+.@.o.b 0 t t K v.9.*.B.$.-.&.& E.E.E.E.E.E.E.E.E.E.E.E.",
"E.E.E.E.E.E.E.E.E.E.E.E.+ F $.,.O.*.,.$.:.K K :.e 4 { @.@. .a s a ..@.@.@...q 0 t D N H P V.P.K.n.a.&.P 5.E.E.E.E.E.E.E.E.E.E.E.",
"E.E.E.E.E.E.E.E.E.E.E.v.J <.3.-.f.f.#.3 M < $ d @ O q { { A a 7 7 [  .{ } q o o % - $ o   9.D.L.g.=.{ C E.E.E.E.E.E.E.E.E.E.E.E.",
"E.E.E.E.E.E.E.E.E.E.E.v.W <.2.o.l.3.~ _ ;.;.e.f.:.;.( 9 0 q 7 5 2 7 7 q 9 ( 7.;.;.` 0.f.:.Y 2.k.=.] . + E.E.E.E.E.E.E.E.E.E.E.E.",
"E.E.E.E.E.E.E.E.E.E.E.E.E.3 D ~ ;.j _ m.b.x.I.R.m.m.r.$ 7 7 t r 7 7 7 3 $ r.m.b.b.v.U.R.N.) j ` n D C E.E.E.E.E.E.E.E.E.E.E.E.E.",
"E.E.E.E.E.E.E.E.E.E.E.E.E.4.M.b.( $ :.b.E m E ^ l j h f y ..@.O.a o.O.q f h k k B V ( t.m.;.; B # 1.6.E.E.E.E.E.E.E.E.E.E.E.E.E.",
"E.E.E.E.E.E.E.E.E.E.E.E.b.c.E.E.f # ! t.! w.d.r.y.d.:.- 0 [ } { s { [ 7 ; :.d.y.d.d.d.d.q.U - B d.h.E.b.E.E.E.E.E.E.E.E.E.E.E.E.",
"E.E.E.E.E.E.E.E.E.E.E.E.b.E.E.E.T n H ;.:.d.v.z.z.m.d.$ 3 7 0 0 a q 7 4 $ d.m.z.v.z.v.l.N : ; H l.E.E.b.E.E.E.E.E.E.E.E.E.E.E.E.",
"E.E.E.E.E.E.E.E.E.E.E.E.E.E.E.E.6.R J 8.7.:.;._ ) j.y.* 3 4 4 4 5 4 4 3 $ y.l.) _ _ ;.:.I h u E.h E.E.E.E.E.E.E.E.E.E.E.E.E.E.E.",
"E.E.E.E.E.E.E.E.E.E.E.E.E.E.E.N E.u H q.b.7.d g j M m u 7 4 3 4 4 4 4 7 i x M j g c ( 8.I h : E.E.E.E.E.E.E.E.E.E.E.E.E.E.E.E.E.",
"E.E.E.E.E.E.E.E.E.E.E.E.E.E.E.E.E.# ~ q.d.7.Q h c : * & 4 4 7 7 7 7 4 3 & $ : c x c U Q I n > E.E.E.E.E.E.E.E.E.E.E.E.E.E.E.E.E.",
"E.E.E.E.E.E.E.E.E.E.E.E.E.E.E.E.E.< H ) ! ) ! x b G S ] 4 4 4 4 4 2 7 t Z S G b c m x h b g , E.E.E.E.E.E.E.E.E.E.E.E.E.E.E.E.E.",
"E.E.E.E.E.E.E.E.E.E.E.E.E.E.E.E.E.E.9 : : ; : u : ..@.@.t 4 7 E.E.7 q s @.@...: > > d u d w E.E.E.E.E.E.E.E.E.E.E.E.E.E.E.E.E.E.",
"E.E.E.E.E.E.E.E.E.E.E.E.E.E.E.E.E.E.E.E.E.E.0 0 e ..@.+.Z 0 4 E.E.4 0 A @.| a a 7 0 E.E.E.E.E.E.E.E.E.E.E.E.E.E.E.E.E.E.E.E.E.E.",
"E.E.E.E.E.E.E.E.E.E.E.E.E.E.E.E.E.E.E.E.E.6 4 3 y O.+.{ Z t 4 E.E.4 t Z { A y s y r 4 E.E.E.E.E.E.E.E.E.E.E.E.E.E.E.E.E.E.E.E.E.",
"E.E.E.E.E.E.E.E.E.E.E.E.E.E.E.E.E.E.E.E.E.4 r 4 0 | } 0 t r 4 E.E.4 r t 0 y a t y t 7 E.E.E.E.E.E.E.E.E.E.E.E.E.E.E.E.E.E.E.E.E.",
"E.E.E.E.E.E.E.E.E.E.E.E.E.E.E.E.E.E.E.E.E.4 4 4 4 t r 4 3 8 E.E.E.E.7 4 3 y t 4 4 4 7 E.E.E.E.E.E.E.E.E.E.E.E.E.E.E.E.E.E.E.E.E.",
"E.E.E.E.E.E.E.E.E.E.E.E.E.E.E.E.E.E.E.E.E.E.r 6 4 7 7 4 6 0 E.E.E.E.0 4 4 0 4 4 4 4 E.E.E.E.E.E.E.E.E.E.E.E.E.E.E.E.E.E.E.E.E.E.",
"E.E.E.E.E.E.E.E.E.E.E.E.E.E.E.E.E.E.E.E.E.E.E.6 0 7 r 4 0 E.E.E.E.E.E.r 4 r r 6 r E.E.E.E.E.E.E.E.E.E.E.E.E.E.E.E.E.E.E.E.E.E.E.",
"E.E.E.E.E.E.E.E.E.E.E.E.E.E.E.E.E.E.E.E.E.E.E.E.E.E.E.E.E.E.E.E.E.E.E.E.E.E.E.E.E.E.E.E.E.E.E.E.E.E.E.E.E.E.E.E.E.E.E.E.E.E.E.E.",
"E.E.E.E.E.E.E.E.E.E.E.E.E.E.E.E.E.E.E.E.E.E.E.E.E.E.E.E.E.E.E.E.E.E.E.E.E.E.E.E.E.E.E.E.E.E.E.E.E.E.E.E.E.E.E.E.E.E.E.E.E.E.E.E.",
"E.E.E.E.E.E.E.E.E.E.E.E.E.E.E.E.E.E.E.E.E.E.E.E.E.E.E.E.E.E.E.E.E.E.E.E.E.E.E.E.E.E.E.E.E.E.E.E.E.E.E.E.E.E.E.E.E.E.E.E.E.E.E.E.",
"E.E.E.E.E.E.E.E.E.E.E.E.E.E.E.E.E.E.E.E.E.E.E.E.E.E.E.E.E.E.E.E.E.E.E.E.E.E.E.E.E.E.E.E.E.E.E.E.E.E.E.E.E.E.E.E.E.E.E.E.E.E.E.E.",
"E.E.E.E.E.E.E.E.E.E.E.E.E.E.E.E.E.E.E.E.E.E.E.E.E.E.E.E.E.E.E.E.E.E.E.E.E.E.E.E.E.E.E.E.E.E.E.E.E.E.E.E.E.E.E.E.E.E.E.E.E.E.E.E.",
"E.E.E.E.E.E.E.E.E.E.E.E.E.E.E.E.E.E.E.E.E.E.E.E.E.E.E.E.E.E.E.E.E.E.E.E.E.E.E.E.E.E.E.E.E.E.E.E.E.E.E.E.E.E.E.E.E.E.E.E.E.E.E.E.",
"E.E.E.E.E.E.E.E.E.E.E.E.E.E.E.E.E.E.E.E.E.E.E.E.E.E.E.E.E.E.E.E.E.E.E.E.E.E.E.E.E.E.E.E.E.E.E.E.E.E.E.E.E.E.E.E.E.E.E.E.E.E.E.E.",
"E.E.E.E.E.E.E.E.E.E.E.E.E.E.E.E.E.E.E.E.E.E.E.E.E.E.E.E.E.E.E.E.E.E.E.E.E.E.E.E.E.E.E.E.E.E.E.E.E.E.E.E.E.E.E.E.E.E.E.E.E.E.E.E.",
"E.E.E.E.E.E.E.E.E.E.E.E.E.E.E.E.E.E.E.E.E.E.E.E.E.E.E.E.E.E.E.E.E.E.E.E.E.E.E.E.E.E.E.E.E.E.E.E.E.E.E.E.E.E.E.E.E.E.E.E.E.E.E.E.",
"E.E.E.E.E.E.E.E.E.E.E.E.E.E.E.E.E.E.E.E.E.E.E.E.E.E.E.E.E.E.E.E.E.E.E.E.E.E.E.E.E.E.E.E.E.E.E.E.E.E.E.E.E.E.E.E.E.E.E.E.E.E.E.E.",
"E.E.E.E.E.E.E.E.E.E.E.E.E.E.E.E.E.E.E.E.E.E.E.E.E.E.E.E.E.E.E.E.E.E.E.E.E.E.E.E.E.E.E.E.E.E.E.E.E.E.E.E.E.E.E.E.E.E.E.E.E.E.E.E.",
"E.E.E.E.E.E.E.E.E.E.E.E.E.E.E.E.E.E.E.E.E.E.E.E.E.E.E.E.E.E.E.E.E.E.E.E.E.E.E.E.E.E.E.E.E.E.E.E.E.E.E.E.E.E.E.E.E.E.E.E.E.E.E.E.",
"E.E.E.E.E.E.E.E.E.E.E.E.E.E.E.E.E.E.E.E.E.E.E.E.E.E.E.E.E.E.E.E.E.E.E.E.E.E.E.E.E.E.E.E.E.E.E.E.E.E.E.E.E.E.E.E.E.E.E.E.E.E.E.E.",
"E.E.E.E.E.E.E.E.E.E.E.E.E.E.E.E.E.E.E.E.E.E.E.E.E.E.E.E.E.E.E.E.E.E.E.E.E.E.E.E.E.E.E.E.E.E.E.E.E.E.E.E.E.E.E.E.E.E.E.E.E.E.E.E.",
"E.E.E.E.E.E.E.E.E.E.E.E.E.E.E.E.E.E.E.E.E.E.E.E.E.E.E.E.E.E.E.E.E.E.E.E.E.E.E.E.E.E.E.E.E.E.E.E.E.E.E.E.E.E.E.E.E.E.E.E.E.E.E.E.",
"E.E.E.E.E.E.E.E.E.E.E.E.E.E.E.E.E.E.E.E.E.E.E.E.E.E.E.E.E.E.E.E.E.E.E.E.E.E.E.E.E.E.E.E.E.E.E.E.E.E.E.E.E.E.E.E.E.E.E.E.E.E.E.E.",
"E.E.E.E.E.E.E.E.E.E.E.E.E.E.E.E.E.E.E.E.E.E.E.E.E.E.E.E.E.E.E.E.E.E.E.E.E.E.E.E.E.E.E.E.E.E.E.E.E.E.E.E.E.E.E.E.E.E.E.E.E.E.E.E.",
"E.E.E.E.E.E.E.E.E.E.E.E.E.E.E.E.E.E.E.E.E.E.E.E.E.E.E.E.E.E.E.E.E.E.E.E.E.E.E.E.E.E.E.E.E.E.E.E.E.E.E.E.E.E.E.E.E.E.E.E.E.E.E.E.",
"E.E.E.E.E.E.E.E.E.E.E.E.E.E.E.E.E.E.E.E.E.E.E.E.E.E.E.E.E.E.E.E.E.E.E.E.E.E.E.E.E.E.E.E.E.E.E.E.E.E.E.E.E.E.E.E.E.E.E.E.E.E.E.E.",
"E.E.E.E.E.E.E.E.E.E.E.E.E.E.E.E.E.E.E.E.E.E.E.E.E.E.E.E.E.E.E.E.E.E.E.E.E.E.E.E.E.E.E.E.E.E.E.E.E.E.E.E.E.E.E.E.E.E.E.E.E.E.E.E.",
"E.E.E.E.E.E.E.E.E.E.E.E.E.E.E.E.E.E.E.E.E.E.E.E.E.E.E.E.E.E.E.E.E.E.E.E.E.E.E.E.E.E.E.E.E.E.E.E.E.E.E.E.E.E.E.E.E.E.E.E.E.E.E.E.",
"E.E.E.E.E.E.E.E.E.E.E.E.E.E.E.E.E.E.E.E.E.E.E.E.E.E.E.E.E.E.E.E.E.E.E.E.E.E.E.E.E.E.E.E.E.E.E.E.E.E.E.E.E.E.E.E.E.E.E.E.E.E.E.E.",
"E.E.E.E.E.E.E.E.E.E.E.E.E.E.E.E.E.E.E.E.E.E.E.E.E.E.E.E.E.E.E.E.E.E.E.E.E.E.E.E.E.E.E.E.E.E.E.E.E.E.E.E.E.E.E.E.E.E.E.E.E.E.E.E.",
"E.E.E.E.E.E.E.E.E.E.E.E.E.E.E.E.E.E.E.E.E.E.E.E.E.E.E.E.E.E.E.E.E.E.E.E.E.E.E.E.E.E.E.E.E.E.E.E.E.E.E.E.E.E.E.E.E.E.E.E.E.E.E.E.",
"E.E.E.E.E.E.E.E.E.E.E.E.E.E.E.E.E.E.E.E.E.E.E.E.E.E.E.E.E.E.E.E.E.E.E.E.E.E.E.E.E.E.E.E.E.E.E.E.E.E.E.E.E.E.E.E.E.E.E.E.E.E.E.E.",
"E.E.E.E.E.E.E.E.E.E.E.E.E.E.E.E.E.E.E.E.E.E.E.E.E.E.E.E.E.E.E.E.E.E.E.E.E.E.E.E.E.E.E.E.E.E.E.E.E.E.E.E.E.E.E.E.E.E.E.E.E.E.E.E.",
"E.E.E.E.E.E.E.E.E.E.E.E.E.E.E.E.E.E.E.E.E.E.E.E.E.E.E.E.E.E.E.E.E.E.E.E.E.E.E.E.E.E.E.E.E.E.E.E.E.E.E.E.E.E.E.E.E.E.E.E.E.E.E.E.",
"E.E.E.E.E.E.E.E.E.E.E.E.E.E.E.E.E.E.E.E.E.E.E.E.E.E.E.E.E.E.E.E.E.E.E.E.E.E.E.E.E.E.E.E.E.E.E.E.E.E.E.E.E.E.E.E.E.E.E.E.E.E.E.E.",
"E.E.E.E.E.E.E.E.E.E.E.E.E.E.E.E.E.E.E.E.E.E.E.E.E.E.E.E.E.E.E.E.E.E.E.E.E.E.E.E.E.E.E.E.E.E.E.E.E.E.E.E.E.E.E.E.E.E.E.E.E.E.E.E.",
"E.E.E.E.E.E.E.E.E.E.E.E.E.E.E.E.E.E.E.E.E.E.E.E.E.E.E.E.E.E.E.E.E.E.E.E.E.E.E.E.E.E.E.E.E.E.E.E.E.E.E.E.E.E.E.E.E.E.E.E.E.E.E.E.",
"E.E.E.E.E.E.E.E.E.E.E.E.E.E.E.E.E.E.E.E.E.E.E.E.E.E.E.E.E.E.E.E.E.E.E.E.E.E.E.E.E.E.E.E.E.E.E.E.E.E.E.E.E.E.E.E.E.E.E.E.E.E.E.E.",
"E.E.E.E.E.E.E.E.E.E.E.E.E.E.E.E.E.E.E.E.E.E.E.E.E.E.E.E.E.E.E.E.E.E.E.E.E.E.E.E.E.E.E.E.E.E.E.E.E.E.E.E.E.E.E.E.E.E.E.E.E.E.E.E.",
"E.E.E.E.E.E.E.E.E.E.E.E.E.E.E.E.E.E.E.E.E.E.E.E.E.E.E.E.E.E.E.E.E.E.E.E.E.E.E.E.E.E.E.E.E.E.E.E.E.E.E.E.E.E.E.E.E.E.E.E.E.E.E.E.",
"E.E.E.E.E.E.E.E.E.E.E.E.E.E.E.E.E.E.E.E.E.E.E.E.E.E.E.E.E.E.E.E.E.E.E.E.E.E.E.E.E.E.E.E.E.E.E.E.E.E.E.E.E.E.E.E.E.E.E.E.E.E.E.E.",
"E.E.E.E.E.E.E.E.E.E.E.E.E.E.E.E.E.E.E.E.E.E.E.E.E.E.E.E.E.E.E.E.E.E.E.E.E.E.E.E.E.E.E.E.E.E.E.E.E.E.E.E.E.E.E.E.E.E.E.E.E.E.E.E.",
"E.E.E.E.E.E.E.E.E.E.E.E.E.E.E.E.E.E.E.E.E.E.E.E.E.E.E.E.E.E.E.E.E.E.E.E.E.E.E.E.E.E.E.E.E.E.E.E.E.E.E.E.E.E.E.E.E.E.E.E.E.E.E.E.",
"E.E.E.E.E.E.E.E.E.E.E.E.E.E.E.E.E.E.E.E.E.E.E.E.E.E.E.E.E.E.E.E.E.E.E.E.E.E.E.E.E.E.E.E.E.E.E.E.E.E.E.E.E.E.E.E.E.E.E.E.E.E.E.E.",
"E.E.E.E.E.E.E.E.E.E.E.E.E.E.E.E.E.E.E.E.E.E.E.E.E.E.E.E.E.E.E.E.E.E.E.E.E.E.E.E.E.E.E.E.E.E.E.E.E.E.E.E.E.E.E.E.E.E.E.E.E.E.E.E.",
"E.E.E.E.E.E.E.E.E.E.E.E.E.E.E.E.E.E.E.E.E.E.E.E.E.E.E.E.E.E.E.E.E.E.E.E.E.E.E.E.E.E.E.E.E.E.E.E.E.E.E.E.E.E.E.E.E.E.E.E.E.E.E.E.",
"E.E.E.E.E.E.E.E.E.E.E.E.E.E.E.E.E.E.E.E.E.E.E.E.E.E.E.E.E.E.E.E.E.E.E.E.E.E.E.E.E.E.E.E.E.E.E.E.E.E.E.E.E.E.E.E.E.E.E.E.E.E.E.E.",
"E.E.E.E.E.E.E.E.E.E.E.E.E.E.E.E.E.E.E.E.E.E.E.E.E.E.E.E.E.E.E.E.E.E.E.E.E.E.E.E.E.E.E.E.E.E.E.E.E.E.E.E.E.E.E.E.E.E.E.E.E.E.E.E.",
"E.E.E.E.E.E.E.E.E.E.E.E.E.E.E.E.E.E.E.E.E.E.E.E.E.E.E.E.E.E.E.E.E.E.E.E.E.E.E.E.E.E.E.E.E.E.E.E.E.E.E.E.E.E.E.E.E.E.E.E.E.E.E.E."
};
