/* XPM */
static char *result[] = {
/* columns rows colors chars-per-pixel */
"65 65 89 1 ",
"  c #00111E",
". c #011523",
"X c #011926",
"o c #001628",
"O c #011D2B",
"+ c #0A1E2B",
"@ c #021E31",
"# c #01212E",
"$ c #0B212E",
"% c #032333",
"& c #0A2534",
"* c #042936",
"= c #0C2A35",
"- c #062639",
"; c #0B253A",
": c #052A3A",
"> c #0B2C3C",
", c #112734",
"< c #112935",
"1 c #112E3B",
"2 c #06313D",
"3 c #0C313D",
"4 c #12323E",
"5 c #0B2E41",
"6 c #112F41",
"7 c #0D3242",
"8 c #0E3846",
"9 c #143443",
"0 c #193644",
"q c #143945",
"w c #1B3B46",
"e c #133649",
"r c #1A3749",
"t c #153A4B",
"y c #1C3C4C",
"u c #1D3E51",
"i c #233E4C",
"p c #213D51",
"a c #17414F",
"s c #1C414E",
"d c #164152",
"f c #1D4453",
"g c #174955",
"h c #1D4956",
"j c #1E4659",
"k c #1E4D5A",
"l c #1F515C",
"z c #22424D",
"x c #29414D",
"c c #234554",
"v c #2A4552",
"b c #244956",
"n c #2A4A56",
"m c #234659",
"M c #28475C",
"N c #244B5B",
"B c #2A4D5C",
"V c #314E59",
"C c #24515D",
"Z c #2B515D",
"A c #32525E",
"S c #254E60",
"D c #2A4E61",
"F c #314D62",
"G c #265263",
"H c #2C5263",
"J c #275864",
"K c #2D5966",
"L c #2D5668",
"P c #2E5969",
"I c #325465",
"U c #385663",
"Y c #325966",
"T c #3A5B66",
"R c #335769",
"E c #345A6B",
"W c #3A5D6D",
"Q c #375D70",
"! c #3A5E71",
"~ c #35616F",
"^ c #3C626F",
"/ c #376072",
"( c #3C6273",
") c #3C6A77",
"_ c #405E69",
"` c #42606B",
"' c #426475",
"] c #416679",
"[ c #446B7B",
/* pixels */
"%rrry9yuyuicuyyuujujuueee5eu*X#2325>57737755>53>eq8797qq7>7>7ys7-",
"mWYRYIRUEWW'''']QQQQQQQRQLDSa8cAYKHHREEW!Q!WW//('((WW/('[((WIEIf7",
"I(HZZmZBMBDHHRIRDHHGSSDSLRLm24nYNmmBDLRRLELQEE//EERIIYER(WEIBKBt:",
"E(BmmmmmcfmcmccfSmmjjjMjBGEm2qCKbhhhjkNNSjjjNNBScbbmmNNNmmbmmHBt*",
"W'ZNBjZNCBBBmNmNCCCCClJVfGEC2tCKLGSSSGSSSSSGSSSSBBNBNCGBBNZZBGBe>",
"Y(BNNNBNbNjNmNNNCbbClnllfNZa*2bKSSjSBSSSSSSSSSkjkNNNNBBBGBZCNBN8-",
"E)HCJNHChhhhNBCZCCJZZCllGCCg22l~SkSjSGGGGGGLSSSSBBNSGHBCHCHNNZBt-",
"J^ZCNhNkbjhNkCCCblCCZllzkhCf22gZSSkkSSGSSSGGGGSkkmNBBCBGHBNbdmg7@",
"J~CNNgNChfhhhkNCAlllnllnZChC8:C(LSjSHGSGSSSSNSSSNNNBZHBNNNNhBJm7%",
"K~NbZhNjCNjNbNNBJVVllVllCbbZa2NKLkjSSSBSSSSNmNNSGBGHHZNbNBBNBHNr;",
"EWmmHNNbBBCNNBCCVlbbnbbbZnNYf7mBDSjSBSBZSBBjNNBBBBBBBBmmNHBmmBmt;",
"IEhNCbBNNjNNBBZZlnblzbbzZCZHt>cIDmuSBNmNBBNmmNNbhNmBDBBmmBDBMmcq;",
"HEmbBmBHMmmNBHBZVZVnvbnBZZBB9:D'DmbbBBnbmmbbnbBnmBFFRUFFFVDIUIcr;",
"IWBBmmZHZZHDGHBHnVnnbbnnZUZM96R]AnbVAnnBnBBBnBnBBVFIRIFFBMBFIBcr@",
"DIsryeyyzfzccccywzww444wzczc95MMi0qwszww0wszzssiiypcpprerrruur6;@",
"yy%%-@@O@%------====###*&*&4-%>--#O#######&===##@--;5;@O@@@@@ooOo",
"utuueeeee6555--%O%##3wq*4qyq8>25ee776579y9e5>-O:7e75555teeeutee77",
"!!!!QWEEREERRFRIbysnATYAY~^^EYYY!WERRREE(!!DDu5tQ(QP!QQ!QQ!Q!]QQQ",
"QEQEEERRRRRREQQEZw4nTTZAT~^EEYREERRRRHGRQREDBu5uQ!!!]'!!QQQQQQQQQ",
"ILIHDDDDHKGHHHDDB4=zAAZZZZZZNCZHBBDMSDBNmfSNku5mFRLLQRRRDDDSDDDDF",
"HIHJHHBBCZDGZHHZnw3zATAZZABNNbmbNBGZHBNNDhBBbt:fLFDmFDDFFDFMDDFFI",
"HHZHDDBNbNBBJHHHzw3wAYAbHZBNmmbmNjNmBmNjNujfd7*gRRpupppmFMMMMMFFI",
"YYIIRGGJHHHKIYYYnq4VTAAYYUHHHZHHCBZCGCCNBfBNhe3Z!QDmDDSDDDSDDFLLR",
"HJJHHBBBHHZZZNZbn==A_nbTZBBBBBBMBSBBNBBBHhNhd7*bQRmuSSmSSSSSSSDDG",
"BCZNCZZZCZCZZCZZn=3nVVZVnnCnBBHBCZCBbbnNsbnng**C)~lglGCkSSkkkNlSC",
"ZZZZZZZZZZZCBZZBb=<V_AnnCVnZDBBHZCZbbCNNfNNCb22C)KCklCCkkSlklllkk",
"BBbBBBBZBCBBBZBAV==A`AVnZZZZDBBBBNBbbbbbmBcbn33b~Jkkkllhkkklkkkkk",
"bbbbbmnnBbZnBZBAV=#V_AVVAAZVBDBBNBBBZBbbnBcbb8>sKJkhkkhggjkkkkkhk",
"nnvbnbnBnnnBAAAAV<<V_TVAAUIAFZFDBABAAVnVcAncc4*cYZNbBCbbbNNBCNNbb",
"czcxxcvcnnbvcnnnx=4ATVVnBBBBBMMmnnnBBnnbzBnzz>&zZnbbcmbccbcnmbbbc",
"4444449040404040=#1xxww40q999996900000941w410&O1rr940090996699999",
"#OO#O######O#O###X#<=#=#OOOOOOOOOOO%%###O%OO&O.%&@OOO@@@%O@O@OOO@",
"42433 3>3444444444999wyr9qqe8>>>-o;eetedtdtttteeteeeeq7757577779e",
"Bzbsw#sznCZZBBBBbbmBBZZHZZIABBBMy;uDE!PRPPPPKKHLHRHHHHFLDDDDDDDDH",
"YZZba*bNZZZZAZJHHHHGKHHIREEEIKHHe-fE][EEPEPERRRELLRRPPRRLLHLLLERL",
"ZZZs8#scbbbbNNbNBmBBBMDBBBHBBmmm>@uREPNkkkNkNNNNNNNNNNNNNmNjmjNNB",
"ZNZd7@udhbCNBBCBCBSSDDGDZBSSBkfj>%cIDBfjjNhjNjNNBNNhjbhhNhhhNkNkC",
"bCHc8%dhnCZCBHHHHHDHHGGHHSSBSSmf;;cRBmfGCNCBBNBBGGGCCCNkCNCNNNBCC",
"fBKf7%jmkNNBDHDGSDBSSDDDSSNNBmmd-@yFNNhZCkNNNBBBCCCCCNNCkNkNkkCCC",
"jBId7%NSNNBGGHGGDDGGDLLRDDSSSBNm;@yIIZmBBNCBSBZZBCNCCCCCNklNNCNCC",
"NSKfe%jNhjNmNNBBGDDHHHGHZJNBSGHm9@cIABbbbbbbBBBZCbbCCbCCCbNNhkbkl",
"NHKj7-BSNBBSBSHGDHZZGIIKCCmbBZmm6OiRZBbbCCZCbbnbCCCCbCNnCCCnNbbCb",
"NBDy>@mDbmBNmmBBDBBBZZBBnnbbNBmc6@cUnZbcCCbbbbbbnCNbnCnCbCBbnnCnH",
"mMmq-OmBnbMNmBmMIZBZBBBBBZZnMZZn6+iIZZbbBnNbBbVZCnnCnbBCbbbbNCnCB",
"VBBr>#nMMMBMnbvbVVVVIAAAnVVnBZAn4&vIBABBbnbnnZVZnVnCVbVnBnZnZnVVA",
"Mcc97%cyspziwwssssszznnzzzzszzxz1&iVcnbbbbbbzzbzbzbzzbccbbbnbbnnD",
"411&&O9;==>=======$==<1<=31==11<,O001qqq4q334444444444444w4444446",
"%O#O%X=O%&%%#O###X#X###X  #XXXOXO.&&O&##*##**#***#####*#########@",
"mhe555eukjjfuutducpi6@@rppppppppsszsssys8qafhbmmsq4s4w41$ #qw44su",
"/EPLLLPPQPLLLLLLHIDMp;;pFFFFRREEYYYYYKKH~YTEWTYKZbbBnnVz=X#bAZZZF",
"PQQ(//PQLLLLLLGLIRDMp5@pFpFFFIRHIKHHIHIITYIYIHDBKBZAAAAn4#=AWYZKH",
"jNGGLSSNjjjjfjkmmMmce@;pFFFFDDDBcmmfccmMBBBNBZBDMhbZbnnz4#=ZECbhS",
"kSBSSmmmmmjmSmSShmmme%;cFMBVBDBBBMBmSmDDjmfmSSMBmfmmmcBz3X;DYBBSS",
"DDSSSSSSSmSSSSSDNZZNr-;cppMmBBCZHKLHDDDDmmmmmBmmNjSSmmMc9O-SRmNGG",
"SSSBmSBSjmjmmmmBjCCNe--zFFFIKIRKLLDDSSSmSDDGHHJCSjSSmmBnqo-SEjjSS",
"mmSHDSNmmNNjNSmNhBZhe%-mMMMMBSCGGGLGSkdgugjNHJHJSjSDmMBM9o@DQHjSS",
"BBBBNNNBNmNmNbmmhhbg3#-zbbbnZAAJGGJCCllkCllCJCJCjmSBMmMc5O@S!RSSG",
"BSBmmmBZNBMNNBBNbbnb4*4cnBZZAJZJKKJCJlllgggglllCSSSBMnMnr@;LQDDSL",
"NNNcffmBBBBmBBBNchnb8*>ccbZZCZCCClCClklklghlCJJJSSNcmccvrO9EDSDSD",
"BDBBmcBBmmjNNmbbhbCb4#*zBnAAYZZZCCCCCNClbbhbCCCCDSMMMMBn1.6UMjDum",
"mmBNmbbbcnbbmbbbBbVnq$&ivnBVACnnnnnnnnbCvzcbcbccmmMMBvvx1.0UMMFmM",
"bbbBbbcbZHBHZBZZBBBBi&;0xvvvnnbzxvnVnnnnVVVnVVnVpMMvnvvv1OiUvMIDM",
"smbbmscccbcbbccbzsyz0&;0vxnvxzzxxxxvvvxvxxiixxiipccvvxvv,&1iiyppu",
"**&%%##->73>63>44=>44$@<&&@&*#*#$$++,++$.++X+++O+OOO+$,,+X+;<<;>;",
"OO###O##O#O#####O#X$# ###X#XX OX  X X...+X+  XXXXOXoXX++   X+O+O@"
};
