/* XPM */
static char *result[] = {
/* columns rows colors chars-per-pixel */
"64 64 219 2 ",
"   c #00060E",
".  c #002932",
"X  c #0A2D3A",
"o  c #153538",
"O  c #282927",
"+  c #2C2C34",
"@  c #2B3A3B",
"#  c #363C3B",
"$  c #3A3D3B",
"%  c #383736",
"&  c #3D2922",
"*  c #581002",
"=  c #601700",
"-  c #522400",
";  c #5C331A",
":  c #512B14",
">  c #6A3605",
",  c #64341E",
"<  c #69371B",
"1  c #733A1A",
"2  c #703400",
"3  c #493B33",
"4  c #453E3A",
"5  c #5C3E30",
"6  c #47322B",
"7  c #663520",
"8  c #6A3722",
"9  c #6D3A22",
"0  c #693B26",
"q  c #733B25",
"w  c #793D25",
"e  c #7B3E2A",
"r  c #753D28",
"t  c #3C413F",
"y  c #7D4314",
"u  c #49423C",
"i  c #57483F",
"p  c #7C4324",
"a  c #7D4129",
"s  c #784826",
"d  c #6D4B3B",
"f  c #744934",
"g  c #724C29",
"h  c #3D4341",
"j  c #3F4946",
"k  c #3C4845",
"l  c #424543",
"z  c #444A46",
"x  c #444D49",
"c  c #4A4E4A",
"v  c #494943",
"b  c #544A42",
"n  c #514B47",
"m  c #46504C",
"M  c #4D524D",
"N  c #50544E",
"B  c #4E5451",
"V  c #4A5659",
"C  c #525651",
"Z  c #555954",
"A  c #595C55",
"S  c #575E59",
"D  c #5A5E59",
"F  c #605C56",
"G  c #765849",
"H  c #5D625B",
"J  c #57625B",
"K  c #61645E",
"L  c #5D6862",
"P  c #626761",
"I  c #656A63",
"U  c #6A6E65",
"Y  c #6B6E69",
"T  c #676A67",
"R  c #6E7166",
"E  c #6D726A",
"W  c #657169",
"Q  c #72766C",
"!  c #75796E",
"~  c #787B6E",
"^  c #717367",
"/  c #717770",
"(  c #767A71",
")  c #7A7D73",
"_  c #787C78",
"`  c #6B7273",
"'  c #834C1F",
"]  c #AE5B1A",
"[  c #AD631C",
"{  c #84442C",
"}  c #854B2C",
"|  c #8B4A2E",
" . c #854729",
".. c #944E2F",
"X. c #875729",
"o. c #93552A",
"O. c #965B2A",
"+. c #9A5C2C",
"@. c #935826",
"#. c #8A4631",
"$. c #944D32",
"%. c #994F35",
"&. c #86513C",
"*. c #955431",
"=. c #9C5434",
"-. c #965C33",
";. c #9C5B34",
":. c #9E5C3A",
">. c #905A3E",
",. c #A85E27",
"<. c #A15635",
"1. c #A25B35",
"2. c #A15339",
"3. c #A45C39",
"4. c #AA5D3A",
"5. c #A95B3A",
"6. c #9D6234",
"7. c #9D6933",
"8. c #9C6038",
"9. c #97632F",
"0. c #A46335",
"q. c #AA6535",
"w. c #A36B36",
"e. c #AB6C36",
"r. c #A6623A",
"t. c #AC633B",
"y. c #AD693B",
"u. c #A56B39",
"i. c #B3653D",
"p. c #B46A3D",
"a. c #BB6D3F",
"s. c #B56D35",
"d. c #AC7436",
"f. c #AE7539",
"g. c #AE7939",
"h. c #A97536",
"j. c #B2743A",
"k. c #BA723F",
"l. c #B57B3B",
"z. c #BA7D3B",
"x. c #B36327",
"c. c #985A42",
"v. c #A85A42",
"b. c #B25B42",
"n. c #B46441",
"m. c #B56C41",
"M. c #BC6E42",
"N. c #BB6445",
"B. c #BD7342",
"V. c #BC7D42",
"C. c #B37A4E",
"Z. c #837C7C",
"A. c #C56D48",
"S. c #C27544",
"D. c #C57B45",
"F. c #CA7D46",
"G. c #CA7549",
"H. c #C67948",
"J. c #CC7D49",
"K. c #C87648",
"L. c #D17E4C",
"P. c #7D8176",
"I. c #7E837A",
"U. c #BC813E",
"Y. c #B7823D",
"T. c #C9853F",
"R. c #C7873D",
"E. c #D78939",
"W. c #BC8141",
"Q. c #BE8A44",
"!. c #BB8159",
"~. c #818376",
"^. c #81857B",
"/. c #85897F",
"(. c #888B7F",
"). c #9F897E",
"_. c #CC8047",
"`. c #C68B44",
"'. c #CE8149",
"]. c #C58745",
"[. c #D2844B",
"{. c #D9864D",
"}. c #D6894C",
"|. c #DA8C4E",
" X c #D68945",
".X c #DD924E",
"XX c #DC8C51",
"oX c #D88651",
"OX c #DF9151",
"+X c #CF9144",
"@X c #E0964E",
"#X c #E19A4F",
"$X c #E28E54",
"%X c #E39353",
"&X c #E59B53",
"*X c #E99B56",
"=X c #EB9B5A",
"-X c #E7935A",
";X c #E7A053",
":X c #EDA15A",
">X c #EAA056",
",X c #F0A05D",
"<X c #7D8183",
"1X c #858B82",
"2X c #898D84",
"3X c #878886",
"4X c #8C9186",
"5X c #8E948A",
"6X c #91968C",
"7X c #93988F",
"8X c #959B91",
"9X c #989E95",
"0X c #989898",
"qX c #A5938C",
"wX c #9FA1A0",
"eX c #A9AAA9",
"rX c #C1BEBE",
"tX c #D2CFCF",
"yX c None",
/* pixels */
"yXyXyXyXyXyXyXyXyXyXyXyXyXyXyXyXyXyXyXyXyXyXyXyXyXyXyXyXyXyXyXyXyXyXyXyXyXyXyXyXyXyXyXyXyXyXyXyXyXyXyXyXyXyXyXyXyXyXyXyXyXyXyXyX",
"yXyXyXyXyXyXyXyXyXyXyXyXyXyXyXyXyXyXyXyXyXyXyXyXyXyXyXI.4X2X2X1X3X4X2X5X) yXyXyXyXyXyXyXyXyXyXyXyXyXyXyXyXyXyXyXyXyXyXyXyXyXyXyX",
"yXyXyXyXyXyXyXyXyXyXyXyXyXyXyXyXyXyXyXyXyXyXyXyXyXyXQ 8X2X2X4X4X4X1X1X/.^.Y yXyXyXyXyXyXyXyXyXyXyXyXyXyXyXyXyXyXyXyXyXyXyXyXyXyX",
"yXyXyXyXyXyXyXyXyXyXyXyXyXyXyXyXyXyXyXyXyXyXyXyXyXyXP.I.! ~.) ! I.( I P E L yXyXyXyXyXyXyXyXyXyXyXyXyXyXyXyXyXyXyXyXyXyXyXyXyXyX",
"yXyXyXyXyXyXyXyXyXyXyXyXyXyXyXyXyXyXyXyXyXyXyXyXyXyXR P.) P.) P.^.! P Y Q M yXyXyXyXyXyXyXyXyXyXyXyXyXyXyXyXyXyXyXyXyXyXyXyXyXyX",
"yXyXyXyXyXyXyXyXyXyXyXyXyXyXyXyXyXyXyXyXyXyXyXyXyXyXM P.P.Q P.( ~.( I U R yXyXyXyXyXyXyXyXyXyXyXyXyXyXyXyXyXyXyXyXyXyXyXyXyXyXyX",
"yXyXyXyXyXyXyXyXyXyXyXyXyXyXyXyXyXyXyXyXyXyXyXyXyXyXyXP.( ( P.! ^./ R E T $ yXyXyXyXyXyXyXyXyXyXyXyXyXyXyXyXyXyXyXyXyXyXyXyXyXyX",
"yXyXyXyXyXyXyXyXyXyXyXyXyXyXyXyXyXyXyXyXyXyXyXyXz M t E Q I.( ! ~.Q ! ! I c S h yXyXyXyXyXyXyXyXyXyXyXyXyXyXyXyXyXyXyXyXyXyXyXyX",
"yXyXyXyXyXyXyXyXyXyXyXyXyXyXyXz A yXyXyXyXyXyXQ 4X1XC S ( ( U Y I.) ) _ C / 8X5X( Z yXyXyXyX! N yXyXyXyXyXyXyXyXyXyXyXyXyXyXyXyX",
"yXyXyXyXyXyXyXyXyXyXyXyXyXyXM I.I.H yXyXM P.1X<X! ( S l Q E E ( Q Q ) ) B I.I.E I.4X( z yXK 5X5XK yXyXyXyXyXyXyXyXyXyXyXyXyXyXyX",
"yXyXyXyXyXyXyXyXyXyXyXyXyXI 1X/.I./ H B 4X4X/ W E E P h ) /.) ^._ ) ) ) S ^.( E I E 4XW A 4X2X2X5XA yXyXyXyXyXyXyXyXyXyXyXyXyXyX",
"yXyXyXyXyXyXyXyXyXyXyXyXM 1X) Q ! ! ! P I.P.P.I.I.( E N ) I.^.I.^.~.! R L I.! ( Q E Q c ^.4X/.^.~.^.M yXyXyXyXyXyXyXyXyXyXyXyXyX",
"yXyXyXyXyXyXyXyXyXyXyXt ^.I.E ) ( ( P.E c I.I.Q ( Q U j J L E E W E W S L I.E ) Q ) A K 2X/././.^.~.^.N yXyXyXyXyXyXyXyXyXyXyXyX",
"yXyXyXyXyXyXyXyXyXyXyXyXT P.E ( ( ( ( I.H J ) ( Q t 5 g f c.&.f v.c.&.f d 4 I / ( ^ C 2X^.^.~.~.1X2X) yXyXyXyXyXyXyXyXyXyXyXyXyX",
"yXyXyXyXyXyXyXyXyXyXyXyXyXJ P.) E ! Q P.I.C S n q  .o.:.:.4.*.X.M.v.4.3.4.o.} 5 D c ) 2X~.~.~.) 1XR % yXyXyXyXyXyXyXyXyXyXyXyXyX",
"yXyXyXyXyXyXyXyXyXyXyXyXyXt S P.( ! P.( ! l - ;.3.;.:.5.8.n.3.-.H.m.m.m.i.n.n.-.< 3 ) 2X) ^././.K Z yXyXyXyXyXyXyXyXyXyXyXyXyXyX",
"yXyXyXyXyXyXyXyXyXyXyXyXx 1XH H ) E ( E t : } M.4.:.r.m.m.M.n.7.oXK.H.B.M.m.M.:.:.-.% P R ( /.Z I /.N yXyXyXyXyXyXyXyXyXyXyXyXyX",
"yXyXyXyXyXyXyXyXyXyXyXyXI.4XI.S U ( H u < -.} k.m.y.B.B.S.H.B.u.XX[.'.F.J.V.H.r.:.S. .& Z U z I ^.^.! l yXyXyXyXyXyXyXyXyXyXyXyX",
"yXyXyXyXyXyXyXyXyXyXyXP 4XQ ) E t S $ 9 -.3.X.B.S.B.H.]._.'.S.f.=XoXoX'.[.F.oXm.t.K.p.} 3 % R 4XI././.R yXyXyXyXyXyXyXyXyXyXyXyX",
"yXyXyXyXyXyXyXyXyXyXB I.! ! P.^.R O < r.r.u.*.J.H.H.].[.[.[.D.W.,XoX}.oX[.[.XXB.m.'.a.p.| % ( ) ^./.^.~ Z yXyXyXyXyXyXyXyXyXyXyX",
"yXyXyXyXyXyXyXyXyXyXc ( Q P.P.P.C , :.t.y.a.-.}.'.'.[.}.}.|.D.W.,XOX|.}.}.[.OXB.B.XXB.B.m.X.$ ) ^.I.P.P.Z yXyXyXyXyXyXyXyXyXyXyX",
"yXyXyXyXyXyXyXyXyXyXP C I Q P.( : ;.r.m.B.V.6.|.oX].}.}.|.|._.W.,XXX|.[.}.].XXV.V.-XH.H.B.p.p K P.~ R J C Z yXyXyXyXyXyXyXyXyXyX",
"yXyXyXyXyXyXyXyXyXR 4X! I K ( A < r.u.S.V.D.w..X}.'.|.|.|.XX'.W.:X}.}.'.}.[.|.D.W.%X_.H.S.a.s.i I H H E ( Z yXyXyXyXyXyXyXyXyXyX",
"yXyXyXyXyXyXyXyXyXP.Q ! /.P.S 0 +.q.B.F.F._.0.@X[.[..X}.oXXXH.W.:X}.}.[.[.[.oXH.l.OX'._.D.a.p.s h R 1X( ! Q yXyXyXyXyXyXyXyXyXyX",
"yXyXyXyXyXyXyXyXyXP.! ! R P.Z ' 0.p.H.'.'.'.g.&X[.XXOX}.}.XXD.W.=X'.[.'.}.'.|.D.l..X[._._.k.m.1.b ( ^ ^ ~ ) K yXyXyXyXyXyXyXyXyX",
"yXyXyXyXyXyXyXyXyXP.! R ! E A @.j.S.J.F.'.'.g.>X[.XX%X}.[.|.S.W.:X'.}.'.'.'.oX].Y..X_._.].D.B.s.G T Q Q ^ ~.A yXyXyXyXyXyXyXyXyX",
"yXyXyXyXyXyXyXyXu ~ ~ ^ ! I d t.m.V.F.'.[.'.f.&X'.|.XX[.'.}.S.W.:X'.[.'.}.'.|.].Y..X'.'.D.D.k.k.>.J ~ Q ! P.Z yXyXyXyXyXyXyXyXyX",
"yXyXyXyXyXyXyXyXZ K H K K j p B.S._.[.oX|.[.g.;X}.|.oX[.'.}.S.W.=X[.|.'.}.|.OXS.W.OX'.[.[.F.S.D.w.@ D H A A J yXyXyXyXyXyXyXyXyX",
"yXyXyXyXyXl K I.8X9X9X9X9XB ' J.}.[.[.OX|.}.l.,X}.|.}.+X'.oXD.l.&X}.|.}.|.|.OX].W.-X}.}.[.}.'.H.-.% /.7X/.1X8X5XI.Q z yXyXyXyXyX",
"yXyXyXyXyXM I.E ( H K R ( x @.[.J.F.}.|.|.}.j.:X[.}.}.}.[.}._.U.*X|.|.|.|.XXOXD.].=X[.}.[.}.}.'.e.u R ~ ! ^.~.R ! R $ yXyXyXyXyX",
"yXyXyXyXyXS 6XE P.! R R ( x O.}.'.'.}.oXoX[.g.:X[.[.[.[.[.[.].W.&X}.|..X}.XXOXD.`.=X'.}.[.}.[.[.s.i I.) Z./.^.) ) R t yXyXyXyXyX",
"yXyXyXyXyXH 7XE I.1X1XQ ! m O.[.'.[.|.}.|.'.g.:XoX}.[.[.[.}.J.V.&X[..XOX[.oXXXV.`.=X'.}.].[.'.XXz.b 1XE ) ) _ ) ~.R h yXyXyXyXyX",
"yXyXyXyXyXZ 2X! Z.) ^.~.( j +.[.J.[.|.{.}.[.g.:X[.[.}.'.[.[.F.l.&X}.$X%X}.[.}.B.`.=X[.[._.[.'.OX].b 6X^ ) P.) ) I.Y h yXyXyXyXyX",
"yXyXyXyXyXc ) ! ) ( ) ( ) j O.[.J.J.}.}.[.J.g.:X[.'.[.'.[.[.F.l.&X'.}.%X{.[.|.B.].=XJ.[.'.[._..XT.u 5X) ) _ P.( Q I h yXyXyXyXyX",
"yXyXyXyXyXc / I I I U Q ( j O.'.D._.[.[.}.L.f.:X[._.'.'.'.[.D.W.;XJ.}.XXoX[.XXB.`.=XF.[._.[.F.OX+Xu 2X( ^ R Q U I H u yXyXyXyXyX",
"yXyXyXyXyXl I K H S S S H k O.[.J.J.}.[.}.L.f.:X[._.'.'.[.'.S.g.>X[.}.}.|.[.{.k.].=XF._.'.}.D.%X`.+ Y H S S H D D Z t yXyXyXyXyX",
"yXyXyXyXyXh h l u B H H N t @.'.}.'. X[.[.J.f.&X'.J.'._.'. XD.g.=XJ.[.[.|.'.{.k.].#XF.J.J.L.F.%X`.+ c H T S z $ l t t yXyXyXyXyX",
"yXyXyXyXyXyXyXyXx 2X9X8X^.c @.'.L.J.}.J.[.F.w.*X[.H.F.F.'.'.S.f.*XJ.[.'.}.J.{.p.W.%XF.F.F.[.F.|.].% Z.5X8X^.A yXyXyXyXyXyXyXyXyX",
"yXyXyXyXyXyXyXyXC 2X4XI.) M O.[._._.[.[.[.J.7.&X'._.'._.'.[.S.g.*XJ.'.'.'.J.{.p.W.%XD.D.D.'.G.}.R.# 6XQ U U Z yXyXyXyXyXyXyXyXyX",
"yXyXyXyXyXyXyXyXz ( 4X~.) M O.[._.[.[.[.'.J.f.&X'.'.'.'.[.[.D.d.*XG.F.'.[.J.}.k.R.|.S.F.J.'.L.{.R.4 6X/ ) _ A yXyXyXyXyXyXyXyXyX",
"yXyXyXyXyXyXyXyXc R ) ) ~.M O.[._.[.[.[._._.d.&XL.F.[._.[._.D.l.$XF.F.L.J.J.[.a.`.OXS.s.,.x.] L.R.i 2X! Q ! H yXyXyXyXyXyXyXyXyX",
"yXyXyXyXyXyXyXyXz R ) ~.) z +.[.F.[.[.'.'.J.d.*XL.F.'.'.[.[.D.z.$XG.L._.F.F.[.k.R.$X[ qXrXtXtXC.R.v I.U P Y A yXyXyXyXyXyXyXyXyX",
"yXyXyXyXyXyXyXyXc Q ~ ~ ^ x O.'.D._.[.'._.F.d.%XJ.F.'.'.[.[.S.l.%XG.F. XF.F.[.V.z.@X,.C 3XwX` C.T.3 _ U S P C yXyXyXyXyXyXyXyXyX",
"yXyXyXyXyXyXyXyXM ! R I U k O.[.F.J._.J.[.F.7.&XJ.'.'.'.L.[.a.d.%XF.J.'.[.'.}.k.U.$X+.  T eX  ;._.% R ! I U Z yXyXyXyXyXyXyXyXyX",
"yXyXyXyXyXyXyXyXO M c c % @ -. XJ.J._.J.J.F.w.;XL.[.L.J.[.{.D.h.*XL._.[.[._.{.k.Q.@X%.eX3X0XtXqX[ @ Z M M B l yXyXyXyXyXyXyXyXyX",
"yXyXyXyXyXh I / _ ( _ E Q x O.[.J._._.J.J.J.w.;X[.[._.'.[.oXD.U.=XL._.'.[.[.XXk.].E.Z.eX% l _ tX2 u I Q Q ( Y P I P x yXyXyXyXyX",
"yXyXyXyXyXc 2X2X6X6X7X5X4XV @.}.F.J.D.F.F.J.h.*XL.[._.[.[.}.S.j.*XF._. X'._.}.M.Q.E.T Y O N O 0X> b 8X1X2X/.^././.Q h yXyXyXyXyX",
"yXyXyXyXyXM 1XQ ^ ! ~ ~ R k O._.J._.D.F.F.F.9.&X[.'.[.[.L.[.B.w.*XL.D.[.'._.{.M.]. Xc _ Z O n 3X- b I.C K U ) ~.~.U # yXyXyXyXyX",
"yXyXyXyXyXC 1X! ~.^.P.! ! z @.F.D.L.F.F.D.F.O.%X[.J.'._.L.{.S.6.%XF.D.F.'.F.[.i.U.|.6 <XeXeX0XD - b 4XK K ~ 4X(.P.R k yXyXyXyXyX",
"yXyXyXyXyXS 5XE 1X^.~ R E x @.J.G.F.D.S.S.M.O.%XJ.J.L.J.D.{.B.;.$XF.D.F.J.F.J.q.Y..X<   <X0XV - p u 7X~ Q ~ ~.Z.P.R h yXyXyXyXyX",
"yXyXyXyXyXZ 6X! I.Z.~ Q E x O.J.F.M.S.M.M.i.X.@XG.F.F.F.F.J.a.u.%XS.S.D.F.S.L.q.g. X .s = * 2 u.d.@ 6XP.^.P.P.E ! ^ z yXyXyXyXyX",
"yXyXyXyXyXB 1X! ) ^.~ ^ E l o.K.S.A.M.i.a.i.X.OXA.S.S.L.S.J.p.u.$XS.a.S.D.k.G.1.g.J.i.G.J.A.D.|.l.X (.I.P.~ /.P.^ U l yXyXyXyXyX",
"yXyXyXyXyXM P.) ) ) Y U U k o.A.S.M.a.i.i.q.X.|.A.M.S.G.a.G.t.8.$Xi.s.i.a.a.S.<.e.G.1.k.B.q.=.B.l.. ~ I.^.! P.I.Q S $ yXyXyXyXyX",
"yXyXyXyXyXl P U H x c M C h | A.M.4.i.i.i.1.X.}.A.i.a.S.s.S.q.0. Xi.,.i.p.i.a...w.S...q.0.=.*.p.j.. l c x M Z H c x t yXyXyXyXyX",
"yXyXyXyXyXyXyXyXl I I./ R h { n.4.<.4.5.5.=.X. Xi.5.a.a.4.a.,.;.L.q.1.4.t.4.i...0.M.{ =.=.} { t.e.. K P.^.Q M $ yXyXyXyXyXyXyXyX",
"yXyXyXyXyXyXyXyXc ( I.^.^.M w =.=.<.<.<.<.| s L.5.5.i.i.5.a.<.;.L.1.=.1.4.<.i.| +.p. .=...} } ;.q.X (.~.I.I.A yXyXyXyXyXyXyXyXyX",
"yXyXyXyXyXyXyXyXc R E ( P.M w <.=.%.=.%.=.| s F.5.<.4.4.4.i.*.-.G.<.<.<.<.=.4. .6.i.w { a r a -.w.t 7XR R Q Z yXyXyXyXyXyXyXyXyX",
"yXyXyXyXyXyXyXyXc ) ) E ~ N 1 $.$.$.$.$.%. .g N.2.$.=.=.2.4.$.*.M.....%.%...=.a | 5.r a p p p ..+.u 5XQ ) ) S yXyXyXyXyXyXyXyXyX",
"yXyXyXyXyXyXyXyXc ~.! R ~ N , #.{ { #.{ #.w < n.%.#.$.$.=.$.| | b.|  . .#.#. .w p *.< r a p q }  .t ^.E E ) K yXyXyXyXyXyXyXyXyX",
"yXyXyXyXyXyXyXyXc ^.! E ~ c , #.a a { { w q < 4.#.{ #.$.$.#.{ { b.#.{ w { { { r p $.q q r r q { y @ ) ! ! I.I yXyXyXyXyXyXyXyXyX",
"yXyXyXyXyXyXyXyXc ) R I I z < a q r w e r 8 ; 2.#.e e #.| { e } v.e w q w { e q 7 { 9 q r r 9 a p % R ! P./.I yXyXyXyXyXyXyXyXyX",
"yXyXyXyXyXyXyXyXx R P P I z 7 e q q w e 9 9 ; 2.{ e e #.{ { e | b.e r r w e r 8 , #.8 8 9 9 7 a p $ E ! ( ^.K yXyXyXyXyXyXyXyXyX",
"yXyXyXyXyXyXyXyXl B C C c l 8 q q 9 q r 7 9 ; | e r q q a r r r #.q q 9 9 q q 7 ; e , 7 7 9 < 9 < % M B B C M yXyXyXyXyXyXyXyXyX",
"yXyXyXyXyXyXyXyXyXyXyXyXyXyXyXyXyXyXyXyXyXyXyXyXyXyXyXyXyXyXyXyXyXyXyXyXyXyXyXyXyXyXyXyXyXyXyXyXyXyXyXyXyXyXyXyXyXyXyXyXyXyXyXyX"
};
