/* XPM */
static char *result[] = {
/* columns rows colors chars-per-pixel */
"64 64 47 1 ",
"  c black",
". c #180000",
"X c gray8",
"o c #241400",
"O c #2C1800",
"+ c #342000",
"@ c #3C2404",
"# c #482C04",
"$ c #503008",
"% c #58380C",
"& c #603810",
"* c #443434",
"= c #684000",
"- c #785004",
"; c #644014",
": c #684014",
"> c #744C1C",
", c #78581C",
"< c #000440",
"1 c #00044C",
"2 c #001474",
"3 c #002870",
"4 c #043478",
"5 c gray25",
"6 c #585858",
"7 c #6C6C6C",
"8 c gray47",
"9 c #886408",
"0 c #98780C",
"q c #806024",
"w c #8C6C28",
"e c #947830",
"r c #A88C10",
"t c #BCA414",
"y c #A08438",
"u c #D0C01C",
"i c #0428A0",
"p c #0C4084",
"a c #185090",
"s c #3470A4",
"d c #0C48CC",
"f c #4480B0",
"g c #848484",
"h c #B4B4B4",
"j c #D4C4B4",
"k c #D8D8D8",
"l c None",
/* pixels */
"llllllllllllllllllllllllllllllllllllllllllllllllllllllllllllllll",
"llllllllllllllllllllllllllllllllllllllllllllllllllllllllllllllll",
"llllllllllllllllllllllllllllllllllllllllllllllllllllllllllllllll",
"llllllllllllllllllllllllllllllllllllllllllllllllllllllllllllllll",
"llllllllllllllllllllllllllllllllllllllllllllllllllllllllllllllll",
"llllllllllllllllllllllllllllllllllllllllllllllllllllllllllllllll",
"llllllllllllllllllllllllllllllllllllllllllllllllllllllllllllllll",
"llllllllllllllllllllllllllllllllllllllllllllllllllllllllllllllll",
"llllllllllllllllllllllllllllllllllllllllllllllllllllllllllllllll",
"llllllllllllllllllllllllllllllllllllllllllllllllllllllllllllllll",
"llllllllllllllllllllllllllllllllllllllllllllllllllllllllllllllll",
"llllllllllllllllllllllllllllllllllllllllllllllllllllllllllllllll",
"llllllllllllllllllllllllllllllllllllllllllllllllllllllllllllllll",
"llllllllllllllllllllllllllllllllllllllllllllllllllllllllllllllll",
"llllllllllllllllllllllllllllllllllllllllllllllllllllllllllllllll",
"llllllllllllllllllllllllllllllllllllllllllllllllllllllllllllllll",
"llllllllllllllllllllllllllllllllllllllllllllllllllllllllllllllll",
"llllllllllllllllllllllllllllllllllllllllllllllllllllllllllllllll",
"llllllllllllllllllllllllllllllllllllllllllllllllllllllllllllllll",
"llllllllllllllllllllllllllllllllllllllllllllllllllllllllllllllll",
"llllllllllllllllllllllllllllllllllllllllllllllllllllllllllllllll",
"llllllllllllllllllllllllllllllllllllllllllllllllllllllllllllllll",
"llllllllllllllllllllllllllllllllllllllllllllllllllllllllllllllll",
"llllllllllllllllllllllllllllllllllllllllllllllllllllllllllllllll",
"llllllllllllllllllllllllllllllllllllllllllllllllllllllllllllllll",
"llllllllllllllllllllllllllllllllllllllllllllllllllllllllllllllll",
"llllllllllllllllllllllllllllllllllllllllllllllllllllllllllllllll",
"llllllllllllllllllllllllllllllllllllllllllllllllllllllllllllllll",
"llllllllllllllllllllllllllllllllllllllllllllllllllllllllllllllll",
"llllllllllllllllllllllllllllllllllllllllllllllllllllllllllllllll",
"llllllllllllllllllllllllllllllllllllllllllllllllllllllllllllllll",
"llllllllllllllllllllllllllllllllllllllllalllllllllllllllllllllll",
"lllllllllllllllllllllllllllllllllllllllllallllllllllllllllllllll",
"llllllllllllllllllllllllllllllllllllllllla4aa4llllllllllllllllll",
"llllllllllllllllllllllllllllllllllllllllap4<<4plllllllllllllllll",
"llllllllllllllllllllllllllllllllllllllllls<  <3lllllllllllllllll",
"lllllllllllllllllllllllllllllllllllllllllp4<<4plflllllllllllllll",
"llllllllllllllllllllllllllllllllllllllllllasfffsllllllllllllllll",
"llllllllllllllllllllllllllllllllllllllllll=uu-flllllllllllllllll",
"llllllllllllllllllllllllllllllllllllllllll=uu#llllllllllllllllll",
"llllllllllllllllllllllllllllllllllllllllll%uuollllllllllllllllll",
"llllllllllllllllllllllllllllllllllllllllll#utlllllllllllllllllll",
"llllllllllllllllllllllllllllllllllllllllll#utlllllllllllllllllll",
"llllllllllllllllllllllllllllllllllllllllll@urlllllllllllllllllll",
"llllllllllllllllllllllllllllllllllllllllll+u9lllllllllllllllllll",
"llllllllllllllllllllllllllllllllllllllllllo0%lllllllllllllllllll",
"llllllllllllllllllllllllllllllllllllllllll.%Olllllllllllllllllll",
"llllllllllllllllllllllllllllllllllllllllllo%olllllllllllllllllll",
"lllllllllllllllllllllllllllllO+ollllllllllo$olllllllllllllllllll",
"llllllllllllllllllllllllllll+$$#olllllllllo$olllllllllllllllllll",
"lllllllllllllllllllllllllllo#&;$@ollllllllo%olllllllllllllllllll",
"lllllllllllllllllllllllllllO$>>;$ollllllllO%.lllllllllllllllllll",
"lllllllllllllllllllllllllllO$:>;$.llllllllO$llllllllllllllllllll",
"lllllllllllllllllllllllllllX$;;;##llllllllO$llllllllllllllllllll",
"llllllllllllllllllllll1111l2,q>q*11221llll%q%lllllllllllllllllll",
"lllllllllllllllllllll1222222ieywi22iii11ll$yq%llllllllllllllllll",
"llllllllllllllllllll12ddi2iddddddidddi211116656lllllllllllllllll",
"llllllllllllllllll112iddiidddddddiidiii21222i2g6llllllllllllllll",
"lllllllllllllllll1112ii2iiddiiiddi2iiiii212iii2hllllllllllllllll",
"llllllllllllllll782211212iiiiiiiii222iiii212iii5glllllllllllllll",
"lllllllllllllllgh2ii222122iiiiiii22212iii2212iihh6llllllllllllll",
"lllllllllllllllh52iii212ii22222222221112i2212ii5k7llllllllllllll",
"lllllllllllllllhhiiii212iii2222iii2211l111222iij6gllllllllllllll",
"lllllllllllllll85iiii212iii222iiii221lllll$@11ghglllllllllllllll"
};
