/* XPM */
static char *result[] = {
/* columns rows colors chars-per-pixel */
"64 64 64 1 ",
"  c black",
". c #180000",
"X c gray11",
"o c #241400",
"O c #2C1800",
"+ c #342000",
"@ c #3C2404",
"# c #343434",
"$ c #482C04",
"% c #5C3000",
"& c #503008",
"* c #58380C",
"= c #603810",
"- c #743414",
"; c #443434",
": c #684000",
"> c #785004",
", c #644014",
"< c #684014",
"1 c #6C4C18",
"2 c #744C1C",
"3 c #7C5820",
"4 c #000440",
"5 c #00044C",
"6 c #001474",
"7 c #002870",
"8 c #043478",
"9 c #304858",
"0 c gray25",
"q c #4C4C4C",
"w c #544440",
"e c #585858",
"r c #685450",
"t c #6C6C6C",
"y c #786460",
"u c #886408",
"i c #98780C",
"p c #886428",
"a c #907030",
"s c #947830",
"d c #8C7870",
"f c #A88C10",
"g c #BCA414",
"h c #D0C01C",
"j c #F4E020",
"k c #A88448",
"l c #B49054",
"z c #CCA874",
"x c #0428A0",
"c c #0C4084",
"v c #185090",
"b c #3470A4",
"n c #0C48CC",
"m c #4480B0",
"M c #848484",
"N c #9C8880",
"B c #909090",
"V c #B09C90",
"C c #C0B0A4",
"Z c #E8C498",
"A c #D4C4B4",
"S c #C0C0C0",
"D c #D8D8D8",
"F c None",
/* pixels */
"FFFFFFFFFFFFFFFFFFFFFFFFFFFFFF++++FFFFFFFFFFFFFFFFFFFFFFFFFFFFFF",
"FFFFFFFFFFFFFFFFFFFFFFFFFFFFF+:11:+FFFFFFFFFFFFFFFFFFFFFFFFFFFFF",
"FFFFFFFFFFFFFFFFFFFFFFFFFFFF+:$$1$$+FFFFFFFFFFFFFFFFFFFFFFFFFFFF",
"FFFFFFFFFFFFFFFFFFFFFFFF566%+::$$:$:$FFFFFFFFFFFFFFFFFFFFFFFFFFF",
"FFFFFFFFFFFFFFFFFFFFFF556xx%+:2==2::$6655FFFFFFFFFFFFFFFFFFFFFFF",
"FFFFFFFFFFFFFFFFF8mb8F66xnn%%2zZZz2%@xxx6FFFFFFFFFFFFFFFFFFFFFFF",
"FFFFFFFFFFFFFFvFm8448c6xxnn%%plzzzp%+xnxx6FFFFFFFFFFFFFFFFFFFFFF",
"FFFFFFFFFFFFFFFvb4  476xxx6+%%+lap+%+xnnx6FFFFFFFFFFFFFFFFFFFFFF",
"FFFFFFFFFFFFFFFvc8448bmx656+%>kk>k>%+xnnx5FFFFFFFFFFFFFFFFFFFFFF",
"FFFFFFFFFFFFFFFFFv77bxx6555+%1p$$p%%n6xnx5FFFFFFFFFFFFFFFFFFFFFF",
"FFFFFFFFFFFFFFFFFghg9x6555561@o%++1@x6xnx5FFFFFFFFFFFFFFFFFFFFFF",
"FFFFFFFFFFFFFFFF5fjf66655556*o+>%o%,66xnx6FFFFFFFFFFFFFFFFFFFFFF",
"FFFFFFFFFFFFFFF56uhfx6655566o++>:%+%66xnx6FFFFFFFFFFFFFFFFFFFFFF",
"FFFFFFFFFFFFFFF6xuguq96655665@+1:%+6x6xxx65FFFFFFFFFFFFFFFFFFFFF",
"FFFFFFFFFFFFFFF5rAu+2Ay55566x@@:%@wxxx66x65FFFFFFFFFFFFFFFFFFFFF",
"FFFFFFFFFFFFFFFFrC&<3tVF556xxfgiw9fxx6xxx65FFFFFFFFFFFFFFFFFFFFF",
"FFFFFFFFFFFFFFFFrV<+lMd0556xfdgi96fxx6xxnx5FFFFFFFFFFFFFFFFFFFFF",
"FFFFFFFFFFFFFFFFF<l<+dtq566xhkgi655fx66xnnx5FFFFFFFFFFFFFFFFFFFF",
"FFFFFFFFFFFFFFFFF<akkttq566gfggu   gx6etBMq5FFFFFFFFFFFFFFFFFFFF",
"FFFFFFFFFFFFFFFFFF<a-0qq66xhfgg<   hxBStDANyFFFFFFFFFFFFFFFFFFFF",
"FFFFFFFFFFFFFFFFFFF%+55566xhfgfO   hx#D#DA#NFFFFFFFFFFFFFFFFFFFF",
"FFFFFFFFFFFFFFFFFFF%+55566xhsguo   jxNSDDtNtFFFFFFFFFFFFFFFFFFFF",
"FFFFFFFFFFFFFFFFFFF-+F5666xjifi$   jxxt9zd##FFFFFFFFFFFFFFFFFFFF",
"FFFFFFFFFFFFFFFFFFF3+5666xxjffi@   hxxx3Zk65FFFFFFFFFFFFFFFFFFFF",
"FFFFFFFFFFFFFFFFFFF3+5666xxjpp&O   hxxx3Za665FFFFFFFFFFFFFFFFFFF",
"FFFFFFFFFFFFFFFFFFF-+i66xxxg;$@o   gxxxalax66FFFFFFFFFFFFFFFFFFF",
"FFFFFFFFFFFFFFFFFFF%+Fi6xxxxg&o    fxxx3l6xx6FFFFFFFFFFFFFFFFFFF",
"FFFFFFFFFFFFFFFFFFF%+FFigxxxh&o    ifxx66xxxiFFFFFFFFFFFFFFFFFFF",
"FFFFFFFFFFFFFFFFFFFFFFFF ighh=o     gxxxxxiiFFFFFFFFFFFFFFFFFFFF",
"FFFFFFFFFFFFFFFFFFFFFFFFF  X*<o     gghhgiFFFFFFFFFFFFFFFFFFFFFF",
"FFFFFFFFFFFFFFFFFFFFFFFFF  @==.          FFFFFFFFFFFFFFFFFFFFFFF",
"FFFFFFFFFFFFFFFFFFFFFFFFFF $&&.    FFFFFFFFFFFFFFFFFFFFFFFFFFFFF",
"FFFFFFFFFFFFFFFFFFFFFFFFFF o&@ FFFFFFFFFFFFFFFFFFFFFFFFFFFFFFFFF",
"FFFFFFFFFFFFFFFFFFFFFFFFFFF   FFFFFFFFFFFFFFFFFFFFFFFFFFFFFFFFFF",
"FFFFFFFFFFFFFFFFFFFFFFFFFFFFFFFFFFFFFFFFFFFFFFFFFFFFFFFFFFFFFFFF",
"FFFFFFFFFFFFFFFFFFFFFFFFFFFFFFFFFFFFFFFFFFFFFFFFFFFFFFFFFFFFFFFF",
"FFFFFFFFFFFFFFFFFFFFFFFFFFFFFFFFFFFFFFFFFFFFFFFFFFFFFFFFFFFFFFFF",
"FFFFFFFFFFFFFFFFFFFFFFFFFFFFFFFFFFFFFFFFFFFFFFFFFFFFFFFFFFFFFFFF",
"FFFFFFFFFFFFFFFFFFFFFFFFFFFFFFFFFFFFFFFFFFFFFFFFFFFFFFFFFFFFFFFF",
"FFFFFFFFFFFFFFFFFFFFFFFFFFFFFFFFFFFFFFFFFFFFFFFFFFFFFFFFFFFFFFFF",
"FFFFFFFFFFFFFFFFFFFFFFFFFFFFFFFFFFFFFFFFFFFFFFFFFFFFFFFFFFFFFFFF",
"FFFFFFFFFFFFFFFFFFFFFFFFFFFFFFFFFFFFFFFFFFFFFFFFFFFFFFFFFFFFFFFF",
"FFFFFFFFFFFFFFFFFFFFFFFFFFFFFFFFFFFFFFFFFFFFFFFFFFFFFFFFFFFFFFFF",
"FFFFFFFFFFFFFFFFFFFFFFFFFFFFFFFFFFFFFFFFFFFFFFFFFFFFFFFFFFFFFFFF",
"FFFFFFFFFFFFFFFFFFFFFFFFFFFFFFFFFFFFFFFFFFFFFFFFFFFFFFFFFFFFFFFF",
"FFFFFFFFFFFFFFFFFFFFFFFFFFFFFFFFFFFFFFFFFFFFFFFFFFFFFFFFFFFFFFFF",
"FFFFFFFFFFFFFFFFFFFFFFFFFFFFFFFFFFFFFFFFFFFFFFFFFFFFFFFFFFFFFFFF",
"FFFFFFFFFFFFFFFFFFFFFFFFFFFFFFFFFFFFFFFFFFFFFFFFFFFFFFFFFFFFFFFF",
"FFFFFFFFFFFFFFFFFFFFFFFFFFFFFFFFFFFFFFFFFFFFFFFFFFFFFFFFFFFFFFFF",
"FFFFFFFFFFFFFFFFFFFFFFFFFFFFFFFFFFFFFFFFFFFFFFFFFFFFFFFFFFFFFFFF",
"FFFFFFFFFFFFFFFFFFFFFFFFFFFFFFFFFFFFFFFFFFFFFFFFFFFFFFFFFFFFFFFF",
"FFFFFFFFFFFFFFFFFFFFFFFFFFFFFFFFFFFFFFFFFFFFFFFFFFFFFFFFFFFFFFFF",
"FFFFFFFFFFFFFFFFFFFFFFFFFFFFFFFFFFFFFFFFFFFFFFFFFFFFFFFFFFFFFFFF",
"FFFFFFFFFFFFFFFFFFFFFFFFFFFFFFFFFFFFFFFFFFFFFFFFFFFFFFFFFFFFFFFF",
"FFFFFFFFFFFFFFFFFFFFFFFFFFFFFFFFFFFFFFFFFFFFFFFFFFFFFFFFFFFFFFFF",
"FFFFFFFFFFFFFFFFFFFFFFFFFFFFFFFFFFFFFFFFFFFFFFFFFFFFFFFFFFFFFFFF",
"FFFFFFFFFFFFFFFFFFFFFFFFFFFFFFFFFFFFFFFFFFFFFFFFFFFFFFFFFFFFFFFF",
"FFFFFFFFFFFFFFFFFFFFFFFFFFFFFFFFFFFFFFFFFFFFFFFFFFFFFFFFFFFFFFFF",
"FFFFFFFFFFFFFFFFFFFFFFFFFFFFFFFFFFFFFFFFFFFFFFFFFFFFFFFFFFFFFFFF",
"FFFFFFFFFFFFFFFFFFFFFFFFFFFFFFFFFFFFFFFFFFFFFFFFFFFFFFFFFFFFFFFF",
"FFFFFFFFFFFFFFFFFFFFFFFFFFFFFFFFFFFFFFFFFFFFFFFFFFFFFFFFFFFFFFFF",
"FFFFFFFFFFFFFFFFFFFFFFFFFFFFFFFFFFFFFFFFFFFFFFFFFFFFFFFFFFFFFFFF",
"FFFFFFFFFFFFFFFFFFFFFFFFFFFFFFFFFFFFFFFFFFFFFFFFFFFFFFFFFFFFFFFF",
"FFFFFFFFFFFFFFFFFFFFFFFFFFFFFFFFFFFFFFFFFFFFFFFFFFFFFFFFFFFFFFFF"
};
