/* XPM */
static char *result[] = {
/* columns rows colors chars-per-pixel */
"64 65 50 1 ",
"  c black",
". c #241400",
"X c #342000",
"o c #3C2404",
"O c #482C04",
"+ c #5C3000",
"@ c #503008",
"# c #58380C",
"$ c #603810",
"% c #684000",
"& c #785004",
"* c #644014",
"= c #684014",
"- c #6C4C18",
"; c #744C1C",
": c #7C5820",
"> c #000440",
", c #00044C",
"< c #001474",
"1 c #002870",
"2 c #043478",
"3 c #304858",
"4 c gray25",
"5 c #544440",
"6 c #585858",
"7 c #685450",
"8 c #6C6C6C",
"9 c #886408",
"0 c #98780C",
"q c #886428",
"w c #907030",
"e c #A88C10",
"r c #BCA414",
"t c #D0C01C",
"y c #F4E020",
"u c #A88448",
"i c #B49054",
"p c #CCA874",
"a c #0428A0",
"s c #0C4084",
"d c #185090",
"f c #3470A4",
"g c #0C48CC",
"h c #4480B0",
"j c #848484",
"k c #B09C90",
"l c #C0B0A4",
"z c #E8C498",
"x c #D4C4B4",
"c c None",
/* pixels */
"cccccccccccccccccccccccccccccccccccccccccccccccccccccccccccccccc",
"cccccccccccccccccccccccccccccccccccccccccccccccccccccccccccccccc",
"cccccccccccccccccccccccccccccccccccccccccccccccccccccccccccccccc",
"cccccccccccccccccccccccccccccccccccccccccccccccccccccccccccccccc",
"cccccccccccccccccccccccccccccccccccccccccccccccccccccccccccccccc",
"cccccccccccccccccccccccccccccccccccccccccccccccccccccccccccccccc",
"cccccccccccccccccccccccccccccccccccccccccccccccccccccccccccccccc",
"cccccccccccccccccccccccccccccccccccccccccccccccccccccccccccccccc",
"cccccccccccccccccccccccccccccccccccccccccccccccccccccccccccccccc",
"cccccccccccccccccccccccccccccccccccccccccccccccccccccccccccccccc",
"cccccccccccccccccccccccccccccccccccccccccccccccccccccccccccccccc",
"cccccccccccccccccccccccccccccccccccccccccccccccccccccccccccccccc",
"cccccccccccccccccccccccccccccccccccccccccccccccccccccccccccccccc",
"cccccccccccccccccccccccccccccccccccccccccccccccccccccccccccccccc",
"cccccccccccccccccccccccccccccccccccccccccccccccccccccccccccccccc",
"cccccccccccccccccccccccccccccccccccccccccccccccccccccccccccccccc",
"cccccccccccccccccccccccccccccccccccccccccccccccccccccccccccccccc",
"cccccccccccccccccccccccccccccccccccccccccccccccccccccccccccccccc",
"cccccccccccccccccccccccccccccccccccccccccccccccccccccccccccccccc",
"cccccccccccccccccccccccccccccccccccccccccccccccccccccccccccccccc",
"cccccccccccccccccccccccccccccccccccccccccccccccccccccccccccccccc",
"cccccccccccccccccccccccccccccccccccccccccccccccccccccccccccccccc",
"cccccccccccccccccccccccccccccccccccccccccccccccccccccccccccccccc",
"cccccccccccccccccccccccccccccccccccccccccccccccccccccccccccccccc",
"cccccccccccccccccccccccccccccccccccccccccccccccccccccccccccccccc",
"cccccccccccccccccccccccccccccccccccccccccccccccccccccccccccccccc",
"cccccccccccccccccccccccccccccccccccccccccccccccccccccccccccccccc",
"cccccccccccccccccccccccccccccccccccccccccccccccccccccccccccccccc",
"cccccccccccccccccccccccccccccccccccccccccccccccccccccccccccccccc",
"cccccccccccccccccccccccccccccccccccccccccccccccccccccccccccccccc",
"cccccccccccccccccccccccccccccccccccccccccccccccccccccccccccccccc",
"cccccccccccccccccccccccccccccccccccccccccccccccccccccccccccccccc",
"cccccccccccccccccccccccccccccccccccccccccccccccccccccccccccccccc",
"cccccccccccccccccccccccccccccccccccccccccccccccccccccccccccccccc",
"cccccccccccccccccccccccccccccccccccccccccccccccccccccccccccccccc",
"cccccccccccccccccccccccccccccccccccccccccccccccccccccccccccccccc",
"cccccccccccccccccccccccccccccccccccccccccccccccccccccccccccccccc",
"cccccccccccccccccccccccccccccccccccccccccccccccccccccccccccccccc",
"cccccccccccccccccccccccccccccccccccccccccccccccccccccccccccccccc",
"cccccccccccccccccccccccccccccccccccccccccccccccccccccccccccccccc",
"cccccccccccccccccccccccccccccccccccccccccccccccccccccccccccccccc",
"cccccccccccccccccccccccccccccccccccccccccccccccccccccccccccccccc",
"cccccccccccccccccccccccccccccccccccccccccccccccccccccccccccccccc",
"cccccccccccccccccccccccccccccccccccccccccccccccccccccccccccccccc",
"cccccccccccccccccccccccccccccccccccccccccccccccccccccccccccccccc",
"cccccccccccccccccccccccccccccccccccccccccccccccccccccccccccccccc",
"cccccccccccccccccccccccccccccccccccccccccccccccccccccccccccccccc",
"cccccccccccccccccccccccccccccccccccccccccccccccccccccccccccccccc",
"ccccccccccccccccccccccccccccccXXXXcccccccccccccccccccccccccccccc",
"cccccccccccccccccccccccccccccX%--%Xccccccccccccccccccccccccccccc",
"ccccccccccccccccccccccccccccX%OO-OOXcccccccccccccccccccccccccccc",
"cccccccccccccccdcccccccc,,,+X%%OO%O%O,,,cccccccccccccccccccccccc",
"ccccccccccccccccdccccc,,<aa+X%;$$;%%O<a<,ccccccccccccccccccccccc",
"ccccccccccccccccd2dd2c,<agg++;pzzp;+oaga<,cccccccccccccccccccccc",
"cccccccccccccccds2>>2s,aagg++qipppq+Xagga,cccccccccccccccccccccc",
"ccccccccccccccccf>  >1<aaaaX++XiwqX+Xagaa,cccccccccccccccccccccc",
"ccccccccccccccccs2>>2s<h<,<X+&uu&u&+Xa<aa<,ccccccccccccccccccccc",
"cccccccccccccccccdfhhhf<,,,X+-qOOq++ga<aa<,ccccccccccccccccccccc",
"cccccccccccccccc,rtr3h,,.,,<-o.+XX-oaa<<a<,ccccccccccccccccccccc",
"ccccccccccccccc,<eyea<<.,,,<#.X&+.+*<<<,<<,,cccccccccccccccccccc",
"ccccccccccccccc<<9te<<,.,,<<.XX&%+X+<<a,<aa<,ccccccccccccccccccc",
"ccccccccccccccc<,9r93<,.,,<<,oX-%+X<aaa<agaa<ccccccccccccccccccc",
"ccccccccccccccc<7x9Xox8,,<<aaoo%+o5aaa<,agga<ccccccccccccccccccc",
"ccccccccccccccc4xl@=:88,,,<aaa:999q<aa<,aaaa,ccccccccccccccccccc",
"cccccccccccccccl8k=Xij5,,,<aar005506aa<,<<<<,ccccccccccccccccccc"
};
