/* XPM */
static char *result[] = {
/* columns rows colors chars-per-pixel */
"64 64 57 1 ",
"  c black",
". c #180000",
"X c gray11",
"o c #241400",
"O c #2C1800",
"+ c #342000",
"@ c #3C2404",
"# c #282828",
"$ c #482C04",
"% c #5C3000",
"& c #503008",
"* c #58380C",
"= c #603810",
"- c #684000",
"; c #785004",
": c #644014",
"> c #684014",
", c #6C4C18",
"< c #744C1C",
"1 c #7C5820",
"2 c #000440",
"3 c #00044C",
"4 c #001474",
"5 c #002870",
"6 c #043478",
"7 c gray25",
"8 c #4C4C4C",
"9 c #646464",
"0 c #6C6C6C",
"q c gray47",
"w c #886408",
"e c #98780C",
"r c #886428",
"t c #907030",
"y c #9C7C3C",
"u c #A88C10",
"i c #BCA414",
"p c #D0C01C",
"a c #F4E020",
"s c #A88448",
"d c #B49054",
"f c #CCA874",
"g c #0428A0",
"h c #0C4084",
"j c #185090",
"k c #3470A4",
"l c #0C48CC",
"z c #4480B0",
"x c #848484",
"c c #909090",
"v c gray61",
"b c #B4B4B4",
"n c #E8C498",
"m c #D4C4B4",
"M c #C0C0C0",
"N c #D8D8D8",
"B c None",
/* pixels */
"BBBBBBBBBBBBBBBBBBBBBBBBBBBBBBBBBBBBBBBBBBBBBBBBBBBBBBBBBBBBBBBB",
"BBBBBBBBBBBBBBBBBBBBBBBBBBBBBBBBBBBBBBBBBBBBBBBBBBBBBBBBBBBBBBBB",
"BBBBBBBBBBBBBBBBBBBBBBBBBBBBBBBBBBBBBBBBBBBBBBBBBBBBBBBBBBBBBBBB",
"BBBBBBBBBBBBBBBBBBBBBBBBBBBBBBBBBBBBBBBBBBBBBBBBBBBBBBBBBBBBBBBB",
"BBBBBBBBBBBBBBBBBBBBBBBBBBBBBBBBBBBBBBBBBBBBBBBBBBBBBBBBBBBBBBBB",
"BBBBBBBBBBBBBBBBBBBBBBBBBBBBBBBBBBBBBBBBBBBBBBBBBBBBBBBBBBBBBBBB",
"BBBBBBBBBBBBBBBBBBBBBBBBBBBBBBBBBBBBBBBBBBBBBBBBBBBBBBBBBBBBBBBB",
"BBBBBBBBBBBBBBBBBBBBBBBBBBBBBBBBBBBBBBBBBBBBBBBBBBBBBBBBBBBBBBBB",
"BBBBBBBBBBBBBBBBBBBBBBBBBBBBBBBBBBBBBBBBBBBBBBBBBBBBBBBBBBBBBBBB",
"BBBBBBBBBBBBBBBBBBBBBBBBBBBBBBBBBBBBBBBBBBBBBBBBBBBBBBBBBBBBBBBB",
"BBBBBBBBBBBBBBBBBBBBBBBBBBBBBBBBBBBBBBBBBBBBBBBBBBBBBBBBBBBBBBBB",
"BBBBBBBBBBBBBBBBBBBBBBBBBBBBBBBBBBBBBBBBBBBBBBBBBBBBBBBBBBBBBBBB",
"BBBBBBBBBBBBBBBBBBBBBBBBBBBBBBBBBBBBBBBBBBBBBBBBBBBBBBBBBBBBBBBB",
"BBBBBBBBBBBBBBBBBBBBBBBBBBBBBBB.o+oBBBBBBBBBBBBBBBBBBBBBBBBBBBBB",
"BBBBBBBBBBBBBBBBBBBBBBBBBBBBBBO+@@@O333BBBBBBBBBBBBBBBBBBBBBBBBB",
"BBBBBBBBBBBBBBBBBBBBBBBBBBBBBO=<>**$O343BBBBBBBBBBBBBBBBBBBBBBBB",
"BBBBBBBBBBBBBBBBBBBBBBBBBBBBBBtfs1<*O343BBBBBBBBBBBBBBBBBBBBBBBB",
"BBBBBBBBBBBBBBBBBBBBBBBBBBBBB>ysd1>=O343BBBBBBBBBBBBBBBBBBBBBBBB",
"BBBBBBBBBBBBBBBjBBBBBBBBBBBB=t%<%,t$@343BBBBBBBBBBBBBBBBBBBBBBBB",
"BBBBBBBBBBBBBBBBBBBBBBBBBBBB$$ort>$o333BBBBBBBBBBBBBBBBBBBBBBBBB",
"BBBBBBBBBBBBB6jj6BBBBBBBBBBO%O-o%3334433BBBBBBBBBBBBBBBBBBBBBBBB",
"BBBBBBBBBBBBh6226hBBBBBBBBB@;$O;o344g433BBBBBBBBBBBBBBBBBBBBBBBB",
"BBBBBBBBBBBBz2  2zBBBBBBBBB@;%+>34gggg43BBBBBBBBBBBBBBBBBBBBBBBB",
"BBBBBBBBBBBBh6226h@BBBBBBBB@,%@3g4443443BBBBBBBBBBBBBBBBBBBBBBBB",
"BBBBBBBBBBBBBh55zd-BBBBBBBB$-@Og44gg4343BBBBBBBBBBBBBBBBBBBBBBBB",
"BBBBBBBBBBBBBBBkiiu+BBBBBBB@$o:44gglg433BBBBBBBBBBBBBBBBBBBBBBBB",
"BBBBBBBBBBBBBBBB-iawBBBBBBB@O@334gllg433BBBBBBBBBBBBBBBBBBBBBBBB",
"BBBBBBBBBBBBBBBBB-ia$BBBBBBBo>343gllg433BBBBBBBBBBBBBBBBBBBBBBBB",
"BBBBBBBBBBBBBBBBBB;ieBBBBBBB@>3434glg333BBBBBBBBBBBBBBBBBBBBBBBB",
"BBBBBBBBBBBBBBBBBBB;wOBBBBBB.@3434ggg333BBBBBBBBBBBBBBBBBBBBBBBB",
"BBBBBBBBBBBBBBBBBBBB@$.BBBBBB33434ggg3333BBBBBBBBBBBBBBBBBBBBBBB",
"BBBBBBBBBBBBBBBBBBBB.$@BBBBBB4334ggl44333BBBBBBBBBBBBBBBBBBBBBBB",
"BBBBBBBBBBBBBBBBBBBBBo$OBBBBBxvx9glg434333BBBBBBBBBBBBBBBBBBBBBB",
"BBBBBBBBBBBBBBBBBBBBBB+$@<<r&v7Mc8lg344333BBBBBBBBBBBBBBBBBBBBBB",
"BBBBBBBBBBBBBBBBBBBBBB=@rfnn<b0Nbvlg3443333BBBBBBBBBBBBBBBBBBBBB",
"BBBBBBBBBBBBBBBBBBBBBB=rdnnf<bNN0c434g4333;BBBBBBBBBBBBBBBBBBBBB",
"BBBBBBBBBBBBBBBBBBBBBBB=yftX3b0Nvq344g433;+BBBBBBBBBBBBBBBBBBBBB",
"BBBBBBBBBBBBBBBBBBBBBBBBB@$+3vm0v844gg443wOoBBBBBBBBBBBBBBBBBBBB",
"BBBBBBBBBBBBBBBBBBBBBBBBB.@$3v7N0344gg4443@$BBBBBBBBBBBBBBBBBBBB",
"BBBBBBBBBBBBBBBBBBBBBBBBBBo$+xMx834ggg4444#OBBBBBBBBBBBBBBBBBBBB",
"BBBBBBBBBBBBBBBBBBBBBBBBBBBo$8x9344gggg4443 BBBBBBBBBBBBBBBBBBBB",
"BBBBBBBBBBBBBBBBBBBBBBBBBBB3o$84g44gggg4443;BBBBBBBBBBBBBBBBBBBB",
"BBBBBBBBBBBBBBBBBBBBBBBBBBB;o@+4ggggggg4443wBBBBBBBBBBBBBBBBBBBB",
"BBBBBBBBBBBBBBBBBBBBBBBBBBBB3o+4gggggggg44; BBBBBBBBBBBBBBBBBBBB",
"BBBBBBBBBBBBBBBBBBBBBBBBBBBBe4o+g44ggggg43wBBBBBBBBBBBBBBBBBBBBB",
"BBBBBBBBBBBBBBBBBBBBBBBBBBBBBu4$+44ggggg4w BBBBBBBBBBBBBBBBBBBBB",
"BBBBBBBBBBBBBBBBBBBBBBBBBBBBB p;$444gggg4eBBBBBBBBBBBBBBBBBBBBBB",
"BBBBBBBBBBBBBBBBBBBBBBBBBBBBBB iue;33444u BBBBBBBBBBBBBBBBBBBBBB",
"BBBBBBBBBBBBBBBBBBBBBBBBBBBBBBB   epapiu BBBBBBBBBBBBBBBBBBBBBBB",
"BBBBBBBBBBBBBBBBBBBBBBBBBBBBBBBBB       BBBBBBBBBBBBBBBBBBBBBBBB",
"BBBBBBBBBBBBBBBBBBBBBBBBBBBBBBBBBB     BBBBBBBBBBBBBBBBBBBBBBBBB",
"BBBBBBBBBBBBBBBBBBBBBBBBBBBBBBBBBBBBBBBBBBBBBBBBBBBBBBBBBBBBBBBB",
"BBBBBBBBBBBBBBBBBBBBBBBBBBBBBBBBBBBBBBBBBBBBBBBBBBBBBBBBBBBBBBBB",
"BBBBBBBBBBBBBBBBBBBBBBBBBBBBBBBBBBBBBBBBBBBBBBBBBBBBBBBBBBBBBBBB",
"BBBBBBBBBBBBBBBBBBBBBBBBBBBBBBBBBBBBBBBBBBBBBBBBBBBBBBBBBBBBBBBB",
"BBBBBBBBBBBBBBBBBBBBBBBBBBBBBBBBBBBBBBBBBBBBBBBBBBBBBBBBBBBBBBBB",
"BBBBBBBBBBBBBBBBBBBBBBBBBBBBBBBBBBBBBBBBBBBBBBBBBBBBBBBBBBBBBBBB",
"BBBBBBBBBBBBBBBBBBBBBBBBBBBBBBBBBBBBBBBBBBBBBBBBBBBBBBBBBBBBBBBB",
"BBBBBBBBBBBBBBBBBBBBBBBBBBBBBBBBBBBBBBBBBBBBBBBBBBBBBBBBBBBBBBBB",
"BBBBBBBBBBBBBBBBBBBBBBBBBBBBBBBBBBBBBBBBBBBBBBBBBBBBBBBBBBBBBBBB",
"BBBBBBBBBBBBBBBBBBBBBBBBBBBBBBBBBBBBBBBBBBBBBBBBBBBBBBBBBBBBBBBB",
"BBBBBBBBBBBBBBBBBBBBBBBBBBBBBBBBBBBBBBBBBBBBBBBBBBBBBBBBBBBBBBBB",
"BBBBBBBBBBBBBBBBBBBBBBBBBBBBBBBBBBBBBBBBBBBBBBBBBBBBBBBBBBBBBBBB",
"BBBBBBBBBBBBBBBBBBBBBBBBBBBBBBBBBBBBBBBBBBBBBBBBBBBBBBBBBBBBBBBB"
};
