/* XPM */
static char *result[] = {
/* columns rows colors chars-per-pixel */
"64 64 56 1 ",
"  c black",
". c #180000",
"X c gray8",
"o c #241400",
"O c #2C1800",
"+ c #342000",
"@ c #3C2404",
"# c #482C04",
"$ c #5C3000",
"% c #503008",
"& c #58380C",
"* c #603810",
"= c #684000",
"- c #785004",
"; c #644014",
": c #684014",
"> c #6C4C18",
", c #744C1C",
"< c #7C5820",
"1 c #000440",
"2 c #00044C",
"3 c #001474",
"4 c #002870",
"5 c #043478",
"6 c gray25",
"7 c #4C4C4C",
"8 c #685450",
"9 c #646464",
"0 c #6C6C6C",
"q c #886408",
"w c #98780C",
"e c #886428",
"r c #907030",
"t c #9C7C3C",
"y c #A88C10",
"u c #BCA414",
"i c #D0C01C",
"p c #F4E020",
"a c #A88448",
"s c #B49054",
"d c #CCA874",
"f c #0428A0",
"g c #0C4084",
"h c #185090",
"j c #3470A4",
"k c #0C48CC",
"l c #4480B0",
"z c #848484",
"x c #909090",
"c c gray61",
"v c #B4B4B4",
"b c #E8C498",
"n c #D4C4B4",
"m c #C0C0C0",
"M c #D8D8D8",
"N c None",
/* pixels */
"NNNNNNNNNNNNNNNNNNNNNNNNNNNNNNNNNNNNNNNNNNNNNNNNNNNNNNNNNNNNNNNN",
"NNNNNNNNNNNNNNNNNNNNNNNNNNNNNNNNNNNNNNNNNNNNNNNNNNNNNNNNNNNNNNNN",
"NNNNNNNNNNNNNNNNNNNNNNNNNNNNNNNNNNNNNNNNNNNNNNNNNNNNNNNNNNNNNNNN",
"NNNNNNNNNNNNNNNNNNNNNNNNNNNNNNNNNNNNNNNNNNNNNNNNNNNNNNNNNNNNNNNN",
"NNNNNNNNNNNNNNNNNNNNNNNNNNNNNNNNNNNNNNNNNNNNNNNNNNNNNNNNNNNNNNNN",
"NNNNNNNNNNNNNNNNNNNNNNNNNNNNNNNNNNNNNNNNNNNNNNNNNNNNNNNNNNNNNNNN",
"NNNNNNNNNNNNNNNNNNNNNNNNNNNNNNNNNNNNNNNNNNNNNNNNNNNNNNNNNNNNNNNN",
"NNNNNNNNNNNNNNNNNNNNNNNNNNNNNNNNNNNNNNNNNNNNNNNNNNNNNNNNNNNNNNNN",
"NNNNNNNNNNNNNNNNNNNNNNNNNNNNNNNNNNNNNNNNNNNNNNNNNNNNNNNNNNNNNNNN",
"NNNNNNNNNNNNNNNNNNNNNNNNNNNNNNNNNNNNNNNNNNNNNNNNNNNNNNNNNNNNNNNN",
"NNNNNNNNNNNNNNNNNNNNNNNNNNNNNNNNNNNNNNNNNNNNNNNNNNNNNNNNNNNNNNNN",
"NNNNNNNNNNNNNNNNNNNNNNNNNNNNNNNNNNNNNNNNNNNNNNNNNNNNNNNNNNNNNNNN",
"NNNNNNNNNNNNNNNNNNNNNNNNNNNNNNNNNNNNNNNNNNNNNNNNNNNNNNNNNNNNNNNN",
"NNNNNNNNNNNNNNNNNNNNNNNNNNNNNNNNNNNNNNNNNNNNNNNNNNNNNNNNNNNNNNNN",
"NNNNNNNNNNNNNNNNNNNNNN2222NNNNNNNNNNNNNNNNNNNNNNNNNNNNNNNNNNNNNN",
"NNNNNNNNNNNNNNNNNNN.o+o23322NNNNNNNNNNNNNNNNNNNNNNNNNNNNNNNNNNNN",
"NNNNNNNNNNNNNNNNN.O+@@@O2f232NNNNNNNNNNNNNNNNNNNNNNNNNNNNNNNNNNN",
"NNNNNNNNNNNNNNNNNO*,:&&#Of322NNNNNNNNNNNNNNNNNNNNNNNNNNNNNNNNNNN",
"NNNNNlNNNNNNNNNNNNrda<,&O333222NNNNNNNNNNNNNNNNNNNNNNNNNNNNNNNNN",
"NNNNljNNNNNNNNNNN:tas<:*O33f3332NNNNNNNNNNNNNNNNNNNNNNNNNNNNNNNN",
"NNjhh5NNNNNNNNNN*r$,$>r#@33ffff32NNNNNNNNNNNNNNNNNNNNNNNNNNNNNNN",
"Nl5115jNNNNNNNNN##oer:#o223fffff3NNNNNNNNNNNNNNNNNNNNNNNNNNNNNNN",
"Nj1  1lNNNNNNNNO$O=o$23f323333332NNNNNNNNNNNNNNNNNNNNNNNNNNNNNNN",
"Ng5115hhNNNNNNN@-#O-o3kff3232222NNNNNNNNNNNNNNNNNNNNNNNNNNNNNNNN",
"NNg44hg.hNNNNNN@-$+:23fff322NNNNNNNNNNNNNNNNNNNNNNNNNNNNNNNNNNNN",
"NNNNwuy+NNNNNNN@>$@233323322NNNNNNNNNNNNNNNNNNNNNNNNNNNNNNNNNNNN",
"NNNN+pu=NNNNNNN#=@@3fff32322NNNNNNNNNNNNNNNNNNNNNNNNNNNNNNNNNNNN",
"NNNNNupqNNNNNNN@@o23fkkf322NNNNNNNNNNNNNNNNNNNNNNNNNNNNNNNNNNNNN",
"NNNNN-uyoNNNNN%@O223fkkf3222NNNNNNNNNNNNNNNNNNNNNNNNNNNNNNNNNNNN",
"NNNNNN-wONNNNN:-;233fkkf3222NNNNNNNNNNNNNNNNNNNNNNNNNNNNNNNNNNNN",
"NNNNNNN@@NNNNN%%2233fkkf23222NNNNNNNNNNNNNNNNNNNNNNNNNNNNNNNNNNN",
"NNNNNNNo#oNNNN@3223fffff232222NNNNNNNNNNNNNNNNNNNNNNNNNNNNNNNNNN",
"NNNNNNNN@@oNNNX3222fkff3232222NNNNNNNNNNNNNNNNNNNNNNNNNNNNNNNNNN",
"NNNNNNNNO%@@@@ff23ffkkf2f3223222NNNNNNNNNNNNNNNNNNNNNNNNNNNNNNNN",
"NNNNNNNN.%rdstzcz9fkkf32f323332-NNNNNNNNNNNNNNNNNNNNNNNNNNNNNNNN",
"NNNNNNNN*rdbbdc6mx7kf323f323332woNNNNNNNNNNNNNNNNNNNNNNNNNNNNNNN",
"NNNNNNNNN*dda8vMM0x3223ff32332w:@Oo.NNNNNNNNNNNNNNNNNNNNNNNNNNNN",
"NNNNNNNNNNooNNv0Mmx3233ff3232w:%##%%.NNNNNNNNNNNNNNNNNNNNNNNNNNN",
"NNNNNNNNNNo#oNcn0x02333ff3222OO.O#%#NNNNNNNNNNNNNNNNNNNNNNNNNNNN",
"NNNNNNNNNNN@@2c6Mx03333ff3222  O#&#oNNNNNNNNNNNNNNNNNNNNNNNNNNNN",
"NNNNNNNNNNNo#o0Mx023333ff33222 .@@  NNNNNNNNNNNNNNNNNNNNNNNNNNNN",
"NNNNNNNNNNNN@+2x0233333ff33322     NNNNNNNNNNNNNNNNNNNNNNNNNNNNN",
"NNNNNNNNNNNNO#23023f333ff3333=    NNNNNNNNNNNNNNNNNNNNNNNNNNNNNN",
"NNNNNNNNNNNNN#22333f33ffff333-   NNNNNNNNNNNNNNNNNNNNNNNNNNNNNNN",
"NNNNNNNNNNNNN+-233ffffffff333w  NNNNNNNNNNNNNNNNNNNNNNNNNNNNNNNN",
"NNNNNNNNNNNNN.#w3fffffffff32w  NNNNNNNNNNNNNNNNNNNNNNNNNNNNNNNNN",
"NNNNNNNNNNNNNN@Ou33333ffff3w   NNNNNNNNNNNNNNNNNNNNNNNNNNNNNNNNN",
"NNNNNNNNNNNNNN   upi-33fff-w  NNNNNNNNNNNNNNNNNNNNNNNNNNNNNNNNNN",
"NNNNNNNNNNNNNNN     uiw-33w  NNNNNNNNNNNNNNNNNNNNNNNNNNNNNNNNNNN",
"NNNNNNNNNNNNNNNN      quywNNNNNNNNNNNNNNNNNNNNNNNNNNNNNNNNNNNNNN",
"NNNNNNNNNNNNNNNNNNN      NNNNNNNNNNNNNNNNNNNNNNNNNNNNNNNNNNNNNNN",
"NNNNNNNNNNNNNNNNNNNN    NNNNNNNNNNNNNNNNNNNNNNNNNNNNNNNNNNNNNNNN",
"NNNNNNNNNNNNNNNNNNNNNNNNNNNNNNNNNNNNNNNNNNNNNNNNNNNNNNNNNNNNNNNN",
"NNNNNNNNNNNNNNNNNNNNNNNNNNNNNNNNNNNNNNNNNNNNNNNNNNNNNNNNNNNNNNNN",
"NNNNNNNNNNNNNNNNNNNNNNNNNNNNNNNNNNNNNNNNNNNNNNNNNNNNNNNNNNNNNNNN",
"NNNNNNNNNNNNNNNNNNNNNNNNNNNNNNNNNNNNNNNNNNNNNNNNNNNNNNNNNNNNNNNN",
"NNNNNNNNNNNNNNNNNNNNNNNNNNNNNNNNNNNNNNNNNNNNNNNNNNNNNNNNNNNNNNNN",
"NNNNNNNNNNNNNNNNNNNNNNNNNNNNNNNNNNNNNNNNNNNNNNNNNNNNNNNNNNNNNNNN",
"NNNNNNNNNNNNNNNNNNNNNNNNNNNNNNNNNNNNNNNNNNNNNNNNNNNNNNNNNNNNNNNN",
"NNNNNNNNNNNNNNNNNNNNNNNNNNNNNNNNNNNNNNNNNNNNNNNNNNNNNNNNNNNNNNNN",
"NNNNNNNNNNNNNNNNNNNNNNNNNNNNNNNNNNNNNNNNNNNNNNNNNNNNNNNNNNNNNNNN",
"NNNNNNNNNNNNNNNNNNNNNNNNNNNNNNNNNNNNNNNNNNNNNNNNNNNNNNNNNNNNNNNN",
"NNNNNNNNNNNNNNNNNNNNNNNNNNNNNNNNNNNNNNNNNNNNNNNNNNNNNNNNNNNNNNNN",
"NNNNNNNNNNNNNNNNNNNNNNNNNNNNNNNNNNNNNNNNNNNNNNNNNNNNNNNNNNNNNNNN"
};
