/* XPM */
static char *result[] = {
/* columns rows colors chars-per-pixel */
"64 64 167 2 ",
"   c #1B191A",
".  c #26060C",
"X  c #2C0F16",
"o  c #281D1F",
"O  c #03231E",
"+  c #1F1F21",
"@  c #1D242A",
"#  c #1F282F",
"$  c #162026",
"%  c #023336",
"&  c #153636",
"*  c #242325",
"=  c #252628",
"-  c #2D252A",
";  c #27292B",
":  c #2A2B2D",
">  c #2B2225",
",  c #2C2E31",
"<  c #272D33",
"1  c #2E3135",
"2  c #2D353A",
"3  c #2C3A3E",
"4  c #273437",
"5  c #313236",
"6  c #32363B",
"7  c #3A333B",
"8  c #33393E",
"9  c #3A363B",
"0  c #412E37",
"q  c #1B3C40",
"w  c #233E43",
"e  c #2C3E43",
"r  c #363C42",
"t  c #3A3E44",
"y  c #483C44",
"u  c #05464A",
"i  c #004D50",
"p  c #005053",
"a  c #00575B",
"s  c #135659",
"d  c #1A5559",
"f  c #155157",
"g  c #274243",
"h  c #274B4D",
"j  c #2A4349",
"k  c #3B4046",
"l  c #3D434A",
"z  c #33484E",
"x  c #284B51",
"c  c #384A53",
"v  c #235A5F",
"b  c #3C5057",
"n  c #00605D",
"m  c #005F60",
"M  c #155D61",
"N  c #285F63",
"B  c #3E5C63",
"V  c #006163",
"C  c #0A6E6E",
"Z  c #166869",
"A  c #12716F",
"S  c #007572",
"D  c #0B7573",
"F  c #007875",
"G  c #1A7777",
"H  c #2A666B",
"J  c #287171",
"K  c #3C757C",
"L  c #42454B",
"P  c #44484F",
"I  c #49484E",
"U  c #454B52",
"Y  c #484C54",
"T  c #514D53",
"R  c #4A5057",
"E  c #41555A",
"W  c #4D545C",
"Q  c #51565D",
"!  c #54585F",
"~  c #4E5B63",
"^  c #555B63",
"/  c #585F66",
"(  c #476168",
")  c #48636A",
"_  c #5C636B",
"`  c #486F76",
"'  c #536B71",
"]  c #5E6E76",
"[  c #4E737B",
"{  c #61666E",
"}  c #606770",
"|  c #646A72",
" . c #686D75",
".. c #6D737C",
"X. c #657179",
"o. c #73757E",
"O. c #0F807F",
"+. c #457F87",
"@. c #547880",
"#. c #6F7A82",
"$. c #717780",
"%. c #747A83",
"&. c #797D86",
"*. c #7B7F89",
"=. c #008987",
"-. c #008F8D",
";. c #1D8386",
":. c #00908F",
">. c #009D9A",
",. c #009291",
"<. c #208080",
"1. c #358287",
"2. c #299594",
"3. c #1CACAB",
"4. c #03B4B2",
"5. c #24ADAC",
"6. c #3DB3B5",
"7. c #4D8E95",
"8. c #5E8A93",
"9. c #7C838C",
"0. c #768089",
"q. c #7C8790",
"w. c #778C95",
"e. c #6E939B",
"r. c #629A9F",
"t. c #7C959F",
"y. c #569AA2",
"u. c #4BA3A8",
"i. c #50A7AD",
"p. c #5EA6AE",
"a. c #5CACB5",
"s. c #4CB3B7",
"d. c #55B5BA",
"f. c #63A2AB",
"g. c #63AFB9",
"h. c #64B2BB",
"j. c #3BC0BF",
"k. c #69B6C0",
"l. c #7CC0C9",
"z. c #80878F",
"x. c #828790",
"c. c #838A92",
"v. c #878F98",
"b. c #888F98",
"n. c #8D949D",
"m. c #959CA5",
"M. c #989EA7",
"N. c #979EA8",
"B. c #989FA8",
"V. c #9CA3AD",
"C. c #95A7B0",
"Z. c #9EA6B0",
"A. c #A4ABB5",
"S. c #A5A7B1",
"D. c #ACB3BD",
"F. c #80B8C0",
"G. c #9EBAC4",
"H. c #AFB7C0",
"J. c #B2BAC4",
"K. c #89D2D6",
"L. c #92D7DD",
"P. c #B7C0CA",
"I. c #BBC3CE",
"U. c #A2E2EA",
"Y. c #ADECF4",
"T. c #B4EDF5",
"R. c None",
/* pixels */
"R.R.R.R.R.R.R.R.R.R.R.R.R.R.R.R.R.R.R.R.R.R.R.R.R.R.R.R.R.R.R.R.R.R.R.R.R.R.R.R.R.R.R.R.R.R.R.R.R.R.R.R.R.R.R.R.R.R.R.R.R.R.R.R.",
"R.R.R.R.R.R.R.R.R.R.R.R.R.R.R.R.R.R.R.R.R.R.R.R.R.R.R.R.R.R.R.R.R.R.R.R.R.R.R.R.R.R.R.R.R.R.R.R.R.R.R.R.R.R.R.R.R.R.R.R.R.R.R.R.",
"R.R.R.R.R.R.R.R.R.R.R.R.R.R.R.R.R.R.R.R.R.R.R.R.R.R.R.R.R.R.R.R.R.R.R.R.R.R.R.R.R.R.R.R.R.R.R.R.R.R.R.R.R.R.R.R.R.R.R.R.R.R.R.R.",
"R.R.R.R.R.R.R.R.R.R.R.R.R.R.R.R.R.R.R.R.R.R.R.R.R.R.R.R.R.R.R.R.R.R.R.R.R.R.R.R.R.R.R.R.R.R.R.R.R.R.R.R.R.R.R.R.R.R.R.R.R.R.R.R.",
"R.R.R.R.R.R.R.R.R.R.R.R.R.R.R.R.R.R.R.R.R.R.R.R.R.R.R.R.R.R.R.R.R.R.R.R.R.R.R.R.R.R.R.R.R.R.R.R.R.R.R.R.R.R.R.R.R.R.R.R.R.R.R.R.",
"R.R.R.R.R.R.R.R.R.R.R.R.R.R.R.R.R.R.R.R.R.R.R.R.R.R.R.R.R.R.R.R.R.R.R.R.R.R.R.R.R.R.R.R.R.R.R.R.R.R.R.R.R.R.R.R.R.R.R.R.R.R.R.R.",
"R.R.R.R.R.R.R.R.R.R.R.R.R.R.R.R.R.R.R.R.R.R.R.R.R.R.R.R.R.R.R.R.R.R.R.R.R.R.R.R.R.R.R.R.R.R.R.R.R.R.R.R.R.R.R.R.R.R.R.R.R.R.R.R.",
"R.R.R.R.R.R.R.R.R.R.R.R.R.R.R.R.R.R.R.R.R.R.R.R.R.R.R.R.R.R.R.R.R.R.R.R.R.R.R.R.R.R.R.R.R.R.R.R.R.R.R.R.R.R.R.R.R.R.R.R.R.R.R.R.",
"R.R.R.R.R.R.R.R.R.R.R.R.R.R.R.R.R.R.R.R.R.R.R.R.R.R.R.R.R.R.R.R.R.R.R.R.R.R.R.R.R.R.R.R.R.R.R.R.R.R.R.R.R.R.R.R.R.R.R.R.R.R.R.R.",
"R.R.R.R.R.R.R.R.R.R.R.R.R.R.R.R.R.R.R.R.R.R.R.R.R.R.R.R.R.R.R.R.R.R.R.R.R.R.R.R.R.R.R.R.R.R.R.R.R.R.R.R.R.R.R.R.R.R.R.R.R.R.R.R.",
"R.R.R.R.R.R.R.R.R.R.R.R.R.R.R.R.R.R.R.R.R.R.R.R.R.R.R.R.R.R.R.R.R.R.R.R.R.R.R.R.R.R.R.R.R.R.R.R.R.R.R.R.R.R.R.R.R.R.R.R.R.R.R.R.",
"R.R.R.R.R.R.R.R.R.R.R.R.R.R.R.R.R.R.R.R.R.R.R.R.R.R.R.R.R.R.R.R.R.R.R.R.R.R.R.R.R.R.R.R.R.R.R.R.R.R.R.R.R.R.R.R.R.R.R.R.R.R.R.R.",
"R.R.R.R.R.R.R.R.R.R.R.R.R.R.R.R.R.R.R.R.R.R.R.R.R.R.R.R.R.R.R.R.R.R.R.R.R.R.R.R.R.R.R.R.R.R.R.R.R.R.R.R.R.R.R.R.R.R.R.R.R.R.R.R.",
"R.R.R.R.R.R.R.R.R.R.R.R.R.R.R.R.R.R.R.R.R.R.R.R.R.R.R.R.R.R.R.R.R.R.R.R.R.R.R.R.R.R.R.R.R.R.R.R.R.R.R.R.R.R.R.R.R.R.R.R.R.R.R.R.",
"R.R.R.R.R.R.R.R.R.R.R.R.R.R.R.R.R.R.R.R.R.R.R.R.R.R.R.R.R.R.R.R.R.R.R.R.R.R.R.R.R.R.R.R.R.R.R.R.R.R.R.R.R.R.R.R.R.R.R.R.R.R.R.R.",
"R.R.R.R.R.R.R.R.R.R.R.R.R.R.R.R.R.R.R.R.R.R.R.R.R.R.R.R.R.R.R.R.R.R.R.R.R.R.R.R.R.R.R.R.R.R.R.R.R.R.R.R.R.R.R.R.R.R.R.R.R.R.R.R.",
"R.R.R.R.R.R.R.R.R.R.R.R.R.R.R.R.R.R.R.R.R.R.R.R.R.R.R.R.R.R.R.R.R.R.R.R.R.R.R.R.R.R.R.R.R.R.R.R.R.R.R.R.R.R.R.R.R.R.R.R.R.R.R.R.",
"R.R.R.R.R.R.R.R.R.R.R.R.R.R.R.R.R.R.R.R.R.R.R.R.R.R.R.R.R.R.R.T.R.R.R.R.R.R.R.R.R.R.R.R.R.R.R.R.R.R.R.R.R.R.R.R.R.R.R.R.R.R.R.R.",
"R.R.R.R.R.R.R.R.R.R.R.R.R.R.R.R.R.R.R.R.R.R.R.R.R.R.R.R.R.R.R.U.R.R.R.R.R.R.R.R.R.R.R.R.R.R.R.R.R.R.R.R.R.R.R.R.R.R.R.R.R.R.R.R.",
"R.R.R.R.R.R.R.R.R.R.R.R.R.R.R.R.R.R.R.R.R.R.R.R.R.R.R.R.R.R.R.a.R.R.R.R.R.R.R.R.R.R.R.R.R.R.R.R.R.R.R.R.R.R.R.R.R.R.R.R.R.R.R.R.",
"R.R.R.R.R.R.R.R.R.R.R.R.R.R.R.R.R.R.R.R.R.R.R.R.R.R.R.R.R.R.R.3.R.R.R.R.R.R.R.R.R.R.R.R.R.R.R.R.R.R.R.R.R.R.R.R.R.R.R.R.R.R.R.R.",
"R.R.R.R.R.R.R.R.R.R.R.R.R.R.R.R.R.R.R.R.R.R.R.R.R.R.R.R.R.R.R.-.R.R.R.R.R.R.R.R.R.R.R.R.R.R.R.R.R.R.R.R.R.R.R.R.R.R.R.R.R.R.R.R.",
"R.R.R.R.R.R.R.R.R.R.R.R.R.R.R.R.R.R.R.R.R.R.R.R.R.R.R.R.R.R.R.C R.R.R.R.R.R.R.R.R.R.R.R.R.R.R.R.R.R.R.R.R.R.R.R.R.R.R.R.R.R.R.R.",
"R.R.R.R.R.R.R.R.R.R.R.R.R.h.h.R.R.R.R.R.R.R.R.R.R.R.R.R.R.R.R.Z 4.R.R.R.R.R.R.R.R.R.R.R.R.R.R.R.R.R.R.R.R.R.R.R.R.R.R.R.R.R.R.R.",
"R.R.R.R.R.R.R.R.R.R.R.R.R.R.R.h.<.R.R.R.- 6 1 1 / _ _ _ R.a d M =.R.R.R.R.R.R.R.R.R.R.R.R.R.R.R.R.R.R.R.R.R.R.R.R.R.R.R.R.R.R.R.",
"R.R.R.R.R.R.R.R.R.R.R.R.R.R.R.R.>.K.T.f.3 y I r U t l ~ _ j % & & O I o.....} U / R.R.R.R.R.R.R.R.a.h.R.R.R.R.R.R.R.R.R.R.R.R.R.",
"R.R.R.R.R.R.R.R.R.R.R.R.R.R.R.R.>.K.L.i.x [ @.5 1 { 9.q. .! R W ` x  .S.V.V.B.b.../ R.R.R.R.R.R.R.l.R.R.R.R.R.R.R.R.R.R.R.R.R.R.",
"R.R.R.R.R.R.R.R.R.R.R.R.R.R.R.R.D S S S i f.f.- @ N.I.D.| ..*.q.k.8.c.J.H.H.J.D.| ^ ^ 8 l R.R.j.Y.R.R.R.R.R.R.R.R.R.R.R.R.R.R.R.",
"R.R.R.R.R.R.R.R.R.R.R.R.R.R.R.R.1 A S s u C.C.@ @ m.I.H.|  .&.0.g.G.S.9.9.9.x.9.t 8 r : g ,.>.O.R.R.R.R.R.R.R.R.R.R.R.R.R.R.R.R.",
"R.R.R.R.R.R.R.R.R.R.R.R.R.R.R.R.. s V f ] n.9.+ # | c.b.$.o.w.f.6.r.$._ $.&.$._ 2 , r d :.s.s.F R.R.R.R.R.R.R.R.R.R.R.R.R.R.R.R.",
"R.R.R.R.R.R.R.R.R.R.R.R.R.R.R.R.l b B ' .. ./ ^ ^ ..c.n.9.o.t.F.2.V c | $.$.} ^ / P w V >.u.7.n R.R.R.R.R.R.R.R.R.R.R.R.R.R.R.R.",
"R.R.R.R.R.R.R.R.R.R.R.R.R.R.R.6 ^ _  .%._ r Q 9...A.J.D.9.$.M.D.T U ..x.x..._ _ %.^ e N D m 3 7 l R.R.R.R.R.R.R.R.R.R.R.R.R.R.R.",
"R.R.R.R.R.R.R.R.R.R.R.R.R.R.R.= r ^ { _ _ l ! %.t V.D.9.%.V.P.D.{ _ n.J.D.J.m.W 6 < ^ #.v i ) o.t R.R.R.R.R.R.R.R.R.R.R.R.R.R.R.",
"R.R.R.R.R.R.R.R.R.R.R.R.R.R.R. .k l U U _ k ! 9.1  .9.} &.&.9.z.%.%.x.m.J.I.V./ m./ l *.X.] $.%.9 R.R.R.R.R.R.R.R.R.R.R.R.R.R.R.",
"R.R.R.R.R.R.R.R.R.R.R.R.R.R.R.x.l 1 6 r W 8 L { 1 l ~ / $.U # Q | %.$...V.A.v.| J.m.$.&.*.*.w.e.k R.R.R.R.R.R.R.R.R.R.R.R.R.R.R.",
"R.R.R.R.R.R.R.R.R.R.R.R.R.R.R.%.8 1 t 8 8 1 = + = R _ ^ / l U / 2 | o./ ..$.| | D.J.V.o.&.o.e.f.b R.R.R.R.R.R.R.R.R.R.R.R.R.R.R.",
"R.R.R.R.R.R.R.R.R.R.R.R.R.R.R.t : 6 r r 1 : ; : : 6 r r k r U _ x ~ _ _ _ _ R Q J.c.P ] &...^ E 0.R.R.R.R.R.R.R.R.R.R.R.R.R.R.R.",
"R.R.R.R.R.R.R.R.R.R.R.R.R.R.R.R.: 8 r 1 : 1 6 ;   ! .._ r 8 7 t -.G W _ ^ / U k n.{ 2 _  .^ 8 t q.R.R.R.R.R.R.R.R.R.R.R.R.R.R.R.",
"R.R.R.R.R.R.R.R.R.R.R.R.R.R.R.R.= 5 5 : : 6 6 : r ..9.9.W 8 h G 6.;.j W | X.^ 1 _ U l W R l 2 l  .R.R.R.R.R.R.R.R.R.R.R.R.R.R.R.",
"R.R.R.R.R.R.R.R.R.R.R.R.R.R.R.R.5 1 : : : : = 1 ^ ..&.o._ y J 5.h.+.q L o.9. .8 2 6 r r 6 8 r 8 * R.R.R.R.R.R.R.R.R.R.R.R.R.R.R.",
"R.R.R.R.R.R.R.R.R.R.R.R.R.R.R.5 ^ U 1 ; ; : : , r ^ | _ _ / _ ' H ) _ ^ _ _ _ ^ 5 = 5 t , : 1 : R.R.R.R.R.R.R.R.R.R.R.R.R.R.R.R.",
"R.R.R.R.R.R.R.R.R.R.R.R.R.R.R.8 _ R 8 2 8 , ; , 8 l U U U U I t # W ] _ / / _ _ 5 = , 1 : ; : : R.R.R.R.R.R.R.R.R.R.R.R.R.R.R.R.",
"R.R.R.R.R.R.R.R.R.R.R.R.R.R.R.6 R L r t k 1 - , r 2 1 1 1 3 1 * o L W W W / / R , - : ; : 1 1 - R.R.R.R.R.R.R.R.R.R.R.R.R.R.R.R.",
"R.R.R.R.R.R.R.R.R.R.R.R.R.R.R.: = 5 r r r 1 ; , r 1 - : : 8 8 : < ; , 8 6 W ~ 2 , : : < , 8 8 : R.R.R.R.R.R.R.R.R.R.R.R.R.R.R.R.",
"R.R.R.R.R.R.R.R.R.R.R.R.R.R.R.R.: : 2 t , , ; , , : : : 6 r 6 = u g 9 r 6 t l r t 1 ; , 8 t 8 : R.R.R.R.R.R.R.R.R.R.R.R.R.R.R.R.",
"R.R.R.R.R.R.R.R.R.R.R.R.R.R.R.R.: , , 1 : ; : : : 1 2 6 W L 3 v y.` z ! ^ t ; 1 2 , ; : r t r : R.R.R.R.R.R.R.R.R.R.R.R.R.R.R.R.",
"R.R.R.R.R.R.R.R.R.R.R.R.R.R.R.R.: : , : , , : : ; 6 l R _ Y < H d.1.l _ ^ t ; ; ; : , 2 6 8 5 : R.R.R.R.R.R.R.R.R.R.R.R.R.R.R.R.",
"R.R.R.R.R.R.R.R.R.R.R.R.R.R.R.R.R.: : : ; : , : : 1 U _ / U - g >.A 7 ^ t r r ; : : 1 r < : : R.R.R.R.R.R.R.R.R.R.R.R.R.R.R.R.R.",
"R.R.R.R.R.R.R.R.R.R.R.R.R.R.R.R.R.R.R.R.R., : : : : 6 l l k 6 : g 4 5 k t r 6 : : : : 5 5 R.R.R.R.R.R.R.R.R.R.R.R.R.R.R.R.R.R.R.",
"R.R.R.R.R.R.R.R.R.R.R.R.R.R.R.R.R.R.R.R.R.: 1 : : - : 1 , , 1 : X > : 1 1 1 1 : : , : R.R.R.R.R.R.R.R.R.R.R.R.R.R.R.R.R.R.R.R.R.",
"R.R.R.R.R.R.R.R.R.R.R.R.R.R.R.R.R.R.R.R.R.- 5 : : 1 1 : : : : : g 4 : : : : 1 1 , , : R.R.R.R.R.R.R.R.R.R.R.R.R.R.R.R.R.R.R.R.R.",
"R.R.R.R.R.R.R.R.R.R.R.R.R.R.R.R.R.R.R.R.R., , : : 8 8 : : : : 4 d g - : : 8 k 8 , , : R.R.R.R.R.R.R.R.R.R.R.R.R.R.R.R.R.R.R.R.R.",
"R.R.R.R.R.R.R.R.R.R.R.R.R.R.R.R.R.R.R.R.R., , : = 6 r 8 r 1 : : < : 1 r 8 k 3 : : , , R.R.R.R.R.R.R.R.R.R.R.R.R.R.R.R.R.R.R.R.R.",
"R.R.R.R.R.R.R.R.R.R.R.R.R.R.R.R.R.R.R.R.R.R., , 8 8 r t k 5 : : : 1 8 r r r 8 6 : , : R.R.R.R.R.R.R.R.R.R.R.R.R.R.R.R.R.R.R.R.R.",
"R.R.R.R.R.R.R.R.R.R.R.R.R.R.R.R.R.R.R.R.R.R., , 8 8 r 5 8 1 ; : : 8 k r r k 8 8 : : , R.R.R.R.R.R.R.R.R.R.R.R.R.R.R.R.R.R.R.R.R.",
"R.R.R.R.R.R.R.R.R.R.R.R.R.R.R.R.R.R.R.R.R.R.5 : : 6 8 : : : : : ; 6 r 8 8 t 6 - , 5 R.R.R.R.R.R.R.R.R.R.R.R.R.R.R.R.R.R.R.R.R.R.",
"R.R.R.R.R.R.R.R.R.R.R.R.R.R.R.R.R.R.R.R.R.R.: : : : : : : : , : , , : , , : : : , , R.R.R.R.R.R.R.R.R.R.R.R.R.R.R.R.R.R.R.R.R.R.",
"R.R.R.R.R.R.R.R.R.R.R.R.R.R.R.R.R.R.R.R.R.R.5 , : : : : : , : , 1 : : : : : : : , : , R.R.R.R.R.R.R.R.R.R.R.R.R.R.R.R.R.R.R.R.R.",
"R.R.R.R.R.R.R.R.R.R.R.R.R.R.R.R.R.R.R.R.R.R., , : , 5 : : , 1 R.R., 1 : : : : , : , , R.R.R.R.R.R.R.R.R.R.R.R.R.R.R.R.R.R.R.R.R.",
"R.R.R.R.R.R.R.R.R.R.R.R.R.R.R.R.R.R.R.R.R.: , : : r r : : , : R.R.: : : , : : : : , , R.R.R.R.R.R.R.R.R.R.R.R.R.R.R.R.R.R.R.R.R.",
"R.R.R.R.R.R.R.R.R.R.R.R.R.R.R.R.R.R.R.R.R.: < ; r r r 8 , : , R.R.R.1 : : : : : : , , R.R.R.R.R.R.R.R.R.R.R.R.R.R.R.R.R.R.R.R.R.",
"R.R.R.R.R.R.R.R.R.R.R.R.R.R.R.R.R.R.R.R.R.: 5 r r r r r : : , R.R.R., 1 , , , , , , R.R.R.R.R.R.R.R.R.R.R.R.R.R.R.R.R.R.R.R.R.R.",
"R.R.R.R.R.R.R.R.R.R.R.R.R.R.R.R.R.R.R.R.R.: 5 t r r r r 6 , 5 R.R.R.R.: , : : , : R.R.R.R.R.R.R.R.R.R.R.R.R.R.R.R.R.R.R.R.R.R.R.",
"R.R.R.R.R.R.R.R.R.R.R.R.R.R.R.R.R.R.R.R.R.: 5 t r r r r t 8 R.R.R.R.R.R.R.R.R.R.R.R.R.R.R.R.R.R.R.R.R.R.R.R.R.R.R.R.R.R.R.R.R.R."
};
