/* XPM */
static char *result[] = {
/* columns rows colors chars-per-pixel */
"64 64 211 2 ",
"   c #000000",
".  c #001505",
"X  c #001D19",
"o  c #1A1A1C",
"O  c #161B1C",
"+  c #250F14",
"@  c #15211F",
"#  c #191F23",
"$  c #251E27",
"%  c #311821",
"&  c #002A26",
"*  c #002E2B",
"=  c #052327",
"-  c #1D2224",
";  c #1C282B",
":  c #00322F",
">  c #003432",
",  c #003D3B",
"<  c #0D3E3C",
"1  c #003838",
"2  c #1C3534",
"3  c #173A3A",
"4  c #242325",
"5  c #262629",
"6  c #2B2629",
"7  c #272A2E",
"8  c #2A2A2D",
"9  c #2A2326",
"0  c #31272D",
"q  c #252E33",
"w  c #2C2E32",
"e  c #312E31",
"r  c #2E3136",
"t  c #2E3439",
"y  c #25373A",
"u  c #313236",
"i  c #32363C",
"p  c #33393E",
"a  c #3A373C",
"s  c #00413F",
"d  c #103F40",
"f  c #273E42",
"g  c #363C42",
"h  c #3A3E44",
"j  c #004445",
"k  c #024C4B",
"l  c #0D4A4C",
"z  c #044747",
"x  c #104A4B",
"c  c #184649",
"v  c #0C4E50",
"b  c #074E50",
"n  c #1A4D52",
"m  c #035254",
"M  c #055556",
"N  c #145355",
"B  c #1B5355",
"V  c #135559",
"C  c #1C565A",
"Z  c #1C595C",
"A  c #2A4449",
"S  c #3B4147",
"D  c #3C4349",
"F  c #3C484C",
"G  c #354247",
"H  c #264E54",
"J  c #27565B",
"K  c #3E4F55",
"L  c #065D61",
"P  c #1A5B60",
"I  c #255E64",
"U  c #3C5E65",
"Y  c #016D6C",
"T  c #006A68",
"R  c #15676A",
"E  c #007575",
"W  c #057877",
"Q  c #147A7A",
"!  c #2D686E",
"~  c #2A6368",
"^  c #366568",
"/  c #336D73",
"(  c #3D6E75",
")  c #257376",
"_  c #33747A",
"`  c #3A767C",
"'  c #387479",
"]  c #2E6D70",
"[  c #424445",
"{  c #42464B",
"}  c #45494E",
"|  c #4B474C",
" . c #454B52",
".. c #4A4E55",
"X. c #56495E",
"o. c #4C5157",
"O. c #4D545B",
"+. c #475558",
"@. c #51565D",
"#. c #51595F",
"$. c #505056",
"%. c #4B5F66",
"&. c #555B63",
"*. c #5B5D65",
"=. c #5B5065",
"-. c #5A4961",
";. c #635D6D",
":. c #5C6365",
">. c #5B626A",
",. c #5A656C",
"<. c #4D6E74",
"1. c #62666E",
"2. c #63686F",
"3. c #646B73",
"4. c #696E75",
"5. c #696F78",
"6. c #6D737B",
"7. c #65737B",
"8. c #71767E",
"9. c #3D7B82",
"0. c #357D83",
"q. c #427E86",
"w. c #4C7C83",
"e. c #587E85",
"r. c #6B7C84",
"t. c #747581",
"y. c #757B83",
"u. c #797C84",
"i. c #767F88",
"p. c #8B7C90",
"a. c #008785",
"s. c #188584",
"d. c #009996",
"f. c #149492",
"g. c #268685",
"h. c #388A8D",
"j. c #03A7A5",
"k. c #18A5A3",
"l. c #07B2B0",
"z. c #29A2A3",
"x. c #3CB6B7",
"c. c #43848B",
"v. c #428287",
"b. c #488890",
"n. c #4A949C",
"m. c #52959D",
"M. c #5A959D",
"N. c #53878C",
"B. c #65838B",
"V. c #6F848C",
"C. c #7C828A",
"Z. c #768289",
"A. c #638891",
"S. c #778A93",
"D. c #559BA3",
"F. c #5C9CA5",
"G. c #4E99A1",
"H. c #689EA5",
"J. c #7A9EA7",
"K. c #5AA3AB",
"L. c #53A1A8",
"P. c #5CABB4",
"I. c #45B6B9",
"U. c #4CABB1",
"Y. c #68A3AC",
"T. c #62AFB8",
"R. c #62ACB5",
"E. c #65B3BC",
"W. c #6BB5BE",
"Q. c #75B6BB",
"!. c #75A0A9",
"~. c #6ABAC3",
"^. c #67B7C1",
"/. c #6BC3CB",
"(. c #81838C",
"). c #818790",
"_. c #838A93",
"`. c #8A8E97",
"'. c #8C939C",
"]. c #899097",
"[. c #90969E",
"{. c #9C85A5",
"}. c #8C9AA4",
"|. c #9197A0",
" X c #959BA4",
".X c #989FA8",
"XX c #B195BB",
"oX c #9DA4AD",
"OX c #9CB3BD",
"+X c #8EACB5",
"@X c #A4ABB4",
"#X c #A7AFB8",
"$X c #A8AFB8",
"%X c #ABB2BC",
"&X c #A0A6AF",
"*X c #BF9EC8",
"=X c #86BAC3",
"-X c #AEB6C0",
";X c #AFB8C2",
":X c #B2BAC4",
">X c #C39CD0",
",X c #E2B5F2",
"<X c #86CBD4",
"1X c #8FCDD5",
"2X c #BAC2CC",
"3X c #BDC5D0",
"4X c #97E1E6",
"5X c #B2ECF3",
"6X c #AAE8EE",
"7X c #F5C3FF",
"8X c None",
/* pixels */
"8X8X8X8X8X8X8X8X8X8X8X8X8X8X8X8X8X8X8X8X8X8X8X8X8X8X8X8X8X8X8X8X8X8X8X8X8X8X8X8X8X8X8X8X8X8X8X8X8X8X8X8X8X8X8X8X8X8X8X8X8X8X8X8X",
"8X8X8X8X8X8X8X8X8X8X8X8X8X8X8X8X8X8X8X8X8X8X8X8X8X8X8X8X8X8X8X8X8X8X8X8X8X8X8X8X8X8X8X8X8X8X8X8X8X8X8X8X8X8X8X8X8X8X8X8X8X8X8X8X",
"8X8X8X8X8X8X8X8X8X8X8X8X8X8X8X8X8X8X8X8X8X8X8X8X8X8X8X8X8X8X8X8X8X8X8X8X8X8X8X8X8X8X8X8X8X8X8X8X8X8X8X8X8X8X8X8X8X8X8X8X8X8X8X8X",
"8X8X8X8X8X8X8X8X8X8X8X8X8X8X8X8X8X8X8X8X8X8X8X8X8X8X8X8X8X8X8X8X8X8X8X8X8X8X8X8X8X8X8X8X8X8X8X8X8X8X8X8X8X8X8X8X8X8X8X8X8X8X8X8X",
"8X8X8X8X8X8X8X8X8X8X8X8X8X8X8X8X8X8X8X8X8X8X8X8X8X8X8X8X8X8X8X8X8X8X8X8X8X8X8X8X8X8X8X8X8X8X8X8X8X8X8X8X8X8X8X8X8X8X8X8X8X8X8X8X",
"8X8X8X8X8X8X8X8X8X8X8X8X8X8X8X8X8X8X8X8X8X8X8X8X8X8X8X8X8X8X8X8X8X8X8X8X8X8X8X8X8X8X8X8X8X8X8X8X8X8X8X8X8X8X8X8X8X8X8X8X8X8X8X8X",
"8X8X8X8X8X8X8X8X8X8X8X8X8X8X8X8X8X8X8X8X8X8X8X8X8X8X8X8X8X8X8X8X8X8X8X8X8X8X8X8X8X8X8X8X8X8X8X8X8X8X8X8X8X8X8X8X8X8X8X8X8X8X8X8X",
"8X8X8X8X8X8X8X8X8X8X8X8X8X8X8X8X8X8X8X8X8X8X8X8X8X8X8X8X8X8X8X8X8X8X8X8X8X8X8X8X8X8X8X8X8X8X8X8X8X8X8X8X8X8X8X8X8X8X8X8X8X8X8X8X",
"8X8X8X8X8X8X8X8X8X8X8X8X8X8X8X8X8X8X8X8X8X8X8X8X8X8X8X8X8X8X8X8X8X8X8X8X8X8X8X8X8X8X8X8X8X8X8X8X8X8X8X8X8X8X8X8X8X8X8X8X8X8X8X8X",
"8X8X8X8X8X8X8X8X8X8X8X8X8X8X8X8X8X8X8X8X8X8X8X8X8X8X8X8X8X8X8X8X8X8X8X8X8X8X8X8X8X8X8X8X8X8X8X8X8X8X8X8X8X8X8X8X8X8X8X8X8X8X8X8X",
"8X8X8X8X8X8X8X8X8X8X8X8X8X8X8X8X8X8X8X8X8X8X8X8X8X8X8X8X8X8X8X8X8X8X8X8X8X8X8X8X8X8X8X8X8X8X8X8X8X8X8X8X8X8X8X8X8X8X8X8X8X8X8X8X",
"8X8X8X8X8X8X8X8X8X8X8X8X8X8X8X8X8X8X8X8X8X8X8X8X8X8X8X8X8X8X8X8X8X8X8X8X8X8X8X8X8X8X8X8X8X8X8X8X8X8X8X8X8X8X8X8X8X8X8X8X8X8X8X8X",
"8X8X8X8X8X8X8X8X8X8X8X8X8X8X8X8X8X8X8X8X8X8X8X8X8X8X8X8X8X8X8X8X8X8X8X8X8X8X8X8X8X8X8X8X8X8X8X8X8X8X8X8X8X8X8X8X8X8X8X8X8X8X8X8X",
"8X8X8X8X8X8X8X8X8X8X8X8X8X8X8X8X8X8X8X8X8X8X8X8X8X8X8X8X8X8X8X8X8X8X8X8X8X8X8X8X8X8X8X8X8X8X8X8X8X8X8X8X8X8X8X8X8X8X8X8X8X8X8X8X",
"8X8X8X8X8X8X8X8X8X8X8X8X8X8X8X8X8X8X8X8X8X8X8X8X8X8X8X8X8X8X8X8X8X8X8X8X8X8X8X8X8X8X8X8X8X8X8X8X8X8X8X8X8X8X8X8X8X8X8X8X8X8X8X8X",
"8X8X8X8X8X8X8X8X8X8X8X8X8X8X8X8X8X8X8X8X8X8X8X8X8X8X8X8X8X8X8X8X8X8X8X8X8X8X8X8X8X8X8X8X8X8X8X8X8X8X8X8X8X8X8X8X8X8X8X8X8X8X8X8X",
"8X8X8X8X8X8X8X8X8X8X8X8X8X8X8X8X8X8X8X8X8X8X8X8X8X8X8X8X8X8X8X8X5X8X8X8X8X8X8X8X8X8X8X8X8X8X8X8X8X8X8X8X8X8X8X8X8X8X8X8X8X8X8X8X",
"8X8X8X8X8X8X8X8X8X8X8X8X8X8X8X8X8X8X8X8X8X8X8X8X8X8X8X8X8X8X8X8X<X8X8X8X8X8X8X8X8X8X8X8X8X8X8X8X8X8X8X8X8X8X8X8X8X8X8X8X8X8X8X8X",
"8X8X8X8X8X8X8X8X8X8X8X8X8X8X8X8X8X8X8X8X8X8X8X8X8X8X8X8X8X8X8X8XU.8X8X8X8X8X8X8X8X8X8X8X8X8X8X8X8X8X8X8X8X8X8X8X8X8X8X8X8X8X8X8X",
"8X8X8X8X8X8X8X8X8X8X8X8X8X8X8X8X8X8X8X8X8X8X8X8X8X8X8X8X8X8X8X8Xj.8X8X8X8X8X8X8X8X8X8X8X8X8X8X8X8X8X8X8X8X8X8X8X8X8X8X8X8X8X8X8X",
"8X8X8X8X8X8X8X8X8X8X8X8X8X8X8X8X8X8X8X8X8X8X8X8X8X8X8X8X8X8X8X8Xa.8X8X8X8X8X8X8X8X8X8X8X8X8X8X8X8X8X8XE.8X8X8X8X8X8X8X8X8X8X8X8X",
"8X8X8X8X8X8X8X8X8X8X8X8X8X8X8X8X8X8X8X8X8X8X8X8X8X8X8X8X8X8X8Xj.R 8X8X8X8X8X8X8X8X8X8X8X8X8X8X8XT L.~.8X8X8X8X8X8X8X8X8X8X8X8X8X",
"8X8X8X8X8X8X8X8X8X8X8X8X8X8X8X8X8X8X8X8X8X8X8X8X8X8X8X8X8X8X8Xl.R n 8X8X8X8X8X8X8X8X8X8X8X8X8X8Xf.U.8X8X8X8X8X8X8X8X8X8X8X8X8X8X",
"8X8X8X8X8X8X8X8X8X8X8X8XE.8X8X8X8X8X8X8X8X8X8X8X8X8X8X8X8X8X8XW C Z C 8X5 [ O.#.} t.t.g o n.4X5Xx.8X8X8X8X8X8X8X8X8X8X8X8X8X8X8X",
"8X8X8X8X8X8X8X8X8X8X8X8X8X5X4Xj.8X8X8X8X8X8X8X8X8Xt.t.t.y.{   4 - # D &.  '.:X%X-X|.3.$.H Q g.h.f.8X8X8X8X8X8X8X8X8X8X8X8X8X8X8X",
"8X8X8X8X8X8X8X8X8X8X8X8X8X8XQ.d.j.E 4 %   3.3.    '.:X#X#X@X}.m.3.1.>.3.'.%X%X|..Xu.e.D.L M Y E 8X8X8X8X8X8X8X8X8X8X8X8X8X8X8X8X",
"8X8X8X8X8X8X8X8X8X8X8X8X8X8X8Xf.x.z.Y G i.).).C.Z.oX#X@X@X&X+XP.S.(.6.5.:X2XoX6.5...V.=X<.H L Y 8X8X8X8X8X8X8X8X8X8X8X8X8X8X8X8X",
"8X8X8X8X8X8X8X8X8X8X8X8X8X8X8Xs.R.U.d.U -X[.`.:X:X].6.Z.i.K E k.r.u.5.,.#X:XoX6.*.q y.%X_.,.P J t 8X8X8X8X8X8X8X8X8X8X8X8X8X8X8X",
"8X8X8X8X8X8X8X8X8X8X8X8X8X8X8X8X~ 0.E J C.C.i.C.5.&._.%X_.%.T a.I %.&.D 3.Z.y.*.h ; &._.Z.y.y.8.p 8X8X8X8X8X8X8X8X8X8X8X8X8X8X8X",
"8X8X8X8X8X8X8X8X8X8X8X8X8X8X8Xu.j z ~ 7.O.6.C.y.&.&.2.3.} = * l > ; 4 8 7 5.6. .3.5.>.@.3.y.y.3.&.h 8X8X8X8X8X8X8X8X8X8X8X8X8X8X",
"8X8X8X8X8X8X8X8X8X8X8X8X8X8X8Xy.V.V.Z.y.g O.3.3.>.O.&.5.8.u.4.| $.5.2.i p *.&.h u.).5.q &.5.5.&.&.S o 8X8X8X8X8X8X8X8X8X8X8X8X8X",
"8X8X8X8X8X8X8X8X8X8X8X8X8X8X8X} #X2X@X6.D { } D >.- 8.2X:X:XoXy.t.$X@X,.1.h # F 6.C.3.g &.&.&.&.h h a 8X8X8X8X8X8X8X8X8X8X8X8X8X",
"8X8X8X8X8X8X8X8X8X8X8X8X8X- a *.y.#X#X5.$ [.oX5.>.- y.:X8.2.3.>.&.oX2X@X3.a 3 C D 6.5.g *.+.g h g r.t.8X8X8X8X8X8X8X8X8X8X8X8X8X",
"8X8X8X8X8X8X8X8X8X8X8X8X8X  <.Y.i.`.`.i.D.OX:X&XC.S #._.8.6.3.&.&.).oX|.3.S ; A q 6.6.t  .D t w 5 t._.8X8X8X8X8X8X8X8X8X8X8X8X8X",
"8X8X8X8X8X8X8X8X8X8X8X8X8X| e.F.r.t.t.r.M.OX:XoX8.[ 5  .,.,.1.3.>.%.#.#.O.h 4 6 w *.*.g g g q 8 $ >.4.8X8X8X8X8X8X8X8X8X8X8X8X8X",
"8X8X8X8X8X8X8X8X8X8X8X8X8X).8.6 O.6.6.&.+ |.@X5.G 5 r { =.X.;.8.*.X.X.=.{ u 8 8 7 q g g g r 5 8 8 5 o 8X8X8X8X8X8X8X8X8X8X8X8X8X",
"8X8X8X8X8X8X8X8X8X8X8X8X8X).t.t g &.1.*.p 6._.y.{ # [ p.,X7X>X.   >X7X,Xp.[ o 8 8 8 w g C f 9 w w 8X8X8X8X8X8X8X8X8X8X8X8X8X8X8X",
"8X8X8X8X8X8X8X8X8X8X8X8X8X@.@.g g D  .K g ..@.o.p # [ 8.XX*X{.S F {.*XXXt.{ 4 8 8 i g p f X     4 o 8X8X8X8X8X8X8X8X8X8X8X8X8X8X",
"8X8X8X8X8X8X8X8X8X8X8X8X8X8X4 p g p r g p r 5 o 6 9 h @.:.:.:.>.>.:.:.:.#.g 5 8 7 w h  .8 1.u.6.{ @.} 8X8X8X8X8X8X8X8X8X8X8X8X8X",
"8X8X8X8X8X8X8X8X8X8X8X8X8X8X8Xw g w q p 7 6 7 8 7 7 w g %.&.:.&.:.&.&.&.g 8 8 8 w 4 } *.q  X3X-X5.6.8.[ 8X8X8X8X8X8X8X8X8X8X8X8X",
"8X8X8X8X8X8X8X8X8X8X8X8X8X8X8Xu r g w     # 6 5 8 8 8 w S S S S S G G D w 8 8 8 8 r  .>.q  X:X;X3.3. X#X} 8X8X8X8X8X8X8X8X8X8X8X",
"8X8X8X8X8X8X8X8X8X8X8X8X8X8X8X  *.O.6. XoX3.r o.u 6 6 8 r r r w w w w w 7 7 8 8 8 p D } 0 J.+Xi.5.*.u.|.[ 8X8X8X8X8X8X8X8X8X8X8X",
"8X8X8X8X8X8X8X8X8X8X8X8X8X8X*.Z. X6._.2X%X6.h >.u y y 6 5 8 8 8 6 8 8 5 6 8 7 7 8 u g A f h.H.(.|.S.B.6.G W 8X8X8X8X8X8X8X8X8X8X",
"8X8X8X8X8X8X8X8X8X8X8X8X8X  C.2X;Xi.i.%XS.O.D &.e n n 6 8 8 8 8 7 w w u u u 8 7 7 8 3 V N 1 r.:X:X=XH.8.J d.l.8X8X8X8X8X8X8X8X8X",
"8X8X8X8X8X8X8X8X8X8X8X8X8X  C.:Xt.*.*.7.W.w.% h 6 8 w 4 4 5 5 8 7 w  .*.*. .y * * * : : X . J M.^.J.5.h i 8X8X8X8X8X8X8X8X8X8X8X",
"8X8X8X8X8X8X8X8X8X8X8X8X8X  &.V.6.*.*.6.B.w.U g ( A a #.#.#. .i p p ..>.O.y / K.L.D.D.K.1XQ.g.P n.w.[ + 8X8X8X8X8X8X8X8X8X8X8X8X",
"8X8X8X8X8X8X8X8X8X8X8X8X8XU M W 6.B.A.r.| ^ I y ! c u +.#.&.o.t p r h o.i & ! F.D.F.D.K.1X<Xm.& / m m ) 8X8X8X8X8X8X8X8X8X8X8X8X",
"8X8X8X8X8X8X8X8X8X8X8X8XW.q.E k.%.H.P._ V n B Z ^ J V N p i u 5 8 w u 5 8 3 j x x B Z ~ ' K.m.> v c Q l.8X8X8X8X8X8X8X8X8X8X8X8X",
"8X8X8X8X8X8X8X8X8X8X8X8X8X8X8Xp c 9.` C K.E.P.~.6X<XR.Y.C - 4 5 4 O.#.i w X ` E.T.R.T.T.E.b.l s 1 K.~.8XE.8X8X8X8X8X8X8X8X8X8X8X",
"8X8X8X8X8X8X8X8X8X8X8X8X8X8X8Xz.P.c.z B W.m._ v.H.N._ / z F #.o.p { { w 8 . v.~.F.G.D.D.D./ j s 8X9.v.8X8X8X8X8X8X8X8X8X8X8X8X8X",
"8X8X8X8X8X8X8X8X8X8X8X8X8X8XI.l./.' & n K.` J 9.) _ ' ] j +.&.#.G p w 8 8 - / m./ ~ ! / 9.! l j 8X8X8X8X8X8X8X8X8X8X8X8X8X8X8X8X",
"8X8X8X8X8X8X8X8X8X8X8X8X8XW.W.8X8Xk m x ` 9.G.E.W.E.~.T.C q a p g w 8 8 8 7 ; : , , j Z 9.! b s 8X8X8X8X8X8X8X8X8X8X8X8X8X8X8X8X",
"8X8X8X8X8X8X8X8X8X8X8X8X8X8X8X8X8Xk.d.< 9.9.h.b.b.c.F.E.C - 8 8 w w 7 6 5 6 2 j V C V Z J P V s 8X8X8X8X8X8X8X8X8X8X8X8X8X8X8X8X",
"8X8X8X8X8X8X8X8X8X8X8X8X8X8X8X8Xn g.W x ` F.m.Z J B ! ` k 2 8 8 7 8 w h ..h q y l b b l l n x 8X8X8X8X8X8X8X8X8X8X8X8X8X8X8X8X8X",
"8X8X8X8X8X8X8X8X8X8X8X8X8X8X8X8XC 8X8Xv 9.K.m.~ j j 1 & 3 q 8 8 8 8 w h >.&.h 5 3 < < < s s 3 8X8X8X8X8X8X8X8X8X8X8X8X8X8X8X8X8X",
"8X8X8X8X8X8X8X8X8X8X8X8X8X8X8X8X8X8X2 x ` 9.9.9.P C N < 7 8 w 8 8Xw 5 u *.>.o.6 w e 8X8X8X8X8X8X8X8X8X8X8X8X8X8X8X8X8X8X8X8X8X8X",
"8X8X8X8X8X8X8X8X8X8X8X8X8X8X8X8X8X8X8X8Xx v v l j z d t 5 6 8 8 8X8X6 i :.o.g p g u 8 8X8X8X8X8X8X8X8X8X8X8X8X8X8X8X8X8X8X8X8X8X",
"8X8X8X8X8X8X8X8X8X8X8X8X8X8X8X8X8X8X8X8X2 2 2 2 q y F &.O.F u 8 8X8X8 r S S p u u u 8 8X8X8X8X8X8X8X8X8X8X8X8X8X8X8X8X8X8X8X8X8X",
"8X8X8X8X8X8X8X8X8X8X8X8X8X8X8X8X8X8X8X8X8X8X8Xe 7 i ..>.,...t 7 8X8Xe 8 4 r i 8 8 8 w 8X8X8X8X8X8X8X8X8X8X8X8X8X8X8X8X8X8X8X8X8X",
"8X8X8X8X8X8X8X8X8X8X8X8X8X8X8X8X8X8X8X8X8X8Xu 8 7 r  .>.:. .r 8 8X8Xu 8 8 8 8 8 7 e 8X8X8X8X8X8X8X8X8X8X8X8X8X8X8X8X8X8X8X8X8X8X",
"8X8X8X8X8X8X8X8X8X8X8X8X8X8X8X8X8X8X8X8X8X8Xe 8 8 u ..>.F h p 8 8X8X8X8X8X8X8X8X8X8X8X8X8X8X8X8X8X8X8X8X8X8X8X8X8X8X8X8X8X8X8X8X",
"8X8X8X8X8X8X8X8X8X8X8X8X8X8X8X8X8X8X8X8X8X8Xr u 7 8 h  .i u r e 8X8X8X8X8X8X8X8X8X8X8X8X8X8X8X8X8X8X8X8X8X8X8X8X8X8X8X8X8X8X8X8X",
"8X8X8X8X8X8X8X8X8X8X8X8X8X8X8X8X8X8X8X8X8X8X8X8 7 8 w r 8 8 8 8X8X8X8X8X8X8X8X8X8X8X8X8X8X8X8X8X8X8X8X8X8X8X8X8X8X8X8X8X8X8X8X8X",
"8X8X8X8X8X8X8X8X8X8X8X8X8X8X8X8X8X8X8X8X8X8X8X8X8 w 7 7 8 w 8 8X8X8X8X8X8X8X8X8X8X8X8X8X8X8X8X8X8X8X8X8X8X8X8X8X8X8X8X8X8X8X8X8X"
};
