/* XPM */
static char *result[] = {
/* columns rows colors chars-per-pixel */
"64 64 195 2 ",
"   c #000000",
".  c #0C0A08",
"X  c #180000",
"o  c #001400",
"O  c #07191A",
"+  c #1A1719",
"@  c #240000",
"#  c #2A0000",
"$  c #270809",
"%  c #00221A",
"&  c #1F1F21",
"*  c #171B23",
"=  c #002A29",
"-  c #1A252C",
";  c #192726",
":  c #013C3C",
">  c #0E3E3C",
",  c #1C373B",
"<  c #153C3B",
"1  c #232325",
"2  c #24262B",
"3  c #2B262A",
"4  c #252A2D",
"5  c #2A2A2D",
"6  c #292427",
"7  c #312B2F",
"8  c #262D33",
"9  c #2C2D31",
"0  c #243234",
"q  c #2E3135",
"w  c #2D343A",
"e  c #233A3D",
"r  c #2B393D",
"t  c #313236",
"y  c #32353A",
"u  c #33393E",
"i  c #3A363D",
"p  c #402F3A",
"a  c #00403E",
"s  c #1C3E45",
"d  c #243E43",
"f  c #353C42",
"g  c #3A3D43",
"h  c #423D46",
"j  c #014443",
"k  c #004649",
"l  c #064A4E",
"z  c #084D4F",
"x  c #0A4546",
"c  c #184749",
"v  c #024F52",
"b  c #084F50",
"n  c #134C51",
"m  c #1C4E54",
"M  c #005254",
"N  c #0B5254",
"B  c #075A5D",
"V  c #135255",
"C  c #16555A",
"Z  c #19555A",
"A  c #17595E",
"S  c #1B595F",
"D  c #185257",
"F  c #2D454A",
"G  c #274549",
"H  c #3B4146",
"J  c #3D434A",
"K  c #32484E",
"L  c #244E53",
"P  c #3E4E55",
"I  c #275359",
"U  c #37555A",
"Y  c #00625E",
"T  c #275C62",
"R  c #315C62",
"E  c #006968",
"W  c #00706D",
"Q  c #1E6F70",
"!  c #007674",
"~  c #007876",
"^  c #007E7C",
"/  c #2A6466",
"(  c #366569",
")  c #2C6B70",
"_  c #316E74",
"`  c #3A777B",
"'  c #42464C",
"]  c #41484F",
"[  c #454B52",
"{  c #4A4E54",
"}  c #4D545B",
"|  c #48545A",
" . c #52555D",
".. c #5A5A5F",
"X. c #5C4E5A",
"o. c #4B5D64",
"O. c #555C63",
"+. c #5A5E65",
"@. c #595F68",
"#. c #615F62",
"$. c #4B666C",
"%. c #5C636B",
"&. c #586268",
"*. c #406C71",
"=. c #5C6971",
"-. c #546B72",
";. c #49767B",
":. c #537178",
">. c #61666D",
",. c #656B73",
"<. c #696E77",
"1. c #696F78",
"2. c #606770",
"3. c #63737B",
"4. c #6D737B",
"5. c #6A7077",
"6. c #71757D",
"7. c #397D82",
"8. c #717780",
"9. c #757B83",
"0. c #787C85",
"q. c #797F88",
"w. c #008381",
"e. c #1D8483",
"r. c #378485",
"t. c #3C9494",
"y. c #269FA1",
"u. c #0CAEAC",
"i. c #2FB5B3",
"p. c #49888F",
"a. c #468188",
"s. c #58878A",
"d. c #5B979C",
"f. c #67858B",
"g. c #7C838B",
"h. c #7A8087",
"j. c #6A8C93",
"k. c #639194",
"l. c #7A8D95",
"z. c #499AA1",
"x. c #559CA4",
"c. c #5D9EA0",
"v. c #41ACAE",
"b. c #4EAEB4",
"n. c #5EADB6",
"m. c #5DB7B8",
"M. c #61A6AB",
"N. c #72A4A9",
"B. c #7EADB2",
"V. c #6DB6BD",
"C. c #68B1B3",
"Z. c #6DB5BB",
"A. c #71BEC7",
"S. c #6DBDC6",
"D. c #70C0C9",
"F. c #81858D",
"G. c #848B94",
"H. c #8A8F98",
"J. c #878F98",
"K. c #8C939C",
"L. c #87959D",
"P. c #929099",
"I. c #8F97A0",
"U. c #9097A1",
"Y. c #949BA4",
"T. c #999FA9",
"R. c #989DA7",
"E. c #81A1A8",
"W. c #9BA3AC",
"Q. c #9CA9B2",
"!. c #8BB4BA",
"~. c #8BB0B7",
"^. c #A0A7B0",
"/. c #A3ABB4",
"(. c #AAB3BC",
"). c #B0B5BF",
"_. c #BD99C9",
"`. c #8DBFC6",
"'. c #AEB7C1",
"]. c #AFB8C2",
"[. c #B2BAC4",
"{. c #B6BEC8",
"}. c #B9BFC9",
"|. c #C7A4D3",
" X c #97C4CB",
".X c #96CDD3",
"XX c #95D1D6",
"oX c #8AD0D9",
"OX c #BAC2CC",
"+X c #BEC6D0",
"@X c #A2C6CE",
"#X c #ABDEE5",
"$X c #A8E6ED",
"%X c #ACEAF2",
"&X c None",
/* pixels */
"&X&X&X&X&X&X&X&X&X&X&X&X&X&X&X&X&X&X&X&X&X&X&X&X&X&X&X&X&X&X&X&X&X&X&X&X&X&X&X&X&X&X&X&X&X&X&X&X&X&X&X&X&X&X&X&X&X&X&X&X&X&X&X&X",
"&X&X&X&X&X&X&X&X&X&X&X&X&X&X&X&X&X&X&X&X&X&X&X&X&X&X&X&X&X&X&X&X&X&X&X&X&X&X&X&X&X&X&X&X&X&X&X&X&X&X&X&X&X&X&X&X&X&X&X&X&X&X&X&X",
"&X&X&X&X&X&X&X&X&X&X&X&X&X&X&X&X&X&X&X&X&X&X&X&X&X&X&X&X&X&X&X&X&X&X&X&X&X&X&X&X&X&X&X&X&X&X&X&X&X&X&X&X&X&X&X&X&X&X&X&X&X&X&X&X",
"&X&X&X&X&X&X&X&X&X&X&X&X&X&X&X&X&X&X&X&X&X&X&X&X&X&X&X&X&X&X&X&X&X&X&X&X&X&X&X&X&X&X&X&X&X&X&X&X&X&X&X&X&X&X&X&X&X&X&X&X&X&X&X&X",
"&X&X&X&X&X&X&X&X&X&X&X&X&X&X&X&X&X&X&X&X&X&X&X&X&X&X&X&X&X&X&X&X&X&X&X&X&X&X&X&X&X&X&X&X&X&X&X&X&X&X&X&X&X&X&X&X&X&X&X&X&X&X&X&X",
"&X&X&X&X&X&X&X&X&X&X&X&X&X&X&X&X&X&X&X&X&X&X&X&X&X&X&X&X&X&X&X&X&X&X&X&X&X&X&X&X&X&X&X&X&X&X&X&X&X&X&X&X&X&X&X&X&X&X&X&X&X&X&X&X",
"&X&X&X&X&X&X&X&X&X&X&X&X&X&X&X&X&X&X&X&X&X&X&X&X&X&X&X&X&X&X&X&X&X&X&X&X&X&X&X&X&X&X&X&X&X&X&X&X&X&X&X&X&X&X&X&X&X&X&X&X&X&X&X&X",
"&X&X&X&X&X&X&X&X&X&X&X&X&X&X&X^ &X&X&X&X&X&X&X&X&X&X&X&X&X&X&X&X&X&X&X&X&X&X&X&X&X&X&X&X&X&X&X&X&X&X&X&X&X&X&X&X&X&X&X&X&X&X&X&X",
"&X&X&X&X&X&X&X&X&X&X&X&X&X&X&X~ &X&X&X&X&X&X&X&X&X&X&X&X&X&X&X&X&X&X&X&X&X&X&X&X&X&X&X&X&X&X&X&X&X&X&X&X&X&X&X&X&X&X&X&X&X&X&X&X",
"&X&X&X&X&X&X&X&X&X&X&X&X&X&X&Xz.&X&X&X&X&X&X&X&X&X&X&X&X&X&X&X&X&X&X&X&X&X&X&X&X&X&X&X&X&X&X&X&X&X&X&X&X&X&X&X&X&X&X&X&X&X&X&X&X",
"&X&X&X&X&X&X&X&X&X&X&X&X&X&XV.oX&X&X&X&X&X&X&X&X&X&X&X&X&X&X&X&X&X&X&X&X&X&X&X&X&X&X&X&X&X&X&X&X&X&X&X&X&X&X&X&X&X&X&X&X&X&X&X&X",
"&X&X&X&X&X&X&X&X&X&X&X&X&XY V.#Xt.&X&X&X&X&X&X&X&X&X&X&X&X&X&X&X&X&X&X&X&X&X&X&X&X&X&X&X&X&X&X&X&X&X&X&X&X&X&X&X&X&X&X&X&X&X&X&X",
"&X&X&X&X&X&X&X&X&X&X&X& q } -.| 0 ; + &X&X&X&X&X&X&X&X&X&X&X&X&X&X&X&X&X&X&X&X&X&X&X&X&X&X&X&X&X&X&X&X&X&X&X&X&X&X&X&X&X&X&X&X&X",
"&X&X&X&X&X&X&X&X    ' >.>.,.>. .+.<.+.  5 &X&X&X&X&X&X&X&X&X&X&X&X&X&X&X&X&X&X&X&X&X&X&X&X&X&X&X&X&X&X&X&X&X&X&X&X&X&X&X&X&X&X&X",
"&X&X&X&X&X&X&X&X6.>.6.Y.Y.I.Y.Y.Y.J.4. .q 3 &X&X&X&X&X&X&X&X&X&X&X&X&X&X&X&X&X&X&X&X&X&X&X&X&X&X&X&X&X&X&X&X&X&X&X&X&X&X&X&X&X&X",
"&X&X&X&X&X&X&Xg.{.K.L.{.[.[.[.[.}.K.8.9.g p ~.%X&X&X&X&X&X&X&X&X&X&X&X&X&X&X&X&X&X&X&X&X&X&X&X&X&X&X&X&X&X&X&X&X&X&X&X&X&X&X&X&X",
"&X&X&X&X&X  8.[.{.k.j.OX[.[.[.[.{.K.<.%.&.X.s.i.&X&X&X&X&X&X&X&X&X&X&X&X&X&X&X&X&X&X&X&X&X&X&X&X&X&X&X&X&X&X&X&X&X&X&X&X&X&X&X&X",
"&X&X&X&X5   h.OX}.L.;.j.).}.(.K.K.F.%.8 g r.v.b.c X &X&X&X&X&X&X&X&X&X&X&X&X&X&X&X&X&X&X&X&X&X&X&X&X&X&X&X&X&X&X&X&X&X&X&X&X&X&X",
"&X&X&X&X5 4 5.W.W.F.f.C.!.^.H.,.J.K.H.6.O.e.y.d.&.{ g &X&X&X&X&X&X&X&X&X&X&X&X&X&X&X&X&X&X&X&X&X&X&X&X&X&X&X&X&X&X&X&X&X&X&X&X&X",
"&X&X&X&X1 O.%. . .h N.$Xu.d.6.>.(.OX[.(.G.o.k U q.5.} 2 &X&X&X&X&X&X&X&X&X&X&X&X&X&X&X&X&X&X&X&X&X&X&X&X&X&X&X&X&X&X&X&X&X&X&X&X",
"&X&X&X&X  %.4.O.J 8 H $.! XX XU '.}.R.[ 0.,.=.9.q.1.} w &X&X&X&X&X&X&X&X&X&X&X&X&X&X&X&X&X&X&X&X&X&X&X&X&X&X&X&X&X&X&X&X&X&X&X&X",
"&X&X&X{ K.^.Y.5.8 F.g.O W m.n.I G.(.W.O.O.O.2.1.<.>.O.f &X&X&X&X&X&X&X&X&X&X&X&X&X&X&X&X&X&X&X&X&X&X&X&X&X&X&X&X&X&X&X&X&X&X&X&X",
"&X&X&X+.[.+X^.%.[ Q.(.f.Q w.! I g.'./.9.f ]  .} | +.O.q &X&X&X&X&X&X&X&X&X&X&X&X&X&X&X&X&X&X&X&X&X&X&X&X&X&X&X&X&X&X&X&X&X&X&X&X",
"&X&X&Xo.(.{.K.f 0.^.{.(.$.n I :.'.[.W.1.' w u u w } } 1 &X&X&X&X&X&X&X&X&X&X&X&X&X&X&X&X&X&X&X&X&X&X&X&X&X&X&X&X&X&X&X&X&X&X&X&X",
"&Xm E r.(.Y.8.g.(.OX/.q.8.,.G.].[.Y.q.9.' 8 5 5 2 o o 1 &X&X&X&X&X&X&X&X&X&X&X&X&X&X&X&X&X&X&X&X&X&X&X&X&X&X&X&X&X&X&X&X&X&X&X&X",
"&X&Xv ` #X~./ =.F.q.8.0.0. X@XP.Y.G.1.{ f 9 4 g .._._.#.&X&X&X&X&X&X&X&X&X&X&X&X&X&X&X&X&X&X&X&X&X&X&X&X&X&X&X&X&X&X&X&X&X&X&X&X",
"&X&X&X:..Xc.M M | [ +.4.+.~. Xf.=.>.O.f J u q J ..|.|.#.&X&X&X&X&X&X&X&X&X&X&X&X&X&X&X&X&X&X&X&X&X&X&X&X&X&X&X&X&X&X&X&X&X&X&X&X",
"&X&X&X>.6.-.R I O.8.4.O.| # ` m.F X { 1.5.} w f 9 #.#.O &X&X&X&X&X&X&X&X&X&X&X&X&X&X&X&X&X&X&X&X&X&X&X&X&X&X&X&X&X&X&X&X&X&X&X&X",
"&X&X&X' 6.^.W.} @.{ J %.'.9.j ~ w +.K.[.[.6.  9 f J g 4 &X&X&X&X&X&X&X&X&X&X&X&X&X&X&X&X&X&X&X&X&X&X&X&X&X&X&X&X&X&X&X&X&X&X&X&X",
"&X&X&Xy %.K.H.O.=.- %.W.F.( d.XX` U <.J.J...  5 7 5 3 1 &X&X&X&X&X&X&X&X&X&X&X&X&X&X&X&X&X&X&X&X&X&X&X&X&X&X&X&X&X&X&X&X&X&X&X&X",
"&X&X&Xy  .,.,.O.} >.T.[.h a M.XXr.j h %.} [ g 5 d d d < &X&X&X&X&X&X&X&X&X&X&X&X&X&X&X&X&X&X&X&X&X&X&X&X&X&X&X&X&X&X&X&X&X&X&X&X",
"&X&X&Xy &.@.O.O.- T.}./. .s B E B F +.9.%.%.{ 8 Z A V s &X&X&X&X&X&X&X&X&X&X&X&X&X&X&X&X&X&X&X&X&X&X&X&X&X&X&X&X&X&X&X&X&X&X&X&X",
"&X&X&Xi 9.+.] &.8 T.(.0.%.[ G B M =.8.&.%.{ y 0 D A C a &X&X&X&X&X&X&X&X&X&X&X&X&X&X&X&X&X&X&X&X&X&X&X&X&X&X&X&X&X&X&X&X&X&X&X&X",
"&X&X&Xt $.P g [ 8 T.Q.@.g * - K o.,.<.O.{ H t 8 n N b j &X&X&X&X&X&X&X&X&X&X&X&X&X&X&X&X&X&X&X&X&X&X&X&X&X&X&X&X&X&X&X&X&X&X&X&X",
"&X&XL G M F u q - W.Q.] 8.g.,.q } } O.O.g u u 4 > a j j &X&X&X&X&X&X&X&X&X&X&X&X&X&X&X&X&X&X&X&X&X&X&X&X&X&X&X&X&X&X&X&X&X&X&X&X",
"&XZ A Z D F t 5 2 Y.I.{ '.OXY.w g u [ O.H f u 5 &X&X&X&X&X&X&X&X&X&X&X&X&X&X&X&X&X&X&X&X&X&X&X&X&X&X&X&X&X&X&X&X&X&X&X&X&X&X&X&X",
"&X&X&Xw 8 u u 5 f J &.F.{.Y.q.8.%.] f J g H u 4 &X&X&X&X&X&X&X&X&X&X&X&X&X&X&X&X&X&X&X&X&X&X&X&X&X&X&X&X&X&X&X&X&X&X&X&X&X&X&X&X",
"&X&X&X5 3 u u 5 9 8 g +.6.<.,.5.=.' 2 9 q t q 5 &X&X&X&X&X&X&X&X&X&X&X&X&X&X&X&X&X&X&X&X&X&X&X&X&X&X&X&X&X&X&X&X&X&X&X&X&X&X&X&X",
"&X&X&X9 5 w y 5 3 y q +   g | { } g 9 2 5 5 5 5 &X&X&X&X&X&X&X&X&X&X&X&X&X&X&X&X&X&X&X&X&X&X&X&X&X&X&X&X&X&X&X&X&X&X&X&X&X&X&X&X",
"&X&X&X9 5 5 5 9 8 5 2 2 f 5 & 1 1 y u 5 5 5 9 &X&X&X&X&X&X&X&X&X&X&X&X&X&X&X&X&X&X&X&X&X&X&X&X&X&X&X&X&X&X&X&X&X&X&X&X&X&X&X&X&X",
"&X&Xq 5 5 5 q f f y +       . 1 5 8 9 5 9 7 &Xj D S k   = &X&X&X&X&X&X&X&X&X&X&X&X&X&X&X&X&X&X&X&X&X&X&X&X&X&X&X&X&X&X&X&X&X&X&X",
"&X&X7 q 5 5 0 t t   %.R.K.W.H.%.t       6 # . k A : k.XXM.) &X&X&X&X&X&X&X&X&X&X&X&X&X&X&X&X&X&X&X&X&X&X&X&X&X&X&X&X&X&X&X&X&X&X",
"&X&X&X5 5 q t 5 2 t G.OXOX].R.9.' >.0.4., ( a.7.n   s..XD.r.o &X&X&X&X&X&X&X&X&X&X&X&X&X&X&X&X&X&X&X&X&X&X&X&X&X&X&X&X&X&X&X&X&X",
"&X&X&X&X5 u u 3 + >.Y.[.[.H.4.8.O.W.OX).-.x.A.V./ m k N V.p.  &X&X&X&X&X&X&X&X&X&X&X&X&X&X&X&X&X&X&X&X&X&X&X&X&X&X&X&X&X&X&X&X&X",
"&X&X&X&X5 q 5 5 . &.T.[.J.<.@.%.o.T.{.'.].H.~.$XV.n.n.V.%XN.  &X&X&X&X&X&X&X&X&X&X&X&X&X&X&X&X&X&X&X&X&X&X&X&X&X&X&X&X&X&X&X&X&X",
"&X&X&X&X9 5 6 y <.O.%.9.,.%. .[ ,./.OX'.l. .j.oXA.x.7.p.N.;.% &X&X&X&X&X&X&X&X&X&X&X&X&X&X&X&X&X&X&X&X&X&X&X&X&X&X&X&X&X&X&X&X&X",
"&X&X&X&X&X9 4 y ,.%.g   [ @.| K <.H.W.W.$., ( z.x._ : k = : x &X&X&X&X&X&X&X&X&X&X&X&X&X&X&X&X&X&X&X&X&X&X&X&X&X&X&X&X&X&X&X&X&X",
"&X&X&X&X&X9 5 5 . =.8.b f  .o.Z @.m R 8.q.$.v l v V Z C x k j &X&X&X&X&X&X&X&X&X&X&X&X&X&X&X&X&X&X&X&X&X&X&X&X&X&X&X&X&X&X&X&X&X",
"&X&X&X&X&X5 7 5 5 d p.C.U u r : &.U a ] R T C C C Z A Z Z N a &X&X&X&X&X&X&X&X&X&X&X&X&X&X&X&X&X&X&X&X&X&X&X&X&X&X&X&X&X&X&X&X&X",
"&X&X&X&X&X5 q 5 3 : / ;.f @ *.x.| t q 5 c L m b z z z z N x &X&X&X&X&X&X&X&X&X&X&X&X&X&X&X&X&X&X&X&X&X&X&X&X&X&X&X&X&X&X&X&X&X&X",
"&X&X&X&X&Xt 5 q 5 e ; @ 3 # *.x.F $ 5 5 &X&X&X> > < < > a &X&X&X&X&X&X&X&X&X&X&X&X&X&X&X&X&X&X&X&X&X&X&X&X&X&X&X&X&X&X&X&X&X&X&X",
"&X&X&X&X&X&X9 5 5 5 5 5 8 3 e z &X&X&X&X&X&X&X&X&X&X&X&X&X&X&X&X&X&X&X&X&X&X&X&X&X&X&X&X&X&X&X&X&X&X&X&X&X&X&X&X&X&X&X&X&X&X&X&X",
"&X&X&X&X&X&X&X&X&X&X&X&X&X&X&X&X&X&X&X&X&X&X&X&X&X&X&X&X&X&X&X&X&X&X&X&X&X&X&X&X&X&X&X&X&X&X&X&X&X&X&X&X&X&X&X&X&X&X&X&X&X&X&X&X",
"&X&X&X&X&X&X&X&X&X&X&X&X&X&X&X&X&X&X&X&X&X&X&X&X&X&X&X&X&X&X&X&X&X&X&X&X&X&X&X&X&X&X&X&X&X&X&X&X&X&X&X&X&X&X&X&X&X&X&X&X&X&X&X&X",
"&X&X&X&X&X&X&X&X&X&X&X&X&X&X&X&X&X&X&X&X&X&X&X&X&X&X&X&X&X&X&X&X&X&X&X&X&X&X&X&X&X&X&X&X&X&X&X&X&X&X&X&X&X&X&X&X&X&X&X&X&X&X&X&X",
"&X&X&X&X&X&X&X&X&X&X&X&X&X&X&X&X&X&X&X&X&X&X&X&X&X&X&X&X&X&X&X&X&X&X&X&X&X&X&X&X&X&X&X&X&X&X&X&X&X&X&X&X&X&X&X&X&X&X&X&X&X&X&X&X",
"&X&X&X&X&X&X&X&X&X&X&X&X&X&X&X&X&X&X&X&X&X&X&X&X&X&X&X&X&X&X&X&X&X&X&X&X&X&X&X&X&X&X&X&X&X&X&X&X&X&X&X&X&X&X&X&X&X&X&X&X&X&X&X&X",
"&X&X&X&X&X&X&X&X&X&X&X&X&X&X&X&X&X&X&X&X&X&X&X&X&X&X&X&X&X&X&X&X&X&X&X&X&X&X&X&X&X&X&X&X&X&X&X&X&X&X&X&X&X&X&X&X&X&X&X&X&X&X&X&X",
"&X&X&X&X&X&X&X&X&X&X&X&X&X&X&X&X&X&X&X&X&X&X&X&X&X&X&X&X&X&X&X&X&X&X&X&X&X&X&X&X&X&X&X&X&X&X&X&X&X&X&X&X&X&X&X&X&X&X&X&X&X&X&X&X",
"&X&X&X&X&X&X&X&X&X&X&X&X&X&X&X&X&X&X&X&X&X&X&X&X&X&X&X&X&X&X&X&X&X&X&X&X&X&X&X&X&X&X&X&X&X&X&X&X&X&X&X&X&X&X&X&X&X&X&X&X&X&X&X&X",
"&X&X&X&X&X&X&X&X&X&X&X&X&X&X&X&X&X&X&X&X&X&X&X&X&X&X&X&X&X&X&X&X&X&X&X&X&X&X&X&X&X&X&X&X&X&X&X&X&X&X&X&X&X&X&X&X&X&X&X&X&X&X&X&X",
"&X&X&X&X&X&X&X&X&X&X&X&X&X&X&X&X&X&X&X&X&X&X&X&X&X&X&X&X&X&X&X&X&X&X&X&X&X&X&X&X&X&X&X&X&X&X&X&X&X&X&X&X&X&X&X&X&X&X&X&X&X&X&X&X",
"&X&X&X&X&X&X&X&X&X&X&X&X&X&X&X&X&X&X&X&X&X&X&X&X&X&X&X&X&X&X&X&X&X&X&X&X&X&X&X&X&X&X&X&X&X&X&X&X&X&X&X&X&X&X&X&X&X&X&X&X&X&X&X&X",
"&X&X&X&X&X&X&X&X&X&X&X&X&X&X&X&X&X&X&X&X&X&X&X&X&X&X&X&X&X&X&X&X&X&X&X&X&X&X&X&X&X&X&X&X&X&X&X&X&X&X&X&X&X&X&X&X&X&X&X&X&X&X&X&X"
};
