/* XPM */
static char *result[] = {
/* columns rows colors chars-per-pixel */
"64 64 197 2 ",
"   c #000000",
".  c #0C0908",
"X  c #180000",
"o  c #001400",
"O  c #07191A",
"+  c #1A1719",
"@  c #240000",
"#  c #2A0000",
"$  c #270808",
"%  c #00221A",
"&  c #1F1F21",
"*  c #171B23",
"=  c #002A2A",
"-  c #1C242B",
";  c #192A2C",
":  c #1A2223",
">  c #013C3C",
",  c #0D3D3C",
"<  c #1C373B",
"1  c #153C3B",
"2  c #232325",
"3  c #24262B",
"4  c #2B262A",
"5  c #252A2D",
"6  c #2A2A2D",
"7  c #292427",
"8  c #312B2F",
"9  c #262D33",
"0  c #2C2E31",
"q  c #243234",
"w  c #2D3135",
"e  c #2D343A",
"r  c #233A3D",
"t  c #2C3A3E",
"y  c #313236",
"u  c #32353A",
"i  c #33393E",
"p  c #3A363D",
"a  c #40303A",
"s  c #00403E",
"d  c #1C3E45",
"f  c #243E43",
"g  c #353C42",
"h  c #3A3D43",
"j  c #423D46",
"k  c #014343",
"l  c #004649",
"z  c #064A4E",
"x  c #084D4F",
"c  c #0A4546",
"v  c #184749",
"b  c #024F52",
"n  c #084F50",
"m  c #134C51",
"M  c #1C4E54",
"N  c #005254",
"B  c #0B5254",
"V  c #075A5D",
"C  c #135255",
"Z  c #16555A",
"A  c #19555A",
"S  c #17595E",
"D  c #1B595F",
"F  c #185256",
"G  c #2D454A",
"H  c #274649",
"J  c #3B4046",
"K  c #3D434A",
"L  c #32484E",
"P  c #244E53",
"I  c #3E4E55",
"U  c #275359",
"Y  c #37555A",
"T  c #00625E",
"R  c #275C62",
"E  c #315C62",
"W  c #006968",
"Q  c #00706D",
"!  c #1F6F70",
"~  c #007674",
"^  c #007876",
"/  c #007E7C",
"(  c #2A6466",
")  c #36656A",
"_  c #2C6B70",
"`  c #316E74",
"'  c #3A777B",
"]  c #41464C",
"[  c #41484F",
"{  c #454B52",
"}  c #4A4E55",
"|  c #4C545B",
" . c #49545A",
".. c #52555C",
"X. c #5A5A5F",
"o. c #5C4E5A",
"O. c #4B5D64",
"+. c #555C63",
"@. c #5B5E65",
"#. c #595F68",
"$. c #615F62",
"%. c #4B666C",
"&. c #5C636B",
"*. c #576268",
"=. c #406B71",
"-. c #5C6971",
";. c #546B72",
":. c #49767B",
">. c #537178",
",. c #61666D",
"<. c #656B73",
"1. c #696E77",
"2. c #696F78",
"3. c #606770",
"4. c #63737B",
"5. c #6D737B",
"6. c #6A7077",
"7. c #71757D",
"8. c #397D82",
"9. c #717780",
"0. c #757B83",
"q. c #797C85",
"w. c #787F88",
"e. c #008481",
"r. c #1D8483",
"t. c #388485",
"y. c #3C9494",
"u. c #269FA1",
"i. c #0BAEAC",
"p. c #30B5B3",
"a. c #4A898F",
"s. c #47848C",
"d. c #588789",
"f. c #5B979C",
"g. c #67858B",
"h. c #7C838B",
"j. c #7A8087",
"k. c #6A8C93",
"l. c #639194",
"z. c #7A8D95",
"x. c #499AA1",
"c. c #559CA4",
"v. c #5D9EA0",
"b. c #40ACAE",
"n. c #4EAEB4",
"m. c #5EADB6",
"M. c #5DB7B8",
"N. c #61A6AB",
"B. c #72A4A9",
"V. c #7EADB2",
"C. c #6DB6BE",
"Z. c #68B1B3",
"A. c #6DB5BB",
"S. c #71BEC7",
"D. c #6DBDC6",
"F. c #70C0C9",
"G. c #81858D",
"H. c #848B94",
"J. c #8A8F98",
"K. c #878F98",
"L. c #8C939C",
"P. c #87959D",
"I. c #929099",
"U. c #8F97A1",
"Y. c #9097A1",
"T. c #949BA4",
"R. c #999FA9",
"E. c #989CA7",
"W. c #81A1A8",
"Q. c #9BA3AC",
"!. c #9DA7B0",
"~. c #9DACB4",
"^. c #8BB4BA",
"/. c #8BB0B7",
"(. c #A3ABB4",
"). c #A0A7B0",
"_. c #AAB3BC",
"`. c #B0B5BF",
"'. c #BD99C9",
"]. c #8DBFC6",
"[. c #AEB7C1",
"{. c #AFB8C2",
"}. c #B2BAC4",
"|. c #B6BEC8",
" X c #B9BFC9",
".X c #C7A5D3",
"XX c #97C4CB",
"oX c #96CDD3",
"OX c #95D1D6",
"+X c #8AD0D8",
"@X c #BAC2CC",
"#X c #BEC6D1",
"$X c #A2C6CE",
"%X c #ABDEE5",
"&X c #A8E6ED",
"*X c #ACEAF2",
"=X c None",
/* pixels */
"=X=X=X=X=X=X=X=X=X=X=X=X=X=X=X=X=X=X=X=X=X=X=X=X=X=X=X=X=X=X=X=X=X=X=X=X=X=X=X=X=X=X=X=X=X=X=X=X=X=X=X=X=X=X=X=X=X=X=X=X=X=X=X=X",
"=X=X=X=X=X=X=X=X=X=X=X=X=X=X=X=X=X=X=X=X=X=X=X=X=X=X=X=X=X=X=X=X=X=X=X=X=X=X=X=X=X=X=X=X=X=X=X=X=X=X=X=X=X=X=X=X=X=X=X=X=X=X=X=X",
"=X=X=X=X=X=X=X=X=X=X=X=X=X=X=X=X=X=X=X=X=X=X=X=X=X=X=X=X=X=X=X=X=X=X=X=X=X=X=X=X=X=X=X=X=X=X=X=X=X=X=X=X=X=X=X=X=X=X=X=X=X=X=X=X",
"=X=X=X=X=X=X=X=X=X=X=X=X=X=X=X=X=X=X=X=X=X=X=X=X=X=X=X=X=X=X=X=X=X=X=X=X=X=X=X=X=X=X=X=X=X=X=X=X=X=X=X=X=X=X=X=X=X=X=X=X=X=X=X=X",
"=X=X=X=X=X=X=X=X=X=X=X=X=X=X=X=X=X=X=X=X=X=X=X=X=X=X=X=X=X=X=X=X=X=X=X=X=X=X=X=X=X=X=X=X=X=X=X=X=X=X=X=X=X=X=X=X=X=X=X=X=X=X=X=X",
"=X=X=X=X=X=X=X=X=X=X=X=X=X=X=X=X=X=X=X=X=X=X=X=X=X=X=X=X=X=X=X=X=X=X=X=X=X=X=X=X=X=X=X=X=X=X=X=X=X=X=X=X=X=X=X=X=X=X=X=X=X=X=X=X",
"=X=X=X=X=X=X=X=X=X=X=X=X=X=X=X=X=X=X=X=X=X=X=X=X=X=X=X=X=X=X=X=X=X=X=X=X=X=X=X=X=X=X=X=X=X=X=X=X=X=X=X=X=X=X=X=X=X=X=X=X=X=X=X=X",
"=X=X=X=X=X=X=X=X=X=X=X=X=X=X=X=X=X=X=X=X=X=X=X=X=X=X=X=X=X=X=X=X=X=X=X=X=X=X=X=X=X=X=X=X=X=X=X=X/ =X=X=X=X=X=X=X=X=X=X=X=X=X=X=X",
"=X=X=X=X=X=X=X=X=X=X=X=X=X=X=X=X=X=X=X=X=X=X=X=X=X=X=X=X=X=X=X=X=X=X=X=X=X=X=X=X=X=X=X=X=X=X=X=X^ =X=X=X=X=X=X=X=X=X=X=X=X=X=X=X",
"=X=X=X=X=X=X=X=X=X=X=X=X=X=X=X=X=X=X=X=X=X=X=X=X=X=X=X=X=X=X=X=X=X=X=X=X=X=X=X=X=X=X=X=X=X=X=X=Xx.=X=X=X=X=X=X=X=X=X=X=X=X=X=X=X",
"=X=X=X=X=X=X=X=X=X=X=X=X=X=X=X=X=X=X=X=X=X=X=X=X=X=X=X=X=X=X=X=X=X=X=X=X=X=X=X=X=X=X=X=X=X=X=X=X+XC.=X=X=X=X=X=X=X=X=X=X=X=X=X=X",
"=X=X=X=X=X=X=X=X=X=X=X=X=X=X=X=X=X=X=X=X=X=X=X=X=X=X=X=X=X=X=X=X=X=X=X=X=X=X=X=X=X=X=X=X=X=X=Xy.&XC.T =X=X=X=X=X=X=X=X=X=X=X=X=X",
"=X=X=X=X=X=X=X=X=X=X=X=X=X=X=X=X=X=X=X=X=X=X=X=X=X=X=X=X=X=X=X=X=X=X=X=X=X=X=X=X=X=X=X=X=X+ : r  .*. .w & =X=X=X=X=X=X=X=X=X=X=X",
"=X=X=X=X=X=X=X=X=X=X=X=X=X=X=X=X=X=X=X=X=X=X=X=X=X=X=X=X=X=X=X=X=X=X=X=X=X=X=X=X=X=X=X4   +.<.@.X.,.1.&.,.]     =X=X=X=X=X=X=X=X",
"=X=X=X=X=X=X=X=X=X=X=X=X=X=X=X=X=X=X=X=X=X=X=X=X=X=X=X=X=X=X=X=X=X=X=X=X=X=X=X=X=X=X8 0 ..7.K.T.Y.Y.Y.Y.T.7.,.7.=X=X=X=X=X=X=X=X",
"=X=X=X=X=X=X=X=X=X=X=X=X=X=X=X=X=X=X=X=X=X=X=X=X=X=X=X=X=X=X=X=X=X=X=X=X=X=X=X=X&X^.a h 0.7.Y.|.|.}.}.|.|.L.Y.}.h.=X=X=X=X=X=X=X",
"=X=X=X=X=X=X=X=X=X=X=X=X=X=X=X=X=X=X=X=X=X=X=X=X=X=X=X=X=X=X=X=X=X=X=X=X=X=X=X=Xp.d.o.@.&.1.Y. X}.}.[.}. Xk.l.}.{.9.  =X=X=X=X=X",
"=X=X=X=X=X=X=X=X=X=X=X=X=X=X=X=X=X=X=X=X=X=X=X=X=X=X=X=X=X=X=X=X=X=X=X=X=X=XX v n.p.8.j 9 &.h.J.L._. X_.k.:.U.@X#Xj.  6 =X=X=X=X",
"=X=X=X=X=X=X=X=X=X=X=X=X=X=X=X=X=X=X=X=X=X=X=X=X=X=X=X=X=X=X=X=X=X=X=X=X=Xh } *.f.u.r.+.0.K.L.J.<.I.~.^.m.k.G.R.Q.6.3 6 =X=X=X=X",
"=X=X=X=X=X=X=X=X=X=X=X=X=X=X=X=X=X=X=X=X=X=X=X=X=X=X=X=X=X=X=X=X=X=X=X=X6 | 2.q.U d O.G._.}. X_.&.7.f.i.&XU.j O...-...: =X=X=X=X",
"=X=X=X=X=X=X=X=X=X=X=X=X=X=X=X=X=X=X=X=X=X=X=X=X=X=X=X=X=X=X=X=X=X=X=X=Xu | 1.w.0.-.<.w.{ T.@X_.Y XXOX^ %.h 9 K +.5.&.  =X=X=X=X",
"=X=X=X=X=X=X=X=X=X=X=X=X=X=X=X=X=X=X=X=X=X=X=X=X=X=X=X=X=X=X=X=X=X=X=X=Xg | 3.1.4.3.+.+.@.!._.z.P M.M.Q % h.h.q 6.T.(.L.| =X=X=X",
"=X=X=X=X=X=X=X=X=X=X=X=X=X=X=X=X=X=X=X=X=X=X=X=X=X=X=X=X=X=X=X=X=X=X=X=Xy +.+.} } ..[ g 7.(._.H.U ^ e.! 0.[.!.{ &.Q.#X{.+.=X=X=X",
"=X=X=X=X=X=X=X=X=X=X=X=X=X=X=X=X=X=X=X=X=X=X=X=X=X=X=X=X=X=X=X=X=X=X=X=X2 | O.e g g e ] 7.Q.}._.>.U m %.[.}.~.0.J L.}._.+.=X=X=X",
"=X=X=X=X=X=X=X=X=X=X=X=X=X=X=X=X=X=X=X=X=X=X=X=X=X=X=X=X=X=X=X=X=X=X=X=X2 o o 3 4 6 q I 0.q.T.|.[.J.<.0.w.(. X_.h.0.T._.t.W M =X",
"=X=X=X=X=X=X=X=X=X=X=X=X=X=X=X=X=X=X=X=X=X=X=X=X=X=X=X=X=X=X=X=X=X=X=X=X$.'.'.@.h 3 4 h | 6.H.T.I.$X].q.q.9.q.z.;.( /.%X' N =X=X",
"=X=X=X=X=X=X=X=X=X=X=X=X=X=X=X=X=X=X=X=X=X=X=X=X=X=X=X=X=X=X=X=X=X=X=X=X$..X.XX.K w g K i +.,.&.g.].^.@.5.+.{  .b N f.oX>.=X=X=X",
"=X=X=X=X=X=X=X=X=X=X=X=X=X=X=X=X=X=X=X=X=X=X=X=X=X=X=X=X=X=X=X=X=X=X=X=XO X.@.w g e  .6.6.} X G m.:.#  .+.9.9.+.U E -.7.,.=X=X=X",
"=X=X=X=X=X=X=X=X=X=X=X=X=X=X=X=X=X=X=X=X=X=X=X=X=X=X=X=X=X=X=X=X=X=X=X=X4 J ] i w   7.}.}.L.@.r ~ l 9._.,.K  .&.| R.(.7.] =X=X=X",
"=X=X=X=X=X=X=X=X=X=X=X=X=X=X=X=X=X=X=X=X=X=X=X=X=X=X=X=X=X=X=X=X=X=X=X=X4 8 6 8 6   X.K.J.6.Y ' oXv.%.G.Q.&.- &.+.K.L.&.y =X=X=X",
"=X=X=X=X=X=X=X=X=X=X=X=X=X=X=X=X=X=X=X=X=X=X=X=X=X=X=X=X=X=X=X=X=X=X=X=Xq r f r 4 h { ..&.] s t.oXN.k h }.T.3.| +.<.<...u =X=X=X",
"=X=X=X=X=X=X=X=X=X=X=X=X=X=X=X=X=X=X=X=X=X=X=X=X=X=X=X=X=X=X=X=X=X=X=X=Xk C S A 5 } &.&.0.@.G V W V d ..(.@XR.- *.+.@.&.u =X=X=X",
"=X=X=X=X=X=X=X=X=X=X=X=X=X=X=X=X=X=X=X=X=X=X=X=X=X=X=X=X=X=X=X=X=X=X=X=Xk C S F q u } &.&.5.4.N V P [ &.w._.T.9 &.{ +.0.h =X=X=X",
"=X=X=X=X=X=X=X=X=X=X=X=X=X=X=X=X=X=X=X=X=X=X=X=X=X=X=X=X=X=X=X=X=X=X=X=Xs B B m 0 w J } +.<.3.O.L - * h &.(.Q.- { h { %.y =X=X=X",
"=X=X=X=X=X=X=X=X=X=X=X=X=X=X=X=X=X=X=X=X=X=X=X=X=X=X=X=X=X=X=X=X=X=X=X=Xk s > , 5 i g h &.+. .| y <.h.5.[ Q.Q.- w i H N H P =X=X",
"=X=X=X=X=X=X=X=X=X=X=X=X=X=X=X=X=X=X=X=X=X=X=X=X=X=X=X=X=X=X=X=X=X=X=X=X=X=X=X=X5 i g J +.{ e h e T.@X[.} Y.T.3 5 y G A C D A =X",
"=X=X=X=X=X=X=X=X=X=X=X=X=X=X=X=X=X=X=X=X=X=X=X=X=X=X=X=X=X=X=X=X=X=X=X=X=X=X=X=X6 i h h J g [ &.9.w.R.}.h.&.[ i 6 i i q w =X=X=X",
"=X=X=X=X=X=X=X=X=X=X=X=X=X=X=X=X=X=X=X=X=X=X=X=X=X=X=X=X=X=X=X=X=X=X=X=X=X=X=X=X6 y y w 0 3 [ -.1.<.1.7.@.h 9 y 4 i i 6 4 =X=X=X",
"=X=X=X=X=X=X=X=X=X=X=X=X=X=X=X=X=X=X=X=X=X=X=X=X=X=X=X=X=X=X=X=X=X=X=X=X=X=X=X=X6 6 0 4 6 4 J | } | h   + w y 6 6 u e 4 w =X=X=X",
"=X=X=X=X=X=X=X=X=X=X=X=X=X=X=X=X=X=X=X=X=X=X=X=X=X=X=X=X=X=X=X=X=X=X=X=X=X=X=X=X=Xq 6 6 6 i i 2 3 & 0 g 3 3 4 q 0 6 0 4 0 =X=X=X",
"=X=X=X=X=X=X=X=X=X=X=X=X=X=X=X=X=X=X=X=X=X=X=X=X=X=X=X=X=X=X=X=X=X=X=X=   z U F k =X0 0 4 0 0 4 2 .       & u i h w 6 6 6 0 =X=X",
"=X=X=X=X=X=X=X=X=X=X=X=X=X=X=X=X=X=X=X=X=X=X=X=X=X=X=X=X=X=X=X=X=X=X_ N.OXl.> S l . # 7       w *.K.Q.L.T.&.  e e 5 6 6 w 8 =X=X",
"=X=X=X=X=X=X=X=X=X=X=X=X=X=X=X=X=X=X=X=X=X=X=X=X=X=X=X=X=X=X=X=X=Xo t.F.OXd.  m ' s.) r 2.q.,.] 0.Q.`.@X@XG.y 7 6 w w 6 0 =X=X=X",
"=X=X=X=X=X=X=X=X=X=X=X=X=X=X=X=X=X=X=X=X=X=X=X=X=X=X=X=X=X=X=X=X=X  a.D.B l m ( D.D.c.;.[.#XR.+.7.6.K.`.@XT.&.+ 3 i i 6 =X=X=X=X",
"=X=X=X=X=X=X=X=X=X=X=X=X=X=X=X=X=X=X=X=X=X=X=X=X=X=X=X=X=X=X=X=X=X  B.*XD.m.m.A.&X/.K.}.}.}.R.+.&.*.1.J.}.Q.&.. 5 0 0 6 =X=X=X=X",
"=X=X=X=X=X=X=X=X=X=X=X=X=X=X=X=X=X=X=X=X=X=X=X=X=X=X=X=X=X=X=X=X=X% :.B.a.8.c.S.+Xk...z.}. X(.<.} | &.<.q.&.X.<.i 7 6 y =X=X=X=X",
"=X=X=X=X=X=X=X=X=X=X=X=X=X=X=X=X=X=X=X=X=X=X=X=X=X=X=X=X=X=X=X=X=Xc > = l > ` c.x.( < %.Q.!.J.1.G | @.}   J ,.<.u 4 0 =X=X=X=X=X",
"=X=X=X=X=X=X=X=X=X=X=X=X=X=X=X=X=X=X=X=X=X=X=X=X=X=X=X=X=X=X=X=X=Xk k c F A C n z b %.q.9.E M +.A O...t B 4.<.. 5 0 0 =X=X=X=X=X",
"=X=X=X=X=X=X=X=X=X=X=X=X=X=X=X=X=X=X=X=X=X=X=X=X=X=X=X=X=X=X=X=X=Xs B A A A S A A Z U E } s Y *.> t p I Z.a.f 4 4 0 6 =X=X=X=X=X",
"=X=X=X=X=X=X=X=X=X=X=X=X=X=X=X=X=X=X=X=X=X=X=X=X=X=X=X=X=X=X=X=X=X=Xc C x x x x N M P v 8 q y  .c.=.@ g :.( > 4 6 q 0 =X=X=X=X=X",
"=X=X=X=X=X=X=X=X=X=X=X=X=X=X=X=X=X=X=X=X=X=X=X=X=X=X=X=X=X=X=X=X=X=X=Xs 1 s 1 , , =X=X=X6 4 $ G c.=.@ 6 @ ; < 0 0 6 y =X=X=X=X=X",
"=X=X=X=X=X=X=X=X=X=X=X=X=X=X=X=X=X=X=X=X=X=X=X=X=X=X=X=X=X=X=X=X=X=X=X=X=X=X=X=X=X=X=X=X=X=X=X=Xx r 6 6 6 6 6 6 6 0 =X=X=X=X=X=X",
"=X=X=X=X=X=X=X=X=X=X=X=X=X=X=X=X=X=X=X=X=X=X=X=X=X=X=X=X=X=X=X=X=X=X=X=X=X=X=X=X=X=X=X=X=X=X=X=X=X=X=X=X=X=X=X=X=X=X=X=X=X=X=X=X",
"=X=X=X=X=X=X=X=X=X=X=X=X=X=X=X=X=X=X=X=X=X=X=X=X=X=X=X=X=X=X=X=X=X=X=X=X=X=X=X=X=X=X=X=X=X=X=X=X=X=X=X=X=X=X=X=X=X=X=X=X=X=X=X=X",
"=X=X=X=X=X=X=X=X=X=X=X=X=X=X=X=X=X=X=X=X=X=X=X=X=X=X=X=X=X=X=X=X=X=X=X=X=X=X=X=X=X=X=X=X=X=X=X=X=X=X=X=X=X=X=X=X=X=X=X=X=X=X=X=X",
"=X=X=X=X=X=X=X=X=X=X=X=X=X=X=X=X=X=X=X=X=X=X=X=X=X=X=X=X=X=X=X=X=X=X=X=X=X=X=X=X=X=X=X=X=X=X=X=X=X=X=X=X=X=X=X=X=X=X=X=X=X=X=X=X",
"=X=X=X=X=X=X=X=X=X=X=X=X=X=X=X=X=X=X=X=X=X=X=X=X=X=X=X=X=X=X=X=X=X=X=X=X=X=X=X=X=X=X=X=X=X=X=X=X=X=X=X=X=X=X=X=X=X=X=X=X=X=X=X=X",
"=X=X=X=X=X=X=X=X=X=X=X=X=X=X=X=X=X=X=X=X=X=X=X=X=X=X=X=X=X=X=X=X=X=X=X=X=X=X=X=X=X=X=X=X=X=X=X=X=X=X=X=X=X=X=X=X=X=X=X=X=X=X=X=X",
"=X=X=X=X=X=X=X=X=X=X=X=X=X=X=X=X=X=X=X=X=X=X=X=X=X=X=X=X=X=X=X=X=X=X=X=X=X=X=X=X=X=X=X=X=X=X=X=X=X=X=X=X=X=X=X=X=X=X=X=X=X=X=X=X",
"=X=X=X=X=X=X=X=X=X=X=X=X=X=X=X=X=X=X=X=X=X=X=X=X=X=X=X=X=X=X=X=X=X=X=X=X=X=X=X=X=X=X=X=X=X=X=X=X=X=X=X=X=X=X=X=X=X=X=X=X=X=X=X=X",
"=X=X=X=X=X=X=X=X=X=X=X=X=X=X=X=X=X=X=X=X=X=X=X=X=X=X=X=X=X=X=X=X=X=X=X=X=X=X=X=X=X=X=X=X=X=X=X=X=X=X=X=X=X=X=X=X=X=X=X=X=X=X=X=X",
"=X=X=X=X=X=X=X=X=X=X=X=X=X=X=X=X=X=X=X=X=X=X=X=X=X=X=X=X=X=X=X=X=X=X=X=X=X=X=X=X=X=X=X=X=X=X=X=X=X=X=X=X=X=X=X=X=X=X=X=X=X=X=X=X",
"=X=X=X=X=X=X=X=X=X=X=X=X=X=X=X=X=X=X=X=X=X=X=X=X=X=X=X=X=X=X=X=X=X=X=X=X=X=X=X=X=X=X=X=X=X=X=X=X=X=X=X=X=X=X=X=X=X=X=X=X=X=X=X=X",
"=X=X=X=X=X=X=X=X=X=X=X=X=X=X=X=X=X=X=X=X=X=X=X=X=X=X=X=X=X=X=X=X=X=X=X=X=X=X=X=X=X=X=X=X=X=X=X=X=X=X=X=X=X=X=X=X=X=X=X=X=X=X=X=X"
};
