/* XPM */
static char *result[] = {
/* columns rows colors chars-per-pixel */
"64 64 160 2 ",
"   c #000000",
".  c #0F0901",
"X  c #170600",
"o  c #180600",
"O  c #100901",
"+  c #1E0E01",
"@  c #1D1303",
"#  c #200C01",
"$  c #211604",
"%  c #2A1101",
"&  c #261A05",
"*  c #281C05",
"=  c #362609",
"-  c #692B07",
";  c #6D3106",
":  c #773708",
">  c #783708",
",  c #7D3A09",
"<  c #A10000",
"1  c #A91D00",
"2  c #8C3602",
"3  c #AC3300",
"4  c #AC3A00",
"5  c #844609",
"6  c #974D06",
"7  c #92450D",
"8  c #9B480E",
"9  c #99520C",
"0  c #AC4200",
"q  c #AD4F0F",
"w  c #AC450E",
"e  c #B24704",
"r  c #A4590D",
"t  c #B15F0F",
"y  c #AF531A",
"u  c #B35512",
"i  c #B45814",
"p  c #BA5913",
"a  c #B4591C",
"s  c #A2661D",
"d  c #B66111",
"f  c #B55C25",
"g  c #AA6D25",
"h  c #B6612E",
"j  c #C75E00",
"k  c #D25600",
"l  c #D25A00",
"z  c #C25D14",
"x  c #D66400",
"c  c #D86600",
"v  c #D56C05",
"b  c #D66E0A",
"n  c #D6700D",
"m  c #DF740D",
"M  c #CB6C1A",
"N  c #D66F11",
"B  c #D77616",
"V  c #D97716",
"C  c #DA7917",
"Z  c #D6711F",
"A  c #DA7A19",
"S  c #E17C17",
"D  c #E27D19",
"F  c #D77420",
"G  c #DA7B25",
"H  c #AD8331",
"J  c #B58934",
"K  c #B98D35",
"L  c #BF9137",
"P  c #DD811F",
"I  c #D0841E",
"U  c #E28600",
"Y  c #E68E00",
"T  c #EB9900",
"R  c #EB8119",
"E  c #FFBA01",
"W  c #FFBC11",
"Q  c #DF8524",
"!  c #CE8632",
"~  c #D78B31",
"^  c #C39539",
"/  c #CB9A3B",
"(  c #D19F3E",
")  c #E08826",
"_  c #E38E2B",
"`  c #E4912D",
"'  c #E79832",
"]  c #EC9A32",
"[  c #E79839",
"{  c #FFBD2D",
"}  c #FAB62D",
"|  c #ECA037",
" . c #EDA239",
".. c #F5AF32",
"X. c #F2AC3C",
"o. c #FFBE33",
"O. c #F5B038",
"+. c #FFBF3A",
"@. c #FFC42F",
"#. c #FFC335",
"$. c #FFC23C",
"%. c #D5A440",
"&. c #D9A540",
"*. c #DDA941",
"=. c #EDA440",
"-. c #E2AD43",
";. c #F3AE41",
":. c #E7B045",
">. c #EDB547",
",. c #F5B243",
"<. c #F6BC4A",
"1. c #FBBD4C",
"2. c #F5B348",
"3. c #D19566",
"4. c #CB9876",
"5. c #D1A27C",
"6. c #F5BA66",
"7. c #F5BE70",
"8. c #FFC144",
"9. c #FEC44D",
"0. c #FFC84F",
"q. c #FEC452",
"w. c #FFCA51",
"e. c #FFD053",
"r. c #FFCA6B",
"t. c #FFCF79",
"y. c #FFD27A",
"u. c #D0A280",
"i. c #DFBF9D",
"p. c #E7B183",
"a. c #E8B384",
"s. c #EFBE87",
"d. c #ECB889",
"f. c #FFD486",
"g. c #FFD68E",
"h. c #FFD98F",
"j. c #E6C59B",
"k. c #FFD790",
"l. c #FFDA96",
"z. c #F5D09E",
"x. c #FFDC9B",
"c. c #E3C7A3",
"v. c #FEDFA6",
"b. c #F3D5AB",
"n. c #F5D8AF",
"m. c #F9DCAD",
"M. c #F5D3A4",
"N. c #F5DBB4",
"B. c #FFE4AE",
"V. c #FFE8AE",
"C. c #FFE6B1",
"Z. c #FFE8B5",
"A. c #FFEBBB",
"S. c #FEEFC7",
"D. c #FFF1C5",
"F. c #FFF2CB",
"G. c #FFF6D2",
"H. c #FFFAD3",
"J. c #FFFDD9",
"K. c None",
/* pixels */
"K.K.K.K.K.K.K.K.K.K.K.K.K.K.K.K.K.K.K.K.K.K.K.K.                                K.K.K.K.K.K.K.K.K.K.K.K.K.K.K.K.K.K.K.K.K.K.K.K.",
"K.K.K.K.K.K.K.K.K.K.K.K.K.K.K.K.K.K.K.K.K.K.K.K.      .     .           .       K.K.K.K.K.K.K.K.K.K.K.K.K.K.K.K.K.K.K.K.K.K.K.K.",
"K.K.K.K.K.K.K.K.K.K.K.K.K.K.K.K.K.K.K.K.K.K.K.K.                                K.K.K.K.K.K.K.K.K.K.K.K.K.K.K.K.K.K.K.K.K.K.K.K.",
"K.K.K.K.K.K.K.K.K.K.K.K.K.K.K.K.K.K.K.K.K.K.K.K.$ $ $ $ $ $ $ $ & $ $ $ $ $ $ * K.K.K.K.K.K.K.K.K.K.K.K.K.K.K.K.K.K.K.K.K.K.K.K.",
"K.K.K.K.K.K.K.K.K.K.K.K.K.K.K.K.K.K.K.K.    $   *.0.<.<.<.<.<.1.<.<.<.<.1.<.<.0.H   &   K.K.K.K.K.K.K.K.K.K.K.K.K.K.K.K.K.K.K.K.",
"K.K.K.K.K.K.K.K.K.K.K.K.K.K.K.K.K.K.K.K.    $   -.0.9.9.9.9.9.0.9.0.9.0.0.9.9.w.H   &   K.K.K.K.K.K.K.K.K.K.K.K.K.K.K.K.K.K.K.K.",
"K.K.K.K.K.K.K.K.K.K.K.K.K.K.K.K.K.K.K.K.    $   -.0.9.9.9.9.9.9.9.9.1.9.9.9.1.0.H   &   K.K.K.K.K.K.K.K.K.K.K.K.K.K.K.K.K.K.K.K.",
"K.K.K.K.K.K.K.K.K.K.K.K.K.K.K.K.K.K.K.K.    $   -.0.9.9.9.9.9.1.9.9.9.9.9.0.9.0.H   &   K.K.K.K.K.K.K.K.K.K.K.K.K.K.K.K.K.K.K.K.",
"K.K.K.K.K.K.K.K.K.K.K.K.K.K.K.K.K.K.K.K.    $   -.0.1.9.[ A Q A X.0.9.9.9.9.1.0.H   &   K.K.K.K.K.K.K.K.K.K.K.K.K.K.K.K.K.K.K.K.",
"K.K.K.K.K.K.K.K.K.K.K.K.K.K.K.K.K.K.K.K.    $   -.0.9.0.` v V v ;.0.1.9.9.9.9.0.H   *   K.K.K.K.K.K.K.K.K.K.K.K.K.K.K.K.K.K.K.K.",
"K.K.K.K.K.K.K.K.K.K.K.K.K.K.K.K.K.K.K.K.. . &   -.0.9.0.` n A b ,.0.9.9.9.9.9.w.H   * O K.K.K.K.K.K.K.K.K.K.K.K.K.K.K.K.K.K.K.K.",
"K.K.K.K.K.K.K.K.K.K.K.K.K.K.K.K.K.K.K.K.        -.w.9.w.` v B v X.8.8.1.1.9.9.0.H       K.K.K.K.K.K.K.K.K.K.K.K.K.K.K.K.K.K.K.K.",
"K.K.K.K.K.K.K.K.K.K.K.K.K.K.K.K.    @   &.<.>.<.` G Q P ;.1.<.} B.A.S.S.f.+.q.9.<.>.>.1.H   *   K.K.K.K.K.K.K.K.K.K.K.K.K.K.K.K.",
"K.K.K.K.K.K.K.K.K.K.K.K.K.K.K.K.    @   >.0.9.0._ v B v ,.w.q.#.C.H.F.H.g.o.q.9.0.0.0.e.K   *     K.K.K.K.K.K.K.K.K.K.K.K.K.K.K.",
"K.K.K.K.K.K.K.K.K.K.K.K.K.K.K.K.    @   :.0.1.0.` n C n ,.w.q.+.B.G.F.G.g.o.q.9.9.1.1.0.K   *     K.K.K.K.K.K.K.K.K.K.K.K.K.K.K.",
"K.K.K.K.K.K.K.K.K.K.K.K.K.K.K.K.    @   -.0.9.0._ n C n ..8.8.W B.G.D.G.g.o.q.9.9.9.9.0.J   *     K.K.K.K.K.K.K.K.K.K.K.K.K.K.K.",
"K.K.K.K.K.K.K.K.K.K.K.K.K.K.K.K.    @   :.0.9.0._ n G x M.D.A.A.S.G.F.G.g.o.q.9.9.9.9.0.J   *     K.K.K.K.K.K.K.K.K.K.K.K.K.K.K.",
"K.K.K.K.K.K.K.K.K.K.K.K.K.K.K.K.    @   :.0.1.0._ n G x N.H.G.F.F.F.F.H.g.o.q.9.9.9.9.0.J   *     K.K.K.K.K.K.K.K.K.K.K.K.K.K.K.",
"K.K.K.K.K.K.K.K.K.K.K.K.K.K.K.K.    @   -.0.1.0._ n G x n.H.F.F.F.F.F.H.g.o.q.9.9.9.9.0.J   *     K.K.K.K.K.K.K.K.K.K.K.K.K.K.K.",
"K.K.K.K.K.K.K.K.K.K.K.K.K.K.K.K.    @   :.0.9.0._ b G x N.H.F.H.G.F.S.G.g.o.q.9.9.1.9.w.J   *     K.K.K.K.K.K.K.K.K.K.K.K.K.K.K.",
"K.K.K.K.K.K.K.K.K.K.K.K.K.K.K.K.    @   :.0.1.0._ n A v 6.y.t.r.Z.G.S.H.g.o.q.9.9.9.1.0.J   *     K.K.K.K.K.K.K.K.K.K.K.K.K.K.K.",
"K.K.K.K.K.K.K.K.K.K.K.K.K.K.K.K.    @   :.0.9.0._ n A B ..8.8.E B.G.S.H.g.o.q.9.9.9.9.0.J   *     K.K.K.K.K.K.K.K.K.K.K.K.K.K.K.",
"K.K.K.K.K.K.K.K.K.K.K.K.K.K.K.K.    @   -.0.1.0._ n A v 2.w.q.8.C.G.F.G.g.o.9.9.9.9.9.0.J   *     K.K.K.K.K.K.K.K.K.K.K.K.K.K.K.",
"K.K.K.K.K.K.K.K.K.K.K.K.K.K.K.K.    $   :.0.1.0._ n A N ..$.+.E B.G.F.G.g.o.q.9.9.9.9.0.J   *     K.K.K.K.K.K.K.K.K.K.K.K.K.K.K.",
"K.K.K.K.K.K.K.K.K.K.K.K.K.K.K.K.    @   :.w.9.0._ n G c z.A.Z.Z.S.F.F.H.k.o.1.q.9.9.1.0.J   *     K.K.K.K.K.K.K.K.K.K.K.K.K.K.K.",
"K.K.K.K.K.K.K.K.K.K.K.K.K.K.K.K.    @   -.0.1.0._ b G c N.J.G.G.F.F.S.H.k.o.q.9.9.9.9.0.J   *     K.K.K.K.K.K.K.K.K.K.K.K.K.K.K.",
"K.K.K.K.K.K.K.K.K.K.K.K.K.K.K.K.    @   :.0.1.0._ n G c n.F.S.F.F.F.F.H.g.o.q.1.1.9.9.w.J   *     K.K.K.K.K.K.K.K.K.K.K.K.K.K.K.",
"K.K.K.K.K.K.K.K.K.K.K.K.K.K.K.K.    @   :.0.1.0._ b G x N.J.G.G.G.F.F.H.h.$.q.w.0.0.0.w.K   &     K.K.K.K.K.K.K.K.K.K.K.K.K.K.K.",
"K.K.K.K.K.K.K.K.K.K.K.K.K.K.K.K.    @   :.0.9.0._ n A v 7.f.f.t.Z.G.F.H.s.U [ ` ` ` ` ] s   $     K.K.K.K.K.K.K.K.K.K.K.K.K.K.K.",
"K.K.K.K.K.K.K.K.K.K.K.K.K.K.K.K.    @   -.0.1.0._ n A N ..$.+.E B.H.S.H.p.l F b n b n m 6   #     K.K.K.K.K.K.K.K.K.K.K.K.K.K.K.",
"K.K.K.K.K.K.K.K.K.K.K.K.K.K.K.K.    @   :.0.1.0._ n A b ,.w.q.+.C.G.S.H.a.c G A A A V D 9   #     K.K.K.K.K.K.K.K.K.K.K.K.K.K.K.",
"K.K.K.K.K.K.K.K.K.K.K.K.K.K.K.K.    @   :.w.9.0._ n A b ,.0.q.o.C.G.F.H.a.x G V V V B S 9   #     K.K.K.K.K.K.K.K.K.K.K.K.K.K.K.",
"K.K.K.K.K.K.K.K.K.K.K.K.K.K.K.K.    @   -.0.1.0._ n A b ;.0.q.{ B.G.S.H.a.x G V V C B S 9   #     K.K.K.K.K.K.K.K.K.K.K.K.K.K.K.",
"K.K.K.K.K.K.K.K.K.K.K.K.K.K.K.K.    @   :.0.9.0._ n A b ;.0.q.o.B.G.S.J.a.x G V V V B S 9   #     K.K.K.K.K.K.K.K.K.K.K.K.K.K.K.",
"K.K.K.K.K.K.K.K.K.K.K.K.K.K.K.K.    @   :.0.9.0._ n A b ,.0.q.o.B.G.S.H.a.x G V V V B S 9   #     K.K.K.K.K.K.K.K.K.K.K.K.K.K.K.",
"K.K.K.K.K.K.K.K.K.K.K.K.K.K.K.K.    @   :.0.1.0._ n A v 2.w.w.#.C.G.S.H.a.x G V V V B S 9   #     K.K.K.K.K.K.K.K.K.K.K.K.K.K.K.",
"K.K.K.K.K.K.K.K.K.K.K.K.K.K.K.K.    @   :.0.1.0._ n A B _ ' [ Y n.G.F.H.a.x G V V V B S 9   #     K.K.K.K.K.K.K.K.K.K.K.K.K.K.K.",
"K.K.K.K.K.K.K.K.K.K.K.K.K.K.K.K.    @   :.0.9.0._ n V V B b F k b.H.F.H.a.x G V V V B D 9   #     K.K.K.K.K.K.K.K.K.K.K.K.K.K.K.",
"K.K.K.K.K.K.K.K.K.K.K.K.K.K.K.K.    @   :.0.1.0._ n C V V A G x b.G.S.H.a.x G V V V B S 9   #     K.K.K.K.K.K.K.K.K.K.K.K.K.K.K.",
"K.K.K.K.K.K.K.K.K.K.K.K.K.K.K.K.    @   -.0.9.w._ b C V B B G x n.G.F.H.a.x G V V V B S 9   #     K.K.K.K.K.K.K.K.K.K.K.K.K.K.K.",
"K.K.K.K.K.K.K.K.K.K.K.K.K.K.K.K.    @   :.0.9.0._ n C C V V G x b.G.F.H.a.x G V V V B S 9   #     K.K.K.K.K.K.K.K.K.K.K.K.K.K.K.",
"K.K.K.K.K.K.K.K.K.K.K.K.K.K.K.K.    @   :.0.1.0._ n C B V V G x b.H.S.H.a.x G B V V B S 9   #     K.K.K.K.K.K.K.K.K.K.K.K.K.K.K.",
"K.K.K.K.K.K.K.K.K.K.K.K.K.K.K.K.    @   -.0.1.0._ n C V V V G x b.G.F.H.a.x G V V V B S 9   #     K.K.K.K.K.K.K.K.K.K.K.K.K.K.K.",
"K.K.K.K.K.K.K.K.K.K.K.K.K.K.K.K.    @   :.0.9.0._ n B V V V G x b.H.F.H.a.c G V V V B S 9   #     K.K.K.K.K.K.K.K.K.K.K.K.K.K.K.",
"K.K.K.K.K.K.K.K.K.K.K.K.K.K.K.K.    @   :.0.1.0._ n B C V B G x b.H.D.H.a.x G V V V B S 9   #     K.K.K.K.K.K.K.K.K.K.K.K.K.K.K.",
"K.K.K.K.K.K.K.K.K.K.K.K.K.K.K.K.    @   :.0.9.0._ b A B V B G c b.H.F.H.a.x G V V V B S 9   #     K.K.K.K.K.K.K.K.K.K.K.K.K.K.K.",
"K.K.K.K.K.K.K.K.K.K.K.K.K.K.K.K.    @   -.0.1.0.` B A V A A G c b.G.D.H.a.x G B V V B S 9   #     K.K.K.K.K.K.K.K.K.K.K.K.K.K.K.",
"K.K.K.K.K.K.K.K.K.K.K.K.K.K.K.K.    $   :.0.1.0.Q x b b v b F k b.G.F.H.a.c G B V V B D 9   #     K.K.K.K.K.K.K.K.K.K.K.K.K.K.K.",
"K.K.K.K.K.K.K.K.K.K.K.K.K.K.K.K.    @   :.w.1.0.X.]  . .]  .=.T m.G.F.H.a.l G V V V B S 9   #     K.K.K.K.K.K.K.K.K.K.K.K.K.K.K.",
"K.K.K.K.K.K.K.K.K.K.K.K.K.K.K.K.    @   :.0.9.9.0.0.w.w.0.0.w.$.C.G.S.H.a.x G C V V B S 9   #     K.K.K.K.K.K.K.K.K.K.K.K.K.K.K.",
"K.K.K.K.K.K.K.K.K.K.K.K.K.K.K.K.    @   -.0.9.9.9.9.9.1.q.q.q.+.B.G.S.G.a.c G V V B V S 9   #   K.K.K.K.K.K.K.K.K.K.K.K.K.K.K.K.",
"K.K.K.K.K.K.K.K.K.K.K.K.K.K.K.K.    $   <.w.0.0.9.9.9.q.+.{ +.E Z.J.H.J.d.c G C C S C R r   #     K.K.K.K.K.K.K.K.K.K.K.K.K.K.K.",
"K.K.K.K.K.K.K.K.K.K.K.K.K.K.K.K.K.  @   K / ^ L ,.0.q.1.f.l.l.l.j.j.i.c.3.j M M d r r t 5   +   K.K.K.K.K.K.K.K.K.K.K.K.K.K.K.K.",
"K.K.K.K.K.K.K.K.K.K.K.K.K.K.K.K.K.K.K.K.        *.w.q.{ A.H.G.J.4.< 3 1 0 u q u -       K.K.K.K.K.K.K.K.K.K.K.K.K.K.K.K.K.K.K.K.",
"K.K.K.K.K.K.K.K.K.K.K.K.K.K.K.K.K.K.K.K.* * =   -.0.q.o.C.F.S.H.5.0 h f a u i p ,   % # K.K.K.K.K.K.K.K.K.K.K.K.K.K.K.K.K.K.K.K.",
"K.K.K.K.K.K.K.K.K.K.K.K.K.K.K.K.K.K.K.K.    $   -.0.q.o.A.H.G.J.u.3 f u u i u p >   o   K.K.K.K.K.K.K.K.K.K.K.K.K.K.K.K.K.K.K.K.",
"K.K.K.K.K.K.K.K.K.K.K.K.K.K.K.K.K.K.K.K.    $   *.0.q.+.k.B.v.V.3.4 a i u u u p >   X   K.K.K.K.K.K.K.K.K.K.K.K.K.K.K.K.K.K.K.K.",
"K.K.K.K.K.K.K.K.K.K.K.K.K.K.K.K.K.K.K.K.    $   -.w.1.9.+.{ { #.I w i u u u u p >   X   K.K.K.K.K.K.K.K.K.K.K.K.K.K.K.K.K.K.K.K.",
"K.K.K.K.K.K.K.K.K.K.K.K.K.K.K.K.K.K.K.K.    $   -.0.9.9.9.q.q.q.! 0 i u u u u i >   o   K.K.K.K.K.K.K.K.K.K.K.K.K.K.K.K.K.K.K.K.",
"K.K.K.K.K.K.K.K.K.K.K.K.K.K.K.K.K.K.K.K.    $   >.w.0.0.0.0.w.e.~ e p p p p i z ,   o   K.K.K.K.K.K.K.K.K.K.K.K.K.K.K.K.K.K.K.K.",
"K.K.K.K.K.K.K.K.K.K.K.K.K.K.K.K.K.K.K.K.    $   L &.( ( ( ( ( %.g 2 7 7 7 7 7 8 ;   o   K.K.K.K.K.K.K.K.K.K.K.K.K.K.K.K.K.K.K.K.",
"K.K.K.K.K.K.K.K.K.K.K.K.K.K.K.K.K.K.K.K.K.K.K.K.                                K.K.K.K.K.K.K.K.K.K.K.K.K.K.K.K.K.K.K.K.K.K.K.K.",
"K.K.K.K.K.K.K.K.K.K.K.K.K.K.K.K.K.K.K.K.K.K.K.K.& * & & & & & * @ X o o o o X o K.K.K.K.K.K.K.K.K.K.K.K.K.K.K.K.K.K.K.K.K.K.K.K.",
"K.K.K.K.K.K.K.K.K.K.K.K.K.K.K.K.K.K.K.K.K.K.K.K.                                K.K.K.K.K.K.K.K.K.K.K.K.K.K.K.K.K.K.K.K.K.K.K.K."
};
