/* XPM */
static char *result[] = {
/* columns rows colors chars-per-pixel */
"64 64 251 2 ",
"   c black",
".  c #060100",
"X  c #0D0801",
"o  c #0E0801",
"O  c #110400",
"+  c #191102",
"@  c #1A1002",
"#  c #1A1102",
"$  c #1A1103",
"%  c #1A1203",
"&  c #312308",
"*  c #37280C",
"=  c #521B00",
"-  c #452202",
";  c #482403",
":  c #532404",
">  c #572705",
",  c #592604",
"<  c #45320E",
"1  c #48350F",
"2  c #4D3810",
"3  c #4E3810",
"4  c #4E3811",
"5  c #4E3911",
"6  c #4F3911",
"7  c #4E3A11",
"8  c #713702",
"9  c #733C06",
"0  c #733D07",
"q  c #733E08",
"w  c #5D4516",
"e  c #5E4616",
"r  c #644A19",
"t  c #6B511C",
"y  c #71501D",
"u  c #74561D",
"i  c #7C5E21",
"p  c #7C5E24",
"a  c #7F6127",
"s  c #A91500",
"d  c #9F490E",
"f  c #825B1E",
"g  c #AB4400",
"h  c #AE4508",
"j  c #A04C0F",
"k  c #A34D0F",
"l  c #BA5808",
"z  c #A75112",
"x  c #B25413",
"c  c #B75712",
"v  c #B65715",
"b  c #B75A14",
"n  c #BB5913",
"m  c #B3591A",
"M  c #886625",
"N  c #886725",
"B  c #896725",
"V  c #8A6927",
"C  c #B6612E",
"Z  c #D25700",
"A  c #D16200",
"S  c #D46100",
"D  c #D46400",
"F  c #D56400",
"G  c #D66500",
"H  c #D76800",
"J  c #D66900",
"K  c #D76B00",
"L  c #D26C07",
"P  c #D66E08",
"I  c #D66F0C",
"U  c #DF7F00",
"Y  c #D77311",
"T  c #D07215",
"R  c #D37415",
"E  c #D67516",
"W  c #D77616",
"Q  c #D87412",
"!  c #D97615",
"~  c #D97616",
"^  c #D97716",
"/  c #DA7716",
"(  c #D97817",
")  c #DB7816",
"_  c #DA7916",
"`  c #DA7917",
"'  c #D6711E",
"]  c #D7741D",
"[  c #D77818",
"{  c #DA7918",
"}  c #DB7918",
"|  c #DA7A1A",
" . c #DB7C1A",
".. c #D87720",
"X. c #D67824",
"o. c #DA7A22",
"O. c #DA7B23",
"+. c #D97A25",
"@. c #DA7B25",
"#. c #DA7C26",
"$. c #BB6F41",
"%. c #E79202",
"&. c #FFBC00",
"*. c #F2A617",
"=. c #DF862B",
"-. c #D19F3D",
";. c #E7952B",
":. c #E3902C",
">. c #E79834",
",. c #E89933",
"<. c #E99B34",
"1. c #E99C3A",
"2. c #F5AE2F",
"3. c #EBA838",
"4. c #EFA83C",
"5. c #EFAB3F",
"6. c #F5AE31",
"7. c #FEBD32",
"8. c #FFBE33",
"9. c #FFBF33",
"0. c #FEBD38",
"q. c #FFC130",
"w. c #FFC036",
"e. c #FFC338",
"r. c #FFC33D",
"t. c #EBA246",
"y. c #E2AB43",
"u. c #E4AE43",
"i. c #E3AC44",
"p. c #E4AD44",
"a. c #E5AE45",
"s. c #F3AE40",
"d. c #F3AF45",
"f. c #F2AE46",
"g. c #E8B145",
"h. c #E8B246",
"j. c #E9B246",
"k. c #F5B241",
"l. c #F4B143",
"z. c #F5B347",
"x. c #F6B444",
"c. c #F5B34B",
"v. c #F6BC4A",
"b. c #F9BA48",
"n. c #FBBC49",
"m. c #F9BE4B",
"M. c #FBBF4B",
"N. c #E7AC57",
"B. c #F5B759",
"V. c #F5BC6B",
"C. c #E6AD7F",
"Z. c #E6AE7F",
"A. c #FFC343",
"S. c #FDC045",
"D. c #FFC545",
"F. c #FFC447",
"G. c #FFC946",
"H. c #FDC04B",
"J. c #FBC04C",
"K. c #FCC04C",
"L. c #FDC04C",
"P. c #FCC14C",
"I. c #FDC14C",
"U. c #FCC14D",
"Y. c #FEC14C",
"T. c #FFC24C",
"R. c #FEC24D",
"E. c #FFC24D",
"W. c #FEC34D",
"Q. c #FFC34D",
"!. c #FFC44D",
"~. c #FFC64C",
"^. c #FFC44E",
"/. c #FEC54E",
"(. c #FFC54E",
"). c #FFC44F",
"_. c #FFC64E",
"`. c #FFC74E",
"'. c #FFC74F",
"]. c #FFC84F",
"[. c #FEC351",
"{. c #FFC450",
"}. c #FFC452",
"|. c #FFC850",
" X c #FFC950",
".X c #FFCC50",
"XX c #FFC854",
"oX c #FFC65A",
"OX c #FFC85B",
"+X c #FDC660",
"@X c #FDC662",
"#X c #FFCE6D",
"$X c #FFCE6E",
"%X c #FFCF75",
"&X c #E7B080",
"*X c #E8B080",
"=X c #ECB782",
"-X c #F0BF84",
";X c #F5C583",
":X c #FED183",
">X c #FFD283",
",X c #FDD28A",
"<X c #FFD58A",
"1X c #FFD58B",
"2X c #FDD48C",
"3X c #FED58C",
"4X c #F5CC95",
"5X c #FFD893",
"6X c #FFDB95",
"7X c #FFDC9C",
"8X c #EACCA3",
"9X c #E7CCA9",
"0X c #F2D3A9",
"qX c #F4D7AE",
"wX c #F5D8AE",
"eX c #F5D9AF",
"rX c #F5DAB2",
"tX c #F5DEBA",
"yX c #FFE2AA",
"uX c #FEE2AB",
"iX c #FFE5AC",
"pX c #FCE2B2",
"aX c #FFE6B2",
"sX c #FFE7B3",
"dX c #FEE7B6",
"fX c #FFE8B4",
"gX c #FFF1C8",
"hX c #FFF2CB",
"jX c #FFF5CB",
"kX c #FFF5CD",
"lX c #FDF5D1",
"zX c #FFF5D0",
"xX c #FFF5D1",
"cX c #FFF6D1",
"vX c #FFF7D1",
"bX c #FFF6D2",
"nX c #FFF7D4",
"mX c #FFF8D3",
"MX c #FFF8D5",
"NX c #FFF8D6",
"BX c #FFF9D7",
"VX c #FFFBD7",
"CX c #FFFCD7",
"ZX c #FFFDD7",
"AX c #FFFAD9",
"SX c #FFFCD8",
"DX c #FFFDD9",
"FX c #FFFED8",
"GX c #FFFFD8",
"HX c #FFFDDC",
"JX c None",
/* pixels */
"JXJXJXJXJXJXJXJXJXJXJXJXJXJXJXJXJXJXJXJXJXJXJXJXJXJXJXJXJXJXJXJXJXJXJXJXJXJXJXJXJXJXJXJXJXJXJXJXJXJXJXJXJXJXJXJXJXJXJXJXJXJXJXJX",
"JXJXJXJXJXJXJXJXJXJXJXJXJXJXJXJXJXJXJXJXJXJXJXJXJXJXJXJXJXJXJXJXJXJXJXJXJXJXJXJXJXJXJXJXJXJXJXJXJXJXJXJXJXJXJXJXJXJXJXJXJXJXJXJX",
"JXJXJXJXJXJXJXJXJXJXJXJXJXJXJXJXJXJXJXJXJXJXJXJXJXJXJXJXJXJXJXJXJXJXJXJXJXJXJXJXJXJXJXJXJXJXJXJXJXJXJXJXJXJXJXJXJXJXJXJXJXJXJXJX",
"JXJXJXJXJXJXJXJXJXJXJXJXJXJXJXJXJXJXJXJXJXJXJXJXJXJXJXJXJXJXJXJXJXJXJXJXJXJXJXJXJXJXJXJXJXJXJXJXJXJXJXJXJXJXJXJXJXJXJXJXJXJXJXJX",
"JXJXJXJXJXJXJXJXJXJXJXJXJXJXJXJXJXJXJXJXJXJXJXJXJXJXJXJXJXJXJXJXJXJXJXJXJXJXJXJXJXJXJXJXJXJXJXJXJXJXJXJXJXJXJXJXJXJXJXJXJXJXJXJX",
"JXJXJXJXJXJXJXJXJXJXJXJXJXJXJXJXJXJXJXJXJXJXJXJXJXJXJXJXJXJXJXJXJXJXJXJXJXJXJXJXJXJXJXJXJXJXJXJXJXJXJXJXJXJXJXJXJXJXJXJXJXJXJXJX",
"JXJXJXJXJXJXJXJXJXJXJXJXJXJXJXJXJXJXJXJXJXJXJXJXJXJXJXJXJXJXJXJXJXJXJXJXJXJXJXJXJXJXJXJXJXJXJXJXJXJXJXJXJXJXJXJXJXJXJXJXJXJXJXJX",
"JXJXJXJXJXJXJXJXJXJXJXJXJXJXJXJXJXJXJXJXJXJXJXJXJXJXJXJXJXJXJXJXJXJXJXJXJXJXJXJXJXJXJXJXJXJXJXJXJXJXJXJXJXJXJXJXJXJXJXJXJXJXJXJX",
"JXJXJXJXJXJXJXJXJXJXJXJXJXJXJXJXJXJXJXJXJXJXJXJXJXJXJXJXJXJXJXJXJXJXJXJXJXJXJXJXJXJXJXJXJXJXJXJXJXJXJXJXJXJXJXJXJXJXJXJXJXJXJXJX",
"JXJXJXJXJXJXJXJXJXJXJXJXJXJXJXJXJXJXJXJXJXJXJXJXJXJXJXJXJXJXJXJXJXJXJXJXJXJXJXJXJXJXJXJXJXJXJXJXJXJXJXJXJXJXJXJXJXJXJXJXJXJXJXJX",
"JXJXJXJXJXJXJXJXJXJXJXJXJXJXJXJXJXJXJXJXJXJXJXJXJXJXJXJXJXJXJXJXJXJXJXJXJXJXJXJXJXJXJXJXJXJXJXJXJXJXJXJXJXJXJXJXJXJXJXJXJXJXJXJX",
"JXJXJXJXJXJXJXJXJXJXJXJXJXJXJXJXJXJXJXJXJXJXJXJXJXJXJXJXJXJXJXJXJXJXJXJXJXJXJXJXJXJXJXJXJXJXJXJXJXJXJXJXJXJXJXJXJXJXJXJXJXJXJXJX",
"JXJXJXJXJXJXJXJXJXJXJXJXJXJXJXJXJXJXJXJXJXJXJXJXJXJXJXJXJXJXJXJXJXJXJXJXJXJXJXJXJXJXJXJXJXJXJXJXJXJXJXJXJXJXJXJXJXJXJXJXJXJXJXJX",
"JXJXJXJXJXJXJXJXJXJXJXJXJXJXJXJXJXJXJXJXJXJXJXJXJXJXJXJXJXJXJXJXJXJXJXJXJXJXJXJXJXJXJXJXJXJXJXJXJXJXJXJXJXJXJXJXJXJXJXJXJXJXJXJX",
"JXJXJXJXJXJXJXJXJXJXJXJXJXJXJXJXJXJXJXJXJXJXJXJXJXJXJXJXJX+ @ @ @ @ @ # # $ JXJXJXJXJXJXJXJXJXJXJXJXJXJXJXJXJXJXJXJXJXJXJXJXJXJX",
"JXJXJXJXJXJXJXJXJXJXJXJXJXJXJXJXJXJXJXJXJXJXJXJXJXJXJXJXJX                  JXJXJXJXJXJXJXJXJXJXJXJXJXJXJXJXJXJXJXJXJXJXJXJXJXJX",
"JXJXJXJXJXJXJXJXJXJXJXJXJXJXJXJXJXJXJXJXJXJXJXJXJXJXJX  < y.p.i.i.i.i.i.g.-.  X JXJXJXJXJXJXJXJXJXJXJXJXJXJXJXJXJXJXJXJXJXJXJXJX",
"JXJXJXJXJXJXJXJXJXJXJXJXJXJXJXJXJXJXJXJXJXJXJXJXJXJXJX  1 (.'.]. X]._.(..Xj.  o JXJXJXJXJXJXJXJXJXJXJXJXJXJXJXJXJXJXJXJXJXJXJXJX",
"JXJXJXJXJXJXJXJXJXJXJXJXJXJXJXJXJXJXJXJXJXJXJXJXJXJXJX  1 J.E.l.4.x.).U.`.a.  % JXJXJXJXJXJXJXJXJXJXJXJXJXJXJXJXJXJXJXJXJXJXJXJX",
"JXJXJXJXJXJXJXJXJXJXJXJXJXJXJXJXJXJXJXJXJXJXJXJXJXJXJX  & W.(.:.A ;.D.S.|.u.    JXJXJXJXJXJXJXJXJXJXJXJXJXJXJXJXJXJXJXJXJXJXJXJX",
"JXJXJXJXJXJXJXJXJXJXJXJXJXJXJXJXJXJXJXJXJXJXJXJXJXJXJXw u b.n.>. .t.#X+X~.h.e r JXJXJXJXJXJXJXJXJXJXJXJXJXJXJXJXJXJXJXJXJXJXJXJX",
"JXJXJXJXJXJXJXJXJXJXJXJXJXJXJXJXJXJXJXJXJXJXJXJXJX  5 (.T.^ Q k.q.<XAXsX8.}.(.R.B   JXJXJXJXJXJXJXJXJXJXJXJXJXJXJXJXJXJXJXJXJXJX",
"JXJXJXJXJXJXJXJXJXJXJXJXJXJXJXJXJXJXJXJXJXJXJXJXJX  3 W.H.{ ~ B.OX5XNXaX9.[.Q.J.N   JXJXJXJXJXJXJXJXJXJXJXJXJXJXJXJXJXJXJXJXJXJX",
"JXJXJXJXJXJXJXJXJXJXJXJXJXJXJXJXJXJXJXJXJXJXJXJXJX  2 W.L._ ! rXvXhXxXsX9.[.!.K.B   JXJXJXJXJXJXJXJXJXJXJXJXJXJXJXJXJXJXJXJXJXJX",
"JXJXJXJXJXJXJXJXJXJXJXJXJXJXJXJXJXJXJXJXJXJXJXJXJX  2 W.L._ ! wXkXgXcXsX9.[.!.K.B   JXJXJXJXJXJXJXJXJXJXJXJXJXJXJXJXJXJXJXJXJXJX",
"JXJXJXJXJXJXJXJXJXJXJXJXJXJXJXJXJXJXJXJXJXJXJXJXJX  2 W.H.{ ! V.%X7XMXaX9.[.!.K.B   JXJXJXJXJXJXJXJXJXJXJXJXJXJXJXJXJXJXJXJXJXJX",
"JXJXJXJXJXJXJXJXJXJXJXJXJXJXJXJXJXJXJXJXJXJXJXJXJX  2 W.H.{ ! 2.&.>XBXaX9.[.!.K.B   JXJXJXJXJXJXJXJXJXJXJXJXJXJXJXJXJXJXJXJXJXJX",
"JXJXJXJXJXJXJXJXJXJXJXJXJXJXJXJXJXJXJXJXJXJXJXJXJX  2 W.H.` ! ;X6XyXnXaX7.[.Q.M.M   JXJXJXJXJXJXJXJXJXJXJXJXJXJXJXJXJXJXJXJXJXJX",
"JXJXJXJXJXJXJXJXJXJXJXJXJXJXJXJXJXJXJXJXJXJXJXJXJX  2 W.L._ ! tXHXbXzXfXe.XX|./.V   JXJXJXJXJXJXJXJXJXJXJXJXJXJXJXJXJXJXJXJXJXJX",
"JXJXJXJXJXJXJXJXJXJXJXJXJXJXJXJXJXJXJXJXJXJXJXJXJX  2 W.H.` ! 4XiXdXmXpX*.f.s.5.f   JXJXJXJXJXJXJXJXJXJXJXJXJXJXJXJXJXJXJXJXJXJX",
"JXJXJXJXJXJXJXJXJXJXJXJXJXJXJXJXJXJXJXJXJXJXJXJXJX  2 W.H.{ ! 6.&.:XSXqXZ ' P L 8   JXJXJXJXJXJXJXJXJXJXJXJXJXJXJXJXJXJXJXJXJXJX",
"JXJXJXJXJXJXJXJXJXJXJXJXJXJXJXJXJXJXJXJXJXJXJXJXJX  2 W.H.{ ! c.A.3XVXwXH #.} [ q   JXJXJXJXJXJXJXJXJXJXJXJXJXJXJXJXJXJXJXJXJXJX",
"JXJXJXJXJXJXJXJXJXJXJXJXJXJXJXJXJXJXJXJXJXJXJXJXJX  2 W.H.{ ! z.r.1XVXwXG +./ E 9   JXJXJXJXJXJXJXJXJXJXJXJXJXJXJXJXJXJXJXJXJXJX",
"JXJXJXJXJXJXJXJXJXJXJXJXJXJXJXJXJXJXJXJXJXJXJXJXJX  2 W.H.{ ! d.0.,XCXwXG +./ E 9   JXJXJXJXJXJXJXJXJXJXJXJXJXJXJXJXJXJXJXJXJXJX",
"JXJXJXJXJXJXJXJXJXJXJXJXJXJXJXJXJXJXJXJXJXJXJXJXJX  2 W.H.{ ! =.U =XFXqXG +./ E 9   JXJXJXJXJXJXJXJXJXJXJXJXJXJXJXJXJXJXJXJXJXJX",
"JXJXJXJXJXJXJXJXJXJXJXJXJXJXJXJXJXJXJXJXJXJXJXJXJX  2 W.H.{ ! ..F Z.FXqXG +./ E 9   JXJXJXJXJXJXJXJXJXJXJXJXJXJXJXJXJXJXJXJXJXJX",
"JXJXJXJXJXJXJXJXJXJXJXJXJXJXJXJXJXJXJXJXJXJXJXJXJX  2 W.H.{ ! O.K *XFXqXG +./ E 9   JXJXJXJXJXJXJXJXJXJXJXJXJXJXJXJXJXJXJXJXJXJX",
"JXJXJXJXJXJXJXJXJXJXJXJXJXJXJXJXJXJXJXJXJXJXJXJXJX  2 W.H.{ ! o.J &XFXqXG +./ E 9   JXJXJXJXJXJXJXJXJXJXJXJXJXJXJXJXJXJXJXJXJXJX",
"JXJXJXJXJXJXJXJXJXJXJXJXJXJXJXJXJXJXJXJXJXJXJXJXJX  2 W.H.| ( O.K *XFXqXG +./ E 9   JXJXJXJXJXJXJXJXJXJXJXJXJXJXJXJXJXJXJXJXJXJX",
"JXJXJXJXJXJXJXJXJXJXJXJXJXJXJXJXJXJXJXJXJXJXJXJXJX  2 W.H.Y I ] S C.GXqXG +./ E 9   JXJXJXJXJXJXJXJXJXJXJXJXJXJXJXJXJXJXJXJXJXJX",
"JXJXJXJXJXJXJXJXJXJXJXJXJXJXJXJXJXJXJXJXJXJXJXJXJX  4 R.Y.<.,.1.%.-XZXqXG +.^ E 9   JXJXJXJXJXJXJXJXJXJXJXJXJXJXJXJXJXJXJXJXJXJX",
"JXJXJXJXJXJXJXJXJXJXJXJXJXJXJXJXJXJXJXJXJXJXJXJXJX  5 Q.^.!.^.).w.1XSXeXG @.) W 0   JXJXJXJXJXJXJXJXJXJXJXJXJXJXJXJXJXJXJXJXJXJX",
"JXJXJXJXJXJXJXJXJXJXJXJXJXJXJXJXJXJXJXJXJXJXJXJXJX  7 v.m.E.Q.oX{.2XlX0XD X.R T 9   JXJXJXJXJXJXJXJXJXJXJXJXJXJXJXJXJXJXJXJXJXJX",
"JXJXJXJXJXJXJXJXJXJXJXJXJXJXJXJXJXJXJXJXJXJXJXJXJXJXJX6 t I.Q.uXjX8XC $.l z - ; JXJXJXJXJXJXJXJXJXJXJXJXJXJXJXJXJXJXJXJXJXJXJXJX",
"JXJXJXJXJXJXJXJXJXJXJXJXJXJXJXJXJXJXJXJXJXJXJXJXJXJXJX  * P.!.dXDX9Xs x v d     JXJXJXJXJXJXJXJXJXJXJXJXJXJXJXJXJXJXJXJXJXJXJXJX",
"JXJXJXJXJXJXJXJXJXJXJXJXJXJXJXJXJXJXJXJXJXJXJXJXJXJXJX  1 K.Q.@X$XN.g m c j   O JXJXJXJXJXJXJXJXJXJXJXJXJXJXJXJXJXJXJXJXJXJXJXJX",
"JXJXJXJXJXJXJXJXJXJXJXJXJXJXJXJXJXJXJXJXJXJXJXJXJXJXJX  1 ^.'.F.G.3.h b n k   . JXJXJXJXJXJXJXJXJXJXJXJXJXJXJXJXJXJXJXJXJXJXJXJX",
"JXJXJXJXJXJXJXJXJXJXJXJXJXJXJXJXJXJXJXJXJXJXJXJXJXJXJXJXJXi i p a y = > , : JXJXJXJXJXJXJXJXJXJXJXJXJXJXJXJXJXJXJXJXJXJXJXJXJXJX",
"JXJXJXJXJXJXJXJXJXJXJXJXJXJXJXJXJXJXJXJXJXJXJXJXJXJXJXJXJX                  JXJXJXJXJXJXJXJXJXJXJXJXJXJXJXJXJXJXJXJXJXJXJXJXJXJX",
"JXJXJXJXJXJXJXJXJXJXJXJXJXJXJXJXJXJXJXJXJXJXJXJXJXJXJXJXJXJXJXJXJXJXJXJXJXJXJXJXJXJXJXJXJXJXJXJXJXJXJXJXJXJXJXJXJXJXJXJXJXJXJXJX",
"JXJXJXJXJXJXJXJXJXJXJXJXJXJXJXJXJXJXJXJXJXJXJXJXJXJXJXJXJXJXJXJXJXJXJXJXJXJXJXJXJXJXJXJXJXJXJXJXJXJXJXJXJXJXJXJXJXJXJXJXJXJXJXJX",
"JXJXJXJXJXJXJXJXJXJXJXJXJXJXJXJXJXJXJXJXJXJXJXJXJXJXJXJXJXJXJXJXJXJXJXJXJXJXJXJXJXJXJXJXJXJXJXJXJXJXJXJXJXJXJXJXJXJXJXJXJXJXJXJX",
"JXJXJXJXJXJXJXJXJXJXJXJXJXJXJXJXJXJXJXJXJXJXJXJXJXJXJXJXJXJXJXJXJXJXJXJXJXJXJXJXJXJXJXJXJXJXJXJXJXJXJXJXJXJXJXJXJXJXJXJXJXJXJXJX",
"JXJXJXJXJXJXJXJXJXJXJXJXJXJXJXJXJXJXJXJXJXJXJXJXJXJXJXJXJXJXJXJXJXJXJXJXJXJXJXJXJXJXJXJXJXJXJXJXJXJXJXJXJXJXJXJXJXJXJXJXJXJXJXJX",
"JXJXJXJXJXJXJXJXJXJXJXJXJXJXJXJXJXJXJXJXJXJXJXJXJXJXJXJXJXJXJXJXJXJXJXJXJXJXJXJXJXJXJXJXJXJXJXJXJXJXJXJXJXJXJXJXJXJXJXJXJXJXJXJX",
"JXJXJXJXJXJXJXJXJXJXJXJXJXJXJXJXJXJXJXJXJXJXJXJXJXJXJXJXJXJXJXJXJXJXJXJXJXJXJXJXJXJXJXJXJXJXJXJXJXJXJXJXJXJXJXJXJXJXJXJXJXJXJXJX",
"JXJXJXJXJXJXJXJXJXJXJXJXJXJXJXJXJXJXJXJXJXJXJXJXJXJXJXJXJXJXJXJXJXJXJXJXJXJXJXJXJXJXJXJXJXJXJXJXJXJXJXJXJXJXJXJXJXJXJXJXJXJXJXJX",
"JXJXJXJXJXJXJXJXJXJXJXJXJXJXJXJXJXJXJXJXJXJXJXJXJXJXJXJXJXJXJXJXJXJXJXJXJXJXJXJXJXJXJXJXJXJXJXJXJXJXJXJXJXJXJXJXJXJXJXJXJXJXJXJX",
"JXJXJXJXJXJXJXJXJXJXJXJXJXJXJXJXJXJXJXJXJXJXJXJXJXJXJXJXJXJXJXJXJXJXJXJXJXJXJXJXJXJXJXJXJXJXJXJXJXJXJXJXJXJXJXJXJXJXJXJXJXJXJXJX",
"JXJXJXJXJXJXJXJXJXJXJXJXJXJXJXJXJXJXJXJXJXJXJXJXJXJXJXJXJXJXJXJXJXJXJXJXJXJXJXJXJXJXJXJXJXJXJXJXJXJXJXJXJXJXJXJXJXJXJXJXJXJXJXJX",
"JXJXJXJXJXJXJXJXJXJXJXJXJXJXJXJXJXJXJXJXJXJXJXJXJXJXJXJXJXJXJXJXJXJXJXJXJXJXJXJXJXJXJXJXJXJXJXJXJXJXJXJXJXJXJXJXJXJXJXJXJXJXJXJX",
"JXJXJXJXJXJXJXJXJXJXJXJXJXJXJXJXJXJXJXJXJXJXJXJXJXJXJXJXJXJXJXJXJXJXJXJXJXJXJXJXJXJXJXJXJXJXJXJXJXJXJXJXJXJXJXJXJXJXJXJXJXJXJXJX",
"JXJXJXJXJXJXJXJXJXJXJXJXJXJXJXJXJXJXJXJXJXJXJXJXJXJXJXJXJXJXJXJXJXJXJXJXJXJXJXJXJXJXJXJXJXJXJXJXJXJXJXJXJXJXJXJXJXJXJXJXJXJXJXJX",
"JXJXJXJXJXJXJXJXJXJXJXJXJXJXJXJXJXJXJXJXJXJXJXJXJXJXJXJXJXJXJXJXJXJXJXJXJXJXJXJXJXJXJXJXJXJXJXJXJXJXJXJXJXJXJXJXJXJXJXJXJXJXJXJX"
};
