/* XPM */
static char *result[] = {
/* columns rows colors chars-per-pixel */
"64 64 160 2 ",
"   c #000000",
".  c #0F0901",
"X  c #170600",
"o  c #180600",
"O  c #100901",
"+  c #1E0E01",
"@  c #1D1303",
"#  c #200C01",
"$  c #211604",
"%  c #2A1101",
"&  c #261A05",
"*  c #281C05",
"=  c #362609",
"-  c #692B07",
";  c #6D3106",
":  c #773708",
">  c #783708",
",  c #7D3A09",
"<  c #A10000",
"1  c #A91D00",
"2  c #8C3602",
"3  c #AC3300",
"4  c #AC3A00",
"5  c #844609",
"6  c #974D06",
"7  c #92450D",
"8  c #9B480E",
"9  c #99520C",
"0  c #AC4200",
"q  c #AD4F0F",
"w  c #AC450E",
"e  c #B24704",
"r  c #A4590D",
"t  c #B15F0F",
"y  c #AF531A",
"u  c #B35512",
"i  c #B45814",
"p  c #BA5913",
"a  c #B4591C",
"s  c #A2661D",
"d  c #B66111",
"f  c #B55C25",
"g  c #AA6D25",
"h  c #B6612E",
"j  c #C75E00",
"k  c #D25600",
"l  c #D25A00",
"z  c #C25D14",
"x  c #D66400",
"c  c #D86600",
"v  c #D56C05",
"b  c #D66E0A",
"n  c #D6700D",
"m  c #DF740D",
"M  c #CB6C1A",
"N  c #D66F11",
"B  c #D77616",
"V  c #D97716",
"C  c #DA7917",
"Z  c #D6711F",
"A  c #DA7A19",
"S  c #E17C17",
"D  c #E27D19",
"F  c #D77420",
"G  c #DA7B25",
"H  c #AD8331",
"J  c #B58934",
"K  c #B98D35",
"L  c #BF9137",
"P  c #DD811F",
"I  c #D0841E",
"U  c #E28600",
"Y  c #E68E00",
"T  c #EB9900",
"R  c #EB8119",
"E  c #FFBA01",
"W  c #FFBC11",
"Q  c #DF8524",
"!  c #CE8632",
"~  c #D78B31",
"^  c #C39539",
"/  c #CB9A3B",
"(  c #D19F3E",
")  c #E08826",
"_  c #E38E2B",
"`  c #E4912D",
"'  c #E79832",
"]  c #EC9A32",
"[  c #E79839",
"{  c #FFBD2D",
"}  c #FAB62D",
"|  c #ECA037",
" . c #EDA239",
".. c #F5AF32",
"X. c #F2AC3C",
"o. c #FFBE33",
"O. c #F5B038",
"+. c #FFBF3A",
"@. c #FFC42F",
"#. c #FFC335",
"$. c #FFC23C",
"%. c #D5A440",
"&. c #D9A540",
"*. c #DDA941",
"=. c #EDA440",
"-. c #E2AD43",
";. c #F3AE41",
":. c #E7B045",
">. c #EDB547",
",. c #F5B243",
"<. c #F6BC4A",
"1. c #FBBD4C",
"2. c #F5B348",
"3. c #D19566",
"4. c #CB9876",
"5. c #D1A27C",
"6. c #F5BA66",
"7. c #F5BE70",
"8. c #FFC144",
"9. c #FEC44D",
"0. c #FFC84F",
"q. c #FEC452",
"w. c #FFCA51",
"e. c #FFD053",
"r. c #FFCA6B",
"t. c #FFCF79",
"y. c #FFD27A",
"u. c #D0A280",
"i. c #DFBF9D",
"p. c #E7B183",
"a. c #E8B384",
"s. c #EFBE87",
"d. c #ECB889",
"f. c #FFD486",
"g. c #FFD68E",
"h. c #FFD98F",
"j. c #E6C59B",
"k. c #FFD790",
"l. c #FFDA96",
"z. c #F5D09E",
"x. c #FFDC9B",
"c. c #E3C7A3",
"v. c #FEDFA6",
"b. c #F3D5AB",
"n. c #F5D8AF",
"m. c #F9DCAD",
"M. c #F5D3A4",
"N. c #F5DBB4",
"B. c #FFE4AE",
"V. c #FFE8AE",
"C. c #FFE6B1",
"Z. c #FFE8B5",
"A. c #FFEBBB",
"S. c #FEEFC7",
"D. c #FFF1C5",
"F. c #FFF2CB",
"G. c #FFF6D2",
"H. c #FFFAD3",
"J. c #FFFDD9",
"K. c None",
/* pixels */
"K.K.K.K.K.K.K.K.K.K.K.K.K.K.K.K.K.K.K.K.K.K.K.K.                                K.K.K.K.K.K.K.K.K.K.K.K.K.K.K.K.K.K.K.K.K.K.K.K.",
"K.K.K.K.K.K.K.K.K.K.K.K.K.K.K.K.K.K.K.K.K.K.K.K.      .     .           .       K.K.K.K.K.K.K.K.K.K.K.K.K.K.K.K.K.K.K.K.K.K.K.K.",
"K.K.K.K.K.K.K.K.K.K.K.K.K.K.K.K.K.K.K.K.K.K.K.K.                                K.K.K.K.K.K.K.K.K.K.K.K.K.K.K.K.K.K.K.K.K.K.K.K.",
"K.K.K.K.K.K.K.K.K.K.K.K.K.K.K.K.K.K.K.K.K.K.K.K.* $ $ $ $ $ $ $ * $ $ $ $ $ $ * K.K.K.K.K.K.K.K.K.K.K.K.K.K.K.K.K.K.K.K.K.K.K.K.",
"K.K.K.K.K.K.K.K.K.K.K.K.K.K.K.K.K.K.K.K.  *   H 9.<.<.<.1.<.1.<.1.<.<.1.<.<.9.*.  $     K.K.K.K.K.K.K.K.K.K.K.K.K.K.K.K.K.K.K.K.",
"K.K.K.K.K.K.K.K.K.K.K.K.K.K.K.K.K.K.K.K.  *   H w.9.9.9.9.9.9.9.9.9.9.9.9.9.w.-.  $     K.K.K.K.K.K.K.K.K.K.K.K.K.K.K.K.K.K.K.K.",
"K.K.K.K.K.K.K.K.K.K.K.K.K.K.K.K.K.K.K.K.  *   H w.1.9.9.9.9.9.9.9.9.1.9.9.9.9.-.  $     K.K.K.K.K.K.K.K.K.K.K.K.K.K.K.K.K.K.K.K.",
"K.K.K.K.K.K.K.K.K.K.K.K.K.K.K.K.K.K.K.K.  *   H 0.9.9.9.9.9.9.9.9.9.9.9.9.9.w.-.  $     K.K.K.K.K.K.K.K.K.K.K.K.K.K.K.K.K.K.K.K.",
"K.K.K.K.K.K.K.K.K.K.K.K.K.K.K.K.K.K.K.K.  *   H 0.1.9.9.9.9.0.,.C Q A ' 9.9.0.-.  $     K.K.K.K.K.K.K.K.K.K.K.K.K.K.K.K.K.K.K.K.",
"K.K.K.K.K.K.K.K.K.K.K.K.K.K.K.K.K.K.K.K.  *   H w.1.9.9.9.9.9.X.c C v ` 9.9.0.*.  $     K.K.K.K.K.K.K.K.K.K.K.K.K.K.K.K.K.K.K.K.",
"K.K.K.K.K.K.K.K.K.K.K.K.K.K.K.K.K.K.K.K.O *   H 0.9.9.9.9.9.0.,.n A n ` 9.9.w.-.  * . . K.K.K.K.K.K.K.K.K.K.K.K.K.K.K.K.K.K.K.K.",
"K.K.K.K.K.K.K.K.K.K.K.K.K.K.K.K.K.K.K.K.      H 0.9.9.8.8.1.9.X.v C v ` w.9.w.*.        K.K.K.K.K.K.K.K.K.K.K.K.K.K.K.K.K.K.K.K.",
"K.K.K.K.K.K.K.K.K.K.K.K.K.K.K.K.  *   H 9.>.>.<.9.q.#.f.F.A.F.v.} 1.1.,.A Q P ` <.>.<.*.  @     K.K.K.K.K.K.K.K.K.K.K.K.K.K.K.K.",
"K.K.K.K.K.K.K.K.K.K.K.K.K.K.K.    *   K w.9.9.9.9.q.o.k.H.F.G.C.#.q.w.,.v C v _ w.9.w.>.  @     K.K.K.K.K.K.K.K.K.K.K.K.K.K.K.K.",
"K.K.K.K.K.K.K.K.K.K.K.K.K.K.K.    *   J 0.9.9.9.9.q.o.g.G.D.G.C.o.q.q.,.n A n _ q.9.9.-.  @     K.K.K.K.K.K.K.K.K.K.K.K.K.K.K.K.",
"K.K.K.K.K.K.K.K.K.K.K.K.K.K.K.    *   J 0.9.9.9.9.q.o.g.G.F.G.B.W 8.8.O.n C n ` 9.9.0.:.  @     K.K.K.K.K.K.K.K.K.K.K.K.K.K.K.K.",
"K.K.K.K.K.K.K.K.K.K.K.K.K.K.K.    *   J w.9.9.9.1.q.o.g.G.F.G.D.A.A.D.M.x G n _ 9.1.9.:.  @     K.K.K.K.K.K.K.K.K.K.K.K.K.K.K.K.",
"K.K.K.K.K.K.K.K.K.K.K.K.K.K.K.    *   J w.9.1.9.9.q.o.g.G.F.F.F.H.F.H.N.x G n _ 0.9.w.:.  @     K.K.K.K.K.K.K.K.K.K.K.K.K.K.K.K.",
"K.K.K.K.K.K.K.K.K.K.K.K.K.K.K.    *   J 0.9.9.9.9.q.o.g.H.F.F.F.F.D.G.n.x G n _ 0.9.w.:.  @     K.K.K.K.K.K.K.K.K.K.K.K.K.K.K.K.",
"K.K.K.K.K.K.K.K.K.K.K.K.K.K.K.    *   J 0.1.9.9.9.q.o.g.G.F.F.G.G.F.J.N.x G n _ 9.9.9.:.  @     K.K.K.K.K.K.K.K.K.K.K.K.K.K.K.K.",
"K.K.K.K.K.K.K.K.K.K.K.K.K.K.K.    *   J 0.9.9.9.9.q.o.g.G.F.G.Z.r.t.y.6.v A n _ 9.9.9.-.  @     K.K.K.K.K.K.K.K.K.K.K.K.K.K.K.K.",
"K.K.K.K.K.K.K.K.K.K.K.K.K.K.K.    *   J 0.9.9.9.9.q.o.g.G.F.G.B.E 9.8...n A n ` 0.9.w.:.  @     K.K.K.K.K.K.K.K.K.K.K.K.K.K.K.K.",
"K.K.K.K.K.K.K.K.K.K.K.K.K.K.K.    *   J w.8.9.9.9.q.o.g.G.F.G.B.8.q.w.2.c A n _ 9.1.9.:.  @     K.K.K.K.K.K.K.K.K.K.K.K.K.K.K.K.",
"K.K.K.K.K.K.K.K.K.K.K.K.K.K.K.    *   J 0.1.9.9.9.q.o.g.G.F.G.B.E +.#...B A n _ 0.9.w.:.  @     K.K.K.K.K.K.K.K.K.K.K.K.K.K.K.K.",
"K.K.K.K.K.K.K.K.K.K.K.K.K.K.K.    *   J 0.9.9.9.9.q.o.g.G.F.G.F.Z.Z.A.z.v G n Q 9.9.9.:.  @     K.K.K.K.K.K.K.K.K.K.K.K.K.K.K.K.",
"K.K.K.K.K.K.K.K.K.K.K.K.K.K.K.    *   J w.1.9.9.9.q.o.g.H.F.F.F.G.G.H.N.x G n ` 9.9.0.:.  @     K.K.K.K.K.K.K.K.K.K.K.K.K.K.K.K.",
"K.K.K.K.K.K.K.K.K.K.K.K.K.K.K.    *   J w.9.9.9.9.q.o.g.H.F.F.F.F.F.F.N.x G n ` w.9.w.:.  @     K.K.K.K.K.K.K.K.K.K.K.K.K.K.K.K.",
"K.K.K.K.K.K.K.K.K.K.K.K.K.K.K.    *   J e.9.9.0.9.q.#.g.H.F.F.F.G.F.J.N.x G n _ 9.9.9.:.  @     K.K.K.K.K.K.K.K.K.K.K.K.K.K.K.K.",
"K.K.K.K.K.K.K.K.K.K.K.K.K.K.K.    $   s ] ` ` ` ` [ U s.H.F.F.A.t.f.f.7.v A n ` 9.9.0.:.  @     K.K.K.K.K.K.K.K.K.K.K.K.K.K.K.K.",
"K.K.K.K.K.K.K.K.K.K.K.K.K.K.K.    #   6 m b n n n F l p.H.F.G.B.E 8.#...n A n _ 9.9.9.:.  @     K.K.K.K.K.K.K.K.K.K.K.K.K.K.K.K.",
"K.K.K.K.K.K.K.K.K.K.K.K.K.K.K.    #   9 D B A C A G c a.H.S.G.C.o.q.w.2.b A n _ 9.9.9.:.  @     K.K.K.K.K.K.K.K.K.K.K.K.K.K.K.K.",
"K.K.K.K.K.K.K.K.K.K.K.K.K.K.K.    #   9 S B B C B G x a.H.F.G.B.o.q.9.,.b A n _ 9.9.w.:.  @     K.K.K.K.K.K.K.K.K.K.K.K.K.K.K.K.",
"K.K.K.K.K.K.K.K.K.K.K.K.K.K.K.    #   9 S B V V V G x a.H.F.G.B.o.q.0.O.b A n _ 9.9.9.:.  @     K.K.K.K.K.K.K.K.K.K.K.K.K.K.K.K.",
"K.K.K.K.K.K.K.K.K.K.K.K.K.K.K.    #   9 S B V C V G x a.H.S.G.C.o.9.0.,.b A n _ 9.9.0.:.  @     K.K.K.K.K.K.K.K.K.K.K.K.K.K.K.K.",
"K.K.K.K.K.K.K.K.K.K.K.K.K.K.K.    #   9 S B V V V G x a.H.F.G.B.} q.q.,.b A n _ 0.9.0.:.  @     K.K.K.K.K.K.K.K.K.K.K.K.K.K.K.K.",
"K.K.K.K.K.K.K.K.K.K.K.K.K.K.K.    #   8 S B V V V G x a.H.S.G.C.#.w.w.2.b A n _ 9.9.0.:.  @     K.K.K.K.K.K.K.K.K.K.K.K.K.K.K.K.",
"K.K.K.K.K.K.K.K.K.K.K.K.K.K.K.    #   9 S B C V V G x a.H.S.H.n.Y [ ] ` B C n _ 9.9.q.:.  @     K.K.K.K.K.K.K.K.K.K.K.K.K.K.K.K.",
"K.K.K.K.K.K.K.K.K.K.K.K.K.K.K.    #   9 S B C B V G x a.H.F.H.b.l F b n B C n _ 9.9.0.:.  @     K.K.K.K.K.K.K.K.K.K.K.K.K.K.K.K.",
"K.K.K.K.K.K.K.K.K.K.K.K.K.K.K.    #   9 S B B C B G x a.H.S.H.b.x G C C B A n _ 9.9.9.:.  @     K.K.K.K.K.K.K.K.K.K.K.K.K.K.K.K.",
"K.K.K.K.K.K.K.K.K.K.K.K.K.K.K.    #   9 S B C C B G x a.H.S.H.b.x G C B B C n _ 9.9.w.:.  @     K.K.K.K.K.K.K.K.K.K.K.K.K.K.K.K.",
"K.K.K.K.K.K.K.K.K.K.K.K.K.K.K.    #   9 S B B C C G x a.G.S.H.b.x G V V B C n _ 9.1.0.:.  @     K.K.K.K.K.K.K.K.K.K.K.K.K.K.K.K.",
"K.K.K.K.K.K.K.K.K.K.K.K.K.K.K.    #   9 S B C B C G x a.H.S.H.b.x G V V C B n _ w.9.9.:.  @     K.K.K.K.K.K.K.K.K.K.K.K.K.K.K.K.",
"K.K.K.K.K.K.K.K.K.K.K.K.K.K.K.    #   9 S B B B B G x a.H.F.H.b.x G V V B A n _ 9.9.0.:.  @     K.K.K.K.K.K.K.K.K.K.K.K.K.K.K.K.",
"K.K.K.K.K.K.K.K.K.K.K.K.K.K.K.    #   9 S B C C B G x a.H.F.H.b.x G V V B A n _ 9.9.0.:.  @     K.K.K.K.K.K.K.K.K.K.K.K.K.K.K.K.",
"K.K.K.K.K.K.K.K.K.K.K.K.K.K.K.    #   9 S B B C C G c a.H.F.H.b.x G V V V V n _ 0.9.9.:.  @     K.K.K.K.K.K.K.K.K.K.K.K.K.K.K.K.",
"K.K.K.K.K.K.K.K.K.K.K.K.K.K.K.    #   9 S B C C B G x a.H.S.H.b.x G V V V V n _ 9.9.w.:.  @     K.K.K.K.K.K.K.K.K.K.K.K.K.K.K.K.",
"K.K.K.K.K.K.K.K.K.K.K.K.K.K.K.    #   9 S B B C B G x a.H.F.H.b.x G A V V A B _ 9.9.9.:.  @     K.K.K.K.K.K.K.K.K.K.K.K.K.K.K.K.",
"K.K.K.K.K.K.K.K.K.K.K.K.K.K.K.    #   6 S B V C B G x a.H.S.H.b.k Z b b b b x Q 0.9.9.:.  @     K.K.K.K.K.K.K.K.K.K.K.K.K.K.K.K.",
"K.K.K.K.K.K.K.K.K.K.K.K.K.K.K.    #   9 D B C B C G c a.H.F.G.m.T =. . . . .| X.9.9.0.:.  @     K.K.K.K.K.K.K.K.K.K.K.K.K.K.K.K.",
"K.K.K.K.K.K.K.K.K.K.K.K.K.K.K.    #   9 S B B C B G x a.H.F.G.B.#.w.9.q.0.q.w.9.9.9.9.:.  @     K.K.K.K.K.K.K.K.K.K.K.K.K.K.K.K.",
"K.K.K.K.K.K.K.K.K.K.K.K.K.K.K.K.  #   9 S B B B B G x a.H.F.G.C.$.q.q.9.9.9.8.9.9.1.0.:.  @     K.K.K.K.K.K.K.K.K.K.K.K.K.K.K.K.",
"K.K.K.K.K.K.K.K.K.K.K.K.K.K.K.    #   r R C S S C G c d.J.F.J.Z.E +.{ +.9.9.9.9.0.0.w.<.  @     K.K.K.K.K.K.K.K.K.K.K.K.K.K.K.K.",
"K.K.K.K.K.K.K.K.K.K.K.K.K.K.K.K.  +   5 d r r d M M j 3.c.i.i.j.x.l.x.f.1.9.9.<.L ^ / K   @   K.K.K.K.K.K.K.K.K.K.K.K.K.K.K.K.K.",
"K.K.K.K.K.K.K.K.K.K.K.K.K.K.K.K.K.K.K.K.      - p q y 0 1 3 < 4.J.G.H.A.o.9.0.*.        K.K.K.K.K.K.K.K.K.K.K.K.K.K.K.K.K.K.K.K.",
"K.K.K.K.K.K.K.K.K.K.K.K.K.K.K.K.K.K.K.K.# %   > p u u a f f e 5.G.S.G.C.#.q.0.-.  = * * K.K.K.K.K.K.K.K.K.K.K.K.K.K.K.K.K.K.K.K.",
"K.K.K.K.K.K.K.K.K.K.K.K.K.K.K.K.K.K.K.K.  o   > p u u u u f 3 u.H.G.G.A.o.q.0.-.  $     K.K.K.K.K.K.K.K.K.K.K.K.K.K.K.K.K.K.K.K.",
"K.K.K.K.K.K.K.K.K.K.K.K.K.K.K.K.K.K.K.K.  X   > p u u u i a 4 3.C.B.B.k.+.q.9.*.  $     K.K.K.K.K.K.K.K.K.K.K.K.K.K.K.K.K.K.K.K.",
"K.K.K.K.K.K.K.K.K.K.K.K.K.K.K.K.K.K.K.K.  X   > p u u u u i w I @.{ { #.q.9.w.-.  $     K.K.K.K.K.K.K.K.K.K.K.K.K.K.K.K.K.K.K.K.",
"K.K.K.K.K.K.K.K.K.K.K.K.K.K.K.K.K.K.K.K.  o   > p q u u u i 0 ! q.9.q.q.9.9.9.*.  $     K.K.K.K.K.K.K.K.K.K.K.K.K.K.K.K.K.K.K.K.",
"K.K.K.K.K.K.K.K.K.K.K.K.K.K.K.K.K.K.K.K.  o   , z i p p p p e ~ e.0.q.0.0.0.e.>.  $     K.K.K.K.K.K.K.K.K.K.K.K.K.K.K.K.K.K.K.K.",
"K.K.K.K.K.K.K.K.K.K.K.K.K.K.K.K.K.K.K.K.  o   ; 8 7 7 7 7 7 2 g %.( ( ( ( ( &.^   $     K.K.K.K.K.K.K.K.K.K.K.K.K.K.K.K.K.K.K.K.",
"K.K.K.K.K.K.K.K.K.K.K.K.K.K.K.K.K.K.K.K.K.K.K.K.                                K.K.K.K.K.K.K.K.K.K.K.K.K.K.K.K.K.K.K.K.K.K.K.K.",
"K.K.K.K.K.K.K.K.K.K.K.K.K.K.K.K.K.K.K.K.K.K.K.K.o X o X o o X + * * * * * * * * K.K.K.K.K.K.K.K.K.K.K.K.K.K.K.K.K.K.K.K.K.K.K.K.",
"K.K.K.K.K.K.K.K.K.K.K.K.K.K.K.K.K.K.K.K.K.K.K.K.                                K.K.K.K.K.K.K.K.K.K.K.K.K.K.K.K.K.K.K.K.K.K.K.K."
};
