/* XPM */
static char *result[] = {
/* columns rows colors chars-per-pixel */
"64 64 159 2 ",
"   c black",
".  c #100A01",
"X  c #1C1203",
"o  c #241303",
"O  c #281001",
"+  c #251B04",
"@  c #351901",
"#  c #312407",
"$  c #3B290B",
"%  c #411A02",
"&  c #562404",
"*  c #572906",
"=  c #45330C",
"-  c #48350F",
";  c #773608",
":  c #743E10",
">  c #584115",
",  c #654B18",
"<  c #765621",
"1  c #7D5F25",
"2  c #7E6126",
"3  c #8A4806",
"4  c #98550F",
"5  c #96530F",
"6  c #8A4C14",
"7  c #9A5611",
"8  c #B74A07",
"9  c #B14D0B",
"0  c #B55D0A",
"q  c #B96514",
"w  c #B56513",
"e  c #846324",
"r  c #8F6B27",
"t  c #816229",
"y  c #9C772D",
"u  c #BE6C24",
"i  c #AA7E2F",
"p  c #A47B2E",
"a  c #BD7928",
"s  c #A77D30",
"d  c #CE5700",
"f  c #D05F00",
"g  c #D36500",
"h  c #D56A01",
"j  c #D66E0B",
"k  c #D96F09",
"l  c #DB6902",
"z  c #D77106",
"x  c #D87305",
"c  c #D6710D",
"v  c #DB720A",
"b  c #C16B15",
"n  c #D77210",
"m  c #D87513",
"M  c #DA7917",
"N  c #DB7D1A",
"B  c #E4750A",
"V  c #C77826",
"C  c #D7772B",
"Z  c #DB7F30",
"A  c #A8802F",
"S  c #AC8231",
"D  c #B28633",
"F  c #B78C35",
"G  c #DD801E",
"H  c #DD8113",
"J  c #E08615",
"K  c #DE8424",
"L  c #DF8728",
"P  c #CC8437",
"I  c #DB8131",
"U  c #C19338",
"Y  c #C7983A",
"T  c #CD9234",
"R  c #DF9F3A",
"E  c #E28A24",
"W  c #E08728",
"Q  c #E28B29",
"!  c #E79426",
"~  c #E89723",
"^  c #E5932D",
"/  c #EC9A28",
"(  c #E59432",
")  c #E99C35",
"_  c #E5993A",
"`  c #E99E3C",
"'  c #E39833",
"]  c #D6A33F",
"[  c #DAA53F",
"{  c #F6B02D",
"}  c #FFBE2F",
"|  c #ECA23C",
" . c #EFAA3F",
".. c #F1AA3D",
"X. c #FFBE31",
"o. c #FEBE3D",
"O. c #F3B13C",
"+. c #FFC110",
"@. c #FFC22D",
"#. c #FFC335",
"$. c #FFC937",
"%. c #FFC13C",
"&. c #E79B46",
"*. c #DBA640",
"=. c #DAA841",
"-. c #EFA440",
";. c #E3AC44",
":. c #F3AD41",
">. c #E9B246",
",. c #F5B244",
"<. c #FEBE44",
"1. c #F5B44C",
"2. c #F8B74A",
"3. c #F1B94A",
"4. c #FBBD4A",
"5. c #E7A25D",
"6. c #EFAE58",
"7. c #F2B050",
"8. c #F1B95F",
"9. c #F1B668",
"0. c #F4B763",
"q. c #E7AD7C",
"w. c #FFC344",
"e. c #FFC946",
"r. c #FFC34C",
"t. c #FFC84D",
"y. c #FFC452",
"u. c #FFCA51",
"i. c #FFC65D",
"p. c #FFC95A",
"a. c #FFD354",
"s. c #FFC964",
"d. c #FECA6B",
"f. c #FDC561",
"g. c #FECC74",
"h. c #FFCF7A",
"j. c #FFD076",
"k. c #FFD07C",
"l. c #E7B081",
"z. c #FFD383",
"x. c #FFD68C",
"c. c #FED691",
"v. c #FFD994",
"b. c #FCD799",
"n. c #FFDC9B",
"m. c #F7DEB4",
"M. c #FEE0A7",
"N. c #FFE3AB",
"B. c #FDE5B5",
"V. c #FFE8B6",
"C. c #FFEBBB",
"Z. c #FFEFC4",
"A. c #FFF0C7",
"S. c #FFF3CB",
"D. c #FFF6D1",
"F. c #FFF9D6",
"G. c #FFFADA",
"H. c #FFFFE3",
"J. c None",
/* pixels */
"J.J.J.J.J.J.J.J.J.J.J.J.J.J.J.J.J.J.J.J.J.J.J.J.J.J.J.J.J.J.J.J.J.J.J.J.J.J.J.J.J.J.J.J.J.J.J.J.J.J.J.J.J.J.J.J.J.J.J.J.J.J.J.J.",
"J.J.J.J.J.J.J.J.J.J.J.J.J.J.J.J.J.J.J.J.J.J.J.J.J.J.J.J.J.J.J.J.J.J.J.J.J.J.J.J.J.J.J.J.J.J.J.J.J.J.J.J.J.J.J.J.J.J.J.J.J.J.J.J.",
"J.J.J.J.J.J.J.J.J.J.J.J.J.J.J.J.J.J.J.J.J.J.J.J.J.J.J.J.J.J.J.J.J.J.J.J.J.J.J.J.J.J.J.J.J.J.J.J.J.J.J.J.J.J.J.J.J.J.J.J.J.J.J.J.",
"J.J.J.J.J.J.J.J.J.J.J.J.J.J.J.J.J.J.J.J.J.J.J.J.J.J.J.J.J.J.J.J.J.J.J.J.J.J.J.J.J.J.J.J.J.J.J.J.J.J.J.J.J.J.J.J.J.J.J.J.J.J.J.J.",
"J.J.J.J.J.J.J.J.J.J.J.J.J.J.J.J.J.J.J.J.J.J.J.J.J.J.J.J.J.J.J.J.J.J.J.J.J.J.J.J.J.J.J.J.J.J.J.J.J.J.J.J.J.J.J.J.J.J.J.J.J.J.J.J.",
"J.J.J.J.J.J.J.J.J.J.J.J.J.J.J.J.J.J.J.J.J.J.J.J.J.J.J.J.J.J.J.J.J.J.J.J.J.J.J.J.J.J.J.J.J.J.J.J.J.J.J.J.J.J.J.J.J.J.J.J.J.J.J.J.",
"J.J.J.J.J.J.J.J.J.J.J.J.J.J.J.J.J.J.J.J.J.J.J.J.J.J.J.J.J.J.J.J.J.J.J.J.J.J.J.J.J.J.J.J.J.J.J.J.J.J.J.J.J.J.J.J.J.J.J.J.J.J.J.J.",
"J.J.J.J.J.J.J.J.J.J.J.J.J.J.J.J.J.J.J.J.J.J.J.J.J.J.J.J.J.J.J.J.J.J.J.J.J.J.J.J.J.J.J.J.J.J.J.J.J.J.J.J.J.J.J.J.J.J.J.J.J.J.J.J.",
"J.J.J.J.J.J.J.J.J.J.J.J.J.J.J.J.J.J.J.J.J.J.J.J.J.J.J.J.J.J.J.J.J.J.J.J.J.J.J.J.J.J.J.J.J.J.J.J.J.J.J.J.J.J.J.J.J.J.J.J.J.J.J.J.",
"J.J.J.J.J.J.J.J.J.J.J.J.J.J.J.J.J.J.J.J.J.J.J.J.J.J.J.J.J.J.J.J.J.J.J.J.J.J.J.J.J.J.J.J.J.J.J.J.J.J.J.J.J.J.J.J.J.J.J.J.J.J.J.J.",
"J.J.J.J.J.J.J.J.J.J.J.J.J.J.J.J.J.J.J.J.J.J.J.J.J.J.J.J.J.J.J.J.J.J.J.J.J.J.J.J.J.J.J.J.J.J.J.J.J.J.J.J.J.J.J.J.J.J.J.J.J.J.J.J.",
"J.J.J.J.J.J.J.J.J.J.J.J.J.J.J.J.J.J.J.J.J.J.J.J.J.J.J.J.J.J.J.J.J.J.J.J.J.J.J.J.J.J.J.J.J.J.J.J.J.J.J.J.J.J.J.J.J.J.J.J.J.J.J.J.",
"J.J.J.J.J.J.J.J.J.J.J.J.J.J.J.J.J.J.J.J.J.J.J.J.J.J.J.J.J.J.J.J.J.J.J.J.J.J.J.J.J.J.J.J.J.J.J.J.J.J.J.J.J.J.J.J.J.J.J.J.J.J.J.J.",
"J.J.J.J.J.J.J.J.J.J.J.J.J.J.J.J.J.J.J.J.J.J.J.J.J.J.J.J.J.J.J.J.J.J.J.J.J.J.J.J.J.J.J.J.J.J.J.J.J.J.J.J.J.J.J.J.J.J.J.J.J.J.J.J.",
"J.J.J.J.J.J.J.J.J.J.J.J.J.J.J.J.J.J.J.J.J.J.J.J.J.X X X X X X X X X X X X X J.J.J.J.J.J.J.J.J.J.J.J.J.J.J.J.J.J.J.J.J.J.J.J.J.J.",
"J.J.J.J.J.J.J.J.J.J.J.J.J.J.J.J.J.J.J.J.J.J.J.J.J.                          J.J.J.J.J.J.J.J.J.J.J.J.J.J.J.J.J.J.J.J.J.J.J.J.J.J.",
"J.J.J.J.J.J.J.J.J.J.J.J.J.J.J.J.J.J.J.J.J.J.J.  > ;.;.;.;.;.;.;.;.;.;.;.;.;.e   J.J.J.J.J.J.J.J.J.J.J.J.J.J.J.J.J.J.J.J.J.J.J.J.",
"J.J.J.J.J.J.J.J.J.J.J.J.J.J.J.J.J.J.J.J.J.J.J.  = r.t.u.u.u.u.u.u.u.t.t.r.r.2   J.J.J.J.J.J.J.J.J.J.J.J.J.J.J.J.J.J.J.J.J.J.J.J.",
"J.J.J.J.J.J.J.J.J.J.J.J.J.J.J.J.J.J.J.J.J.J.e A D .. ....... ... ... .,.t.r.F D r J.J.J.J.J.J.J.J.J.J.J.J.J.J.J.J.J.J.J.J.J.J.J.",
"J.J.J.J.J.J.J.J.J.J.J.J.J.J.J.J.J.J.J.J.    y u.r.c c c j j c j j c h K w.<.t.u.S   J.J.J.J.J.J.J.J.J.J.J.J.J.J.J.J.J.J.J.J.J.J.",
"J.J.J.J.J.J.J.J.J.J.J.J.J.J.J.J.J.J.J.J., > i 4.2.K K K K L K K K K N ) d.s.y.t.F - , J.J.J.J.J.J.J.J.J.J.J.J.J.J.J.J.J.J.J.J.J.",
"J.J.J.J.J.J.J.J.J.J.J.J.J.J.J.J.J.J.X   =.u.O.c G e.r.w.r.w.w.r.t.y.w.h.S.S.h.w.y.u.F   # J.J.J.J.J.J.J.J.J.J.J.J.J.J.J.J.J.J.J.",
"J.J.J.J.J.J.J.J.J.J.J.J.J.J.J.J.J.J.+   *.t.:.n C r.y.s.s.s.s.i.r.y.o.h.S.S.h.w.y.u.F   # J.J.J.J.J.J.J.J.J.J.J.J.J.J.J.J.J.J.J.",
"J.J.J.J.J.J.J.J.J.J.J.J.J.J.J.J.J.J..   *.u.:.c K w.i.S.S.S.D.N.X.y.o.k.S.A.h.o.r.u.D   + J.J.J.J.J.J.J.J.J.J.J.J.J.J.J.J.J.J.J.",
"J.J.J.J.J.J.J.J.J.J.J.J.J.J.J.J.J.J.$   *.t.:.m K r.i.S.S.S.S.N.X.y.%.k.S.A.k.r.y.y.F   = J.J.J.J.J.J.J.J.J.J.J.J.J.J.J.J.J.J.J.",
"J.J.J.J.J.J.J.J.J.J.J.J.J.J.J.J.o   =.>.' L ) 2.2.r.s.S.S.v.h.0.H | y.i.h.k.N.Z.z.#.3.>.Y     J.J.J.J.J.J.J.J.J.J.J.J.J.J.J.J.J.",
"J.J.J.J.J.J.J.J.J.J.J.J.J.J.J.J.X   >.u.^ h ! %.%.X.y.S.S.h.#...d E #.o.w.y.V.G.v.X.y.u.=.    J.J.J.J.J.J.J.J.J.J.J.J.J.J.J.J.J.",
"J.J.J.J.J.J.J.J.J.J.J.J.J.J.J.J.X   >.u.^ h 5.n.v.c.n.S.S.z.w.2.~ 0.n.x.4.y.V.F.c.X.y.t.*.    J.J.J.J.J.J.J.J.J.J.J.J.J.J.J.J.J.",
"J.J.J.J.J.J.J.J.J.J.J.J.J.J.J.J.X   >.u.' h l.F.D.G.G.D.D.z.<.y.#.x.H.Z.w.p.V.F.v.X.y.u.=.    J.J.J.J.J.J.J.J.J.J.J.J.J.J.J.J.J.",
"J.J.J.J.J.J.J.J.J.J.J.J.J.J.J.J.+   >.u.( h q.S.S.N.N.N.N.g.<.y.%.g.V.b...1.V.F.v.X.2.:.T     J.J.J.J.J.J.J.J.J.J.J.J.J.J.J.J.J.",
"J.J.J.J.J.J.J.J.J.J.J.J.J.J.J.J.X   >.u.( h q.D.Z.} } } X.w.y.r.y.w.@.{ h C m.F.c.#.` h 0     J.J.J.J.J.J.J.J.J.J.J.J.J.J.J.J.J.",
"J.J.J.J.J.J.J.J.J.J.J.J.J.J.J.J.X   >.u.( h q.D.Z.y.r.y.y.t.r.r.r.r.y.2.x I m.F.c.#.` v q     J.J.J.J.J.J.J.J.J.J.J.J.J.J.J.J.J.",
"J.J.J.J.J.J.J.J.J.J.J.J.J.J.J.J.X   >.u.( h q.D.Z.t.r.r.r.r.r.r.r.r.y.,.x Z m.F.c.#.` k q     J.J.J.J.J.J.J.J.J.J.J.J.J.J.J.J.J.",
"J.J.J.J.J.J.J.J.J.J.J.J.J.J.J.J.X   >.u.( h q.S.Z.4.4.t.r.r.r.r.4.4.r.,.x I m.F.c.#.| k q     J.J.J.J.J.J.J.J.J.J.J.J.J.J.J.J.J.",
"J.J.J.J.J.J.J.J.J.J.J.J.J.J.J.J.X   >.u.^ h &.h.d.W Q y.y.4.t.,.K L Q L v I m.G.c.#.` k q     J.J.J.J.J.J.J.J.J.J.J.J.J.J.J.J.J.",
"J.J.J.J.J.J.J.J.J.J.J.J.J.J.J.J.X   >.t.^ j ! w.o.g z } } r.y...h n h j h C m.F.c.#.` v w     J.J.J.J.J.J.J.J.J.J.J.J.J.J.J.J.J.",
"J.J.J.J.J.J.J.J.J.J.J.J.J.J.J.J.X   >.u.^ k ) t.4...1.M.N.d.r...h L ,.:.,.7.B.F.c.#.` v w     J.J.J.J.J.J.J.J.J.J.J.J.J.J.J.J.J.",
"J.J.J.J.J.J.J.J.J.J.J.J.J.J.J.J.o   3.a.^ f ( y.y.t.s.G.F.x.e.,.g ' u.r.@.w.C.G.v.$.-.B b     J.J.J.J.J.J.J.J.J.J.J.J.J.J.J.J.J.",
"J.J.J.J.J.J.J.J.J.J.J.J.J.J.J.J.J.J.p S [ ..| ) ) r.y.x.c.6./ ^ j ' e.d.N.M.v.v.9./ a 3 3 J.J.J.J.J.J.J.J.J.J.J.J.J.J.J.J.J.J.J.",
"J.J.J.J.J.J.J.J.J.J.J.J.J.J.J.J.J.J.    =.u.:.h M r.r.X.#.H g h g ( %.k.F.D.g.+.! l 3     J.J.J.J.J.J.J.J.J.J.J.J.J.J.J.J.J.J.J.",
"J.J.J.J.J.J.J.J.J.J.J.J.J.J.J.J.J.J.#   *.u.:.n K r.r.y.y. .) ) ( :.w.h.S.S.h.r.` B 7   @ J.J.J.J.J.J.J.J.J.J.J.J.J.J.J.J.J.J.J.",
"J.J.J.J.J.J.J.J.J.J.J.J.J.J.J.J.J.J.+   *.u.:.c N r.r.r.4.r.r.r.t.r.X.h.S.A.h.w.` v 4   O J.J.J.J.J.J.J.J.J.J.J.J.J.J.J.J.J.J.J.",
"J.J.J.J.J.J.J.J.J.J.J.J.J.J.J.J.J.J.X   ] r.:.M L i.i.p.i.i.i.i.i.i.y.z.S.Z.g.w._ v 5   O J.J.J.J.J.J.J.J.J.J.J.J.J.J.J.J.J.J.J.",
"J.J.J.J.J.J.J.J.J.J.J.J.J.J.J.J.J.J.J.J.> - s <.i.Z.A.A.Z.Z.Z.Z.Z.Z.A.B.f.f.P q 6 @ J.J.J.J.J.J.J.J.J.J.J.J.J.J.J.J.J.J.J.J.J.J.",
"J.J.J.J.J.J.J.J.J.J.J.J.J.J.J.J.J.J.J.J.    y e.s.D.D.S.D.D.S.D.D.S.F.C.w.w.V 8 ;   J.J.J.J.J.J.J.J.J.J.J.J.J.J.J.J.J.J.J.J.J.J.",
"J.J.J.J.J.J.J.J.J.J.J.J.J.J.J.J.J.J.J.J.J.J.J., t s.d.d.d.d.d.d.d.d.d.8.u u : % J.J.J.J.J.J.J.J.J.J.J.J.J.J.J.J.J.J.J.J.J.J.J.J.",
"J.J.J.J.J.J.J.J.J.J.J.J.J.J.J.J.J.J.J.J.J.J.J.  = w.w.w.w.w.w.w.w.w.r.O.9 9 &   J.J.J.J.J.J.J.J.J.J.J.J.J.J.J.J.J.J.J.J.J.J.J.J.",
"J.J.J.J.J.J.J.J.J.J.J.J.J.J.J.J.J.J.J.J.J.J.J.J.J.1 2 2 2 2 1 1 1 1 2 < & * J.J.J.J.J.J.J.J.J.J.J.J.J.J.J.J.J.J.J.J.J.J.J.J.J.J.",
"J.J.J.J.J.J.J.J.J.J.J.J.J.J.J.J.J.J.J.J.J.J.J.J.J.                          J.J.J.J.J.J.J.J.J.J.J.J.J.J.J.J.J.J.J.J.J.J.J.J.J.J.",
"J.J.J.J.J.J.J.J.J.J.J.J.J.J.J.J.J.J.J.J.J.J.J.J.J.J.J.J.J.J.J.J.J.J.J.J.J.J.J.J.J.J.J.J.J.J.J.J.J.J.J.J.J.J.J.J.J.J.J.J.J.J.J.J.",
"J.J.J.J.J.J.J.J.J.J.J.J.J.J.J.J.J.J.J.J.J.J.J.J.J.J.J.J.J.J.J.J.J.J.J.J.J.J.J.J.J.J.J.J.J.J.J.J.J.J.J.J.J.J.J.J.J.J.J.J.J.J.J.J.",
"J.J.J.J.J.J.J.J.J.J.J.J.J.J.J.J.J.J.J.J.J.J.J.J.J.J.J.J.J.J.J.J.J.J.J.J.J.J.J.J.J.J.J.J.J.J.J.J.J.J.J.J.J.J.J.J.J.J.J.J.J.J.J.J.",
"J.J.J.J.J.J.J.J.J.J.J.J.J.J.J.J.J.J.J.J.J.J.J.J.J.J.J.J.J.J.J.J.J.J.J.J.J.J.J.J.J.J.J.J.J.J.J.J.J.J.J.J.J.J.J.J.J.J.J.J.J.J.J.J.",
"J.J.J.J.J.J.J.J.J.J.J.J.J.J.J.J.J.J.J.J.J.J.J.J.J.J.J.J.J.J.J.J.J.J.J.J.J.J.J.J.J.J.J.J.J.J.J.J.J.J.J.J.J.J.J.J.J.J.J.J.J.J.J.J.",
"J.J.J.J.J.J.J.J.J.J.J.J.J.J.J.J.J.J.J.J.J.J.J.J.J.J.J.J.J.J.J.J.J.J.J.J.J.J.J.J.J.J.J.J.J.J.J.J.J.J.J.J.J.J.J.J.J.J.J.J.J.J.J.J.",
"J.J.J.J.J.J.J.J.J.J.J.J.J.J.J.J.J.J.J.J.J.J.J.J.J.J.J.J.J.J.J.J.J.J.J.J.J.J.J.J.J.J.J.J.J.J.J.J.J.J.J.J.J.J.J.J.J.J.J.J.J.J.J.J.",
"J.J.J.J.J.J.J.J.J.J.J.J.J.J.J.J.J.J.J.J.J.J.J.J.J.J.J.J.J.J.J.J.J.J.J.J.J.J.J.J.J.J.J.J.J.J.J.J.J.J.J.J.J.J.J.J.J.J.J.J.J.J.J.J.",
"J.J.J.J.J.J.J.J.J.J.J.J.J.J.J.J.J.J.J.J.J.J.J.J.J.J.J.J.J.J.J.J.J.J.J.J.J.J.J.J.J.J.J.J.J.J.J.J.J.J.J.J.J.J.J.J.J.J.J.J.J.J.J.J.",
"J.J.J.J.J.J.J.J.J.J.J.J.J.J.J.J.J.J.J.J.J.J.J.J.J.J.J.J.J.J.J.J.J.J.J.J.J.J.J.J.J.J.J.J.J.J.J.J.J.J.J.J.J.J.J.J.J.J.J.J.J.J.J.J.",
"J.J.J.J.J.J.J.J.J.J.J.J.J.J.J.J.J.J.J.J.J.J.J.J.J.J.J.J.J.J.J.J.J.J.J.J.J.J.J.J.J.J.J.J.J.J.J.J.J.J.J.J.J.J.J.J.J.J.J.J.J.J.J.J.",
"J.J.J.J.J.J.J.J.J.J.J.J.J.J.J.J.J.J.J.J.J.J.J.J.J.J.J.J.J.J.J.J.J.J.J.J.J.J.J.J.J.J.J.J.J.J.J.J.J.J.J.J.J.J.J.J.J.J.J.J.J.J.J.J.",
"J.J.J.J.J.J.J.J.J.J.J.J.J.J.J.J.J.J.J.J.J.J.J.J.J.J.J.J.J.J.J.J.J.J.J.J.J.J.J.J.J.J.J.J.J.J.J.J.J.J.J.J.J.J.J.J.J.J.J.J.J.J.J.J.",
"J.J.J.J.J.J.J.J.J.J.J.J.J.J.J.J.J.J.J.J.J.J.J.J.J.J.J.J.J.J.J.J.J.J.J.J.J.J.J.J.J.J.J.J.J.J.J.J.J.J.J.J.J.J.J.J.J.J.J.J.J.J.J.J.",
"J.J.J.J.J.J.J.J.J.J.J.J.J.J.J.J.J.J.J.J.J.J.J.J.J.J.J.J.J.J.J.J.J.J.J.J.J.J.J.J.J.J.J.J.J.J.J.J.J.J.J.J.J.J.J.J.J.J.J.J.J.J.J.J."
};
