/* XPM */
static char *result[] = {
/* columns rows colors chars-per-pixel */
"64 64 180 2 ",
"   c #000000",
".  c #0F0702",
"X  c #0E0801",
"o  c #190700",
"O  c #130B01",
"+  c #1C0E01",
"@  c #160300",
"#  c #1D1303",
"$  c #210C01",
"%  c #211604",
"&  c #271B05",
"*  c #281C05",
"=  c #2C1201",
"-  c #301501",
";  c #2D2006",
":  c #302307",
">  c #332508",
",  c #722400",
"<  c #723308",
"1  c #9F1800",
"2  c #A01C00",
"3  c #822E00",
"4  c #833D0B",
"5  c #8B3401",
"6  c #8D430D",
"7  c #8B4A0A",
"8  c #8B4407",
"9  c #95470E",
"0  c #9D4B09",
"q  c #9F5003",
"w  c #9B550E",
"e  c #AB4502",
"r  c #B14300",
"t  c #A65A0E",
"y  c #AC5D0F",
"u  c #A7570A",
"i  c #B05F0F",
"p  c #AB5D10",
"a  c #A65C10",
"s  c #B45B17",
"d  c #BA5C16",
"f  c #B76310",
"g  c #B67627",
"h  c #D25500",
"j  c #C25D14",
"k  c #D36400",
"l  c #D56C05",
"z  c #D66E09",
"x  c #D77000",
"c  c #D7710D",
"v  c #DE720A",
"b  c #DE7207",
"n  c #D77311",
"m  c #D87413",
"M  c #DA7817",
"N  c #D67718",
"B  c #DA7A1A",
"V  c #E17B17",
"C  c #E17D1A",
"Z  c #D67220",
"A  c #DB7D29",
"S  c #D97925",
"D  c #B28733",
"F  c #B58934",
"G  c #BA8E35",
"H  c #BF9138",
"J  c #BD9036",
"K  c #DE831B",
"L  c #D58A1C",
"P  c #E28400",
"I  c #EA8118",
"U  c #E28B1A",
"Y  c #EA991F",
"T  c #EFA000",
"R  c #FFB700",
"E  c #FFB900",
"W  c #FFBC1C",
"Q  c #CA832B",
"!  c #DE8322",
"~  c #C7952B",
"^  c #DE9621",
"/  c #C39439",
"(  c #CA9A3B",
")  c #D69138",
"_  c #D19F3E",
"`  c #DC9638",
"'  c #E08926",
"]  c #E28D2A",
"[  c #E69326",
"{  c #EB9C24",
"}  c #E4922D",
"|  c #E79A26",
" . c #E69531",
".. c #ED9730",
"X. c #E69B35",
"o. c #E99B34",
"O. c #E19C3C",
"+. c #E89A39",
"@. c #D1A03D",
"#. c #EAA729",
"$. c #F6AE27",
"%. c #F6AF28",
"&. c #F1A72C",
"*. c #F7B12A",
"=. c #FAB62D",
"-. c #FFBE2D",
";. c #EBA037",
":. c #EEA43A",
">. c #E5A23D",
",. c #F0A737",
"<. c #F1A53A",
"1. c #F1AA3E",
"2. c #FFBF36",
"3. c #FFBF39",
"4. c #F9B633",
"5. c #FFC22F",
"6. c #FFC332",
"7. c #FFC13C",
"8. c #D6A540",
"9. c #D8A540",
"0. c #DEA942",
"q. c #E4AE44",
"w. c #EAA840",
"e. c #E8A447",
"r. c #F2AD42",
"t. c #E7B045",
"y. c #EDB547",
"u. c #EEB748",
"i. c #E6B149",
"p. c #F6B344",
"a. c #F8B746",
"s. c #F9B947",
"d. c #F2B748",
"f. c #F5BB49",
"g. c #FABC49",
"h. c #EDA850",
"j. c #F0B05D",
"k. c #F1B360",
"l. c #EFBF79",
"z. c #FFC143",
"x. c #FFC34D",
"c. c #FFC94F",
"v. c #FEC452",
"b. c #FFC951",
"n. c #FFC95A",
"m. c #FFD053",
"M. c #FFC760",
"N. c #FFCB6C",
"B. c #FFCD75",
"V. c #F0C078",
"C. c #FFCF78",
"Z. c #F6C176",
"A. c #FFD17C",
"S. c #F9CA83",
"D. c #FFD384",
"F. c #FED48B",
"G. c #EEC69B",
"H. c #F3CE9D",
"J. c #FDD694",
"K. c #FFD994",
"L. c #FAD69C",
"P. c #FFDC9B",
"I. c #F6D599",
"U. c #FFE09E",
"Y. c #FFDFA2",
"T. c #F9DBA9",
"R. c #FFE1A5",
"E. c #FFE2A9",
"W. c #FFE6B3",
"Q. c #FFE8B7",
"!. c #F9E4BC",
"~. c #FFEBBC",
"^. c #F9E7C1",
"/. c #FFEEC2",
"(. c #FFF0C7",
"). c #FFF2CA",
"_. c #FFF6D2",
"`. c #FFF9D5",
"'. c #FFFAD9",
"]. c None",
/* pixels */
"].].].].].].].].].].].].].].].].].].].].                                                ].].].].].].].].].].].].].].].].].].].].",
"].].].].].].].].].].].].].].].].].].].].    X       X         X     X       X       X   ].].].].].].].].].].].].].].].].].].].].",
"].].].].].].].].].].].].].].].].].].].].                                                ].].].].].].].].].].].].].].].].].].].].",
"].].].].].].].].].].].].].].].].].].].].% % % % % % % % % % % % % % % % % % % % % % % % ].].].].].].].].].].].].].].].].].].].].",
"].].].].].].].].].].].].].].].].    #   q.g.f.f.f.g.f.g.f.g.f.g.g.f.g.f.f.f.s.f.f.f.f.c.F   %   ].].].].].].].].].].].].].].].].",
"].].].].].].].].].].].].].].].].    #   y.c.c.x.c.c.x.x.c.c.x.x.c.x.c.x.c.c.x.b.x.x.c.b.G   *     ].].].].].].].].].].].].].].].",
"].].].].].].].].].].].].].].].].    #   q.b.g.c.x.x.x.x.x.x.x.x.x.x.x.x.x.x.x.x.x.x.x.c.F   *     ].].].].].].].].].].].].].].].",
"].].].].].].].].].].].].].].].].    O   q.c.x.c.x.x.x.x.x.x.x.x.x.x.x.x.x.x.x.x.x.x.x.b.F   #     ].].].].].].].].].].].].].].].",
"].].].].].].].].].].].].    O   q.g.d.f.} B K ! S ! ! K S ! K S B ! S U S ! ' M 1.c.x.x.g.f.d.c.G   *   ].].].].].].].].].].].].",
"].].].].].].].].].].].].    #   y.c.x.c.' c m m m m n m m n M m M n m m m m m l <.c.x.x.x.c.x.b.H   *     ].].].].].].].].].].].",
"].].].].].].].].].].].].X X #   t.c.x.c.' c M M M M M M M M M M M M M M M M B z 1.b.g.x.x.g.x.c.G   ; O . ].].].].].].].].].].].",
"].].].].].].].].].].].].        y.c.x.c.' c M m m m m m m m m m m n m m m m M k :.x.z.z.x.x.x.b.G         ].].].].].].].].].].].",
"].].].].].].].].    X   q.f.y.f.] B ' S p.g.s.s.g.g.g.g.s.s.s.s.s.s.s.s.g.s.g.=.P.(.~.(.K.6.v.x.g.y.y.g.G   *     ].].].].].].].",
"].].].].].].].].    X   f.c.x.c.' z M l a.b.c.x.x.x.c.x.c.x.b.c.x.b.x.x.c.c.b.-.E.`.).'.P.2.x.x.c.c.c.b.(   *     ].].].].].].].",
"].].].].].].].].    X   u.x.x.x.' n B n a.x.x.x.x.x.x.x.x.x.x.c.v.x.x.x.x.x.v.-.R._.(._.P.2.v.x.x.x.x.b./   *     ].].].].].].].",
"].].].].].].].].    X   u.x.x.x.' n M z a.b.x.x.z.z.7.7.z.z.3.g.g.c.x.x.x.x.v.-.R._.(._.K.-.v.x.x.x.x.c./   *     ].].].].].].].",
"].].].].].].].].    X   f.c.x.x.' c M n a.x.v.3.E./.~./.~./.~./.A.3.v.x.x.x.b.-.E._.(._.P.-.v.x.x.x.g.c./   *     ].].].].].].].",
"].].].].].].].].    X   u.x.x.x.' n M n a.c.v.3.~._._.)._.)._._.F.3.v.x.g.x.v.-.R._.)._.K.2.v.x.x.x.x.b./   *     ].].].].].].].",
"].].].].].].].].# # %   y.c.g.x.' n B z a.x.v.3.Q._.).).).(.(._.D.3.v.x.x.x.v.-.R._.(.`.P.3.v.v.x.x.x.c./   > # # ].].].].].].].",
"].].].].].].].].        f.b.c.b.! l n l p.c.x.3.Q._.).)._._._.`.F.6.v.x.c.x.x.-.E.'.).'.K.E z.3.z.x.x.c./         ].].].].].].].",
"].].].].        0.y.q.q.] ' ] ' r.a.a.p.x.x.v.3.Q._.(._.K.N.B.A.h.K ] ! r.c.x.x.N.C.C.N.Y./.Q./.J.3.v.x.f.q.q.d.H   *     ].].].",
"].].].].        g.b.b.b.' l n l g.b.c.x.x.x.x.3.Q._.(._.A.W g.z.[ l M k 1.b.g.v.z.3.x.E Y.'.).'.P.-.v.x.x.b.c.b.@.  *     ].].].",
"].].].].        d.x.x.x.' n B n s.b.x.v.v.b.v.7.Q._.(._.D.7.v.b.X.c B c r.b.x.c.b.v.b.2.Y._.(._.P.-.b.x.x.g.x.b.(   *     ].].].",
"].].].].        f.x.x.g.' c M n 4.3.3.3.3.3.7.E Q.`.(._.A.3.v.b.} k n k &.7.2.2.g.g.v.-.Y._.)._.P.6.v.x.x.x.x.b.(   *     ].].].",
"].].].].        g.c.g.c.! m B x T.~.Q.Q.Q.Q.Q.Q./.).)._.D.3.v.x.s.p.a.$.L.~.Q.~.F.3.v.-.Y._.)._.P.-.v.x.x.x.x.b.(   *     ].].].",
"].].].].        f.c.x.x.! m S l ^._._._._._._._.)._.)._.A.3.x.x.c.c.b.-.W._.).'.K.-.n.-.Y._.)._.P.-.v.x.x.c.g.b.(   *     ].].].",
"].].].].        f.v.x.x.C m B x !._.(.(.(.).(.(.(.).(._.D.3.x.x.x.g.b.2.E._.(._.J.-.v.-.Y._.(._.Y.-.v.x.g.x.x.b.(   *     ].].].",
"].].].].        f.x.x.x.' c S k !._.).)._._._._._._._.'.D.3.v.x.x.x.v.-.W.'.).'.P.6.n.6.R._.(.`.P.-.v.x.c.b.b.b.(   *     ].].].",
"].].].].        d.c.x.x.! n S x !._.).).P.A.D.D.D.D.D.D.n.x.x.x.x.x.x.g.B.D.D.F.j.U +.P H.`.(._.P.-.v.c.r.] } ..g   %     ].].].",
"].].].].        f.x.x.x.! n B x !._.(._.N.W 7.3.3.3.3.3.g.x.x.x.x.x.x.x.3.3.3.7.| k S h G.`.(._.Y.-.v.b.:.k c v u   $     ].].].",
"].].].].        d.x.x.x.! m S x !.).)._.A.z.v.v.v.v.v.x.x.x.x.x.x.x.x.x.x.v.x.b.o.c A k G.`.(.`.P.-.g.b.1.z B V y   $     ].].].",
"].].].].        f.c.g.c.! m B l !._.)._.B.7.v.x.x.x.x.x.x.x.x.x.x.x.x.x.x.x.x.b.o.z A k G.`.(.`.P.2.v.v.:.l B V y   $     ].].].",
"].].].].        f.x.x.x.' n B x !._.)._.B.g.x.x.x.x.x.x.x.x.x.x.x.x.x.x.x.x.x.c.o.z A h H._.(.`.P.-.b.b.<.c N V y   $     ].].].",
"].].].].        f.b.g.x.' n Z x !._.)._.B.3.v.x.x.x.x.x.x.g.x.x.x.x.x.x.x.x.g.c.o.z A k G.`.(.`.P.6.g.b.<.l N V y   $     ].].].",
"].].].].        f.x.v.c.C m S x !.).(.).B.3.v.x.g.x.x.x.x.x.x.x.x.x.g.x.g.x.x.c.o.c ! k G.`.(._.P.-.v.v.:.z N V y   $     ].].].",
"].].].].        f.x.g.v.! n B x ^.`._.`.A.z.v.b.c.x.x.x.x.x.x.x.x.c.c.c.b.b.c.b.o.z A h G.`.(._.P.2.v.b.:.l M V y   $     ].].].",
"].].].].        f.x.x.x.! n B l S.K.F.K.h.[ o. .s.x.x.x.x.x.x.x.1.} o.o.o. .o.o.! m A k G.`.(.'.Y.-.v.v.1.z B V y   $     ].].].",
"].].].].        f.x.x.v.! n B m 4.6.6.6.U l z k p.c.g.x.x.x.x.c.} k z z z z z l n N A k G.`.)._.P.-.g.c.:.z N V y   $     ].].].",
"].].].].        f.x.x.x.! c B c g.v.b.b.] m B m d.v.v.v.v.x.g.b. .c B M B B B B B M A k G.`.(._.P.-.b.b.:.l B V y   $     ].].].",
"].].].].        f.x.x.x.' n B n s.b.g.x.' k c k $.5.-.-.z.v.x.b. .c B B c l l z z l Z h G._.(._.R.-.v.c.:.z M V y   $     ].].].",
"].].].].        f.c.g.c.! n M c s.b.x.x.r.:.r.&.J.E.R.E.B.z.v.b. .z B c o.1.1.1.:.1.w.T L.`.(.`.P.-.v.b.1.l B V y   $     ].].].",
"].].].].        d.c.x.x.! n B c a.v.x.x.c.b.b.3.~.`._.'.D.3.g.b.} c B l r.b.c.b.b.b.v.6.R._.(._.Y.3.g.b.:.l B V y   $     ].].].",
"].].].].        u.c.x.x.! M B M a.c.x.g.x.g.v.2.Q.).(.).D.6.v.b. .c B z 1.c.x.g.g.v.n.3.Y._.(._.P.-.v.b.:.l N B y   $     ].].].",
"].].].].        x.b.c.b.B l z k g.b.b.b.x.x.v.2.~.'._.'.D.7.b.b. .c B l 1.b.x.v.7.-.3.R R.'.).'.R.6.b.b.1.b V I f   $     ].].].",
"].].].].].].].].D G F F :.1.:.:.:.:.:.o.g.x.x.g.F.P.K.P.k.{ o.:.' c B l 1.b.x.3.F.R.Y.Y.Y.P.P.Y.Z.Y o.<.Q 8 w u 7 ].].].].].].].",
"].].].].].].].].        u.b.b.b.! k z k a.c.x.c.3.-.2.5.U k c z m M B z 1.c.v.-.E.'._.'.K.R 3.6.{ k z b q         ].].].].].].].",
"].].].].].].].].* * *   y.c.x.x.! M B n a.c.g.c.v.v.v.v. .M B B M B B z 1.c.v.-.R._./._.P.3.v.v.:.c B C p   - $ + ].].].].].].].",
"].].].].].].].].    X   d.c.g.c.' c B z a.x.x.x.x.x.x.b.] k z l l l c k 1.b.v.-.E._.(._.P.-.v.b.:.z B V t   $     ].].].].].].].",
"].].].].].].].].    X   d.c.g.c.] n B c s.c.x.x.x.x.x.c.1.o.:.:.o.:.:.o.p.x.v.-.E._.(._.P.-.g.c.:.l N V t   $     ].].].].].].].",
"].].].].].].].].    X   u.c.g.c.! n M c p.c.x.x.x.g.x.x.b.b.b.b.b.b.b.c.c.x.v.-.R._.(.`.P.3.v.b.;.l N V t   $     ].].].].].].].",
"].].].].].].].].    O   y.c.x.x.! M B n g.v.v.v.v.x.v.v.v.v.v.g.v.v.v.v.v.v.n.3.R._.(._.K.-.v.b.:.z N B t   $     ].].].].].].].",
"].].].].].].].].    O   x.b.b.b.! k c l *.6.2.-.-.2.-.-.-.-.2.2.-.2.-.-.2.-.3.E E.'._.'.P.6.b.b.1.b I I i   $     ].].].].].].].",
"].].].].].].].].].  O   G ( / / >.o.;.{ F.P.K.L.P.K.P.P.P.P.P.P.K.P.P.K.P.K.P.K.P.Y.Y.E.V.^ e.>.Q q a i 7   $   ].].].].].].].].",
"].].].].].].].].].].].].        u.b.b.7./.`._.`._._._._._._._._._._._._.`.`._.'.K.R 3.6.L 1 e e ,         ].].].].].].].].].].].",
"].].].].].].].].].].].].% * ;   i.c.x.7.!.)./.).(.).).(.(.(.).(.).(.(.).(.(.(.).K.7.v.b.` e s d 4   = $ $ ].].].].].].].].].].].",
"].].].].].].].].].].].].    #   f.b.b.7./.`._._._._._._._._._._._._._._._.`._.'.P.6.n.b.O.r d j 6   o     ].].].].].].].].].].].",
"].].].].].].].].].].].].    O   / _ ( ~ I.E.R.E.R.E.E.R.E.R.E.R.E.E.Y.T.E.E.R.E.l.| O.w.g 3 9 9 <   o   ].].].].].].].].].].].].",
"].].].].].].].].].].].].].].].].        #.6.-.-.-.-.-.-.-.-.-.2.-.-.-.-.-.-.5.6.L 2 e r ,       ].].].].].].].].].].].].].].].].",
"].].].].].].].].].].].].].].].].* * >   i.b.v.v.v.v.v.v.v.v.v.v.v.v.v.v.v.v.v.b.) e s d 4   $ o o ].].].].].].].].].].].].].].].",
"].].].].].].].].].].].].].].].].    #   u.m.c.b.b.b.b.c.b.c.b.b.b.b.b.b.b.b.b.b.O.r d j 4   o     ].].].].].].].].].].].].].].].",
"].].].].].].].].].].].].].].].].    %   / 9._ 8.( @.@._ _ _ _ _ _ _ _ _ 8.( @.9.g 5 9 9 <   o   ].].].].].].].].].].].].].].].].",
"].].].].].].].].].].].].].].].].].].].].                                                ].].].].].].].].].].].].].].].].].].].].",
"].].].].].].].].].].].].].].].].].].].].% * % * * * % * & & & & & & * * * % * * # @ o o ].].].].].].].].].].].].].].].].].].].].",
"].].].].].].].].].].].].].].].].].].].].                                                ].].].].].].].].].].].].].].].].].].].]."
};
