/* XPM */
static char *result[] = {
/* columns rows colors chars-per-pixel */
"64 64 159 2 ",
"   c black",
".  c #010000",
"X  c #010100",
"o  c #020100",
"O  c #030100",
"+  c #040200",
"@  c #0A0200",
"#  c #0B0200",
"$  c #100300",
"%  c #130400",
"&  c #150500",
"*  c #160500",
"=  c #160600",
"-  c #170600",
";  c #180600",
":  c #190600",
">  c #110A01",
",  c #1A0800",
"<  c #1B0800",
"1  c #1C0900",
"2  c #1C0A00",
"3  c #1D0B00",
"4  c #1D0B01",
"5  c #1E0A00",
"6  c #1E0B00",
"7  c #1F0B00",
"8  c #1E0B01",
"9  c #1F0F02",
"0  c #1B1203",
"q  c #201002",
"w  c #201604",
"e  c #211604",
"r  c #221704",
"t  c #221804",
"y  c #231804",
"u  c #241804",
"i  c #241904",
"p  c #241905",
"a  c #251A04",
"s  c #261A05",
"d  c #261B05",
"f  c #5C2805",
"g  c #6F3107",
"h  c #713307",
"j  c #723307",
"k  c #723407",
"l  c #763608",
"z  c #7D3909",
"x  c #894505",
"c  c #804109",
"v  c #8A4A0A",
"b  c #8B4A0A",
"n  c #8B4B0B",
"m  c #8D4C0A",
"M  c #91430C",
"N  c #91440C",
"B  c #92440D",
"V  c #96450D",
"C  c #96460D",
"Z  c #98470E",
"A  c #99470E",
"S  c #9A480E",
"D  c #9B490E",
"F  c #9F4B0F",
"G  c #935C19",
"H  c #B85F09",
"J  c #AD5011",
"K  c #AE5011",
"L  c #AF5112",
"P  c #AD5A10",
"I  c #B05311",
"U  c #B05412",
"Y  c #B15412",
"T  c #B25412",
"R  c #B25512",
"E  c #B35512",
"W  c #B45412",
"Q  c #B65413",
"!  c #B45612",
"~  c #B75713",
"^  c #B85713",
"/  c #B85813",
"(  c #B95813",
")  c #B95913",
"_  c #BA5913",
"`  c #BB5913",
"'  c #BE5B14",
"]  c #BA6511",
"[  c #BB6611",
"{  c #BB6713",
"}  c #BD6812",
"|  c #9F782C",
" . c #A47C2E",
".. c #A57D2F",
"X. c #A67F30",
"o. c #C05C14",
"O. c #D46F0C",
"+. c #D56F0C",
"@. c #D6700C",
"#. c #DC730D",
"$. c #DE740D",
"%. c #C76814",
"&. c #C86914",
"*. c #C96914",
"=. c #CF6D15",
"-. c #D16E15",
";. c #D67516",
":. c #D77616",
">. c #D87616",
",. c #D97716",
"<. c #D87717",
"1. c #D87817",
"2. c #DA7816",
"3. c #DA7916",
"4. c #DC7916",
"5. c #DE7A17",
"6. c #DF7A17",
"7. c #DA7918",
"8. c #E07B17",
"9. c #E17C17",
"0. c #E27D17",
"q. c #E07C19",
"w. c #E27D19",
"e. c #E47E18",
"r. c #C57D26",
"t. c #E3912D",
"y. c #E5922E",
"u. c #EB962F",
"i. c #ED9830",
"p. c #D5A23F",
"a. c #DBA741",
"s. c #DCA741",
"d. c #DCA841",
"f. c #DEA942",
"g. c #DEAB43",
"h. c #F5BB4A",
"j. c #F6BC4A",
"k. c #F7BD4A",
"l. c #FCC04C",
"z. c #FCC14C",
"x. c #FDC14C",
"c. c #FDC24C",
"v. c #FEC24C",
"b. c #FEC24D",
"n. c #FFC34D",
"m. c #FFC44D",
"M. c #FFC44E",
"N. c #FFC54E",
"B. c #FFC54F",
"V. c #FFC64F",
"C. c #FFC74F",
"Z. c #FFC84F",
"A. c #FFC750",
"S. c #FFC950",
"D. c #FFCA50",
"F. c #FFCC51",
"G. c #FFCD52",
"H. c #FFCF53",
"J. c None",
/* pixels */
"J.J.J.J.J.J.J.J.J.J.J.J.J.J.J.J.J.J.J.J.J.J.J.J.                                J.J.J.J.J.J.J.J.J.J.J.J.J.J.J.J.J.J.J.J.J.J.J.J.",
"J.J.J.J.J.J.J.J.J.J.J.J.J.J.J.J.J.J.J.J.J.J.J.J.        O + + + + + + + X       J.J.J.J.J.J.J.J.J.J.J.J.J.J.J.J.J.J.J.J.J.J.J.J.",
"J.J.J.J.J.J.J.J.J.J.J.J.J.J.J.J.J.J.J.J.J.J.J.J.      X                   o     J.J.J.J.J.J.J.J.J.J.J.J.J.J.J.J.J.J.J.J.J.J.J.J.",
"J.J.J.J.J.J.J.J.J.J.J.J.J.J.J.J.J.J.J.J.J.J.J.J.    .   0 r w e e e w t >   .   J.J.J.J.J.J.J.J.J.J.J.J.J.J.J.J.J.J.J.J.J.J.J.J.",
"J.J.J.J.J.J.J.J.J.J.J.J.J.J.J.J.J.J.J.J.J.J.J.J.    r   p.b.j.k.k.k.h.m.|   u   J.J.J.J.J.J.J.J.J.J.J.J.J.J.J.J.J.J.J.J.J.J.J.J.",
"J.J.J.J.J.J.J.J.J.J.J.J.J.J.J.J.J.J.J.J.J.J.J.J.    i   f.D.n.N.N.M.n.F...  s   J.J.J.J.J.J.J.J.J.J.J.J.J.J.J.J.J.J.J.J.J.J.J.J.",
"J.J.J.J.J.J.J.J.J.J.J.J.J.J.J.J.J.J.J.J.J.J.J.J.    y   s.Z.x.n.n.n.z.D. .  a   J.J.J.J.J.J.J.J.J.J.J.J.J.J.J.J.J.J.J.J.J.J.J.J.",
"J.J.J.J.J.J.J.J.J.J.J.J.J.J.J.J.J.J.J.J.J.J.J.J.    y   d.Z.c.n.n.n.x.D. .  a   J.J.J.J.J.J.J.J.J.J.J.J.J.J.J.J.J.J.J.J.J.J.J.J.",
"J.J.J.J.J.J.J.J.J.J.J.J.J.J.J.J.J.J.J.J.J.J.J.J.    y   d.Z.c.n.n.n.x.D. .  a   J.J.J.J.J.J.J.J.J.J.J.J.J.J.J.J.J.J.J.J.J.J.J.J.",
"J.J.J.J.J.J.J.J.J.J.J.J.J.J.J.J.J.J.J.J.J.J.J.J.    y   d.Z.c.n.n.n.x.D. .  a   J.J.J.J.J.J.J.J.J.J.J.J.J.J.J.J.J.J.J.J.J.J.J.J.",
"J.J.J.J.J.J.J.J.J.J.J.J.J.J.J.J.J.J.J.J.J.J.J.J.    y   d.Z.c.n.n.n.x.D. .  a   J.J.J.J.J.J.J.J.J.J.J.J.J.J.J.J.J.J.J.J.J.J.J.J.",
"J.J.J.J.J.J.J.J.J.J.J.J.J.J.J.J.J.J.J.J.J.J.J.J.    y   d.Z.c.n.n.n.x.D. .  a   J.J.J.J.J.J.J.J.J.J.J.J.J.J.J.J.J.J.J.J.J.J.J.J.",
"J.J.J.J.J.J.J.J.J.J.J.J.J.J.J.J.J.J.J.J.J.J.J.J.    y   d.Z.c.n.n.n.x.D. .  a   J.J.J.J.J.J.J.J.J.J.J.J.J.J.J.J.J.J.J.J.J.J.J.J.",
"J.J.J.J.J.J.J.J.J.J.J.J.J.J.J.J.J.J.J.J.J.J.J.J.    y   d.Z.c.n.n.n.x.D. .  a   J.J.J.J.J.J.J.J.J.J.J.J.J.J.J.J.J.J.J.J.J.J.J.J.",
"J.J.J.J.J.J.J.J.J.J.J.J.J.J.J.J.J.J.J.J.J.J.J.J.    y   d.Z.c.n.n.n.x.D. .  a   J.J.J.J.J.J.J.J.J.J.J.J.J.J.J.J.J.J.J.J.J.J.J.J.",
"J.J.J.J.J.J.J.J.J.J.J.J.J.J.J.J.J.J.J.J.J.J.J.J.    y   d.Z.c.n.n.n.x.D. .  a   J.J.J.J.J.J.J.J.J.J.J.J.J.J.J.J.J.J.J.J.J.J.J.J.",
"J.J.J.J.J.J.J.J.J.J.J.J.J.J.J.J.J.J.J.J.J.J.J.J.    y   d.Z.c.n.n.n.x.D. .  a   J.J.J.J.J.J.J.J.J.J.J.J.J.J.J.J.J.J.J.J.J.J.J.J.",
"J.J.J.J.J.J.J.J.J.J.J.J.J.J.J.J.J.J.J.J.J.J.J.J.    y   d.Z.c.n.n.n.x.D. .  a   J.J.J.J.J.J.J.J.J.J.J.J.J.J.J.J.J.J.J.J.J.J.J.J.",
"J.J.J.J.J.J.J.J.J.J.J.J.J.J.J.J.J.J.J.J.J.J.J.J.    y   d.Z.c.n.n.n.x.D. .  a   J.J.J.J.J.J.J.J.J.J.J.J.J.J.J.J.J.J.J.J.J.J.J.J.",
"J.J.J.J.J.J.J.J.J.J.J.J.J.J.J.J.J.J.J.J.J.J.J.J.    y   d.Z.c.n.n.n.x.D. .  a   J.J.J.J.J.J.J.J.J.J.J.J.J.J.J.J.J.J.J.J.J.J.J.J.",
"J.J.J.J.J.J.J.J.J.J.J.J.J.J.J.J.J.J.J.J.J.J.J.J.    y   d.Z.c.n.n.n.x.D. .  a   J.J.J.J.J.J.J.J.J.J.J.J.J.J.J.J.J.J.J.J.J.J.J.J.",
"J.J.J.J.J.J.J.J.J.J.J.J.J.J.J.J.J.J.J.J.J.J.J.J.    y   d.Z.c.n.n.n.x.D. .  a   J.J.J.J.J.J.J.J.J.J.J.J.J.J.J.J.J.J.J.J.J.J.J.J.",
"J.J.J.J.J.J.J.J.J.J.J.J.J.J.J.J.J.J.J.J.J.J.J.J.    y   d.Z.c.n.n.n.x.D. .  a   J.J.J.J.J.J.J.J.J.J.J.J.J.J.J.J.J.J.J.J.J.J.J.J.",
"J.J.J.J.J.J.J.J.J.J.J.J.J.J.J.J.J.J.J.J.J.J.J.J.    y   d.Z.c.n.n.n.x.D. .  a   J.J.J.J.J.J.J.J.J.J.J.J.J.J.J.J.J.J.J.J.J.J.J.J.",
"J.J.J.J.J.J.J.J.J.J.J.J.J.J.J.J.J.J.J.J.J.J.J.J.    y   d.Z.c.n.n.n.x.D. .  a   J.J.J.J.J.J.J.J.J.J.J.J.J.J.J.J.J.J.J.J.J.J.J.J.",
"J.J.J.J.J.J.J.J.J.J.J.J.J.J.J.J.J.J.J.J.J.J.J.J.    y   d.Z.c.n.n.n.x.D. .  a   J.J.J.J.J.J.J.J.J.J.J.J.J.J.J.J.J.J.J.J.J.J.J.J.",
"J.J.J.J.J.J.J.J.J.J.J.J.J.J.J.J.J.J.J.J.J.J.J.J.    y   a.C.x.v.v.v.l.S. .  a   J.J.J.J.J.J.J.J.J.J.J.J.J.J.J.J.J.J.J.J.J.J.J.J.",
"J.J.J.J.J.J.J.J.J.J.J.J.J.J.J.J.J.J.J.J.J.J.J.J.    p   g.G.V.A.A.A.B.H.X.  d   J.J.J.J.J.J.J.J.J.J.J.J.J.J.J.J.J.J.J.J.J.J.J.J.",
"J.J.J.J.J.J.J.J.J.J.J.J.J.J.J.J.J.J.J.J.J.J.J.J.    9   r.u.t.y.y.y.t.i.G   q   J.J.J.J.J.J.J.J.J.J.J.J.J.J.J.J.J.J.J.J.J.J.J.J.",
"J.J.J.J.J.J.J.J.J.J.J.J.J.J.J.J.J.J.J.J.J.J.J.J.    1   H #.+.@.@.@.O.$.x   5   J.J.J.J.J.J.J.J.J.J.J.J.J.J.J.J.J.J.J.J.J.J.J.J.",
"J.J.J.J.J.J.J.J.J.J.J.J.J.J.J.J.J.J.J.J.J.J.J.J.    4   { q.1.7.7.7.<.w.n   8   J.J.J.J.J.J.J.J.J.J.J.J.J.J.J.J.J.J.J.J.J.J.J.J.",
"J.J.J.J.J.J.J.J.J.J.J.J.J.J.J.J.J.J.J.J.J.J.J.J.    3   [ 6.>.,.,.,.:.9.b   6   J.J.J.J.J.J.J.J.J.J.J.J.J.J.J.J.J.J.J.J.J.J.J.J.",
"J.J.J.J.J.J.J.J.J.J.J.J.J.J.J.J.J.J.J.J.J.J.J.J.    3   [ 6.>.,.,.,.:.9.b   6   J.J.J.J.J.J.J.J.J.J.J.J.J.J.J.J.J.J.J.J.J.J.J.J.",
"J.J.J.J.J.J.J.J.J.J.J.J.J.J.J.J.J.J.J.J.J.J.J.J.    3   [ 6.>.,.,.,.:.9.b   6   J.J.J.J.J.J.J.J.J.J.J.J.J.J.J.J.J.J.J.J.J.J.J.J.",
"J.J.J.J.J.J.J.J.J.J.J.J.J.J.J.J.J.J.J.J.J.J.J.J.    3   [ 6.>.,.,.,.:.9.b   6   J.J.J.J.J.J.J.J.J.J.J.J.J.J.J.J.J.J.J.J.J.J.J.J.",
"J.J.J.J.J.J.J.J.J.J.J.J.J.J.J.J.J.J.J.J.J.J.J.J.    3   [ 6.>.,.,.,.:.9.b   6   J.J.J.J.J.J.J.J.J.J.J.J.J.J.J.J.J.J.J.J.J.J.J.J.",
"J.J.J.J.J.J.J.J.J.J.J.J.J.J.J.J.J.J.J.J.J.J.J.J.    3   [ 6.>.,.,.,.:.9.b   6   J.J.J.J.J.J.J.J.J.J.J.J.J.J.J.J.J.J.J.J.J.J.J.J.",
"J.J.J.J.J.J.J.J.J.J.J.J.J.J.J.J.J.J.J.J.J.J.J.J.    3   [ 6.>.,.,.,.:.9.b   6   J.J.J.J.J.J.J.J.J.J.J.J.J.J.J.J.J.J.J.J.J.J.J.J.",
"J.J.J.J.J.J.J.J.J.J.J.J.J.J.J.J.J.J.J.J.J.J.J.J.    3   [ 6.>.,.,.,.:.9.b   6   J.J.J.J.J.J.J.J.J.J.J.J.J.J.J.J.J.J.J.J.J.J.J.J.",
"J.J.J.J.J.J.J.J.J.J.J.J.J.J.J.J.J.J.J.J.J.J.J.J.    3   [ 6.>.,.,.,.:.9.b   6   J.J.J.J.J.J.J.J.J.J.J.J.J.J.J.J.J.J.J.J.J.J.J.J.",
"J.J.J.J.J.J.J.J.J.J.J.J.J.J.J.J.J.J.J.J.J.J.J.J.    3   [ 6.>.,.,.,.:.9.b   6   J.J.J.J.J.J.J.J.J.J.J.J.J.J.J.J.J.J.J.J.J.J.J.J.",
"J.J.J.J.J.J.J.J.J.J.J.J.J.J.J.J.J.J.J.J.J.J.J.J.    3   [ 6.>.,.,.,.:.9.b   6   J.J.J.J.J.J.J.J.J.J.J.J.J.J.J.J.J.J.J.J.J.J.J.J.",
"J.J.J.J.J.J.J.J.J.J.J.J.J.J.J.J.J.J.J.J.J.J.J.J.    3   [ 6.>.,.,.,.:.9.b   6   J.J.J.J.J.J.J.J.J.J.J.J.J.J.J.J.J.J.J.J.J.J.J.J.",
"J.J.J.J.J.J.J.J.J.J.J.J.J.J.J.J.J.J.J.J.J.J.J.J.    3   [ 6.>.,.,.,.:.9.b   6   J.J.J.J.J.J.J.J.J.J.J.J.J.J.J.J.J.J.J.J.J.J.J.J.",
"J.J.J.J.J.J.J.J.J.J.J.J.J.J.J.J.J.J.J.J.J.J.J.J.    3   [ 6.>.,.,.,.:.9.b   6   J.J.J.J.J.J.J.J.J.J.J.J.J.J.J.J.J.J.J.J.J.J.J.J.",
"J.J.J.J.J.J.J.J.J.J.J.J.J.J.J.J.J.J.J.J.J.J.J.J.    3   [ 6.>.,.,.,.:.9.b   6   J.J.J.J.J.J.J.J.J.J.J.J.J.J.J.J.J.J.J.J.J.J.J.J.",
"J.J.J.J.J.J.J.J.J.J.J.J.J.J.J.J.J.J.J.J.J.J.J.J.    3   [ 6.>.,.,.,.:.9.b   6   J.J.J.J.J.J.J.J.J.J.J.J.J.J.J.J.J.J.J.J.J.J.J.J.",
"J.J.J.J.J.J.J.J.J.J.J.J.J.J.J.J.J.J.J.J.J.J.J.J.    3   [ 6.>.,.,.,.:.9.b   6   J.J.J.J.J.J.J.J.J.J.J.J.J.J.J.J.J.J.J.J.J.J.J.J.",
"J.J.J.J.J.J.J.J.J.J.J.J.J.J.J.J.J.J.J.J.J.J.J.J.    3   [ 6.>.,.,.,.:.9.b   6   J.J.J.J.J.J.J.J.J.J.J.J.J.J.J.J.J.J.J.J.J.J.J.J.",
"J.J.J.J.J.J.J.J.J.J.J.J.J.J.J.J.J.J.J.J.J.J.J.J.    3   [ 6.>.,.,.,.:.9.b   6   J.J.J.J.J.J.J.J.J.J.J.J.J.J.J.J.J.J.J.J.J.J.J.J.",
"J.J.J.J.J.J.J.J.J.J.J.J.J.J.J.J.J.J.J.J.J.J.J.J.    2   ] 5.:.>.>.>.;.8.v   6   J.J.J.J.J.J.J.J.J.J.J.J.J.J.J.J.J.J.J.J.J.J.J.J.",
"J.J.J.J.J.J.J.J.J.J.J.J.J.J.J.J.J.J.J.J.J.J.J.J.    3   } 0.3.4.4.4.2.e.m   7   J.J.J.J.J.J.J.J.J.J.J.J.J.J.J.J.J.J.J.J.J.J.J.J.",
"J.J.J.J.J.J.J.J.J.J.J.J.J.J.J.J.J.J.J.J.J.J.J.J.    ,   P =.&.*.*.*.%.-.c   <   J.J.J.J.J.J.J.J.J.J.J.J.J.J.J.J.J.J.J.J.J.J.J.J.",
"J.J.J.J.J.J.J.J.J.J.J.J.J.J.J.J.J.J.J.J.J.J.J.J.    &   V W K L L L J Q g   &   J.J.J.J.J.J.J.J.J.J.J.J.J.J.J.J.J.J.J.J.J.J.J.J.",
"J.J.J.J.J.J.J.J.J.J.J.J.J.J.J.J.J.J.J.J.J.J.J.J.    *   D ) E ! ! ! R ` k   =   J.J.J.J.J.J.J.J.J.J.J.J.J.J.J.J.J.J.J.J.J.J.J.J.",
"J.J.J.J.J.J.J.J.J.J.J.J.J.J.J.J.J.J.J.J.J.J.J.J.    *   S / T E E E Y _ j   *   J.J.J.J.J.J.J.J.J.J.J.J.J.J.J.J.J.J.J.J.J.J.J.J.",
"J.J.J.J.J.J.J.J.J.J.J.J.J.J.J.J.J.J.J.J.J.J.J.J.    *   S / T E E E Y _ j   *   J.J.J.J.J.J.J.J.J.J.J.J.J.J.J.J.J.J.J.J.J.J.J.J.",
"J.J.J.J.J.J.J.J.J.J.J.J.J.J.J.J.J.J.J.J.J.J.J.J.    *   S / T E E E Y _ j   *   J.J.J.J.J.J.J.J.J.J.J.J.J.J.J.J.J.J.J.J.J.J.J.J.",
"J.J.J.J.J.J.J.J.J.J.J.J.J.J.J.J.J.J.J.J.J.J.J.J.    &   A ~ U T T T I / h   *   J.J.J.J.J.J.J.J.J.J.J.J.J.J.J.J.J.J.J.J.J.J.J.J.",
"J.J.J.J.J.J.J.J.J.J.J.J.J.J.J.J.J.J.J.J.J.J.J.J.    -   F ' ^ ( ( ( ~ o.l   -   J.J.J.J.J.J.J.J.J.J.J.J.J.J.J.J.J.J.J.J.J.J.J.J.",
"J.J.J.J.J.J.J.J.J.J.J.J.J.J.J.J.J.J.J.J.J.J.J.J.    $   z C N B B B M Z f   $   J.J.J.J.J.J.J.J.J.J.J.J.J.J.J.J.J.J.J.J.J.J.J.J.",
"J.J.J.J.J.J.J.J.J.J.J.J.J.J.J.J.J.J.J.J.J.J.J.J.      @                   @     J.J.J.J.J.J.J.J.J.J.J.J.J.J.J.J.J.J.J.J.J.J.J.J.",
"J.J.J.J.J.J.J.J.J.J.J.J.J.J.J.J.J.J.J.J.J.J.J.J.    .   % : ; ; ; ; - : #   .   J.J.J.J.J.J.J.J.J.J.J.J.J.J.J.J.J.J.J.J.J.J.J.J.",
"J.J.J.J.J.J.J.J.J.J.J.J.J.J.J.J.J.J.J.J.J.J.J.J.                                J.J.J.J.J.J.J.J.J.J.J.J.J.J.J.J.J.J.J.J.J.J.J.J."
};
