/* XPM */
static char *result[] = {
/* columns rows colors chars-per-pixel */
"64 64 180 2 ",
"   c #000000",
".  c #0F0702",
"X  c #0E0801",
"o  c #190700",
"O  c #130B01",
"+  c #1C0E01",
"@  c #160300",
"#  c #1D1303",
"$  c #210C01",
"%  c #211604",
"&  c #271B05",
"*  c #281C05",
"=  c #2C1201",
"-  c #301501",
";  c #2D2006",
":  c #302307",
">  c #332508",
",  c #722400",
"<  c #723308",
"1  c #9F1800",
"2  c #A01C00",
"3  c #822E00",
"4  c #833D0B",
"5  c #8B3401",
"6  c #8D430D",
"7  c #8B4A0A",
"8  c #8B4407",
"9  c #95470E",
"0  c #9D4B09",
"q  c #9F5003",
"w  c #9B550E",
"e  c #AB4502",
"r  c #B14300",
"t  c #A65A0E",
"y  c #AC5D0F",
"u  c #A7570A",
"i  c #B05F0F",
"p  c #AB5D10",
"a  c #A65C10",
"s  c #B45B17",
"d  c #BA5C16",
"f  c #B76310",
"g  c #B67627",
"h  c #D25500",
"j  c #C25D14",
"k  c #D36400",
"l  c #D56C05",
"z  c #D66E09",
"x  c #D77000",
"c  c #D7710D",
"v  c #DE720A",
"b  c #DE7207",
"n  c #D77311",
"m  c #D87413",
"M  c #DA7817",
"N  c #D67718",
"B  c #DA7A1A",
"V  c #E17B17",
"C  c #E17D1A",
"Z  c #D67220",
"A  c #DB7D29",
"S  c #D97925",
"D  c #B28733",
"F  c #B58934",
"G  c #BA8E35",
"H  c #BF9138",
"J  c #BD9036",
"K  c #DE831B",
"L  c #D58A1C",
"P  c #E28400",
"I  c #EA8118",
"U  c #E28B1A",
"Y  c #EA991F",
"T  c #EFA000",
"R  c #FFB700",
"E  c #FFB900",
"W  c #FFBC1C",
"Q  c #CA832B",
"!  c #DE8322",
"~  c #C7952B",
"^  c #DE9621",
"/  c #C39439",
"(  c #CA9A3B",
")  c #D69138",
"_  c #D19F3E",
"`  c #DC9638",
"'  c #E08926",
"]  c #E28D2A",
"[  c #E69326",
"{  c #EB9C24",
"}  c #E4922D",
"|  c #E79A26",
" . c #E69531",
".. c #ED9730",
"X. c #E69B35",
"o. c #E99B34",
"O. c #E19C3C",
"+. c #E89A39",
"@. c #D1A03D",
"#. c #EAA729",
"$. c #F6AE27",
"%. c #F6AF28",
"&. c #F1A72C",
"*. c #F7B12A",
"=. c #FAB62D",
"-. c #FFBE2D",
";. c #EBA037",
":. c #EEA43A",
">. c #E5A23D",
",. c #F0A737",
"<. c #F1A53A",
"1. c #F1AA3E",
"2. c #FFBF36",
"3. c #FFBF39",
"4. c #F9B633",
"5. c #FFC22F",
"6. c #FFC332",
"7. c #FFC13C",
"8. c #D6A540",
"9. c #D8A540",
"0. c #DEA942",
"q. c #E4AE44",
"w. c #EAA840",
"e. c #E8A447",
"r. c #F2AD42",
"t. c #E7B045",
"y. c #EDB547",
"u. c #EEB748",
"i. c #E6B149",
"p. c #F6B344",
"a. c #F8B746",
"s. c #F9B947",
"d. c #F2B748",
"f. c #F5BB49",
"g. c #FABC49",
"h. c #EDA850",
"j. c #F0B05D",
"k. c #F1B360",
"l. c #EFBF79",
"z. c #FFC143",
"x. c #FFC34D",
"c. c #FFC94F",
"v. c #FEC452",
"b. c #FFC951",
"n. c #FFC95A",
"m. c #FFD053",
"M. c #FFC760",
"N. c #FFCB6C",
"B. c #FFCD75",
"V. c #F0C078",
"C. c #FFCF78",
"Z. c #F6C176",
"A. c #FFD17C",
"S. c #F9CA83",
"D. c #FFD384",
"F. c #FED48B",
"G. c #EEC69B",
"H. c #F3CE9D",
"J. c #FDD694",
"K. c #FFD994",
"L. c #FAD69C",
"P. c #FFDC9B",
"I. c #F6D599",
"U. c #FFE09E",
"Y. c #FFDFA2",
"T. c #F9DBA9",
"R. c #FFE1A5",
"E. c #FFE2A9",
"W. c #FFE6B3",
"Q. c #FFE8B7",
"!. c #F9E4BC",
"~. c #FFEBBC",
"^. c #F9E7C1",
"/. c #FFEEC2",
"(. c #FFF0C7",
"). c #FFF2CA",
"_. c #FFF6D2",
"`. c #FFF9D5",
"'. c #FFFAD9",
"]. c None",
/* pixels */
"].].].].].].].].].].].].].].].].].].].].                                                ].].].].].].].].].].].].].].].].].].].].",
"].].].].].].].].].].].].].].].].].].].].    X       X         X           X           X ].].].].].].].].].].].].].].].].].].].].",
"].].].].].].].].].].].].].].].].].].].].                                                ].].].].].].].].].].].].].].].].].].].].",
"].].].].].].].].].].].].].].].].].].].].& % % % % % % % % % % % & % % % % % % & % % % % ].].].].].].].].].].].].].].].].].].].].",
"].].].].].].].].].].].].].].].].  *   D x.f.f.f.f.g.f.g.f.g.g.f.g.f.s.f.f.f.s.g.f.f.x.q.  #     ].].].].].].].].].].].].].].].].",
"].].].].].].].].].].].].].].].    *   F b.x.c.x.c.c.x.c.c.b.x.c.b.x.b.c.c.c.c.b.x.x.c.t.  #     ].].].].].].].].].].].].].].].].",
"].].].].].].].].].].].].].].].    *   F b.x.x.x.x.x.x.x.x.x.x.g.x.x.x.x.x.x.x.x.x.x.c.t.  #     ].].].].].].].].].].].].].].].].",
"].].].].].].].].].].].].].].].    %   F b.g.x.x.x.x.g.x.x.x.x.x.x.x.x.x.x.x.g.x.x.x.c.t.  O     ].].].].].].].].].].].].].].].].",
"].].].].].].].].].].].].  *   G c.d.d.s.c.x.c.1.M ! ! K S U S ! B ! S U S K ! ! S K B } f.d.g.q.  O     ].].].].].].].].].].].].",
"].].].].].].].].].].].    *   H b.x.c.c.x.g.b.1.k m m m m m m m M n m m m m m m m m z ] b.c.b.u.  +     ].].].].].].].].].].].].",
"].].].].].].].].].].].. O ;   J b.x.x.x.x.x.c.1.z B M M M M M M M M M M M M M M M M m ] x.g.v.y.  # X X ].].].].].].].].].].].].",
"].].].].].].].].].].].        G b.g.x.z.z.x.z.<.l M m m m m n n n m m m m m n M m M l ' b.x.c.y.        ].].].].].].].].].].].].",
"].].].].].].].    *   G g.u.u.g.x.v.2.J.)./.).Y.=.g.g.g.s.s.g.s.s.s.s.s.s.g.s.s.s.g.g.p.B ' K ] d.u.f.q.  X     ].].].].].].].].",
"].].].].].].].    *   ( b.c.c.c.x.v.-.P._.)._.E.-.v.x.b.x.x.c.c.v.b.x.c.c.c.x.c.x.c.b.a.l M z ' b.c.c.d.  X     ].].].].].].].].",
"].].].].].].].    *   / c.x.x.x.x.v.-.P._.)._.Y.-.v.x.x.x.x.x.x.x.c.x.c.x.c.x.v.x.g.c.p.n M n ' c.g.c.u.  X     ].].].].].].].].",
"].].].].].].].    *   / c.x.g.x.x.v.-.P._.)._.Y.-.v.x.x.x.x.x.x.s.7.s.7.s.7.3.z.x.x.c.a.c M n ' x.x.c.d.  X     ].].].].].].].].",
"].].].].].].].    *   / b.x.x.x.x.v.-.P._.(._.R.-.v.x.x.x.x.3.D./.~./.~.~.~./.E.7.g.c.a.n M n ' c.g.c.d.  X     ].].].].].].].].",
"].].].].].].].    *   / c.x.x.x.x.v.-.P._.(._.R.-.v.x.x.x.v.6.F.'._.)._._.)._.~.3.v.c.a.c M c ' x.x.c.d.  X     ].].].].].].].].",
"].].].].].].].# # >   / c.x.x.x.x.b.2.P._.(._.R.-.v.x.x.g.v.2.D._.).).).).(._.~.3.v.c.a.n M m ' x.x.x.u.  & # # ].].].].].].].].",
"].].].].].].].        / b.x.x.z.3.g.E P.'.).'.E.-.v.x.c.c.b.3.F.'.)._._.).).).Q.2.v.c.s.k m k ' c.c.c.d.        ].].].].].].].].",
"].].].    *   H d.t.q.d.x.x.2.K./.~./.Y.N.C.C.N.x.x.x.r.' ] K h.A.C.N.P._.(._.Q.2.v.x.g.p.a.a.r.! ] ' } t.t.i.0.        ].].].].",
"].].].    *   @.b.c.b.c.x.c.-.Y._.).`.Y.E x.3.z.x.x.c.1.k n l [ 7.z.W C.`.(._.~.3.b.x.c.c.c.b.s.l m l ! b.c.b.g.        ].].].].",
"].].].    *   ( b.x.g.x.x.v.2.P._.(._.Y.2.v.v.x.v.x.n.r.z B n  .b.v.3.D._.(._.Q.z.v.v.v.v.v.b.s.n M M ! x.g.c.d.        ].].].].",
"].].].    *   ( b.g.c.x.x.v.-.P._.)._.Y.-.v.x.z.2.6.7.&.k m k } b.v.3.D._.(._.Q.E 3.2.2.2.2.7.4.m M n ! x.x.c.a.        ].].].].",
"].].].    *   ( b.x.x.x.x.v.-.Y._.)._.Y.-.v.3.D.~.Q.~.P.$.a.p.a.x.v.3.D._.).)./.Q.~.Q.~.Q.Q.~.T.x B m ! x.x.c.f.        ].].].].",
"].].].    *   ( c.x.x.x.x.v.-.P._.)._.Y.2.v.-.P.'.).'.E.6.v.b.x.x.v.2.D._.).)._._._.)._._.)._.^.x S n ! x.x.x.d.        ].].].].",
"].].].    *   ( b.g.g.x.x.v.-.P._.)._.Y.-.v.-.K._.(._.E.-.v.x.x.x.v.2.D._.).).).).).(.(.(.)._.!.x B n ! x.x.v.f.        ].].].].",
"].].].    *   ( b.x.c.c.x.v.-.Y._.)._.R.6.n.6.P.'.).`.W.-.v.x.x.x.v.2.D._._._._._._._.).).)._.!.x S n ! b.g.x.f.        ].].].].",
"].].].    %   g .. .] 1.c.v.-.P._.)._.H.P +.U j.D.D.D.B.z.x.x.g.x.x.x.n.D.D.D.D.D.D.C.P._.)._.!.k S n ' x.x.x.f.        ].].].].",
"].].].    $   u v n k :.b.v.-.Y._.(.`.G.h S k | 7.3.2.z.x.x.x.x.x.x.x.x.3.3.3.2.3.3.W B._.).).!.x B n C b.g.x.f.        ].].].].",
"].].].    $   p B B c 1.b.v.-.P._.)._.G.k A z +.b.v.v.x.x.x.x.x.x.g.g.x.v.x.v.v.v.v.g.C.).)._.!.x B m ! x.x.c.f.        ].].].].",
"].].].    $   y C M l :.c.v.-.P.'.).`.G.k A z o.b.x.x.x.x.x.x.x.x.x.x.x.x.x.x.x.x.x.7.B._.)._.!.x S m ! b.g.c.g.        ].].].].",
"].].].    $   y V M z 1.b.v.-.P._.(.`.G.h A z o.c.x.g.x.x.x.x.x.x.x.x.x.x.x.x.x.x.v.3.B._.)._.!.l S c ' x.x.v.d.        ].].].].",
"].].].    $   y V N l :.b.v.-.Y.`.(.`.G.k A z o.c.x.x.x.x.x.x.x.x.x.x.x.x.g.x.x.x.v.s.B.).)._.!.x B c ! x.x.x.f.        ].].].].",
"].].].    $   y V N z :.b.g.-.P._.(._.G.k A z o.c.g.x.x.g.x.x.c.x.x.x.x.x.x.x.x.x.x.7.B._.(._.!.l S m ! x.x.c.d.        ].].].].",
"].].].    $   y V M z <.v.v.-.Y.`.(.`.G.k A z o.b.c.c.c.c.c.b.c.x.x.x.x.x.x.x.x.b.b.7.A.`._.`.^.x B m ! x.x.x.f.        ].].].].",
"].].].    $   y V M z :.c.v.-.P._.(.`.G.h ! M ' o.o.o. .o. . .:.c.x.x.x.x.g.c.s. .o.[ h.K.D.J.S.x M n ! v.x.x.f.        ].].].].",
"].].].    $   y V N z :.b.v.-.P.`.(.`.G.k A M n z z z z c c k } c.g.x.x.x.x.c.p.k n l K 6.2.2.4.m M n ! x.x.c.f.        ].].].].",
"].].].    $   y C N z :.b.v.-.Y.`.(.`.G.k A M M B B M B M B c  .c.x.x.x.v.v.b.a.m B M ] v.v.b.s.n M n ! x.x.x.d.        ].].].].",
"].].].    $   y C M l <.b.v.-.P._.(.`.G.h Z z z z l l n M M c  .b.g.c.s.-.-.2.$.k z k ! b.x.c.s.n M n ' x.x.x.f.        ].].].].",
"].].].    $   p V M z :.b.v.5.P.`.(._.I.T w.1.1.1.<.r. .c M c } b.x.s.N.E.Y.E.J.&.w.<.r.c.g.c.a.m M m ! c.g.c.f.        ].].].].",
"].].].    $   y V M l :.b.v.-.P._.)._.R.6.n.c.b.b.c.b.p.l B c  .c.v.6.D.'.).'./.7.b.b.b.x.x.c.a.n M m ! x.x.x.f.        ].].].].",
"].].].    $   y M M l <.b.v.2.P._.)._.Y.3.v.v.v.x.g.b.1.z B c  .c.x.3.D.).).).Q.2.v.x.g.x.g.x.s.m B M ! x.g.c.d.        ].].].].",
"].].].    $   f I C b 1.b.v.5.R.'.).'.R.R 3.-.3.v.g.b.r.z B l  .b.b.7.F.'._.'./.2.v.x.c.b.b.b.g.k c k K b.b.b.x.        ].].].].",
"].].].].].].].7 t w 8 Q <.+.Y Z.P.P.J.P.Y.Y.R.D.3.x.b.<.z B m ! :.;.| k.U.P.P.D.s.c.x.s.o.:.;.:.:.:.:.:.F F G D ].].].].].].].].",
"].].].].].].].        q v z k | 6.3.R P.'._.'.E.-.v.b.r.z M M m l c k U 5.-.-.3.x.x.b.p.k z k ! b.c.b.f.        ].].].].].].].].",
"].].].].].].].+ $ -   p C M z :.n.v.3.P._.)._.Y.-.v.b.1.z B M M M B m  .v.v.b.v.x.x.c.a.n B M ' x.x.c.u.  * * * ].].].].].].].].",
"].].].].].].].    $   t C M l :.b.b.-.P._.)._.E.2.g.b.r.k z l l z c k ] b.x.x.x.x.g.c.a.n M c ' x.x.c.u.  O     ].].].].].].].].",
"].].].].].].].    $   t V N z :.b.v.-.K._.)._.Y.2.v.x.a.o.:.:.:.:.:.o.1.c.g.x.x.x.x.b.a.c M m ! c.x.x.u.  X     ].].].].].].].].",
"].].].].].].].    $   t V M l :.b.v.-.P._.).'.Y.-.v.x.c.c.n.c.b.c.b.b.c.x.x.x.x.x.x.x.a.c M m ] x.x.x.u.  X     ].].].].].].].].",
"].].].].].].].    $   t M N l ;.b.v.-.P._.)._.Y.3.v.v.v.g.v.v.v.v.g.v.v.v.v.v.v.v.v.b.f.m B N ! x.x.x.u.  X     ].].].].].].].].",
"].].].].].].].    $   i I C v 1.b.b.5.R.'._.'.Y.R 2.2.-.-.-.2.-.2.2.-.-.2.-.-.2.2.-.5.=.k c k K c.c.c.x.  O     ].].].].].].].].",
"].].].].].].].].  $   7 i p q Q e.O.^ l.E.Y.R.P.P.P.P.P.P.P.P.P.P.P.P.P.J.P.K.P.J.P.P.F.| ;.;.>.H / ( G   X   ].].].].].].].].].",
"].].].].].].].].].].].        , r e 2 L 5.2.E K.'.)._._._._._._.)._.`.)._._._._._._.'.~.7.n.b.u.        ].].].].].].].].].].].].",
"].].].].].].].].].].].$ $ =   8 d s e ` n.v.7.J._./.).(.).).)./.(.(.(.(.).).).).).).).Q.7.x.c.t.  : * * ].].].].].].].].].].].].",
"].].].].].].].].].].].    o   4 j f e ` b.b.5.P.'._._._._._._._._._._.`._._._._._._._./.7.b.b.f.  #     ].].].].].].].].].].].].",
"].].].].].].].].].].].].  o   < 9 9 3 g w.e.| V.E.Y.R.T.E.Y.E.E.E.E.R.E.E.R.E.Y.Y.E.E.I.~ ( @./   O     ].].].].].].].].].].].].",
"].].].].].].].].].].].].].].].].      , r e 2 L 6.-.5.-.-.-.-.-.-.-.-.-.-.-.-.2.-.-.6.#.        ].].].].].].].].].].].].].].].].",
"].].].].].].].].].].].].].].].o o $   4 d s e ) n.v.v.v.v.v.v.v.v.v.v.v.v.v.v.v.b.v.n.i.  > * * ].].].].].].].].].].].].].].].].",
"].].].].].].].].].].].].].].].    o   4 j d r ` m.c.b.b.b.b.b.b.b.b.b.b.b.c.c.c.c.c.c.d.  #     ].].].].].].].].].].].].].].].].",
"].].].].].].].].].].].].].].].].  o   < 9 9 5 g @.@.@.@._ _ _ _ _ _ _ _ _ _ _ _ _ _ 9./   %     ].].].].].].].].].].].].].].].].",
"].].].].].].].].].].].].].].].].].].].].                                                ].].].].].].].].].].].].].].].].].].].].",
"].].].].].].].].].].].].].].].].].].].].o o @ # * & * * & & & & & & & & & & & & & & * & ].].].].].].].].].].].].].].].].].].].].",
"].].].].].].].].].].].].].].].].].].].].                                                ].].].].].].].].].].].].].].].].].].].]."
};
