/* XPM */
static char *result[] = {
/* columns rows colors chars-per-pixel */
"64 64 188 2 ",
"   c #010101",
".  c #0B0502",
"X  c #070807",
"o  c #080807",
"O  c #03060B",
"+  c #030C0C",
"@  c #0A0A09",
"#  c #130502",
"$  c #130A04",
"%  c #1B0E06",
"&  c #130D0A",
"*  c #1D1007",
"=  c #11100E",
"-  c #1D110A",
";  c #000E11",
":  c #131312",
">  c #191513",
",  c #191817",
"<  c #1B1B1B",
"1  c #161918",
"2  c #2A0D08",
"3  c #241307",
"4  c #23140A",
"5  c #2B160B",
"6  c #2D190D",
"7  c #2E1603",
"8  c #321C0D",
"9  c #3A1E09",
"0  c #2A1D16",
"q  c #3A1F11",
"w  c #321D10",
"e  c #1E211F",
"r  c #39210F",
"t  c #37210F",
"y  c #23201E",
"u  c #362011",
"i  c #3D2312",
"p  c #34271E",
"a  c #232323",
"s  c #2B2927",
"d  c #2A2929",
"f  c #272825",
"g  c #3D2F29",
"h  c #2E302F",
"j  c #2A3231",
"k  c #313533",
"l  c #353B3A",
"z  c #393E3B",
"x  c #343835",
"c  c #481C00",
"v  c #482300",
"b  c #45270D",
"n  c #542F08",
"m  c #502E06",
"M  c #56310B",
"N  c #5A340D",
"B  c #432514",
"V  c #492716",
"C  c #462814",
"Z  c #4B2B16",
"A  c #4C2719",
"S  c #4D2B19",
"D  c #442A1D",
"F  c #522D1A",
"G  c #582E1B",
"H  c #55321A",
"J  c #5C341D",
"K  c #5D381B",
"L  c #5C3610",
"P  c #6C3810",
"I  c #64391E",
"U  c #6C3D1F",
"Y  c #60361F",
"T  c #703C1E",
"R  c #40372F",
"E  c #4B372A",
"W  c #453D35",
"Q  c #483830",
"!  c #453F39",
"~  c #4A3F38",
"^  c #643521",
"/  c #6B3823",
"(  c #6A3723",
")  c #723B26",
"_  c #793F26",
"`  c #793E28",
"'  c #3C413E",
"]  c #6B401F",
"[  c #44413C",
"{  c #4B423A",
"}  c #6F4320",
"|  c #764424",
" . c #7B4426",
".. c #764923",
"X. c #7B4A25",
"o. c #7C4A29",
"O. c #714329",
"+. c #3E4341",
"@. c #424643",
"#. c #454946",
"$. c #494A44",
"%. c #474C49",
"&. c #494E4A",
"*. c #4C514D",
"=. c #51544E",
"-. c #4F5450",
";. c #535652",
":. c #555A54",
">. c #595C56",
",. c #575C58",
"<. c #5A5E59",
"1. c #645040",
"2. c #5D625C",
"3. c #61655E",
"4. c #66685F",
"5. c #5F6863",
"6. c #626661",
"7. c #656963",
"8. c #6A6E65",
"9. c #6A6F69",
"0. c #6D7066",
"q. c #6D726A",
"w. c #707266",
"e. c #72756C",
"r. c #75796E",
"t. c #797B6F",
"y. c #717770",
"u. c #757A71",
"i. c #7A7E73",
"p. c #7A7E78",
"a. c #82452A",
"s. c #834C2B",
"d. c #8B4C2C",
"f. c #874E27",
"g. c #924F2F",
"h. c #85512B",
"j. c #8E542C",
"k. c #8D5527",
"l. c #92542E",
"z. c #96592E",
"x. c #9A5D2F",
"c. c #8E5A30",
"v. c #945531",
"b. c #955A30",
"n. c #9B5C32",
"m. c #985632",
"M. c #A25D35",
"N. c #A85F37",
"B. c #9C6234",
"V. c #9F6638",
"C. c #A36334",
"Z. c #A36139",
"A. c #AB653A",
"S. c #A76A39",
"D. c #AE6D3C",
"F. c #A96637",
"G. c #B46C3D",
"H. c #B96E3F",
"J. c #AD713C",
"K. c #B37137",
"L. c #B4733E",
"P. c #BA703F",
"I. c #C17B3F",
"U. c #B77040",
"Y. c #BD7341",
"T. c #BE7F42",
"R. c #C17542",
"E. c #C37C41",
"W. c #7D8176",
"Q. c #7E8379",
"!. c #808276",
"~. c #81857B",
"^. c #85897E",
"/. c #C48142",
"(. c #C88544",
"). c #C68945",
"_. c #CB8B46",
"`. c #CE8D48",
"'. c #858B82",
"]. c #898E84",
"[. c #8C9186",
"{. c #8D938A",
"}. c #91968C",
"|. c #93988E",
" X c #969C92",
".X c #999E95",
"XX c #9CA097",
"oX c None",
/* pixels */
"oXoXoXoXoXoXoXoXoXoXoXoXoXoXoXoXoXoXoXoXoXoXoXoXoXoXoXoXoXoXoXoXoXoXoXoXoXoXoXoXoXoXoXoXoXoXoXoXoXoXoXoXoXoXoXoXoXoXoXoXoXoXoXoX",
"oXoXoXoXoXoXoXoXoXoXoXoXoXoXoXoXoXoXoXoXoXoXoXoXoXoXoX*.{.].].'.'.{.].].}.9.oXoXoXoXoXoXoXoXoXoXoXoXoXoXoXoXoXoXoXoXoXoXoXoXoXoX",
"oXoXoXoXoXoXoXoXoXoXoXoXoXoXoXoXoXoXoXoXoXoXoXoXoXoXoX].|.'.[.[.].].'.'.Q.'.2.oXoXoXoXoXoXoXoXoXoXoXoXoXoXoXoXoXoXoXoXoXoXoXoXoX",
"oXoXoXoXoXoXoXoXoXoXoXoXoXoXoXoXoXoXoXoXoXoXoXoXoXoXj ].i.i.!.u.u.Q.q.7.7.9.-.oXoXoXoXoXoXoXoXoXoXoXoXoXoXoXoXoXoXoXoXoXoXoXoXoX",
"oXoXoXoXoXoXoXoXoXoXoXoXoXoXoXoXoXoXoXoXoXoXoXoXoXoXj i.Q.i.i.i.p.~.9.6.q.q.+.oXoXoXoXoXoXoXoXoXoXoXoXoXoXoXoXoXoXoXoXoXoXoXoXoX",
"oXoXoXoXoXoXoXoXoXoXoXoXoXoXoXoXoXoXoXoXoXoXoXoXoXoXoX2.W.i.t.i.i.~.w.7.9.7.oXoXoXoXoXoXoXoXoXoXoXoXoXoXoXoXoXoXoXoXoXoXoXoXoXoX",
"oXoXoXoXoXoXoXoXoXoXoXoXoXoXoXoXoXoXoXoXoXoXoXoXoXoXoX;.Q.r.i.t.i.!.e.q.0.2.j oXoXoXoXoXoXoXoXoXoXoXoXoXoXoXoXoXoXoXoXoXoXoXoXoX",
"oXoXoXoXoXoXoXoXoXoXoXoXoXoXoXoXoXoXoXoXoXoXoXoXoX*.%.#.r.r.Q.t.i.p.e.e.u.2.*.:.oXoXoXoXoXoXoXoXoXoXoXoXoXoXoXoXoXoXoXoXoXoXoXoX",
"oXoXoXoXoXoXoXoXoXoXoXoXoXoXoXoX-.2.oXoXoXoXoX2.u.{.Q.%.3.u.t.7.e.i.i.i.u.%.~..X'.0.-.oXoXoXoX0.+.oXoXoXoXoXoXoXoXoXoXoXoXoXoXoX",
"oXoXoXoXoXoXoXoXoXoXoXoXoXoXoX2.Q.Q.=.oXoX2.W.'.Q.r.u.%.:.u.q.q.u.e.p.V.q.*.].u.q.'.].7.oXoXw.|.].*.oXoXoXoXoXoXoXoXoXoXoXoXoXoX",
"oXoXoXoXoXoXoXoXoXoXoXoXoXoX0.].Q.Q.q.;.2. X'.9.q.9.e.:.&.~.Q.i.'.p.p.'.q.5.'.q.9.7.u.].>.8.}.^.[.'.#.oXoXoXoXoXoXoXoXoXoXoXoXoX",
"oXoXoXoXoXoXoXoXoXoXoXoXoX2.].u.q.W.y.y.7.Q.W.W.Q.W.u.7.,.!.Q.!.p.p.p.y.7.q.Q.r.r.q.y.0.=.[.^.].!.!.i.z oXoXoXoXoXoXoXoXoXoXoXoX",
"oXoXoXoXoXoXoXoXoXoXoXoX*.].u.r.W.y.y.W.2.:.^.u.y.r.y.2.*.4.8.q.y.y.q.0.:.u.Q.r.u.q.t.&.r.].^.^.^.!.~.i.oXoXoXoXoXoXoXoXoXoXoXoX",
"oXoXoXoXoXoXoXoXoXoXoXoX#.u.u.q.y.W.W.r.Q.*.8.t.Q.8.g f y s f a e e a f 1 j @.q.q.W.3.7.[.Q.~.!.!.].'.7.oXoXoXoXoXoXoXoXoXoXoXoX",
"oXoXoXoXoXoXoXoXoXoXoXoXoX#.7.Q.r.r.q.e.Q.y.=.3.W r 7 7 7 #     O               z 2.*.'.^.!.!.!.i.^.2.oXoXoXoXoXoXoXoXoXoXoXoXoX",
"oXoXoXoXoXoXoXoXoXoXoXoXoXoX@.7.W.u.y.W.W.q.Q c b C i 8 t - o o O O O     X X       &.'.^.t.^.^.!.>.;.oXoXoXoXoXoXoXoXoXoXoXoXoX",
"oXoXoXoXoXoXoXoXoXoXoXoXoX2.^.*.0.i.q.i.7.g U O.H Z i 6 8 *   .                 X o   @.8.0.Q.Q.&.i.Q.+.oXoXoXoXoXoXoXoXoXoXoXoX",
"oXoXoXoXoXoXoXoXoXoXoXoX*.].'.i.*.y.q.2.Q ..v.o.H Z i t t % .                       X   h 2.7.@.y.^.!.0.k oXoXoXoXoXoXoXoXoXoXoX",
"oXoXoXoXoXoXoXoXoXoXoXoXQ.^.q.Q.2.@.:.g o.Z.n.s.H Z r t 6 %   .                       X   k ' W.'.Q.'.!.:.oXoXoXoXoXoXoXoXoXoXoX",
"oXoXoXoXoXoXoXoXoXoXoX2.Q.r.t.W.Q.2.D h.v.A.Z.h.H H B t t %   .                             #.Q.i.'.^.Q.t.*.oXoXoXoXoXoXoXoXoXoX",
"oXoXoXoXoXoXoXoXoXoXoX,.t.t.Q.Q.u.{ s./.c.A.A.h.Y J C r 6 3 . .                           X   =.Q.!.W.W.t.&.oXoXoXoXoXoXoXoXoXoX",
"oXoXoXoXoXoXoXoXoXoX7.2.:.0.e.!.5.P U.).B.U.A.s.J H Z t 8 3 .                                 e w.!.e.8.;.2.oXoXoXoXoXoXoXoXoXoX",
"oXoXoXoXoXoXoXoXoXoXW.'.0.7.8.u.1.b.U.).C.Y.A.o.K H B q 6 3 . .                             X   +.0.2.7.e.e.*.oXoXoXoXoXoXoXoXoX",
"oXoXoXoXoXoXoXoXoXoXQ.w.u.'.r.=.V.G.L.`.C.Y.Z.s.Y J B 8 6 % . .                                 a *.u.Q.y.r.4.oXoXoXoXoXoXoXoXoX",
"oXoXoXoXoXoXoXoXoX0.!.t.w.w.W.#.K.U.U.`.F.R.F.X.J F B 6 8 % .                                 @   2.i.0.r.t.t.oXoXoXoXoXoXoXoXoX",
"oXoXoXoXoXoXoXoXoX:.!.w.e.w.q.{ K.Y.R.`.C.R.F...F Z B 8 6 % .                                 X   ;.q.w.q.e.i.oXoXoXoXoXoXoXoXoX",
"oXoXoXoXoXoXoXoXoX:.i.t.w.r.3.E L.Y.G.`.n.P.A.s.H Z B t 8 %                                       x 8.t.w.i.i.[ oXoXoXoXoXoXoXoX",
"oXoXoXoXoXoXoXoXoX2.3.2.3.2.[ v Y.G.Z._.b.P.D.h.K H B r p a - $                                     #.2.2.:.<.;.oXoXoXoXoXoXoXoX",
"oXoXoXoXoXoX&.8.'. X.X.XXX}.{ M L.Z.A.).B.Y.D.s.K J C i h a * &                                 X   -.[.{.~.]. X[.i.0.l oXoXoXoX",
"oXoXoXoXoXoX3.u.y.w.<.7.e.q.{ L U.D.G.).C.R.D.s.J H C 6 e d e *                                     &.e.i.i.'.i.0.t.7.l oXoXoXoX",
"oXoXoXoXoXoXy.].e.p.r.9.q.e.{ N U.L.G._.C.Y.A.s.K J i 4 e d a &                                 X   ,.'.t.i.'.!.u.i.7.l oXoXoXoX",
"oXoXoXoXoXoXu.].q.~.].~.w.e.{ N L.L.P._.C.Y.Z.X.J H B y f : < *                                 X   <.'.9.i.Q.i.i.!.7.l oXoXoXoX",
"oXoXoXoXoXoX9.~.u.i.Q.~.W.q.{ N P.H.R.`.C.P.M...H S i s < & 1 $                                 o   7.{.w.i.i.p.i.!.6.l oXoXoXoX",
"oXoXoXoXoXoX2.u.r.i.t.i.i.w.{ N L.Y.R.`.C.G.M.X.Z Z q f < < = #                                 o   6.[.r.i.p.i.r.r.3.z oXoXoXoX",
"oXoXoXoXoXoX,.e.3.7.7.7.t.q.{ N J.R.R.(.C.G.n.X.Z Z 8 a a < & $                                 X   2.].e.9.w.e.7.7.,.z oXoXoXoX",
"oXoXoXoXoXoX;.7.6.<.<.>.2.2.{ N L.R.I._.x.A.n.X.Z Z 6 < a > 3 $                                     &.9.<.<.<.<.<.,.;.z oXoXoXoX",
"oXoXoXoXoXoX+.@.@.@.;.3.<.*.{ N D.R.Y./.j.H.A.s.b B 8 = & 4 6 $                                   X z *.6.7.;.@.' @.+.oXoXoXoXoX",
"oXoXoXoXoXoXoXoXoX3.}..X}.t.{ M D.Y.P./.l.H.A.| B B t * 5 0 4 o                                 X   =.'.}.|.i.%.oXoXoXoXoXoXoXoX",
"oXoXoXoXoXoXoXoXoX7.].].W.t.{ n L.P.R.(.l.G.A.X.B B w 8 u 6 - #                                 X   5.}.8.8.9.#.oXoXoXoXoXoXoXoX",
"oXoXoXoXoXoXoXoXoX,.!.].i.r.{ n D.R.R.E.j.H.D.o.B C u i w 4 3 #                                 o   7.[.r.i.u.#.oXoXoXoXoXoXoXoX",
"oXoXoXoXoXoXoXoXoX:.e.i.!.t.~ M D.R.R./.j.H.F...Z B i t 8 3 $ .                                 o   6.'.e.w.t.%.oXoXoXoXoXoXoXoX",
"oXoXoXoXoXoXoXoXoX:.w.Q.!.r.{ n J.P.P.`.C.P.G.s.Z Z B 8 6 % .                                   X   >.~.7.4.9.%.oXoXoXoXoXoXoXoX",
"oXoXoXoXoXoXoXoXoX>.e.u.e.8.{ N K.R.Y.(.C.R.G.X.S Z B 8 6 % . .                                     ;.p.7.,.7.#.oXoXoXoXoXoXoXoX",
"oXoXoXoXoXoXoXoXoX2.r.9.7.7.{ N D.R.R.E.z.P.C.X.Z Z B 8 6 % .                                       &.y.e.6.9.&.oXoXoXoXoXoXoXoX",
"oXoXoXoXoXoXoXoXoXl *.*.+.l ~ M D.R.P.(.z.H.n...B Z b 8 6 % .                                       @.:.*.*.;.x oXoXoXoXoXoXoXoX",
"oXoXoXoXoXoX*.8.u.i.i.u.y.q.! n G.G.Y._.z.A.m...V V B 8 6 % . .                                     @.9.y.y.y.7.7.3.5.+.oXoXoXoX",
"oXoXoXoXoXoX5.].[.}.}. X{.'.{ N J.P.P._.n.M.l.o.V B V r 8 %                                     o   6. X^.'.].!.'.^.7.l oXoXoXoX",
"oXoXoXoXoXoX7.~.w.q.t.e.t.7.~ N D.E.Y.I.j.n.d./ V B B q 6 #                                     X   2.p.=.7.w.i.!.!.2.l oXoXoXoX",
"oXoXoXoXoXoX8.Q.u.Q.~.i.t.0.! M D.P.G./.f.z.s./ Z B q 8 5 %                                     X   5.'.3.7.V.{.'.p.5.+.oXoXoXoX",
"oXoXoXoXoXoXy.'.e.^.!.e.8.0.! M D.G.A.(.f.g.f.} B B q 8 6 #                                     o   6.}.8.t.p.'.W.Q.5.' oXoXoXoX",
"oXoXoXoXoXoXq.].u.!.Q.t.0.0.! M G.Z.N./. .g. .] q i 6 8 3                                       o   5.[.i.!.!.i.9.W.5.+.oXoXoXoX",
"oXoXoXoXoXoX7.^.t.i.!.t.q.7.{ L G.z.n.H.U a.) I q q r 2                                         X   <.'.Q.t.i.'.y.y.5.+.oXoXoXoX",
"oXoXoXoXoXoX2.!.i.i.u.9.0.5.! N D.k.l.G.^ ` / Y q B 3                                           X   *.p.~.p.r.Q.i.q.;.l oXoXoXoX",
"oXoXoXoXoXoX=.7.7.:.#.*.-.-.! M F.f.l.M.Y ) ^ J B 5               X   X X X X   X     X X X X   X o z @.#.&.-.,.,.#.&.' oXoXoXoX",
"oXoXoXoXoXoXoXoXl &.q.Q.q.7.W M S.d.a.m.J ) ^ J 3     X   o @ @ @ @ @ @ @ @ @ X X X o o X X X X X X @.9.Q.Q.q.@.oXoXoXoXoXoXoXoX",
"oXoXoXoXoXoXoXoXoX<.p.Q.~.W.! n D.a._ g.G ) ( V   . X @ o @ @ @ @ @ @ o @ @ X X X X X X X X X X &   ;.].Q.Q.p.%.oXoXoXoXoXoXoXoX",
"oXoXoXoXoXoXoXoXoX>.0.e.i.i.[ M U.o.) s.F ) B   = @ @ @ @ @ X X @ @ X X X X X   X O   X   X X X :   7.{.8.q.w.&.oXoXoXoXoXoXoXoX",
"oXoXoXoXoXoXoXoXoX<.i.u.q.u.{ M B.` ) a.F A O & @ @ @ X @ X X X o o X X   X X   oXoXoXo X X X o 1   7.{.0.W.u.#.oXoXoXoXoXoXoXoX",
"oXoXoXoXoXoXoXoXoX3.!.r.q.i.! M V.) ) d.A O & @ @ @ X X X X X X X X oXoXoXoXoXoXoXoXoXoXoXoXoXoXoXoX<.!.q.w.i.*.oXoXoXoXoXoXoXoX",
"oXoXoXoXoXoXoXoXoX3.!.e.e.w.W M n.( d.J O @ X X @ @ X   X X oXoXoXoXoXoXoXoXoXoXoXoXoXoXoXoXoXoXoXoX:.i.r.u.!.=.oXoXoXoXoXoXoXoX",
"oXoXoXoXoXoXoXoXoX2.u.8.7.6.! M V.) G O @ @ @ @ @ @ O oXoXoXoXoXoXoXoXoXoXoXoXoXoXoXoXoXoXoXoXoXoXoX*.r.u.Q.^.*.oXoXoXoXoXoXoXoX",
"oXoXoXoXoXoXoXoXoX:.q.7.7.2.[ m v.A O O @ @ @ @ = = oXoXoXoXoXoXoXoXoXoXoXoXoXoXoXoXoXoXoXoXoXoXoXoX&.r.y.i.Q.*.oXoXoXoXoXoXoXoX",
"oXoXoXoXoXoXoXoXoX&.*.-.=.%.l . ; ; 4 2 @ = : 1 oXoXoXoXoXoXoXoXoXoXoXoXoXoXoXoXoXoXoXoXoXoXoXoXoXoXz -.-.-.:.@.oXoXoXoXoXoXoXoX",
"oXoXoXoXoXoXoXoXoXoXoXoXoXoXoXoXoXoXoXoXoXoXoXoXoXoXoXoXoXoXoXoXoXoXoXoXoXoXoXoXoXoXoXoXoXoXoXoXoXoXoXoXoXoXoXoXoXoXoXoXoXoXoXoX"
};
