/* XPM */
static char *result[] = {
/* columns rows colors chars-per-pixel */
"65 65 40 1 ",
"  c #161619",
". c #18171A",
"X c #1C1B1C",
"o c #201F1F",
"O c #21201F",
"+ c #242321",
"@ c #282724",
"# c #2A2926",
"$ c #2E2D29",
"% c #302F2A",
"& c #33322C",
"* c #39362F",
"= c #393631",
"- c #3E3B34",
"; c #403E36",
": c #444137",
"> c #454339",
", c #4A463B",
"< c #4D493D",
"1 c #514C3F",
"2 c #534E40",
"3 c #565445",
"4 c #5C5645",
"5 c #5F5847",
"6 c #5F5948",
"7 c #605947",
"8 c #615B49",
"9 c #63614E",
"0 c #656351",
"q c #6A6652",
"w c #6E6A56",
"e c #6F6D58",
"r c #706D57",
"t c #716E59",
"y c #76755D",
"u c #78765F",
"i c #79785F",
"p c #797760",
"a c #7B7A61",
"s c #807F67",
/* pixels */
"pppaiiiipppp-XOOqppppppppppppa3 3pw4qapppppppaqX%70ppppppaiiiiy#o",
"piuuyiiiiiii-@Oo0ppppppppppppp3 3ae3qppppppppp0o=78pppppipyiiit#o",
"iu,>7888888754&O=>4888882>;>2;&.3a0-:;262;283;<45588888;>;>>>>;@o",
"iu>-4555556567*O=;3577572-;---%X3a9---262=253-,85778474;;;;;;;-++",
"pu>-6655555565:*2455555535,--;%+#%&-23554445544555555553544-;;-++",
"iu>-4655555565,;35555555552;;;%+++&-23555555555555555577554--;-++",
"pu645555555567>-4555555555532-%o;4443555555555555555577455544;-@+",
"ai865555555567>-255555555555,-%o;7856555555555775555545755554;-+o",
"8855555574555544,;3555772;;;;;%X3p9;1555555577775567575555565;-++",
"8555555577755555>-3555772;;-;;%X3a0=<555555547477557555555574--@+",
"yy755755757555554356572;;;-;;;%X4pw345555555777455545557554;:;-++",
"py77455555555555755655,;-;;;;;%X3pw555555555477755557555554----++",
"pp84477574775545467477,;;-22;;&.3ae436555555557755555555664;-:-+o",
"pp87777777745555555577,---272;$X3ae666555555554555555555644;;;-++",
"pp2;4747747755757774774233572-&X3a0;27555555555555555555464;-;-++",
"pp;;4747777455554577747775572;$X6a9-<8555555555555555555664-;;-++",
"pp4277775555555555555555772;;;%.4p0===;777745555555555554>>;-;-@+",
"pp8774745555555755555555772=;;&.3s0;%X;854775575555555554--;;;-Oo",
"00775577555557775555555577;;;;&o&,=@-22774777555555555564----:-@+",
"747475575555747455545555772=;;&++XXX;77557745575555555554------O+",
"ee55455555757474767757557733,;%+=2<<2775577557555555555571331--@+",
"pp857774775577775454656477772;%X;7777777544555555455555577466:-@+",
"pp8555752,,,4548752,,,457722;;%X2t0747474777554755555555664,,;-O+",
"pp655575;-;-358457,--;2788;-;;%X3pr477778477557755755555464;---++",
"pp846622-;--377755,--;,,382-;;%X3s0,2555477676474,<,1555774;;;-Oo",
"pp8564------354757,-;;--272-;;%X4a9-<555646447774;--:555564;;;-@+",
"pp22462-;;;-382235,-;;;-;2;;=$@X3a0=<78566664<<<>;;->7554<,;;%$Oo",
"pp;=44--;;;-34--352-;;-;;--;$++X3a0=<68566661;-;-;;;,7754--;-OO@+",
"pp;-22>-->-;22>-,2>;;;;;;;;;&+oX6a8->1<1<<<2,;-;;;;;;111,;;%$+O@+",
"ap2--=----;--->--;;;;;;;;;;;&++X6a0--;;-:-;;;;;;;;;;;;;;;;;+O++O+",
"32&$%$%%&$%%$$$$$%%&$$%%$%%&@o+o-3>$%%%%&$&$&$%%%$$%$%%%%%%oOOO++",
"  XXXXooXXXXXXXXX.o+XXXX.XX.XXo+X .XXXXoXX.XXX.XXXXXXXX.XXXXoXX++",
"333424,;3444434463-$2633333363-.;333332;,4333334333344333633333@o",
"aaapas86paapappsaa2=qaapaaapaa3 3saasst3wpaaasaaaaasiiaasaaasai#o",
"aaq9ee66qewwee9809320ewwe999002 3ae99062490wrwwwq9qrwrw99999999@o",
"pp;=4754644455;;==2653542=-=--$X3s9===---*,764463=:6581*=-=-=-=++",
"pp;-45556464552<2233555522---;%.3a9=><<<<<1754553,15554<<<<;-;-++",
"pp>-47554666555566555555362-;;%o3i9-<6836777555566555555663;-;-@+",
"pp2246555555555588555566642=;;%X3s0,166677477575655555556531<;=+o",
"pp8355555555555553556664642---%X3aw66666467555556655555545663:-++",
"pp85555555555555555555555522;;%X3ae47485555555755555575565554--++",
"pp855555555555555555555555682;$.3sw67848485555555555555555554:-@+",
"ee655555555555555555555555662-$o1t911864555555755555555755553:-O+",
"54555555555555555555557555552=$o:6<-<767555555555555755555554:-@+",
"00555555555555557455577754652;%X<01-<877555555555477555555564--@o",
"pp875555555555557755747455652;%X4a9-<764555555555546555555544:-++",
"ai425555555555554757477755642=$X3aq>1777555555555577555655631:-++",
"py;-4555555555555777778466642-$X3sw477465555555555575556454--:-++",
"pi<>4755557777744777744775752-$X2tq555554777555555554777432;;;-++",
"ap875755554774777547777747572-$o;557555574745755555575483;=;;;-++",
"ee775455777757775555777755442-$o2988555577575557555547474;-;;;-+o",
"-;4755554747577455757474542=-;$.3pw4455747555555555575574;-;-;-++",
"==5555555555577555555555552;;;$o2pq4477577746755555554474,,;;;-++",
"o@455555555574555555555555552;$o>8557775747774757555777757777;-@+",
"=-455555555555555555555555442-%o,9858447474446555555777747774;-++",
"py8555555555555555555555552=--%X3pw54785772-,4655555747455574;;+o",
"sp747455555555555555555544,--;%X3aq35755561*,6656355555555542;-++",
"pp;;47545555555555555555,;;;;;%X3a0=235556<X*76585555555554;;;-@+",
"py;;34445555445555664545,;;-;;%.4sq-<43466<X*54555555555544;-;-++",
"py;;;;;;4555;;355568,--;;;;;;;%X3ae52;;;<71X$;;->55555554---;--+o",
"py;;;;=;2444;;344444,--;;-----%X3aw3<--;,5,+$--->55454453;-;---++",
"sy;;;;;;;;;;;;;;;-;;-;;;;;%O+++X3a9-;;;;;;;;*+#;;;;;;-;;;-;--@+++",
"yt;;;-=;;;;;=;;;---------;%Oo++X3p8=-;------&+$-------------=+o++",
"##@@@++++++@+++++@+@O@+@O@O++++o@$@++++o+@+++++++@+++@+@+++@+++++",
"o+++o+++o+++o+++o++o+++o++++++++ooo+++++o+++o+++o+++o+++o++++o+++"
};
