/* XPM */
static char *result[] = {
/* columns rows colors chars-per-pixel */
"64 64 167 2 ",
"   c #201F1F",
".  c #20201F",
"X  c #21201F",
"o  c #212020",
"O  c #222120",
"+  c #222220",
"@  c #232220",
"#  c #222221",
"$  c #232221",
"%  c #232321",
"&  c #242321",
"*  c #242322",
"=  c #242422",
"-  c #252422",
";  c #252522",
":  c #252523",
">  c #262522",
",  c #262523",
"<  c #262623",
"1  c #272623",
"2  c #272624",
"3  c #272724",
"4  c #282724",
"5  c #292924",
"6  c #292825",
"7  c #292925",
"8  c #2A2825",
"9  c #2A2925",
"0  c #2B2925",
"q  c #2A2A25",
"w  c #2A2926",
"e  c #2B2927",
"r  c #2A2A26",
"t  c #2B2A26",
"y  c #2B2B26",
"u  c #2B2A27",
"i  c #2B2B27",
"p  c #2C2B27",
"a  c #2D2B27",
"s  c #2C2C27",
"d  c #2D2C27",
"f  c #2D2C28",
"g  c #2F2E29",
"h  c #302E29",
"j  c #3B3932",
"k  c #3C3A33",
"l  c #3D3A33",
"z  c #3C3B33",
"x  c #3D3B33",
"c  c #3D3B34",
"v  c #3E3B34",
"b  c #3D3C34",
"n  c #3E3C34",
"m  c #3F3C34",
"M  c #3F3D34",
"N  c #3E3C35",
"B  c #3F3C35",
"V  c #3F3D35",
"C  c #403D35",
"Z  c #403E35",
"A  c #413E35",
"S  c #403D36",
"D  c #403E36",
"F  c #413E36",
"G  c #413F36",
"H  c #413F37",
"J  c #423F36",
"K  c #423F37",
"L  c #433F37",
"P  c #424036",
"I  c #424037",
"U  c #434037",
"Y  c #424137",
"T  c #434137",
"R  c #444137",
"E  c #434038",
"W  c #434138",
"Q  c #444038",
"!  c #444138",
"~  c #454138",
"^  c #444238",
"/  c #454238",
"(  c #444239",
")  c #454239",
"_  c #454339",
"`  c #464339",
"'  c #46433A",
"]  c #464439",
"[  c #46443A",
"{  c #47443A",
"}  c #47453A",
"|  c #47453B",
" . c #48453B",
".. c #575242",
"X. c #595343",
"o. c #595444",
"O. c #5A5444",
"+. c #5A5544",
"@. c #5B5544",
"#. c #5A5545",
"$. c #5B5545",
"%. c #5B5645",
"&. c #5C5645",
"*. c #5D5645",
"=. c #5C5646",
"-. c #5D5646",
";. c #5C5746",
":. c #5D5746",
">. c #5D5747",
",. c #5E5746",
"<. c #5E5747",
"1. c #5D5847",
"2. c #5E5846",
"3. c #5E5847",
"4. c #5F5847",
"5. c #5E5947",
"6. c #5F5947",
"7. c #5E5848",
"8. c #5F5848",
"9. c #5E5948",
"0. c #5F5948",
"q. c #5F5A48",
"w. c #605948",
"e. c #605A48",
"r. c #615A48",
"t. c #605A49",
"y. c #615A49",
"u. c #605B49",
"i. c #615B49",
"p. c #615B4A",
"a. c #625B4A",
"s. c #625C4A",
"d. c #706F59",
"f. c #71705A",
"g. c #72705A",
"h. c #72715A",
"j. c #72715B",
"k. c #73715B",
"l. c #73725B",
"z. c #74725B",
"x. c #74725C",
"c. c #74735C",
"v. c #75735C",
"b. c #75745C",
"n. c #75745D",
"m. c #76745D",
"M. c #76755D",
"N. c #77755D",
"B. c #76755E",
"V. c #77755E",
"C. c #77765E",
"Z. c #78755E",
"A. c #78765E",
"S. c #78765F",
"D. c #78775F",
"F. c #79775F",
"G. c #79785F",
"H. c #787760",
"J. c #797760",
"K. c #7A7760",
"L. c #797860",
"P. c #7A7860",
"I. c #7A7960",
"U. c #7A7961",
"Y. c #7B7961",
"T. c #7B7A61",
"R. c #7C7A64",
/* pixels */
"L.L.I.I.L.P.L.L.P.L.Y.n.w   X f n.T.L.L.L.L.P.L.I.I.I.L.T.m.w 7 n.F.w.i.F.U.L.L.I.I.P.L.T.V.u * @.a.D.I.L.P.I.P.I.I.I.P.Y.V.f   ",
"L.G.B.B.A.S.S.D.S.A.L.z.h 1 O s h.S.C.D.D.A.S.D.V.V.B.M.S.j.w 7 n.S.3.0.v.C.A.A.V.V.S.C.S.k.h 0 $.p.N.F.S.A.V.V.V.V.B.M.C.l.p . ",
"P.V.} ) q.i.i.i.i.u.i.e.:.o.1 = H ] 0.i.i.t.i.0.[ W ^ ^ ( Y $ t B.D.` F W _ q.q.) _ e.0.) ^ @.:.3.4.t.i.i.0.` W ! W ^ ^ ( I , + ",
"I.V.I m -.3.,.,.2.2.,.,.e.&.8 2 B U -.3.,.,.3.&.U C B n B x $ r g.z.E n C P :.:.J J :.:.J K 3.w.3.3.2.,.3.-.U C A Z m n B x - $ ",
"P.B.W Z :.6.4.4.4.4.4.4.4.:.C C %.2.3.4.4.4.4.3.3.&.G N F n : $ 6 i l K $.3.3.4.:.:.4.4.:.:.3.3.3.4.4.4.4.3.:.:.,.&.G B D m : $ ",
"P.V.` U :.6.3.4.4.4.4.3.6.:.J K :.6.3.4.4.4.4.3.6.:.! F D n : $ , 8 V ! :.6.3.3.6.6.4.4.6.6.4.4.4.4.4.4.4.4.6.4.6.,.! F D n ; $ ",
"I.D.0.-.4.4.4.4.4.4.4.3.6.:.D D :.6.3.4.4.4.4.4.6.4.3.$.I c = 3 X.:.:.,.3.3.4.3.3.3.4.4.3.3.4.4.3.3.4.4.4.4.3.3.3.3.,.$.K n , $ ",
"F.M.t.3.4.4.4.4.4.4.4.3.6.:.U E $.,.3.4.4.4.3.3.:.:.2.$.I c * 4 5.s.:.:.3.4.4.3.3.4.4.4.4.4.4.4.4.4.4.4.4.4.4.4.4.3.6.:.K v , $ ",
"e.e.3.3.4.4.3.4.4.4.4.4.4.3.:.$.I I :.6.3.3.w.:.! F J G D n $ t c.m.^ J -.6.3.4.4.4.4.4.4.4.4.4.4.4.4.4.4.4.4.4.3.3.6.:.K v , $ ",
"i.i.4.3.4.4.4.4.4.4.4.4.4.3.6.:.U U :.4.3.3.:.+.J N V V D n $ t m.S.) K :.6.3.4.4.4.4.4.4.4.4.4.4.4.4.4.4.4.4.4.4.3.:.$.J n , $ ",
"F.V.t.2.4.4.4.4.4.4.4.4.4.4.3.3.:.,.4.3.6.:.R D Z C V V C n $ y b.S.0.-.4.4.4.3.3.4.4.4.4.4.4.4.3.3.4.4.4.4.4.3.6.:.U Z D n ; $ ",
"P.A.e.,.4.4.3.4.4.4.4.4.4.4.3.4.6.6.4.3.6.:.J B C C G G D n $ y n.D.t.2.4.3.4.3.4.4.4.3.4.4.4.3.3.3.4.4.4.4.4.3.6.:.G n D n ; $ ",
"L.C.t.3.4.4.4.4.4.4.4.4.4.4.4.4.3.3.4.3.6.:.J B B G %.$.I n $ y n.F.t.3.4.4.4.3.3.4.4.4.4.4.4.4.4.4.4.4.4.4.4.3.6.:.K V D n ; $ ",
"P.A.0.-.4.4.4.4.4.4.4.4.4.4.4.4.4.4.4.3.6.:.! F F ! 3.:.I n $ y n.S.7.-.3.3.4.4.4.4.4.4.4.4.4.4.3.3.4.4.4.4.4.3.4.:.K V D n ; $ ",
"P.V._ J :.6.3.4.4.4.4.4.4.4.4.4.4.4.4.4.4.3.:.=.=.-.6.=.U n $ t n.C._ U :.w.3.3.4.4.4.4.4.4.4.4.4.4.4.4.4.4.4.3.6.:.K B D n ; $ ",
"P.V.) J :.6.3.4.4.4.4.4.4.4.4.3.3.4.3.4.3.4.6.6.6.4.:.O.I n $ t n.V.E C O.&.3.4.4.4.4.3.4.4.4.3.3.3.4.4.4.4.4.3.:.$.J B D n ; $ ",
"U.S.9.&.4.4.4.4.4.4.4.4.4.4.4.4.4.4.4.4.4.4.3.3.4.:.! F D n $ t V.D.) c 4 t %.6.3.4.4.4.4.4.4.4.4.4.4.4.3.3.6.:.! G C V C n ; $ ",
"D.m.t.4.4.4.4.4.4.4.4.4.4.4.4.4.3.4.4.4.4.4.4.3.6.:.G n D n $ w f.k.U j 6 a &.6.3.4.4.4.4.4.4.4.3.3.4.4.4.3.6.:.G N C C C n ; $ ",
"e.e.4.3.4.4.4.4.4.4.4.4.4.4.4.4.4.4.4.4.4.4.4.3.6.:.G n D n : $ w t $ 6 X.:.3.4.4.4.4.4.4.4.4.4.4.4.4.4.4.3.6.:.G B V V C n ; $ ",
"t.e.4.3.4.4.4.4.3.3.3.3.4.4.4.4.4.4.3.3.3.3.4.3.6.:.U F F n : $ 1 1 , d =.e.3.3.4.4.4.4.4.4.4.4.3.3.4.4.3.3.6.:.! F G F S n ; $ ",
"S.m.e.2.4.4.4.4.6.6.6.6.4.4.4.4.3.4.6.6.6.6.4.4.4.3.2.$.U c = 4 ..$.O.$.3.3.4.4.3.4.4.4.4.4.4.4.3.3.4.4.4.4.4.3.:.=.,.%.J n , $ ",
"U.S.t.2.4.4.3.3.:.=.=.:.3.4.4.4.4.3.=.=.=.:.3.3.4.3.,.$.I c * 4 3.s.6.6.4.4.4.3.4.4.4.4.4.4.4.4.3.3.3.3.4.4.4.3.6.4.:.&.K v , $ ",
"L.C.t.2.4.3.6.:.U F F U =.6.3.3.6.-.U F D ! 2.6.4.:.U D F n $ t k.V.t.2.4.3.4.3.3.4.4.4.4.4.4.4.6.6.6.6.4.3.4.3.4.:.U F D n ; $ ",
"L.C.e.2.4.3.:.$.F B B F =.6.3.3.6.:.F B N J %.:.4.:.G n Z n $ y n.F.7.&.4.4.4.3.4.4.4.3.3.3.3.3.:.-.-.=.3.4.4.3.4.:.G n C n - $ ",
"P.C.t.3.6.:.! J Z C V G =.6.4.4.6.:.J V C Z J ! 2.2.J V F M $ t n.C.` U :.6.3.3.4.4.3.4.6.4.6.:.! K K ! :.6.3.3.6.:.K V F m : @ ",
"P.A.3.&.6.=.F N C C V G =.4.=.:.4.-.G V C C n F $.%.G B n x $ t n.C.E C =.6.3.3.3.3.3.3.:.:.:.$.F B n K :.4.3.3.:.$.J B n z - $ ",
"P.V._ U 3.:.G V C C V F :.3.U U 3.,.G V C C C C J G D v 4 : X y n.C.W F :.w.6.6.6.6.w.:.R G K J C Z V U 2.6.6.<.! G F B 2 - & % ",
"L.B.E V %.$.F V C C V F $.$.Z S $.$.F V C V V V V B C v : $ X y n.V.W Z $.:.&.=.=.&.:.$.F n V V V C B J $.=.=.$.F n n k - O % % ",
"T.S.) V U I D D D D C D U K D D U I D S D D D D D D F n , & X p B.D.( B U U U U U U U U F D D D D D D Z K U U I F m 4 - & % % % ",
"m.j.I x n n n n n n n n n n n n n n n n n n n n n n V x < * o t f.k.I x n n c b n n n n n n n n n n n n n n n n M x , $ = * % % ",
"e w $ $ $ $ * * $ $ $ $ $ $ $ $ $ $ - - $ $ $ $ $ $ $ $ . X $ & w w $ $ $ $ = * $ $ $ $ $ $ $ $ $ $ $ $ $ $ $ $ $ $ X X . X $ % ",
"9 9 t t y t 4 4 t y y y y y t t y t , , t y y y t t t t p t & & 7 q t t y t 4 4 t t y y y y y y t t y y y y t t t t p p p t & $ ",
"v.b.n.n.n.l.&.1.c.n.n.n.n.n.n.n.B.j.D D f.M.v.n.n.n.n.n.V.f.w 7 d.M.n.n.M.c.1.:.z.M.b.n.n.n.n.n.n.n.n.n.n.n.n.n.n.n.n.n.B.h.p . ",
"U.U.C.C.P.A.e.i.S.P.F.J.K.F.V.C.D.c.) _ m.P.F.F.A.C.C.V.F.k.6 q M.T.V.C.S.m.t.0.m.S.F.K.J.J.J.J.S.C.F.J.J.F.C.C.C.C.C.V.D.c.p . ",
"L.V.| ) 0.y.3.3.t.t.t.t.i.0._ W W _ $.:.t.t.y.8.` W ^ ^ ( I $ t n.V. .U ^ W G G I ` 0.y.t.t.y.0._ _ 0.y.y.0.` W ! W ^ ^ ( I , + ",
"P.B.I M -.3.3.4.2.,.,.,.3.-.U Z C U 2.6.,.,.3.&.U C m n B x $ t n.C.E x F F G J C U :.3.,.,.3.&.K K *.3.2.=.U C F F m n m x - $ ",
"I.V.W Z :.6.3.4.4.4.4.4.4.4.:.:.:.:.3.3.4.4.4.4.:.$.I V F M $ t n.C.W Z $.:.=.=.-.:.4.4.4.4.4.4.:.=.3.4.4.4.:.=.:.$.J B F m : $ ",
"P.V._ U :.6.3.4.4.4.4.4.4.4.6.6.6.6.4.3.4.4.4.3.0.:.J V D n $ t n.C._ U :.w.6.6.6.6.4.4.4.4.4.4.6.6.4.4.3.4.6.6.6.,.! F D n : $ ",
"P.A.7.&.4.4.4.4.4.4.4.4.4.4.3.3.3.3.4.4.4.4.4.3.6.:.G n D n $ y n.S.7.&.4.3.3.3.3.3.4.4.4.4.4.4.3.3.4.4.4.4.3.3.3.3.:.$.K n , $ ",
"L.C.t.3.4.4.4.4.4.4.4.4.4.4.4.4.4.4.4.4.4.4.4.3.6.:./ J F n $ y b.S.t.3.4.4.4.4.4.4.4.4.4.4.4.4.4.4.4.4.4.4.4.4.4.3.6.:.K v , $ ",
"I.S.e.2.4.4.4.4.4.4.4.4.4.4.4.4.3.4.4.4.4.4.4.4.4.3.:.$.I n $ y n.F.t.3.4.4.4.3.3.4.4.4.4.4.4.4.3.3.4.4.4.4.4.4.4.3.4.:.K n , $ ",
"S.m.e.2.4.4.4.4.4.4.4.4.4.4.4.4.4.4.4.4.4.4.4.4.4.3.w.:.U n $ t l.V.3.&.4.4.4.4.4.4.4.4.4.4.4.4.4.4.4.4.4.4.4.4.4.3.6.:.K v , $ ",
"t.t.4.3.4.4.3.4.4.4.4.4.4.4.4.3.3.4.4.4.4.4.4.4.4.3.6.&.U c * 4 >.0.I U -.6.3.3.3.4.4.3.4.4.4.3.3.3.4.4.4.4.4.4.3.3.6.:.K n , $ ",
"e.e.3.3.4.4.4.4.4.4.4.4.4.4.4.4.4.4.4.4.4.4.4.4.4.3.6.=.U c * 4 :.4.C G =.6.3.4.4.4.4.4.4.4.4.4.4.4.4.4.4.4.4.4.4.3.4.:.K n , $ ",
"A.m.t.4.4.3.4.4.4.4.4.4.4.4.4.4.4.4.4.4.4.4.4.4.4.3.6.=.U n $ t z.m.E Z =.6.3.4.4.4.4.4.4.4.4.4.4.4.4.4.4.4.4.4.3.3.6.:.K v , $ ",
"U.D.9.=.4.4.4.4.4.4.4.4.4.4.4.4.3.4.4.4.4.4.4.4.4.3.6.=.U n $ t M.S._ U :.6.3.3.3.4.4.4.4.4.4.4.3.3.4.4.4.4.4.4.3.3.:.$.K n , $ ",
"P.V.) J :.6.3.4.4.4.4.4.4.4.4.4.4.4.4.4.4.4.4.4.4.3.6.=.U n $ y n.F.7.&.4.4.4.4.4.4.4.4.4.4.4.4.4.4.4.4.4.4.4.3.6.,.! F D n : $ ",
"P.B.) K :.6.3.4.4.4.4.4.4.4.4.3.3.4.4.4.4.4.4.3.4.3.6.&.U n $ t l.V.y.3.4.3.4.3.3.4.4.3.4.4.4.3.3.3.4.4.4.4.4.3.:.$.F n D n ; $ ",
"U.S.7.&.4.4.4.4.4.4.4.4.4.4.4.4.4.4.4.4.4.4.4.4.4.3.w.:.U c * 4 ;.i.3.3.4.4.4.4.4.4.4.4.4.4.4.4.4.4.4.4.3.3.6.:.! F D C C n ; $ ",
"V.v.t.4.4.4.4.4.4.4.4.4.4.4.4.4.4.4.4.4.4.4.4.4.4.3.:.#.U c * 4 ;.i.3.3.4.4.4.4.4.4.4.4.4.4.4.4.4.4.4.4.4.3.6.:.G B C C C n ; $ ",
"_ { :.4.3.4.4.4.4.4.4.4.4.4.4.4.4.4.4.4.4.4.4.3.6.:.U C D n $ t c.A.e.2.4.4.4.3.4.4.4.4.4.4.4.4.4.4.4.4.3.3.6.:.F n V B C n ; $ ",
"l V :.6.3.4.4.4.4.4.4.4.4.4.4.4.4.4.4.4.4.4.4.3.6.:.R F D n $ y l.Z.t.2.4.4.4.4.4.4.3.3.4.4.4.4.4.4.4.4.4.3.6.:.! K U K Z n ; $ ",
"$ 8 &.6.3.4.4.4.4.4.4.4.4.4.4.4.4.4.4.4.4.4.4.4.4.3.3.$.I c * 4 ;.i.4.3.4.4.4.4.3.4.6.6.4.4.4.4.4.4.4.4.4.4.4.3.:.:.,.%.J n , $ ",
"7 g &.6.3.4.4.4.4.4.4.4.4.4.4.4.4.4.4.4.4.4.4.4.3.3.3.$.U c * 4 =.r.3.3.4.4.4.4.4.3.:.:.3.4.4.4.4.4.4.4.4.4.4.4.6.4.6.:.K v , $ ",
"n.z.t.4.4.4.4.4.4.4.4.4.4.4.4.4.3.4.4.4.4.4.4.3.6.:.! F D n $ t z.V.t.3.4.4.4.3.6.:.! Q =.6.3.4.3.3.4.4.4.4.4.4.3.3.6.:.K v , $ ",
"Y.F.0.-.3.3.3.3.4.4.4.4.3.3.4.4.4.4.4.4.3.3.3.3.<.$.G n D n $ y n.F.0.-.4.3.3.3.6.:.V B =.6.3.3.3.4.4.4.4.4.4.4.3.3.,.$.K n , $ ",
"L.B.` L 2.6.6.6.4.4.4.4.6.6.4.4.4.4.4.4.6.4.6.:.~ F D C D n $ t n.C.) K :.6.4.4.6.$.9 6 &.w.4.6.4.3.4.4.4.4.4.3.6.,.! F D n : $ ",
"P.B.W C &.,.:.:.3.3.3.3.:.:.3.3.3.3.3.3.:.:.,.$.J n C V C n $ 5 H.R.P J $.,.:.:.6.$.2 , O.3.:.:.3.3.3.3.3.3.3.3.,.&.G n C n ; $ ",
"P.B.^ m K K F ! ,.6.6.,.T U :.0.4.4.w.-.! G K J C C Z C D M $ t n.F.0.$.! G G ! 3.&.4 * F U F ! :.6.4.6.6.4.6.,.! G Z C D m : $ ",
"L.M.! n V V n F $.:.:.&.F Z %.:.:.:.:.#.F n V B V V n n B x $ y v.S.0.@.J n n G &.O.6 , k n n F $.:.:.:.:.:.:.$.F n C V B x - $ ",
"Y.C.( m F D D D K K K J D D K K K K K J D D D Z D n 2 - , , X p M.D.' Z F D D D K J B x 2 4 B F J K K K K K K K D Z D B 4 - & $ ",
"V.l.I x M n n n n n n n n n n n n n n n n n n n M z - O $ % X t h.x.K k m n n n n v V c = - x m v n n n n n n n n n m x - O % % ",
"d p > - ; - - - , , , , - - , , , , , , ; - - - : - & % % % $ & p p , ; : - - ; , , - - % % - : , , , , , , , , - - ; - & % % % ",
"  . # $ $ $ $ $ $ $ $ $ $ $ $ $ $ $ $ $ $ $ $ $ $ $ $ % % % % $ . . + $ $ $ $ $ $ $ $ $ $ $ $ $ $ $ $ $ $ $ $ $ $ $ $ $ $ % % % "
};
