/* XPM */
static char *result[] = {
/* columns rows colors chars-per-pixel */
"64 64 67 1 ",
"  c #2D261E",
". c #342D1D",
"X c #38311F",
"o c #342E25",
"O c #3C3523",
"+ c #363229",
"@ c #3B352D",
"# c #3C382F",
"$ c #3E3A31",
"% c #423B2D",
"& c #423C33",
"* c #463F39",
"= c #454035",
"- c #4C4535",
"; c #464239",
": c #4A443B",
"> c #534C3C",
", c #57513E",
"< c #4F4B41",
"1 c #554E44",
"2 c #565145",
"3 c #5B5544",
"4 c #5E5946",
"5 c #565249",
"6 c #5B554B",
"7 c #5D594C",
"8 c #5E5A51",
"9 c #605947",
"0 c #625C4C",
"q c #635D52",
"w c #66604D",
"e c #68624F",
"r c #666152",
"t c #6B6554",
"y c #6E6955",
"u c #6C665A",
"i c #6E695A",
"p c #706756",
"a c #716A57",
"s c #716759",
"d c #726B5A",
"f c #76715E",
"g c #78715F",
"h c #6F6D61",
"j c #746D62",
"k c #796D61",
"l c #767062",
"z c #7A7363",
"x c #7D7965",
"c c #7D756B",
"v c #7E786C",
"b c #7F7870",
"n c #807A67",
"m c #847D6D",
"M c #857D72",
"N c #87826E",
"B c #88816F",
"V c #878073",
"C c #8B8573",
"Z c #8F8876",
"A c #8C8579",
"S c #8F887A",
"D c #908977",
"F c #918B79",
"G c #95907C",
"H c #968E83",
"J c #979080",
/* pixels */
"CmZCmBDFm>%9ZDNNMMMM1qMMHHMquMM1MZMZZZMZB>.9CDBmBmZx,4nCNGNyuVb&",
"Dw9etddde9,ee99e06kq16jqqq666qq399999eeee99ep94009tt,4yyyw478q8#",
"D99daafgpafdp09900hjskkqjqqqq6qq13990eppeaggp099w7tzyafwyw4yu75&",
"C0andafdpppdfgp0jsjjjkjqukks0607eeppffgnaadaadaeltsgffawwyyyr86$",
"Bepapddepdfdaeaddusiquq41qsu0904pppapfffaadapppdjuiyyte4>4rq775@",
"e0dapggdddffapdxujzjjdju6qjkkqtsdfdffpppfdffdddgiifzfyyywwtju86&",
",tgapdpgdpppddddtkzkkjjjsuskjjszdddapppppeppdgdaudllfaaffyszhq6&",
"nmgedgedadddddddikkuusdkkjsqjjkkdddddddapffppapndldityafyfsjqq8&",
"Bpafeffaddaddddddddddddddddddddafdddaddddfaaddddhffyfyyfft40ur5$",
"Dpafpdfadddddadaddddddddddddddddadaddddadaddaaadyhyhyfyyaa73786&",
"Depdpafpddddadddadaddddddddddddddaddaddddadaaffdhhfyyffyyfw32q8&",
"Deedpffadadadddaddddddddddddddddddddafaddddddaadhayfyyayyft0qq8&",
"C99fafaddddddaddaddddddddddddddddaddaddadaddafdaffiyafyfydudzh6@",
"D99adffadadadddddddadddddddddddadddaddddafdaaaddiiifafyadatkvj6@",
"D,9afaaaadddddddddddaddadddddaaddaadaadaadaddadaiiiaaaaayfqtjq6&",
"D9,aaffadddddaddadddddddadasaafdafddfaddddddddddffifafaatfq6686&",
"Z90npddqzdssflldddadddddafaddadddddadddddadaadadijsdaaaayyhhw<;+",
"C0qdgpqglsysdissdadddadaddadddaaddddddadddddddddjdddaaaayyhfy85#",
"mq>9nnpg-->400tzdddddaddadaadaaaadddddaddaddddadjjdifaaayyhfhh8#",
"-%%>0t-.29udddlxdadadafadddfafafdddddaddafaafaafddddaaaa4wyhhh8#",
"Cq9>%>90-9ditystdddadddaaadaaaddddddddaaadaddadajdddduaa,4yhhh5#",
"Fqdx93qs-tzdszzsddddadddfaddfaadadddddfadddddadddjddssahwwhhhy8#",
"mqtspdgn0dzdtdi0addddaddadafaadadddadaddafadfyafjddidaaahyhhhh8#",
">pzpsgqtrdlsifzzdddadafaafaaafddddddddadaaddyfaasjddaaaaxwyhhh5#",
"nddsdjtdttsisdlfdadddddddddaddafdadadaddaafafaaayfffyfyfyyyw7w5#",
"Cdysddtiutysijdlddddadadaddddaaaddddddadafaafafahyyyffyyhyyw785#",
"Sttdsdddyyisdddldddddddadddaddaadadaddddaaayaaaafyfyyffyyyhy785;",
"V0uxidkzisiddjddaddaaddddaafdfadddddadadayffafhahhyfyyyyyyhy755#",
"D00dppzdddkddddddddaddddadaddddddaaddaddfyfyyyfyfyfyffyfyyhh775#",
"Gq90qddudddddddsddddddadddafdaaddafdddadyfyfffyyhyfyyyyyywhy585;",
"n990tdsdlldkhididdadddddaadadafddaadaaddyyfyyfyfhhhyhyyyhyy8885#",
">,qqpdsnldddddisddddadadfadddaaddddddfadfyyfyyfyyffyyhyyhyhy885#",
"m9>nenn99nn9senen9ensenen9ennensdadadaaadadaddafssspppnpenp00qq@",
"M99se9nnnsennn9nens9nn9nens99n9eafdddddfpfddaddddgsspeenepp93q6@",
"m93nn99nesne9nn9n9sn9nn9snenne9nadaaaddddaaffdddnsgsenppenee266@",
"mp9senp99n9nseseenensesen9n9nsnsddafaddaddaaaadassndnppe9ppe065$",
"mnepsnpnn9nenesnsnes9nenenesneneaaaaaaafddadfadasnssssee30ujqq5$",
"9nnn9npnennssen9n99nnsn9n99n9n9nffaaafdddaddadddssnsnppp9wilsq6$",
"->enn93nsees9n9nseneneenenneesseaadddddapdddadfpnsssepppppijuq5$",
"mnn99n9snn9nnensnn9n9ns9n9nsn9nnafdaddddfadaddadsssspsnpnfsjqq5$",
"Dnnp9pn99ne9nene9nesnesnesnen9n9aadddddddddaddddsnpnadddpa97rr6@",
"m9pepnnpnesnns9nnens9nn9ne9nenenfafaadadadafadadsspaaddadd037q6&",
"Dppn9nn99nn99n9s9snensen9nsssne9afaadddaddadfpdasnppadaaadw3686;",
"Dp9npenpnsennenene9n9en9n9nen9snaaddaddddaddadddssppndafafewrq8$",
"M999npn9en9snensn9ennn9nsn9nsen0dddddaddaddddapdssssfaaayfuilj8@",
"D99n9n9nn9ne9n9eens9esneennenn0nadddafadddadddfsnsnsadadydtdch8+",
"D9>nnsnesnenne9nn9snse9nn9n09nn0ddadadddaddddaddenesddddadrthu6#",
"M3>sen9nens9nsnsenensnsessensessddddddddfaddfpddnensdadaddq6686$",
"m39n9n3n0nssssksgsssssnsnsnqsnssnsnpssnpkssssgggq0n0dfifwflu72=o",
"Mn99n9nenqsqsssksdnssnssssnssssnssssnspnsskgksgdsneniyffifziir2O",
"M09nnnnn0nqnjsskppapssss0nqsnennsssspsnpsggssgddpsspyyddtilllj4#",
"M99nen9en0n0dsssnaapsssnss0n9n9nnsppssapssssssafnppsfdiu4riild3#",
"Mnnnee9nfyyfsidaaddnfadden3n9nn9epssdadnssaaddddpeadgdt010uiju5#",
"mn9eenneyfyaddaaafaaadddnenn3n9nppendaaassaaddaddppazdt70ujsji4&",
"nn99eneeyffyaffaaaddaddaene9n399epppdappappaaaadfpdpttttukjhjj7&",
"-9nnenn9yyaaaaaaadadadaanenn9nn>peenfdpppaaaaaaaffdp00rjljiujj6+",
"Nfyeyftsfyyww44yyyteeytyffffdte0ennppaapawwp9dadgdq06688ihjq6qq*",
"Zffidddjxffw4444dfdffdfdaaafdpteepdssfapa>0aeatisssus866ijjq5q6*",
"Ceifddkjyyh45wwwidiiasddyyitteq039spddggz-qdffildkkssqq8ujhq165&",
"C7tcldjuyryr0yiikit00tilzllstw07ennsddddl=usdddzldsqqqujjjcq665*",
"A67ijjjuhqijhhfiir8668rujjutqq768qhisjjh8;jhuiijur426qskjjuq6q6&",
"Sr6rquuuq2qchhht88887888qqq888qq12qqqjhq<5jjhhuq87646qssuqq86q6*",
"b86666qq<&185q8<5668686666555688qq85885*$6688672>21216558556566:",
":*:$&&o@&o&*+&& $$#@@@$$;$@@@@$$@+++&:&+o<o@$$==&%&&&&&*@@&**$*@"
};
