/* XPM */
static char *result[] = {
/* columns rows colors chars-per-pixel */
"64 64 61 1 ",
"  c #322E2F",
". c #35322E",
"X c #39362D",
"o c #322F31",
"O c #363332",
"+ c #393533",
"@ c #3D3A35",
"# c #373538",
"$ c #3A353A",
"% c #3E3B39",
"& c #413D35",
"* c #423D3A",
"= c #444036",
"- c #45413C",
"; c #4A453D",
": c #4E4A3E",
"> c #454240",
", c #4F4B40",
"< c #514E49",
"1 c #555347",
"2 c #5A5646",
"3 c #5D5947",
"4 c #56544B",
"5 c #59564B",
"6 c #57594E",
"7 c #5C5A4C",
"8 c #575551",
"9 c #5A5750",
"0 c #5D5B51",
"q c #615D4D",
"w c #615D51",
"e c #63604F",
"r c #656252",
"t c #6C6655",
"y c #6E6956",
"u c #6C6659",
"i c #6E6959",
"p c #706756",
"a c #716A57",
"s c #72675A",
"d c #726B59",
"f c #796D5D",
"g c #76715D",
"h c #78715F",
"j c #736D60",
"k c #777161",
"l c #797362",
"z c #7F7D6E",
"x c #827E6C",
"c c #817F71",
"v c #85826E",
"b c #89846E",
"n c #8A896E",
"m c #868371",
"M c #8A8672",
"N c #8C8A74",
"B c #8A8779",
"V c #8E8B79",
"C c #908B76",
"Z c #928E79",
"A c #93917B",
/* pixels */
"nNVVVnNNNnVM&..%NNNNNNCnNCnnNB&&bMdgMNVNVZMMAB%+ygnCMNVVnNNNAm-#",
"NZvvMnnVvCCm:@O>vMNNNnMnMCnCMc:;nNddmmnnvbMZBc,%ygvnMMbvNMnxNz-O",
"nbrrgagdghadjr%X7eiggdggggdgdlwuCbe2eeygeedyqerisdggfdww7qqerw@#",
"NM73dydiaaaali;@3qtyyyyaaappudllMxr27eey37yu33gkddaydpq3776166X#",
"NNq3ddgdddhdiu54idgggdddddgddaddgjstdddgddkdgydpddgaggudki0776%O",
"Nmq7yyayftdaijr0diiipaaptaadddddtdddgddddddudagdpdayyyuddu0075%O",
"ZNkuddddaaddiu55gyadagdgdddaydddddddddidadfddaaadddtqq7qdddi71*#",
"nvkddaagddyagi70yaddaadddddgddiddddaddddfpdfpdhsjdku7757agdir1*O",
"fddaddsddddaddda3qtddyadddddddddddadddddddasddaddy776603yagiq1&#",
"dddddjddddddddddqryidddadaddaddadddddddaddfsddddayq77707aair76&+",
"Cbldddadddddddddutsdddyddddddddddddddadadaaddddddy7147uidyr065*O",
"CMhtuddddddadddadddaddgadaadddddddadddddddddaddddde77qigdy7335*O",
"nbgadddddddaaddaddddddddddaddddddaaddddddddddddaddiddtdddi7465@+",
"CNdtjdddaddddddddddddddsdddddadadddddddddaadadddddddfddaaiw775@#",
"Mve7dddfddddddddadddddfddddddddaddadaddaddadddddddddapdaad0304@X",
"Vnq7dddadddadddaddsdsdddddadddddddddddddddddddadddaddddudd0407@#",
"Zngydagadddddidddddddddddddddddddpddsdfdaddddddddddddddd375579@+",
"Mvgaaydgdgddgdddddddadaddadadddddadddddddddaddadddadaddd0w7705%O",
"ggyddyydaadaidadaddaadddddaddddadddddddddddddadddadddddd755754*O",
"ygyagagiaagyaadaddddddddddddadddddddddddddddddadddddddadq77w54*O",
"Mngaddddgdigdfddddddddaddaddddddddddddidadddadddddddadddduusw4*o",
"ANgydadgiutyddddddaddddddddddaddsddtddidddadddddadddddadddsuw4*O",
"Mvgaddddr07radaadaddddddddddddadddwqddiddadddddddddddddditqq74$O",
"ZMgadddy643etddaddaddddaadddaddddp2qikiddddddadddddadadddiq399&O",
"NMlidi606w67ijddduw77wudddddddayydqwsfidaaaddddd073riddadg35w9$O",
"NNdygd76373edduuftw550udydddiyagud57jstuygddayyi7657tdytyt705<*+",
"nMe7dy755757uiqqq774577qygdye32509*&7q7eygate337761eigdgq7w0&$$O",
"ZMq7ytq76037ttq724677673yyiu077054$+4317yiiu77776367tiyy5554XO%*",
"NV05e7557777rw777776760777777760*>O*5075777776467007q77004*&O$OO",
"mcw67700644444455065645436579664O%O*4999355596004997654394&O+*O%",
"--OO.XXX@+@+@+@+++%@@@+++++++@@@O+oO@+@+@++++++#O+++#+X++#  OOO$",
"&%*-%-%%*%=-%%-%*%%%%%-*--**%@@+***-&@*%**-******>*%>******>&*&+",
"nMVmMMddbnnnmMMMBm37xNCMMNnNMB**bNMnZvdyMMMMMMMMnnnnMNnMnMNmNz-O",
"NNBmVMddMMNNVNMnBmeexMMNbNMZMc;*MCMMCvggNMNNNNNMMBMNNNMMNMNNVm-o",
"Nnteddddfddgdie77rtyxhadggaadkudddddggtygagddddgqrygddr77qq3e7@#",
"Nm71iddfddiditq72qdaapydpapapsdgpadagdagaaaaddad7widdaw71q0636#%",
"NN0qgddddddddiiigigydhdddddhdadtdddyaaadddddadddiydadaddju0566@ ",
"NNe7ypddddddiddjdygdddyyddaatdfddddgaddddddaddddgddaadddkiw056-#",
"NMjygddfdddayyddyidyadddddddddapayyaayddydaaadaaidddaaaptadi71@O",
"nnkidaddaaddddddagyikdadddddddtfdddgidgdddddddddddddsfdkaddi74-X",
"ZMgagaadadddadddddaddddadaddddadddddddaddddddadddddddddagadyq1*O",
"Mbgaaadddddddddddddddddddddddadddddddddddadddddddaddaddddaayq1&O",
"ggydddddddaddddaddadddddddddddaddddaddddddaddddddddddddddddyq1*O",
"ygaddafaddddadddddddddadadddddddadddadddadddaddddaaddddddddyq5&O",
"Mbgidsddaddddddddddddddddddadddadddddddaddddddadddadddddddduq4&O",
"ZNguddsdddddddadaddaaddddaddaddddddadadddddddadddddddadadditw<&O",
"nvr7jkdaddddddddddddadadddaddddddddddddddddaddadddddddddidqq94%O",
"VMr1jdyddadddaaddddddddddddddddadaddddadadddddddddaddddddu2579%O",
"NMddsfdddddddpddddaddddadpdaahyddddddddassddfdddadadsydt057075%O",
"Mbldaadddddaddddddddadddddddypyadaddadddfdddddddaaddddddw77769%O",
"rwiadfddddddddddaddddddddddaeqidddadddddddddddddfddddddd742309%O",
"84gaaadjdadddddadddaddaddddp73didadddddddadddddidttdddddw77q75@+",
"+*tdgddfadddddddddddddadddds72gidddadddadddddddd777eidddiiyt05$+",
"@;ragddddddaadadaddddddddddirqiudddddaddddtdddid3557rdddgdgiq4++",
"Nnlgppasdddddadddddddaddaaddpur0ddddddddddqqdjpd0773wrtdiidyq4@+",
"nNyiddddddddddddddaddddddtdddi44ddaddsdddpq2dduf70765qyddyay75@+",
"NV7qjddgdsdddddddddigddd975qid*+udq2agydaf&*uaasdi5955ddgiq599%O",
"nM77iiyifdddidddddddyuyiww77ut&&daqqadtdaj&&upysudqwwqspiiq73<@$",
"NNq70077addyeqidddfse7771550w7+$tdate75qds++0r70dfuddufdw35079*O",
"VM747777utdiq7udyysw73767q4455**yadu7157at-*1177pdudduay753w54*X",
"CMe37777qqq737q7qqq75949w4>&X&O$q3q77000q75<@@40qq3777q70704@@.+",
"Mzr755445<475355544449984<*OX@O*544450981477@@57544444479554@@+*",
";;++@*@&@@**&@***@@**%&&&&O$X$O#&**%@+@%*@%*XX*+%%*@&%%%%+@&X$.O",
" #X+O+O$$OOOOOOO+OOOOOOOo##&$$%OOOO+++OO$Oo%$#%O+OOOOOO#+O+$X%O%"
};
