/* XPM */
static char *result[] = {
/* columns rows colors chars-per-pixel */
"56 56 206 2 ",
"   c #010001",
".  c #0A0000",
"X  c #00020C",
"o  c #020A0F",
"O  c #09090D",
"+  c #08060B",
"@  c #170803",
"#  c #1E1607",
"$  c #050C11",
"%  c #090E11",
"&  c #000518",
"*  c #120E17",
"=  c #0E1112",
"-  c #01101A",
";  c #121313",
":  c #1D1613",
">  c #1B1815",
",  c #270700",
"<  c #221C17",
"1  c #221D18",
"2  c #2E1D10",
"3  c #2F1A09",
"4  c #2C231B",
"5  c #272119",
"6  c #35291E",
"7  c #33281D",
"8  c #02042C",
"9  c #041726",
"0  c #171C24",
"q  c #1B1F24",
"w  c #001E3D",
"e  c #182431",
"r  c #0F2332",
"t  c #2F2A28",
"y  c #392D20",
"u  c #322A23",
"i  c #3D3123",
"p  c #353439",
"a  c #590015",
"s  c #412F1D",
"d  c #523100",
"f  c #571920",
"g  c #423425",
"h  c #483425",
"j  c #4B3B29",
"k  c #45392C",
"l  c #513F2C",
"z  c #513D24",
"x  c #483F36",
"c  c #135914",
"v  c #007A00",
"b  c #54412E",
"n  c #564431",
"m  c #594631",
"M  c #5C4A34",
"N  c #5B4C3B",
"B  c #56483D",
"V  c #4F4034",
"C  c #624D36",
"Z  c #644E38",
"A  c #6A533A",
"S  c #655039",
"D  c #6F5126",
"F  c #1B3449",
"G  c #083B5A",
"H  c #133C5B",
"J  c #1B3B56",
"K  c #223546",
"L  c #2C3C4E",
"P  c #32445A",
"I  c #1B4563",
"U  c #1D4867",
"Y  c #245173",
"T  c #4B474A",
"R  c #4E4D54",
"E  c #525159",
"W  c #6B5A43",
"Q  c #685644",
"!  c #775E45",
"~  c #605654",
"^  c #5C7154",
"/  c #7C6145",
"(  c #7B664C",
")  c #586276",
"_  c #7C7375",
"`  c #7C767D",
"'  c #7E787E",
"]  c #74727D",
"[  c #6E6B73",
"{  c #B50C34",
"}  c #C80033",
"|  c #AE4342",
" . c #816547",
".. c #836649",
"X. c #86694A",
"o. c #896C49",
"O. c #866C50",
"+. c #897154",
"@. c #927B5C",
"#. c #957958",
"$. c #877562",
"%. c #857C7D",
"&. c #6C9144",
"*. c #7A9F7F",
"=. c #99815F",
"-. c #9C8362",
";. c #9C8864",
":. c #A78966",
">. c #AD916D",
",. c #B3936E",
"<. c #BB9A73",
"1. c #B29972",
"2. c #B18E6A",
"3. c #C7A77D",
"4. c #245B84",
"5. c #29658F",
"6. c #266691",
"7. c #2A6D9B",
"8. c #2A6792",
"9. c #356A92",
"0. c #35678E",
"q. c #137BB2",
"w. c #2B76AA",
"e. c #2F7AAC",
"r. c #2C71A3",
"t. c #307CB2",
"y. c #4D6583",
"u. c #787885",
"i. c #587FA6",
"p. c #837D83",
"a. c #1B82BD",
"s. c #2A84BD",
"d. c #3284BB",
"f. c #3482B7",
"g. c #5288B8",
"h. c #4D8CBF",
"j. c #6084A9",
"k. c #358BC4",
"l. c #368FCB",
"z. c #3996D3",
"x. c #3B9BD7",
"c. c #2C8CC8",
"v. c #3CA0DE",
"b. c #3C9EE0",
"n. c #3EA3E4",
"m. c #39A7E7",
"M. c #37B6FF",
"N. c #5390C4",
"B. c #57A7DF",
"V. c #41A6E5",
"C. c #40A8EA",
"Z. c #42ADF2",
"A. c #44B3FC",
"S. c #47B9FF",
"D. c #49BCFF",
"F. c #46B3F9",
"G. c #5CB4F8",
"H. c #62BCFC",
"J. c #4CC5FF",
"K. c #8C8284",
"L. c #8B858C",
"P. c #878188",
"I. c #8B8890",
"U. c #A8958A",
"Y. c #89A784",
"T. c #A5AD85",
"R. c #A79FA7",
"E. c #ACA3AC",
"W. c #ADA9AA",
"Q. c #B5ACB5",
"!. c #B9AFB9",
"~. c #B0A6B0",
"^. c #BBB2BB",
"/. c #B3A9A5",
"(. c #C9A983",
"). c #D8B789",
"_. c #DDAD85",
"`. c #F3BE91",
"'. c #E5C594",
"]. c #EBCC9B",
"[. c #EBC796",
"{. c #F5CD99",
"}. c #F8CF9A",
"|. c #E8D19C",
" X c #F5D39E",
".X c #FED49E",
"XX c #FFDC9E",
"oX c #E7C78F",
"OX c #DFC3A0",
"+X c #F1CFA4",
"@X c #FDD6A2",
"#X c #FFDBA5",
"$X c #FFDCA9",
"%X c #F4D5A3",
"&X c #F8D9B2",
"*X c #FFE3AB",
"=X c #FFE9AF",
"-X c #C3B9C3",
";X c #C9BFC9",
":X c #C0B7C0",
">X c #CCC2CC",
",X c #D2C8D2",
"<X c #FAF1E7",
"1X c #F4F7F5",
"2X c #FEF8F6",
"3X c None",
/* pixels */
"3X3X3X3X3X3X3X3X3X3X3X3X3X3X3X3X3X3X3X3X3X3X3X3X3X3X3X3X3X3X3X3X3X3X3X3X3X3X3X3X3X3X3X3X3X3X3X3X3X3X3X3X3X3X3X3X",
"3X3X3X3X3X3X3X3X3X3X3X3X3X3X3X3X3X3X3X3X3X3X3X3X3X3X3X3X3X3X3X3X3X3X3X3X3X3X3X3X3X3X3X3X3X3X3X3X3X3X3X3X3X3X3X3X",
"3X3X3X3X3X3X3X3X3X3X3X3X3X3X3X3X3X3X3X3X3X3X3X3X3X3X3X3X3X3X3X3X3X3X3X3X3X3X3X3X3X3X3X3X3X3X3X3X3X3X3X3X3X3X3X3X",
"3X3X3X3X3X3X3X3X3X3X3X3X3X3X3X3X3X3X3X3X3X3X3X3X3X3X3X3X3X3X3X3X3X3X3X3X3X3X3X3X3X3X3X3X3X3X3X3X3X3X3X3X3X3X3X3X",
"3X3X3X3X3X3X3X3X3X3X3X3X3X3X3X3X3X3X3X3X3X3X3X3X3X3X3X3X3X3X3X3X3X3X3X3X3X3X3X3X3X3X3X3X3X3X3X3X3X3X3X3X3X3X3X3X",
"3X3X3X3X3X3X3X3X3X3X3X3X3X3X3X3X3X3X3X3X3X3X3X3X3X3X3X3X3X3X3X3X3X3X3X3X3X3X3X3X3X3X3X3X3X3X3X3X3X3X3X3X3X3X3X3X",
"3X3X3X3X3X3X3X3X3X3X3X3X3X3X3X3X3X3X3X3X3X3X3X3X3X3X3X3X3X3X3X3X3X3X3X3X3X3X3X3X3X3X3X3X3X3X3X3X3X3X3X3X3X3X3X3X",
"3X3X3X3X3X3X3X3X3X3X3X3X3X3X3X3X3X3X3X3X3X3X3X3X3X3X3X3X3X3X3X3X3X3X3X3X3X3X3X3X3X3X3X3X3X3X3X3X3X3X3X3X3X3X3X3X",
"3X3X3X3X3X3X3X3X3X3X3X3X3X3X3X3X3X3X3X; ; = ; ; ; ; ; ; = = ; ; ; ; = 3X3X3X3X3X3X3X3X3X3X3X3X3X3X3X3X3X3X3X3X3X",
"3X3X3X3X3X3X3X3X3X3X3X3X3X3X3X3X3X3X3X% % % % % % % % % % % % % % % $ 3X3X3X3X3X3X3X3X3X3X3X3X3X3X3X3X3X3X3X3X3X",
"3X3X3X3X3X3X3X3X3X3X3X3X3X3X3X; ; o 7 g g g g g g g g g g g i g g g g 4 X 3X3X3X3X3X3X3X3X3X3X3X3X3X3X3X3X3X3X3X",
"3X3X3X3X3X3X3X3X3X3X3X3X3X3X; ; ; X 7 n b b b b b b b b b m m n b m m 6 $ 3X3X3X3X3X3X3X3X3X3X3X3X3X3X3X3X3X3X3X",
"3X3X3X3X3X3X3X3X3X3X3X3X3X3X3X% 4 g h b l l l l n j j b j g y i i y y < = 3X3X3X3X3X3X3X3X3X3X3X3X3X3X3X3X3X3X3X",
"3X3X3X3X3X3X3X3X3X3X3X3X3X3X3X$ 6 m b b b b b l b b b n b           o = ; 3X3X3X3X3X3X3X3X3X3X3X3X3X3X3X3X3X3X3X",
"3X3X3X3X3X3X3X3X3X3X3X3X3X3X3Xo 6 b b m m m n l j b b j M >.1.1.<.N   1 = 3X3X3X3X3X3X3X3X3X3X3X3X3X3X3X3X3X3X3X",
"3X3X3X3X3X3X3X3X3X3X3X3X3X3X3X$ 6 m g   @   2 b b n j   g #X=X*X=X+.  3X3X3X3X3X3X3X3X3X3X3X3X3X3X3X3X3X3X3X3X3X",
"3X3X3X3X3X3X3X3X3X3X3X3X3X3X3X$ i g ( <.,.<.:.M M h M :.1.(.(.3.3.W ; 3X3X3X3X3X3X3X3X3X3X3X3X3X3X3X3X3X3X3X3X3X",
"3X3X3X3X3X3X3X3X3X3X3X3X3X3X3X$ j   ,.*X#X=XoX: 5 7 A .X#X            3X3X3X3X3X3X3X3X3X,X^.,X^.3X3X3X3X3X3X3X3X",
"3X3X3X3X3X3X3X3X3X3X3X3X3X3X3X% g 2 =.oX'.'.).2.-.g A  X@X/.W.^ c ;.,.( 3X3X3X3X3X3X3XQ.^.^.^.^.3X3X3X3X3X3X3X3X",
"3X3X3X3X3X3X3X3X3X3X3X3X3X3X3X$ g s +.3.3.<._.=X|.M W  X$X2X1XY.v ].*X-.  3X3X3X3XQ.>X^.Q.^.,X-X3X3X3X3X3X3X3X3X",
"3X3X3X3X3X3X3X3X3X3X3X3X3X3X3X$ i g / >.>.;.,.`._.b W }.$X2X1XY.v ].$X@.  3X3X3X3XQ.^.Q.Q.Q.^.3X3X3X3X3X3X3X3X3X",
"3X3X3X3X3X3X3X3X3X3X3X3X3X3X3X% 6 b l j h   a } {   N }.$X2X1X*.v |.*X=.  3X3X~.>X^.Q.Q.,XQ.3X3X3X3X3X3X3X3X3X3X",
"3X3X3X3X3X3X3X3X3X3X3X3X3X3XL - u l j l h   f { | ..-.}.#X<X<XT.&.).[.@.0 3X3X~.-XQ.Q.Q.Q.3X3X3X3X3X3X3X3X3X3X3X",
"3X3X3X3X3X3X3X3X3X3X3X3X%.K.~   @ o 7 m h = 4   ( %X#X.X@X@X.X#X*XX.  3X3X!.;XQ.!.!.,XQ.3X3X3X3X3X3X3X3X3X3X3X3X",
"3X3X3X3X3X3X3X3X3X3X3X3Xu.I.) G F $ t x k X x ! :.{.@X.X@X.X.X'.'.O.  3X3X^.:XQ.Q.!.;X3X3X3X3X3X3X3X3X3X3X3X3X3X",
"3X3X3X3X3X3X3X3X3X3Xu.K.j.c.d.k.8.. ; @ 3   o. X X@XXX.X#X*X%X#.k 3X3X!.>XQ.Q.!.>X3X3X3X3X3X3X3X3X3X3X3X3X3X3X3X",
"3X3X3X3X3X3X3X3X3X3X` %.i.a.d.d.7.J I I P 8 $.%X%X+X+X{.{.#X%X( & 3X3XQ.;XQ.Q.!.^.3X3X3X3X3X3X3X3X3X3X3X3X3X3X3X",
"3X3X3X3X3X3X3X3Xp.K.R   6.k.8.  e.A.Z.A.C.t.d.N.h.N.g.T z 3X3Xp.p.~.^.!.Q.^.;X3X3X3X3X3X3X3X3X3X3X3X3X3X3X3X3X3X",
"3X3X3X3X3X3X3X3Xp.L.R   8.l.6.  e.D.A.S.Z.f.s.q.a.a.q.w   3X3XK.p.E.!.Q.Q.!.^.3X3X3X3X3X3X3X3X3X3X3X3X3X3X3X3X3X",
"3X3X3X3X3X3X' p.' p.R   8.k.5.  e.S.A.S.x.r F K F L e # @   9 [ ` p.p.E.-X3X3X3X3X3X3X3X3X3X3X3X3X3X3X3X3X3X3X3X",
"3X3X3X3X3X3X' L.` ' E X 7.l.6.  e.S.A.S.v.H H H H H H H J n N _ p._ [ E.:X3X3X3X3X3X3X3X3X3X3X3X3X3X3X3X3X3X3X3X",
"3X3X3X3X3X3X' P.E p 9.w.x.F.d.  e.D.A.A.F.n.V.V.V.m.n.m.B.OX'.[.{.U.u.I.I.3X3X3X3X3X3X3X3X3X3X3X3X3X3X3X3X3X3X3X",
"3X3X3X3X3X3X' L.T   7.k.n.D.k.  t.S.A.A.A.S.S.S.S.S.D.M.H.&X*X#XXXU.] %.' 3X3X3X3X3X3X3X3X3X3X3X3X3X3X3X3X3X3X3X",
"3X3X3X3X3X3X3X3Xp ; 7.f.b.D.d.  U Y d.S.A.A.A.A.A.A.F.M.G.+X.X.X@X3X3X3X3X3X3X3X3X3X3X3X3X3X3X3X3X3X3X3X3X3X3X3X",
"3X3X3X3X3X3X3X3X9 * r.k.n.D.d.  %   7.J.S.S.A.S.S.A.S.M.H.&XXX$X*X3X3X3X3X3X3X3X3X3X3X3X3X3X3X3X3X3X3X3X3X3X3X3X",
"3X3X3X3X3X3X3X3X3X3XY J z.J.C.v.f.. U 7.8.6.6.6.6.6.5.6.0.$.#.@.@.3X3X3X3X3X3X3X3X3X3X3X3X3X3X3X3X3X3X3X3X3X3X3X",
"3X3X3X3X3X3X3X3X3X3Xe . l.D.S.J.z.  0 8   . . . . . . . .         3X3X3X3X3X3X3X3X3X3X3X3X3X3X3X3X3X3X3X3X3X3X3X",
"3X3X3X3X3X3X3X3X3XO B D y.w.r.w.4.. 4.x.f.O 0 0 0 0 0 3X3X3X3X3X3X3X3X3X3X3X3X3X3X3X3X3X3X3X3X3X3X3X3X3X3X3X3X3X",
"3X3X3X3X3X3X3X3X: O Z +.d     . @   f.J.V.  - - X   X 3X3X3X3X3X3X3X3X3X3X3X3X3X3X3X3X3X3X3X3X3X3X3X3X3X3X3X3X3X",
"3X3X3X3X3X3X3X3X: + Z ..Q Q V 9 e 3XY e.9.s g g j Z C < X 3X3X3X3X3X3X3X3X3X3X3X3X3X3X3X3X3X3X3X3X3X3X3X3X3X3X3X",
"3X3X3X3X3X3X3X3X: O Z  ./ o.C X > 3X3X  , n l j m  .! 4 X 3X3X3X3X3X3X3X3X3X3X3X3X3X3X3X3X3X3X3X3X3X3X3X3X3X3X3X",
"3X3X3X3X3X3X3X3X: O Z  .!  .M   > 3X3X9 t l m A A / ! 1 X 3X3X3X3X3X3X3X3X3X3X3X3X3X3X3X3X3X3X3X3X3X3X3X3X3X3X3X",
"3X3X3X3X3X3X3X3X: O A o./ X.C   > 3X3X$ u l C X.....! 4 X 3X3X3X3X3X3X3X3X3X3X3X3X3X3X3X3X3X3X3X3X3X3X3X3X3X3X3X",
"3X3X3X3X3X3X3X3X3X+ n Z C Z l X 3X3X3Xo 4 g h Z C Z C 1 X 3X3X3X3X3X3X3X3X3X3X3X3X3X3X3X3X3X3X3X3X3X3X3X3X3X3X3X",
"3X3X3X3X3X3X3X3X3X3XX     X   3X3X3X3X3X3Xo X X     X 3X3X3X3X3X3X3X3X3X3X3X3X3X3X3X3X3X3X3X3X3X3X3X3X3X3X3X3X3X",
"3X3X3X3X3X3X3X3X3X3X3X1 1 1 3X3X3X3X3X3X3X> > < < 1 < 3X3X3X3X3X3X3X3X3X3X3X3X3X3X3X3X3X3X3X3X3X3X3X3X3X3X3X3X3X",
"3X3X3X3X3X3X3X3X3X3X3X3X3X3X3X3X3X3X3X3X3X3X3X3X3X3X3X3X3X3X3X3X3X3X3X3X3X3X3X3X3X3X3X3X3X3X3X3X3X3X3X3X3X3X3X3X",
"3X3X3X3X3X3X3X3X3X3X3X3X3X3X3X3X3X3X3X3X3X3X3X3X3X3X3X3X3X3X3X3X3X3X3X3X3X3X3X3X3X3X3X3X3X3X3X3X3X3X3X3X3X3X3X3X",
"3X3X3X3X3X3X3X3X3X3X3X3X3X3X3X3X3X3X3X3X3X3X3X3X3X3X3X3X3X3X3X3X3X3X3X3X3X3X3X3X3X3X3X3X3X3X3X3X3X3X3X3X3X3X3X3X",
"3X3X3X3X3X3X3X3X3X3X3X3X3X3X3X3X3X3X3X3X3X3X3X3X3X3X3X3X3X3X3X3X3X3X3X3X3X3X3X3X3X3X3X3X3X3X3X3X3X3X3X3X3X3X3X3X",
"3X3X3X3X3X3X3X3X3X3X3X3X3X3X3X3X3X3X3X3X3X3X3X3X3X3X3X3X3X3X3X3X3X3X3X3X3X3X3X3X3X3X3X3X3X3X3X3X3X3X3X3X3X3X3X3X",
"3X3X3X3X3X3X3X3X3X3X3X3X3X3X3X3X3X3X3X3X3X3X3X3X3X3X3X3X3X3X3X3X3X3X3X3X3X3X3X3X3X3X3X3X3X3X3X3X3X3X3X3X3X3X3X3X",
"3X3X3X3X3X3X3X3X3X3X3X3X3X3X3X3X3X3X3X3X3X3X3X3X3X3X3X3X3X3X3X3X3X3X3X3X3X3X3X3X3X3X3X3X3X3X3X3X3X3X3X3X3X3X3X3X",
"3X3X3X3X3X3X3X3X3X3X3X3X3X3X3X3X3X3X3X3X3X3X3X3X3X3X3X3X3X3X3X3X3X3X3X3X3X3X3X3X3X3X3X3X3X3X3X3X3X3X3X3X3X3X3X3X",
"3X3X3X3X3X3X3X3X3X3X3X3X3X3X3X3X3X3X3X3X3X3X3X3X3X3X3X3X3X3X3X3X3X3X3X3X3X3X3X3X3X3X3X3X3X3X3X3X3X3X3X3X3X3X3X3X",
"3X3X3X3X3X3X3X3X3X3X3X3X3X3X3X3X3X3X3X3X3X3X3X3X3X3X3X3X3X3X3X3X3X3X3X3X3X3X3X3X3X3X3X3X3X3X3X3X3X3X3X3X3X3X3X3X"
};
