/* XPM */
static char *result[] = {
/* columns rows colors chars-per-pixel */
"64 64 202 2 ",
"   c #000001",
".  c #0B0000",
"X  c #00020B",
"o  c #00080E",
"O  c #0B0D0F",
"+  c #120200",
"@  c #110A00",
"#  c #1B0000",
"$  c #030A10",
"%  c #0B0F11",
"&  c #000314",
"*  c #0D1013",
"=  c #061217",
"-  c #131312",
";  c #1A1714",
":  c #1D1915",
">  c #15191D",
",  c #1C1D1E",
"<  c #16171A",
"1  c #1C1407",
"2  c #2D0203",
"3  c #251208",
"4  c #201B17",
"5  c #251F19",
"6  c #2E1D11",
"7  c #33120A",
"8  c #2B231B",
"9  c #33291E",
"0  c #39291B",
"q  c #3D2100",
"w  c #131A22",
"e  c #191F26",
"r  c #152533",
"t  c #10222E",
"y  c #332A22",
"u  c #332E2B",
"i  c #3D3125",
"p  c #3D3329",
"a  c #23272F",
"s  c #533D1B",
"d  c #4A2D24",
"f  c #443525",
"g  c #483626",
"h  c #4E3C2A",
"j  c #453A2B",
"k  c #503F2C",
"l  c #4B3F33",
"z  c #007B00",
"x  c #007700",
"c  c #006B00",
"v  c #5D461F",
"b  c #53412D",
"n  c #594632",
"m  c #5D4B36",
"M  c #554736",
"N  c #56493A",
"B  c #654F38",
"V  c #634E36",
"C  c #6C553C",
"Z  c #72593E",
"A  c #172F42",
"S  c #1A3C55",
"D  c #1B3E58",
"F  c #0D2E4E",
"G  c #2F3949",
"H  c #19405C",
"J  c #25435D",
"K  c #1E4766",
"L  c #0C4261",
"P  c #274B69",
"I  c #264B69",
"U  c #24597E",
"Y  c #22577B",
"T  c #345775",
"R  c #57565F",
"E  c #554E4A",
"W  c #685741",
"Q  c #745C41",
"!  c #7A5F43",
"~  c #635B5B",
"^  c #7D6245",
"/  c #7D664B",
"(  c #5B5C66",
")  c #4A5361",
"_  c #6E6B73",
"`  c #726D72",
"'  c #7C767C",
"]  c #7E787E",
"[  c #777278",
"{  c #6F6A6E",
"}  c #B00431",
"|  c #8B2E33",
" . c #CB0038",
".. c #836749",
"X. c #84694B",
"o. c #816547",
"O. c #897357",
"+. c #8D765A",
"@. c #957D5E",
"#. c #947B5C",
"$. c #846E52",
"%. c #837A7E",
"&. c #8A7B6D",
"*. c #5D8C51",
"=. c #659857",
"-. c #9A805B",
";. c #9D8362",
":. c #A58A67",
">. c #A88C69",
",. c #A98263",
"<. c #B3956D",
"1. c #B39671",
"2. c #AD916C",
"3. c #BDA178",
"4. c #C19E77",
"5. c #C2A37B",
"6. c #1E5981",
"7. c #265D84",
"8. c #26628B",
"9. c #296995",
"0. c #256895",
"q. c #2E709F",
"w. c #1074A9",
"e. c #2D74A5",
"r. c #2E79AC",
"t. c #317EB2",
"y. c #2C7AAD",
"u. c #4B749C",
"i. c #607D9F",
"p. c #837D83",
"a. c #1E82BD",
"s. c #3180B5",
"d. c #3284BC",
"f. c #3F87BC",
"g. c #4782B2",
"h. c #6184AA",
"j. c #1F87C4",
"k. c #0D87C4",
"l. c #2888C2",
"z. c #348AC3",
"x. c #368EC9",
"c. c #3287C0",
"v. c #3791CD",
"b. c #3996D4",
"n. c #3B9BDB",
"m. c #3EA5E9",
"M. c #38B6FF",
"N. c #40A8ED",
"B. c #40A7EC",
"V. c #42ADF4",
"C. c #45B4FD",
"Z. c #47B9FF",
"A. c #49BCFF",
"S. c #48B4FD",
"D. c #4AC2FF",
"F. c #8B848B",
"G. c #888186",
"H. c #92888A",
"J. c #958E95",
"K. c #9E969D",
"L. c #A59383",
"P. c #BEA387",
"I. c #A79FA7",
"U. c #B5ACB5",
"Y. c #B8AFB8",
"T. c #B6ADB8",
"R. c #BBB2BB",
"E. c #A9A9A7",
"W. c #CBAA80",
"Q. c #D4B185",
"!. c #DBB689",
"~. c #DCB88B",
"^. c #CEB18F",
"/. c #E1BD8E",
"(. c #E9B68B",
"). c #EBC594",
"_. c #EAC593",
"`. c #F3CD9A",
"'. c #F4CD98",
"]. c #FCD39D",
"[. c #FFDB9F",
"{. c #E8C9A4",
"}. c #FED5A1",
"|. c #FFDAA3",
" X c #FED9AB",
".X c #E7CEB7",
"XX c #F8D9B8",
"oX c #EED5BD",
"OX c #FFE3AB",
"+X c #FFE8AC",
"@X c #FFECB1",
"#X c #C5BCC5",
"$X c #C0B7C0",
"%X c #CBC1CB",
"&X c #C6D2C5",
"*X c #D4CAD4",
"=X c #DED5D3",
"-X c #FAEFE9",
";X c white",
":X c #FFF6F0",
">X c #FAF0EA",
",X c None",
/* pixels */
",X,X,X,X,X,X,X,X,X,X,X,X,X,X,X,X,X,X,X,X,X,X,X,X,X,X,X,X,X,X,X,X,X,X,X,X,X,X,X,X,X,X,X,X,X,X,X,X,X,X,X,X,X,X,X,X,X,X,X,X,X,X,X,X",
",X,X,X,X,X,X,X,X,X,X,X,X,X,X,X,X,X,X,X,X,X,X,X,X,X,X,X,X,X,X,X,X,X,X,X,X,X,X,X,X,X,X,X,X,X,X,X,X,X,X,X,X,X,X,X,X,X,X,X,X,X,X,X,X",
",X,X,X,X,X,X,X,X,X,X,X,X,X,X,X,X,X,X,X,X,X,X,X,X,X,X,X,X,X,X,X,X,X,X,X,X,X,X,X,X,X,X,X,X,X,X,X,X,X,X,X,X,X,X,X,X,X,X,X,X,X,X,X,X",
",X,X,X,X,X,X,X,X,X,X,X,X,X,X,X,X,X,X,X,X,X,X,X,X,X,X,X,X,X,X,X,X,X,X,X,X,X,X,X,X,X,X,X,X,X,X,X,X,X,X,X,X,X,X,X,X,X,X,X,X,X,X,X,X",
",X,X,X,X,X,X,X,X,X,X,X,X,X,X,X,X,X,X,X,X,X,X,X,X,X,X,X,X,X,X,X,X,X,X,X,X,X,X,X,X,X,X,X,X,X,X,X,X,X,X,X,X,X,X,X,X,X,X,X,X,X,X,X,X",
",X,X,X,X,X,X,X,X,X,X,X,X,X,X,X,X,X,X,X,X,X,X,X,X,X,X,X,X,X,X,X,X,X,X,X,X,X,X,X,X,X,X,X,X,X,X,X,X,X,X,X,X,X,X,X,X,X,X,X,X,X,X,X,X",
",X,X,X,X,X,X,X,X,X,X,X,X,X,X,X,X,X,X,X,X,X,X,X,X,X,X,X,X,X,X,X,X,X,X,X,X,X,X,X,X,X,X,X,X,X,X,X,X,X,X,X,X,X,X,X,X,X,X,X,X,X,X,X,X",
",X,X,X,X,X,X,X,X,X,X,X,X,X,X,X,X,X,X,X,X,X,X,X,X,X,X,X,X,X,X,X,X,X,X,X,X,X,X,X,X,X,X,X,X,X,X,X,X,X,X,X,X,X,X,X,X,X,X,X,X,X,X,X,X",
",X,X,X,X,X,X,X,X,X,X,X,X,X,X,X,X,X,X,X,X,X,X,X,X,X,X,X,X,X,X,X,X,X,X,X,X,X,X,X,X,X,X,X,X,X,X,X,X,X,X,X,X,X,X,X,X,X,X,X,X,X,X,X,X",
",X,X,X,X,X,X,X,X,X,X,X,X,X,X,X,X,X,X,X,X,X,X- ,X- - - * - - - * - - - - - - - - ,X,X,X,X,X,X,X,X,X,X,X,X,X,X,X,X,X,X,X,X,X,X,X,X",
",X,X,X,X,X,X,X,X,X,X,X,X,X,X,X,X,X,X,X,X,X% % % % * % % * % % % % % % % % % % % ,X,X,X,X,X,X,X,X,X,X,X,X,X,X,X,X,X,X,X,X,X,X,X,X",
",X,X,X,X,X,X,X,X,X,X,X,X,X,X,X,X,X,X,X,X,X5 8 5 8 5 5 5 8 5 5 8 5 8 5 5 5 5 5 8 ,X,X,X,X,X,X,X,X,X,X,X,X,X,X,X,X,X,X,X,X,X,X,X,X",
",X,X,X,X,X,X,X,X,X,X,X,X,X,X,X,X,X- - % $ f b k h b b h b b b h k b b b b b b b 9 o : ,X,X,X,X,X,X,X,X,X,X,X,X,X,X,X,X,X,X,X,X,X",
",X,X,X,X,X,X,X,X,X,X,X,X,X,X,X,X,X- - * % g b k b b b b h b b b b b b b b b b b 9 o ; ,X,X,X,X,X,X,X,X,X,X,X,X,X,X,X,X,X,X,X,X,X",
",X,X,X,X,X,X,X,X,X,X,X,X,X,X,X,X,X- : j f h b b b b b b b b b b b i 9 9 i 9 8 8 4 % - ,X,X,X,X,X,X,X,X,X,X,X,X,X,X,X,X,X,X,X,X,X",
",X,X,X,X,X,X,X,X,X,X,X,X,X,X,X,X,X* : b b b k b h h k b b b b b b           o o % ; - ,X,X,X,X,X,X,X,X,X,X,X,X,X,X,X,X,X,X,X,X,X",
",X,X,X,X,X,X,X,X,X,X,X,X,X,X,X,X,X- : k k n V m V m b k b k b b l @.2.;.>.;.5 O ; - ,X,X,X,X,X,X,X,X,X,X,X,X,X,X,X,X,X,X,X,X,X,X",
",X,X,X,X,X,X,X,X,X,X,X,X,X,X,X,X,X% : k b 0 3 6 3 6 h b h n g     `.@XOX+X|.9 X ,X,X,X,X,X,X,X,X,X,X,X,X,X,X,X,X,X,X,X,X,X,X,X,X",
",X,X,X,X,X,X,X,X,X,X,X,X,X,X,X,X,X* 4 k b Q X./ X./ n k b g n W W ~.`._.'./.y * ,X,X,X,X,X,X,X,X,X,X,X,X,X,X,X,X,X,X,X,X,X,X,X,X",
",X,X,X,X,X,X,X,X,X,X,X,X,X,X,X,X,X* 4 h 0 W.}.).].).X.0 m X $.'.].O.b m M M 5 5 ,X,X,X,X,X,X,X,X,X,XU.U.U.U.,X,X,X,X,X,X,X,X,X,X",
",X,X,X,X,X,X,X,X,X,X,X,X,X,X,X,X,X* 4 h 0 ~.+X|.OX}./   M   O.|. Xv             ,X,X,X,X,X,X,X,X,X,XR.#XR.*XT.,X,X,X,X,X,X,X,X,X",
",X,X,X,X,X,X,X,X,X,X,X,X,X,X,X,X,X* 4 k g 1.!.Q.Q.Q.Q.~.;.  O.].|.=X=XE.c *.Q.!.@.  ,X,X,X,X,X,XU.U.U.U.U.U.,X,X,X,X,X,X,X,X,X,X",
",X,X,X,X,X,X,X,X,X,X,X,X,X,X,X,X,X* 4 h g :.5.5.5.5.OX@X1.. +.].|.:X;X&Xz =.|.|.:.  j ,X,X,X,XU.*XR.U.U.R.*XY.,X,X,X,X,X,X,X,X,X",
",X,X,X,X,X,X,X,X,X,X,X,X,X,X,X,X,X* 4 h h #.2.>.:.,.!.(.,.  +.}.|.>X;X&Xz =.}.|.;.X b ,X,X,X,XU.R.U.U.U.U.U.,X,X,X,X,X,X,X,X,X,X",
",X,X,X,X,X,X,X,X,X,X,X,X,X,X,X,X,X- : k b h h d   2 }  .|   O.}.[.-X;X&Xx =.}.}.;.  M ,X,XU.#XU.U.U.Y.Y.,X,X,X,X,X,X,X,X,X,X,X,X",
",X,X,X,X,X,X,X,X,X,X,X,X,X,X,X,X,X% : k b h b g   7 }  .|   +.}.}.-X;X&Xz =.}.}.;.  N ,X,XU.$XU.U.U.U.U.,X,X,X,X,X,X,X,X,X,X,X,X",
",X,X,X,X,X,X,X,X,X,X,X,X,X,X' p.(   > 4 : g b j % 5 d 2 4.`.`.}.}. X X X`._.W m ,X,X,XU.U.U.T.U.$XU.,X,X,X,X,X,X,X,X,X,X,X,X,X,X",
",X,X,X,X,X,X,X,X,X,X,X,X,X,X[ H.~   + O o j n f - -   X 5.OX}.}.}.[.].}.OX].O X ,X,X,X#XY.U.U.U.*XT.,X,X,X,X,X,X,X,X,X,X,X,X,X,X",
",X,X,X,X,X,X,X,X,X,X,X,X] ' i.h.u.8.8.e * u p p   p 1.5.).}.}.].}.}.OX~.2.1.,X,XK.R.U.Y.U.U.R.U.,X,X,X,X,X,X,X,X,X,X,X,X,X,X,X,X",
",X,X,X,X,X,X,X,X,X,X,X,XG.H.g.k.l.x.d.. .     2   s `.@X|.|.[.}.|.|.@X5.    ,X,XR.*XU.U.U.R.%X,X,X,X,X,X,X,X,X,X,X,X,X,X,X,X,X,X",
",X,X,X,X,X,X,X,X,X,X,X,X` { g.d.s.e.e.U Y U U T F ) ^.{.{..X{._._.`. X5.a E ,X,XU.R.U.U.U.U.U.,X,X,X,X,X,X,X,X,X,X,X,X,X,X,X,X,X",
",X,X,X,X,X,X,X,X,X[ H._ <   e.x.9.. S C.Z.C.Z.m.l.c.l.j.y.k.w.&   ,X,X,XG.G.Y.R.U.U.U.#XU.,X,X,X,X,X,X,X,X,X,X,X,X,X,X,X,X,X,X,X",
",X,X,X,X,X,X,X,X,X[ G.{ ,   e.x.9.. D V.C.C.C.V.d.d.d.d.d.z.e.w + ,X,X,XG.p.U.U.U.U.U.R.U.,X,X,X,X,X,X,X,X,X,X,X,X,X,X,X,X,X,X,X",
",X,X,X,X,X,X,X] ] ' p._ a   e.x.9.. D C.C.C.Z.n.S I P P P P J a e u # ~ %.%.F.F.I.$XU.,X,X,X,X,X,X,X,X,X,X,X,X,X,X,X,X,X,X,X,X,X",
",X,X,X,X,X,X,X] J.' G.` #   q.z.8.. D C.C.C.Z.b.                .     J i._ [ ` I.%XU.,X,X,X,X,X,X,X,X,X,X,X,X,X,X,X,X,X,X,X,X,X",
",X,X,X,X,X,X,X' ' { ~ ( 7.6.v.m.t.  D V.C.C.Z.N.t.s.s.t.s.s.t.t.y.L.<.P.W.P.p.%.J.I.K.,X,X,X,X,X,X,X,X,X,X,X,X,X,X,X,X,X,X,X,X,X",
",X,X,X,X,X,X,X] J.E . L d.z.m.D.v.  J C.A.C.C.Z.Z.Z.Z.Z.Z.Z.A.Z.M.oX|.}.|.].p.p.p.G.' ,X,X,X,X,X,X,X,X,X,X,X,X,X,X,X,X,X,X,X,X,X",
",X,X,X,X,X,X,X] i.~   I d.d.m.D.x.  S m.m.C.C.C.C.C.C.C.C.C.S.S.M..X].[.[.`.p.p.] ] ] ,X,X,X,X,X,X,X,X,X,X,X,X,X,X,X,X,X,X,X,X,X",
",X,X,X,X,X,X,X,X,XA + K d.d.m.D.x.. t A r b.Z.C.C.C.C.C.C.C.S.C.M..X[.].|.}.,X,X,X,X,X,X,X,X,X,X,X,X,X,X,X,X,X,X,X,X,X,X,X,X,X,X",
",X,X,X,X,X,X,X,X,Xt . K d.z.V.A.z.X + .   b.D.C.Z.Z.Z.Z.Z.Z.A.Z.M.oX|.|.OX|.,X,X,X,X,X,X,X,X,X,X,X,X,X,X,X,X,X,X,X,X,X,X,X,X,X,X",
",X,X,X,X,X,X,X,X,X,X,X,XP P m.C.B.b.b.A - 7.e.9.9.9.9.9.9.9.9.9.0.&.-.-.-.@.,X,X,X,X,X,X,X,X,X,X,X,X,X,X,X,X,X,X,X,X,X,X,X,X,X,X",
",X,X,X,X,X,X,X,X,X,X,X,X    m.D.A.D.A.r +       . . . . .   . . +           ,X,X,X,X,X,X,X,X,X,X,X,X,X,X,X,X,X,X,X,X,X,X,X,X,X,X",
",X,X,X,X,X,X,X,X,X,X,Xu b s f.b.b.b.x.r + 8.r.8.+ w w < > > w w w , 8 , 8 , ,X,X,X,X,X,X,X,X,X,X,X,X,X,X,X,X,X,X,X,X,X,X,X,X,X,X",
",X,X,X,X,X,X,X,X,X5 X g / ..q   . . . @ . b.D.n.  w w - * = * ,X,X,X,X,X,X,X,X,X,X,X,X,X,X,X,X,X,X,X,X,X,X,X,X,X,X,X,X,X,X,X,X,X",
",X,X,X,X,X,X,X,X,X5 X 0 ^ o.f @ 1 @ - @ . v.A.b.+ , w - : 5 4 ,X,X,X,X,X,X,X,X,X,X,X,X,X,X,X,X,X,X,X,X,X,X,X,X,X,X,X,X,X,X,X,X,X",
",X,X,X,X,X,X,X,X,X5 X f ! o.Q ^ m & < ,X,XS H G k k k k B ^ C - o ,X,X,X,X,X,X,X,X,X,X,X,X,X,X,X,X,X,X,X,X,X,X,X,X,X,X,X,X,X,X,X",
",X,X,X,X,X,X,X,X,X5 X f ! ^ ! ..V X - ,X,X.   q b b h h C ..Z ; o ,X,X,X,X,X,X,X,X,X,X,X,X,X,X,X,X,X,X,X,X,X,X,X,X,X,X,X,X,X,X,X",
",X,X,X,X,X,X,X,X,X5   i ^ o.! o.V X ; ,X,X> = y k k C C Z ..C - o ,X,X,X,X,X,X,X,X,X,X,X,X,X,X,X,X,X,X,X,X,X,X,X,X,X,X,X,X,X,X,X",
",X,X,X,X,X,X,X,X,X5 X f ^ o.o.o.B X - ,X,X- $ 9 b n ^ X.o...Z ; $ ,X,X,X,X,X,X,X,X,X,X,X,X,X,X,X,X,X,X,X,X,X,X,X,X,X,X,X,X,X,X,X",
",X,X,X,X,X,X,X,X,X,XX i C Z C Z n X - ,X,X,X$ 9 g k C Z C Q B ; o ,X,X,X,X,X,X,X,X,X,X,X,X,X,X,X,X,X,X,X,X,X,X,X,X,X,X,X,X,X,X,X",
",X,X,X,X,X,X,X,X,X,X,X,Xo o O o o ,X,X,X,X,X,X,X% O o o o o o ,X,X,X,X,X,X,X,X,X,X,X,X,X,X,X,X,X,X,X,X,X,X,X,X,X,X,X,X,X,X,X,X,X",
",X,X,X,X,X,X,X,X,X,X,X,X- - - - - ,X,X,X,X,X,X,X- - - - - - - ,X,X,X,X,X,X,X,X,X,X,X,X,X,X,X,X,X,X,X,X,X,X,X,X,X,X,X,X,X,X,X,X,X",
",X,X,X,X,X,X,X,X,X,X,X,X,X,X,X,X,X,X,X,X,X,X,X,X,X,X,X,X,X,X,X,X,X,X,X,X,X,X,X,X,X,X,X,X,X,X,X,X,X,X,X,X,X,X,X,X,X,X,X,X,X,X,X,X",
",X,X,X,X,X,X,X,X,X,X,X,X,X,X,X,X,X,X,X,X,X,X,X,X,X,X,X,X,X,X,X,X,X,X,X,X,X,X,X,X,X,X,X,X,X,X,X,X,X,X,X,X,X,X,X,X,X,X,X,X,X,X,X,X",
",X,X,X,X,X,X,X,X,X,X,X,X,X,X,X,X,X,X,X,X,X,X,X,X,X,X,X,X,X,X,X,X,X,X,X,X,X,X,X,X,X,X,X,X,X,X,X,X,X,X,X,X,X,X,X,X,X,X,X,X,X,X,X,X",
",X,X,X,X,X,X,X,X,X,X,X,X,X,X,X,X,X,X,X,X,X,X,X,X,X,X,X,X,X,X,X,X,X,X,X,X,X,X,X,X,X,X,X,X,X,X,X,X,X,X,X,X,X,X,X,X,X,X,X,X,X,X,X,X",
",X,X,X,X,X,X,X,X,X,X,X,X,X,X,X,X,X,X,X,X,X,X,X,X,X,X,X,X,X,X,X,X,X,X,X,X,X,X,X,X,X,X,X,X,X,X,X,X,X,X,X,X,X,X,X,X,X,X,X,X,X,X,X,X",
",X,X,X,X,X,X,X,X,X,X,X,X,X,X,X,X,X,X,X,X,X,X,X,X,X,X,X,X,X,X,X,X,X,X,X,X,X,X,X,X,X,X,X,X,X,X,X,X,X,X,X,X,X,X,X,X,X,X,X,X,X,X,X,X",
",X,X,X,X,X,X,X,X,X,X,X,X,X,X,X,X,X,X,X,X,X,X,X,X,X,X,X,X,X,X,X,X,X,X,X,X,X,X,X,X,X,X,X,X,X,X,X,X,X,X,X,X,X,X,X,X,X,X,X,X,X,X,X,X",
",X,X,X,X,X,X,X,X,X,X,X,X,X,X,X,X,X,X,X,X,X,X,X,X,X,X,X,X,X,X,X,X,X,X,X,X,X,X,X,X,X,X,X,X,X,X,X,X,X,X,X,X,X,X,X,X,X,X,X,X,X,X,X,X",
",X,X,X,X,X,X,X,X,X,X,X,X,X,X,X,X,X,X,X,X,X,X,X,X,X,X,X,X,X,X,X,X,X,X,X,X,X,X,X,X,X,X,X,X,X,X,X,X,X,X,X,X,X,X,X,X,X,X,X,X,X,X,X,X",
",X,X,X,X,X,X,X,X,X,X,X,X,X,X,X,X,X,X,X,X,X,X,X,X,X,X,X,X,X,X,X,X,X,X,X,X,X,X,X,X,X,X,X,X,X,X,X,X,X,X,X,X,X,X,X,X,X,X,X,X,X,X,X,X",
",X,X,X,X,X,X,X,X,X,X,X,X,X,X,X,X,X,X,X,X,X,X,X,X,X,X,X,X,X,X,X,X,X,X,X,X,X,X,X,X,X,X,X,X,X,X,X,X,X,X,X,X,X,X,X,X,X,X,X,X,X,X,X,X",
",X,X,X,X,X,X,X,X,X,X,X,X,X,X,X,X,X,X,X,X,X,X,X,X,X,X,X,X,X,X,X,X,X,X,X,X,X,X,X,X,X,X,X,X,X,X,X,X,X,X,X,X,X,X,X,X,X,X,X,X,X,X,X,X"
};
