/* XPM */
static char *result[] = {
/* columns rows colors chars-per-pixel */
"64 64 95 2 ",
"   c #000E1B",
".  c #00131D",
"X  c #001523",
"o  c #011926",
"O  c #081C25",
"+  c #001728",
"@  c #001C2B",
"#  c #081E2B",
"$  c #001F30",
"%  c #02212E",
"&  c #0B212E",
"*  c #042433",
"=  c #092633",
"-  c #032935",
";  c #0B2A36",
":  c #042638",
">  c #0C273A",
",  c #052B3A",
"<  c #0C2D3C",
"1  c #132A35",
"2  c #102739",
"3  c #122C3B",
"4  c #0D313D",
"5  c #13323E",
"6  c #0C2E41",
"7  c #122F41",
"8  c #063142",
"9  c #0D3242",
"0  c #0E3A45",
"q  c #0C3748",
"w  c #0F3A4B",
"e  c #133443",
"r  c #193643",
"t  c #153945",
"y  c #1A3A45",
"u  c #143749",
"i  c #193648",
"p  c #143B4B",
"a  c #1C3D4C",
"s  c #173B51",
"d  c #1B3E51",
"f  c #223A46",
"g  c #223E4B",
"h  c #15414E",
"j  c #1C414D",
"k  c #164152",
"l  c #1D4453",
"z  c #1E4956",
"x  c #1E4759",
"c  c #1F4A5A",
"v  c #22414E",
"b  c #2C444F",
"n  c #234554",
"m  c #294553",
"M  c #244956",
"N  c #2A4A56",
"B  c #224659",
"V  c #284759",
"C  c #244C5B",
"Z  c #2A4D5C",
"A  c #314E5B",
"S  c #26515E",
"D  c #2B515E",
"F  c #32525E",
"G  c #254E61",
"H  c #2A4E61",
"J  c #304F61",
"K  c #275162",
"L  c #2B5262",
"P  c #2E5965",
"I  c #2C576A",
"U  c #2F586A",
"Y  c #325464",
"T  c #385460",
"R  c #325966",
"E  c #3B5964",
"W  c #325668",
"Q  c #385769",
"!  c #345B6B",
"~  c #395D6D",
"^  c #355F70",
"/  c #3A5E72",
"(  c #35616C",
")  c #3C616E",
"_  c #366273",
"`  c #3C6273",
"'  c #3E6876",
"]  c #3B6979",
"[  c #405E69",
"{  c #42646E",
"}  c #416375",
"|  c #456A73",
" . c #426678",
".. c #436A7B",
"X. c #496D7E",
/* pixels */
", 9 : , , * - @ : - * - * $ $ $ w ] I G I L I H G G c c V a 2 + Z ! H C L C K c S D S M E y . t R P K G I K c G G I H d J i # $ ",
"e l p p p 9 0 , p 9 e p u 7 > $ h _ ^ G H W W L C C S c B n 2 X B ! G C C C S c z D D M F h . 4 P L C C K G G I x x d H J f > + ",
"d W Z Z D C C s C C n V J d < @ s _ U G H W W L c S c c B g 2 + B ! Z G S c S S z S S M F y O 4 W L C C H G B H G H H J Q m 3 @ ",
"a ~ L Z L D S n C C C L J V 7 @ s ] W B H H J G S c c c Z g 3 + B Q B B C c S c z M M M F j O - V H C C H G C G H H B d N g = X ",
"9 ~ L B L Z C z C Z B Z J V i $ k ] ^ x G C H C z z S z z j 3 + n R C M C z S z z z M N N j o % Z Y Y E ( ` ! / Y W Z m A g 1   ",
"9 ` W l C Z C z C V B B J J i $ k ] ^ G G H G B z S c z S j 2 @ l U C B S c S c M z S D N j % % v D D Z D Z B B V T J A A b 1 X ",
"< ..R a S C C Z C Z Z V A H i : s _ W G J G H B S S z S N v 1 X B W C c S z S S S M D Z N j % % & ; - % % @ X + * 6 3 1 5 1 O   ",
"9 X.~ l D L C D C S H H V V i $ w / I V G J H B S S c c M j ; X B W S S S S S z S z F D N j - . o % % . X @ @ @   @ X   . # O O ",
"p ` ~ C S C L Z S C n Z Y V 7 @ w ] ^ c G G H H c S c C B g 2 X B W G C S z c c S S M N N j ; - & ; 5 t e e 7 6 e r g r f f . . ",
"u ` ~ C C Z L C D B C H Y Z 7 $ s ] ^ G H B H H c c c c B g 2 + B Q H C c z S S C S S M D 5 = % v M N Z V B B V n M m m m b & O ",
"e ` R V C C D C D Z C D Q Z i : s ] ` G B V H G S z C c B n 3 @ V ! G C S z S S M S M S A j % % F F L Z C C G H B m A V b b & O ",
"9 ~ R V C C L C L C V D J J i : q ] ` H G d G G S S C C Z g 3 + V W G C S z S c z S C N D 5 % % D D V C n B G d B B Z g m v & . ",
"e ~ R V C C D C H Z Z Z J J g > 8 _ _ I G B C C z z S S Z l 2 X V ! G C H C S S M S M S D y % % D D C C G G B B H H J V A m & O ",
"9 ~ L C C C S C C H H Z J J d : 8 _ ^ H H V C S z z z z V g 2 X G ! C H C C S c M S N S N y % % D D L C G G G G G H H n V m * o ",
"e ) ! V C V S V C L H Z H A i : p ] / G H B K S S S S z M n 2 X J ! G B K C S C S S M M D y ; % L G C x G x x d x B Z n n g @ X ",
"u ` ! C C C K C C C H Z Z V i $ x ..^ G B C K S ] ( P S V d 3 @ V W B G L C K S S S M M N j ; - R L C x x G G G G G H M V m * o ",
"9 ` ` H C c C C G G H L V M 5 % j R ! / / ~ ..` ) ' E Y R m 3 @ V ! C Z L C S Z M D F N N j % 5 P S S L d H J G x G S M N v & . ",
"9 ~ / G G c G G G C G Z V m t % X 6 9 u q u l p h j j p j t = % Z ! G C L C Z Z N D D N N 5 % 5 P C C Z d V J G G G K M N v & X ",
"< ( ^ H G c G G G x B Z N M r % @ u u , , * * @ % - - % & % X @ C ! K C Z V D V D N D D N 5 % h R S C C H J J H G G L M Z m # X ",
"9 ~ ! C G G K G G B B C V M v = : B B d l p h u 4 h j t t 4 % % C ! C C K C S C D M D D D 5 O j ( K C V G J H G G G L Z A v O X ",
"6 ~ W G G G K K K c G C M N j ; 6 ! H n Z C B z C D D S N v > @ H ! G C S S S C S M S D D 5 % 0 ( P Z z Z H H G S S S C N b O X ",
"9 / U G G G I G L c C H N N v ; u ` L l C z l j j M j v N g * X H ! K C S C S N N M Z M N h % 4 ( ( S l Z Z d G c z S M N v O X ",
"9 ~ I c G G G G L C Z Z M m 5 * < / G p S D S L n S B n D n ; @ K U G c S C S C M S S l N j % % R ( S l H V B L S z C M A g X o ",
"9 ` I c G G K G K c C S M v 5 % a X.W p Z B l C n S M n N g = X S ( K c S z S c v S S j N j % % P ( S j V B d J S h C N Z g + O ",
"9 ` R C G K K G K G G x M m t @ d / W B C Z C C C S M M Z g = o C ] G c L z B L D N D S D y % - ( L C B V H G d z z S M Z m % . ",
"9 ~ U C G G I c K G G G M M r @ i / Y B S C D C M S M N Z g = @ n ] G k C C B Z B n M n M t o - ( L C V H J d H c z S M N b & . ",
"9 ! U C K G I G H B G G N N y % u / L B S C Z C M S V Z D v ; @ Z ..L l D C S M D Z Z V D j % 5 ! S V G H d G d c c S z Z m & . ",
"9 R L B G c G c G B G V N Z y % e ! W B D C C C M S N Z F v > % C  .W C C V Z n F V Z V N r @ ; P S d H J J G G S S K M F m & o ",
"9 W H c G G G c G G C C V V y % u Q L B H G C Z M S S N D v ; % V  .' Q W Y Q Y Y J T Z F y @ 4 P S M Z J H H H S S S M N m & X ",
"9 Y C B G C G c G x C C V N r % i / W C H Z L C S D N Z F v = @ s J W ! Z Z Q J J A A Z A g = r R S M C H J W J K S S M F m & . ",
"6 L C l G C c G G x C C M m r @ d / Y B C C L C S D Z Z F v & o $ 6 > 7 < = 7 > 7 3 3 2 r 2 X < ! S C S W Y L L K S S j A N & X ",
"9 L B z K C c c G x B V M n t @ d } W B L C D D S D Z Z D v * @ 7 $ $ : : + : + $ @ @ + = * . 5 ( P C D L W R P K S S v Z m & . ",
"- D D D P S ( P P P R ( F D y - p ( ~ C C V Z S H L V Z L d - X u G h p p q p u l d M V m 3 . 5 ~ P C C S L K S S S S C M v - O ",
"- S P F ( P P S ( P F ( { | E 0 9 ~ U Z L C C Z Z H Z Z Y g : + d Y Z B C z G C B C Z V N 5 X 3 ~ L C G S L P S K S F z M M % % ",
"% 4 h h h h h 4 4 , - 4 5 y 0 % < R R C Z V C C Z H Z H J d : X d Y Z C C C G G H Z F A A 5 . ; ~ U L C S L L S D D P N Z m % . ",
"% ; - - - - , , - , 0 0 - - 4 O 9 ! L C S C Z Z Z L Z J Y n : @ a Y C z c C G G C Z Z D A 5 . 1 Q W H G S L L K S D P D N M % o ",
"t n h j z 0 h h z S P D j j b 0 a ) R M N M D Z Z D Z A Y n = X M ~ L S L G L K C C H Z A 5 . 1 W Y H G H H H H S D W V D b - o ",
"h P L Y P S S S S S S D M F M - l ' R M D Z D Z V D Z Z Y n ; o M ~ L S K G K G C V Z V N 5 . 3 Q Y H H Z Z Z H Z Z F m N b & @ ",
"9 L P D K S P z S M v M F F j O j ` R Z D Z D Z V H A Y Y n = o n R C V C c K c Z C D N N 5 o 3 J J H V Z Z Z C B N A M N b & % ",
"p ~ L C z z S c D S D D N S j O a ) L Z Y L F Z V A Z A E n - % B ~ L K L G I K L Z Z m m 5 X 3 J J H J B Z B Z M B V n m n = @ ",
"u W H B G C c c M M M M N M y 1 t ) ) F D M D D N N N F A j ; . N ( D C L S K L G C H N N 5 O = V d B B Z Z C V N n n n m g 2 @ ",
"p ! G B K G S c S M S M N M 0 - 5 Y N M F F F F F D A F N b 1 % N R C S K G I K H H D V A y . & 7 6 6 6 9 9 9 4 p p e 5 3 5 > # ",
"s ^ G B K c S S S S S M N j 0 - j ) F N D D F b F F F F A b 5 O M R D C K G L K L D A Z F y . & $ $ $ @ @ @ % o @ % % o X X X X ",
"d / L x K c S S M S N N N b 0 O j | { F F N F F F E [ E F F 5 . M R D C L G K K L H F Z F 5 o ; i u e 9 9 9 4 4 - - 4 5 4 > = @ ",
"x / L B G c K S S M M M N b y - O D T N F D E E F F E F F F f % n W C C K S L G L H Y Z m 5 X 5 J H B B c c M z j M S D Z m y ; ",
"s / L x G C K S M M S N N b y ; . y 5 4 y y 5 ; 5 5 5 1 5 5 ; @ n L C Z K C K K H Z T Z m ; o f Z B B B z z z z S C j j M v 5 @ ",
"x / H B K c S S S S S S N N y ; O j 0 ; 5 ; % O ; = & = & & O o j L Z C K C K G H Z H V m ; X y L L H C S c S S S z M M N v 4 @ ",
"s / L c S C c c P S F D D N y - % D N v M j N N v v m A m 5 ; % j F M C L S K G L C H Z N ; . 5 Y K G c z z z z z z D D D v 4 @ ",
"s  .W d B C S S L S D Y D Z a * $ Q ^ H H L Y D D F D D F v = @ j P M S L C L H L H D V M 3 X 3 ! K C G G C c C x B V Z Z M e @ ",
"s  .Q d B B S S S c D L D Z a - $ W / H Z L L S D P D D F v = o v F M M L C L G G C Z B M < X < ! K c c G G C C V C V V Z n e * ",
"d } Q B C C S C S M S L L Z a : : Q ! G L D L Z D L Z D F j & o M F C Z L Z L H C C Z C n 2 . < ^ K c c c G B C C C V Z V M e @ ",
"d } W B C C C C S c S D Z H a : 6 Q ! H C K L L D D Z N D j = @ v Y M Z L C L L G C Z V M 3 X < U K c c C c B x V C V C Z n e @ ",
"n } L n Z C C z c C Z L Z Z d : 6 / ! Z D C L D S D N N D j = @ M F S S L C D G H C H V M 7 X 7 ^ G c x c c c C C C V Z V M e @ ",
"d [ H B C B c z c C S C C Z a $ u / ! G K Z L D S D S N N j = @ v F C N C C C C G C Z C V e @ e ^ L c x x C B B C V Z Z Z m e @ ",
"d Q H n Z C x z M C D C B Z a $ a / W C C C L L Z D N N N v = @ j F M M H B G C C C Z C m e o e _ L c c G C x C Z C V Z V n 7 @ ",
"g Q B B Z C z z c S L Z B Z d @ d / W C S Z D L D D S M F v = % v D M z C l C x C C Z V M e o e _ U c c x c G B C Z Z V Z n e @ ",
"g Y C B Z Z S c S z z Z D L a @ i / L B H C S C S D Z M F j = o j M N z z M c D C U Z V Z 9 @ > U ^ c c K C C B Z C J V A M = $ ",
"a W D V S S D c S c Z S C Z a $ s / W B H C L C S S Z Z A v = % 5 j z j j l l C B G n n m t = 3 U _ K c G C G c Z B Z B Z n : $ ",
"u H C l B B S l l c Z C n z u @ s } W C L Z L D S Z Z M N j = @ . % % % @ % @ * $ $ $ @ @ @ X X G _ K c G G G B B n C B V n * @ ",
"g W D Z D S L S S S D L C V d : d / ! H L L L D M D N N N y * o 5 h 5 4 0 9 9 8 q , 6 9 < > = @ C _ K c G C L B B n Z n V n * @ ",
"a Q Z B V B S S S M B C B V p $ d } ! H P L P L S D M M N f = @ j M v h z l d d d p p a e < = X H _ I C G C L C C n Z V Z n = @ ",
"u Y L Z Z S P S S c B C B Z a : s } ~ H R L L D M S M M N j & @ v D D Z L L L L L C C Z M e * * L _ G c G C G G C Z Z V Z n * * ",
"y ~ ` `  .` ' ( _ ( / ~ ! ~ T a d } ~ L P L F S S D M M N v * @ v N S n C C C K C G B Z V 3 o > ! _ c G L x C G Z C Z V V n * @ ",
"* B Y W ( ! ! L P P ! R H H Z a s } ! L R L D Z S D N M N j = % n F L N C C B G L L V L E e @ p ] U x G I x C L H Z L V V n % @ "
};
