/* XPM */
static char *c686d05d870744b1faee5f353d4efc62qqI1Y0TOjNK1KInZ[] = {
/* columns rows colors chars-per-pixel */
"64 64 176 2 ",
"   c #39383D",
".  c #3F4246",
"X  c #454346",
"o  c #4D4747",
"O  c #4A4947",
"+  c #454449",
"@  c #4A474D",
"#  c #474B4E",
"$  c #4B4A4D",
"%  c #52474B",
"&  c #524B4E",
"*  c #4D4D52",
"=  c #524E53",
"-  c #584F54",
";  c #584E59",
":  c #4F5255",
">  c #4E5658",
",  c #535255",
"<  c #595456",
"1  c #535856",
"2  c #55555A",
"3  c #5A555B",
"4  c #555A5C",
"5  c #5B5A5D",
"6  c #61565C",
"7  c #615C5D",
"8  c #57605D",
"9  c #5E605F",
"0  c #5D5D62",
"q  c #635763",
"w  c #615E63",
"e  c #695D67",
"r  c #5D6264",
"t  c #5D6967",
"y  c #5D6668",
"u  c #5B6969",
"i  c #636265",
"p  c #696466",
"a  c #656867",
"s  c #656469",
"d  c #6A666B",
"f  c #656A6B",
"g  c #6B6A6D",
"h  c #716C6E",
"j  c #6E706F",
"k  c #71706E",
"l  c #6D6771",
"z  c #666E71",
"x  c #6D6D72",
"c  c #716E73",
"v  c #786F72",
"b  c #726F78",
"n  c #667272",
"m  c #6E7173",
"M  c #6E7679",
"N  c #6E7A7B",
"B  c #737275",
"V  c #7A7476",
"C  c #757877",
"Z  c #757479",
"A  c #79767B",
"S  c #757A7C",
"D  c #7B7A7D",
"F  c #80767A",
"G  c #817C7E",
"H  c #7D807F",
"J  c #767D82",
"K  c #7D7D82",
"L  c #817E83",
"P  c #887D81",
"I  c #768081",
"U  c #7E8183",
"Y  c #7E8188",
"T  c #838285",
"R  c #898486",
"E  c #848887",
"W  c #898987",
"Q  c #858489",
"!  c #89868B",
"~  c #86898B",
"^  c #8B898D",
"/  c #938C8E",
"(  c #8D8C92",
")  c #938E93",
"_  c #9A8F93",
"`  c #8C9195",
"'  c #8F969C",
"]  c #939195",
"[  c #9A9496",
"{  c #959499",
"}  c #9B959A",
"|  c #959B9D",
" . c #9C9A9D",
".. c #A2979C",
"X. c #A39B9E",
"o. c #A8999E",
"O. c #9D9CA2",
"+. c #A497A0",
"@. c #A19AA1",
"#. c #A19AA1",
"$. c #A39CA3",
"%. c #A09FA4",
"&. c #A69FA6",
"*. c #A49DA2",
"=. c #A99FA7",
"-. c #AA9DA4",
";. c #AC9FA8",
":. c #B09FA5",
">. c #9CA2A5",
",. c #A2A1A6",
"<. c #A3A2A7",
"1. c #A1A0A5",
"2. c #A7A0A7",
"3. c #A4A1A4",
"4. c #ABA3A6",
"5. c #A4A3A8",
"6. c #A5A4A9",
"7. c #A6A5AA",
"8. c #A5A5AA",
"9. c #ABA4AB",
"0. c #ADA4A9",
"q. c #A8A7AC",
"w. c #ADA6AD",
"e. c #AEA7AE",
"r. c #ADA5AC",
"t. c #ACA5A9",
"y. c #A3A8AC",
"u. c #A9A8AD",
"i. c #AAA9AE",
"p. c #ABAAAF",
"a. c #AFA8AF",
"s. c #ADA9AC",
"d. c #B1A2A7",
"f. c #B1A7AF",
"g. c #B1A5AA",
"h. c #B3AAAD",
"j. c #B8A9AE",
"k. c #AAB0AE",
"l. c #ACABB0",
"z. c #AEADB2",
"x. c #AFAEB3",
"c. c #ADACB1",
"v. c #AEACB1",
"b. c #B6A7B0",
"n. c #B0A9B0",
"m. c #B2AAB1",
"M. c #B5ABB2",
"N. c #B3ACB3",
"B. c #B6ADB2",
"V. c #B0AFB4",
"C. c #B4ADB4",
"Z. c #B6AFB6",
"A. c #B4ACB1",
"S. c #BAADB2",
"D. c #AEB4B2",
"F. c #B1B0B5",
"G. c #B3B2B7",
"H. c #B7B0B7",
"J. c #B4B1B4",
"K. c #BBB2B7",
"L. c #BAB2B5",
"P. c #B4B3B8",
"I. c #B6B5BA",
"U. c #B5B4B9",
"Y. c #BBB4BB",
"T. c #BBB5B9",
"R. c #BBBABF",
"E. c #B9B8BD",
"W. c #BBBABD",
"Q. c #C1B5B9",
"!. c #C1B8BD",
"~. c #C3BABD",
"^. c #BEBBC1",
"/. c #C4B7C0",
"(. c #C1BCC2",
"). c #CFCED3",
/* pixels */
"( K K ( ( ( ! L K l ! ^.^.{ ( O.K K K l s ] ( Z K ( K J T K 0 2 ( K T T K L { { Z 0 x ( x K ( Y A A T U f r x Z s m K ~ K x 4 # ",
" .T L O.V.P.5.! K 0 : r 0 0 0 s * = 0 2 0 ( ! A T ( ( K A Z l s 8.( T K Z Z K K Z s K <.K K Q Q Y D T Y f s x Z m Z Z K K Z 0 : ",
"s 2 0 s 0 0 w 0 * , x ! K x 0 : i 0 2 2 2 Q ~ K L A c A Q ] Q x O.K B Z Z J Q ^ l 0 A l.] T K A Z B A S s l K K K A m Z K A s 5 ",
"K s 0 w w s s 0 2 0 ^ O.( K A l K g 0 * @ A K A c K ( ( A S A l q.( K K L Z Z Z K l L F.l.z.O.( ~ ! Q K s l Z c K A Z Z J A d 0 ",
"A K ^ ^ b l J ! Z 0 l Q K K ! ( T K b s s ( ( Y ! A Z K T ! Z * T Z x K ^ ~ L K m 0 0 s 0 l w * @ @ = * * s K A x Z Z A B x s w ",
"z.! B K ^ ( ! B s , x O.! K ( ( Z M l , * ! ^ A Z K ! K x x M x I.I.v.w.v.&.( Q A Z s 0 + 0 l l x l g 2 , s x w s l x Z x s w 0 ",
"P.{ K J B Z K J x 0 Q 5.K s K T ! ( A 2 * { } K ( ( K Z K K d 2 2 l s 0 w l 0 : + * 2 i 2 x L ! Z Z x 5 : s c w s s w w w s 0 0 ",
"z.( K T T ! ! K s * K 8.( K ( K A ^ T s 0 <.O.K Z ~ ! K ( K x l * l s : 0 s 0 0 0 g A | ( ( K B ^ T A w 2 d x 0 x i 2 = 0 w 0 5 ",
"w.L L L Z B A L K = Q R.T K ^ T L Q J w ; ( 7.z.z.K ! O.K K K 0 s K ! A Z K K Z x 0 Y q.K T ( K A l K w 3 w w 3 q 5 - e d d e + ",
"^.( K J J K J K x = K O.Z Q ( x A J L A 2 0 4 s s s = * 2 * * w ( { ~ A K ! Q A l 0 T i.K A T J P K L l e L _ ) Q L K ! ! Q D 3 ",
"P.! K K L L K K l * Q F.K A A Z K A K A 0 l 0 0 x A d s J s * 0 O.( K Z K L K Z B 5 K z.! K L K L L P l 0 ) n.C.*.#.} &.#.{ P 0 ",
"( Z K ! L L K L S 2 T z.Y x l K K ( ) J 5 A K A ( K A B c b A Z ( K Z A T K Y ! B 2 Z z.( K K K b P P d ; ( 9.n.C.H.C.Y.Z.9._ e ",
"! x K ! Q T K L Q Z ( O.L ( ) { l T { K 0 Z K T s x ! ( L Z s 2 T Z l Z K A K ! B 0 A i.Q B Z K L ! P l ; { r.r.O.&.&.r.&.#.! ; ",
"6.K J K T Q K K i s ^ 1.Y K T 1.^ K K K x ~ ~ ( ^ { K Z ( ( l l <.Q x Z K K L ! K x ^ l.T x Z L ! P l q 3 $.a.a.&.m.m.C.n.w._ q ",
"i.L A K T Q K A Z s ! z.` K K i.<.! b x l ( Q K K T A A { { Z e 7.{ K A A S K K A l S { T K K L P P l l 3 ..=.n.=.C.M.r.=.=.) ; ",
"] Z K T K K S Y K 0 : 0 0 x 0 g 0 w w : @ J T K T J ( K = 0 x ; Z B c s 5 , 2 5 s * * B K ^ T c K / P / e _ ..S.M.Q.S.M.r.r._ 3 ",
"W B 9 9 a 9 9 4 0 0 > 0 0 u y 0 0 0 ; . 0 ' ` J J J b l 0 ; ; % 7 < < 9 7 7 9 8 9 < O j [ ( R H / P V P h / g.h.4.4.h.g.h.s.X.7 ",
"W m 9 i a a t 9 > > > u z J z y l s s # 0 ' ' J K J M b K b q ; / / / / W W W / ^ C 4 C  .3.3.k./ P l v k ..j.4.o.X.4.4.g.4.[ < ",
"k 9 & 1 5 1 1 1 0 0 > 0 z J J J J J l ; 0 O.>.J J Y K K ( P q q 0.4.s.4.g.4.4.4.[ C X O t 9 7 7 p 5 % - < _ s.[ 4.4.h.h.h.h.o.7 ",
"[ E H G R R R Q Q z 2 2 0 z M J J b J 0 4 ' y.J J ` ~ L ( L q e 0.4.4.4.4.4.4.4.[ D & 9 k k a a 3 7 6 6 < / J.t.4.3.s.4.h.4.X.7 ",
"4.X. .X.3.X.X.,.} Z 2 * 0 0 l b b x Z 0 > ` >.J K ( K b P c 6 e h.h.g.h.h.s.s.k.W k & a E D D C G P P V p [ T.h.3.4.h.s.h.4.X.7 ",
"h.g.0.h.h.4.s.k.} c : 2 e l l l l s x 0 0 J K J K K s 0 l l 6 w h.h.h.h.h.k.h.h.] D , a R G H G G R G V 7 / s.4.4.g.D.h.D.h.4.7 ",
"h.4.0.g.0.*.-.4.$.b ; 0 l x b J b l x 0 0 b l 0 x i 5 3 e d e 6 s.4.t.t.4.4.k.4.[ D 1 7 H H H H D F G D 6 P 9.A.4.X.s.4.h.4.X.1 ",
"S.j.S.L.j.4.4.h.b.K ; 0 l x K L Z M b 0 0 s ; 0 2 3 3 5 q q p p 4.4.4.3.4.4.3.4.X.T 7 a R H C V k D R D $ i ) t.s.t.h.h.D.s.3.7 ",
"d.g.g.g.g.4.g.4.[ V & w A l b L J Z Z B 7 Z T X.[ ] [ X.4.] k p S.S.L.L.k.s.4.h._ C X < C / H W A P L K 0 ; ; K 3.q.O.O.1.7.{ 2 ",
"g.g.g.g.g.g.g.g.4.R 3 3 x l b b d d B x 7 W  .h.h. .[ *.h.4.P p 4.X.X.[ X.s.h.D.D./ 9 k W ` C C ! b J J 0 * + l a j l l i i i + ",
"g.g.g.g.g.g.g.s.) K & ; e e l x Z j D k 1 W 4.4.~.~.~.L.4.W V p 4.L.~.L.D.h.4.[ 3.D , a H W H C L b s l ; > @ q 5 0 s s 0 0 x s ",
"g.g.g.g.s.4.g.4.;.P 0 e K x l Z i r k a o / h.o.L.-.[ 0.L.g.W < _ h.h.[ _ X.D.W.T.^ 9 k C R H C b b b 0 * J l J d s 5 0 w s x 2 ",
"g.g.h.4.h.4.4.h.} L ; * s l b Z j f C p & _ Q.o.d.S.Q.Q.o.W V 1 v :.Q.D.L.S.D.L.h.E k T A H H S K L L x q ' >.L ( L K J J L K @ ",
"g.g.h.4.4.4.4.4.;.{ w @ 0 Z Q J S B C i & _ g.o.o.o...g.L.B.X.< 7 k p & 7 7 < 7 9 & 9 W V H E K K b l 0 q ' ' J J L K K J L K * ",
"4.4.4.4.k.4.4.k.a.( 0 = 0 2 0 2 1 1 1 O o / d.4.d.Q.d.Q.o._ [ 7 < p p p V p & < , O k  .H D U A ` Y J l q O.+.J J J K K K K L 0 ",
"h.h.h.h.h.4.k.4.) s . s J 0 ; l i t 8 & < ..h.S.j.Q.o.4...[ 3.9 7 v h k F h 9 k 9 < T s.H D Q K b K J 0 + ` +.J L L K K J J b 0 ",
"d.d.4.d.d.4.4.4.R & 7 Z B B a j m t y 4 2 [ w.*.-.r.f.f._ g 1 $ 7 k C j j C C k g 1 H s.C D ] W W U t t 2 >.y.Z Z U Y W Y ~ m 0 ",
"d.g.d.d.g.d.d.4./ & 3 k B H V C n u u 4 2  .Z.9.e.b.M.e.5.{ B $ 8 a m j j C H C k < D [ k h k k ( Y D I z | | Y J U U Y A Z 0 : ",
"Q.Q.L.j.g.s.4.4.G & < j V H H C I N M r 1 %.Z.&.} *.-.%.P.W.( 2 1 a j j k C H H a 9 H 3./ G V a 0 r y f y g S U U U Y K m 0 2 * ",
"% % - 6 7 7 a k 5 X < k C B k m n n n 0 2 %.P.w.b.K.P.Z.^.Y.^ 2 9 a B j C C C C C 7 & 7 & , , < : 4 4 2 4 2 y Y E K ~ K Z 2 : 2 ",
"G F V h p 9 7 < < 1 7 C C j C m S S I m 0 O.V.9.{ O.=.9. .L s * a k C C j C k k k 9 < k h h 3 < 4 f 0 * : * : l U D Q Y K 0 0 r ",
"V k V C D G G T D j 9 k H H H C y r m m s O.G.Z./.^.^.Y.{ s 2 , g C C C j j j j k < < k k F D T A ( K x f s s Z I K Q T K g s r ",
"R R T R H H T T H C a j C j H k M f M f @ 0 s 0 2 = 5 s 0 @ @ 5 f C C C B B B k p 9 C 3.[ _ R G T { L A 0 w 0 B A T Y Q S S y 2 ",
"H H H H H H H H a k a a a 1 9 9 f 0 l x * w s d x w 5 s s 5 , 5 i j C C k V V B p 9 V 4.X.4.s.X.l.l.{ ( 2 5 0 K A Q K T S J r # ",
"C H H C C H H H W p a j 4 O 1 < 0 2 = * = i x Z Z x M A x g s 2 1 4 < k k V p i p 7 G L.h.h.g.s.&.&.n.$.b 2 0 l Q T D Z S M s : ",
"C H H C C H H H C 1 < j 8 & 1 9 w w q ; 2 2 s x Z x Z S x d s 1 5 5 < a 7 a 5 1 7 < C B.h.h.h.g.r.=.n.} x ; w x ~ Q K Z S S n 0 ",
"E H H H C H H H W g G  ./ W ] _ ^ / ! A s 2 0 y m m S S x f s 5 Z k a k p g 7 7 < - v h.0.d.g.h.C.b.S.-.l - 6 e { { ` ( ` ~ z > ",
"/ H H H H C T T B 7 G 0.3...4.3.f.n.b.O.B 4 2 y x M J S x s 0 0 A V p g p h p p 7 < V h.0.s.g.j.w.-.*.P q ; v ) O.<.i.z.G.G.O.~ ",
"O.R G E D D G G h 7 R j.S.j.S.Q.+.=.r.} B 2 2 l m M S Z Z g w 0 ^ W D H F W R R v p G Q.d.d.s.g.;.b./.b.F ; % @ s 0 4 , 4 r 0 # ",
"k.W H W G D W G 7 - F j.j.d.f.:.-.=.=.} B : : f M N m M Z m i 5 D D h V V R F T F h R L.d.4.d.d.=.-.;.} v 6 e L L A x y r r > . ",
"L.W G W G G R G p 6 G S.B.d.b.:.Q.b.r.+.A 2 > y S N z z I A 0 2 R P V T F W R R v p F j.4.4.d.h.b.;.b.+.l - w l Q Q T U Y Y n > ",
"W.W H W H V R F h 7 P j.j.-.:.-.b.;.&.} K 4 4 x J S f f Y K w 2 H H V H D R F F h 7 F d.-.4.s.j.b.;.b...l - w c ! ! Q U U J z > ",
"D.k.3.W H H D W p o F h.:...d.j.&.%.<.( x 5 0 0 x J x K A s 2 2 K A K K A T ^ T c 2 B l.A.>.w.Y.w.9.H.8.B 2 d ! L K K K Z s s r ",
"t 8 8 1 1 9 < 9 p & F j.4...d.g.m.l.A.O.Z 5 0 r s x s Z x s 2 0 ! K K K K Y ! K c 0 L D.z.O.O.>.r.8.8.O.x 0 d K A K Y K K Z s 0 ",
"t 8 9 9 9 k 1 , 7 & G L.h.o.g.g.<.1.z.8.A 0 0 d K ! B K A Z s b  .T K K K Q Q Z 0 2 A w.z.z.^.I.7.u.%.O.K ( ( { ! ( ! T T K l , ",
"| H H H C H h 7 7 & G Q.h.o.d.4.9.5.V.P.S w w d K K x B x x s A 7.! A K L Q K x 0 * 0 s 0 2 0 * 2 0 0 e 2 ( ( ! A K Z x K ^ K s ",
"k.H H H H H C k 9 & G Q.j.o.h.4.m.7.z.z.l 4 2 * 2 2 @ 0 2 0 0 x P.( Z K T Q K l 2 * 0 x 0 s l 0 0 x 0 s 2 ) { Q T ! K Z A K Z 0 ",
"W.U H H H E T H p & T W.h.o.h.h.l.7.l.l.x l s 0 5 0 2 w 0 w 2 s E.( A K Q ! K x s w A ! K A Z 0 0 l r 4 * K ( K Z K K K ~ ( K s ",
"W.E H E H H H H p < G L.h.o.h.h.z.l.z.I.K | { K K T J L K b 0 s ^.( S T T K K A 5 2 Z ( T K K l s K K l s ( l.5.P.I.F.w.O.^ A s ",
"D.H H W H H R R p < G L.h.X.h.S.5.<.O.<.B { { Z K ! L ^ L Z 0 0 I.( K T L K K K s 0 Z ( ( K L K K ! ! 0 + 2 x s 0 0 0 0 0 2 * 2 ",
"L.W T T H G C G h < G h.s.3.4.h.I.O.O.` w { O.! J A T K K K x x ).O.K T K K ( ( A s T O.K K L L Z Z L x 0 s s s w s s s l s 0 2 ",
"D.W H G V G D H G 7 V D.T.4.3. .! <.P.&.Z c.w.T L Z A A T T s 2 O.! K T T K A J K x ~ w.K K L K K A Q B 0 s l x Z b m Z B l 0 2 ",
"L.W G H C G V R [ p k 4.W.L.s.[ s 8.P.T 2 O.O.K K T O.{ ! J s s ^.^.z.l.5.( L K Z s ! 7.L K L J T K Q B 0 s x A A A Z Z A x i 2 ",
"D.W G G C H G T k < k X.k.g.W 9 2 O.P.{ x 7.{ Z K A K L L K i 2 l M s 2 w 0 @ @ w 2 S %.K K Q K T K Q x 0 s m A l f l m B x s 0 ",
"h.R G G V H G R T i < 1 < p k 1 0 x w *   A L L ( K ! L ^ ( Z l L K s 0 x b s s w 2 A <.K K L K L J L c 2 s x B f s d x x l r 4 ",
"k.G G G G G G R p 9 k k 7 p p O d w 0 e = L K J x Z L K Z x s b O.( B b T Q Z x b d ! 7.T K K K K J L l 5 s l m B c B B m l 0 2 ",
"X.G G R G W D G V a V G C k R H ) K M x : ( { ~ ! A J J ! ! x 0 O.L J L Q T ! T J l ~ u.L K L K K K ! B 0 l x c J A Z Z Z x w 5 ",
"X.F G W R W F G D h H [ W H E / J J ! ! w &.8.L Z A ! L K b 0 2 P.) L ! J Z K T J d L O.K K T L L K ( K d x Z b x c x Z Z Z l 0 "
};
