/* XPM */
static char *result[] = {
/* columns rows colors chars-per-pixel */
"64 64 87 1 ",
"  c #000E1C",
". c #00121D",
"X c #001523",
"o c #011926",
"O c #001529",
"+ c #001C2B",
"@ c #001E30",
"# c #02222E",
"$ c #0A242F",
"% c #032433",
"& c #092633",
"* c #032935",
"= c #0B2A36",
"- c #052639",
"; c #0B2738",
": c #052B3B",
"> c #0C2D3C",
", c #132C36",
"< c #102739",
"1 c #112C3B",
"2 c #0D313D",
"3 c #14323D",
"4 c #0E2E41",
"5 c #112F42",
"6 c #053041",
"7 c #0D3242",
"8 c #0E3A45",
"9 c #0F3A4B",
"0 c #133443",
"q c #193542",
"w c #153946",
"e c #1A3A45",
"r c #133749",
"t c #193749",
"y c #143B4B",
"u c #1B3D4C",
"i c #1B3E52",
"p c #223E4E",
"a c #16424F",
"s c #1D414E",
"d c #154051",
"f c #1D4453",
"g c #1E4956",
"h c #1E4658",
"j c #1E4A5A",
"k c #21414E",
"l c #2A454E",
"z c #234554",
"x c #294653",
"c c #244A56",
"v c #294A56",
"b c #224759",
"n c #244C5B",
"m c #2A4D5C",
"M c #314E5C",
"N c #25515E",
"B c #2B515E",
"V c #32515E",
"C c #254E61",
"Z c #2A4E61",
"A c #304F61",
"S c #265162",
"D c #2B5363",
"F c #2D5A65",
"G c #2B566A",
"H c #2F5C69",
"J c #325464",
"K c #395561",
"L c #335966",
"P c #3B5964",
"I c #325668",
"U c #345B6B",
"Y c #395D6D",
"T c #365D71",
"R c #3A5E71",
"E c #35626E",
"W c #3D616C",
"Q c #366172",
"! c #3C6273",
"~ c #3E6875",
"^ c #3C6A7A",
"/ c #41636D",
"( c #426574",
") c #426876",
"_ c #426678",
"` c #44697B",
"' c #446F80",
/* pixels */
"%tttu0upuppppiuiiiihiiirr4yr#.**224747770777:7>7r07200rr777rtu7*",
"bYIIIAIIUYR(__((TTRRTTIGTZAC:8mNDDJIUIRW!!YYYR!!!!!Y!!!(((WUUIb7",
"J!JBZnBmmCZZJIIISGFNCZCZIDGi*wFFcnnCZFUHUGGTYQT!ILIIIIUYYIIDIBu-",
"I!mccbcbpzzbzfbpgjjghbCbnZFi*sLBgggbbbnnjbbjbnnScbbvbbccgbbvmny:",
"Y(ZcmnBnBnnNncnbNNNNNNNNbSHf:fENSSSCCCSZCCCCCCCCnmnnmNBBnNmSDny:",
"U!ncnnNncncnnbnnNggNNgNNgnNw#aFFjjCCCCCCCCCCCCbjnnnnmnnmmmnnBc8%",
"U~FNSnSNggggnnCNNNNNNNNNNNNa*aFHjjjCCCSCGCSSSCCbnnSBSBNSNnnnmc8%",
"DESNNgncnggnnnNSgNNNNNggNjNd*2NFjCjCCCCSCCSSSSCnnnmnmnnnmncbbd6+",
"FENnNgnnggjjnNNNNvNNNNNgBNBg*7UFCCCCCCZZCZSCCCCCbcmZDZZmnncnZhr*",
"UEnnNgnnNnnnnNnNFNcccNNNNgcN6:IFjjCbCCCCCnCCbbbCSBSZmnbmBnnmmn8*",
"UYbnSnmnSDmZnBNBFvNvccvvNcnL8:JLbbCbnnnmmnnnbnnmDmZmmnbbmmcbmb0@",
"IUgcmnmncnmnSBDBNvcvlNccBcmB74IIbbbbmnmnbnmbncZBnmmmZmAZmnbmZnr%",
"DImcmbmZncmmBDJBVvvvvcvBvmBz-rRIvmvcnnvnvbmcnvmmmmAAAAAAmmAAAmt@",
"DYmcnzZZZmZmZmmmvvvvlzxvmVmz-u(MzvvmmvvvzxvvvvcvmMAAAAAbpMZmmp5-",
"ZZuuu0tuuuuiiuuueeee333euukk-rJtteeeee3qqqukeeqqtupittt5tppt55;@",
"uu%@-@@@+@@%--%%$*=*###*&#-q%@r%O++##++o+%*&&%#+@%-;4@@O@@-@OO@@",
"iiiiiitttyr44-@@@O.#sse3wssw7:2ritr0rrtuu4r4-OXyhy6699999yidd999",
"(R((RRTT_RRRTUYUmu3V/WEWW()~YUY!!(RTYRR!`YRIby4I'^QQ^'^^Q^^^^^^^",
"TTUTIIIIIUIIUITUM33VWVNWLLLLLFILIIIIDDDDIZJZbr8UTTTQRRTIGGUIGIGT",
"ZJZZZmCbnnnmCmZmz=3BLlcVccccnnnnbbbnbbnbfiibi6rRbnZGZCZCCCCbnbCC",
"ILLDZSmmBBBSBDDBl3eVVVVVJmmBZZZmZSDBBBmnbnnmd:wRZZAZCCZZZZZZZAII",
"BDDDZZnnnnnSBBDBa,evvvFcDBmmmnnnnnnmNnnnbngny%wEbCCbbpbZZZZbZGAG",
"DFJDDSSSBBBSDDFDv*3FVvVVDmmmnmnmnmmnnmnnbmgcy%d~ZZnnCbAZZbCZZDGA",
"SBDBSBmmDDDBSBBBvo=PPvvVmmmmmcmZSSBnnnBnbSfnw+uWDZnbCZCZCbnZDIGZ",
"mBcNBNBBNNBmBBBBl$3VVVVMvvnmZmZmBncmccccccfB8oa~^NgjNNjnCnNNjNNN",
"BnmmnBBBBBBNBBDBc#3PPvMvBVVBAADJBBBBNmccncgBs#s~ENajNjjjnnjjjjjN",
"cccccccBvncvmmVml#,P/MvvmmmmmmZnmcBmvcmcvgkmy%sPFNgjNggnjjjgggjj",
"ncvcvvmvmcmmmmVBv*,VPMVVMVVmZmmmmBmBBNBczvznw#yINjjjNgnnnjncgNjj",
"vvvvvmmmmMmmMBVVl*3V/MMMIPJJJJAJmmVVVBVvvmmvq%uPmccvmbvnncncNvcc",
"pksupkkkskkskkkze$3VVllkzxzfzpzukkkzkzkuuxpp2+enskkkxppppppzkkks",
"&&&&&&&==&=&$&&&$o,e3,3=&-&&%%%%&&==>==$%=&=%X;1<<1=5<<;<<<<11,>",
"oo+ooo++o#oooooo#o##..#.OOoXOOOXoO+#++OoXXX+#o@++XOXOOO.OXOOOOXX",
"xsks3.3usgsllzckszcxvvmBvbvvsszr4%tbZDbmNnNnnnnmmmbmbvbbpbzpbbbb",
"Vvvcw#scBVVBVVBVBBBDDLLIULUYDJIc->A___Q!UQYTUYTUUUIYUUUUIIIIITUY",
"HBNcw#sBcmcmNNncnnnnnnnNBNSBnnni@-A(IGbSSNSNCnCZbZZbbCNnbnnCnZZZ",
"Ncns7oubcccNcmmmnNmnBSBSnnNnccby-5ITnjfgjjnjnncbnbCbnnnnbnbbbbbm",
"cnBf7+inmNnNSDBSSDSDSSSDDSSDCSny@5JImZmSNSBNBSmZZSNNNnNnNNNNCnNS",
"cnSg8@fngcvnnZmnnnnnCnnnNnjnjbg9O&MJbmncjnnnnnnnnnnjggggNgggnnnn",
"bmDf4+gnnCSSDDDDSSSSGDGDDCSSCZCy@5IImZgbnNnmmDmBSNNNNNjjNNNNjNNN",
"CSSu6+bSbncnnCZCZCSSZSZGSnCSZCbrO>AJzcmSnnnnmcmmnNnNNNNNNjjNcNjj",
"SmCi7@fbnZCZCnZZSSmZDDZCSZZnmZbb@5AJmBxNccNBmmmnNcNjcccNNccgggcN",
"ISZy:@nUbbbmbnmZmmZmZZZmmmbbnmbpO5MMmmfcNcccvvmmNNNNNNNNcgcgccNN",
"cmmu>+bmmmZZZmZZZVJVAMZDmmMmZDmz+<AJmBcBNNcBvBBBccccmcccBNBBNNBB",
"Zmmi4+znvnnnvbbvmmmmmmmvxvmvmMmxO<MMvmxNkcccBBBvvvmmmmmcBNBcvcmv",
"Imvr-+zBznvxzzzxvlzlMMMlxvvvvMMx&tVVmMcBvNvNvvvvNvBNBmvBBvBvVBVV",
"q7q>;Oq000033>212==33pq313333331@=peee3assa3333aees3wweessesseea",
"++&&&.%XoOOXXXXX.oo....oXoX..XoXXX&++#oo########&#####&*o##ooo.o",
"u;#OOX7;30r0>=>133p3=#$=,3,=&,=,11q>>3**##*wss33**#####=o+#*=222",
"~TGBnSGU!TYUUUUGFImZt+5pAYAIUUYYEEHHHHUEFHEEHFFLLBSBBVl*.*zvBLBL",
"UUTQQQEUGDGSSSDSSDbZr@5bAAIAIIIFNNNNNSSDHHHFNNNNDNSBBBc=#=NVNBNF",
"jjSSGSCjjjCjjjjSSnnbr+4bZZAASZnNNmcgjcnnNNNnNnnSCgNmnBc2.*NVnCgS",
"CSSjjCbCjjjjjjjjbbgn4O4bmZZZCnnNNNnNNcbCggcgcnZZjjnncmmw.#BECjjS",
"SSCbCCCCjCjbCCCCjjgc7O7mpAZmCnNNDDDmbAbZccnZmbbbjjCjhjcwoOCQSSSG",
"hgCbCbbjjjbjjCCjgNgj7O7mCZmmDDSSLDJZZCZpnbnZZZZbjjCChCb0oXCQnCSj",
"CCSFDSSnbbbjjnbbjngg7o7nbAZZDDDFGIZZZbbbbbbZSGFSCjCjjCb7OXhTjCSj",
"SZmbbgbnbCnbbbnbgSgg2X7mmbmZNSNNJDGDCCbbZCbbnNnjjjCjbZn7+ hQCCGC",
"mZZbbbmmnnbbmbbcfNNg*#yvcvBNBBBBSSNSNNjjgjNNNNjjCjCZnnc3 *cIZCjG",
"nnbpzzbbZmmmbmnmfNgg*owcvcvNBNNNnnNjjjggggjNNNNNbbCngcl3X:JJCZbZ",
"ZZAmvnZZmmmmbbmbccgv2+0znmVVHFNNNNNNNNNNgNNNFFNNZCZDmmlkX1VMbmbn",
"mvmvbbvvvbmbmmmvvccm3o3zzxvvBNccgggcNggjgggcjjggbfcxzxle =VnpZnn",
"vmmmvnmmmmmmvmmvBccB1X1xxxmMNvvcvNvNNNvNMvvvBBmcnxvvlMle.,VMvJMm",
"pzbpzfzxzxzzbxxbxkzv1o1pxxxxxxzzvvlvlllkkkkllkllzppxllleo,lkpxpu",
"%%;&-&=;5005q5q5321q&X<,&&&+%#*#$$&$$$$#$oX###+o&+&&$$,.$o,=&3%&",
"O++@@++++O+++@@@+++&+X@o++OXo.oo...o....oo.XX.oXOXXX.oo.....X+O+"
};
