/* XPM */
static char *eff13199ec9141dd891346d062bf459bteHvoG47vLSk7XBX[] = {
/* columns rows colors chars-per-pixel */
"64 64 167 2 ",
"   c #3A3B40",
".  c #423D44",
"X  c #45434A",
"o  c #4B454C",
"O  c #4C494F",
"+  c #514B4E",
"@  c #4E4C52",
"#  c #524752",
"$  c #534D54",
"%  c #584E57",
"&  c #594F59",
"*  c #4E5256",
"=  c #545156",
"-  c #5B5457",
";  c #555359",
":  c #5B555C",
">  c #56595D",
",  c #5C595E",
"<  c #61565E",
"1  c #625C5D",
"2  c #5D5560",
"3  c #575D61",
"4  c #5D5B61",
"5  c #5F5F69",
"6  c #625664",
"7  c #635D64",
"8  c #695F67",
"9  c #645E69",
"0  c #695E69",
"q  c #5D6265",
"w  c #5E626A",
"e  c #646166",
"r  c #6C6566",
"t  c #656369",
"y  c #6A656C",
"u  c #66696D",
"i  c #6B696F",
"p  c #746D6D",
"a  c #6D6570",
"s  c #676C70",
"d  c #6D6C72",
"f  c #726D74",
"g  c #796F77",
"h  c #746E79",
"j  c #796F7A",
"k  c #667072",
"l  c #6C7175",
"z  c #6D7578",
"x  c #6F797B",
"c  c #737176",
"v  c #7A7677",
"b  c #757379",
"n  c #7A757C",
"m  c #75797D",
"M  c #7B797F",
"N  c #81767E",
"B  c #827B7D",
"V  c #777580",
"C  c #7E7682",
"Z  c #767B83",
"A  c #7D7B81",
"S  c #827D84",
"D  c #887E84",
"F  c #837E89",
"G  c #897F88",
"H  c #7E8184",
"J  c #7D828B",
"K  c #838186",
"L  c #8A8587",
"P  c #868289",
"I  c #8A848B",
"U  c #86898C",
"Y  c #8C888E",
"T  c #91868E",
"R  c #928C8F",
"E  c #878590",
"W  c #8E8B91",
"Q  c #928D94",
"!  c #988D96",
"~  c #928C98",
"^  c #8E9498",
"/  c #949196",
"(  c #999194",
")  c #95939A",
"_  c #9B949B",
"`  c #9E999E",
"'  c #A1969D",
"]  c #A39B9D",
"[  c #969AA3",
"{  c #9E9BA1",
"}  c #A49CA4",
"|  c #AA9DA5",
" . c #AC9FA8",
".. c #9CA3AB",
"X. c #A6A0A5",
"o. c #ABA3A6",
"O. c #A6A2A9",
"+. c #ACA4AB",
"@. c #A4A8AB",
"#. c #AEA9AD",
"$. c #B1A5A7",
"%. c #B0A3AA",
"&. c #B1A2A8",
"*. c #B0A5A9",
"=. c #B3A4A9",
"-. c #B1A7A8",
";. c #B3A7A9",
":. c #B0A5AB",
">. c #B1A6AA",
",. c #B0A7AA",
"<. c #B2A6AA",
"1. c #B2A7AB",
"2. c #B5A5A8",
"3. c #B5A6A9",
"4. c #B6A6A9",
"5. c #B5A4AA",
"6. c #B4A5AA",
"7. c #B1A6AC",
"8. c #B2A5AE",
"9. c #B2A7AF",
"0. c #B2A5AD",
"q. c #B2A8A9",
"w. c #B5A9AB",
"e. c #B2AAAD",
"r. c #B9AAAD",
"t. c #B9AAAF",
"y. c #BBACAF",
"u. c #AEA9B0",
"i. c #ACABB0",
"p. c #AFAAB1",
"a. c #AAAFB2",
"s. c #ADAEB2",
"d. c #AEA9B0",
"f. c #B4A7B0",
"g. c #B4A6B0",
"h. c #B5AAB2",
"j. c #B1ACB3",
"k. c #B4AFB6",
"l. c #B3ABB3",
"z. c #B9A9B3",
"x. c #BBACB1",
"c. c #B8ABB4",
"v. c #BBAAB4",
"b. c #BAADB6",
"n. c #BBAEB7",
"m. c #BEAFB4",
"M. c #BAADB6",
"N. c #ACB1B4",
"B. c #B2B0B5",
"V. c #B2B1B6",
"C. c #B3B1B6",
"Z. c #B5B0B7",
"A. c #B5B0B6",
"S. c #BBB0B6",
"D. c #B0B5B8",
"F. c #B3B7BA",
"G. c #B6B4B9",
"H. c #B6B1B8",
"J. c #BCB7BE",
"K. c #BBB3BA",
"L. c #BAB9BE",
"P. c #BDB8BF",
"I. c #BEB9C0",
"U. c #BBBFC2",
"Y. c #BFBAC1",
"T. c #C3BDC5",
"R. c #D0CBD2",
/* pixels */
"` } O.9.V.C.C.C.N.U.D.N.^ k q D.L.F.#...R U m x K H v v : v.v.&.6.q.;.;.6.6.4.4.r.=.4.-.( p L L R #.@.L I h.I.O.u.I.u.S S i } Q ",
"S S P L Y Y Y W H U U K m q 3 a.Y U Y U K H H H K K A v : M.z.&.;.;.;.;.6.6.4.4.r.o.$.] L 1 v v x B K p g I Q I Q ) I S t 2 G M ",
"S D S S K K K U H K H m H q q @.K K K K H H H H H K A f < z.z. .;.;.;.;.6.6.4.=.y.$.$.] B * 1 q B N M M A S S S A M n I 7 : I M ",
"I I D S M K K K U K U z H 3 3 U Y Y U P H H m M M P M i < z.8.+.0.#.+.;.;.6.=.6.S.=.4.X.B - q 1 K S P U I S C S S b S I 7 7 { I ",
"I I S N M M M H H v K m H 3 3 H S H A A H M Z H M K M r 7 9.0. .+.;.+.;.;.=.=.=.r.&.-.X.L > e r A P P P D S C b A g D n 2 e j.I ",
"I L P S M K A K K H U K H u q H A S S A M H H H m K M e 7 0.&.&.+.o.=.+.&.+.&.&.$.X.o.X.L - u e A L I G F P S n P M E b 6 e Z.Q ",
"A N S S K M M M K K K v t 1 - B L L K L K K K H m K M 1 t +.&.+.;.+.+.;.+.&.;.&.o.X.o.X.L > e 3 M S S A A S M v I D I S e y O.Q ",
"A S S P L K S B K K v l ; > > U M N B H H K K K M K H > t +. .O.o.#.0.+.&.&.&.+.q.o.q.o.U - 4 , A A A S D A A S S A S I e 7 W D ",
"M b b K v Y I i u e 7 , , 6 7 7 g a 8 g M L m / u H M e 7 S T L / j.+.] 0.'  .' v.} ! ` K 5 ; q I 7 y ) f i S c y y e h % $ P b ",
"i t 4 7 4 i 7 = - - % $ $ $ $ % 6 < - < 7 i = u p z i ; O @ $ O e / _ D G N G N D g f b a 3 * 4 i b i g 2 ; - 6 % 7 $ : 7 ; 7 a ",
"M v t ; d v n v P P P L G D B D S S n A M b ; q q q e e , = = 4 . : 4 $ < # & # : & % % ; ; ; 3 o W I I I P b P n W b y W f $ Q ",
"/ U f 4 _ O.j.l.f.j.h.M.h.h.0.&.g.g.0.g.| ) i i s u b Z n f p b 9 @ o $ 8 % & 6 & : ; @ = 3 3 3 ; O.O.O.k.k.} u.{ u.} P } S 7 T.",
"H M e 4 #.P.A.f.0.8.h.h.c.8.&. .v.b.b.b.X./ q > u z H H A m b c A 4 7 a N a f N a a e > 5 u s 4 y Q P D M S S F I S W D I v t T.",
"v b 7 u +.I.O.` +.+.+.+.+. . .| 8.5.g.g.} U + @ ; u m v v m M f 7 4 M h g f f g g f i e d m z u y F S P b n S D S y S F A d 7 { ",
"U K e u Q l.O.O.+.+. . . . . . .0.5.z.A.o./ , > q z H M b v c u > 2 K V f f j j j h f d b Z z 9 @ A S I n j M F Q A W I n y 7 T ",
"R K : ; t ) } h.b.b.g.0.5.8.g.g. .&.0.M.X./ , - q l m m m m c k i ; b b g a h C D C h h Z b s 3 d k.#.~ S n v I P P T F d : 7 { ",
"v Q i 0 4 d D p.} u.u.u.+. .j. .8.g.' '  .F 2 = u d s z x x z k q * m d q c u b V V l V V V 9 ; : { Q M I S A M M v F I b $ : S ",
"n M e d } } } { O.k.u.+.O.O.u.}  .g.}  .g.~ 6 ; t l s s k z k k q ; v i e l u b h s 5 a V V 5 * 2 F M S Y b g S W S D F d $ 7 P ",
"I b e e I.Z.K.{ _ i.O.u.s.j.H.i. .g. .g.h.~ 9 ; i l Z z z z k q 3 ; v z d Z f b h s l V V V 5 * 7 v S Q _ S n K I n h v 9 $ 7 D ",
"I f 7 # W P { Q #.I.k.k.k.O.{ T { } { { { A ; @ t d m u q w q * * + e y y c d c e 5 2 5 5 3 * X & b I I I P b y 0 2 : e - ; : c ",
"y 6 @ X y 0 c d y n y y M M M b b b h c b 7 @ @ = o u * @ ; 4 > - o O + O - 4 4 5 4 2 3 w w w w o 9 f 6 , , ; # : % o : @ ; % t ",
"} ~ v S { } O.) { } f : 7 6 : ; > * @ ; > ; ; 5 i 5 { { ..{ { { ` ( ( ` Q Q I V 5 i Z W [ [ [ ^ E P F n g e y / } ~ S I V I P _ ",
"O.) S P _ } +._ ~ ) t $ 7 7 7 5 > ; * 3 3 4 t d i 4 k.I.T.k.i.u.8.=.w.K.h.+.{ P @ t U [ ....[ E ~ P P S n , 6 Z.O.` S I S ! P W ",
"S P P S P n I F v D < = a i 0 4 d u s d u u l m Z 2 #.u.f.{  .c.v.2.] o.}  .u.{ * 4 h Z J J J J Z S P S S , - H.L P f I M Q M M ",
"S S S M F A K S D D 2 ; S F i c Z m x m x b m b d 4 J.} +. .+.+.v. .' | x.K.+._ ; d C Z b Z Z Z W f C j T e 4 h.S I n S S S Y n ",
"S M M N S S S A P P 4 $ A S i v z z z z l d d s 5 ; J.O.c.+.g.g.v.x.| h.9.J.| Q ; e Z E ^ J Z V K D W n E v , Q W Q n v C S Q I ",
"F A n S D I S A I F 4 $ n A d M l l l z m m A Z 4 4 P.u.k.O.f.h.| 9.| x.| J.} ! 4 2 t F E Z V V E F S S F d # W S P n C A D I M ",
"I S v D F W D S I D 4 $ f n f C u s s l c m m C 7 e H.+.u.O.#.9.| S.x.M.+.h. ._ 0 4 6 j A E V d n A v S M 7 O Q n C n M S S A f ",
"F P n P S T S S F M 7 ; f c f b Z m b b l d y u e 4 ^ [ K.H.O.Q _ o.S.X.+.0.c.} 7 y f S ~ ~ C 9 ; I W D g i ; S F S A b n P D A ",
"v S b D h S n S b f 6 4 f f e y m b b z l d d s 3 O y K G.I.) d _ ] 9.Q +._ O.) 8 a a a C F j 2 9 Q T A c 7 ; N P D I S F ~ D A ",
"0 h d M 7 d y b e t 7 8 f p 6 4 4 4 4 4 5 q e e > o ; y W ^ c ; } ] ` L T S S n 0 6 6 & 6 9 6 & a S h t c ; ; n f f S v A P f y ",
"; y t g % 7 , f 4 7 7 y f i , = : > > 4 , 4 4 4 5 : > @ 5 : ; $ 7 - % - < 8 0 0 0 6 & 0 0 & # # o f t @ d e 6 4 0 : y : 6 f 4 4 ",
"h.O.} I d T.O.R.H.G.K.j.+.) P A K H H U M c > ; t t e e e , , , ; $ < n ! 0.+.n.} +.0. .} +.! 8 T O.` Q ) Q I b $ e Z.) { u.{ I ",
"Q I I S f T.W _ Q Q Q Q W P D A H H M U m l 3 , c c c l i i i r a 8 g  .z.K.| b.f.h.M.g.+.g.! 8 S ! I S I W I S 0 f u.S C L D n ",
"P S M t 7 K.P S S S S C A S P P m z l m i e ; , m m M b v b c c a < r m.K.K.| M.8.x.b.+.| | T & f P C b A D I S 7 i +.A b A F P ",
"I P C 4 4 u.I S I P P F S S S K B H M H c s t f M M v b b b b c p 6 < 5. .h.} b.+.0.0.+.} | I < t S n g n C S n $ 5 +.L S K P T ",
"v F L i 7 } P n D K K P S S C n B v m M u e q i b b c c z b b c S g 7 #._ +. .g.+.0.M.0.+.h.! y : C S S D S S n % 4 u.I S n h M ",
"a A P y : I n n C C S S F S S S U U K U c i u v c c b m c b v m v p 8 9.|  .0.+.| +.0.O. .8.' t O v S F I P I S e 0 +.I A M n S ",
"C D S 2 # M M P S M M A A D I L M S S K y 4 : u c c c c b v m m i : : j.f.} k.+.O.X.+.O.} | I < O v S S I D I F t 7 { S D F I ! ",
"Y I S 7 : S D Q S n f f f b S P S L S L y 1 ; e p i l c c b b v S < 6 K.G.) f.l.j.h.Z.9.O.O.Q < : S F C M n S A 2 = W v M S S I ",
"n S n 7 7 v S j i 6 7 , - 4 f g p j N g 8 : 6 r u r i u c e c c < ; y 0.K.| Z.Q } } _ I _ _ Q 8 y A A h h f d f 7 @ n A S C n f ",
"y f y ; ; t f y ; ; 7 6 = 4 , % < 8 0 8 % # - , , , 7 4 e , 3 ; ; # # I I M Q g L S M g n v n - $ f n 7 , 7 7 7 2 = v e 7 : 7 7 ",
"A P S b h S D V n h M e 6 M P M N G G G N n N D M b q ; , m U K K p , f e $ , X < % % $ + X , o O M I n n S S S S 2 y : S S S f ",
"O.u.u.} } i.+.} _ Q I a y O.Z.M.&.5.v.b.g.+.f.H.#.) c , , ^ { @.C.{ L T v y p 7 i t t t , O v i f _ i.#.u.f.#.O.{ 7 ; : j.u.O.I ",
"F P I F P P P S P S S e 9 j.d.u.8.5.z.z.g.g.M.K.9._ v 4 ; K m Z P C b A M M K A L K K K c e ` ( n S S D W F v C Q 7 ; 4 u.W I A ",
"D D P S D S S S D V A e 2 j.} } | |  . .&.+.0.+.X.Y H 4 > M l b H A K P U U W Y M S H K t , ..R Q S h b S A n P P f 6 0 O.S n M ",
"P F S D S S S F T n b 9 2 H.O.g.8.5.5.5.g.g.g.g.+.U K ; 3 v m ) K K K H n v b v v K A M e , o.K F S b b D D P Q N P t t } W I G ",
"S A M M A n n S b 0 e ; 2 H. .g.z.5.5.8.g.h.g.+.#.K H = ; e f W m P K v n K M U M P K M t e #.K h D S S S S M S d Q d 4 I S S F ",
"A M S S I L F A h g e 7 y k.O.#.k.} 8. .g.8.Z.} h.W C 9 # 7 L G Z W K C b v U m i B L B - r ( L M G ! F j C I M W F 4 > n K C U ",
"S S M S P P D A W S d e 0 O.#.u.j.}  . .+. .g. . .W G a % a G S I W m m b c K K B B L B 1 1 L L L N S I G L D d P S 5 > b K b H ",
"P S C S D P P S S g 7 y 7 ` } O.g.+.u.k. .u.d.d._ I S 6 $ a D f J C d c l t M Y L v B B 1 + p B T f y N I S n i b c 4 4 A P Z K ",
"M g f i f c c f d e : f i [ } O.Q { _ } ~ ) ! { I S g < ; h n 2 4 q > y t e v U K v p B 1 + p B N 8 6 t t 8 i y 2 4 ; 4 b H M Z ",
"r 0 4 : 4 6 6 , # 4 $ t 7 n j n e g a g 0 y t f 6 0 e % O 7 a ; X * ; 3 ; o , t + - , r - + r p y 8 7 2 $ : 6 = $ * @ > u d u t ",
"d y 7 7 e e 7 < e Q D ) Q I e 2 $ 2 ; & % ; % : : t a : : S { +.^ { ) ~ m ; > : r K ( ( ( ( ] ( ! ' } _ _ } ~ e t t t t d d t q ",
"C n h h v h f i 7 O.Q _ } Q 7 4 7 e 7 : y e 7 9 ; 6 - @ ; j _ O...{ ) / l X O ; R o.q.C.B.-.e.q.|  .u.+.8.k.~ 2 c c b b M M b l ",
"n v b v n h i 7 5 #.n g I ~ b I g b f 0 S b f d S N b g S L S f A Z b I c * t K o.s.q.o.] ] o.q.+.0.u.+.+.u.W : y e i c b M A Z ",
"f n j t a n v 7 : j.M D F S C A K A K 5 { Y I K V A A K K S A A F Z M H y > 5 O.#.X.q.@.o.,.] o.K.8. .{ f.{ K 2 y 5 e d J I Z d ",
"f M v i d C n y e K.A S D P S I K H C 4 X.Y K K K K K S A S S J A P P P u , u B.s.o.e.o.@.q.X.q.T.k.k.O.H. .P 4 e y d b b b l l ",
"f n g y d M b e 7 k.P A P I P S A P d > @.W Z H K K K K P K K K A J F A q , u #.#.o.q.@.o.q.X.-.h.8.#.} k.{ D : > t b n c d c b ",
"g h f i f h g t 4 #.I n A P D n C P t ; i.W c C A J S J K J S J E J C Z t 4 y #.s.o.e.q.o.e.o.q.+. .#. .k.} I 7 * 7 c V b b Z H ",
"c f f d f b f y 9 { I v C P S A A I e e C.W b A K Z b c z c A A H b b Z e $ 4 @.,.X.#.o.X.#.] o.+. .+.} u.` F 7 > e d b M C Z m ",
"b g a d f g f y ; T T P I S h y m K 5 u a.U b m A c t 4 2 t c A b b K K q @ 6 @.s.,.B.q.q.r.$.6.g.u.j.}  .! S 7 y y i c b b i u ",
"f t 7 t y t 0 7 o b A A D d 7 , t l @ w ) d t u d w 4 ; ; 4 9 s z A H C u t u ( X.] X.] ] X.' ] { ! [ T ~ I S e 5 7 t u i t q ; ",
"6 : ; : 4 : ; & ; e 7 : 5 % ; e @ >   > H ; ; > * ; > 4 3 3 ; ; 3 t , @ @ e ; 4 1 , 1 1 , 1 < < & & 2 $ 7 7 4 o ; ; , q e q ; ; "
};
