/* XPM */
static char *result[] = {
/* columns rows colors chars-per-pixel */
"65 65 92 1 ",
"  c #00121D",
". c #011524",
"X c #011A26",
"o c #081C25",
"O c #001728",
"+ c #001C2B",
"@ c #091F2C",
"# c #001E30",
"$ c #02212E",
"% c #0A222E",
"& c #022433",
"* c #0A2634",
"= c #052934",
"- c #0B2A35",
"; c #052638",
": c #082439",
"> c #052B3B",
", c #0B2D3C",
"< c #112C36",
"1 c #122D3A",
"2 c #0E313D",
"3 c #13313E",
"4 c #1C353C",
"5 c #0A2E41",
"6 c #112F41",
"7 c #073340",
"8 c #0D3242",
"9 c #0E3844",
"0 c #0F3548",
"q c #133443",
"w c #1A3545",
"e c #133946",
"r c #1B3A46",
"t c #143649",
"y c #1C3748",
"u c #153A4A",
"i c #1C3C4C",
"p c #173B51",
"a c #1C3F51",
"s c #233B47",
"d c #223D4B",
"f c #223F51",
"g c #1C414E",
"h c #164451",
"j c #1D4353",
"k c #1E4956",
"l c #1E4659",
"z c #1E4B5A",
"x c #23424E",
"c c #2A434D",
"v c #234554",
"b c #2A4653",
"n c #244956",
"m c #2A4A56",
"M c #224659",
"N c #28475B",
"B c #244C5B",
"V c #2A4D5C",
"C c #314E5B",
"Z c #26515D",
"A c #2B515E",
"S c #31515D",
"D c #254E61",
"F c #2B4E61",
"G c #314E62",
"H c #275162",
"J c #2C5363",
"K c #2E5966",
"L c #2D5669",
"P c #2E5868",
"I c #325464",
"U c #395665",
"Y c #335966",
"T c #3B5B66",
"R c #325669",
"E c #39566B",
"W c #345A6B",
"Q c #395D6D",
"! c #355E70",
"~ c #3A5E71",
"^ c #36606E",
"/ c #3A616E",
"( c #376072",
") c #3B6273",
"_ c #3F6977",
"` c #3E6678",
"' c #46646F",
"] c #426473",
"[ c #416877",
"{ c #42677A",
"} c #45687A",
"| c #496D7D",
/* pixels */
">8;>>&&+>&&&#:##5!!LGLGLDzDznvyOyJRDBHBHnZSZCm3XgWQBDLDlLLFDfNd*@",
"qjuuu9e>e9q9t6:#5!!DGGELDlZBvvwOtFPDBBzZkZAZSmq uJPBDFDlllfDNNd&.",
"jIVBZBBiBBnMNfq+5!RFGLLLzzZznvy+tFPVzZZZkZAAAA4XaIRNNDDzLDFGSSN1X",
"iQJFJJBnBDVVIVw#0~!DFFGLzzzZMvy#qDLVzzzZknnnmm2$qVJMDDDBLFMfbmc*.",
"8QJnJBBlBBMBGGy&0~!FFFFDzzzzzzy+qVPDzznZknnBZm3XqVUIW(WEQISAVCd%.",
"2)IjVVBnnBBMFGf:0!!DFfFDZzZZnny+5DJBnZzZznnZSmq$qbSAIIVVVVISCCc<.",
"8[RjBBBBnBVVVIf:5!EFFNFDZzzznn4XtDJBzzZZBnnCAm3$X33=&&+#&-34<<4o ",
"8|QgJJBZBFFNCFi&5!RFFFFDZzZZknwX5FKBZZZZZBnZAm3$.$$OX++#OO$  $% o",
"u[QNZVJVBBnVIVw+5!!DFDFFZzZZvNw.6FRVBzkZZZBnmmg$X-&,t665,,wq144  ",
"t)YBVBZBVBBFGFw#5!!LFfFDzkzznvwO6LLBZZkZZZZnmme$3bxbGfDfvxbbcmc%o",
"q)YBBBZBZBBVIGa:5!`LFMFFZzzznvy+6LRBZZzZBZZmmn3$eSIIGvDFVvVCcmc%o",
"qQRBBBJVVJVVGGf,5~{RFMNFHZBBBvy+tJPBZZzZBZZmmm3X1VVVMpMNBnVVccx%O",
"8QIBBBVBVAZVGIf,&!`!FMBBzkzznvyOtLPBBBzZBZAnAn3$3VVNDfFNFMJVvmb%O",
"qQJBBBZBBJANGGf,;!)RFlVzkhzzBbwOuGJMZJzHnZAmmm3$qJDVDDLDVMJFmmm*o",
"t~YBBBBBBZJNVFf:5()FFNZZZzzZvvwOtRLlZZBHZZmnmmr&qFDMDlDlljFVvmdXO",
"t)YBBBJBMFFNVIy&p`~FNMZZ^KKZBMwXtRIMDJBZZAZnmmr&tRJDDlDDDzJZnmx$O",
"2)~JBlBzDDFFVmr&vYW~~W{)_//^YSwXqLRMVJNFnSSAmn4$jJZJGMFFDDZBnmx% ",
"8Q(HDBDDDDDFNmr$+9ujjjBBkZnvxxq$tRJMVABFmAAAmg2$gJNVGfFLDMZZnmso ",
",QQHDzHDDzVVmmg=Ot08>&>&$=>=&$$OePJBJJBVVmAASg2$nYVBFfRLDDHZVmxo.",
"8QWBDDHDDzMBNmx2Oapuhte9,9e23,%XtPPBZVBZZnnASx2=nWVBFFRGlBHZCSco.",
"8!LDDDHHHBDNVmx2&RJMBnBlknnvvxq+tJPBZZBBZnBACg2=n/InNNRDnZZZmCso.",
"8~LDDDHDHDMDVVx2,]YMBBjgknvvbv1OuPPBAZnZnnBmZc2$k)YBNBGMZkkZnAsX.",
"8QLDDDHDHDVVnbr=OEJpBBBJnBnnVmqXuPPzZZznnZZvnn3 e^YnvMFfZznkmmsoo",
"qQLzDDHDJzBVnvr$>{WjBBnBnBvvmbqXuPPzZZzZkAmknZh$2^^BfNFaZzznnCd+o",
"8(YBDHHDHDDlnmr$6~EVBBBVnBnnmv1OuLPHlZBBBBmBAm3$g/INFNNMkhzZnmc$ ",
"8!PVDDHDHDDDnmr$5~RBBBZBnBnnmm3XuPWlkBVBmBnnBv2 gWJMFMNDzkzZnmc .",
"8WPBDDDDDDzDmmg$,ERDBBVBnBVnVbq+eW(BlVBBNVnvmn3$e^FMFNNMZkZZnCc%.",
"8WJMDDDzDMDMnmx&>RRDFBZBnVnVCNw$e!{JnBVVmVNNmv3$gYFfGFFDZkZZnCc%.",
"8IDMDDDzDlMBMVx=>RRDVVZVBZVBSmw+8E{EVGGICICCCbtXgYZvFFGFZZZZvCc%.",
"8JVjDzDlDzVMmmr&,ELVDBJBBZmZSmr+5F~EIGIQUEUGCmw&gKBkGFGFZkZZnCc%.",
"8JBnDBDDDlBBvmr$5~EDDVJZmZCmAmw+,ifMNfdNdffddd1@gWVvIIIJKZZZnCc% ",
"8JMlHBzzDlMMvmi$5~WVBBJJZZmZVmqX####,&O###++#*$.gYBnIRJKKzZnxCC% ",
"2AZnZZKZHBJJCSg$8/QVVnVJJVFNJNqO#pi85>>5,5qqw3% gWJVVBKJHZZZnnn%X",
"=AAKKKKZ^WYQ//Yr>PWJFBVAVJVNFNtX,BVkhjhhjlvvbx<OjEJFBBKHZZKZnnn$$",
"=hhZZzZkkkknnmm9&JWZJBBBVJVVCVt+8VJBzBDDVVVVCc1OaWRFZZKJZZYSnmx$X",
"$2229227>>>2=22=&JJVVBVNVVVVGFt+,nJnlDDDNVVVCx- fEIFVZJJZZSKnmg$X",
"=e>97=7799kg494=2WIZZmVVVVVVICqX3ZIBDBDHVVDVVc- yEGFFNIZAZJInCx$X",
"eZBZZkzkzZYAnnn9e^YVABZABVVCIVwXeJWZDDDHBFNVCx3.aEGFFNJVABSSnmx$X",
"eWWYKJKZZZZASSx=r/YZAVIVVVVIICeXeAWZzHDDBVNmmc<.yEGNVNVNVmSVxmc$X",
"8RRZnzZkZkxnZSx=q/YZIVSVNVVCIJwXqZWBzDBDVZVmbx<.yEGNVNJNBvVVcmv*$",
"tWFMDzBlknnmSmk42TSSSSAnmmmSTC3$eYYBLHBLBJIVmc1.yGGNVNBZmnNvbmd*X",
"tWDMHDZzZZZnZm4=$Y/AZnSSACmmSb3XeIYBHJDJDJVmCc3 6ifpdjilgnnvgxy1X",
"p!LMHBZZZZZnmn4=3YSCSSSSCSCbCCx$qYIBHHBLIANVCC3 O#;&:>&>=>2>&&$&+",
"a!DlHzZZnZmnmc4=r/SmSSCmcSSCSS4$qJJBDDDLIAVVSm3 #5;#&&$=$X&=$XXXO",
"p~LlDzHHZnnnmn4==T'TSnSTS'''TTc&8AJnHHDDJFVCCb<Xffptgu992h3gxrq3$",
"a~LMDzHZnnZnmnr<onmmmnmSCSSbCSx39AJlHZzLBFJIVd<$fFFfZnzBnknZAAxe,",
"a~JlHBZZZZmZSmr2 <==444=$*$%-<*X2AJnZJBJFVFSms-XtDFDnzkkkkkgnZx2X",
"l!JlDzzzZSZZSmr<$ng2922=3-133<$X2ZInBHzLBDVVVs-OfLGFZkkZZZBknmvq+",
"p~GflBHZJZAYAVi;OFIDBvZAnAACSmwX3BAnBZDJJFVVVd*.uRDlDMNBlBnnVVvq+",
"p~!fnnZBJZJKAVv,#GWFJVJJZASASmwX3mAZBJFDHJFVNi*XpEDlDMBBnMNMVAvq#",
"p]RaBBZBHBZJFVv;#GWLJZIJZYJASNq$3BAnVJBJDBVVmr-Op!DlDMBDnBMBVZvq#",
"f]RMBBZzZBZJVFv,#RWJJJJJZJSVCmqX3AIBBJJJFBBVNi-Op!DlDlBBMMBvVVjq#",
"v]InVBBkBBZJVFv>#REFJVJAZAAZCb3X3ASBBJDDBDBVNg-OjWDlDlMBBNBnVVvq#",
"f~FlBMnkBBZBVFv:>WWFJVJJZAAnmvqX3ZSnBJBFBBBNNy-Oj!DhDaMlnBNnmZj3#",
"fQFvVBllkBJVBFv&5~WFZVJZCAAmmbqX3mZnBBDBBBBVVv-+j!JjMllMBBVBVVj3#",
"aQNnBBkkkBABMVj:5~WBBBJZBZAmVmw$3BAnMBBBDVVVNv1+j!HlDaMDBNNnBVj3#",
"iUBlBnBkBkBBVVf&5~ENBBJVAAAVVmt$2ZSnnzkBVBMJVv-Ol!!jMDBBBBJNBSn;#",
"jEVVVZABZzZAAJv=5WRBDBJZAAAVmbw$2gnknZBBJBBFVd1#p!LlDDBVBvVNnAn=#",
"yJNBBBZkBzBBVVi#5~RNBBJBAAVnVbqX-gh3hjhjllvMvi3*5R!MMDBDnMBMnVj&#",
"tIBlnBBlBzBZVNt#5~WFFBJZZZBnmmqX =$$&&#+#&#&#+XO>P!DDDBDvvBvvVi&#",
"yUFBBBZBJZJJVVa:5~~JJAJJBAmnmx3X2guqq988885861-=;L!DNDBFnnBBvBi&#",
"uUBnBnJBBBBBlMi=q~~JIZYABAmnmv3X3gvgjjpjjuuuyq*#5L!DDDMDMBNBnVg&&",
"qIJFZZKZZZVBvBv5q~~JJJKZmZZnmx3XrBAZJJJLJJVAVv6&5!!zNDBJBBVVnVv&#",
"yQ))_)_()^(QYQRf8~~JKJIAZZVnmm3$-xZvBBlBDVBNVa,+t!!zBDBBVNVVVAv&#",
"&MIRQWWJKKYYJJAat~QJIJJJZZVmmbqXeVYZVBnBDJJMUS*&B`PlDHlBJBVNNAx&X"
};
