/* XPM */
static char *result[] = {
/* columns rows colors chars-per-pixel */
"65 65 84 1 ",
"  c #000E1B",
". c #00121D",
"X c #001523",
"o c #011926",
"O c #001728",
"+ c #001C2B",
"@ c #091F2C",
"# c #021F31",
"$ c #02212D",
"% c #09222E",
"& c #032433",
"* c #0A2533",
"= c #042934",
"- c #0B2935",
"; c #052639",
": c #09253A",
"> c #052B3B",
", c #0B2D3B",
"< c #102B37",
"1 c #122E3B",
"2 c #06323D",
"3 c #0D313E",
"4 c #12323E",
"5 c #072D40",
"6 c #0D2F41",
"7 c #112F41",
"8 c #0D3343",
"9 c #133443",
"0 c #193545",
"q c #143946",
"w c #1B3A46",
"e c #153748",
"r c #1A3649",
"t c #153B4B",
"y c #1C3C4C",
"u c #1C3E52",
"i c #233E4A",
"p c #213E50",
"a c #1F4047",
"s c #17414E",
"d c #1D414E",
"f c #1D4454",
"g c #1E4956",
"h c #1E4759",
"j c #1E4B5A",
"k c #23414D",
"l c #234554",
"z c #294652",
"x c #244A56",
"c c #294A56",
"v c #224659",
"b c #28475B",
"n c #244C5B",
"m c #2A4D5C",
"M c #314F5B",
"N c #25515D",
"B c #2B515E",
"V c #32525E",
"C c #254E61",
"Z c #2A4E61",
"A c #304E62",
"S c #265162",
"D c #2C5363",
"F c #2C5966",
"G c #2D566A",
"H c #2F5A69",
"J c #325464",
"K c #335B66",
"L c #3A5A65",
"P c #325668",
"I c #345B6B",
"U c #395D6E",
"Y c #365E71",
"T c #3B5E71",
"R c #37616E",
"E c #3C626F",
"W c #376172",
"Q c #3C6274",
"! c #3C6875",
"~ c #405E69",
"^ c #40626C",
"/ c #426475",
"( c #436679",
") c #436A7A",
/* pixels */
"&eeey9yuyyuplyyuuuuhuueeu5ee=o$=826388669888>>,,t988989998988yu3;",
"bUPLLDPPLUT/////YYYYYYPGYGGZs8aBJDDDKIUUQTTUUWQWQ/QQUWWQ)/!UJIJf6",
"JQJmmbSmbZZDJPJPDGSFCCCCPDAh22xRnnnmDGDHGPYGIYUTIKIPKPIIUUUKSJSy>",
"KQmvnlnvlfllvflfvvggvvbCvDPv2qcFvghhgnvvChhjnnnCnbxxvlbnllvvnDmt>",
"U/BnmvBnBNnnnnnvNNjNNNNNgSRj8sNKGSCCSCSCCCCCCSSCmnmnmnBnnnBSbSBt5",
"KQNvnxnnvvnxvnnvNNjNNNNggnSs=2nFCChCCCCnCCCCCvCvnnnnnnnnmnBnnBn8&",
"I!FNFnSNgggxnNNBNNNNNNNNNNSf22NRjCjCCSSCCSSSSSCCnnZSSNmBSmBNvBnq&",
"DWBNngNnvgjjnnNSgNNNNNgxgjNg22gFCCjCCCCCCCSGSSCCnnnnBmnSSnnnfgf>#",
"FWNNngnNnggxjNNNBNxNxNNxNBNN8>nWSChCCCCCDZCCSSCCbnnmDDmnlnvxnDx8&",
"HRnnNgnnNnnnnnnnFNNxxNxNNggBs>lKSChCCCnCCCnCvvCnBSDSDSmnvBmnnSnt>",
"IUgvDnnvNNmnnBNNBBcxxxxxBllKg>uIDvhCmnnnZnvvvnnnDmZmmmbbnSmnnbly&",
"KIlxNvmnnvnnmSBDBBxzxxxxBxxHt>xUZvvbmbnnnnnvxnbnmnmmmmmmmmmbbnfe#",
"DInxmlmDnbnmDJDMBBcccccccVBm9>ZTmncmmxcnbbxxcnbcZmAAAPJAAAbZJJz9#",
"JUmmmxZDmDZmDBDmBNcczxxxxJVb97JTmccBVmcBxzccmcccMZAJJPAAAbmAJAlr#",
"MPfyueyululllfpdaaaa4wwaykkl9,bZy0waiaww0wakkaywrupzppyrrrruyr77#",
"up;&;&;#&&;;:,,:<<<-===<-&;q6#8e&$$=&$$$$=-21-=&&&:,6,;#+#:;#OO+#",
"e89988887755##OOO$o.343324q9>&&=98,;:>,66>,;:&X#e85>#5585588e8555",
"TTTTTTYYIIIIPPPJxk4aRLBVLE!EIJJITTTYIIIT(TTGZu5tQQYYYTYQYYTTQWWYY",
"TTUTIPPPIIIUYTTTJa3zELBLIRURIKKUIIPPPPPPUPIDCf5tQTQ!TQ(TYYYPGYYYY",
"DGDZZCbCZmZDZZZZm4-zLVBBBBcnNBnSbCbCnnnvvuvvvu6fGGAGGGGACCCCCCCCZ",
"JFKDZZmnBBBSBDDBx4qzVVVVVBmmmnmnCmSDSBmmvfmngt2fPACZZbZZAZZZZZAAP",
"DDDDZZnnnnnNNDBBa44xcBVNDmnxnnbnnnnnnnnnnhNvf8=fYZvvpupCAZbCbZAAP",
"FJJDJDDSDDDDDDDJV44VLVVVJVDDmmmZmnmmmNmNnlmng8>NTPbbZvbDZZpZZZGGJ",
"DBDDSBSmBDBSBSBBV$$VVcxVmmmmnnnmSBSnnBSBngnnd8>xQGhCZCvZCCCCCZZGF",
"BNcNBNNBVBBBNBBBc<4zVMVVBxccmZmmBNxNxxNxxxxxg=$j!RjgjNNjCCNNNNSFN",
"BNBBBBBBBBBNBBBBx-<cLVczBMNBmZDDBBBNBxNcnnxNn2>N!HjggNjgvvjjjjjjj",
"nmxxmxmmmNNBmBmmc--M~VczMVBVAmmmmnBcxnxxbxfxBq>x!FjjjjjgCjjjjjjjN",
"cncxbxcmccncmmMVV-%c~VMVVmVBZmmmmmmmmcmnxnkxc4=lHFjgjNgfnNNjNjjjn",
"ccccccmmmBmMmVVVM-<z~VVVJJJJADAZMBVVVVmccMbcz3*lBNxxxbxlnnnbNxxgb",
"zllzlzzczzccczcMa<1V~VczMMMmmmmbcccmmcccxMczl3:zVNlxbmcxlzxxxzkxl",
"44444404044444044%<aaaa4ee999999949000041r440*+0ir40rrr0000r00097",
"+++++$+$$$++$++$oo$-%oo$oOooOOOO+O+$$$++X+Xo&+X#++OXOO+OOXO+#++O+",
"434q-.-2444444443384qqye939q3,,>7X#eeue8tttte8e9tee99977668699999",
"BdxkqoykccNcBBBcNxxBBBBDDBDKnmBnr#rPGTYHHHHHIHPGGJJGGGGGZmZSZZZGJ",
"KBBxt$gBBBBFVBDDBDDJDDDKIKIIDDGm9#hTQ!WHHHHIHIIIDHPGKPHHDGDDGHPPI",
"BxNd8$yxjxxxxNxnnnnnnNmmNxNBvnju6#uYPGvhjjngvvvvvvvvvglxvvvvvvnvN",
"BnNd8+sfxxnnmnmBBNSSSSSSFnSFvCCf9#lPDZhdnNjnnnnnNNNnjnjgjxgggvnjN",
"nnBh8#fhNnNNDSSDSSBSSSDSFvnSCCnf7#pJDmnnnNNNBBmmDDNNNnNnNNnNnNNNN",
"vnSf8#gvnvnZZSDSnCCCCCCCDhjCChju;OuJmnnnnnnvvnbmNnjNjnjjnNjjNjNjj",
"vmSf8#fCnnmSZDDDZDDSGDGGGCCDCDSf6#lLDBvnnnNmmSSmNNNNNNNFjNNjNjnNj",
"SnCu6#hnhhlvvnnnGCnZZDZnDDmvnDmp7+iJmmxnBNNNmxmcNxNgnjnnNNNxjxngN",
"ZSZf8&vDbnZnCSZDZmmDZDZDZmnbZZml7#pJMBxmxxxxxmmBcxNxxNcNcxxxggxgn",
"mnmu6+lCnnmmbnmmnmAmmmZmmmbcmZmx1#pLmmxxNxxxxxccNcNNNxNcNxcxnccNJ",
"mmmt>OlmbnmnbnmmJBVBMmmMmcmcmMAm1#pAmBxxBBnBNcNccNcxncncNnBNcNcNm",
"JmMe,+xmbmmbcbbmVMMMJVVMcMccmMMM1*zAmMxxxxccBMVVBBccccBBBcBcBcBBm",
"mlze,Oipuzzkdkyikwwkzczzikziizzk7*imlcxxcxxxxkxdxxxxxxczccxcxxccm",
"1<,-*X7<-,1--*--*%%-<11<<<1-<<<<<O0y4q93ss4333<<44444444aq40q4446",
"+O&#*X;++#+$OOooo$oooXoo.oXX.XXXO **o$$o$.$$$$==$$$$$o$$$$$o$.$%O",
"bs85;>8ufhfuutttylpu9##rrrrpprrtasstqssd2qtdggfxa84q444-=.o4q4aqu",
"QYGGGHHYWYYYHYGYZPZZp:#pAP~PPITTRRKIFKIIRFRRRRFDRNBVBVVc=o=kBBFNH",
"IYYWQYYYSSSSCSSSDDDmp5#uAAAAJGJJSDBNBBZJFKKKBDnnDnNNxcMx<o<BRVNNS",
"hjCSCCChhhjhhhhCvnvvt#:ubAAbZZnnnxvgvxvvxvbnnmmbDjnBxcck2$2BKNggC",
"vCnCnCCvCCvCCCCZggxvt&;lbAbZmmnnZZZZZZZZnvvbnZZZNjnCvnmx,X=CKNgCG",
"GZZCbCCDvvvjCCCbnnvvt&&lpbvvnmNnZZZmZbvbxbbvlvvvhghhflxf9O&ZRNCSC",
"vnCZnnvnvvCnvbCCnjgne+&fZZZZDDKHDPADZCCvCCnZZSSNCjCCgvnltO#CYjhCC",
"vCSDGZZvnvvvvvbvjngvt+&nbZZZSSSNGDGZCbvvufvvSSSFChCChlnl6X#jYjjSh",
"nnnvflxnnnbnbxlvjngx4$-dxNxNBBNNDDNFNNjgNjjNNNNNjjnCnnnl8X+nQDjGC",
"Zmmnblnnnnnnvnvngngxq$2lccBVBNFFFSFNSNjjggjjjNNjCCCCZmnxeO;DIChCG",
"nbnlfllnZmmmbnnmgxgcq$3lkxxxBNNNjjjNjgjjgggNNNFFhhvvbllkeo,PGCChD",
"mZmZmnmBnbnnmnnxxxgNq$-yxcVFVFBBnNNNNNNjNggxNNNNZCZmmbcz9X9PbvZhC",
"mbmcxxxbxxxxxxxxBBxcq+,wzzBBVBNcxcccNxccxxzxxxxcbbbbczzl1.4JllDbb",
"xnnxxxxnmmmbmmmmBBxVy+1wzxzcBcxxcccccBccMMccMVcmvxblzzzz1+0VbbJZZ",
"klxxlllllfllllxxadyxqo-wzzzzxaaazzzzzzczkiikkkiilllkzzzz1%1kkilui",
"&&;&&&&;4384849944,w-o%4=%=$$$=$$%%%%%%%o@.oo%@++&$+%%%%@o+*1-;:-",
"o+$$++$++o$$o$$+o$o%%o+oo+ooooo+o.XXXXXXXooXXooXoXoX+oo@ ..ooX@X+"
};
