/* XPM */
static char *result[] = {
/* columns rows colors chars-per-pixel */
"64 64 216 2 ",
"   c #000000",
".  c #0C090A",
"X  c #140707",
"o  c #050C10",
"O  c #021C18",
"+  c #181719",
"@  c #26191C",
"#  c #2E0000",
"$  c #00231E",
"%  c #0D371F",
"&  c #1F1E20",
"*  c #2E1B24",
"=  c #012422",
"-  c #002B26",
";  c #002E2B",
":  c #1D2C2D",
">  c #1A2728",
",  c #00312D",
"<  c #003635",
"1  c #003D3B",
"2  c #003836",
"3  c #193636",
"4  c #0B362C",
"5  c #232325",
"6  c #23262A",
"7  c #2B272B",
"8  c #262A2C",
"9  c #2A2B2D",
"0  c #282225",
"q  c #312B2F",
"w  c #2C2E31",
"e  c #232C33",
"r  c #2D3135",
"t  c #2E343A",
"y  c #27373A",
"u  c #313236",
"i  c #32363B",
"p  c #33393E",
"a  c #393A3E",
"s  c #312F34",
"d  c #02413F",
"f  c #2A443D",
"g  c #0A3E42",
"h  c #273E43",
"j  c #353C42",
"k  c #3A3E44",
"l  c #034343",
"z  c #094140",
"x  c #0C4A4B",
"c  c #094848",
"v  c #124A4B",
"b  c #1B4D4F",
"n  c #0C4D51",
"m  c #124E52",
"M  c #1D4B50",
"N  c #005C5B",
"B  c #085356",
"V  c #145154",
"C  c #1B5355",
"Z  c #1C565B",
"A  c #1A5B5E",
"S  c #274548",
"D  c #354146",
"F  c #3A4146",
"G  c #3D444A",
"H  c #3B494B",
"J  c #284E53",
"K  c #384E52",
"L  c #22565A",
"P  c #285559",
"I  c #3A545B",
"U  c #065D60",
"Y  c #105B61",
"T  c #215B61",
"R  c #395C63",
"E  c #006E6D",
"W  c #006C67",
"Q  c #196468",
"!  c #027472",
"~  c #007A77",
"^  c #127576",
"/  c #29666B",
"(  c #35696D",
")  c #2C6B71",
"_  c #346C72",
"`  c #367279",
"'  c #3B757D",
"]  c #3B797E",
"[  c #377A7F",
"{  c #434346",
"}  c #41464C",
"|  c #45494D",
" . c #484A4E",
".. c #464C53",
"X. c #4A4E55",
"o. c #465055",
"O. c #4B5157",
"+. c #4C545B",
"@. c #4A575C",
"#. c #51565D",
"$. c #554F56",
"%. c #465B63",
"&. c #555C63",
"*. c #5A5D66",
"=. c #615A68",
"-. c #49666C",
";. c #5C6166",
":. c #5B636B",
">. c #50656C",
",. c #5A6E76",
"<. c #566970",
"1. c #44787E",
"2. c #59767C",
"3. c #4E6A71",
"4. c #61666E",
"5. c #646A73",
"6. c #696D76",
"7. c #6A6F78",
"8. c #636670",
"9. c #62717A",
"0. c #6D737C",
"q. c #72767F",
"w. c #00807D",
"e. c #3E7D83",
"r. c #387A82",
"t. c #417C84",
"y. c #4D7E85",
"u. c #5A7E85",
"i. c #727780",
"p. c #747B83",
"a. c #797D86",
"s. c #7A7684",
"d. c #877A8C",
"f. c #8B7A92",
"g. c #897094",
"h. c #9A7CA6",
"j. c #A17EAC",
"k. c #028786",
"l. c #029C9A",
"z. c #019392",
"x. c #1C9493",
"c. c #138F8F",
"v. c #2B8686",
"b. c #39898A",
"n. c #2A9595",
"m. c #00A19C",
"M. c #03A6A4",
"N. c #1DB3B2",
"B. c #3AA7A9",
"V. c #3CB7B7",
"C. c #438187",
"Z. c #44848C",
"A. c #57878D",
"S. c #458891",
"D. c #498B92",
"F. c #558D94",
"G. c #4E949B",
"H. c #51959C",
"J. c #52989F",
"K. c #7C828B",
"L. c #73818A",
"P. c #678C95",
"I. c #66989D",
"U. c #718B94",
"Y. c #549BA2",
"T. c #4F98A0",
"R. c #659EA6",
"E. c #5BA4AC",
"W. c #55A1A8",
"Q. c #5EAAB3",
"!. c #5FA7B0",
"~. c #45B1B4",
"^. c #49A3A8",
"/. c #61ADB6",
"(. c #66AFBA",
"). c #65B2BB",
"_. c #6DB6BF",
"`. c #74A5AF",
"'. c #6BBAC3",
"]. c #72BAC2",
"[. c #45C2C4",
"{. c #848B93",
"}. c #888F98",
"|. c #888894",
" X c #8C939C",
".X c #819099",
"XX c #928196",
"oX c #8E98A1",
"OX c #949BA4",
"+X c #9097A0",
"@X c #8AA0A9",
"#X c #9AA2AC",
"$X c #96A3AC",
"%X c #9EAAB4",
"&X c #98B3BD",
"*X c #A3AAB4",
"=X c #A8AFB9",
"-X c #ABB2BC",
";X c #A7B0BA",
":X c #BC98C9",
">X c #91B9C2",
",X c #AEB6C0",
"<X c #AFB9C2",
"1X c #B2B9C3",
"2X c #B2B6C0",
"3X c #C29CCF",
"4X c #D8B0E7",
"5X c #E9BCF9",
"6X c #84C7CD",
"7X c #8FD8DE",
"8X c #BAC3CD",
"9X c #A2DCE3",
"0X c #A7E2EA",
"qX c #ACEBF1",
"wX c #F6C5FF",
"eX c None",
/* pixels */
"eXeXeXeXeXeXeXeXeXeXeXeXeXeXeXeXeXeXeXeXeXeXeXeXeXeXeXeXeXeXeXeXeXeXeXeXeXeXeXeXeXeXeXeXeXeXeXeXeXeXeXeXeXeXeXeXeXeXeXeXeXeXeXeX",
"eXeXeXeXeXeXeXeXeXeXeXeXeXeXeXeXeXeXeXeXeXeXeXeXeXeXeXeXeXeXeXeXeXeXeXeXeXeXeXeXeXeXeXeXeXeXeXeXeXeXeXeXeXeXeXeXeXeXeXeXeXeXeXeX",
"eXeXeXeXeXeXeXeXeXeXeXeXeXeXeXeXeXeXeXeXeXeXeXeXeXeXeXeXeXeXeXeXeXeXeXeXeXeXeXeXeXeXeXeXeXeXeXeXeXeXeXeXeXeXeXeXeXeXeXeXeXeXeXeX",
"eXeXeXeXeXeXeXeXeXeXeXeXeXeXeXeXeXeXeXeXeXeXeXeXeXeXeXeXeXeXeXeXeXeXeXeXeXeXeXeXeXeXeXeXeXeXeXeXeXeXeXeXeXeXeXeXeXeXeXeXeXeXeXeX",
"eXeXeXeXeXeXeXeXeXeXeXeXeXeXeXeXeXeXeXeXeXeXeXeXeXeXeXeXeXeXeXeXeXeXeXeXeXeXeXeXeXeXeXeXeXeXeXeXeXeXeXeXeXeXeXeXeXeXeXeXeXeXeXeX",
"eXeXeXeXeXeXeXeXeXeXeXeXeXeXeXeXeXeXeXeXeXeXeXeXeXeXeXeXeXeXeXeXeXeXeXeXeXeXeXeXeXeXeXeXeXeXeXeXeXeXeXeXeXeXeXeXeXeXeXeXeXeXeXeX",
"eXeXeXeXeXeXeXeXeXeXeXeXeXeXeXeXeXeXeXeXeXeXeXeXeXeXeXeXeXeXeXeXeXeXeXeXeXeXeXeXeXeXeXeXeXeXeXeXeXeXeXeXeXeXeXeXeXeXeXeXeXeXeXeX",
"eXeXeXeXeXeXeXeXeXeXeXeXeXeXeXeXeXeXeXeXeXeXeXeXeXeXeXeXeXeXeXeXqXeXeXeXeXeXeXeXeXeXeXeXeXeXeXeXeXeXeXeXeXeXeXeXeXeXeXeXeXeXeXeX",
"eXeXeXeXeXeXeXeXeXeXeXeXeXeXeXeXeXeXeXeXeXeXeXeXeXeXeXeXeXeXeXeX].eXeXeXeXeXeXeXeXeXeXeXeXeXeXeXeXeXeXeXeXeXeXeXeXeXeXeXeXeXeXeX",
"eXeXeXeXeXeXeXeXeXeXeXeXeXeXeXeXeXeXeXeXeXeXeXeXeXeXeXeXeXeXeXeXB.eXeXeXeXeXeXeXeXeXeXeXeXeXeXeXeXeXeXeXeXeXeXeXeXeXeXeXeXeXeXeX",
"eXeXeXeXeXeXeXeXeXeXeXeXeXeXeXeXeXeXeXeXeXeXeXeXeXeXeXeXeXeXeXeXl.eXeXeXeXeXeXeXeXeXeXeXeXeXeXeXeXeXeXeXeXeXeXeXeXeXeXeXeXeXeXeX",
"eXeXeXeXeXeXeXeXeXeXeXeXeXeXeXeXeXeXeXeXeXeXeXeXeXeXeXeXeXeXeXeX~ eXeXeXeXeXeXeXeXeXeXeXeXeXeXeXeXeXeXeXeXeXeXeXeXeXeXeXeXeXeXeX",
"eXeXeXeXeXeXeXeXeXeXeXeX).eXeXeXeXeXeXeXeXeXeXeXeXeXeXeXeXeXeXM.Q eXeXeXeXeXeXeXeXeXeXeXeXeXeXeXeXeXeX).eXeXeXeXeXeXeXeXeXeXeXeX",
"eXeXeXeXeXeXeXeXeXeXeXeXeX0X7XM.eXeXeXeXeXeXeXeXeXeXeXeXeXeXeXm.Q Z eXeXeXeXeXeXeXeXeXeXeXeXeXeXW W.'.eXeXeXeXeXeXeXeXeXeXeXeXeX",
"eXeXeXeXeXeXeXeXeXeXeXeXeXeX6Xm.eXeXeXeXeXeXeXeXeXeXeXeXeXeX2 Q v m J eXeXeXeXeXeXeXeXeXeXeXeXeXx.^.eXeXeXeXeXeXeXeXeXeXeXeXeXeX",
"eXeXeXeXeXeXeXeXeXeXeXeXeXeXeXk.N.c.M u O.a.i.| O.a. X{.}.4.F j i s X.4.X. .O.#. .p.i.j @ G.7XqXV.eXeXeXeXeXeXeXeXeXeXeXeXeXeXeX",
"eXeXeXeXeXeXeXeXeXeXeXeXeXeXeXx.).V.k.%.;X X}.,X-X,X<X1X,X2X&X!.a.p.6.5.*X-X;X,X2X+X6.O.J ^ v.b.z.eXeXeXeXeXeXeXeXeXeXeXeXeXeXeX",
"eXeXeXeXeXeXeXeXeXeXeXeXeXeXeXeXt.n.w.P oX{.K.OXOX X{. XOX{.I.~.U.a.7.6.1X8X;XoXOXs.u.G.U N ! ~ eXeXeXeXeXeXeXeXeXeXeXeXeXeXeXeX",
"eXeXeXeXeXeXeXeXeXeXeXeXeXeXeXeXg N / >.:.i.K.i.6.@.0. Xa.K E l.u.0.8.&.OX*XOXi.0.O.P.>X2.J U E eXeXeXeXeXeXeXeXeXeXeXeXeXeXeXeX",
"eXeXeXeXeXeXeXeXeXeXeXeXeXeXeXK.-./ ,.p.j :.p.i.:.O.{.-XK.%.N ! B +.X.j o.6.p.p.*.e i.-X|.-.Z P p eXeXeXeXeXeXeXeXeXeXeXeXeXeXeX",
"eXeXeXeXeXeXeXeXeXeXeXeXeXeXeXO.=X<X#X0.H r t G &.:.#.u 5 . $ : > + + 8 & 6.p.*.k > *.{.a.p.a.i.a eXeXeXeXeXeXeXeXeXeXeXeXeXeXeX",
"eXeXeXeXeXeXeXeXeXeXeXeXeXeXq $.}.1X;X0.* K.}.*.;.F 4.OX$X#X}.4.8.}.K.j X.+.X.X.5.7.:.+.5.p.a.,.&.k eXeXeXeXeXeXeXeXeXeXeXeXeXeX",
"eXeXeXeXeXeXeXeXeXeXeXeXeXX -.P.i.OXOXp.1.=X1X X0.5 q.8X*X*XOXq.7.;X,XK.5.j . G p.{.6.w &.6.6.&.&.G + eXeXeXeXeXeXeXeXeXeXeXeXeX",
"eXeXeXeXeXeXeXeXeXeXeXeXeX# y.(.a.i.i.a./.>X1X-X{.a 0.;X4.+.&.&.&.oX1X;X6.j 6 H i.a.5.j &.&.&.&.k a a eXeXeXeXeXeXeXeXeXeXeXeXeX",
"eXeXeXeXeXeXeXeXeXeXeXeXeXa.0.I >.p.i.*.K OX-Xp.X.6 | 0.{.a.7.&.*.i.{.K.4.{ 3 L D 0.6.j :...k G i 0.a.eXeXeXeXeXeXeXeXeXeXeXeXeX",
"eXeXeXeXeXeXeXeXeXeXeXeXeX{.p.7 G :.5.*.7 a.oXp.G 8 r j f 4 +.q.:.D 4 f G i y h r 0.0.t ..G t w 6 p.{.eXeXeXeXeXeXeXeXeXeXeXeXeX",
"eXeXeXeXeXeXeXeXeXeXeXeXeX5.4.p j } &.O.j &.5.4.F 8 i =.h.h.f.:.o.g.h.f.=.a 7 7 r :.:.t i j r 7 5 :.6.eXeXeXeXeXeXeXeXeXeXeXeXeX",
"eXeXeXeXeXeXeXeXeXeXeXeXeX+ 8 j j j t j j i e & 7 + | f.5XwX3X    :X5X4Xd.{ > w w r j k D r 8 8 9 5 + eXeXeXeXeXeXeXeXeXeXeXeXeX",
"eXeXeXeXeXeXeXeXeXeXeXeXeXeXeXu j w r j w w w 7 9 5 G 5.f.XXs.#.#.s.f.d.5.{ 7 r w w u F L h 7 w w eXeXeXeXeXeXeXeXeXeXeXeXeXeXeX",
"eXeXeXeXeXeXeXeXeXeXeXeXeXeXeXr j j i i w 8 9 8 9 8 i o.;.4.:.:.:.;.;.;.X.a 9 w u i k D S t 8 w s eXeXeXeXeXeXeXeXeXeXeXeXeXeXeX",
"eXeXeXeXeXeXeXeXeXeXeXeXeXeXeX7 j t 6 . 7 8 7 w 9 9 9 p O.@.+.+.#.@.+.O.j r u u r i j p 7 8 w 9 8 eXeXeXeXeXeXeXeXeXeXeXeXeXeXeX",
"eXeXeXeXeXeXeXeXeXeXeXeXeXeXeXk j ..+.} w w u 8 9 9 9 9 i p p p p a j j u u t u r i i i O.O.| i k eXeXeXeXeXeXeXeXeXeXeXeXeXeXeX",
"eXeXeXeXeXeXeXeXeXeXeXeXeX  } i.&.OX1X*XO...O.6 7 e 9 9 w w w w w r i u r u i u r O.o.X.oX#X{.%.0.}   eXeXeXeXeXeXeXeXeXeXeXeXeX",
"eXeXeXeXeXeXeXeXeXeXeXeX  a.=X=X*.*X1X}...#.#.8 J y 0 5 5 5 5 6 w 8 7 e e w w s w @.@.O.#X-X X&.q. XK.o eXeXeXeXeXeXeXeXeXeXeXeX",
"eXeXeXeXeXeXeXeXeXeXeXeX  *X1XOX:.{.OXP.G ....5 M y i } F } H G w k } H } ..H h t ....o.oXoXa.>.8.OX}.X eXeXeXeXeXeXeXeXeXeXeXeX",
"eXeXeXeXeXeXeXeXeXeXeXeX  OX$X+.*.#.A./.I i p y 7 r X.:.:.*.:.&.r +.:.:.*.*.%.Z t p j I ^.u.5.p.<.9.:.y eXeXeXeXeXeXeXeXeXeXeXeX",
"eXeXeXeXeXeXeXeXeXeXeXeX@ K ,.i.*.6.i.,.C.I I e.t 9 X.:.:.O.k G j &.:.:.:.O.j t D J L L Y .X*X%X!.U.:.U M.eXeXeXeXeXeXeXeXeXeXeX",
"eXeXeXeXeXeXeXeXeXeXeX/.P k.b.0.R.I.3.8 C 3 < l $ O y X...G t r r } o.o.+.h $ = > 2 < = = 2.`.`.U.9.| S eXeXeXeXeXeXeXeXeXeXeXeX",
"eXeXeXeXeXeXeXeXeXeXeX/./ k.v.%.E.S.) [ 1.[ A.I.C.b._ e r t r 5 6 r r t t _ t.t.e.[ A.I.1.Q r.Y.9.} @ 7 eXeXeXeXeXeXeXeXeXeXeXeX",
"eXeXeXeXeXeXeXeXeXeXeXeXeX9 J / r.c ' '.)./.6X0X_.).H., 9 u u r w r w w < H.)././.Q.6X9X_._ v ] B J S eXeXeXeXeXeXeXeXeXeXeXeXeX",
"eXeXeXeXeXeXeXeXeXeXeXeXeXm.[.).) - e.)./ n / ( b x c d a +.;.&.j +.&.h d c v v L A _ F.).] 1 L - z.M.eXeXeXeXeXeXeXeXeXeXeXeXeX",
"eXeXeXeXeXeXeXeXeXeXeXeX).~.eXeXg - _ H.( D.Y.H.J.J.e.< r } O...k ..} 9 < C.J.J.Y.Y.Y.Y.Z.L 2 Z H.B.eX(.eXeXeXeXeXeXeXeXeXeXeXeX",
"eXeXeXeXeXeXeXeXeXeXeXeX).eXeXeX~ N P t.t.Y./././.'.W.- 8 r r t j t w 8 - Y.'././.E.Q.Y.A d 2 L Y.eXeX).eXeXeXeXeXeXeXeXeXeXeXeX",
"eXeXeXeXeXeXeXeXeXeXeXeXeXeXeXeXM.~ J Z.S.t.' ' ' W.H., 8 9 7 8 6 9 7 9 < H.W._ ' ' e.' T x z eXn eXeXeXeXeXeXeXeXeXeXeXeXeXeXeX",
"eXeXeXeXeXeXeXeXeXeXeXeXeXeXeXZ eXd L S.).Z.l c c C V d r 9 9 9 9 9 7 w l V C x v m _ e.T x c eXeXeXeXeXeXeXeXeXeXeXeXeXeXeXeXeX",
"eXeXeXeXeXeXeXeXeXeXeXeXeXeXeXeXeX, / S.Y.Z./ x V d , : 9 9 9 9 9 w 9 e : , l m m m T / A n z eXeXeXeXeXeXeXeXeXeXeXeXeXeXeXeXeX",
"eXeXeXeXeXeXeXeXeXeXeXeXeXeXeXeXeX3 Z ` ) ` ) n m J H F 9 9 9 r w 7 w i { K J m m V m x m v y eXeXeXeXeXeXeXeXeXeXeXeXeXeXeXeXeX",
"eXeXeXeXeXeXeXeXeXeXeXeXeXeXeXeXeXeXy 1 2 1 1 z 1 @.4.;.i 9 9 eXeXw r k ;.:.@.1 g z z z l h eXeXeXeXeXeXeXeXeXeXeXeXeXeXeXeXeXeX",
"eXeXeXeXeXeXeXeXeXeXeXeXeXeXeXeXeXeXeXeXeXeXr r t @.:.;.F u 7 eXeX8 r G :.o.D j r t eXeXeXeXeXeXeXeXeXeXeXeXeXeXeXeXeXeXeXeXeXeX",
"eXeXeXeXeXeXeXeXeXeXeXeXeXeXeXeXeXeXeXeXeXq 7 w a &.&...F i 9 eXeX7 i F ..F j j p r u eXeXeXeXeXeXeXeXeXeXeXeXeXeXeXeXeXeXeXeXeX",
"eXeXeXeXeXeXeXeXeXeXeXeXeXeXeXeXeXeXeXeXeX9 r 9 r X...r i u 9 eXeX9 r i r j j p p t w eXeXeXeXeXeXeXeXeXeXeXeXeXeXeXeXeXeXeXeXeX",
"eXeXeXeXeXeXeXeXeXeXeXeXeXeXeXeXeXeXeXeXeXw 9 9 8 i r 8 9 u eXeXeXeXs 9 8 t p 7 9 9 s eXeXeXeXeXeXeXeXeXeXeXeXeXeXeXeXeXeXeXeXeX",
"eXeXeXeXeXeXeXeXeXeXeXeXeXeXeXeXeXeXeXeXeXeXu 9 w w r 9 w r eXeXeXeXu 9 w r 9 9 r r eXeXeXeXeXeXeXeXeXeXeXeXeXeXeXeXeXeXeXeXeXeX",
"eXeXeXeXeXeXeXeXeXeXeXeXeXeXeXeXeXeXeXeXeXeXeXs w w q s 9 eXeXeXeXeXeXu 9 w u 9 w eXeXeXeXeXeXeXeXeXeXeXeXeXeXeXeXeXeXeXeXeXeXeX",
"eXeXeXeXeXeXeXeXeXeXeXeXeXeXeXeXeXeXeXeXeXeXeXeXeXeXeXeXeXeXeXeXeXeXeXeXeXeXeXeXeXeXeXeXeXeXeXeXeXeXeXeXeXeXeXeXeXeXeXeXeXeXeXeX",
"eXeXeXeXeXeXeXeXeXeXeXeXeXeXeXeXeXeXeXeXeXeXeXeXeXeXeXeXeXeXeXeXeXeXeXeXeXeXeXeXeXeXeXeXeXeXeXeXeXeXeXeXeXeXeXeXeXeXeXeXeXeXeXeX",
"eXeXeXeXeXeXeXeXeXeXeXeXeXeXeXeXeXeXeXeXeXeXeXeXeXeXeXeXeXeXeXeXeXeXeXeXeXeXeXeXeXeXeXeXeXeXeXeXeXeXeXeXeXeXeXeXeXeXeXeXeXeXeXeX",
"eXeXeXeXeXeXeXeXeXeXeXeXeXeXeXeXeXeXeXeXeXeXeXeXeXeXeXeXeXeXeXeXeXeXeXeXeXeXeXeXeXeXeXeXeXeXeXeXeXeXeXeXeXeXeXeXeXeXeXeXeXeXeXeX",
"eXeXeXeXeXeXeXeXeXeXeXeXeXeXeXeXeXeXeXeXeXeXeXeXeXeXeXeXeXeXeXeXeXeXeXeXeXeXeXeXeXeXeXeXeXeXeXeXeXeXeXeXeXeXeXeXeXeXeXeXeXeXeXeX",
"eXeXeXeXeXeXeXeXeXeXeXeXeXeXeXeXeXeXeXeXeXeXeXeXeXeXeXeXeXeXeXeXeXeXeXeXeXeXeXeXeXeXeXeXeXeXeXeXeXeXeXeXeXeXeXeXeXeXeXeXeXeXeXeX",
"eXeXeXeXeXeXeXeXeXeXeXeXeXeXeXeXeXeXeXeXeXeXeXeXeXeXeXeXeXeXeXeXeXeXeXeXeXeXeXeXeXeXeXeXeXeXeXeXeXeXeXeXeXeXeXeXeXeXeXeXeXeXeXeX",
"eXeXeXeXeXeXeXeXeXeXeXeXeXeXeXeXeXeXeXeXeXeXeXeXeXeXeXeXeXeXeXeXeXeXeXeXeXeXeXeXeXeXeXeXeXeXeXeXeXeXeXeXeXeXeXeXeXeXeXeXeXeXeXeX",
"eXeXeXeXeXeXeXeXeXeXeXeXeXeXeXeXeXeXeXeXeXeXeXeXeXeXeXeXeXeXeXeXeXeXeXeXeXeXeXeXeXeXeXeXeXeXeXeXeXeXeXeXeXeXeXeXeXeXeXeXeXeXeXeX",
"eXeXeXeXeXeXeXeXeXeXeXeXeXeXeXeXeXeXeXeXeXeXeXeXeXeXeXeXeXeXeXeXeXeXeXeXeXeXeXeXeXeXeXeXeXeXeXeXeXeXeXeXeXeXeXeXeXeXeXeXeXeXeXeX"
};
