/* XPM */
static char *result[] = {
/* columns rows colors chars-per-pixel */
"64 64 206 2 ",
"   c #000000",
".  c #070909",
"X  c #001D0F",
"o  c #001100",
"O  c #1A161A",
"+  c #1C1A1C",
"@  c #151716",
"#  c #0C1113",
"$  c #240103",
"%  c #2E0D0D",
"&  c #27181C",
"*  c #341B1F",
"=  c #002200",
"-  c #002212",
";  c #001A20",
":  c #161D22",
">  c #311D25",
",  c #002721",
"<  c #18272A",
"1  c #003C3D",
"2  c #0E3F3E",
"3  c #063836",
"4  c #143B3A",
"5  c #173738",
"6  c #242426",
"7  c #2C2527",
"8  c #23262C",
"9  c #2A2B2D",
"0  c #29292C",
"q  c #252C32",
"w  c #2C2E31",
"e  c #243436",
"r  c #2D3135",
"t  c #2E343A",
"y  c #23383A",
"u  c #303236",
"i  c #32363B",
"p  c #33393E",
"a  c #3C373D",
"s  c #332F35",
"d  c #41323B",
"f  c #02413F",
"g  c #13403F",
"h  c #3E403F",
"j  c #003D42",
"k  c #283C43",
"l  c #353C42",
"z  c #3A3E44",
"x  c #403D45",
"c  c #004442",
"v  c #014B4C",
"b  c #0C4B4C",
"n  c #044746",
"m  c #154445",
"M  c #004F53",
"N  c #0F4F54",
"B  c #164D50",
"V  c #005156",
"C  c #025559",
"Z  c #005C5F",
"A  c #0C5455",
"S  c #135255",
"D  c #155459",
"F  c #1A555A",
"G  c #1B595E",
"H  c #16565A",
"J  c #3C4147",
"K  c #354449",
"L  c #3D434A",
"P  c #38494E",
"I  c #264D52",
"U  c #364D53",
"Y  c #3D5155",
"T  c #33575C",
"R  c #234B50",
"E  c #005F63",
"W  c #195B60",
"Q  c #265D63",
"!  c #385B61",
"~  c #006A67",
"^  c #066867",
"/  c #1A6468",
"(  c #00726D",
")  c #007773",
"_  c #007C79",
"`  c #276469",
"'  c #346367",
"]  c #3A6469",
"[  c #277374",
"{  c #35787A",
"}  c #44444B",
"|  c #46484E",
" . c #454B52",
".. c #4B4D54",
"X. c #4E4751",
"o. c #504D55",
"O. c #4A5057",
"+. c #4D545B",
"@. c #435157",
"#. c #51575E",
"$. c #52585A",
"%. c #4B5C63",
"&. c #555C63",
"*. c #5A5D65",
"=. c #655B69",
"-. c #496369",
";. c #54636A",
":. c #5C636B",
">. c #536C72",
",. c #5E6A72",
"<. c #48757C",
"1. c #597279",
"2. c #64646C",
"3. c #666770",
"4. c #646A72",
"5. c #696D75",
"6. c #696170",
"7. c #63727A",
"8. c #6D737C",
"9. c #6B7076",
"0. c #71767E",
"q. c #7A747E",
"w. c #756F78",
"e. c #3B7980",
"r. c #477D81",
"t. c #6B7981",
"y. c #677E85",
"u. c #747781",
"i. c #747A83",
"p. c #797F88",
"a. c #767E87",
"s. c #796680",
"d. c #8D7D92",
"f. c #9C7CA7",
"g. c #028686",
"h. c #178787",
"j. c #009B99",
"k. c #38898B",
"l. c #359092",
"z. c #0EABAA",
"x. c #2AAEB0",
"c. c #56858D",
"v. c #479499",
"b. c #4A8C8F",
"n. c #66868B",
"m. c #7C838C",
"M. c #75858D",
"N. c #618E91",
"B. c #6C969A",
"V. c #7C979E",
"C. c #719B9F",
"Z. c #7B8790",
"A. c #4F98A0",
"S. c #529BA3",
"D. c #5C9CA4",
"F. c #739CA2",
"G. c #5BA6AB",
"H. c #5DACB5",
"J. c #66A9AE",
"K. c #62B2BB",
"L. c #6EB2B5",
"P. c #6CACB3",
"I. c #6FBAC3",
"U. c #70B9C2",
"Y. c #72C4CB",
"T. c #74CFD1",
"R. c #80868E",
"E. c #818790",
"W. c #848A93",
"Q. c #888E97",
"!. c #8D939C",
"~. c #85959E",
"^. c #90979F",
"/. c #918297",
"(. c #8D9AA2",
"). c #9197A1",
"_. c #949BA4",
"`. c #969FA8",
"'. c #989FA8",
"]. c #B598BF",
"[. c #89A5AB",
"{. c #9CA3AC",
"}. c #95A3AB",
"|. c #9CAAB3",
" X c #9AA8B0",
".X c #89B4BB",
"XX c #96B3BB",
"oX c #A2AAB4",
"OX c #A7AEB8",
"+X c #ABAFBA",
"@X c #ACB3BD",
"#X c #98BDC3",
"$X c #AFB7C1",
"%X c #AABAC3",
"&X c #B0B7C1",
"*X c #B2BAC4",
"=X c #B5BEC8",
"-X c #EBBDFA",
";X c #94CDD3",
":X c #94D6DC",
">X c #BAC2CC",
",X c #A0C9D1",
"<X c #9DDEE5",
"1X c #A9E4EB",
"2X c #A9E2E8",
"3X c None",
/* pixels */
"3X3X3X3X3X3X3X3X3X3X3X3X3X3X3X3X3X3X3X3X3X3X3X3X3X3X3X3X3X3X3X3X3X3X3X3X3X3X3X3X3X3X3X3X3X3X3X3X3X3X3X3X3X3X3X3X3X3X3X3X3X3X3X3X",
"3X3X3X3X3X3X3X3X3X3X3X3X3X3X3X3X3X3X3X3X3X3X3X3X3X3X3X3X3X3X3X3X3X3X3X3X3X3X3X3X3X3X3X3X3X3X3X3X3X3X3X3X3X3X3X3X3X3X3X3X3X3X3X3X",
"3X3X3X3X3X3X3X3X3X3X3X3X3X3X3X3X3X3X3X3X3X3X3X3X3X3X3X3X3X3X3X3X3X3X3X3X3X3X3X3X3X3X3X3X3X3X3X3X3X3X3X3X3X3X3X3X3X3X3X3X3X3X3X3X",
"3X3X3X3X3X3X3X3X3X3X3X3X3X3X3X3X3X3X3X3X3X3X3X3X3X3X3X3X3X3X3X3X3X3X3X3X3X3X3X3X3X3X3X3X3X3X3X3X3X3X3X3X3X3X3X3X3X3X3X3X3X3X3X3X",
"3X3X3X3X3X3X3X3X3X3X3X3X3X3X3X3X3X3X3X3X3X3X3X3X3X3X3X3X3X3X3X3X3X3X3X3X3X3X3X3X3X3X3X3X3X3X3X3X3X3X3X3X3X3X3X3X3X3X3X3X3X3X3X3X",
"3X3X3X3X3X3X3X3X3X3X3X3X3X3X3X3X3X3X3X3X3X3X3X3X3X3X3X3X3X3X3X3X3X3X3X3X3X3X3X3X3X3X3X3X3X3X3X3X3X3X3X3X3X3X3X3X3X3X3X3X3X3X3X3X",
"3X3X3X3X3X3X3X3X3X3X3X3X3X3X3X3X3X3X3X3X3X3X3X3X3X3X3X3X3X3X3X3X3X3X3X3X3X3X3X3X3X3X3X3X3X3X3X3X3X3X3X3X3X3X3X3X3X3X3X3X3X3X3X3X",
"3X3X3X3X3X3X3X3X3X3X3X3X3X3X3X3X3X3X3X3X3X3X3X3X3X3X3X3X3X3X3X3X3X3X3X3X3X3X3X3X3X3X3X3X3X3X3X3X3X3X3X3X3X3X3X3X3X3X3X3X3X3X3X3X",
"3X3X3X3X3X3X3X3X3X3X3X3X3X3X3X3X3X3X3X3X3X3X3X3X3X3X3X3X3X3X3X3X3X_ _ 3X3X3X3X3X3X3X3X3X3X3X3X3X3X3X3X3X3X3X3X3X3X3X3X3X3X3X3X3X",
"3X3X3X3X3X3X3X3X3X3X3X3X3X3X3X3X3X3X3X3X3X3X3X3X3X3X3X3X3X3X3X3X3X) ) 3X3X3X3X3X3X3X3X3X3X3X3X3X3X3X3X3X3X3X3X3X3X3X3X3X3X3X3X3X",
"3X3X3X3X3X3X3X3X3X3X3X3X3X3X3X3X3X3X3X3X3X3X3X3X3X3X3X3X3X3X3X3X3Xl.l.3X3X3X3X3X3X3X3X3X3X3X3X3X3X3X3X3X3X3X3X3X3X3X3X3X3X3X3X3X",
"3X3X3X3X3X3X3X3X3X3X3X3X3X3X3X3X3X3X3X3X3X3X3X3X3X3X3X3X3X3X3X3X3XI.I.3X3X3X3X3X3X3X3X3X3X3X3X3X3X3X3X3X3X3X3X3X3X3X3X3X3X3X3X3X",
"3X3X3X3X3X3X3X3X3X3X3X3X3X3X3X3X3X3X3X3X3X3X3X3X3X3X3X3X3X3X3X3X( :X:X( 3X3X3X3X3X3X3X3X3X3X3X3X3X3X3X3X3X3X3X3X3X3X3X3X3X3X3X3X",
"3X3X3X3X3X3X3X3X3X3X3X3X3X3X3X3X3X3X3X3X3X3X3X3X3X3X3X3X3X3X. l ] B.N.c @ 3X3X3X3X3X3X3X3X3X3X3X3X3X3X3X3X3X3X3X3X3X3X3X3X3X3X3X",
"3X3X3X3X3X3X3X3X3X3X3X3X3X3X3X3X3X3X3X3X3X3X3X3X3X3X3X3X3X} &.&.2.X.d X.&.L 3X3X3X3X3X3X3X3X3X3X3X3X3X3X3X3X3X3X3X3X3X3X3X3X3X3X",
"3X3X3X3X3X3X3X3X3X3X3X3X3X3X3X3X3X3X3X3X3X3X3X3X3X3X3X..i 0.W.E.R.R.R.E.m.&.9 r 3X3X3X3X3X3X3X3X3X3X3X3X3X3X3X3X3X3X3X3X3X3X3X3X",
"3X3X3X3X3X3X3X3X3X3X3X3X3X3X3X3X3X3X3X3X3X3X3X3X3Xl Z.@X0.}.$X@X@X@X$X+XR.u.&.Y 2X3X3X3X3X3X3X3X3X3X3X3X3X3X3X3X3X3X3X3X3X3X3X3X",
"3X3X3X3X3X3X3X3X3X3X3X3X3X3X3X3X3X3X3X3X3X3X3X3X  W. XC.oX@X*X*X=X=X=X*XE.0.*.&.T.3X3X3X3X3X3X3X3X3X3X3X3X3X3X3X3X3X3X3X3X3X3X3X",
"3X3X3X3X3X3X3X3X3X3X3X3X3X3X3X3X3X3X3X3X3X3X3X3X0.&X|.{ [.@X*X&XoX{.{.'.5.o.-.b.x.h.3X3X3X3X3X3X3X3X3X3X3X3X3X3X3X3X3X3X3X3X3X3X",
"3X3X3X3X3X3X3X3X3X3X3X3X3X3X3X3X3X3X3X3X3X3X3X..OX*X}.t.h.[.&X+Xa.u.m.i.#.d [ z.K.r.* u 3X3X3X3X3X3X3X3X3X3X3X3X3X3X3X3X3X3X3X3X",
"3X3X3X3X3X3X3X3X3X3X3X3X3X3X3X3X3X3X3X3X3X3X3Xr 4.7.2.0.2XT.v.q.*._.*X@X$X!.>.E E 7.8.#.u 3X3X3X3X3X3X3X3X3X3X3X3X3X3X3X3X3X3X3X",
"3X3X3X3X3X3X3X3X3X3X3X3X3X3X3X3X3X3X3X3X3X3Xz :.$. .t K V.l.J.;X] '.>X$Xm.p.0.+.4.p.i.&.L 3X3X3X3X3X3X3X3X3X3X3X3X3X3X3X3X3X3X3X",
"3X3X3X3X3X3X3X3X3X3X3X3X3X3X3X3X3X3X3X3X3X9.!.).8.L +.8.  c H.:X/ m.@X@X&.&.4.:.u.t.5.&.P 3X3X3X3X3X3X3X3X3X3X3X3X3X3X3X3X3X3X3X",
"3X3X3X3X3X3X3X3X3X3X3X3X3X3X3X3X3X3X3X3X< {.>X&Xm.L m.>X1.^ g.j.E ,._.$XW.+.l *.&.&.*.*.L 3X3X3X3X3X3X3X3X3X3X3X3X3X3X3X3X3X3X3X",
"3X3X3X3X3X3X3X3X3X3X3X3X3X3X3X3X3X3X3X3X: '.=X&X+.#.!.*X$Xn.v Z j (.=X$XE.#.t J J l O.:.p 3X3X3X3X3X3X3X3X3X3X3X3X3X3X3X3X3X3X3X",
"3X3X3X3X3X3X3X3X3X3X3X3X3X3X3X3X3X3X3XH ^ }.+X/.5.).&X*X'.M.*.2.(.$X@X!.m.&.q w r 0 - = @ 3X3X3X3X3X3X3X3X3X3X3X3X3X3X3X3X3X3X3X",
"3X3X3X3X3X3X3X3X3X3X3X3X3X3X3X3X3X3X3XH ~ #X#X>.1.!.{.).i.q.(.XXOXOX).8.5.O.w 0 9 a w.f.=.3X3X3X3X3X3X3X3X3X3X3X3X3X3X3X3X3X3X3X",
"3X3X3X3X3X3X3X3X3X3X3X3X3X3X3X3X3X3X3X3Xj ;X;X~ C %...p 8.5..X1XM.5.u.8.L t p w t $.].-X/.3X3X3X3X3X3X3X3X3X3X3X3X3X3X3X3X3X3X3X",
"3X3X3X3X3X3X3X3X3X3X3X3X3X3X3X3X3X3X3X3X;.Z.y.v V 7.u.%.p > c.L. .& } &.%.} l l l p 6./.} 3 c 3X3X3X3X3X3X3X3X3X3X3X3X3X3X3X3X3X",
"3X3X3X3X3X3X3X3X3X3X3X3X3X3X3X3X3X3X3X3Xz 3.Q._.Q ;.:.*.'.6.M g.e o.m.oXoX5.. r l p J  .0 m c 3X3X3X3X3X3X3X3X3X3X3X3X3X3X3X3X3X",
"3X3X3X3X3X3X3X3X3X3X3X3X3X3X3X3X3X3X3X3X@ &.!.oX-.U 4.Q.{.7.r.J.' -.E.oXoX4.  w i p r 9 7 m c 3X3X3X3X3X3X3X3X3X3X3X3X3X3X3X3X3X",
"3X3X3X3X3X3X3X3X3X3X3X3X3X3X3X3X3X3X3X3X6 ..4.0.2.&.!.&X} n L.2Xl.n z &.&.z w 9 9 9 q w w m c 3X3X3X3X3X3X3X3X3X3X3X3X3X3X3X3X3X",
"3X3X3X3X3X3X3X3X3X3X3X3X3X3X3X3X3X3X3X3X6 +.;.:.&._.*X$X..j [ k./ 5 &.i.:.*.o.8 9 5 b F F b f 3X3X3X3X3X3X3X3X3X3X3X3X3X3X3X3X3X",
"3X3X3X3X3X3X3X3X3X3X3X3X3X3X3X3X3X3X3X3X: 4.8.&.l {.&XQ.:.P B E M ;.5.4.:.%.z 0 7 4 v G G S 1 3X3X3X3X3X3X3X3X3X3X3X3X3X3X3X3X3X",
"3X3X3X3X3X3X3X3X3X3X3X3X3X3X3X3X3X3X3X3X& :.7.&.8 `.oX:.+.l e I ! 7.8.&.%.} w w e 4 n D S n 3X3X3X3X3X3X3X3X3X3X3X3X3X3X3X3X3X3X",
"3X3X3X3X3X3X3X3X3X3X3X3X3X3X3X3X3X3X3X3Xr v ! *.q {.oXO...+.| l &.&.&.*.z p p q c c c c c 3X3X3X3X3X3X3X3X3X3X3X3X3X3X3X3X3X3X3X",
"3X3X3X3X3X3X3X3X3X3X3X3X3X3X3X3X3X3X3XG D C ! *.q {.{.z {.=X^.: l l O.*.z l p 0 3X3X3X3X3X3X3X3X3X3X3X3X3X3X3X3X3X3X3X3X3X3X3X3X",
"3X3X3X3X3X3X3X3X3X3X3X3X3X3X3X3X3X3X3X3Xk k K  .l 4.t.i.=XOXW.3.&.J J  .z z l 0 3X3X3X3X3X3X3X3X3X3X3X3X3X3X3X3X3X3X3X3X3X3X3X3X",
"3X3X3X3X3X3X3X3X3X3X3X3X3X3X3X3X3X3X3X3X7 7 w l l : z u.).m.5.u.,.| q t i p u 9 3X3X3X3X3X3X3X3X3X3X3X3X3X3X3X3X3X3X3X3X3X3X3X3X",
"3X3X3X3X3X3X3X3X3X3X3X3X3X3X3X3X3X3X3X3X0 w r l l l t O   | ;.&.&.L 6 0 0 0 0 w 3X3X3X3X3X3X3X3X3X3X3X3X3X3X3X3X3X3X3X3X3X3X3X3X",
"3X3X3X3X3X3X3X3X3X3X3X3X3X3X3X3X3X3X3X3X9 w 9 w l i 9 9 l i u u u p p 9 9 w w 3X3X3X3X3X3X3X3X3X3X3X3X3X3X3X3X3X3X3X3X3X3X3X3X3X",
"3X3X3X3X3X3X3X3X3X3X3X3X3X3X3X3X3X3X3X3X9 w 9 w l t @         @ 8 w r 9 9 w e m D Q j     3X3X3X3X3X3X3X3X3X3X3X3X3X3X3X3X3X3X3X",
"3X3X3X3X3X3X3X3X3X3X3X3X3X3X3X3X3X3X3X3X9 w 9 9 p + ..u.0.u.9...w @ . O 9 % < v G M <.P.b.` 3X3X3X3X3X3X3X3X3X3X3X3X3X3X3X3X3X3X",
"3X3X3X3X3X3X3X3X3X3X3X3X3X3X3X3X3X3X3X3X9 9 9 w 9   a.>X=X=XoX0.a z ..| r k T / F o C.1XI.k.o 3X3X3X3X3X3X3X3X3X3X3X3X3X3X3X3X3X",
"3X3X3X3X3X3X3X3X3X3X3X3X3X3X3X3X3X3X3X3X3X9 i l 6 &.).*X=X_.p.i.#._.&XoXR v.K.G.b X 3 ] K.e.X 3X3X3X3X3X3X3X3X3X3X3X3X3X3X3X3X3X",
"3X3X3X3X3X3X3X3X3X3X3X3X3X3X3X3X3X3X3X3X3X9 u w   :.'.=X'.u.2.4.#.{.>X&X|.V..X<XD.A.S.D.<XJ.  3X3X3X3X3X3X3X3X3X3X3X3X3X3X3X3X3X",
"3X3X3X3X3X3X3X3X3X3X3X3X3X3X3X3X3X3X3X3X3Xw 9 w +.*.p.).8.:.#.$.:.{.>X$X|.0.V.<XI.H.S.G.;XN.  3X3X3X3X3X3X3X3X3X3X3X3X3X3X3X3X3X",
"3X3X3X3X3X3X3X3X3X3X3X3X3X3X3X3X3X3X3X3X3X3X6 a i.*.q 8 %.:.+.L 8.{.&XOX! ; <.H.K.r.j v j j k 3X3X3X3X3X3X3X3X3X3X3X3X3X3X3X3X3X",
"3X3X3X3X3X3X3X3X3X3X3X3X3X3X3X3X3X3X3X3X3X3Xw u u 5.4.- l &.%.F :.%.1.R.m.-.C ` ` G H S c c m 3X3X3X3X3X3X3X3X3X3X3X3X3X3X3X3X3X",
"3X3X3X3X3X3X3X3X3X3X3X3X3X3X3X3X3X3X3X3X3X3X3X9 & @.c.S.P x K 1 *.I m &.>.] C b S H F H D M 4 3X3X3X3X3X3X3X3X3X3X3X3X3X3X3X3X3X",
"3X3X3X3X3X3X3X3X3X3X3X3X3X3X3X3X3X3X3X3X3X3X3X3X0 3 e.S.P & T r.&.P 5 q n S F S S S S S S b 4 3X3X3X3X3X3X3X3X3X3X3X3X3X3X3X3X3X",
"3X3X3X3X3X3X3X3X3X3X3X3X3X3X3X3X3X3X3X3X3X3X3X3X9 4 5 $ 9 $ r.K.U u p 9 3X3Xy f f 1 f f f y 3X3X3X3X3X3X3X3X3X3X3X3X3X3X3X3X3X3X",
"3X3X3X3X3X3X3X3X3X3X3X3X3X3X3X3X3X3X3X3X3X3X3X3X0 q r l l a I ` K s w w 3X3X3X3X3X3X3X3X3X3X3X3X3X3X3X3X3X3X3X3X3X3X3X3X3X3X3X3X",
"3X3X3X3X3X3X3X3X3X3X3X3X3X3X3X3X3X3X3X3X3X3X3X3Xw 9 u i t i t e i w 9 w 3X3X3X3X3X3X3X3X3X3X3X3X3X3X3X3X3X3X3X3X3X3X3X3X3X3X3X3X",
"3X3X3X3X3X3X3X3X3X3X3X3X3X3X3X3X3X3X3X3X3X3X3X3X3Xs 9 9 9 9 9 7 9 9 w 3X3X3X3X3X3X3X3X3X3X3X3X3X3X3X3X3X3X3X3X3X3X3X3X3X3X3X3X3X",
"3X3X3X3X3X3X3X3X3X3X3X3X3X3X3X3X3X3X3X3X3X3X3X3X3X3X3X3X3X3X3X3X3X3X3X3X3X3X3X3X3X3X3X3X3X3X3X3X3X3X3X3X3X3X3X3X3X3X3X3X3X3X3X3X",
"3X3X3X3X3X3X3X3X3X3X3X3X3X3X3X3X3X3X3X3X3X3X3X3X3X3X3X3X3X3X3X3X3X3X3X3X3X3X3X3X3X3X3X3X3X3X3X3X3X3X3X3X3X3X3X3X3X3X3X3X3X3X3X3X",
"3X3X3X3X3X3X3X3X3X3X3X3X3X3X3X3X3X3X3X3X3X3X3X3X3X3X3X3X3X3X3X3X3X3X3X3X3X3X3X3X3X3X3X3X3X3X3X3X3X3X3X3X3X3X3X3X3X3X3X3X3X3X3X3X",
"3X3X3X3X3X3X3X3X3X3X3X3X3X3X3X3X3X3X3X3X3X3X3X3X3X3X3X3X3X3X3X3X3X3X3X3X3X3X3X3X3X3X3X3X3X3X3X3X3X3X3X3X3X3X3X3X3X3X3X3X3X3X3X3X",
"3X3X3X3X3X3X3X3X3X3X3X3X3X3X3X3X3X3X3X3X3X3X3X3X3X3X3X3X3X3X3X3X3X3X3X3X3X3X3X3X3X3X3X3X3X3X3X3X3X3X3X3X3X3X3X3X3X3X3X3X3X3X3X3X",
"3X3X3X3X3X3X3X3X3X3X3X3X3X3X3X3X3X3X3X3X3X3X3X3X3X3X3X3X3X3X3X3X3X3X3X3X3X3X3X3X3X3X3X3X3X3X3X3X3X3X3X3X3X3X3X3X3X3X3X3X3X3X3X3X",
"3X3X3X3X3X3X3X3X3X3X3X3X3X3X3X3X3X3X3X3X3X3X3X3X3X3X3X3X3X3X3X3X3X3X3X3X3X3X3X3X3X3X3X3X3X3X3X3X3X3X3X3X3X3X3X3X3X3X3X3X3X3X3X3X",
"3X3X3X3X3X3X3X3X3X3X3X3X3X3X3X3X3X3X3X3X3X3X3X3X3X3X3X3X3X3X3X3X3X3X3X3X3X3X3X3X3X3X3X3X3X3X3X3X3X3X3X3X3X3X3X3X3X3X3X3X3X3X3X3X",
"3X3X3X3X3X3X3X3X3X3X3X3X3X3X3X3X3X3X3X3X3X3X3X3X3X3X3X3X3X3X3X3X3X3X3X3X3X3X3X3X3X3X3X3X3X3X3X3X3X3X3X3X3X3X3X3X3X3X3X3X3X3X3X3X"
};
