/* XPM */
static char *result[] = {
/* columns rows colors chars-per-pixel */
"64 64 168 2 ",
"   c #000000",
".  c #000008",
"X  c #0D0704",
"o  c #100B06",
"O  c #181717",
"+  c #1A1419",
"@  c #1C1B1C",
"#  c #12181A",
"$  c #2B0813",
"%  c #2C131A",
"&  c #0B1B22",
"*  c #1F1E20",
"=  c #1C2227",
"-  c #1D262A",
";  c #1F3336",
":  c #232325",
">  c #2A2124",
",  c #242629",
"<  c #2A272A",
"1  c #25292C",
"2  c #2A2B2D",
"3  c #34272D",
"4  c #242B30",
"5  c #2C2E31",
"6  c #372C33",
"7  c #2E3135",
"8  c #2E343A",
"9  c #263A3D",
"0  c #2B3A3C",
"q  c #21363C",
"w  c #303135",
"e  c #31363B",
"r  c #33393E",
"t  c #39393E",
"y  c #3C3239",
"u  c #123B41",
"i  c #233D44",
"p  c #2C3D43",
"a  c #363C42",
"s  c #393D43",
"d  c #12474B",
"f  c #004D51",
"g  c #1C4B51",
"h  c #00585A",
"j  c #195559",
"k  c #1C5B5D",
"l  c #3B4147",
"z  c #3D4349",
"x  c #36484E",
"c  c #314B51",
"v  c #255057",
"b  c #225559",
"n  c #305157",
"m  c #3F5159",
"M  c #00605D",
"N  c #005F60",
"B  c #285E63",
"V  c #036D6C",
"C  c #006666",
"Z  c #196266",
"A  c #116C6E",
"S  c #087675",
"D  c #007977",
"F  c #117171",
"G  c #266368",
"H  c #2F6368",
"J  c #356168",
"K  c #3D6F72",
"L  c #297D7F",
"P  c #3A7B7C",
"I  c #41464C",
"U  c #48474F",
"Y  c #45494E",
"T  c #454A51",
"R  c #494E55",
"E  c #504F58",
"W  c #564E57",
"Q  c #4B5057",
"!  c #41555A",
"~  c #4C535B",
"^  c #49585F",
"/  c #53565D",
"(  c #52585F",
")  c #4C5961",
"_  c #415F65",
"`  c #555C64",
"'  c #585E66",
"]  c #48636A",
"[  c #5C636B",
"{  c #5B6C73",
"}  c #526970",
"|  c #44757C",
" . c #5D7178",
".. c #61666E",
"X. c #656B74",
"o. c #696F77",
"O. c #6D6F79",
"+. c #6C737B",
"@. c #72747D",
"#. c #71787F",
"$. c #0F807F",
"%. c #497980",
"&. c #717780",
"*. c #787780",
"=. c #757B84",
"-. c #797D86",
";. c #797F88",
":. c #008987",
">. c #058886",
",. c #00908F",
"<. c #009E9C",
"1. c #079695",
"2. c #1A9694",
"3. c #2B8888",
"4. c #38868A",
"5. c #399FA0",
"6. c #02A6A4",
"7. c #00AEAC",
"8. c #24B1B1",
"9. c #3CB7B7",
"0. c #4D8E95",
"q. c #489199",
"w. c #59949C",
"e. c #7C828B",
"r. c #70828A",
"t. c #778B94",
"y. c #6E939B",
"u. c #71919A",
"i. c #579FA7",
"p. c #7A9FA8",
"a. c #4AA3A8",
"s. c #53A1A8",
"d. c #45ABB1",
"f. c #5CADB5",
"g. c #4CB3B7",
"h. c #58B5BB",
"j. c #62ABB4",
"k. c #66B3BC",
"l. c #3BC0BF",
"z. c #6AB7C1",
"x. c #7CC0C9",
"c. c #80868F",
"v. c #818690",
"b. c #868C96",
"n. c #8D949D",
"m. c #84949E",
"M. c #94959E",
"N. c #9097A0",
"B. c #939AA3",
"V. c #9DA4AD",
"C. c #9FA6B0",
"Z. c #96B6BF",
"A. c #A2A7B1",
"S. c #A5ACB6",
"D. c #A7AFB9",
"F. c #A8AFB9",
"G. c #AAB2BC",
"H. c #B2B5BF",
"J. c #9CBAC4",
"K. c #AFB7C1",
"L. c #B2BAC4",
"P. c #87C8D1",
"I. c #8DD7DF",
"U. c #B9C1CC",
"Y. c #ABECF2",
"T. c #B0EAF2",
"R. c #C1C9D4",
"E. c None",
/* pixels */
"E.E.E.E.E.E.E.E.E.E.E.E.E.E.E.E.E.E.E.E.E.E.E.E.E.E.E.E.E.E.E.T.E.E.E.E.E.E.E.E.E.E.E.E.E.E.E.E.E.E.E.E.E.E.E.E.E.E.E.E.E.E.E.E.",
"E.E.E.E.E.E.E.E.E.E.E.E.E.E.E.E.E.E.E.E.E.E.E.E.E.E.E.E.E.E.E.P.E.E.E.E.E.E.E.E.E.E.E.E.E.E.E.E.E.E.E.E.E.E.E.E.E.E.E.E.E.E.E.E.",
"E.E.E.E.E.E.E.E.E.E.E.E.E.E.E.E.E.E.E.E.E.E.E.E.E.E.E.E.E.E.E.d.E.E.E.E.E.E.E.E.E.E.E.E.E.E.E.E.E.E.E.E.E.E.E.E.E.E.E.E.E.E.E.E.",
"E.E.E.E.E.E.E.E.E.E.E.E.E.E.E.E.E.E.E.E.E.E.E.E.E.E.E.E.E.E.E.6.E.E.E.E.E.E.E.E.E.E.E.E.E.E.E.E.E.E.E.E.E.E.E.E.E.E.E.E.E.E.E.E.",
"E.E.E.E.E.E.E.E.E.E.E.E.E.E.E.E.E.E.E.E.E.E.E.E.E.E.E.E.E.E.E.:.E.E.E.E.E.E.E.E.E.E.E.E.E.E.E.E.E.E.E.E.E.E.E.E.E.E.E.E.E.E.E.E.",
"E.E.E.E.E.E.E.E.E.E.E.E.E.E.E.E.E.E.E.E.E.E.E.E.E.E.E.E.E.E.E.A 6.E.E.E.E.E.E.E.E.E.E.E.E.E.E.E.E.f.k.E.E.E.E.E.E.E.E.E.E.E.E.E.",
"E.E.E.E.E.E.E.E.E.E.E.E.E.E.E.E.E.E.E.E.E.E.E.E.E.E.E.E.E.E.g Z 7.E.E.E.E.E.E.E.E.E.E.E.E.E.E.E.E.x.E.E.E.E.E.E.E.E.E.E.E.E.E.E.",
"E.E.E.E.E.E.E.E.E.E.E.E.E.E.E.E.E.E.E.E.E.E.E.E.E.E.E.E.E.b k j S E.E.E.E.;.b.=.[ [ ` a x E.E.g.Y.E.E.E.E.E.E.E.E.E.E.E.E.E.E.E.",
"E.E.E.E.E.E.E.E.E.E.E.E.k.E.E.E.E.E.E.E.E.E.E.E.E.    # [ z = - : o R =.&.=.X.w w a a 2 i ,.<.>.E.E.E.E.E.E.E.E.E.E.E.E.E.E.E.E.",
"E.E.E.E.E.E.E.E.E.E.E.E.E.z.s.C E.E.E.5 8 1 I [ ` b.V.B...[ [ { w.J @.G.D.G.b.  , 8 a j ,.g.g.D E.E.E.E.E.E.E.E.E.E.E.E.E.E.E.E.",
"E.E.E.E.E.E.E.E.E.E.E.E.E.E.a.2.E.E.K 3 U a z ` ` S.U.L.X.+.e.e.k.p.M.S.S.G.n.~ ` Y i C <.a.0.h E.E.E.E.E.E.E.E.E.E.E.E.E.E.E.E.",
"E.E.E.E.E.E.E.E.E.E.E.E.E.E.E.9.Y.I.q.> { ~ 5 2 Q B.L.D.X.o.;.t.j.J.V.+.&.&.=.e.-./ p B S M i y z E.E.E.E.E.E.E.E.E.E.E.E.E.E.E.",
"E.E.E.E.E.E.E.E.E.E.E.E.E.E.E.1.4.3.F B f.%.% 1 2 ~ +.e.=.*.u.f.8.3.^ ..=.-.e.=.R = R +.k f ] #.a E.E.E.E.E.E.E.E.E.E.E.E.E.E.E.",
"E.E.E.E.E.E.E.E.E.E.E.E.E.E.E.k D V h H J.=.+ 8 - e.A.V.e.O.m.J.P b ) o.#.X.[ [ . =.A.V.&.{ &.@.t E.E.E.E.E.E.E.E.E.E.E.E.E.E.E.",
"E.E.E.E.E.E.E.E.E.E.E.E.E.E.E.2 V N v  .A.+.& a - V.U.V.e.v.S.H./ E e.B.n.n.+./ #.S.U.L.t.*.t.y.a E.E.E.E.E.E.E.E.E.E.E.E.E.E.E.",
"E.E.E.E.E.E.E.E.E.E.E.E.E.E.E.r v j } ;.&.` s z 4 B.A.+.&.V.L.S.o.X.M.K.L.L.V.+.F.L.L.S.c.@.u.j.! E.E.E.E.E.E.E.E.E.E.E.E.E.E.E.",
"E.E.E.E.E.E.E.E.E.E.E.E.E.@ z [ ` +.+.[ l X.=.+.z ` X.[ -.[ ^ o.=.;.=.b.L.L.L.S.R V.S...=.+.` ! =.E.E.E.E.E.E.E.E.E.E.E.E.E.E.E.",
"E.E.E.E.E.E.E.E.E.E.E.E.E.X e ~ [ X.X.` 8 X.v.=.a R [ [ o.T a ` ( &.&.X.n.B.B.n.5 ..+.` X.` r s v.E.E.E.E.E.E.E.E.E.E.E.E.E.E.E.",
"E.E.E.E.E.E.E.E.E.E.E.E.E./ ~ r Q ~ ( [ a X.=.X.w z ~ ~ ~ l R [ q [ +.` X.o.X.` w   8 ) ~ z 8 l o.E.E.E.E.E.E.E.E.E.E.E.E.E.E.E.",
"E.E.E.E.E.E.E.E.E.E.E.E.E.v.&.8 r 8 Y ` r o.o.1 2 a I z a r I ` Z _ ' ' ` [ R + 2 2 5 a r a a r : E.E.E.E.E.E.E.E.E.E.E.E.E.E.E.",
"E.E.E.E.E.E.E.E.E.E.E.E.E.v.#.: a a l l - +.O.@ O [ ;.+.l a 3 r <.D m [ ' [ Q 1 2 2 7 a 5 5 5 5 E.E.E.E.E.E.E.E.E.E.E.E.E.E.E.E.",
"E.E.E.E.E.E.E.E.E.E.E.E.E./ Q < a a r 5 : Y Y 2 R &.e.;.` y B 1.h.4.u Q +.=.[ * 2 2 5 7 2 2 2 2 E.E.E.E.E.E.E.E.E.E.E.E.E.E.E.E.",
"E.E.E.E.E.E.E.E.E.E.E.E.E.E.@ 5 a r 7 2 7 2 , r ~ X.&.+.[ R K 5.i.| c R +.=.[ 1 2 2 2 2 2 5 5 1 E.E.E.E.E.E.E.E.E.E.E.E.E.E.E.E.",
"E.E.E.E.E.E.E.E.E.E.E.E.E.E.E.w r 7 < 2 a a a a r Q ' ` ` ' ' / d ) [ [ ' ' ~ r 5 2 2 2 2 r a 7 E.E.E.E.E.E.E.E.E.E.E.E.E.E.E.E.",
"E.E.E.E.E.E.E.E.E.E.E.E.E.E.E.5 , 2 2 2 2 r a a a l l l l l a 7 4 ~ [ [ [ [ ~ a 5 1 2 2 2 7 R ` w E.E.E.E.E.E.E.E.E.E.E.E.E.E.E.",
"E.E.E.E.E.E.E.E.E.E.E.E.E.E.E.w Q z 5 2 < 5 r a a e 5 7 5 r r : > t I T T ` ) r r 5 2 2 e 8 R [ a E.E.E.E.E.E.E.E.E.E.E.E.E.E.E.",
"E.E.E.E.E.E.E.E.E.E.E.E.E.E.E.e [ Q 8 7 8 2 5 a r 7 1 < 5 r e < ; 1 5 r 8 R R a r 7 2 5 a a I R w E.E.E.E.E.E.E.E.E.E.E.E.E.E.E.",
"E.E.E.E.E.E.E.E.E.E.E.E.E.E.E.e ` T a a a 7 8 a 2 2 2 5 l s e 9 G n s l s a r r 2 2 2 5 a a e : E.E.E.E.E.E.E.E.E.E.E.E.E.E.E.E.",
"E.E.E.E.E.E.E.E.E.E.E.E.E.E.E.w 7 r a a s 7 7 a 2 e a a ` T 9 G j.%.c ' [ z , 5 2 2 w a 5 a s E.E.E.E.E.E.E.E.E.E.E.E.E.E.E.E.E.",
"E.E.E.E.E.E.E.E.E.E.E.E.E.E.E.E.1 5 7 7 8 5 5 5 2 8 z ` [ R 5 b 9.L l [ Q a 5 < 2 2 5 w 2 e 8 E.E.E.E.E.E.E.E.E.E.E.E.E.E.E.E.E.",
"E.E.E.E.E.E.E.E.E.E.E.E.E.E.E.E.2 5 2 2 2 2 2 2 2 7 z ` ^ I 3 9 :.k y ~ a a a 2 5 2 2 2 5 2 E.E.E.E.E.E.E.E.E.E.E.E.E.E.E.E.E.E.",
"E.E.E.E.E.E.E.E.E.E.E.E.E.E.E.E.2 2 2 2 2 2 2 2 2 < 7 r r a r < $ > 5 r r a r 1 2 2 2 2 2 E.E.E.E.E.E.E.E.E.E.E.E.E.E.E.E.E.E.E.",
"E.E.E.E.E.E.E.E.E.E.E.E.E.E.E.E.E.2 w 5 5 5 2 2 2 2 2 5 5 5 7 2 < < 5 5 2 5 2 1 2 w 2 E.E.E.E.E.E.E.E.E.E.E.E.E.E.E.E.E.E.E.E.E.",
"E.E.E.E.E.E.E.E.E.E.E.E.E.E.E.E.E.E.E.E.E.2 5 2 2 0 7 < , 2 , 4 g i < 2 < 7 r r 5 2 2 E.E.E.E.E.E.E.E.E.E.E.E.E.E.E.E.E.E.E.E.E.",
"E.E.E.E.E.E.E.E.E.E.E.E.E.E.E.E.E.E.E.E.E.2 5 2 < r r 7 e 2 < 7 g 9 2 w 5 a a e 2 7 2 E.E.E.E.E.E.E.E.E.E.E.E.E.E.E.E.E.E.E.E.E.",
"E.E.E.E.E.E.E.E.E.E.E.E.E.E.E.E.E.E.E.E.E.5 5 2 2 r l r l 7 < 2 < < w s s a e 2 2 2 7 E.E.E.E.E.E.E.E.E.E.E.E.E.E.E.E.E.E.E.E.E.",
"E.E.E.E.E.E.E.E.E.E.E.E.E.E.E.E.E.E.E.E.E.2 5 5 r a a a a e < 2 2 e a a a a a a 5 5 2 E.E.E.E.E.E.E.E.E.E.E.E.E.E.E.E.E.E.E.E.E.",
"E.E.E.E.E.E.E.E.E.E.E.E.E.E.E.E.E.E.E.E.E.E.5 5 7 a r 7 w 7 2 2 < r a a a a a 7 5 2 E.E.E.E.E.E.E.E.E.E.E.E.E.E.E.E.E.E.E.E.E.E.",
"E.E.E.E.E.E.E.E.E.E.E.E.E.E.E.E.E.E.E.E.E.E.7 2 < 8 e < 2 2 2 5 2 8 r r e r 8 < 2 w E.E.E.E.E.E.E.E.E.E.E.E.E.E.E.E.E.E.E.E.E.E.",
"E.E.E.E.E.E.E.E.E.E.E.E.E.E.E.E.E.E.E.E.E.2 7 2 2 2 2 2 2 2 2 2 2 2 2 < 1 2 2 2 2 7 E.E.E.E.E.E.E.E.E.E.E.E.E.E.E.E.E.E.E.E.E.E.",
"E.E.E.E.E.E.E.E.E.E.E.E.E.E.E.E.E.E.E.E.E.5 5 2 2 2 2 2 2 5 5 E.E.2 7 2 2 2 2 2 2 2 5 E.E.E.E.E.E.E.E.E.E.E.E.E.E.E.E.E.E.E.E.E.",
"E.E.E.E.E.E.E.E.E.E.E.E.E.E.E.E.E.E.E.E.E.2 2 2 2 < 2 1 2 5 5 E.E.5 2 2 e 5 1 2 2 5 5 E.E.E.E.E.E.E.E.E.E.E.E.E.E.E.E.E.E.E.E.E.",
"E.E.E.E.E.E.E.E.E.E.E.E.E.E.E.E.E.E.E.E.E.2 w e 7 e 7 e 5 2 5 E.E.2 7 e l r 7 2 2 7 5 E.E.E.E.E.E.E.E.E.E.E.E.E.E.E.E.E.E.E.E.E.",
"E.E.E.E.E.E.E.E.E.E.E.E.E.E.E.E.E.E.E.E.E.2 7 a a a a t 5 5 E.E.E.< e r r a r 5 2 2 5 E.E.E.E.E.E.E.E.E.E.E.E.E.E.E.E.E.E.E.E.E.",
"E.E.E.E.E.E.E.E.E.E.E.E.E.E.E.E.E.E.E.E.E.E.w w 5 5 w 5 5 7 E.E.E.2 5 5 r l r r 2 2 5 E.E.E.E.E.E.E.E.E.E.E.E.E.E.E.E.E.E.E.E.E.",
"E.E.E.E.E.E.E.E.E.E.E.E.E.E.E.E.E.E.E.E.E.E.E.2 5 5 3 5 5 E.E.E.E.E.2 5 r l l r 2 7 5 E.E.E.E.E.E.E.E.E.E.E.E.E.E.E.E.E.E.E.E.E.",
"E.E.E.E.E.E.E.E.E.E.E.E.E.E.E.E.E.E.E.E.E.E.E.E.E.E.E.E.E.E.E.E.E.E.w w r r r e 7 2 5 E.E.E.E.E.E.E.E.E.E.E.E.E.E.E.E.E.E.E.E.E.",
"E.E.E.E.E.E.E.E.E.E.E.E.E.E.E.E.E.E.E.E.E.E.E.E.E.E.E.E.E.E.E.E.E.E.5 2 2 2 2 2 < 7 E.E.E.E.E.E.E.E.E.E.E.E.E.E.E.E.E.E.E.E.E.E.",
"E.E.E.E.E.E.E.E.E.E.E.E.E.E.E.E.E.E.E.E.E.E.E.E.E.E.E.E.E.E.E.E.E.E.E.E.E.E.E.E.E.E.E.E.E.E.E.E.E.E.E.E.E.E.E.E.E.E.E.E.E.E.E.E.",
"E.E.E.E.E.E.E.E.E.E.E.E.E.E.E.E.E.E.E.E.E.E.E.E.E.E.E.E.E.E.E.E.E.E.E.E.E.E.E.E.E.E.E.E.E.E.E.E.E.E.E.E.E.E.E.E.E.E.E.E.E.E.E.E.",
"E.E.E.E.E.E.E.E.E.E.E.E.E.E.E.E.E.E.E.E.E.E.E.E.E.E.E.E.E.E.E.E.E.E.E.E.E.E.E.E.E.E.E.E.E.E.E.E.E.E.E.E.E.E.E.E.E.E.E.E.E.E.E.E.",
"E.E.E.E.E.E.E.E.E.E.E.E.E.E.E.E.E.E.E.E.E.E.E.E.E.E.E.E.E.E.E.E.E.E.E.E.E.E.E.E.E.E.E.E.E.E.E.E.E.E.E.E.E.E.E.E.E.E.E.E.E.E.E.E.",
"E.E.E.E.E.E.E.E.E.E.E.E.E.E.E.E.E.E.E.E.E.E.E.E.E.E.E.E.E.E.E.E.E.E.E.E.E.E.E.E.E.E.E.E.E.E.E.E.E.E.E.E.E.E.E.E.E.E.E.E.E.E.E.E.",
"E.E.E.E.E.E.E.E.E.E.E.E.E.E.E.E.E.E.E.E.E.E.E.E.E.E.E.E.E.E.E.E.E.E.E.E.E.E.E.E.E.E.E.E.E.E.E.E.E.E.E.E.E.E.E.E.E.E.E.E.E.E.E.E.",
"E.E.E.E.E.E.E.E.E.E.E.E.E.E.E.E.E.E.E.E.E.E.E.E.E.E.E.E.E.E.E.E.E.E.E.E.E.E.E.E.E.E.E.E.E.E.E.E.E.E.E.E.E.E.E.E.E.E.E.E.E.E.E.E.",
"E.E.E.E.E.E.E.E.E.E.E.E.E.E.E.E.E.E.E.E.E.E.E.E.E.E.E.E.E.E.E.E.E.E.E.E.E.E.E.E.E.E.E.E.E.E.E.E.E.E.E.E.E.E.E.E.E.E.E.E.E.E.E.E.",
"E.E.E.E.E.E.E.E.E.E.E.E.E.E.E.E.E.E.E.E.E.E.E.E.E.E.E.E.E.E.E.E.E.E.E.E.E.E.E.E.E.E.E.E.E.E.E.E.E.E.E.E.E.E.E.E.E.E.E.E.E.E.E.E.",
"E.E.E.E.E.E.E.E.E.E.E.E.E.E.E.E.E.E.E.E.E.E.E.E.E.E.E.E.E.E.E.E.E.E.E.E.E.E.E.E.E.E.E.E.E.E.E.E.E.E.E.E.E.E.E.E.E.E.E.E.E.E.E.E.",
"E.E.E.E.E.E.E.E.E.E.E.E.E.E.E.E.E.E.E.E.E.E.E.E.E.E.E.E.E.E.E.E.E.E.E.E.E.E.E.E.E.E.E.E.E.E.E.E.E.E.E.E.E.E.E.E.E.E.E.E.E.E.E.E.",
"E.E.E.E.E.E.E.E.E.E.E.E.E.E.E.E.E.E.E.E.E.E.E.E.E.E.E.E.E.E.E.E.E.E.E.E.E.E.E.E.E.E.E.E.E.E.E.E.E.E.E.E.E.E.E.E.E.E.E.E.E.E.E.E.",
"E.E.E.E.E.E.E.E.E.E.E.E.E.E.E.E.E.E.E.E.E.E.E.E.E.E.E.E.E.E.E.E.E.E.E.E.E.E.E.E.E.E.E.E.E.E.E.E.E.E.E.E.E.E.E.E.E.E.E.E.E.E.E.E.",
"E.E.E.E.E.E.E.E.E.E.E.E.E.E.E.E.E.E.E.E.E.E.E.E.E.E.E.E.E.E.E.E.E.E.E.E.E.E.E.E.E.E.E.E.E.E.E.E.E.E.E.E.E.E.E.E.E.E.E.E.E.E.E.E.",
"E.E.E.E.E.E.E.E.E.E.E.E.E.E.E.E.E.E.E.E.E.E.E.E.E.E.E.E.E.E.E.E.E.E.E.E.E.E.E.E.E.E.E.E.E.E.E.E.E.E.E.E.E.E.E.E.E.E.E.E.E.E.E.E.",
"E.E.E.E.E.E.E.E.E.E.E.E.E.E.E.E.E.E.E.E.E.E.E.E.E.E.E.E.E.E.E.E.E.E.E.E.E.E.E.E.E.E.E.E.E.E.E.E.E.E.E.E.E.E.E.E.E.E.E.E.E.E.E.E."
};
