/* XPM */
static char *result[] = {
/* columns rows colors chars-per-pixel */
"64 64 174 2 ",
"   c #000000",
".  c #0E0B0A",
"X  c #190200",
"o  c #110D0D",
"O  c #000013",
"+  c #0B161E",
"@  c #1D1D1D",
"#  c #1E1616",
"$  c #2A0000",
"%  c #220E0F",
"&  c #2A0D15",
"*  c #271A1D",
"=  c #1F1D22",
"-  c #2E1820",
";  c #002622",
":  c #002822",
">  c #00262B",
",  c #152228",
"<  c #1F2D34",
"1  c #043E3D",
"2  c #003534",
"3  c #193C3C",
"4  c #1B3235",
"5  c #242426",
"6  c #2B2225",
"7  c #24252A",
"8  c #2E272C",
"9  c #21292F",
"0  c #2B2B2D",
"q  c #262D33",
"w  c #2C2E31",
"e  c #362B35",
"r  c #2F3135",
"t  c #223739",
"y  c #2C3539",
"u  c #303235",
"i  c #31353A",
"p  c #34393E",
"a  c #39353B",
"s  c #2D3D42",
"d  c #363C42",
"f  c #3A3F44",
"g  c #453D46",
"h  c #004649",
"j  c #1D4549",
"k  c #004D50",
"l  c #005656",
"z  c #08575B",
"x  c #005B5B",
"c  c #195357",
"v  c #145459",
"b  c #19565B",
"n  c #25454A",
"m  c #244044",
"M  c #394147",
"N  c #3D434B",
"B  c #34454A",
"V  c #284950",
"C  c #2D545A",
"Z  c #22565C",
"A  c #345459",
"S  c #00635A",
"D  c #005E61",
"F  c #006062",
"G  c #176366",
"H  c #007D7B",
"J  c #007474",
"K  c #276366",
"L  c #3D656B",
"P  c #267375",
"I  c #3A7B7E",
"U  c #41454B",
"Y  c #45494E",
"T  c #484A4F",
"R  c #454B52",
"E  c #494C52",
"W  c #4B5057",
"Q  c #4C525A",
"!  c #435A5E",
"~  c #51555B",
"^  c #58565F",
"/  c #53585F",
"(  c #445C63",
")  c #4D5D64",
"_  c #545B62",
"`  c #5A5D65",
"'  c #565660",
"]  c #625F69",
"[  c #4D666D",
"{  c #56646C",
"}  c #5B626B",
"|  c #58686F",
" . c #446E74",
".. c #4D6970",
"X. c #5A6B72",
"o. c #467D7F",
"O. c #56757C",
"+. c #63646D",
"@. c #64686F",
"#. c #656B73",
"$. c #686E76",
"%. c #6B6F78",
"&. c #6C727A",
"*. c #66747C",
"=. c #72757E",
"-. c #73787F",
";. c #00827E",
":. c #4B7B82",
">. c #667B83",
",. c #747A83",
"<. c #787E87",
"1. c #7C7F89",
"2. c #048183",
"3. c #009E9C",
"4. c #159493",
"5. c #2E8A89",
"6. c #348C8B",
"7. c #388C8C",
"8. c #38989B",
"9. c #34A4A4",
"0. c #488284",
"q. c #588389",
"w. c #59999C",
"e. c #68848A",
"r. c #758289",
"t. c #7C838B",
"y. c #658B92",
"u. c #7B8991",
"i. c #7F8F98",
"p. c #6B9A9E",
"a. c #729196",
"s. c #579DA4",
"d. c #759BA0",
"f. c #6BABAD",
"g. c #77A9AF",
"h. c #72A3A7",
"j. c #62AEB7",
"k. c #6CB1B4",
"l. c #70B9C2",
"z. c #78C6D0",
"x. c #81848D",
"c. c #808790",
"v. c #838A93",
"b. c #888E97",
"n. c #888E98",
"m. c #8B929B",
"M. c #8C9BA3",
"N. c #9197A1",
"B. c #959CA5",
"V. c #999FA8",
"C. c #96A4AC",
"Z. c #9DA4AE",
"A. c #89AEB5",
"S. c #98ACB4",
"D. c #A1A7B1",
"F. c #A5ABB5",
"G. c #A6AEB8",
"H. c #A3B1B9",
"J. c #ACB3BD",
"K. c #B2B4BF",
"L. c #AFB7C0",
"P. c #ADB9C2",
"I. c #B0B7C1",
"U. c #B3BBC5",
"Y. c #B6BFC9",
"T. c #9DCCD3",
"R. c #90DBDF",
"E. c #B9C1CB",
"W. c #AFCCD5",
"Q. c #93DDE1",
"!. c #A6E2E9",
"~. c #A9E6ED",
"^. c #B1EFF7",
"/. c None",
/* pixels */
"/./././././././././././././././././././././././././././././././././././././././././././././././././././././././././././././././.",
"/./././././././././././././././././././././././././././././././././././././././././././././././././././././././././././././././.",
"/./././././././././././././././././././././././././././././././././././././././././././././././././././././././././././././././.",
"/./././././././././././././././././././././././././././././././././././././././././././././././././././././././././././././././.",
"/./././././././././././././././././././././././././././././././././././././././././././././././././././././././././././././././.",
"/./././././././././././././././././././././././././././././././././././././././././././././././././././././././././././././././.",
"/./././././././././././././././././././././././././././././././././././././././././././././././././././././././././././././././.",
"/./././././././././././././././././././././././././././././././././././././././././././././././././././././././././././././././.",
"/././././././././././././././././././././././././././././././././././././././././././././././././././././././././././././././.H ",
"/././././././././././././././././././././././././././././././././././././././././././././././././././././././././././././././.;.",
"/././././././././././././././././././././././././././././././././././././././././././././././././././././././././././././././.8.",
"/././././././././././././././././././././././././././././././././././././././././././././././././././././././././././././././.z.",
"/././././././././././././././././././././././././././././././././././././././././././././././././././././././././././././.S k.^.",
"/././././././././././././././././././././././././././././././././././././././././././././././././././././././././././.. = A q.d.",
"/./././././././././././././././././././././././././././././././././././././././././././././././././././././././././.f ' ' @.` e ",
"/./././././././././././././././././././././././././././././././././././././././././././././././././././././././.T p ` v.c.x.c.c.",
"/././././././././././././././././././././././././././././././././././././././././././././././././././././././.} J.b.c.J.J.J.J.J.",
"/./././././././././././././././././././././././././././././././././././././././././././././././././././././.#.D.p.C.J.U.Y.U.Y.Y.",
"/././././././././././././././././././././././././././././././././././././././././././././././././././././.@.F.U.o.a.H.U.U.G.Z.Z.",
"/./././././././././././././././././././././././././././././././././././././././././././././././././././.  B.Y.G.x.I p.P.J.b.&.<.",
"/./././././././././././././././././././././././././././././././././././././././././././././././././././.o ` *.#.^ T.Q.9.r.+.x.U.",
"/././././././././././././././././././././././././././././././././././././././././././././././././././.+ ` } W M 7 e.w.4.T.y.,.E.",
"/./././././././././././././././././././././././././././././././././././././././././././././././././.} v.N.t.Q p ,.g : 6.R.w.| Z.",
"/././././././././././././././././././././././././././././././././././././././././././././././././.  x.E.Y.N.` / L.i.F H 3.J ) t.",
"/././././././././././././././././././././././././././././././././././././././././././././././././.  1.U.Y.,.d <.J.U.M.k D h >.I.",
"/./././././././././././././././././././././././././././././././././././././././././././././././.c x a.K.B.,.t.J.Y.F.v.X.' v.G.U.",
"/./././././././././././././././././././././././././././././././././././././././././././././././.c x h.W.e.X.t.Z.B.t.,.t.S.G.F.D.",
"/././././././././././././././././././././././././././././././././././././././././././././././././.O g.!.5.x A _ q } =.u.~.A.+.&.",
"/././././././././././././././././././././././././././././././././././././././././././././././././._ ,.u.z k { <.} N 8 ! l.q.$ r ",
"/././././././././././././././././././././././././././././././././././././././././././././././././.p ` r.C.O.C #.W m.v.4 2.v g #.",
"/././././././././././././././././././././././././././././././././././././././././././././././././.  E <.G.r.V ` r.V.b.K f.0.! &.",
"/././././././././././././././././././././././././././././././././././././././././././././././././.= U } &.#.` =.U.,.: 7.!.k.l e ",
"/././././././././././././././././././././././././././././././././././././././././././././././././.5 N } } / t.P.E.,.> G 7.P j i ",
"/././././././././././././././././././././././././././././././././././././././././././././././././.. ~ -.{ d t.U.B.&.Y n x l ( %.",
"/././././././././././././././././././././././././././././././././././././././././././././././././.X W *.} r r.P.,./ N q n C ..,.",
"/././././././././././././././././././././././././././././././././././././././././././././././././.0 j v } i <.J.#.R W W d Q ` _ ",
"/./././././././././././././././././././././././././././././././././././././././././././././././.b b v Z { i t.K.R n.P.F.W q f f ",
"/././././././././././././././././././././././././././././././././././././././././././././././././.n m m R p / ,.#.G.U.N.&.` R d ",
"/././././././././././././././././././././././././././././././././././././././././././././././././.6 8 8 i d q < } n.n.#.,.$.Q i ",
"/././././././././././././././././././././././././././././././././././././././././././././././././.0 r 0 p M d p 5   i _ _ _ W 7 ",
"/././././././././././././././././././././././././././././././././././././././././././././././././.0 r 0 0 p p 0 0 i p r u u i d ",
"/././././././././././././././././././././././././././././././././././././././././././././././././.0 r 0 0 p p 7         . 5 0 u ",
"/././././././././././././././././././././././././././././././././././././././././././././././././.0 r 0 0 r 0 r &.-.,.-.^ p @ . ",
"/././././././././././././././././././././././././././././././././././././././././././././././././.w 0 0 0 0 @ ~ J.E.Y.J.v.Q r T ",
"/./././././././././././././././././././././././././././././././././././././././././././././././././.0 r p 7 T t.J.E.F.t.t.` r.J.",
"/./././././././././././././././././././././././././././././././././././././././././././././././././.w w i   E b.U.F.t.+.$./ v.Y.",
"/././././././././././././././././././././././././././././././././././././././././././././././././././.0 , T ` *.M.t.} _ Q ' n.Y.",
"/./././././././././././././././././././././././././././././././././././././././././././././././././././.- $.$.p , R } _ s } m.J.",
"/./././././././././././././././././././././././././././././././././././././././././././././././././././.0 0 ` -.3 4 W { Z [ { L ",
"/./././././././././././././././././././././././././././././././././././././././././././././././././././.i % M O.s. .a N 2 Q ! 1 ",
"/././././././././././././././././././././././././././././././././././././././././././././././././././././.8 4 z s. .& M o...Y 3 ",
"/././././././././././././././././././././././././././././././././././././././././././././././././././././.0 t 1 # * * B j.:.- p ",
"/././././././././././././././././././././././././././././././././././././././././././././././././././././.0 u q p d p B K A u w ",
"/./././././././././././././././././././././././././././././././././././././././././././././././././././././.0 w i i i r t y e 0 ",
"/././././././././././././././././././././././././././././././././././././././././././././././././././././././.w 0 0 0 0 6 8 0 q ",
"/./././././././././././././././././././././././././././././././././././././././././././././././././././././././././././././././.",
"/./././././././././././././././././././././././././././././././././././././././././././././././././././././././././././././././.",
"/./././././././././././././././././././././././././././././././././././././././././././././././././././././././././././././././.",
"/./././././././././././././././././././././././././././././././././././././././././././././././././././././././././././././././.",
"/./././././././././././././././././././././././././././././././././././././././././././././././././././././././././././././././.",
"/./././././././././././././././././././././././././././././././././././././././././././././././././././././././././././././././.",
"/./././././././././././././././././././././././././././././././././././././././././././././././././././././././././././././././.",
"/./././././././././././././././././././././././././././././././././././././././././././././././././././././././././././././././.",
"/./././././././././././././././././././././././././././././././././././././././././././././././././././././././././././././././."
};
