/* XPM */
static char *result[] = {
/* columns rows colors chars-per-pixel */
"64 63 144 2 ",
"   c #010101",
".  c #0C0500",
"X  c #070807",
"o  c #0A0807",
"O  c #01000A",
"+  c #010B0B",
"@  c #0A0A0A",
"#  c #100700",
"$  c #140A01",
"%  c #1A0D02",
"&  c #120808",
"*  c #0F100E",
"=  c #1D1502",
"-  c #19130C",
";  c #000014",
":  c #00011B",
">  c #0A0B1A",
",  c #130F11",
"<  c #0E1212",
"1  c #131313",
"2  c #1C1612",
"3  c #181816",
"4  c #151019",
"5  c #1E101C",
"6  c #161918",
"7  c #1A1C1C",
"8  c #310A0A",
"9  c #231402",
"0  c #221A01",
"q  c #2C1B05",
"w  c #221513",
"e  c #2A1B15",
"r  c #241519",
"t  c #272001",
"y  c #2E2203",
"u  c #2E200A",
"i  c #362701",
"p  c #312208",
"a  c #342A0E",
"s  c #3E300F",
"d  c #2E2016",
"f  c #322414",
"g  c #3A2D14",
"h  c #37291F",
"j  c #3A2E19",
"k  c #3F3112",
"l  c #000224",
"z  c #0B0C22",
"x  c #00032B",
"c  c #0E082A",
"v  c #140E24",
"b  c #0F1020",
"n  c #0F112E",
"m  c #1A1A21",
"M  c #1D182B",
"N  c #000533",
"B  c #0A0E33",
"V  c #00073A",
"C  c #00093D",
"Z  c #0A0F3E",
"A  c #151230",
"S  c #191B33",
"D  c #17153D",
"F  c #1A173D",
"G  c #1F1C3C",
"H  c #241B24",
"J  c #201628",
"K  c #1E2121",
"L  c #1F212F",
"P  c #222222",
"I  c #262826",
"U  c #2E2921",
"Y  c #23232B",
"T  c #28242B",
"R  c #2C2D2B",
"E  c #332E2B",
"W  c #3D3221",
"Q  c #212232",
"!  c #282937",
"~  c #2C3332",
"^  c #333534",
"/  c #353937",
"(  c #3B3A36",
")  c #363B3A",
"_  c #3A3C3B",
"`  c #403302",
"'  c #40320E",
"]  c #413616",
"[  c #453B16",
"{  c #41351C",
"}  c #453B22",
"|  c #3C413E",
" . c #010B44",
".. c #01104A",
"X. c #021551",
"o. c #021855",
"O. c #021B5A",
"+. c #262944",
"@. c #3E3E41",
"#. c #3D4340",
"$. c #424543",
"%. c #454945",
"&. c #4D4B44",
"*. c #474748",
"=. c #474C48",
"-. c #4A4E4B",
";. c #4D524D",
":. c #51544E",
">. c #4E5450",
",. c #515651",
"<. c #555A55",
"1. c #595C56",
"2. c #575B58",
"3. c #5A5E59",
"4. c #5D625C",
"5. c #616257",
"6. c #61655E",
"7. c #64685F",
"8. c #626661",
"9. c #656A63",
"0. c #6A6D65",
"q. c #696E68",
"w. c #6D7166",
"e. c #6E726A",
"r. c #72756C",
"t. c #75796E",
"y. c #797B6F",
"u. c #727770",
"i. c #767A71",
"p. c #7A7D73",
"a. c #7D8176",
"s. c #7D8279",
"d. c #808276",
"f. c #81857B",
"g. c #85897E",
"h. c #868B82",
"j. c #898E84",
"k. c #8C9186",
"l. c #8C9289",
"z. c #92978C",
"x. c #92988E",
"c. c #969B92",
"v. c #999E96",
"b. c None",
/* pixels */
"b.b.b.b.b.b.b.b.b.b.b.b.b.b.b.b.b.b.b.b.b.b.b.b.b.b.b.b.b.b.b.b.b.b.b.b.b.b.b.b.b.b.b.b.b.b.b.b.b.b.b.b.b.b.b.b.b.b.b.b.b.b.b.b.",
"b.b.b.b.b.b.b.b.b.b.b.b.b.b.b.b.b.b.b.b.b.b.b.b.b.b.b.,.l.j.j.h.h.l.j.j.l.q.b.b.b.b.b.b.b.b.b.b.b.b.b.b.b.b.b.b.b.b.b.b.b.b.b.b.",
"b.b.b.b.b.b.b.b.b.b.b.b.b.b.b.b.b.b.b.b.b.b.b.b.b.b.b.j.z.j.k.k.j.j.h.h.f.g.4.b.b.b.b.b.b.b.b.b.b.b.b.b.b.b.b.b.b.b.b.b.b.b.b.b.",
"b.b.b.b.b.b.b.b.b.b.b.b.b.b.b.b.b.b.b.b.b.b.b.b.b.b.~ k.p.p.a.y.p.s.e.8.0.q.>.b.b.b.b.b.b.b.b.b.b.b.b.b.b.b.b.b.b.b.b.b.b.b.b.b.",
"b.b.b.b.b.b.b.b.b.b.b.b.b.b.b.b.b.b.b.b.b.b.b.b.b.b.~ i.a.a.i.a.p.f.q.6.e.e.#.b.b.b.b.b.b.b.b.b.b.b.b.b.b.b.b.b.b.b.b.b.b.b.b.b.",
"b.b.b.b.b.b.b.b.b.b.b.b.b.b.b.b.b.b.b.b.b.b.b.b.b.b.b.4.s.i.y.a.p.f.r.9.q.8.b.b.b.b.b.b.b.b.b.b.b.b.b.b.b.b.b.b.b.b.b.b.b.b.b.b.",
"b.b.b.b.b.b.b.b.b.b.b.b.b.b.b.b.b.b.b.b.b.b.b.b.b.b.b.,.s.u.a.y.i.f.r.e.e.4.~ b.b.b.b.b.b.b.b.b.b.b.b.b.b.b.b.b.b.b.b.b.b.b.b.b.",
"b.b.b.b.b.b.b.b.b.b.b.b.b.b.b.b.b.b.b.b.b.b.b.b.b.;.;.%.y.t.a.t.p.p.r.t.u.1.>.3.b.b.b.b.b.b.b.b.b.b.b.b.b.b.b.b.b.b.b.b.b.b.b.b.",
"b.b.b.b.b.b.b.b.b.b.b.b.b.b.b.b.>.4.b.b.b.b.b.4.a.l.s.=.6.i.t.9.r.p.p.p.u.=.h.v.h.e.>.b.b.b.b.w.$.b.b.b.b.b.b.b.b.b.b.b.b.b.b.b.",
"b.b.b.b.b.b.b.b.b.b.b.b.b.b.b.4.s.s.:.b.b.4.s.h.s.t.u.=.,.i.e.e.i.r.i.f.e.,.h.u.e.h.j.w.b.b.r.z.j.>.b.b.b.b.b.b.b.b.b.b.b.b.b.b.",
"b.b.b.b.b.b.b.b.b.b.b.b.b.b.e.j.s.s.e.<.4.c.g.e.e.q.t.<.;.g.s.p.f.p.p.p.e.8.s.u.w.7.t.k.<.w.z.g.j.j.=.b.b.b.b.b.b.b.b.b.b.b.b.b.",
"b.b.b.b.b.b.b.b.b.b.b.b.b.4.j.i.e.u.a.u.9.s.a.a.s.a.u.0.<.a.a.f.s.f.p.i.9.e.s.t.t.e.e.w.:.z.g.g.d.d.a.| b.b.b.b.b.b.b.b.b.b.b.b.",
"b.b.b.b.b.b.b.b.b.b.b.b.;.j.u.t.a.u.u.a.4.<.s.a.u.u.u.4.-.8.0.e.q.e.e.q.:.u.s.y.a.e.y.&.t.k.g.g.g.d.f.p.b.b.b.b.b.b.b.b.b.b.b.b.",
"b.b.b.b.b.b.b.b.b.b.b.b.%.t.i.e.u.a.a.r.s.,.q.i.s.8.R 7 @ P K 7 7 7 7 P 1 I _ e.e.a.5.4.g.a.g.d.f.j.j.8.b.b.b.b.b.b.b.b.b.b.b.b.",
"b.b.b.b.b.b.b.b.b.b.b.b.b.b.9.s.a.e.e.e.s.a.;.4.R                 O             ^ 4.;.a.d.d.a.a.a.g.1.b.b.b.b.b.b.b.b.b.b.b.b.b.",
"b.b.b.b.b.b.b.b.b.b.b.b.b.b.%.6.a.u.u.a.a.0.I       X                     X         $.a.a.a.f.g.a.<.<.b.b.b.b.b.b.b.b.b.b.b.b.b.",
"b.b.b.b.b.b.b.b.b.b.b.b.b.4.h.;.q.a.e.i.9.7   *                                   @ . ( 6.w.p.a.%.a.f.%.b.b.b.b.b.b.b.b.b.b.b.b.",
"b.b.b.b.b.b.b.b.b.b.b.b.,.l.g.a.;.e.e.2.K   X                 . .                   o & R 4.6.$.i.f.f.w./ b.b.b.b.b.b.b.b.b.b.b.",
"b.b.b.b.b.b.b.b.b.b.b.b.s.g.e.a.4.#.,.K                     $ % % $                 . % % I | f.j.s.g.a.4.b.b.b.b.b.b.b.b.b.b.b.",
"b.b.b.b.b.b.b.b.b.b.b.4.s.y.y.s.g.4.                      . % 9 9 % $                 $ =   %.p.i.g.g.s.y.;.b.b.b.b.b.b.b.b.b.b.",
"b.b.b.b.b.b.b.b.b.b.b.2.y.y.a.a.y./                       # 9 q q 9 % .             . 9 y -   -.a.f.a.a.r.=.b.b.b.b.b.b.b.b.b.b.",
"b.b.b.b.b.b.b.b.b.b.q.4.,.0.r.f.8.  @                   . # 9 q q 9 %               . q k u % 7 w.d.r.7.<.4.b.b.b.b.b.b.b.b.b.b.",
"b.b.b.b.b.b.b.b.b.b.a.g.e.0.9.p./                         . 9 q q 9 % $               - U R E 7 | 9.4.q.r.r.;.b.b.b.b.b.b.b.b.b.",
"b.b.b.b.b.b.b.b.b.b.s.r.i.g.y.:.                O : ; : : v p p q u - ; : x x l : : l : n A Q R I ;.a.a.t.t.9.b.b.b.b.b.b.b.b.b.",
"b.b.b.b.b.b.b.b.b.0.d.y.r.w.p.%.  @           O : x x x x N H ' ' h c x N  . .C C x l x N  .Z ! ^ 4.y.w.y.i.y.b.b.b.b.b.b.b.b.b.",
"b.b.b.b.b.b.b.b.b.<.d.r.r.r.w.|   X         O : N C  .C N C Z G G D  . . . .o.o.X.C x l N  . .+.%.2.r.r.e.r.p.b.b.b.b.b.b.b.b.b.",
"b.b.b.b.b.b.b.b.b.;.t.w.w.r.4.6             O x  .o.X. . ...o.O.X.o.o.X. ...O.o... .V x x C  .S ( -.9.r.w.y.y._ b.b.b.b.b.b.b.b.",
"b.b.b.b.b.b.b.b.b.0.w.0.9.9./               O x ..O.o. ...o.O.O.O.O.O.O.X. ...C V  . .C x l N z ( >.=.6.8.1.6.4.b.b.b.b.b.b.b.b.",
"b.b.b.b.b.b.,.e.j.c.c.c.v.z./               O x ..O... .C ......O.O....... .N l x V  . . .N : T &.^ :.l.l.g.l.c.z.a.e.) b.b.b.b.",
"b.b.b.b.b.b.8.i.e.e.1.6.e.r./             O : x  .o. .N N  ... ..... . . .N x : l x V V  .N v ^ @.P -.r.y.i.f.p.0.p.8.) b.b.b.b.",
"b.b.b.b.b.b.u.j.r.s.i.q.w.r./   X         O l N C o. .N N C  . . . . .N N x x : O ; l l l 4 m ! _ , 3.h.i.a.g.a.y.p.9.) b.b.b.b.",
"b.b.b.b.b.b.i.k.e.s.j.g.r.r.(             ; x N  ...C x N x N C  . .V N C N x :     O X & 2 E ( R   4.h.0.p.a.a.p.d.8.) b.b.b.b.",
"b.b.b.b.b.b.9.s.i.p.p.f.p.w./         @ m x  . .X. .N l N N V N V N V  . .N x ;         % & P ^ 1   8.l.r.p.p.p.p.d.8.) b.b.b.b.",
"b.b.b.b.b.b.4.i.t.i.i.i.p.r./       < Y B  ...o.o.C l x N  . .V N N  . . .V x x ;       $ % @ 1 @   8.l.t.i.p.p.r.r.4.) b.b.b.b.",
"b.b.b.b.b.b.2.r.6.9.9.0.i.e./       @ m N ..o.O.o.C l N N  . . .N N  . . .C N x :       $ $         3.j.t.q.q.r.9.9.<._ b.b.b.b.",
"b.b.b.b.b.b.,.9.6.2.,.,.,.3.^       P @.Q ..O.O.o.C l V  . . . .x V  . . . .N x ;       $ %         =.4.:.:.<.3.2.<.,.@.b.b.b.b.",
"b.b.b.b.b.b.#._ ( %.4.e.9.<./       1 R L ..O.O. .N l N .. . .N N N  . . . .N x : ;     $ $       X _ 1.u.i.3.#._ #.#.b.b.b.b.b.",
"b.b.b.b.b.b.b.b.b.9.z.v.z.a./   X   @ ^ @.C .... .x l V  . . .N N V .. . . .x x : :     . $         <.l.l.l.i.-.b.b.b.b.b.b.b.b.",
"b.b.b.b.b.b.b.b.b.8.j.j.p.y.)         R =.T L M N l x N  . . . .x N  . . . .N x l : ;           @   8.l.9.q.q.%.b.b.b.b.b.b.b.b.",
"b.b.b.b.b.b.b.b.b.<.p.j.p.y.(         7 ^ 7 m > x l N V  . . . .C V  . . .C N x : : ;           @   9.l.t.p.i.-.b.b.b.b.b.b.b.b.",
"b.b.b.b.b.b.b.b.b.<.r.p.d.p./           7 R @ ; x l N N  . . . . . . . . . . .x l l : ;         X   4.h.e.e.u.-.b.b.b.b.b.b.b.b.",
"b.b.b.b.b.b.b.b.b.<.r.p.d.r./           @ 1 O : : l N N .. . . . . . . . . . .x l x : :             2.s.6.8.0.=.b.b.b.b.b.b.b.b.",
"b.b.b.b.b.b.b.b.b.3.t.y.w.0.(   X           O l x l N  . . . . . . . . . . . .x x x x :             ,.p.9.4.8.%.b.b.b.b.b.b.b.b.",
"b.b.b.b.b.b.b.b.b.4.r.q.7.9./             O : x N x V  . . . ... . . . . . . .N N  .C l ;         O -.r.r.8.e.-.b.b.b.b.b.b.b.b.",
"b.b.b.b.b.b.b.b.b.~ #.#._ R ^             O l N C N N  . . . . .N V  . . . .C N  . . .V x ;         $.=.$.$.=.^ b.b.b.b.b.b.b.b.",
"b.b.b.b.b.b.2.p.j.k.j.j.s.s.)           O : N  . .x N  ... . .N N N C  . . . .V  . . .N c 9         -.s.h.f.f.u.p.e.q.#.b.b.b.b.",
"b.b.b.b.b.b.8.j.g.j.j.k.j.s.)           O x  . .C N V  . . .N x M ] E  . . . .N  . .A f w .     @   8.z.p.d.a.p.h.f.8.) b.b.b.b.",
"b.b.b.b.b.b.9.f.w.t.p.y.i.0./           . 5 V  . .N N  . .N N M g q a { E ..G j W U f q #           3.p.:.9.r.f.f.d.8.) b.b.b.b.",
"b.b.b.b.b.b.q.s.i.s.f.y.r.w./             % r M N N N N A g [ k 0 9 9 y ' } { ` 0 = % $         @   8.j.6.0.p.j.g.y.9.#.b.b.b.b.",
"b.b.b.b.b.b.u.j.t.g.d.t.w.e./               $ % e g ] [ k i 0 = . % $ . = t 0 =                 @   9.z.w.p.d.y.y.d.9._ b.b.b.b.",
"b.b.b.b.b.b.e.j.y.a.a.y.e.e./                   % = 0 q 0 $                                     X   4.l.a.d.d.a.w.y.9.$.b.b.b.b.",
"b.b.b.b.b.b.8.f.t.a.f.r.e.9.^                                                                   X   3.h.a.y.p.h.p.r.6._ b.b.b.b.",
"b.b.b.b.b.b.3.p.y.i.e.9.9.8./                                                 O         O       O   =.r.p.p.e.p.u.0.>.) b.b.b.b.",
"b.b.b.b.b.b.-.2.3.;.$.-.-.;.^                               O     @ @   X X   X     X @ X   o     @ _ | $.$.-.;.-.) %.| b.b.b.b.",
"b.b.b.b.b.b.b.b.b.:.s.j.p.r./                             @ @ @ @ @ @ @ @ @ @ @ @ @ @ X @ X X @ @   =.i.l.l.u.%.b.b.b.b.b.b.b.b.",
"b.b.b.b.b.b.b.b.b.3.r.i.a.p./                       @ @ @ @ @ @ @ @ @ @ X X X X X   X   X X   X 1   3.k.e.i.i.-.b.b.b.b.b.b.b.b.",
"b.b.b.b.b.b.b.b.b.2.e.i.i.y._               @ X @ @ @ @ @ X @ X X   X X   X   X   X   @   X   @ 1   9.l.w.t.r.*.b.b.b.b.b.b.b.b.",
"b.b.b.b.b.b.b.b.b.4.a.i.e.y._   X       @ @ @ @ @ @ @ X X X X X @ @ @   X   X b.b.b.b.b.b.b.b.@ 3   8.j.e.p.i.=.b.b.b.b.b.b.b.b.",
"b.b.b.b.b.b.b.b.b.6.f.r.e.p./       @ @ @ @ @ X @ @ X X X X X X   @ b.b.b.b.b.b.b.b.b.b.b.b.b.b.b.b.3.f.e.e.p.,.b.b.b.b.b.b.b.b.",
"b.b.b.b.b.b.b.b.b.4.a.r.e.w./   @ @ @ @ @ @ X @ @ @ @   X b.b.b.b.b.b.b.b.b.b.b.b.b.b.b.b.b.b.b.b.b.,.i.r.p.f.;.b.b.b.b.b.b.b.b.",
"b.b.b.b.b.b.b.b.b.4.i.9.9.6./   @ & < @ X @ @ @ @ @ X b.b.b.b.b.b.b.b.b.b.b.b.b.b.b.b.b.b.b.b.b.b.b.;.y.p.s.h.>.b.b.b.b.b.b.b.b.",
"b.b.b.b.b.b.b.b.b.<.9.6.6.3._   1 1 @ + @ @ @ < , b.b.b.b.b.b.b.b.b.b.b.b.b.b.b.b.b.b.b.b.b.b.b.b.b.=.e.e.e.i.=.b.b.b.b.b.b.b.b.",
"b.b.b.b.b.b.b.b.b.#.#.$.| ) ^ 1 1 1 4 8 @ @ 1 b.b.b.b.b.b.b.b.b.b.b.b.b.b.b.b.b.b.b.b.b.b.b.b.b.b.b.~ | #.#.%.#.b.b.b.b.b.b.b.b."
};
