/* XPM */
static char *result[] = {
/* columns rows colors chars-per-pixel */
"64 63 117 2 ",
"   c #010101",
".  c #070807",
"X  c #080807",
"o  c #010B0B",
"O  c #0A0B0A",
"+  c #110301",
"@  c #150D04",
"#  c #190D01",
"$  c #0F100E",
"%  c #1F1000",
"&  c #100F10",
"*  c #0E1212",
"=  c #131313",
"-  c #181816",
";  c #161918",
":  c #1A1C1C",
">  c #310A0A",
",  c #251500",
"<  c #2C1902",
"1  c #351F02",
"2  c #362107",
"3  c #3B2204",
"4  c #3D2508",
"5  c #000238",
"6  c #1E2121",
"7  c gray15",
"8  c #2C2E2C",
"9  c #322626",
"0  c #2D312E",
"q  c #3B3429",
"w  c #2C3332",
"e  c #333635",
"r  c #353937",
"t  c #363B3A",
"y  c #393D3B",
"u  c #422907",
"i  c #4E2F00",
"p  c #432B0B",
"a  c #4B2E0D",
"s  c #4F3004",
"d  c #453F04",
"f  c #5E3E06",
"g  c #523911",
"h  c #583813",
"j  c #3C413E",
"k  c #4D4207",
"l  c #5B4213",
"z  c #684C07",
"x  c #6A4D08",
"c  c #765D0B",
"v  c #614819",
"b  c #6A511C",
"n  c #595639",
"m  c #715B22",
"M  c #7A6429",
"N  c #000D58",
"B  c #041058",
"V  c #021C7A",
"C  c #3D4340",
"Z  c #414443",
"A  c #454945",
"S  c #4C4B42",
"D  c #474C49",
"F  c #494D4A",
"G  c #4D524D",
"H  c #51544E",
"J  c #58584B",
"K  c #4D5351",
"L  c #515451",
"P  c #555A54",
"I  c #595C56",
"U  c #575B58",
"Y  c #5A5E59",
"T  c #5D625C",
"R  c #666355",
"E  c #61655E",
"W  c #64685F",
"Q  c #6D6B5F",
"!  c #626661",
"~  c #656A63",
"^  c #696D65",
"/  c #626C6E",
"(  c #696E69",
")  c #6D7066",
"_  c #6E726A",
"`  c #72756C",
"'  c #75796E",
"]  c #797B6F",
"[  c #6F7673",
"{  c #757774",
"}  c #767A71",
"|  c #7A7D73",
" . c #757C78",
".. c #826C0D",
"X. c #917E10",
"o. c #7D8176",
"O. c #7D8279",
"+. c #958210",
"@. c #818276",
"#. c #888877",
"$. c #81857B",
"%. c #85897E",
"&. c #8D8F7A",
"*. c #8F907C",
"=. c #07359C",
"-. c #868B82",
";. c #898E84",
":. c gray54",
">. c #8D9185",
",. c #8C928A",
"<. c #92978D",
"1. c #92988E",
"2. c #969B92",
"3. c #999E96",
"4. c #A3968A",
"5. c gray65",
"6. c None",
/* pixels */
"6.6.6.6.6.6.6.6.6.6.6.6.6.6.6.6.6.6.6.6.6.6.6.6.6.6.6.6.6.6.6.6.6.6.6.6.6.6.6.6.6.6.6.6.6.6.6.6.6.6.6.6.6.6.6.6.6.6.6.6.6.6.6.6.",
"6.6.6.6.6.6.6.6.6.6.6.6.6.6.6.6.6.6.6.6.6.6.6.6.6.6.6.P ,.;.;.;.-.,.;.>.,.( 6.6.6.6.6.6.6.6.6.6.6.6.6.6.6.6.6.6.6.6.6.6.6.6.6.6.",
"6.6.6.6.6.6.6.6.6.6.6.6.6.6.6.6.6.6.6.6.6.6.6.6.6.6.6.;.1.;.>.>.;.;.-.%.$.$.T 6.6.6.6.6.6.6.6.6.6.6.6.6.6.6.6.6.6.6.6.6.6.6.6.6.",
"6.6.6.6.6.6.6.6.6.6.6.6.6.6.6.6.6.6.6.6.6.6.6.6.6.6.w ;.| } O.] } O._ ~ ^ ( K 6.6.6.6.6.6.6.6.6.6.6.6.6.6.6.6.6.6.6.6.6.6.6.6.6.",
"6.6.6.6.6.6.6.6.6.6.6.6.6.6.6.6.6.6.6.6.6.6.6.6.6.6.w } o.o.} o.| $._ ! _ _ C 6.6.6.6.6.6.6.6.6.6.6.6.6.6.6.6.6.6.6.6.6.6.6.6.6.",
"6.6.6.6.6.6.6.6.6.6.6.6.6.6.6.6.6.6.6.6.6.6.6.6.6.6.6.T o. .] o.| O.` ~ ) ! 6.6.6.6.6.6.6.6.6.6.6.6.6.6.6.6.6.6.6.6.6.6.6.6.6.6.",
"6.6.6.6.6.6.6.6.6.6.6.6.6.6.6.6.6.6.6.6.6.6.6.6.6.6.6.P O.` o.] } $.` _ ) T w 6.6.6.6.6.6.6.6.6.6.6.6.6.6.6.6.6.6.6.6.6.6.6.6.6.",
"6.6.6.6.6.6.6.6.6.6.6.6.6.6.6.6.6.6.6.6.6.6.6.6.6.G G A ` ' @.] } | ` ' ` T K U 6.6.6.6.6.6.6.6.6.6.6.6.6.6.6.6.6.6.6.6.6.6.6.6.",
"6.6.6.6.6.6.6.6.6.6.6.6.6.6.6.6.K T 6.6.6.6.6.T o.,.O.D W } ` ~ ' | | | } D %.2.-.[ K 6.6.6.6.( Z 6.6.6.6.6.6.6.6.6.6.6.6.6.6.6.",
"6.6.6.6.6.6.6.6.6.6.6.6.6.6.6.T O.O.J 6.6.T O.-.O.` } D L } _ _ } ` ' $._ L -.} _ $.-.~ t 6.( 2.>.K 6.6.6.6.6.6.6.6.6.6.6.6.6.6.",
"6.6.6.6.6.6.6.6.6.6.6.6.6.6._ ;.O.O._ P T 2.O._ _ ( ` P G %.O.o.%.| | | _ ! -.` ^ / [ $.L ~ ,.%.;.;.D 6.6.6.6.6.6.6.6.6.6.6.6.6.",
"6.6.6.6.6.6.6.6.6.6.6.6.6.T ;.' ) o.[ _ ~ O.O.o.O.O.} ~ I o.o.O.| $.| { ! _ O.` } / [ ! F ;.-.;.@.@.o.j 6.6.6.6.6.6.6.6.6.6.6.6.",
"6.6.6.6.6.6.6.6.6.6.6.6.G ;.} ` o.` o.o.T P O.} [ ' ` T F ! ^ _ ( ` ( ^ H { O.[ } `  .D [ -.%.%.%.@.$.| 6.6.6.6.6.6.6.6.6.6.6.6.",
"6.6.6.6.6.6.6.6.6.6.6.6.A } } _ ` o.` o.O.L ^ ] o.W 8 : O 6 6 : : : : 7 * 8 y _ _ o.R / >.o.$.o.O.;.-.! 6.6.6.6.6.6.6.6.6.6.6.6.",
"6.6.6.6.6.6.6.6.6.6.6.6.6.6.~ O.[ ` _ _ O.o.G T 0                               r I J *.#.@.@.o.O.$.I 6.6.6.6.6.6.6.6.6.6.6.6.6.",
"6.6.6.6.6.6.6.6.6.6.6.6.6.6.D T o.o.[ o.o.( 8       .     .         .       .       S *.@.] $.;.O.P I 6.6.6.6.6.6.6.6.6.6.6.6.6.",
"6.6.6.6.6.6.6.6.6.6.6.6.6.T %.H ) } ` } ^ ;   $                                   O % n Q _ o.o.n  .$.A 6.6.6.6.6.6.6.6.6.6.6.6.",
"6.6.6.6.6.6.6.6.6.6.6.6.L ,.%.o.G ` _ U 6   .                                       @ k q T T Z [ O.O._ r 6.6.6.6.6.6.6.6.6.6.6.",
"6.6.6.6.6.6.6.6.6.6.6.6.O.%._ O.! C P :   .                                         + k , 0 j $.;.$.-.o.T 6.6.6.6.6.6.6.6.6.6.6.",
"6.6.6.6.6.6.6.6.6.6.6.! O.` ] O.O.!                                                   1 @   A } o.$.$.O.] G 6.6.6.6.6.6.6.6.6.6.",
"6.6.6.6.6.6.6.6.6.6.6.P ' ' o.o.' r   .                                               3 , .   G o.$.o.o.` F 6.6.6.6.6.6.6.6.6.6.",
"6.6.6.6.6.6.6.6.6.6.( T P ^ ` $.~   .                                                 1 <     : ) O.` W P T 6.6.6.6.6.6.6.6.6.6.",
"6.6.6.6.6.6.6.6.6.6.o.%.` ^ !  .r   .                                                 1 <   .   j ^ T ^ ` ' G 6.6.6.6.6.6.6.6.6.",
"6.6.6.6.6.6.6.6.6.6.$.` } $.{ F                                                       < 2       - G ] O.' ' W 6.6.6.6.6.6.6.6.6.",
"6.6.6.6.6.6.6.6.6.^ o.] ` ) } n   O                           , , #                   < 1     O   Y ' ` ' ] ] 6.6.6.6.6.6.6.6.6.",
"6.6.6.6.6.6.6.6.6.I @._ ` ` ` j   .                         , 3 3 1 #                 < 1     .   J _ ` _ ' | 6.6.6.6.6.6.6.6.6.",
"6.6.6.6.6.6.6.6.6.G ' _ ) ` T ;                           # 1 a a 3 < #               , 1         0 ~ ` ` ` ' y 6.6.6.6.6.6.6.6.",
"6.6.6.6.6.6.6.6.6.^ ) ^ ^ ~ r   .                         % 1 h h a 3 #               u v u         D E E I E T 6.6.6.6.6.6.6.6.",
"6.6.6.6.6.6.K _ ;.2.2.2.3.,.r                             # 3 a h a 3 +               3 m v u   .   L ,.<.$.,.2.,.@._ t 6.6.6.6.",
"6.6.6.6.6.6.T o.` ) I E _ ` r                             $ 3 a a a 1 1                 A L ! Z     F ` ] } $.| ) } W t 6.6.6.6.",
"6.6.6.6.6.6.} ;.` O.} _ _ ` r   .                 5 5 5 5 N l v h v 9 5 5 N N N 5 5 N 5 N N N ! Z   U %.} @.%.$.} o.~ t 6.6.6.6.",
"6.6.6.6.6.6.} ;._ O.;.%.` ` r                   5 N N N N N N m M b N N N V V V V N 5 N N V V N {   ! -.) } | o.} @.! t 6.6.6.6.",
"6.6.6.6.6.6.^ O.} o.o.@.| ) r                 5 N V V V N V V V V V V V V V =.=.=.V N 5 N V V V :.! ~ ,.` | o.| | $.~ t 6.6.6.6.",
"6.6.6.6.6.6.T } ` } ' { | ` r   .             5 V =.=.V V V =.=.=.=.=.=.V V =.=.V V V N 5 N V N L :.! :.' } } | ` ` T t 6.6.6.6.",
"6.6.6.6.6.6.U ` E ~ ~ ^ } ` r                 5 V =.=.V V =.=.=.=.=.=.=.=.V V N N V V V N 5 N 5 0 5.U ;.` ) _ ` ! ~ P y 6.6.6.6.",
"6.6.6.6.6.6.L ~ T I P L L U r                 5 V =.V V N V V V =.=.V V V V N 5 N N V V V V 5 5 4.Z D E L H P U I P L C 6.6.6.6.",
"6.6.6.6.6.6.j y y A T _ ^ P r   .           5 N N =.V N N V V V V V V V V N N 5 5 5 N N V N 5 L { L y Y `  .Y j y C j 6.6.6.6.6.",
"6.6.6.6.6.6.6.6.6.~ <.3.>.@.r               5 N N =.V N N N V V V V V N N N N 5     5 5 5 < Z 0 {   P ;.>.:.] F 6.6.6.6.6.6.6.6.",
"6.6.6.6.6.6.6.6.6.! ;.;.| ] r               N N V V V N N N N N V V N N V N N 5         < < L { L   ~ 1.^ ) _ A 6.6.6.6.6.6.6.6.",
"6.6.6.6.6.6.6.6.6.P o.-.@.| r   .       Z N V V =.V N 5 N N V N N N N V V N N 5         < <   ! O   ~ :.' } } F 6.6.6.6.6.6.6.6.",
"6.6.6.6.6.6.6.6.6.P ` } @.] r         L N V V =.=.V 5 N N V V V N N V V V V N N 5       < 1     .   T -._ _ ' D 6.6.6.6.6.6.6.6.",
"6.6.6.6.6.6.6.6.6.P ` @.@.` r         0 N V =.=.=.V 5 N N V V V N N V V V V N N 5       , 1     .   U $.E E ^ D 6.6.6.6.6.6.6.6.",
"6.6.6.6.6.6.6.6.6.U ` ' ` ^ r   .     :.L V =.=.=.V 5 N V V V V N N V V V V N N 5       , 3         L | ~ T ! D 6.6.6.6.6.6.6.6.",
"6.6.6.6.6.6.6.6.6.T ` ( W ~ r         8 Z V =.=.V N 5 N V V V N N N V V V V N N 5 5     # 3         F ` ` ! _ F 6.6.6.6.6.6.6.6.",
"6.6.6.6.6.6.6.6.6.w C A y 8 r         L :.N V V V N 5 N V V V N N N V V V V N N 5 5     + ,         C D A A D w 6.6.6.6.6.6.6.6.",
"6.6.6.6.6.6.P | ;.>.;.;.O.O.r   .       :.L D Z N 5 N N V V V V N N V V V V N N 5 5 5           .   F O.$.$.$.{  ._ ( C 6.6.6.6.",
"6.6.6.6.6.6.! ;.%.%.;.>.-.O.t           L 7 Z   N 5 N N V V V V V N V V V V N N 5 5 5           O   ! <.| @.o.| %.#.! t 6.6.6.6.",
"6.6.6.6.6.6.~ $.` ' } ] } ( e             !     N 5 N N V V V V V V V V V V V N 5 N 5 5         .   Y | L ~ ` $.$.@.! t 6.6.6.6.",
"6.6.6.6.6.6.( O.' $.$.' ' ) e                 5 5 5 N N V V V V V V V V V V V N 5 N 5 5         X   ! ;.R ^ | >.#.} ~ C 6.6.6.6.",
"6.6.6.6.6.6.} -.` %.@.' ) _ r                 5 N 5 N V V V V V V V V V V V V B N N N 5         O   ~ <.` } o.] ] o.! t 6.6.6.6.",
"6.6.6.6.6.6._ ;.} @.o.] _ _ r   .           5 N N N N V V V V V V N V V V V V B N V V N 5       .   T ,.o.@.@.o.` ] ~ A 6.6.6.6.",
"6.6.6.6.6.6.~ %.' o.$.` ` ~ e               5 N V N N V V V V V N N V V V V V B V V V V N 5     .   U -.o.| ] ;.| ` E t 6.6.6.6.",
"6.6.6.6.6.6.U } } ' ` ~ ~ E r             5 N V V N N V V V V N N N N V V V V B V V V N N i         D { } } _ } { ^ K t 6.6.6.6.",
"6.6.6.6.6.6.F U Y K C F F G e             5 V V V N N V V V N N N ....V V V V B V V B x g . . . . O y C A A G G G t A j 6.6.6.6.",
"6.6.6.6.6.6.6.6.6.H O.;.| ` r   .         i N V V N N V V N B B ..1 1 X...V V c ..c x f X X . . O   A } ;.,.{ Z 6.6.6.6.6.6.6.6.",
"6.6.6.6.6.6.6.6.6.Y ` } o.| r               i g N B B B B x X.... p 4   x X.X...      . . X   . =   U >.` } ' F 6.6.6.6.6.6.6.6.",
"6.6.6.6.6.6.6.6.6.I ` } } ] t             . . . a c ..X...x .     2 1 + .     .     . .   . . . ;   ~ ,.^ ' ` D 6.6.6.6.6.6.6.6.",
"6.6.6.6.6.6.6.6.6.T o.{ _ ] y   .       X O O .     . . .     .                   6.6.6.6.6.6.O ;   ~ ;._ | } A 6.6.6.6.6.6.6.6.",
"6.6.6.6.6.6.6.6.6.R $.` _ ] r       X O O O O O O                 . 6.6.6.6.6.6.6.6.6.6.6.6.6.6.6.6.I O._ ` O.G 6.6.6.6.6.6.6.6.",
"6.6.6.6.6.6.6.6.6.E O._ _ _ r   O O O O . . . . O O . . . 6.6.6.6.6.6.6.6.6.6.6.6.6.6.6.6.6.6.6.6.6.P } ` ] $.H 6.6.6.6.6.6.6.6.",
"6.6.6.6.6.6.6.6.6.U } ^ ~ E r   & O O O X O O O O O X 6.6.6.6.6.6.6.6.6.6.6.6.6.6.6.6.6.6.6.6.6.6.6.G ' } $.%.H 6.6.6.6.6.6.6.6.",
"6.6.6.6.6.6.6.6.6.P ~ T E T y   & & & o O O O & & 6.6.6.6.6.6.6.6.6.6.6.6.6.6.6.6.6.6.6.6.6.6.6.6.6.A _ ( _ } F 6.6.6.6.6.6.6.6.",
"6.6.6.6.6.6.6.6.6.Z j A C y e & ; = = > O O = 6.6.6.6.6.6.6.6.6.6.6.6.6.6.6.6.6.6.6.6.6.6.6.6.6.6.6.r j C C A C 6.6.6.6.6.6.6.6."
};
