/* XPM */
static char *result[] = {
/* columns rows colors chars-per-pixel */
"64 63 114 2 ",
"   c #020101",
".  c #0B0501",
"X  c #070807",
"o  c #0D0904",
"O  c #01010C",
"+  c #0C060D",
"@  c #010B0B",
"#  c #0A0A0A",
"$  c #110701",
"%  c #140B02",
"&  c #190C02",
"*  c #130B0B",
"=  c #190F0A",
"-  c #0F100E",
";  c #161103",
":  c #1B1305",
">  c #14110F",
",  c #1D150B",
"<  c #1F180C",
"1  c #010214",
"2  c #0A0512",
"3  c #0D0D14",
"4  c #01021C",
"5  c #0A061B",
"6  c #06081F",
"7  c #0C0B1C",
"8  c #120D12",
"9  c #120D1A",
"0  c #0E1212",
"q  c #141414",
"w  c #1B1414",
"e  c #1C1814",
"r  c #16161B",
"t  c #1B161B",
"y  c #161918",
"u  c #1B1B1C",
"i  c #310A0A",
"p  c #211A0D",
"a  c #201711",
"s  c #221B12",
"d  c #000324",
"f  c #070926",
"g  c #0D0C24",
"h  c #00052B",
"j  c #03092D",
"k  c #090A28",
"l  c #100E27",
"z  c #0E1025",
"x  c #0D112B",
"c  c #151322",
"v  c #191522",
"b  c #171823",
"n  c #1C1C22",
"m  c #13152A",
"M  c #171928",
"N  c #000730",
"B  c #010A33",
"V  c #010D39",
"C  c #201F20",
"Z  c #1E2121",
"A  c #232224",
"S  c #202128",
"D  c #2A2C2B",
"F  c #2F302D",
"G  c #2C3332",
"H  c #333635",
"J  c #353936",
"K  c #363B3A",
"L  c #393D3A",
"P  c #3C413E",
"I  c #3D4340",
"U  c #414643",
"Y  c #454945",
"T  c #494C46",
"R  c #474C48",
"E  c #494D4A",
"W  c #4D524D",
"Q  c #51544E",
"!  c #4E5450",
"~  c #515651",
"^  c #555A55",
"/  c #595C56",
"(  c #575B58",
")  c #5A5E59",
"_  c #5D625C",
"`  c #616157",
"'  c #61655E",
"]  c #64685F",
"[  c #626661",
"{  c #656A63",
"}  c #696D65",
"|  c #696E68",
" . c #6D7066",
".. c #6E726A",
"X. c #72756C",
"o. c #75796E",
"O. c #797B6F",
"+. c #727770",
"@. c #767A71",
"#. c #7A7D73",
"$. c #7D8176",
"%. c #7D8279",
"&. c #808276",
"*. c #82857B",
"=. c #85897E",
"-. c #868B82",
";. c #898E84",
":. c #8D9186",
">. c #8C9289",
",. c #92978C",
"<. c #92988E",
"1. c #969B92",
"2. c #999E96",
"3. c None",
/* pixels */
"3.3.3.3.3.3.3.3.3.3.3.3.3.3.3.3.3.3.3.3.3.3.3.3.3.3.3.3.3.3.3.3.3.3.3.3.3.3.3.3.3.3.3.3.3.3.3.3.3.3.3.3.3.3.3.3.3.3.3.3.3.3.3.3.",
"3.3.3.3.3.3.3.3.3.3.3.3.3.3.3.3.3.3.3.3.3.3.3.3.3.3.3.~ ,.-.:.-.-.>.;.>.>.| 3.3.3.3.3.3.3.3.3.3.3.3.3.3.3.3.3.3.3.3.3.3.3.3.3.3.",
"3.3.3.3.3.3.3.3.3.3.3.3.3.3.3.3.3.3.3.3.3.3.3.3.3.3.3.;.<.;.:.:.;.;.-.=.=.*._ 3.3.3.3.3.3.3.3.3.3.3.3.3.3.3.3.3.3.3.3.3.3.3.3.3.",
"3.3.3.3.3.3.3.3.3.3.3.3.3.3.3.3.3.3.3.3.3.3.3.3.3.3.G ;.@.@.%.@.@.%...{ { | ! 3.3.3.3.3.3.3.3.3.3.3.3.3.3.3.3.3.3.3.3.3.3.3.3.3.",
"3.3.3.3.3.3.3.3.3.3.3.3.3.3.3.3.3.3.3.3.3.3.3.3.3.3.G $.$.@.@.$.#.%...[ ....I 3.3.3.3.3.3.3.3.3.3.3.3.3.3.3.3.3.3.3.3.3.3.3.3.3.",
"3.3.3.3.3.3.3.3.3.3.3.3.3.3.3.3.3.3.3.3.3.3.3.3.3.3.3._ $.$.O.$.#.*.X.{ .._ 3.3.3.3.3.3.3.3.3.3.3.3.3.3.3.3.3.3.3.3.3.3.3.3.3.3.",
"3.3.3.3.3.3.3.3.3.3.3.3.3.3.3.3.3.3.3.3.3.3.3.3.3.3.3.~ %.X.$.O.@.*......._ G 3.3.3.3.3.3.3.3.3.3.3.3.3.3.3.3.3.3.3.3.3.3.3.3.3.",
"3.3.3.3.3.3.3.3.3.3.3.3.3.3.3.3.3.3.3.3.3.3.3.3.3.W W Y X.o.%.o.@.#.X.o.+./ W _ 3.3.3.3.3.3.3.3.3.3.3.3.3.3.3.3.3.3.3.3.3.3.3.3.",
"3.3.3.3.3.3.3.3.3.3.3.3.3.3.3.3.~ _ 3.3.3.3.3.[ %.>.%.R [ @.X.{ +.&.#.#.+.R -.1.-...! 3.3.3.3. .U 3.3.3.3.3.3.3.3.3.3.3.3.3.3.3.",
"3.3.3.3.3.3.3.3.3.3.3.3.3.3.3._ %.%.Q 3.3._ %.-.%.X.@.R ^ @.....@.X.+.$...! -.@.+.%.-...3.3.X.,.;.W 3.3.3.3.3.3.3.3.3.3.3.3.3.3.",
"3.3.3.3.3.3.3.3.3.3.3.3.3.3...;.%.%. ._ _ 1.=. ...| o.~ E =.%.$.-.#.#.#...[ =... .] @.;./ } <.=.;.;.R 3.3.3.3.3.3.3.3.3.3.3.3.3.",
"3.3.3.3.3.3.3.3.3.3.3.3.3._ ;.o...+.+.+.{ %.$.$.%.$.@.{ / $.$.%.#.*.#.O.{ ..%.o.o...X.{ Q ,.=.-.&.*.$.P 3.3.3.3.3.3.3.3.3.3.3.3.",
"3.3.3.3.3.3.3.3.3.3.3.3.W :.o.o.$.$.+.%._ ^ %.@.+.@.X._ E [ } ..| X...} ~ +.%.o.$...O.T o.=.=.=.=.*.*.@.3.3.3.3.3.3.3.3.3.3.3.3.",
"3.3.3.3.3.3.3.3.3.3.3.3.Y +.@...+.@.o.+.%.~  .o.%.[ D u # Z Z u n u u Z 0 D P ....$._ { :.&.&.%.&.;.=.{ 3.3.3.3.3.3.3.3.3.3.3.3.",
"3.3.3.3.3.3.3.3.3.3.3.3.3.3.{ %.$.....+.%.@.W _ F                               G / W =.=.&.&.$.$.=.) 3.3.3.3.3.3.3.3.3.3.3.3.3.",
"3.3.3.3.3.3.3.3.3.3.3.3.3.3.Y _ $.o.+.$.$.| D       X     .   . .                   Y *.&.O.=.-.$.^ / 3.3.3.3.3.3.3.3.3.3.3.3.3.",
"3.3.3.3.3.3.3.3.3.3.3.3.3._ -.W  .@...@.{ y   -             . . . .             o # . L {  .$.$.U $.*.U 3.3.3.3.3.3.3.3.3.3.3.3.",
"3.3.3.3.3.3.3.3.3.3.3.3.~ >.=.$.W X...( Z   X             . $ $ $ .                 o . D _ _ U @.*.*.X.J 3.3.3.3.3.3.3.3.3.3.3.",
"3.3.3.3.3.3.3.3.3.3.3.3.%.=. .&.[ I ~ Z                 . . & & & $ .               o ; & F P *.=.*.=.%._ 3.3.3.3.3.3.3.3.3.3.3.",
"3.3.3.3.3.3.3.3.3.3.3._ %.o.@.%.=._                     . $ & & & $ .               % : < * U $.$.*.*.%.o.W 3.3.3.3.3.3.3.3.3.3.",
"3.3.3.3.3.3.3.3.3.3.3.( o.O.$.$.o.J   X                 . $ & & & & .     O         o q e u q W $.*.$.$.o.T 3.3.3.3.3.3.3.3.3.3.",
"3.3.3.3.3.3.3.3.3.3.| _ ^ } X.=.{   X           O O 1 O 2 * = : & * + 1 1 4 4 1 1 1 1 5 7 c r A  .&...{ ^ _ 3.3.3.3.3.3.3.3.3.3.",
"3.3.3.3.3.3.3.3.3.3.$.=.X.} ] @.J             1 4 4 4 4 4 9 w a w 9 5 4 d d d d 4 4 1 4 d g M b U } _ } o.o.W 3.3.3.3.3.3.3.3.3.",
"3.3.3.3.3.3.3.3.3.3.*.X.@.*.o.Q             O 4 d d d d d f l l l k h h h B B B h d 4 d d h m n D W @.*.X.o.{ 3.3.3.3.3.3.3.3.3.",
"3.3.3.3.3.3.3.3.3.} &.o.X. .@.Y   #       O 1 d j B h h h B B V B B B N N B B B h d d d d d m n A ` O. .o.O.O.3.3.3.3.3.3.3.3.3.",
"3.3.3.3.3.3.3.3.3.^ &.X.X.X.X.P   X         1 h B B B N B V V V V V V B B h h h h d d d d 1 7 C A ( o.X...o.#.3.3.3.3.3.3.3.3.3.",
"3.3.3.3.3.3.3.3.3.Q o.X. .X._ y           O 1 d B B h h N N B V B B B N h d 4 4 d d h h d 5 r A A J { X. .O.o.L 3.3.3.3.3.3.3.3.",
"3.3.3.3.3.3.3.3.3.} } { } [ J   X         O 4 d h N h d d h h N B j h h d 4 4 1 1 4 d d 4 7 r n u q R ' [ / ' [ 3.3.3.3.3.3.3.3.",
"3.3.3.3.3.3.! ..-.1.1.1.2.,.J             1 4 d h h d d d d h h N h d d d 4 1 1 O 1 1 1 5 q t u u # ~ >.,.=.;.1.,.&...K 3.3.3.3.",
"3.3.3.3.3.3.' $.X.../ ' ....J           O 1 d h h h d 4 d d d d d d d d d 4 1 O   O   O # q u u q . E X.@.@.=.@.} @.[ K 3.3.3.3.",
"3.3.3.3.3.3.+.;.X.#.#.| ..X.J         2 4 d h j h d 4 4 4 d d d d d d d d 4 1 O         o 8 q q q   ) *.@.&.=.*.@.O.{ K 3.3.3.3.",
"3.3.3.3.3.3.@.:...*.;.=.X.X.L     X 3 6 f j B B B d 4 d d d d d d d h d d d 4 O       .   o # X #   [ -.} #.#.$.#.&.[ K 3.3.3.3.",
"3.3.3.3.3.3.} %.@.#.#.*.$. .H   X # 0 7 k B V B h d 4 d d h d d d d h h d d 4 1 O     . .       o   { >.X.#.#.#.#.&.[ K 3.3.3.3.",
"3.3.3.3.3.3.) @.o.@.o.o.#.X.J   X # u b x B V B h d 4 d h h d d d h N h h d d 1 O       . .     #   ' >.o.+.#.#.X.X.[ L 3.3.3.3.",
"3.3.3.3.3.3.( X.' { { { @...J     # t b x B B B h d d d h h d d d d h h d d 4 1 O       .       X   ) ;.X...| X.[ { ( L 3.3.3.3.",
"3.3.3.3.3.3.~ { ' / ( ~ ~ ( H   X # q Z M x j j d 4 d d h h d d d d h h h d 4 1 O O                 R _ Q Q ( / ) ( ~ L 3.3.3.3.",
"3.3.3.3.3.3.P L L Y ' ..{ ^ J   X X r n n c 7 6 4 4 4 d h h d d d h h h h d d 1 1 O                 P ) ..@.) U L I L 3.3.3.3.3.",
"3.3.3.3.3.3.3.3.3.[ ,.2.,.&.J       # y r q 0 4 1 4 d d h h h h d d h h d d 4 4 1 O             X   ~ >.>.>.@.R 3.3.3.3.3.3.3.3.",
"3.3.3.3.3.3.3.3.3.[ ;.;.#.O.K       X # q 3 + 1 1 4 d d h h h h h h h h h d d 1 1 1 O O         X   [ >.} | | T 3.3.3.3.3.3.3.3.",
"3.3.3.3.3.3.3.3.3.( #.;.#.O.J   .     X X X O 1 1 4 d d h h N h h N N h h d d 4 4 1 O           #   { :.o.@.@.E 3.3.3.3.3.3.3.3.",
"3.3.3.3.3.3.3.3.3.( X.O.&.O.J               1 1 4 4 d h h h N h h h N h h h d 4 4 4 1 O         X   ) -.X.| +.R 3.3.3.3.3.3.3.3.",
"3.3.3.3.3.3.3.3.3.( X.#.&.X.J             O 1 4 4 d d d h N h d d h h h h h d d d d 4 1 O       X   / *.' [ | R 3.3.3.3.3.3.3.3.",
"3.3.3.3.3.3.3.3.3.) o.o.X.} J             1 4 d d d d h h h h d d d h h h h d d h d d d 1           ~ #.{ ) { Y 3.3.3.3.3.3.3.3.",
"3.3.3.3.3.3.3.3.3._ X.| ] { J           O 4 d d d d d h h h d d f g h h h h h d h d d 5 2           E X.X.{ | E 3.3.3.3.3.3.3.3.",
"3.3.3.3.3.3.3.3.3.G I U L G H           1 d d h d d d h h d d 3 w w v g k h f g g l 9 * o           I R U R R H 3.3.3.3.3.3.3.3.",
"3.3.3.3.3.3.( #.;.:.;.;.%.%.J           + 1 d d d d d d g 7 9 w , , p u v v u e w w = & .           R %.*.*.*.+.#...| I 3.3.3.3.",
"3.3.3.3.3.3.[ ;.*.-.;.:.-.%.J   X       . 2 9 5 5 7 7 9 w e < : % & : p s s p : & & .           #   { >.#.&.#.#.-.=.{ H 3.3.3.3.",
"3.3.3.3.3.3.{ *.X.o.@.o.O.} H             . . * = p p p p : ; o . . . % & ; ; o .               X   _ #.~ { o.=.*.#.[ K 3.3.3.3.",
"3.3.3.3.3.3.| %.o.*.*.o.o. .J                 . o ; ; ; % . .                                   X   ' ;.` } #.;.*.&.{ P 3.3.3.3.",
"3.3.3.3.3.3.+.;.o.=.&.o. ...J                     .                                             #   { <.X.@.&.O.O.O.{ K 3.3.3.3.",
"3.3.3.3.3.3...-.o.$.$.O...| J                                                                   X   _ >.&.*.&.&.X.O.{ U 3.3.3.3.",
"3.3.3.3.3.3.{ =.o.$.*.X.X.{ H                                                                   X   ( -.#.O.#.-.#.X.' L 3.3.3.3.",
"3.3.3.3.3.3.) @.o.@...{ { ' J                                                                       R +.#.#.X.@.+.{ ! K 3.3.3.3.",
"3.3.3.3.3.3.E ( ) W U E E W H                                     X X X X # X X X X   X X   X X X # L I U U E ! ! K Y I 3.3.3.3.",
"3.3.3.3.3.3.3.3.3.Q $.;.@.X.H                           X # X # + # # # + + X X X X # X X X X X #   Y @.>.>.+.Y 3.3.3.3.3.3.3.3.",
"3.3.3.3.3.3.3.3.3.) X.@.*.#.J                     X # # # # # # # # X X X X X X X X   X X X   X 0   ) ;.X.+.@.R 3.3.3.3.3.3.3.3.",
"3.3.3.3.3.3.3.3.3.) X.+.@.@.L   .           X # # # # + + X X X X X X X X X O o X X   X   X X X q   { >.} o.X.R 3.3.3.3.3.3.3.3.",
"3.3.3.3.3.3.3.3.3._ $.+...O.L           X # # # # # o X X X X X o X   X     X 3.3.3.3.3.3.3.3.# e   [ -...#.@.R 3.3.3.3.3.3.3.3.",
"3.3.3.3.3.3.3.3.3.' &.X.X.@.L   X   # # # # # # # #   X X X X X X X 3.3.3.3.3.3.3.3.3.3.3.3.3.3.3.3.) *...X.$.W 3.3.3.3.3.3.3.3.",
"3.3.3.3.3.3.3.3.3.' %.X... .J   # + # # # # X X # # X X X 3.3.3.3.3.3.3.3.3.3.3.3.3.3.3.3.3.3.3.3.3.^ @.X.@.*.W 3.3.3.3.3.3.3.3.",
"3.3.3.3.3.3.3.3.3._ @.} ] ' J   # # 0 # # o # # # # X 3.3.3.3.3.3.3.3.3.3.3.3.3.3.3.3.3.3.3.3.3.3.3.W o.@.*.-.Q 3.3.3.3.3.3.3.3.",
"3.3.3.3.3.3.3.3.3.~ } _ [ ) L   q - # @ # # # 3 0 3.3.3.3.3.3.3.3.3.3.3.3.3.3.3.3.3.3.3.3.3.3.3.3.3.R ..| ..@.E 3.3.3.3.3.3.3.3.",
"3.3.3.3.3.3.3.3.3.I P Y P K H 8 r q q i # # q 3.3.3.3.3.3.3.3.3.3.3.3.3.3.3.3.3.3.3.3.3.3.3.3.3.3.3.H P I I Y I 3.3.3.3.3.3.3.3."
};
