/* XPM */
static char *result[] = {
/* columns rows colors chars-per-pixel */
"64 63 212 2 ",
"   c #010101",
".  c #0B0302",
"X  c #0A0905",
"o  c #03050A",
"O  c #030B0B",
"+  c #0B0B0A",
"@  c #060808",
"#  c #120C0B",
"$  c #170605",
"%  c #15110E",
"&  c #1A140E",
"*  c #1B1403",
"=  c #010812",
"-  c #0A1516",
";  c #131313",
":  c #1A1510",
">  c #1C1914",
",  c #1A1C1C",
"<  c #151718",
"1  c #10100F",
"2  c #251D14",
"3  c #261E17",
"4  c #2E120A",
"5  c #002D1A",
"6  c #2C2319",
"7  c #2A2117",
"8  c #32261B",
"9  c #35291C",
"0  c #3A2C1E",
"q  c #00032D",
"w  c #0C1720",
"e  c #0C1F2D",
"r  c #1B1D22",
"t  c #001F38",
"y  c #1E2121",
"u  c #152422",
"i  c #112631",
"p  c #2B2C2B",
"a  c #252425",
"s  c #382E24",
"d  c #3F3122",
"f  c #3A3028",
"g  c #2D2C30",
"h  c #2C3332",
"j  c #343535",
"k  c #353936",
"l  c #363B3A",
"z  c #393C3B",
"x  c #37353A",
"c  c #2D312E",
"v  c #72011D",
"b  c #6F1525",
"n  c #413424",
"m  c #4C3C2B",
"M  c #4E3E20",
"N  c #4A3A15",
"B  c #004E00",
"V  c #005D00",
"C  c #0E4224",
"Z  c #3C413E",
"A  c #57442E",
"S  c #5A4935",
"D  c #594937",
"F  c #5F5039",
"G  c #624F3B",
"H  c #624B32",
"J  c #65533D",
"K  c #122F44",
"L  c #13364F",
"P  c #013555",
"I  c #183A53",
"U  c #02314E",
"Y  c #323A47",
"T  c #003E63",
"R  c #423F43",
"E  c #3D4340",
"W  c #3B4555",
"Q  c #1B4665",
"!  c #194B6C",
"~  c #054E73",
"^  c #124F72",
"/  c #095178",
"(  c #135176",
")  c #1F557A",
"_  c #004066",
"`  c #2E506D",
"'  c #35516C",
"]  c #3C536C",
"[  c #3E5066",
"{  c #2C5676",
"}  c #35536E",
"|  c #424443",
" . c #454945",
".. c #474C48",
"X. c #4A4D4A",
"o. c #4B464A",
"O. c #544C46",
"+. c #4D524D",
"@. c #51544E",
"#. c #5D524F",
"$. c #534E51",
"%. c #4E5450",
"&. c #525551",
"*. c #555A55",
"=. c #595C56",
"-. c #54565D",
";. c #5A565A",
":. c #5B5D5A",
">. c #5C5553",
",. c #6B5946",
"<. c #745F47",
"1. c #625B5E",
"2. c #5D625C",
"3. c #5C6341",
"4. c #79644A",
"5. c #61655E",
"6. c #64685F",
"7. c #73724D",
"8. c #425367",
"9. c #575964",
"0. c #545761",
"q. c #415D7A",
"w. c #414E60",
"e. c #625C60",
"r. c #536178",
"t. c #626661",
"y. c #656A63",
"u. c #696D65",
"i. c #6B6C6A",
"p. c #6A6469",
"a. c #6D7066",
"s. c #6E726A",
"d. c #72756C",
"f. c #75796E",
"g. c #797B6F",
"h. c #78716B",
"j. c #726C72",
"k. c #767A71",
"l. c #7A7D73",
"z. c #7B757B",
"x. c #787777",
"c. c #8E1A2B",
"v. c #8A2330",
"b. c #867254",
"n. c #8A7356",
"m. c #947C5C",
"M. c #987F5E",
"N. c #8F7B6A",
"B. c #7D8176",
"V. c #7D8279",
"C. c #7E8974",
"Z. c #AC990E",
"A. c #958522",
"S. c #A99828",
"D. c #A09139",
"F. c #89855A",
"G. c #92895C",
"H. c #97805F",
"J. c #978F56",
"K. c #9A8464",
"L. c #808276",
"P. c #82857B",
"I. c #85897E",
"U. c #838874",
"Y. c #939067",
"T. c #A68B67",
"R. c #AE936D",
"E. c #A7926A",
"W. c #B2936E",
"Q. c #BA9C75",
"!. c #B69972",
"~. c #BAA277",
"^. c #BAA37A",
"/. c #BAA97E",
"(. c #005B8C",
"). c #165F8B",
"_. c #225C85",
"`. c #215E88",
"'. c #156493",
"]. c #1F628F",
"[. c #24618B",
"{. c #2A6189",
"}. c #276A96",
"|. c #3E6B92",
" X c #2D79AD",
".X c #2C74A5",
"XX c #2E7EB3",
"oX c #267CB2",
"OX c #307FB5",
"+X c #447299",
"@X c #436D93",
"#X c #837C83",
"$X c #2A85B9",
"%X c #3185BA",
"&X c #328ABA",
"*X c #7C8C80",
"=X c #868B82",
"-X c #898E84",
";X c #8C858C",
":X c #878087",
">X c #8C9187",
",X c #8C9289",
"<X c #92978C",
"1X c #93988C",
"2X c #928B92",
"3X c #959B92",
"4X c #9A9699",
"5X c #A49CA4",
"6X c #ACA4AC",
"7X c #BAB7B8",
"8X c #B6B0B0",
"9X c None",
/* pixels */
"9X9X9X9X9X9X9X9X9X9X9X9X9X9X9X9X9X9X9X9X9X9X9X9X9X9X9X9X9X9X9X9X9X9X9X9X9X9X9X9X9X9X9X9X9X9X9X9X9X9X9X9X9X9X9X9X9X9X9X9X9X9X9X9X",
"9X9X9X9X9X9X9X9X9X9X9X9X9X9X9X9X9X9X9X9X9X9X9X9X9X9X9X%.,X-X>X=X=X>X-X>X,Xi.9X9X9X9X9X9X9X9X9X9X9X9X9X9X9X9X9X9X9X9X9X9X9X9X9X9X",
"9X9X9X9X9X9X9X9X9X9X9X9X9X9X9X9X9X9X9X9X9X9X9X9X9X9X9X-X1X=X>X-X>X-XI.I.I.V.2.9X9X9X9X9X9X9X9X9X9X9X9X9X9X9X9X9X9X9X9X9X9X9X9X9X",
"9X9X9X9X9X9X9X9X9X9X9X9X9X9X9X9X9X9X9X9X9X9X9X9X9X9Xh -Xl.l.L.l.x.V.s.y.u.s.%.9X9X9X9X9X9X9X9X9X9X9X9X9X9X9X9X9X9X9X9X9X9X9X9X9X",
"9X9X9X9X9X9X9X9X9X9X9X9X9X9X9X9X9X9X9X9X9X9X9X9X9X9Xh k.V.B.l.l.l.P.s.5.s.s.E 9X9X9X9X9X9X9X9X9X9X9X9X9X9X9X9X9X9X9X9X9X9X9X9X9X",
"9X9X9X9X9X9X9X9X9X9X9X9X9X9X9X9X9X9X9X9X9X9X9X9X9X9X9X2.B.k.k.l.l.P.s.u.u.t.9X9X9X9X9X9X9X9X9X9X9X9X9X9X9X9X9X9X9X9X9X9X9X9X9X9X",
"9X9X9X9X9X9X9X9X9X9X9X9X9X9X9X9X9X9X9X9X9X9X9X9X9X9X9X&.V.k.B.k.k.P.s.s.s.2.h 9X9X9X9X9X9X9X9X9X9X9X9X9X9X9X9X9X9X9X9X9X9X9X9X9X",
"9X9X9X9X9X9X9X9X9X9X9X9X9X9X9X9X9X9X9X9X9X9X9X9X9X+.X...f.d.U.d.l.l.d.d.k.=.%.:.9X9X9X9X9X9X9X9X9X9X9X9X9X9X9X9X9X9X9X9X9X9X9X9X",
"9X9X9X9X9X9X9X9X9X9X9X9X9X9X9X9X%.:.9X9X9X9X9Xt.B.,XV...t.k.f.y.d.l.l.l.k...=X3X=Xs.%.9X9X9X9Xa.| 9X9X9X9X9X9X9X9X9X9X9X9X9X9X9X",
"9X9X9X9X9X9X9X9X9X9X9X9X9X9X9X2.*XV.@.9X9X2.V.=XB.d.k...&.k.s.s.k.d.f.V.s.&.=Xk.s.*X-Xi.9X9Xs.1X>X%.9X9X9X9X9X9X9X9X9X9X9X9X9X9X",
"9X9X9X9X9X9X9X9X9X9X9X9X9X9Xs.-XC.V.s.*.2.3XI.a.s.i.d.*.+.I.V.l.=Xl.l.l.s.t.=Xd.s.y.k.-X*.a.<XI.-X-X..9X9X9X9X9X9X9X9X9X9X9X9X9X",
"9X9X9X9X9X9X9X9X9X9X9X9X9X2.-Xf.s.k.k.d.t.V.B.B.V.V.k.y.=.B.B.V.l.P.l.k.t.s.V.d.f.s.s.u.+.>X=X=XB.U.B.Z 9X9X9X9X9X9X9X9X9X9X9X9X",
"9X9X9X9X9X9X9X9X9X9X9X9X+.-Xk.d.B.k.k.V.2.*.V.k.k.k.d.2...5.u.s.i.d.s.u.&.d.V.f.k.d.g...k.>X=X=XI.L.P.l.9X9X9X9X9X9X9X9X9X9X9X9X",
"9X9X9X9X9X9X9X9X9X9X9X9X .k.k.s.k.k.k.f.V.&.u.g.B.t.p , 1 y y , , , , y - p z s.s.V.2.u.>XB.V.V.V.-X=Xt.9X9X9X9X9X9X9X9X9X9X9X9X",
"9X9X9X9X9X9X9X9X9X9X9X9X9X9Xy.V.k.d.d.d.C.k.+.2.p                               k *.+.=XI.U.B.N.B.I.=.9X9X9X9X9X9X9X9X9X9X9X9X9X",
"9X9X9X9X9X9X9X9X9X9X9X9X9X9X..2.B.k.k.V.B.i.p       @                 @   @         ..I.U.l.P.=XB.*.=.9X9X9X9X9X9X9X9X9X9X9X9X9X",
"9X9X9X9X9X9X9X9X9X9X9X9X9X2.=X+.a.k.s.k.u.<   1                                   +   z y.s.B.V. .B.V. .9X9X9X9X9X9X9X9X9X9X9X9X",
"9X9X9X9X9X9X9X9X9X9X9X9X&.>XI.B.%.s.s.*.y   @                                       @   p 2.2.E k.P.P.s.k 9X9X9X9X9X9X9X9X9X9X9X",
"9X9X9X9X9X9X9X9X9X9X9X9XV.I.d.B.t.E &.y   @                                               c Y V.=XV.I.B.2.9X9X9X9X9X9X9X9X9X9X9X",
"9X9X9X9X9X9X9X9X9X9X9Xt.V.d.g.V.I.2.                                                    o   D l.B.I.I.B.g.+.9X9X9X9X9X9X9X9X9X9X",
"9X9X9X9X9X9X9X9X9X9X9X*.g.f.B.B.f.k   @                                                   @   +.B.P.B.B.d...9X9X9X9X9X9X9X9X9X9X",
"9X9X9X9X9X9X9X9X9X9Xi.2.*.u.d.P.y.  @                                                         , a.B.d.y.*.2.9X9X9X9X9X9X9X9X9X9X",
"9X9X9X9X9X9X9X9X9X9Xl.I.s.u.y.l.k                   X         X X         X                 @   Z 6.2.u.d.d.+.9X9X9X9X9X9X9X9X9X",
"9X9X9X9X9X9X9X9X9X9XU.d.k.I.f.@.                      o @ @ o     o @ @ o @ @ o                 , +.B.B.f.f.y.9X9X9X9X9X9X9X9X9X",
"9X9X9X9X9X9X9X9X9Xu.B.f.d.a.g. .  +               + & & & & & : : : & : & : : : X .           +   5.g.s.f.g.f.9X9X9X9X9X9X9X9X9X",
"9X9X9X9X9X9X9X9X9X=.U.d.d.d.s.Z   @         o o   2 0 0 0 0 0 0 0 0 0 0 0 0 0 0 &   @         @   @.s.d.s.f.B.9X9X9X9X9X9X9X9X9X",
"9X9X9X9X9X9X9X9X9X@.f.s.a.d.2.<           X 2 3 2 8 d 0 0 0 0 0 0 0 0 0 0 0 0 0 6 3 3 2 @         c y.d.s.d.f.z 9X9X9X9X9X9X9X9X",
"9X9X9X9X9X9X9X9X9Xu.u.y.u.y.k   @       @ & 0 0 0 0 0 0 0 0 0 0 0 0 0 0 0 d 0 0 0 0 0 9 + @         ..5.6.=.5.5.9X9X9X9X9X9X9X9X",
"9X9X9X9X9X9X%.s.=X3X3X3X3X<Xk           @ # 9 0 0 0 0 0 0 9 9 s 0 0 0 0 6 @ 6 0 9 0 0 9 + @     @   %.,X,XI.,X3X,XB.d.l 9X9X9X9X",
"9X9X9X9X9X9X2.B.d.s.=.5.s.d.k           @ % 0 0 0 0 0 0 0 0 0 0 0 0 0 d 0 7 9 0 0 0 0 9 + @         X.d.g.k.I.k.a.l.t.l 9X9X9X9X",
"9X9X9X9X9X9Xk.-Xd.l.l.i.s.d.k           @ % 0 0 0 0 9 0 0 0 d 0 0 d 9   4.Q.4.  s 9 0 9 + .     @   :.P.k.V.I.V.l.g.t.l 9X9X9X9X",
"9X9X9X9X9X9Xk.-Xs.P.-XI.d.d.z   @       # & 8 8 0 0 0 0 0 0 0 0 0 9 m D n./.4.  d 0 0 9 : +     @   t.=Xa.l.l.l.l.U.t.l 9X9X9X9X",
"9X9X9X9X9X9Xi.V.k.l.B.P.l.a.k                 > 0 0 n               F ^.!.~.4.  9 0 0 8         +   t.,Xd.l.B.l.l.B.t.l 9X9X9X9X",
"9X9X9X9X9X9X2.k.d.k.f.d.l.d.k     X   X G J ; % 6 3 X ,.n.b.n.n.n.b.H.Q.!.Q.K.b.A & 0 d ,.D   . X   t.,Xf.k.l.l.d.d.2.l 9X9X9X9X",
"9X9X9X9X9X9X*.d.t.y.y.u.k.s.j     X     b.m.      2   M.3X~.^.Q.Q.^.~.Q.Q.Q.Q./.J   4 n H.4.  X @   :.-Xd.s.s.s.y.y.*.z 9X9X9X9X",
"9X9X9X9X9X9X&.y.2.=.*.&.&.:.j   @ $   # T.!.T.m.  . . M J H F R.Q.Q.T.D G G S A 3 3 K.E.~.H.  #     ..2.&.@.&.:.*.*.&.E 9X9X9X9X",
"9X9X9X9X9X9XZ z z  .2.s.u.=.k     +   # E.!.!.T.  a D u       R.Q.Q.T.      u j = 3 W.!.!.H.  ;     Z *.d.x.2.Z z E E 9X9X9X9X9X",
"9X9X9X9X9X9X9X9X9Xy.3X3X>XL.k         . % 4 c.v.  x.7X*XV 5   R.Q.!.T.  C V 3X7X:.  v.c.> +     @   &.>X>X>Xk...9X9X9X9X9X9X9X9X",
"9X9X9X9X9X9X9X9X9Xt.-X-Xl.g.z   +   O     $ v b   d.7XC.V ,.<.W.Q.Q.E.,.3.V ,X7X*.  b v     .   +   t.<Xu.s.s...9X9X9X9X9X9X9X9X",
"9X9X9X9X9X9X9X9X9X=.l.-Xl.g.z + o         @ O -   4.^.7.B E.^.Q.Q.Q.!./.G.B G.~.F   - O .       +   t.>Xd.k.k...9X9X9X9X9X9X9X9X",
"9X9X9X9X9X9X9X9X9X*.d.l.L.g.k   g o.a       . #   O.N.K.G.R.Q.!.Q.Q.Q.Q.R.G.n.4.n   $ .         @   2.=Xs.s.f.X.9X9X9X9X9X9X9X9X",
"9X9X9X9X9X9X9X9X9X*.d.B.L.d.l   R i.g   o     @   x W K.^.Q.Q.Q.!.Q.Q.Q.Q.^.4.  ; + o           @   *.P.t.5.i. .9X9X9X9X9X9X9X9X",
"9X9X9X9X9X9X9X9X9X:.d.f.s.u.z   R e.$.$.$.$.$.$.$.>.1.O.N &.0.0.-.-.-.0.X.M 9   }. Xe               &.l.y.:.t...9X9X9X9X9X9X9X9X",
"9X9X9X9X9X9X9X9X9X2.d.u.6.6.z   R e.-.9.9.9.9.9.0.-.:.Y q P T T T T T T P q t w  X%XQ K -           X.d.d.t.i.X.9X9X9X9X9X9X9X9X",
"9X9X9X9X9X9X9X9X9Xh E  .l g k   R 1.' ( ! ! ! ! / ] >.q.[.[.{.{.{.{.{.{.{.{.[.[.XX%X$XoX            | ..|  ...j 9X9X9X9X9X9X9X9X",
"9X9X9X9X9X9X*.l.-X>X-X-XV.V.z   R e.' ( }.}.}.[.( ] >.] ).{ [.{.[.{.[.[.`.[.) Q [.}.+X@Xz g   @     X.l.P.P.*Xf.k.s.i.E 9X9X9X9X",
"9X9X9X9X9X9Xt.-XP.I.-X>X=XV.l   R e.' ( XX%X&XXX^ ] >.q.'.[.[.(.(.(.(.[.[.}.L       O.#.e.o.    +   y.<Xl.U.B.l.=XI.t.l 9X9X9X9X",
"9X9X9X9X9X9Xy.P.d.f.l.f.l.u.k   R e.' ( XXOX%X X^ 8.=.W U L I g.G.G.7.U I K _..X8.o.;.;.;.$.$.x @ @ :.l.&.6.d.P.P.L.t.l 9X9X9X9X",
"9X9X9X9X9X9Xi.V.f.V.P.f.f.s.k   R 1.' ( XX%X%X X^ ] ;.x     * S.S.S.A.  <   }.&Xr.$.1.4.;.;.e.R @ @ t.-X5.6.L.-XP.g.y.E 9X9X9X9X",
"9X9X9X9X9X9Xk.=Xd.=XU.f.u.s.l   o.e.' / XX%X%X X~ ] ,.@X$X[.{ D.Z.Z.J.(.}.XX%X%XQ 4 N.@X:Xp.  ; +   t.<Xd.l.g.L.g.L.t.l 9X9X9X9X",
"9X9X9X9X9X9Xs.=Xf.B.B.g.d.i.k   z $.[ ` .X XoX.X` [ O.|.%X}.}.U.J.Y.U.'..XOX X XP $ z.#X;Xj.    @   2.>XB.L.L.B.s.g.y.| 9X9X9X9X",
"9X9X9X9X9X9Xy.I.g.B.P.d.s.y.k +     o.p.` ~ ~ ` ;.o.  Q `.%X&X$X$X$X$X&X X`.I . o 3 z.#X;Xj.  + @   :.=XB.l.l.=Xl.d.5.z 9X9X9X9X",
"9X9X9X9X9X9X:.l.k.k.s.y.y.5.j   @   j R w.8.8.w.| x   L Q _.`.[.[.[.[.[.) Q K . o , z.#X;Xj.  +     ..d.l.l.s.k.d.u.%.l 9X9X9X9X",
"9X9X9X9X9X9XX.*.:.X. .X.+.+.k     @     $.1.1.$.    ;         . . X X     . X <   r z.#X;Xj.X 1 @ + z E E  .X.%.%.l  .Z 9X9X9X9X",
"9X9X9X9X9X9X9X9X9X@.V.-Xl.d.j   @   o @ a g g p 8 3   3 s , w < w - < w a s 3 o 3 f #X#X2Xj.@ ; +    .k.>X-Xx. .9X9X9X9X9X9X9X9X",
"9X9X9X9X9X9X9X9X9X:.d.k.B.l.k                 $ n 8 1 8 d 2 @ @ + + X o 3 f 6 : 0 m #X2X2Xz.@ ; ;   :.-Xd.k.k...9X9X9X9X9X9X9X9X",
"9X9X9X9X9X9X9X9X9X=.s.k.k.g.z   o         + o s S S S m s 3 @ + + @ + o 6 d A G H ,.#X2X4X#XX ; ;   y.,Xa.f.d...9X9X9X9X9X9X9X9X",
"9X9X9X9X9X9X9X9X9X2.B.k.s.g.z           @ # @ 3 m m m n 8 > @ + @ @ + @ 3 d m S A D 2X4X5X#X9X< >   t.-Xs.l.k. .9X9X9X9X9X9X9X9X",
"9X9X9X9X9X9X9X9X9X5.P.d.s.l.k   .   @ + + + + @ o o o o + @ @ @ @ @ 9X9XO + o = o r 2X4X5X2X9X9X9X9X:.P.s.s.l.&.9X9X9X9X9X9X9X9X",
"9X9X9X9X9X9X9X9X9X2.B.d.s.a.k   + + + + + @ @ + # # 1 + + . 9X9X9X9X9X9X9X9X9X9X9X9X4X5X5X4X9X9X9X9X&.k.d.l.P.@.9X9X9X9X9X9X9X9X",
"9X9X9X9X9X9X9X9X9X2.k.u.y.5.k   1 # + + @ + + + + + @ 9X9X9X9X9X9X9X9X9X9X9X9X9X9X9X5X5X6X9X9X9X9X9X+.f.k.V.=X+.9X9X9X9X9X9X9X9X",
"9X9X9X9X9X9X9X9X9X*.y.2.5.:.z   ; 1 + = + + + 1 # 9X9X9X9X9X9X9X9X9X9X9X9X9X9X9X9X9X5X8X7X9X9X9X9X9X..s.s.s.k.X.9X9X9X9X9X9X9X9X",
"9X9X9X9X9X9X9X9X9XE Z  .Z l j ; ; ; ; 4 + + ; 9X9X9X9X9X9X9X9X9X9X9X9X9X9X9X9X9X9X9X9X9X6X9X9X9X9X9Xk Z E E  .E 9X9X9X9X9X9X9X9X"
};
