/* XPM */
static char *result[] = {
/* columns rows colors chars-per-pixel */
"64 63 205 2 ",
"   c #010101",
".  c #0A0303",
"X  c #050907",
"o  c #0A0905",
"O  c #03060A",
"+  c #040A0B",
"@  c #0B0B0A",
"#  c #0A020A",
"$  c #140303",
"%  c #130D0B",
"&  c #150D04",
"*  c #06140E",
"=  c #16120D",
"-  c #19130B",
";  c #040B13",
":  c #110F11",
">  c #0C141C",
",  c #0E1212",
"<  c #131413",
"1  c #1C1611",
"2  c #1A1C1C",
"3  c #181917",
"4  c #26130A",
"5  c #231B13",
"6  c #291F15",
"7  c #310A0A",
"8  c #06311B",
"9  c #2D2316",
"0  c #2E2318",
"q  c #33271A",
"w  c #35281B",
"e  c #392C1E",
"r  c #000228",
"t  c #0B1C25",
"y  c #0C1B29",
"u  c #1E2121",
"i  c #0F293C",
"p  c #112636",
"a  c #2B2C2C",
"s  c #262527",
"d  c #362B21",
"f  c #312F32",
"g  c #2C3332",
"h  c #343535",
"j  c #353936",
"k  c #363B3A",
"l  c #3A3B3B",
"z  c #3A373B",
"x  c #31302B",
"c  c #67011A",
"v  c #443517",
"b  c #5F1420",
"n  c #781A27",
"m  c #671020",
"M  c #453626",
"N  c #48392A",
"B  c #513F2A",
"V  c #4A3E35",
"C  c #004500",
"Z  c #005300",
"A  c #3C413E",
"S  c #4F412E",
"D  c #53412E",
"F  c #5A452E",
"G  c #4C423C",
"H  c #554633",
"J  c #594937",
"K  c #56573B",
"L  c #67553E",
"P  c #634E3B",
"I  c #042C47",
"U  c #143249",
"Y  c #003758",
"T  c #003657",
"R  c #173E5A",
"E  c #03314A",
"W  c #343D4C",
"Q  c #2C3340",
"!  c #413E42",
"~  c #16415F",
"^  c #3D4340",
"/  c #3B4A5C",
"(  c #36485B",
")  c #2E475F",
"_  c #084768",
"`  c #144362",
"'  c #11496A",
"]  c #1A4C6E",
"[  c #00517E",
"{  c #1D567C",
"}  c #1E587E",
"|  c #195277",
" . c #004871",
".. c #2D4861",
"X. c #274964",
"o. c #354B61",
"O. c #39526C",
"+. c #24567B",
"@. c #21587E",
"#. c #424543",
"$. c #494546",
"%. c #454945",
"&. c #4A4549",
"*. c #474C48",
"=. c #4A4D4A",
"-. c #534C4A",
";. c #554A45",
":. c #4D524D",
">. c #51544E",
",. c #4B4D54",
"<. c #4E4F59",
"1. c #534E51",
"2. c #4E5450",
"3. c #4E505A",
"4. c #525452",
"5. c #585255",
"6. c #555A55",
"7. c #595C56",
"8. c #5A5E59",
"9. c #5B585A",
"0. c #6E5B44",
"q. c #695640",
"w. c #5D625C",
"e. c #6E6E4A",
"r. c #7A654B",
"t. c #7C694D",
"y. c #61655E",
"u. c #64685F",
"i. c #77734F",
"p. c #635D63",
"a. c #626661",
"s. c #656A63",
"d. c #696D65",
"f. c #6B6C6A",
"g. c #6B6568",
"h. c #6D7066",
"j. c #6E726A",
"k. c #72756C",
"l. c #75796E",
"z. c #797B6F",
"x. c #7F7F61",
"c. c #736D73",
"v. c #757374",
"b. c #767A71",
"n. c #7A7D73",
"m. c #7C757C",
"M. c #7E787E",
"N. c #6F7E73",
"B. c #4A576C",
"V. c #821A29",
"C. c #86771E",
"Z. c #836E56",
"A. c #887254",
"S. c #837B52",
"D. c #8A7559",
"F. c #937A5B",
"G. c #83744A",
"H. c #7D8176",
"J. c #7D8279",
"K. c #9B8A0C",
"L. c #988923",
"P. c #908233",
"I. c #99805F",
"U. c #96845F",
"Y. c #898456",
"T. c #9D8461",
"R. c #818276",
"E. c #82857B",
"W. c #85897E",
"Q. c #A68A67",
"!. c #A78D69",
"~. c #A08663",
"^. c #A7926C",
"/. c #A79771",
"(. c #1A5982",
"). c #0E5A86",
"_. c #235D84",
"`. c #215F88",
"'. c #23618A",
"]. c #3B6387",
"[. c #266C9A",
"{. c #296E9D",
"}. c #276793",
"|. c #2A74A5",
" X c #237AA7",
".X c #2C7AA7",
"XX c #2775A7",
"oX c #216FA0",
"OX c #7F7A80",
"+X c #847C83",
"@X c #868B82",
"#X c #898E84",
"$X c #8B858B",
"%X c #898187",
"&X c #8C9187",
"*X c #8C9289",
"=X c #92978C",
"-X c #92988E",
";X c #958D95",
":X c #969B92",
">X c #9B9A99",
",X c #A7A49E",
"<X c #A49BA3",
"1X c #A7A7A7",
"2X c None",
/* pixels */
"2X2X2X2X2X2X2X2X2X2X2X2X2X2X2X2X2X2X2X2X2X2X2X2X2X2X2X2X2X2X2X2X2X2X2X2X2X2X2X2X2X2X2X2X2X2X2X2X2X2X2X2X2X2X2X2X2X2X2X2X2X2X2X2X",
"2X2X2X2X2X2X2X2X2X2X2X2X2X2X2X2X2X2X2X2X2X2X2X2X2X2X2X2.*X@X#X#X#X*X#X&X*Xd.2X2X2X2X2X2X2X2X2X2X2X2X2X2X2X2X2X2X2X2X2X2X2X2X2X2X",
"2X2X2X2X2X2X2X2X2X2X2X2X2X2X2X2X2X2X2X2X2X2X2X2X2X2X2X#X=X@X&X&X#X#X@XW.J.@Xw.2X2X2X2X2X2X2X2X2X2X2X2X2X2X2X2X2X2X2X2X2X2X2X2X2X",
"2X2X2X2X2X2X2X2X2X2X2X2X2X2X2X2X2X2X2X2X2X2X2X2X2X2Xg #Xn.n.H.n.b.J.j.s.s.d.2.2X2X2X2X2X2X2X2X2X2X2X2X2X2X2X2X2X2X2X2X2X2X2X2X2X",
"2X2X2X2X2X2X2X2X2X2X2X2X2X2X2X2X2X2X2X2X2X2X2X2X2X2Xg n.H.H.H.b.n.E.j.a.j.j.^ 2X2X2X2X2X2X2X2X2X2X2X2X2X2X2X2X2X2X2X2X2X2X2X2X2X",
"2X2X2X2X2X2X2X2X2X2X2X2X2X2X2X2X2X2X2X2X2X2X2X2X2X2X2Xw.H.n.z.H.n.E.k.s.j.a.2X2X2X2X2X2X2X2X2X2X2X2X2X2X2X2X2X2X2X2X2X2X2X2X2X2X",
"2X2X2X2X2X2X2X2X2X2X2X2X2X2X2X2X2X2X2X2X2X2X2X2X2X2X2X4.J.b.H.z.b.J.k.j.j.w.g 2X2X2X2X2X2X2X2X2X2X2X2X2X2X2X2X2X2X2X2X2X2X2X2X2X",
"2X2X2X2X2X2X2X2X2X2X2X2X2X2X2X2X2X2X2X2X2X2X2X2X2X:.=.*.k.k.J.k.n.n.k.k.k.8.2.8.2X2X2X2X2X2X2X2X2X2X2X2X2X2X2X2X2X2X2X2X2X2X2X2X",
"2X2X2X2X2X2X2X2X2X2X2X2X2X2X2X2X:.w.2X2X2X2X2Xa.H.*XJ.*.u.b.l.s.v.H.n.n.b.*.@X:X@Xj.:.2X2X2X2Xh.#.2X2X2X2X2X2X2X2X2X2X2X2X2X2X2X",
"2X2X2X2X2X2X2X2X2X2X2X2X2X2X2Xw.@XJ.>.2X2Xw.J.@XH.b.b.*.4.b.j.j.l.k.l.J.j.2.@Xb.j.@X#Xd.2X2Xk.=X&X2.2X2X2X2X2X2X2X2X2X2X2X2X2X2X",
"2X2X2X2X2X2X2X2X2X2X2X2X2X2Xj.#XJ.J.k.6.w.:XW.d.j.d.k.6.=.W.E.n.E.n.n.n.j.a.@Xk.j.s.b.*X6.h.=XW.#X#X*.2X2X2X2X2X2X2X2X2X2X2X2X2X",
"2X2X2X2X2X2X2X2X2X2X2X2X2Xw.#Xl.k.b.l.k.a.J.H.H.J.H.b.s.7.H.n.J.E.E.n.b.s.j.J.k.N.j.k.s.>.=XW.W.R.R.H.A 2X2X2X2X2X2X2X2X2X2X2X2X",
"2X2X2X2X2X2X2X2X2X2X2X2X:.#Xb.k.H.b.b.J.w.6.W.b.N.b.j.a.*.y.d.j.d.j.j.d.4.v.J.k.z.j.z.*.b.&XW.W.W.E.E.n.2X2X2X2X2X2X2X2X2X2X2X2X",
"2X2X2X2X2X2X2X2X2X2X2X2X%.b.b.j.b.b.b.b.J.2.s.l.J.a.a 2 , u u 2 2 2 2 u , a l j.j.H.y.s.&XH.E.J.H.#XW.y.2X2X2X2X2X2X2X2X2X2X2X2X",
"2X2X2X2X2X2X2X2X2X2X2X2X2X2Xs.J.b.l.j.j.J.H.:.w.a                               j 6.:.@XW.E.R.R.H.W.w.2X2X2X2X2X2X2X2X2X2X2X2X2X",
"2X2X2X2X2X2X2X2X2X2X2X2X2X2X*.w.b.b.N.H.H.d.a     O                   X     X       *.W.E.z.E.W.H.6.6.2X2X2X2X2X2X2X2X2X2X2X2X2X",
"2X2X2X2X2X2X2X2X2X2X2X2X2Xw.@X:.h.n.j.b.s.2   @                                   @   l s.h.n.H.%.H.E.%.2X2X2X2X2X2X2X2X2X2X2X2X",
"2X2X2X2X2X2X2X2X2X2X2X2X4.*XW.H.:.j.j.6.u   X                                       X   a w.y.%.b.E.E.h.j 2X2X2X2X2X2X2X2X2X2X2X",
"2X2X2X2X2X2X2X2X2X2X2X2XJ.W.k.H.a.^ 4.u   X                                               a A J.@XJ.W.J.w.2X2X2X2X2X2X2X2X2X2X2X",
"2X2X2X2X2X2X2X2X2X2X2Xa.J.k.l.J.W.w.                                                    X   #.n.H.W.E.J.z.:.2X2X2X2X2X2X2X2X2X2X",
"2X2X2X2X2X2X2X2X2X2X2X7.z.l.H.H.l.j   X                                                   X   :.H.E.H.H.k.*.2X2X2X2X2X2X2X2X2X2X",
"2X2X2X2X2X2X2X2X2X2Xd.w.6.s.k.E.s.  X                                                         2 h.H.k.s.6.w.2X2X2X2X2X2X2X2X2X2X",
"2X2X2X2X2X2X2X2X2X2XH.W.j.d.d.n.j                   X .       X X .     X X o               X   A d.w.d.k.l.:.2X2X2X2X2X2X2X2X2X",
"2X2X2X2X2X2X2X2X2X2XE.k.b.W.l.>.                      X   X O O   X   X   O                     3 :.z.J.l.l.u.2X2X2X2X2X2X2X2X2X",
"2X2X2X2X2X2X2X2X2Xd.R.l.k.h.n.%.  @               @ 1 = = = = = - = = = = = = 1 o             @   w.z.d.l.z.z.2X2X2X2X2X2X2X2X2X",
"2X2X2X2X2X2X2X2X2X6.R.k.k.k.h.A   X           O   1 w q w q w q q q q q w q q q <     O       o   >.k.k.j.l.n.2X2X2X2X2X2X2X2X2X",
"2X2X2X2X2X2X2X2X2X:.l.k.h.k.w.3           o 4 5 4 6 q q q q w q q w q q q q q q 5 4 5 1           a d.k.k.k.l.l 2X2X2X2X2X2X2X2X",
"2X2X2X2X2X2X2X2X2Xd.d.d.d.a.j   X       O % q w w w q q q q q q q q q q q w q q q w q q @ X         *.y.u.7.w.y.2X2X2X2X2X2X2X2X",
"2X2X2X2X2X2X2.j.@X:X:X:X>X=Xj           X % 9 w 0 w w q q q q q q q q q 6 X 6 w q q q q o       X   4.*X=XE.*X:X*XJ.j.j 2X2X2X2X",
"2X2X2X2X2X2Xw.H.k.j.6.y.h.k.j             % q w w w w w w 0 q q q q q e q 5 9 q q q q 6 o X         =.k.z.b.W.b.h.n.a.k 2X2X2X2X",
"2X2X2X2X2X2Xb.#Xk.J.b.f.h.k.j           X % w w w w 0 0 w q q w q w 9   L ^.q.  w q w 9 @ O     X   8.E.b.H.W.J.n.z.s.k 2X2X2X2X",
"2X2X2X2X2X2Xb.#Xj.J.#XW.l.k.l   X       @ = 6 9 0 w w w w q q q q 0 M S Z.^.0.  w q w q % @     o   a.@Xh.b.H.H.n.R.a.k 2X2X2X2X",
"2X2X2X2X2X2Xd.J.b.n.n.E.n.h.j                 1 w q e               H ^.Q.^.q.  q w w 9         @   a.*Xk.n.n.n.n.H.u.k 2X2X2X2X",
"2X2X2X2X2X2Xw.b.l.b.b.b.n.k.j     o   o H J % = 5 6 . P t.r.r.t.r.r.A.!.Q.!.D.r.N & w d P D   . o   a.*Xl.b.n.n.k.k.y.l 2X2X2X2X",
"2X2X2X2X2X2X6.k.y.s.s.s.b.j.j     o     r.Z.      1   A./.^.^.!.^.^.^.!.Q.Q.^./.J   5 d A.0.  o X   8.#Xk.j.j.j.s.s.6.l 2X2X2X2X",
"2X2X2X2X2X2X6.a.w.7.6.2.6.7.h     &   % F.Q.F.Z.      d H D H T.Q.!.F.D J H D S 5 1 F.F.^.A.  %     *.w.4.:.6.8.7.6.4.W 2X2X2X2X",
"2X2X2X2X2X2XA l l %.y.f.d.6.j     @   % U.~.Q.F.  s z 3       T.!.!.F.      t h O 5 T.Q.Q.A.  <     l 7.k.b.8.^ l A A 2X2X2X2X2X",
"2X2X2X2X2X2X2X2X2Xs.-X:X*XH.j   X     . = 4 V.n   f.1XH.Z 8   T.!.^.D.  8 Z @X1X2.  V.n 1 @     X   6.#X*X*Xb.*.2X2X2X2X2X2X2X2X",
"2X2X2X2X2X2X2X2X2Xs.#X#Xn.z.j   @   +     $ c b   u.,Xj.Z K q.~.!.^.I.P K Z E.,X-.  b c     .   @   a.=Xd.d.j.*.2X2X2X2X2X2X2X2X",
"2X2X2X2X2X2X2X2X2X7.n.#XH.z.l @             * *   q.^.e.C T.^.Q.Q.Q.!.^.S.C S.^.H   * X .       @   a.*Xk.n.b.*.2X2X2X2X2X2X2X2X",
"2X2X2X2X2X2X2X2X2X6.k.n.R.z.l   a ! u       . %   G Z.D.S.T.!.!.Q.!.Q.!.T.S.r.0.d   $ .         X   w.@Xj.j.k.*.2X2X2X2X2X2X2X2X",
"2X2X2X2X2X2X2X2X2X6.k.H.R.k.j   l p.s   O         f W D./.^.Q.Q.Q.!.!.!.!.^.0.  % X O           X   6.E.y.y.j.*.2X2X2X2X2X2X2X2X",
"2X2X2X2X2X2X2X2X2X8.k.l.h.d.z   z 5.&.&.&.&.&.&.$.&.1.G e &.3.<.<.<.,.1.#.M 9   '.[.y               2.n.s.w.a.%.2X2X2X2X2X2X2X2X",
"2X2X2X2X2X2X2X2X2Xw.k.d.d.u.j   V 3.,.3.<.<.<.<.<.<.1.h r E Y Y T Y Y Y E r y > [.|.R p >           :.k.j.a.j.:.2X2X2X2X2X2X2X2X",
"2X2X2X2X2X2X2X2X2Xg ^ %.k a j   z 5..._ ` ` ` ` _ o.-.O.@.+.+.+.+.+.+.+.+.+.(.{ |..X XoX            #.*.#.*.*.g 2X2X2X2X2X2X2X2X",
"2X2X2X2X2X2X6.n.#X&X#X#XJ.J.l   z 5...' _._._._.' o.-.O.| | +.+.+.+.+.| { { ] R } _.].].h a         =.n.E.E.E.v.n.j.d.^ 2X2X2X2X",
"2X2X2X2X2X2Xa.#XE.W.#X*X@XJ.z   z 5.o.' |..X.X[._ / -.O.(.} @.[ [ [ [ { { _.U       G ;.5.!     @   s.-Xn.R.n.n.@XW.a.k 2X2X2X2X",
"2X2X2X2X2X2Xs.E.k.l.n.l.n.d.z   W 5...' {.|.|.[._ ) -.W I U U i.i.Y.e.I U i | }./ #.,.-.,.&.&.f X X w.m.>.d.k.E.E.H.a.k 2X2X2X2X",
"2X2X2X2X2X2Xd.J.b.J.E.l.k.h.j   z 5...] {.|.|.[.' ) -.h     & L.L.L.C.  <   _..XB.&.1.1.1.,.5.z o X y.#Xy.d.n.*XJ.H.s.^ 2X2X2X2X",
"2X2X2X2X2X2Xb.#Xk.@XR.l.h.j.l   z 9..._ |.|..X[._ o.;.].XX(.] P.K.K.G. .'.|.|..XR 4 g.c.v.p.  : @   a.=Xk.n.D.J.n.n.s.k 2X2X2X2X",
"2X2X2X2X2X2Xj.#Xk.R.H.z.j.j.j   h &.( X.}.[.oX}...( V ].XX`._.x.Y.Y.l.).}.|.[.[.I $ c.c.+Xp.    X   w.*Xn.R.H.H.j.n.s.^ 2X2X2X2X",
"2X2X2X2X2X2Xs.W.b.H.E.k.k.s.j @     ! 9.X._ _ X.5.!   ~ _.{..X X X X X.X[.| U .   3 c.c.m.p.  @ o   7.@XR.n.z.@Xn.j.w.A 2X2X2X2X",
"2X2X2X2X2X2X8.n.b.b.j.s.s.y.h   @   f z ( ,./ ( z a   U R ] @.+.+.+.{ { ] R i . O 3 c.c.OXp.  @     *.v.H.b.j.n.v.s.2.k 2X2X2X2X",
"2X2X2X2X2X2X=.6.8.=.%.=.=.:.h     X     &.5.1.$.    %           o o . X #   # <   2 c.c.OXp.O :   , l ^ ^ %.=.:.:.k *.A 2X2X2X2X",
"2X2X2X2X2X2X2X2X2X>.J.#Xn.k.j       # X s s s s 9 5   2 d 2 > > > > > > u d 3 # 5 d c.m.+Xg.o : @   %.b.*X*Xb.%.2X2X2X2X2X2X2X2X",
"2X2X2X2X2X2X2X2X2X8.k.b.H.n.j                 % w q : 0 e 1 X @ @ o o X 6 d 6 < q N v.+X+Xc.o < <   8.#Xj.b.b.*.2X2X2X2X2X2X2X2X",
"2X2X2X2X2X2X2X2X2X7.j.b.b.z.k   X         @ O 0 B B F M w 3 @ @ o o @ O 6 d B J F J +X+X;Xc.X < <   s.*Xh.l.k.%.2X2X2X2X2X2X2X2X",
"2X2X2X2X2X2X2X2X2Xw.H.b.j.z.l           o @ O 5 N M M d 6 1 O @ o X @ O 5 q M F B H %X$X;Xm.2X2 3   a.&Xj.n.b.*.2X2X2X2X2X2X2X2X",
"2X2X2X2X2X2X2X2X2Xy.R.k.j.n.j   O   o @ @ @ @ @ O O   O : O o X O o 2X2XX + O O   2 $X;X>X+X2X2X2X2X8.J.j.k.H.:.2X2X2X2X2X2X2X2X",
"2X2X2X2X2X2X2X2X2Xy.J.k.j.h.j   @ @ @ @ @ o X @ @ % % @ @ # 2X2X2X2X2X2X2X2X2X2X2X2X;X>X<X2X2X2X2X2X4.n.k.b.E.:.2X2X2X2X2X2X2X2X",
"2X2X2X2X2X2X2X2X2Xw.b.d.s.y.j   , @ @ @ o @ @ @ @ @ X 2X2X2X2X2X2X2X2X2X2X2X2X2X2X2X2X<X<X2X2X2X2X2X:.l.b.J.W.:.2X2X2X2X2X2X2X2X",
"2X2X2X2X2X2X2X2X2X6.s.w.y.8.l   < , @ + @ @ @ : : 2X2X2X2X2X2X2X2X2X2X2X2X2X2X2X2X2X2X2X2X2X2X2X2X2X%.j.j.j.n.=.2X2X2X2X2X2X2X2X",
"2X2X2X2X2X2X2X2X2X^ A %.A k h < < < < 7 @ @ < 2X2X2X2X2X2X2X2X2X2X2X2X2X2X2X2X2X2X2X2X2X2X2X2X2X2X2Xj A ^ ^ %.^ 2X2X2X2X2X2X2X2X"
};
