/* XPM */
static char *result[] = {
/* columns rows colors chars-per-pixel */
"64 64 202 2 ",
"   c #010000",
".  c #0C0000",
"X  c #00020B",
"o  c #040B0F",
"O  c #0D0B0C",
"+  c #110000",
"@  c #150A03",
"#  c #040B11",
"$  c #0B0F11",
"%  c #000511",
"&  c #001519",
"*  c #131313",
"=  c #1C1918",
"-  c #0A150F",
";  c #221E19",
":  c #231C16",
">  c #2A1303",
",  c #03281C",
"<  c #29221A",
"1  c #282119",
"2  c #352A1F",
"3  c #392A1B",
"4  c #2C2400",
"5  c #00003F",
"6  c #141F29",
"7  c #1F2429",
"8  c #132732",
"9  c #2A292C",
"0  c #2C2621",
"q  c #352B22",
"w  c #3A2E22",
"e  c #312E2F",
"r  c #3E3123",
"t  c #3B3328",
"y  c #303835",
"u  c #443525",
"i  c #4C3B2A",
"p  c #493A27",
"a  c #513F2D",
"s  c #4D3F34",
"d  c #006D00",
"f  c #0C502F",
"g  c #53412D",
"h  c #58452F",
"j  c #544332",
"k  c #5A4632",
"l  c #5E4D39",
"z  c #4F402E",
"x  c #604C36",
"c  c #6C553C",
"v  c #6C5533",
"b  c #695321",
"n  c #000A44",
"m  c #0C304B",
"M  c #423E40",
"N  c #1D435F",
"B  c #22425B",
"V  c #04476E",
"C  c #1C4868",
"Z  c #004A79",
"A  c #145073",
"S  c #275475",
"D  c #224E6F",
"F  c #48464A",
"G  c #595559",
"H  c #4D4C52",
"J  c #705B44",
"K  c #645D5B",
"L  c #7D6649",
"P  c #75655A",
"I  c #485365",
"U  c #556177",
"Y  c #6B656A",
"T  c #746A67",
"R  c #736C71",
"E  c #7D767B",
"W  c #7A7576",
"Q  c #A50B31",
"!  c #932436",
"~  c #B53444",
"^  c #CC2A41",
"/  c #C63346",
"(  c #816549",
")  c #856E53",
"_  c #816F5E",
"`  c #897355",
"'  c #967C5D",
"]  c #85746E",
"[  c #837672",
"{  c #80777B",
"}  c #837A7E",
"|  c #008200",
" . c #CDB833",
".. c #EED40D",
"X. c #DDC738",
"o. c #EDD534",
"O. c #818A5C",
"+. c #938561",
"@. c #A18665",
"#. c #AA8D6A",
"$. c #BC9D76",
"%. c #AC906C",
"&. c #B1AA77",
"*. c #C3A47B",
"=. c #CBAA7F",
"-. c #C6BE7E",
";. c #CCBF6B",
":. c #DCC852",
">. c #00598C",
",. c #00578A",
"<. c #1B6E9E",
"1. c #29638C",
"2. c #276A96",
"3. c #37709A",
"4. c #036EA0",
"5. c #0773AA",
"6. c #1C72A3",
"7. c #1571A3",
"8. c #2875A7",
"9. c #367DAE",
"0. c #4D7397",
"q. c #4C7398",
"w. c #437199",
"e. c #567494",
"r. c #5B7695",
"t. c #5A708A",
"y. c #757984",
"u. c #7A7D8C",
"i. c #7A7882",
"p. c #617590",
"a. c #5A7FA5",
"s. c #007EC1",
"d. c #837D83",
"f. c #887E83",
"g. c #3486BD",
"h. c #3C87BD",
"j. c #3A86BB",
"k. c #7D8081",
"l. c #5D82A8",
"z. c #4087BC",
"x. c #7488A7",
"c. c #0081C1",
"v. c #1B8CCD",
"b. c #2888C4",
"n. c #3489C2",
"m. c #378CC7",
"M. c #3993CE",
"N. c #3B97D5",
"B. c #399EE0",
"V. c #3EA6EA",
"C. c #3AB9FF",
"Z. c #39AFF9",
"A. c #4996D0",
"S. c #619ACD",
"D. c #5EA0D8",
"F. c #41AAEF",
"G. c #42A5E8",
"H. c #43ADF3",
"J. c #44B3FC",
"K. c #46BAFF",
"L. c #49BDFF",
"P. c #46C1FF",
"I. c #8A8185",
"U. c #878086",
"Y. c #91888E",
"T. c #989198",
"R. c #A79D95",
"E. c #ADA4AC",
"W. c #A4A3A5",
"Q. c #B5ACB5",
"!. c #B7AEB8",
"~. c #B8AFB8",
"^. c #BCB3BC",
"/. c #B1B5A5",
"(. c #CBBD82",
"). c #C6B388",
"_. c #D8B688",
"`. c #CDAE8B",
"'. c #E3BD8E",
"]. c #C0B6BF",
"[. c #ACC1B1",
"{. c #D2CA87",
"}. c #C3C396",
"|. c #EBC695",
" X c #EDC996",
".X c #E5CA93",
"XX c #F2CC99",
"oX c #F3C897",
"OX c #FCD49F",
"+X c #CCCEB8",
"@X c #FFD6A1",
"#X c #FFDBA5",
"$X c #FFDFA9",
"%X c #FFE2AB",
"&X c #FFE4A8",
"*X c #C0B7C0",
"=X c #C5BBC5",
"-X c #CAD5CC",
";X c white",
":X c #FFFCF2",
">X c #FFF8EF",
",X c None",
/* pixels */
",X,X,X,X,X,X,X,X,X,X,X,X,X,X,X,X,X,X,X,X,X,X,X,X,X,X,X,X,X,X,X,X,X,X,X,X,X,X,X,X,X,X,X,X,X,X,X,X,X,X,X,X,X,X,X,X,X,X,X,X,X,X,X,X",
",X,X,X,X,X,X,X,X,X,X,X,X,X,X,X,X,X,X,X,X,X,X,X,X,X,X,X,X,X,X,X,X,X,X,X,X,X,X,X,X,X,X,X,X,X,X,X,X,X,X,X,X,X,X,X,X,X,X,X,X,X,X,X,X",
",X,X,X,X,X,X,X,X,X,X,X,X,X,X,X,X,X,X,X,X,X,X,X,X,X,X,X,X,X,X,X,X,X,X,X,X,X,X,X,X,X,X,X,X,X,X,X,X,X,X,X,X,X,X,X,X,X,X,X,X,X,X,X,X",
",X,X,X,X,X,X,X,X,X,X,X,X,X,X,X,X,X,X,X,X,X,X,X,X,X,X,X,X,X,X,X,X,X,X,X,X,X,X,X,X,X,X,X,X,X,X,X,X,X,X,X,X,X,X,X,X,X,X,X,X,X,X,X,X",
",X,X,X,X,X,X,X,X,X,X,X,X,X,X,X,X,X,X,X,X,X,X,X,X,X,X,X,X,X,X,X,X,X,X,X,X,X,X,X,X,X,X,X,X,X,X,X,X,X,X,X,X,X,X,X,X,X,X,X,X,X,X,X,X",
",X,X,X,X,X,X,X,X,X,X,X,X,X,X,X,X,X,X,X,X,X,X,X,X,X,X,X,X,X,X,X,X,X,X,X,X,X,X,X,X,X,X,X,X,X,X,X,X,X,X,X,X,X,X,X,X,X,X,X,X,X,X,X,X",
",X,X,X,X,X,X,X,X,X,X,X,X,X,X,X,X,X,X,X,X,X,X,X,X,X,X,X,X,X,X,X,X,X,X,X,X,X,X,X,X,X,X,X,X,X,X,X,X,X,X,X,X,X,X,X,X,X,X,X,X,X,X,X,X",
",X,X,X,X,X,X,X,X,X,X,X,X,X,X,X,X,X,X,X,X,X,X,X,X,X,X,X,X,X,X,X,X,X,X,X,X,X,X,X,X,X,X,X,X,X,X,X,X,X,X,X,X,X,X,X,X,X,X,X,X,X,X,X,X",
",X,X,X,X,X,X,X,X,X,X,X,X,X,X,X,X,X,X,X,X,X,X,X,X,X,X,X,X,X,X,X,X,X,X,X,X,X,X,X,X,X,X,X,X,X,X,X,X,X,X,X,X,X,X,X,X,X,X,X,X,X,X,X,X",
",X,X,X,X,X,X,X,X,X,X,X,X,X,X,X,X,X,X,X,X,X,X,X,X,X,X,X,X,X,X,X,X,X,X,X,X,X,X,X,X,X,X,X,X,X,X,X,X,X,X,X,X,X,X,X,X,X,X,X,X,X,X,X,X",
",X,X,X,X,X,X,X,X,X,X,X,X,X,X,X,X,X,X,X,X,X,X,X,X,X,X,X,X,X,X,X,X,X,X,X,X,X,X,X,X,X,X,X,X,X,X,X,X,X,X,X,X,X,X,X,X,X,X,X,X,X,X,X,X",
",X,X,X,X,X,X,X,X,X,X,X,X,X,X,X,X,X,X,X,X,X,X,X,X,X,X,X,X,X,X,X,X,X,X,X,X,X,X,X,X,X,X,X,X,X,X,X,X,X,X,X,X,X,X,X,X,X,X,X,X,X,X,X,X",
",X,X,X,X,X,X,X,X,X,X,X,X,X,X,X,X,X,X,X,X,X,X,X,X,X,X$ o o o # # o o # o # $ o # ,X,X,X,X,X,X,X,X,X,X,X,X,X,X,X,X,X,X,X,X,X,X,X,X",
",X,X,X,X,X,X,X,X,X,X,X,X,X,X,X,X,X,X,X,X,X,X,X,X,X,X< 1 1 1 1 1 1 1 1 1 1 1 1 < ,X,X,X,X,X,X,X,X,X,X,X,X,X,X,X,X,X,X,X,X,X,X,X,X",
",X,X,X,X,X,X,X,X,X,X,X,X,X,X,X,X,X,X,X,X,X,Xo o X 2 h g g g g g g g g g g g g g 1 X o o ,X,X,X,X,X,X,X,X,X,X,X,X,X,X,X,X,X,X,X,X",
",X,X,X,X,X,X,X,X,X,X,X,X,X,X,X,X,X,X,X,X,X,X2 w 2 u g g g g g a g g g g g g g g u 2 w q ,X,X,X,X,X,X,X,X,X,X,X,X,X,X,X,X,X,X,X,X",
",X,X,X,X,X,X,X,X,X,X,X,X,X,X,X,X,X,X,X,X$ ; g g g g g a g a a g g a g a g j g g g g g a * * ,X,X,X,X,X,X,X,X,X,X,X,X,X,X,X,X,X,X",
",X,X,X,X,X,X,X,X,X,X,X,X,X,X,X,X,X,X,X,X$ : a g a g g g g g g g a g a j u O u g g g g a * * ,X,X,X,X,X,X,X,X,X,X,X,X,X,X,X,X,X,X",
",X,X,X,X,X,X,X,X,X,X,X,X,X,X,X,X,X,X,X,X$ : a a g a g g a g a g g a g k z t i g a g g i * * ,X,X,X,X,X,X,X,X,X,X,X,X,X,X,X,X,X,X",
",X,X,X,X,X,X,X,X,X,X,X,X,X,X,X,X,X,X,X,X$ ; g g a g a g g g g g g j p   @.#X@.  g g g i * * ,X,X,X,X,X,X,X,X,X,X,X,X,X,X,X,X,X,X",
",X,X,X,X,X,X,X,X,X,X,X,X,X,X,X,X,X,X,X,X; < p i a a a a i g j g g i c L *.&X%.  j g g i ; : ,X,X,X,X,X,X,X,X,X,X,X,X,X,X,X,X,X,X",
",X,X,X,X,X,X,X,X,X,X,X,X,X,X,X,X,X,X,X,X,X,Xo < h g k               ) %X@X&X@.  i h g i     ,X,X,X,X,X,X,X,X,X,X,X,X,X,X,X,X,X,X",
",X,X,X,X,X,X,X,X,X,X,X,X,X,X,X,X,X,X,X,X,X,X; ; w u @ +.*.$.$.$.$.$.`.@X@X@X_.$.J : g x ' ' ,X,X,X,X,X,X,X,X,X,X,X,X,X,X,X,X,X,X",
",X,X,X,X,X,X,X,X,X,X,X,X,X,X,X,X,X,X,X,X*.=.    o 0   `.%X%X$X$X#X&X#X#X@X@X#X%X'   2 x `.).,X,X,X,X,X,X,X,X,X,X,X,X,X,X,X,X,X,X",
",X,X,X,X,X,X,X,X,X,X,X,X,X,X,X,X,X,X,X,XXX@X|.`.  @   x ) L ) oX@X@X|.L ) ) L L q q _. X#XoX,X,X,X,X,X,X,X,X,X,X,X,X,X,X,X,X,X,X",
",X,X,X,X,X,X,X,X,X,X,X,X,X,X,X,X,X,X,X,X#X@X@X'.  y K y     X  X@X#X_.      8 H & w oX@X@X,X,X,X,X,X,X,X,X,X,X,X,X,X,X,X,X,X,X,X",
",X,X,X,X,X,X,X,X,X,X,X,X,X,X,X,X,X,X,X,X,X,X^ ~   W.;X[.| f    X#X#X_.  f | -X;Xk.  / ^ ,X,X,X,X,X,X,X,X,X,X,X,X,X,X,X,X,X,X,X,X",
",X,X,X,X,X,X,X,X,X,X,X,X,X,X,X,X,X,X,X,X,X,XQ !   R.:X/.| +.@. X@X#X|.' O.| +X:X[   ! Q ,X,X,X,X,X,X,X,X,X,X,X,X,X,X,X,X,X,X,X,X",
",X,X,X,X,X,X,X,X,X,X,X,X,X,X,X,X,X,X,X,X,X,X& ,   #.%X&.d .X$X@X@X@X@X&X{.d (.#X)   , - ,X,X,X,X,X,X,X,X,X,X,X,X,X,X,X,X,X,X,X,X",
",X,X,X,X,X,X,X,X,X,X,X,X,X,X,X,X,XE ,X,X,X,X,X,X  _ `.).{.XX@X@X@X@X@X@X X{.$.%.l   ,X,X,X,X,X,X,X,X,X,X,X,X,X,X,X,X,X,X,X,X,X,X",
",X,X,X,X,X,X,X,X,X,X,X,X,X,X,X,X,XT.,X,X,X,X,X,X  H U _.$X#X@X@X@X@X@X@X@X&X#.  = * ,X,X,X,X,X,X,X,X,X,X,X,X,X,X,X,X,X,X,X,X,X,X",
",X,X,X,X,X,X,X,X,X,X,X,X,X,X,X,X,Xf.E E { E { E R W d.P b R y.y.y.y.y.y.R v p + A.F.m   ,X,X,X,X,X,X,X,X,X,X,X,X,X,X,X,X,X,X,X,X",
",X,X,X,X,X,X,X,X,X,X,X,X,X,X,X,X,XU.y.u.u.u.u.u.y.i.d.I n Z >.,.,.,.,.>.Z n m 8 V.K.1.B ,X,X,X,X,X,X,X,X,X,X,X,X,X,X,X,X,X,X,X,X",
",X,X,X,X,X,X,X,X,X,X,X,X,X,X,X,X,XI.q.7.2.2.2.2.7.e.[ l.n.z.h.h.h.h.h.h.h.h.n.b.H.L.K.Z.    ,X,X,X,X,X,X,X,X,X,X,X,X,X,X,X,X,X,X",
",X,X,X,X,X,X,X,X,X,X,X,X,X,X,X,X,XI.q.6.m.M.M.m.6.e.[ a.b.g.g.j.j.j.j.g.g.n.8.2.n.M.D.S.G H ,X,X,X,X,X,X,X,X,X,X,X,X,X,X,X,X,X,X",
",X,X,X,X,X,X,X,X,X,X,X,X,X,X,X,X,XI.q.8.H.K.L.H.<.e.[ l.b.g.m.c.c.s.c.n.n.m.D .     P ] f.Y   ,X,X,X,X,X,X,X,X,X,X,X,X,X,X,X,X,X",
",X,X,X,X,X,X,X,X,X,X,X,X,X,X,X,X,XI.q.8.H.K.J.G.7.e.{ U V D S &.(.(.&.V D C 9.B.p.T i.i.E W R ,X,X,X,X,X,X,X,X,X,X,X,X,X,X,X,X,X",
",X,X,X,X,X,X,X,X,X,X,X,X,X,X,X,X,Xf.q.8.H.J.K.G.<.e.{ G   X 4 X.o.o. .  7   M.P.x.] d.{ i.i.f.,X,X,X,X,X,X,X,X,X,X,X,X,X,X,X,X,X",
",X,X,X,X,X,X,X,X,X,X,X,X,X,X,X,X,XY.q.5.H.K.K.Z.4.e.] S.C.n.9.:.o...;.5.N.J.J.L.1.> W.Q.^.E.,X,X,X,X,X,X,X,X,X,X,X,X,X,X,X,X,X,X",
",X,X,X,X,X,X,X,X,X,X,X,X,X,X,X,X,X{ e.w.G.F.F.A.w.t.P S.Z.M.A.}.{.{./.v.G.H.V.G.A @ E.^.*X!.,X,X,X,X,X,X,X,X,X,X,X,X,X,X,X,X,X,X",
",X,X,X,X,X,X,X,X,X,X,X,X,X,X,X,X,X,XE Y.3.4.4.q.I.Y   2.n.H.L.C.C.C.C.C.V.g.S . X 9 E.!.].Q.,X,X,X,X,X,X,X,X,X,X,X,X,X,X,X,X,X,X",
",X,X,X,X,X,X,X,X,X,X,X,X,X,X,X,X,X,X,X,Xp.r.r.t.G H   D 2.9.n.g.g.g.g.g.9.1.C @ o 9 E.~.*XQ.,X,X,X,X,X,X,X,X,X,X,X,X,X,X,X,X,X,X",
",X,X,X,X,X,X,X,X,X,X,X,X,X,X,X,X,X,X,X,X{ f.} T     = .       . . . .       + 7   9 E.!.*XQ.,X,X,X,X,X,X,X,X,X,X,X,X,X,X,X,X,X,X",
",X,X,X,X,X,X,X,X,X,X,X,X,X,X,X,X,X,X,X,X,X,XF M i w   q s 9 8 ,X,X,X,X8 e s 0 % 3 j E.~.].!.,X,X,X,X,X,X,X,X,X,X,X,X,X,X,X,X,X,X",
",X,X,X,X,X,X,X,X,X,X,X,X,X,X,X,X,X,X,X,X,X,X  > h p = u h 1   ,X,X,X,X  w j r ; p l E.~.*X!.,X,X,X,X,X,X,X,X,X,X,X,X,X,X,X,X,X,X",
",X,X,X,X,X,X,X,X,X,X,X,X,X,X,X,X,X,X,X,X,X,X% i ( L ( v g w # ,X,X,X,X# r g c L L ( E.!.*XQ.,X,X,X,X,X,X,X,X,X,X,X,X,X,X,X,X,X,X",
",X,X,X,X,X,X,X,X,X,X,X,X,X,X,X,X,X,X,X,X,X,XX r c c c k u < o ,X,X,X,Xo 2 u x J v J E.!.*XQ.,X,X,X,X,X,X,X,X,X,X,X,X,X,X,X,X,X,X",
",X,X,X,X,X,X,X,X,X,X,X,X,X,X,X,X,X,X,X,X,X,X,X,XX X X o $ ,X,X,X,X,X,X,X,X$ X #   7 E.~.*XQ.,X,X,X,X,X,X,X,X,X,X,X,X,X,X,X,X,X,X",
",X,X,X,X,X,X,X,X,X,X,X,X,X,X,X,X,X,X,X,X,X,X,X,X,X,X,X,X,X,X,X,X,X,X,X,X,X,X,X,X,X,XE.!.^.Q.,X,X,X,X,X,X,X,X,X,X,X,X,X,X,X,X,X,X",
",X,X,X,X,X,X,X,X,X,X,X,X,X,X,X,X,X,X,X,X,X,X,X,X,X,X,X,X,X,X,X,X,X,X,X,X,X,X,X,X,X,X~.!.^.!.,X,X,X,X,X,X,X,X,X,X,X,X,X,X,X,X,X,X",
",X,X,X,X,X,X,X,X,X,X,X,X,X,X,X,X,X,X,X,X,X,X,X,X,X,X,X,X,X,X,X,X,X,X,X,X,X,X,X,X,X,XQ.^.=X!.,X,X,X,X,X,X,X,X,X,X,X,X,X,X,X,X,X,X",
",X,X,X,X,X,X,X,X,X,X,X,X,X,X,X,X,X,X,X,X,X,X,X,X,X,X,X,X,X,X,X,X,X,X,X,X,X,X,X,X,X,XQ.Q.!.,X,X,X,X,X,X,X,X,X,X,X,X,X,X,X,X,X,X,X",
",X,X,X,X,X,X,X,X,X,X,X,X,X,X,X,X,X,X,X,X,X,X,X,X,X,X,X,X,X,X,X,X,X,X,X,X,X,X,X,X,X,X,X,X,X,X,X,X,X,X,X,X,X,X,X,X,X,X,X,X,X,X,X,X",
",X,X,X,X,X,X,X,X,X,X,X,X,X,X,X,X,X,X,X,X,X,X,X,X,X,X,X,X,X,X,X,X,X,X,X,X,X,X,X,X,X,X,X,X,X,X,X,X,X,X,X,X,X,X,X,X,X,X,X,X,X,X,X,X",
",X,X,X,X,X,X,X,X,X,X,X,X,X,X,X,X,X,X,X,X,X,X,X,X,X,X,X,X,X,X,X,X,X,X,X,X,X,X,X,X,X,X,X,X,X,X,X,X,X,X,X,X,X,X,X,X,X,X,X,X,X,X,X,X",
",X,X,X,X,X,X,X,X,X,X,X,X,X,X,X,X,X,X,X,X,X,X,X,X,X,X,X,X,X,X,X,X,X,X,X,X,X,X,X,X,X,X,X,X,X,X,X,X,X,X,X,X,X,X,X,X,X,X,X,X,X,X,X,X",
",X,X,X,X,X,X,X,X,X,X,X,X,X,X,X,X,X,X,X,X,X,X,X,X,X,X,X,X,X,X,X,X,X,X,X,X,X,X,X,X,X,X,X,X,X,X,X,X,X,X,X,X,X,X,X,X,X,X,X,X,X,X,X,X",
",X,X,X,X,X,X,X,X,X,X,X,X,X,X,X,X,X,X,X,X,X,X,X,X,X,X,X,X,X,X,X,X,X,X,X,X,X,X,X,X,X,X,X,X,X,X,X,X,X,X,X,X,X,X,X,X,X,X,X,X,X,X,X,X",
",X,X,X,X,X,X,X,X,X,X,X,X,X,X,X,X,X,X,X,X,X,X,X,X,X,X,X,X,X,X,X,X,X,X,X,X,X,X,X,X,X,X,X,X,X,X,X,X,X,X,X,X,X,X,X,X,X,X,X,X,X,X,X,X",
",X,X,X,X,X,X,X,X,X,X,X,X,X,X,X,X,X,X,X,X,X,X,X,X,X,X,X,X,X,X,X,X,X,X,X,X,X,X,X,X,X,X,X,X,X,X,X,X,X,X,X,X,X,X,X,X,X,X,X,X,X,X,X,X",
",X,X,X,X,X,X,X,X,X,X,X,X,X,X,X,X,X,X,X,X,X,X,X,X,X,X,X,X,X,X,X,X,X,X,X,X,X,X,X,X,X,X,X,X,X,X,X,X,X,X,X,X,X,X,X,X,X,X,X,X,X,X,X,X",
",X,X,X,X,X,X,X,X,X,X,X,X,X,X,X,X,X,X,X,X,X,X,X,X,X,X,X,X,X,X,X,X,X,X,X,X,X,X,X,X,X,X,X,X,X,X,X,X,X,X,X,X,X,X,X,X,X,X,X,X,X,X,X,X",
",X,X,X,X,X,X,X,X,X,X,X,X,X,X,X,X,X,X,X,X,X,X,X,X,X,X,X,X,X,X,X,X,X,X,X,X,X,X,X,X,X,X,X,X,X,X,X,X,X,X,X,X,X,X,X,X,X,X,X,X,X,X,X,X",
",X,X,X,X,X,X,X,X,X,X,X,X,X,X,X,X,X,X,X,X,X,X,X,X,X,X,X,X,X,X,X,X,X,X,X,X,X,X,X,X,X,X,X,X,X,X,X,X,X,X,X,X,X,X,X,X,X,X,X,X,X,X,X,X"
};
