/* XPM */
static char *result[] = {
/* columns rows colors chars-per-pixel */
"64 63 200 2 ",
"   c #010101",
".  c #0A0303",
"X  c #040906",
"o  c #0A0905",
"O  c #03050A",
"+  c #050A0B",
"@  c #0B0B0A",
"#  c #0A020A",
"$  c #130E0A",
"%  c #160802",
"&  c #06120C",
"*  c #15120D",
"=  c #1C150E",
"-  c #151100",
";  c #100F10",
":  c #0E1112",
">  c #0C1319",
",  c #0A161A",
"<  c #131414",
"1  c #1C1712",
"2  c #1C1914",
"3  c #1A1C1C",
"4  c #16181B",
"5  c #060C11",
"6  c #24150E",
"7  c #231B13",
"8  c #281F14",
"9  c #201E1D",
"0  c #310A0A",
"q  c #003D00",
"w  c #052B17",
"e  c #2D2216",
"r  c #2D231A",
"t  c #312619",
"y  c #34291C",
"u  c #302417",
"i  c #3D2F14",
"p  c #000223",
"a  c #041727",
"s  c #1E2121",
"d  c #0D2333",
"f  c #07283E",
"g  c #162D3F",
"h  c #232224",
"j  c #2B2C2C",
"k  c #2A2728",
"l  c #3C2F22",
"z  c #3F3123",
"x  c #2C3332",
"c  c #343335",
"v  c #353936",
"b  c #363B3A",
"n  c #3A3C3B",
"m  c #393637",
"M  c #2C2F32",
"N  c #5C0518",
"B  c #54111C",
"V  c #6E121F",
"C  c #751723",
"Z  c #691A24",
"A  c #423424",
"S  c #463A2A",
"D  c #4C3C2C",
"F  c #463828",
"G  c #413D3E",
"H  c #453C34",
"J  c #513E29",
"K  c #004A00",
"L  c #3C413E",
"P  c #786B1A",
"I  c #4C4537",
"U  c #544432",
"Y  c #5D4C38",
"T  c #564A35",
"R  c #52412F",
"E  c #62513B",
"W  c #614F3B",
"Q  c #6D6A3D",
"!  c #042A43",
"~  c #00304F",
"^  c #0F3046",
"/  c #15374F",
"(  c #013D5C",
")  c #0B3E5C",
"_  c #003251",
"`  c #123A55",
"'  c #173B55",
"]  c #112C40",
"[  c #2E3643",
"{  c #333F4E",
"}  c #2A3F54",
"|  c #243F57",
" . c #423D41",
".. c #0C415F",
"X. c #10415F",
"o. c #3D4340",
"O. c #2C4156",
"+. c #294259",
"@. c #334253",
"#. c #31485F",
"$. c #024163",
"%. c #1A4C6D",
"&. c #194563",
"*. c #004770",
"=. c #004970",
"-. c #134E72",
";. c #1B4E71",
":. c #1D557A",
">. c #1C5176",
",. c #0B5078",
"<. c #204D6E",
"1. c #334A61",
"2. c #215579",
"3. c #345878",
"4. c #424544",
"5. c #4A4442",
"6. c #454945",
"7. c #43444B",
"8. c #4A4549",
"9. c #474B48",
"0. c #4B4C4B",
"q. c #4D524D",
"w. c #51544E",
"e. c #454751",
"r. c #534E51",
"t. c #4E5450",
"y. c #525552",
"u. c #555A55",
"i. c #595C56",
"p. c #595459",
"a. c #5A5E5A",
"s. c #575B58",
"d. c #6D5B42",
"f. c #715E45",
"g. c #605A55",
"h. c #5D625C",
"j. c #666446",
"k. c #7A664B",
"l. c #756D4C",
"z. c #756848",
"x. c #7B764D",
"c. c #61655E",
"v. c #666C5E",
"b. c #786655",
"n. c #727256",
"m. c #414E60",
"M. c #635E63",
"N. c #626661",
"B. c #656A63",
"V. c #696D65",
"C. c #6A646A",
"Z. c #6A6D69",
"A. c #6D7066",
"S. c #6E726A",
"D. c #647067",
"F. c #72756C",
"G. c #75796E",
"H. c #797B6F",
"J. c #716B71",
"K. c #747473",
"L. c #767A71",
"P. c #7A7D73",
"I. c #7B757B",
"U. c #8B7C0A",
"Y. c #86791E",
"T. c #877A27",
"R. c #816B4F",
"E. c #856E51",
"W. c #8B7456",
"Q. c #8A7656",
"!. c #967D5D",
"~. c #7D8176",
"^. c #7D8279",
"/. c #96825F",
"(. c #968361",
"). c #968865",
"_. c #808276",
"`. c #82857B",
"'. c #85897E",
"]. c #1D5B83",
"[. c #225D85",
"{. c #1D6D96",
"}. c #1D6390",
"|. c #22628C",
" X c #246692",
".X c #256B96",
"XX c #286F96",
"oX c #257096",
"OX c #817B82",
"+X c #868B82",
"@X c #898E84",
"#X c #8B848A",
"$X c #8C9187",
"%X c #8C9289",
"&X c #93968D",
"*X c #92988E",
"=X c #969B92",
"-X c #989A96",
";X c #928B92",
":X c None",
/* pixels */
":X:X:X:X:X:X:X:X:X:X:X:X:X:X:X:X:X:X:X:X:X:X:X:X:X:X:X:X:X:X:X:X:X:X:X:X:X:X:X:X:X:X:X:X:X:X:X:X:X:X:X:X:X:X:X:X:X:X:X:X:X:X:X:X",
":X:X:X:X:X:X:X:X:X:X:X:X:X:X:X:X:X:X:X:X:X:X:X:X:X:X:Xt.%X@X$X+X+X%X%X@X%XZ.:X:X:X:X:X:X:X:X:X:X:X:X:X:X:X:X:X:X:X:X:X:X:X:X:X:X",
":X:X:X:X:X:X:X:X:X:X:X:X:X:X:X:X:X:X:X:X:X:X:X:X:X:X:X@X&X'.$X$X@X@X+X+X'.`.h.:X:X:X:X:X:X:X:X:X:X:X:X:X:X:X:X:X:X:X:X:X:X:X:X:X",
":X:X:X:X:X:X:X:X:X:X:X:X:X:X:X:X:X:X:X:X:X:X:X:X:X:Xx @XP.P.~.P.P.^.S.N.B.A.q.:X:X:X:X:X:X:X:X:X:X:X:X:X:X:X:X:X:X:X:X:X:X:X:X:X",
":X:X:X:X:X:X:X:X:X:X:X:X:X:X:X:X:X:X:X:X:X:X:X:X:X:Xx L.~.~.P.P.P.`.S.N.S.S.o.:X:X:X:X:X:X:X:X:X:X:X:X:X:X:X:X:X:X:X:X:X:X:X:X:X",
":X:X:X:X:X:X:X:X:X:X:X:X:X:X:X:X:X:X:X:X:X:X:X:X:X:X:Xh.~.P.H.~.P.`.F.B.A.c.:X:X:X:X:X:X:X:X:X:X:X:X:X:X:X:X:X:X:X:X:X:X:X:X:X:X",
":X:X:X:X:X:X:X:X:X:X:X:X:X:X:X:X:X:X:X:X:X:X:X:X:X:X:Xy.^.L.~.G.L.`.S.S.A.h.x :X:X:X:X:X:X:X:X:X:X:X:X:X:X:X:X:X:X:X:X:X:X:X:X:X",
":X:X:X:X:X:X:X:X:X:X:X:X:X:X:X:X:X:X:X:X:X:X:X:X:Xt.0.9.F.F.^.G.L.P.S.L.L.a.t.a.:X:X:X:X:X:X:X:X:X:X:X:X:X:X:X:X:X:X:X:X:X:X:X:X",
":X:X:X:X:X:X:X:X:X:X:X:X:X:X:X:Xq.h.:X:X:X:X:Xc.~.%X^.9.N.H.G.B.F.!.I.^.L.9.+X=X+XD.t.:X:X:X:XD.4.:X:X:X:X:X:X:X:X:X:X:X:X:X:X:X",
":X:X:X:X:X:X:X:X:X:X:X:X:X:X:Xh.+X^.w.:X:Xh.^.@X^.G.L.9.y.L.S.S.L.F.S.^.S.y.+XL.S.+X@XA.:X:XS.&X@Xt.:X:X:X:X:X:X:X:X:X:X:X:X:X:X",
":X:X:X:X:X:X:X:X:X:X:X:X:X:XS.@X^.^.S.u.h.*X'.D.S.D.F.u.q.`.^.P.`.P.^.^.S.N.^.L.S.B.L.%Xi.A.*X'.@X@X9.:X:X:X:X:X:X:X:X:X:X:X:X:X",
":X:X:X:X:X:X:X:X:X:X:X:X:Xh.@XG.S.L.L.G.B.^.~.~.^.^.L.B.i.~.~.`.^.^.^.S.B.S.^.F.L.S.S.B.w.&X'.'._.`.^.I :X:X:X:X:X:X:X:X:X:X:X:X",
":X:X:X:X:X:X:X:X:X:X:X:Xq.@XL.F.~.L.L.~.c.u.^.L.L.L.F.c.9.c.V.S.D.S.Z.Z.w.L.^.G.L.F.H.9.L.$X'.'.'.`.`.P.:X:X:X:X:X:X:X:X:X:X:X:X",
":X:X:X:X:X:X:X:X:X:X:X:X6.L.L.S.L.L.L.L.^.y.D.H.^.h.j 4 : s s 4 s 3 s s : j n S.S.~.h.B.$X^.`.^._.@X'.c.:X:X:X:X:X:X:X:X:X:X:X:X",
":X:X:X:X:X:X:X:X:X:X:X:X:X:XB.^.L.F.S.F.^.L.q.h.j                               v i.q.+X'.`._._.~.'.h.:X:X:X:X:X:X:X:X:X:X:X:X:X",
":X:X:X:X:X:X:X:X:X:X:X:X:X:X9.h.~.G.L.~.~.D.j       X           O         X         9.'.`.H.`.'.~.u.u.:X:X:X:X:X:X:X:X:X:X:X:X:X",
":X:X:X:X:X:X:X:X:X:X:X:X:Xh.+Xq.D.P.S.L.V.4   ;                                 X @   n B.A.P.P.6.~.`.6.:X:X:X:X:X:X:X:X:X:X:X:X",
":X:X:X:X:X:X:X:X:X:X:X:Xy.%X'.~.q.S.S.i.s   X                                       X   j h.c.6.L.`.^.A.v :X:X:X:X:X:X:X:X:X:X:X",
":X:X:X:X:X:X:X:X:X:X:X:X^.'.F.^.N.4.y.3   X                                               j L `.+X^.'.^.a.:X:X:X:X:X:X:X:X:X:X:X",
":X:X:X:X:X:X:X:X:X:X:Xc.^.F.H.~.'.h.                                                    X   6.P.~.'.'.^.G.q.:X:X:X:X:X:X:X:X:X:X",
":X:X:X:X:X:X:X:X:X:X:Xs.G.G.~.~.F.v   X                                                   X   q.~._.P.~.G.9.:X:X:X:X:X:X:X:X:X:X",
":X:X:X:X:X:X:X:X:X:XA.h.u.V.F.`.B.  o                                                         4 A._.F.v.u.h.:X:X:X:X:X:X:X:X:X:X",
":X:X:X:X:X:X:X:X:X:XP.'.F.B.B.P.v                     o o   o o   o o   o   o o             o   L V.h.D.F.G.q.:X:X:X:X:X:X:X:X:X",
":X:X:X:X:X:X:X:X:X:X_.F.P.'.G.w.                      X           X                             3 q.H.^.F.G.V.:X:X:X:X:X:X:X:X:X",
":X:X:X:X:X:X:X:X:XV.~.G.F.A.H.6.  @               . * $ $ $ $ * * $ $ * $ $ $ $ o             +   h.H.A.G.H.L.:X:X:X:X:X:X:X:X:X",
":X:X:X:X:X:X:X:X:Xi._.F.F.F.F.L   X           X   = r e e e e e e e e e e e e e $             X   w.F.G.F.F.~.:X:X:X:X:X:X:X:X:X",
":X:X:X:X:X:X:X:X:Xq.G.F.A.F.h.4           O = = = 7 e e e e e e e e e e e e e e 7 = = =           j V.A.A.G.G.n :X:X:X:X:X:X:X:X",
":X:X:X:X:X:X:X:X:XV.V.V.B.B.v   X         $ e u e e e e e e e e e e e e e e e e e u u 8 + .         9.c.N.i.h.c.:X:X:X:X:X:X:X:X",
":X:X:X:X:X:Xt.S.+X=X=X=X-X&Xv           . @ 8 u e e e e e e e e e e e e 7 o 7 e e e e 8 . X     X   y.$X%X`.%X=X%X~.S.b :X:X:X:X",
":X:X:X:X:X:Xh.~.F.S.i.c.A.F.v           X @ 8 e e e e e e 8 e e e e e t e 2 8 e e e e 8 O           0.F.H.L.'.P.V.P.N.b :X:X:X:X",
":X:X:X:X:X:XL.@XF.^.L.Z.S.F.v   X         $ e u e e e e u e e r e r 8   Y /.Y   e e r 8 o X     X   a.`.G.~.'.`.P.H.B.b :X:X:X:X",
":X:X:X:X:X:XL.@XS.^.@X'.F.F.n           o $ 7 8 e e e e e r e e e 8 l F z.(.E   r e e 8 $ .     @   c.+XA.P.P.~.P._.N.n :X:X:X:X",
":X:X:X:X:X:XB.^.L.P.~.`.P.A.v                 $ e e t               D (.!.(.Y   e r e 8         +   B.$XF.~.~.~.P.~.c.b :X:X:X:X",
":X:X:X:X:X:Xh.L.F.L.L.F.P.F.v   o o   O R U @ $ = 7 . T f.d.d.f.d.d.k.!.!.!.R.d.z $ e y T S   . o   N.$XG.G.L.P.F.S.h.n :X:X:X:X",
":X:X:X:X:X:Xi.F.c.V.B.V.L.S.v     X     d.z.      *   k.).(.(.(./.(.!./.!././.(.D   = y k.W   . X   a.@XF.S.A.S.B.B.u.n :X:X:X:X",
":X:X:X:X:X:Xy.B.h.i.y.y.u.s.v     %   % E.!.Q.z.      y D S D W.!.!.E.S D D F F = = R.Q./.k.  $     9.c.y.q.u.a.i.u.y.o.:X:X:X:X",
":X:X:X:X:X:XL n n 6.c.S.V.u.v   . @   $ E.!.!.R.  9 m <       W.!./.R.      , j O 1 W.!.!.k.  <     n i.F.L.h.L n o.o.:X:X:X:X:X",
":X:X:X:X:X:X:X:X:XN.*X-X$X_.v           @ 0 C Z   h.-XD.K w   Q.!./.R.  w K ^.-X9.  C V * @     X   u.@X%X%XL.0.:X:X:X:X:X:X:X:X",
":X:X:X:X:X:X:X:X:XN.@X@XP.H.n   +   +     . N B   i.&Xv.K T Y W.!.!.Q.U I K F.&XI   N N     .   +   N.&XV.Z.Z.6.:X:X:X:X:X:X:X:X",
":X:X:X:X:X:X:X:X:Xu.~.+XP.H.b @ o     O     X &   Y (.Q q Q.(.!.!.!.!./.x.q l.(.R   & X .       @   B.$XF.P.L.0.:X:X:X:X:X:X:X:X",
":X:X:X:X:X:X:X:X:Xu.F.P._.H.n   h m 2       . %   H b.b.l.Q.!.!.!.!.!.!.Q.l.d.d.r   %           +   h.+XS.A.F.0.:X:X:X:X:X:X:X:X",
":X:X:X:X:X:X:X:X:Xu.F.~._.F.v   m p.h   X     O   j [ b.(./.!.!.!.!.!.!.!.(.E   + X O           X   s.^.N.N.A.9.:X:X:X:X:X:X:X:X",
":X:X:X:X:X:X:X:X:Xa.G.G.A.V.n   c 8. . . . . . . . .8.H i o.7.7.7.7.7.7.n i 8   2.|.a               y.P.B.h.c.6.:X:X:X:X:X:X:X:X",
":X:X:X:X:X:X:X:X:Xh.F.Z.v.N.n   c 8.7.e.e.e.e.7.7.7.8.M p ! _ ~ ~ ~ ~ _ ! p a > [. X/ d 5           0.F.S.B.Z.9.:X:X:X:X:X:X:X:X",
":X:X:X:X:X:X:X:X:Xx o.4.b M v   c r.| ..` ) ` ` ..O.5.#.;.<.<.<.<.<.%.%.<.<.;.%. XXXXX}.            4.9.4.6.9.b :X:X:X:X:X:X:X:X",
":X:X:X:X:X:Xs.P.@X$X$X+X^.^.n   c 8.} ..>.>.:.;...O.5.#.-.%.%.%.%.%.%.%.%.%.X.` ;.2.3.3.M h   .     0.P.`.`.`.L.P.S.Z.o.:X:X:X:X",
":X:X:X:X:X:XN.@X`.'.@X$X+X^.n   c 8.} X..X.XXX|.) O.I 1.-.%.%.=.=.=.=.%.%.>.^       H G 8.n .   +   B.&XL.`.~.P.+X`.B.b :X:X:X:X",
":X:X:X:X:X:XB.`.F.G.P.G.H.V.c   c r.} X. X.X.X[.) O.8.[ f f g j.l.l.j.f ] d %.].@.m 7.8.5. .{ k o O a.P.w.V.F.`.`._.c.b :X:X:X:X",
":X:X:X:X:X:XZ.^.L.^.`.G.G.A.v   c 8.} &.|..X.X[.) { 8.M     $ T.Y.Y.P   :   >.XXm.5.8.8.8.8.8.c + . N.@Xc.v.P.+X`.P.N.o.:X:X:X:X",
":X:X:X:X:X:XL.@XF.+X_.G.A.S.b   m r.} $. X.XXX[.( #.H 3..X-.&.T.U.U.Q $.2. X.XXX/ % M.M.C.p.  @ @   B.*XF.P.!.^.P.P.N.o.:X:X:X:X",
":X:X:X:X:X:XA.+XF.~.~.H.S.Z.v   j  .} | [.|. X[.| { H 3. X:.2.n.Q.x.v.,.[. X[.|.! . M.C.J.p.    +   h.%XP._.~._.S.P.B.o.:X:X:X:X",
":X:X:X:X:X:XB.`.H.^.`.F.A.V.v @     n r.' ( ( | 0.m   ' %. XXX.X{.{.{.XX|.%.^     1 M.C.J.p.  @ .   s.+X~.~.P.+XP.S.c.b :X:X:X:X",
":X:X:X:X:X:Xi.~.L.G.S.B.V.N.v   @   k c { @.{ { c k   ] / &.%.%.<.%.%.%.&./ d . O < M.C.J.p.  +     9.F.P.P.S.L.F.D.t.n :X:X:X:X",
":X:X:X:X:X:X0.s.a.q.4.0.0.q.v     X      .0.8.G     + .         o o o o . O . >   4 M.C.J.p.. : X @ n o.4.4.0.q.t.b 6.o.:X:X:X:X",
":X:X:X:X:X:X:X:X:Xw.^.@XP.F.v   X   #   h h s h 8 1   2 h 4 > > > > > > 4 r 1 + 6 k C.J.K.M.@ < @   6.L.%X%XL.6.:X:X:X:X:X:X:X:X",
":X:X:X:X:X:X:X:X:Xh.F.L.~.P.v                 % y 8 @ 8 y = @ @ + + . X 7 y 7 * u l J.J.I.M.. < <   a.@XS.L.L.9.:X:X:X:X:X:X:X:X",
":X:X:X:X:X:X:X:X:Xi.F.F.~.L.n   X         @ @ 8 D F S l e 1 + @ o o + @ 7 t F J J U I.I.OXC.X < <   B.%XA.G.F.9.:X:X:X:X:X:X:X:X",
":X:X:X:X:X:X:X:X:Xh.^.F.A.H.n           . @ + 7 A l l y 8 = @ + @ X o O 7 e A J S R I.OX#XJ.:X< 4   B.@XS.P.L.6.:X:X:X:X:X:X:X:X",
":X:X:X:X:X:X:X:X:Xc.`.F.S.P.v   . X . @ + @ @ @ O . . O + O O @ . + :X:X:X+ O O   4 OX#X;XI.:X:X:X:Xa.`.S.S.^.q.:X:X:X:X:X:X:X:X",
":X:X:X:X:X:X:X:X:Xh.^.F.S.A.v   @ + @ + @ + . + $ @ $ @ @ :X:X:X:X:X:X:X:X:X:X:X:X:X:X:X:X:X:X:X:X:Xy.L.F.P.`.w.:X:X:X:X:X:X:X:X",
":X:X:X:X:X:X:X:X:Xh.L.B.B.c.v   @ @ $ + + + + @ + @ @ :X:X:X:X:X:X:X:X:X:X:X:X:X:X:X:X:X:X:X:X:X:X:Xq.G.L.`.+Xq.:X:X:X:X:X:X:X:X",
":X:X:X:X:X:X:X:X:Xu.B.c.c.a.n   < : ; + @ @ $ @ ; :X:X:X:X:X:X:X:X:X:X:X:X:X:X:X:X:X:X:X:X:X:X:X:X:X6.S.Z.S.L.0.:X:X:X:X:X:X:X:X",
":X:X:X:X:X:X:X:X:Xo.o.4.o.n v @ < < < 0 @ $ < :X:X:X:X:X:X:X:X:X:X:X:X:X:X:X:X:X:X:X:X:X:X:X:X:X:X:Xv L o.o.6.o.:X:X:X:X:X:X:X:X"
};
