/* XPM */
static char *result[] = {
/* columns rows colors chars-per-pixel */
"64 63 201 2 ",
"   c #020101",
".  c #090403",
"X  c #070807",
"o  c #0B0906",
"O  c #04060A",
"+  c #040A0B",
"@  c #0B0B0B",
"#  c #09050A",
"$  c #120504",
"%  c #130D0B",
"&  c #110B06",
"*  c #0F100E",
"=  c #15110B",
"-  c #1B140D",
";  c #1F180F",
":  c #0C0F13",
">  c #000D17",
",  c #100F11",
"<  c #0E1316",
"1  c #141314",
"2  c #1A1613",
"3  c #1D1912",
"4  c #1A1C1C",
"5  c #171818",
"6  c #22090A",
"7  c #261C12",
"8  c #281E14",
"9  c #231B14",
"0  c #29110D",
"q  c #1B240D",
"w  c #003D00",
"e  c #1C2A19",
"r  c #2B2116",
"t  c #2D241A",
"y  c #30261A",
"u  c #352A1D",
"i  c #3A2C1F",
"p  c #0B1D2C",
"a  c #051B2B",
"s  c #121821",
"d  c #211E21",
"f  c #1E2121",
"g  c #14212C",
"h  c #0D2436",
"j  c #0C2639",
"k  c #0C2A3E",
"l  c #052539",
"z  c #162433",
"x  c #162739",
"c  c #242223",
"v  c #2C2C2D",
"b  c #292729",
"n  c #3A2E21",
"m  c #332D2C",
"M  c #2D322E",
"N  c #3E3324",
"B  c #3F3629",
"V  c #302D30",
"C  c #2D3233",
"Z  c #2A313D",
"A  c #343335",
"S  c #353936",
"D  c #3A373A",
"F  c #363B3A",
"G  c #3A3C3B",
"H  c #383335",
"J  c #4D0914",
"K  c #4C0B16",
"L  c #40311F",
"P  c #433525",
"I  c #4A3D2C",
"U  c #44382B",
"Y  c #423C3B",
"T  c #443B35",
"R  c #69322B",
"E  c #602F29",
"W  c #2D431A",
"Q  c #3C413E",
"!  c #7B6E1F",
"~  c #4E412F",
"^  c #45482F",
"/  c #4E4330",
"(  c #4C4537",
")  c #524532",
"_  c #5B4B37",
"`  c #5B5B3F",
"'  c #61523C",
"]  c #675E27",
"[  c #796D22",
"{  c #71672A",
"}  c #686238",
"|  c #0B2C41",
" . c #0F3048",
".. c #1A344C",
"X. c #17344A",
"o. c #083751",
"O. c #0B3954",
"+. c #023655",
"@. c #123A55",
"#. c #1D3B53",
"$. c #153E5B",
"%. c #183F5C",
"&. c #192D43",
"*. c #2C3745",
"=. c #24394C",
"-. c #2B3A4B",
";. c #2E3846",
":. c #373B46",
">. c #3C3C43",
",. c #2A3D51",
"<. c #223D55",
"1. c #323F50",
"2. c #423E42",
"3. c #16405D",
"4. c #3D4340",
"5. c #2B465C",
"6. c #0E4566",
"7. c #164462",
"8. c #194665",
"9. c #1B4C6D",
"0. c #184B6B",
"q. c #1A4F72",
"w. c #1C5174",
"e. c #1D557B",
"r. c #1E597C",
"t. c #2B4963",
"y. c #345D77",
"u. c #305C78",
"i. c #304F6B",
"p. c #444444",
"a. c #4B4745",
"s. c #454945",
"d. c #474C48",
"f. c #4A4D4B",
"g. c #4D524D",
"h. c #52534D",
"j. c #585842",
"k. c #514D52",
"l. c #4E5450",
"z. c #525551",
"x. c #555A54",
"c. c #595C56",
"v. c #595559",
"b. c #5B5D5A",
"n. c #575B58",
"m. c #655E43",
"M. c #6C5A42",
"N. c #675845",
"B. c #735C45",
"V. c #5D625C",
"C. c #596150",
"Z. c #656042",
"A. c #696147",
"S. c #746147",
"D. c #7B654B",
"F. c #76694C",
"G. c #7D694D",
"H. c #77664B",
"J. c #61655E",
"K. c #666857",
"L. c #7D6950",
"P. c #7F725A",
"I. c #645F63",
"U. c #626661",
"Y. c #656A63",
"T. c #696D65",
"R. c #6A656A",
"E. c #6A6D69",
"W. c #6D7066",
"Q. c #6E726A",
"!. c #72756C",
"~. c #75796E",
"^. c #797B6F",
"/. c #736D72",
"(. c #767A71",
"). c #7A7D73",
"_. c #7C7A7B",
"`. c #757474",
"'. c #816B4F",
"]. c #836E51",
"[. c #867154",
"{. c #81755D",
"}. c #7D8176",
"|. c #7D8279",
" X c #808276",
".X c #82857B",
"XX c #85897E",
"oX c #1E5980",
"OX c #205E85",
"+X c #1F6083",
"@X c #807A80",
"#X c #868B82",
"$X c #898E84",
"%X c #878187",
"&X c #8C9187",
"*X c #8C9289",
"=X c #92978C",
"-X c #92988E",
";X c #969B92",
":X c #999E96",
">X c None",
/* pixels */
">X>X>X>X>X>X>X>X>X>X>X>X>X>X>X>X>X>X>X>X>X>X>X>X>X>X>X>X>X>X>X>X>X>X>X>X>X>X>X>X>X>X>X>X>X>X>X>X>X>X>X>X>X>X>X>X>X>X>X>X>X>X>X>X",
">X>X>X>X>X>X>X>X>X>X>X>X>X>X>X>X>X>X>X>X>X>X>X>X>X>X>Xz.*X$X$X$X$X*X$X&X*XE.>X>X>X>X>X>X>X>X>X>X>X>X>X>X>X>X>X>X>X>X>X>X>X>X>X>X",
">X>X>X>X>X>X>X>X>X>X>X>X>X>X>X>X>X>X>X>X>X>X>X>X>X>X>X$X-X$X&X&X$X$XXX#X|.XXV.>X>X>X>X>X>X>X>X>X>X>X>X>X>X>X>X>X>X>X>X>X>X>X>X>X",
">X>X>X>X>X>X>X>X>X>X>X>X>X>X>X>X>X>X>X>X>X>X>X>X>X>XC $X(.(.}.~.(.|.Q.Y.Y.E.l.>X>X>X>X>X>X>X>X>X>X>X>X>X>X>X>X>X>X>X>X>X>X>X>X>X",
">X>X>X>X>X>X>X>X>X>X>X>X>X>X>X>X>X>X>X>X>X>X>X>X>X>XC }.}.}.}.}.)..XQ.U.Q.Q.4.>X>X>X>X>X>X>X>X>X>X>X>X>X>X>X>X>X>X>X>X>X>X>X>X>X",
">X>X>X>X>X>X>X>X>X>X>X>X>X>X>X>X>X>X>X>X>X>X>X>X>X>X>XV.}.(.^.}.)..X!.Y.W.U.>X>X>X>X>X>X>X>X>X>X>X>X>X>X>X>X>X>X>X>X>X>X>X>X>X>X",
">X>X>X>X>X>X>X>X>X>X>X>X>X>X>X>X>X>X>X>X>X>X>X>X>X>X>Xz.|.(.}.^.(.|.Q.Q.Q.V.C >X>X>X>X>X>X>X>X>X>X>X>X>X>X>X>X>X>X>X>X>X>X>X>X>X",
">X>X>X>X>X>X>X>X>X>X>X>X>X>X>X>X>X>X>X>X>X>X>X>X>Xg.g.s.!.!.|.!.).).!.!.`.C.g.V.>X>X>X>X>X>X>X>X>X>X>X>X>X>X>X>X>X>X>X>X>X>X>X>X",
">X>X>X>X>X>X>X>X>X>X>X>X>X>X>X>Xl.C.>X>X>X>X>XU.}.*X|.d.J.(.(.Y.`.}.).}.(.d.#X;X#XE.l.>X>X>X>XW.p.>X>X>X>X>X>X>X>X>X>X>X>X>X>X>X",
">X>X>X>X>X>X>X>X>X>X>X>X>X>X>XV.|.|.z.>X>XV.|.#X}.!.(.g.z.(.Q.W.~.!.!.}.Q.l.#X(.!.XX#XQ.>X>XQ.=X&Xl.>X>X>X>X>X>X>X>X>X>X>X>X>X>X",
">X>X>X>X>X>X>X>X>X>X>X>X>X>XQ.$X|.|.Q.x.U.;X|.Q.Q.E.!.z.g.XX|.}.#X).).}.Q.U.XX!.Q.U.(.*Xc.W.;XXX$X$Xd.>X>X>X>X>X>X>X>X>X>X>X>X>X",
">X>X>X>X>X>X>X>X>X>X>X>X>XV.$X~.Q.}.(.Q.U.|.}.}.|.|.(.Y.x.}.}..X|.|.).(.U.Q.|.!.~.Q.!.T.h.=XXXXX|. X}.Q >X>X>X>X>X>X>X>X>X>X>X>X",
">X>X>X>X>X>X>X>X>X>X>X>Xg.$X(.!.}.(.(.|.V.x.|.(.(.(.!.V.f.U.Y.Q.T.Q.E.Y.z.(.|.^.}.Q.^.d.(.&X.XXX.X X.X}.>X>X>X>X>X>X>X>X>X>X>X>X",
">X>X>X>X>X>X>X>X>X>X>X>Xs.(.(.Q.!.}.(.(.|.z.E.(.}.U.b e @ f f 4 4 4 f c < b F Q.Q.|.V.Y.&X}..X|. X&XXXJ.>X>X>X>X>X>X>X>X>X>X>X>X",
">X>X>X>X>X>X>X>X>X>X>X>X>X>XY.|.(.Q.Q.!.|.}.g.V.v                               C C.l.#XXX X}. X}.XXV.>X>X>X>X>X>X>X>X>X>X>X>X>X",
">X>X>X>X>X>X>X>X>X>X>X>X>X>Xd.V.}.(.(.}.}.T.v                               X       s.#X.X}..XXX}.x.x.>X>X>X>X>X>X>X>X>X>X>X>X>X",
">X>X>X>X>X>X>X>X>X>X>X>X>XV.#Xg.W.).Q.(.Y.5   *                                   @   G Y.W.).}.s.}..Xs.>X>X>X>X>X>X>X>X>X>X>X>X",
">X>X>X>X>X>X>X>X>X>X>X>Xz.*XXX}.g.Q.Q.n.f   X                                       X   v V.J.s.(..X|.W.S >X>X>X>X>X>X>X>X>X>X>X",
">X>X>X>X>X>X>X>X>X>X>X>X|.XX!.|.J.4.z.f                                                   v Q |.XX|.#X|.V.>X>X>X>X>X>X>X>X>X>X>X",
">X>X>X>X>X>X>X>X>X>X>XJ.|.!.^.}.XXV.    X                                                   s.(.}.XX.X|.^.g.>X>X>X>X>X>X>X>X>X>X",
">X>X>X>X>X>X>X>X>X>X>Xn.(.^.}.}.!.S   X                                                   X   g. X.X}.}.~.d.>X>X>X>X>X>X>X>X>X>X",
">X>X>X>X>X>X>X>X>X>XW.V.x.Y.Q.XXY.  X                                                         4 W.|.!.U.x.V.>X>X>X>X>X>X>X>X>X>X",
">X>X>X>X>X>X>X>X>X>X}.XXQ.E.Y.).S                     X .     .   . .   .     .             X   Q Y.V.E.!.~.g.>X>X>X>X>X>X>X>X>X",
">X>X>X>X>X>X>X>X>X>X.X!.(.XX(.l.                    X   X X . o   X   . X   .                   q g.).|.!.~.Y.>X>X>X>X>X>X>X>X>X",
">X>X>X>X>X>X>X>X>XT.}.~.!.W.(.(   @               . = % & = = & = = = = = & = =               @   V.^.W.~.^.~.>X>X>X>X>X>X>X>X>X",
">X>X>X>X>X>X>X>X>Xc. X!.!.!.!.Q   X         X   X % 7 7 7 7 7 7 ; r 7 7 7 7 7 7 & . . .       X   h.!.!.Q.~.}.>X>X>X>X>X>X>X>X>X",
">X>X>X>X>X>X>X>X>Xg.~.!.W.!.V.5           . - - - ; 7 8 7 8 8 7 7 7 8 8 7 7 7 7 - - - =           M Y.!.W.~.~.G >X>X>X>X>X>X>X>X",
">X>X>X>X>X>X>X>X>XT.T.T.T.U.S   X         $ 7 7 7 7 8 7 8 8 7 7 7 7 7 7 7 7 7 7 7 7 7 7 X           f.J.J.c.J.V.>X>X>X>X>X>X>X>X",
">X>X>X>X>X>Xl.Q.#X;X;X;X:X=XS             o 7 7 7 7 7 7 7 8 7 7 7 7 7 r 7 = 7 7 7 7 r 7 X       X   l.&X=XXX&X;X=X XQ.F >X>X>X>X",
">X>X>X>X>X>XV.}.!.Q.c.J.W.!.S             o 7 7 7 8 7 7 8 8 7 7 7 7 7 7 y N y 7 7 7 7 7 X           f.!.^.(.XX(.T.(.U.F >X>X>X>X",
">X>X>X>X>X>X(.$X!.|.(.E.Q.!.S           X o 7 7 8 7 8 7 8 8 8 8 7 r r ; / G.~ o 8 7 7 7 X       X   b.XX(. X.X.X(. XU.F >X>X>X>X",
">X>X>X>X>X>X(.$XQ.|.$XXX!.!.G           X o ; 9 8 7 8 0 7 ; 7 ; 7 ; i ) ' [.)   8 7 7 7 . X     X   V.#XW.(.}.}.(. XU.F >X>X>X>X",
">X>X>X>X>X>XT.|.(.}.}. X).W.S           ; 9 o = 7 7 7 7 y t t t r r ~ G.].[._ r 8 7 8 8 9 =     @   U.*X!.}.}.}.).}.Y.F >X>X>X>X",
">X>X>X>X>X>Xb.(.!.(.~.`.).!.S   . o     U I . $ - 2 & ~ ' ' ' ' ' ' ' [.[.[.S.' n % 7 8 I P   . X   U.&X~.(.(.).!.!.V.F >X>X>X>X",
">X>X>X>X>X>Xn.!.J.Y.Y.T.(.Q.S     X   . ' ' L y . =   _ G.F.H.G.].].G.G.G.G.F.F.P . i P B.)   & X   b.$X~.W.Q.Q.Y.Y.x.G >X>X>X>X",
">X>X>X>X>X>Xz.Y.V.c.x.z.z.n.S   . $   % S.'.B.'   o * N ) ~ ) '.[.[.D.~ ~ ) ~ ~ 8 % } B.].N.  %     d.V.z.g.z.b.x.x.z.4.>X>X>X>X",
">X>X>X>X>X>XQ G G s.V.Q.T.x.S     @   & M.D.D.'   b a.M q - - G.[.[.S.= q q S s.4 = B.'.D.'   1     Q c.Q.(.b.Q G Q >.>X>X>X>X>X",
">X>X>X>X>X>X>X>X>XY.-X:X&X}.S   X     . n P R E   f._.x.w e 3 G.[.[.S.9 e w J._.G   R R N u   o X   x.&X&X*X(.f.>X>X>X>X>X>X>X>X",
">X>X>X>X>X>X>X>X>XU.$X$X).^.G   @   +     $ J K   h..XC.w / _ ].[.[.D.) ^ w K.XXG   J J . X .   X   U.*XT.W.W.s.>X>X>X>X>X>X>X>X",
">X>X>X>X>X>X>X>X>Xx.}.#X).^.G @ @ 1 X       6 6   ) {.` W S.L.].[.[.].].Z.W M.{.P   6 6         @   U.*X`.(.).d.>X>X>X>X>X>X>X>X",
">X>X>X>X>X>X>X>X>Xc.Q.(. X XF   d A 1   O     #   P N.m.m.L.].[.[.[.].[.G.m.' _ t   X           X   V.#XQ.W.(.f.>X>X>X>X>X>X>X>X",
">X>X>X>X>X>X>X>X>Xx.!.}. X!.S   V p.c 2 1 < 2 5 1 V >.N.F.L.L.G.G.L.D.'.D.G.) 7 z j O           X   n.|.U.U.T.s.>X>X>X>X>X>X>X>X",
">X>X>X>X>X>X>X>X>Xb.~.~.W.T.G   V p.H A A H H H A D G T I a.a.a.a.a.a.a.2.I t O 8.w.a +             z.).Y.V.U.s.>X>X>X>X>X>X>X>X",
">X>X>X>X>X>X>X>X>XV.!.E.K.Y.S   V 2.:.:.:.:.:.:.:.>.Y Z z &.............&.z h p e.OX@.| O           d.(.Q.U.W.g.>X>X>X>X>X>X>X>X",
">X>X>X>X>X>X>X>X>XC 4.4.F v S   V p.=.#.#.#.#.=...-.Y -.3.3.3.3.%.%.3.3.$.$.$.@.e.OXr.q., @         4.d.p.s.d.C >X>X>X>X>X>X>X>X",
">X>X>X>X>X>Xc.).$X&X&X$X.X}.G   V 2.=.O.0.q.9.8.o.-.Y 5.7.3.8.8.7.8.7.7.7.7.@. .7.8.i.i.v c         f.}.XXXX|.(.).Q.E.4.>X>X>X>X",
">X>X>X>X>X>XJ.&X.XXX&X&X#X|.G   V 2.=.O.oXoXoXe.o.-.D 5.6.3.3.5.t.t.5.3.3.3. .k z z >.>.>.A , @ @   U.*X(. X X(.#X.XU.F >X>X>X>X",
">X>X>X>X>X>XY.|.!.~.(.~.(.E.D   V 2.=.O.OXoXoXoXo.-.T *.l l k j.N.Z.j.l | j $.q.*.V G Y Y D H c X X V._.x.J.~..X.X XU.F >X>X>X>X",
">X>X>X>X>X>XE.}.(.|..X^.!.W.S   V 2.=.O.OXOXOXe.O.-.Y *.| l g { [ [ ] a h | q.OX1.H 2.2.a.2.D b X X V.$XK.T.).*X#X).Y.4.>X>X>X>X",
">X>X>X>X>X>X(.$X!.#X X~.W.Q.F   V p.=.@.e.OXOXe.o.-.T t.w.6...{ [ [ } +.8.w.r.OX..9 v.k.v.f.4 1 @   U.-X!.(.).{.(.).Y.F >X>X>X>X",
">X>X>X>X>X>XW.$X!. X}.^.Q.Q.S   c H *.,.w.w.e.q.=.*.n t.r.q.9.J.K.K.b.0.w.OXq.q.h . v.I.I.k.    X   V.&X}. X X}.!.(.Y.p.>X>X>X>X",
">X>X>X>X>X>XY.XX(.|..X!.!.Y.S @ : 2 Z 2.<.$.$.<.>.A , X.8.w.r.y.y.y.u.r.q.7. .h > , v.v.I.k.  : X   n.$X}.^.).$X).!.J.G >X>X>X>X",
">X>X>X>X>X>Xb.(.~.(.!.Y.Y.J.S   @   c V ;.-.-.*.V d   h  .$.7.7.3.7.7.7.$. .p .   1 v.b.I.f.  @     s.`.}.(.Q.(.(.Y.l.F >X>X>X>X",
">X>X>X>X>X>Xf.n.b.g.p.f.f.g.S     X : , D >.D A - : O : s a a a p p p p p s : , # 2 v.I.R.k.X , X @ F 4.4.s.f.l.l.F s.Q >X>X>X>X",
">X>X>X>X>X>X>X>X>Xg.).$X(.!.S     X #   d c c c 9 - # - 9 1 : : : : < : 5 9 - : 2 8 v.I.R.k.# < @   s.(.*X*X(.s.>X>X>X>X>X>X>X>X",
">X>X>X>X>X>X>X>X>XV.!.(..X).S       #   . # # - 8 8 2 8 8 1 : @ @ @ @ + 9 8 9 9 t n I.R./.v.# 1 ,   b.&X!.!.(.d.>X>X>X>X>X>X>X>X",
">X>X>X>X>X>X>X>X>Xc.Q.(.(.^.F             X X 2 n n n y r 1 X @ @ X X X 2 t i P P I R././.I.# 5 1   Y.*XW.~.!.s.>X>X>X>X>X>X>X>X",
">X>X>X>X>X>X>X>X>XV.}.~.Q.^.F           X @ @ 2 i u u r 9 = X # X X X X 2 8 u P L U /./.{.I.>Xs 5   U.$XQ.).(.d.>X>X>X>X>X>X>X>X",
">X>X>X>X>X>X>X>X>XJ..X!.!.(.G   X   # @ @ @ @ o - 1 - % % @ X X X @ >X>X>X= - 9 ; c `.@X%X>X>X>X>X>Xc..XQ.Q.}.g.>X>X>X>X>X>X>X>X",
">X>X>X>X>X>X>X>X>XV.|.!.Q.W.S   @ @ @ @ @ X X @ @ o @ X @ >X>X>X>X>X>X>X>X>X>X>X>X>X>X>X>X>X>X>X>X>Xx.(.~.(..Xl.>X>X>X>X>X>X>X>X",
">X>X>X>X>X>X>X>X>XV.(.T.Y.J.S   @ : @ o @ @ @ @ % o @ >X>X>X>X>X>X>X>X>X>X>X>X>X>X>X>X>X>X>X>X>X>X>Xg.~.(..XXXh.>X>X>X>X>X>X>X>X",
">X>X>X>X>X>X>X>X>Xx.Y.V.J.b.F   1 , @ + @ @ @ @ : >X>X>X>X>X>X>X>X>X>X>X>X>X>X>X>X>X>X>X>X>X>X>X>X>Xd.Q.E.Q.(.f.>X>X>X>X>X>X>X>X",
">X>X>X>X>X>X>X>X>X4.4.p.4.F S % 2 1 , 0 @ @ 1 >X>X>X>X>X>X>X>X>X>X>X>X>X>X>X>X>X>X>X>X>X>X>X>X>X>X>XS Q 4.4.s.4.>X>X>X>X>X>X>X>X"
};
