/* XPM */
static char *result[] = {
/* columns rows colors chars-per-pixel */
"64 63 217 2 ",
"   c #010101",
".  c #0A0202",
"X  c #070807",
"o  c #0A0A05",
"O  c #030509",
"+  c #040A0B",
"@  c #0B0B0A",
"#  c #090509",
"$  c #150706",
"%  c #08110D",
"&  c #13110E",
"*  c #1D130C",
"=  c #000813",
"-  c #091715",
";  c #131313",
":  c #191511",
">  c #1D1813",
",  c #1A1C1C",
"<  c #17181A",
"1  c #100F10",
"2  c #241D16",
"3  c #2E1608",
"4  c #00331E",
"5  c #2B2116",
"6  c #2C231A",
"7  c #362A1D",
"8  c #3A2D1E",
"9  c #32271C",
"0  c #3F301D",
"q  c #0D1924",
"w  c #000333",
"e  c #161D24",
"r  c #211F21",
"t  c #1B2323",
"y  c #082439",
"u  c #2B2D2B",
"i  c #242325",
"p  c #3B2E20",
"a  c #302D2B",
"s  c #3E3124",
"d  c #2C3332",
"f  c #333435",
"g  c #353936",
"h  c #363B3A",
"j  c #393C3B",
"k  c #373738",
"l  c #2D312E",
"z  c #790E25",
"x  c #413323",
"c  c #483929",
"v  c #005700",
"b  c #006800",
"n  c #3C413E",
"m  c #114A29",
"M  c #56442C",
"N  c #594732",
"B  c #4F4033",
"V  c #64523C",
"C  c #695239",
"Z  c #644F38",
"A  c #534118",
"S  c #163349",
"D  c #03395A",
"F  c #173D59",
"G  c #3C3C41",
"H  c #003E65",
"J  c #413E42",
"K  c #1C405B",
"L  c #3D4340",
"P  c #2D4155",
"I  c #00466F",
"U  c #004872",
"Y  c #1D4F72",
"T  c #1D5479",
"R  c #18567C",
"E  c #194563",
"W  c #224F6F",
"Q  c #3C5B79",
"!  c #345A7A",
"~  c #2A597B",
"^  c #414543",
"/  c #454945",
"(  c #4A464B",
")  c #474C48",
"_  c #4A4D4A",
"`  c #4D524D",
"'  c #51544E",
"]  c #5D534A",
"[  c #534F53",
"{  c #4E5450",
"}  c #525552",
"|  c #555A55",
" . c #595C56",
".. c #5D575A",
"X. c #5B5D5A",
"o. c #595656",
"O. c #504E50",
"+. c #6C5942",
"@. c #665648",
"#. c #675C5B",
"$. c #715E46",
"%. c #5D625C",
"&. c #78674C",
"*. c #61655E",
"=. c #64685F",
"-. c #676F49",
";. c #465C76",
":. c #465569",
">. c #615F66",
",. c #5D616A",
"<. c #626662",
"1. c #656A63",
"2. c #696D65",
"3. c #62626C",
"4. c #6D666A",
"5. c #696E68",
"6. c #6A6265",
"7. c #6D7066",
"8. c #6E726A",
"9. c #72756C",
"0. c #75796E",
"q. c #797B6F",
"w. c #616471",
"e. c #767A71",
"r. c #7A7D73",
"t. c #7C757C",
"y. c #727770",
"u. c #746D72",
"i. c #8A122A",
"p. c #9C2435",
"a. c #836D51",
"s. c #897256",
"d. c #967D5D",
"f. c #846D4F",
"g. c #867E78",
"h. c #7D8176",
"j. c #7D8279",
"k. c #B29F24",
"l. c #C1AD2F",
"z. c #C0AB08",
"x. c #99805F",
"c. c #898A57",
"v. c #B2A141",
"b. c #988661",
"n. c #808276",
"m. c #82857B",
"M. c #85897E",
"N. c #99916D",
"B. c #A88D6A",
"V. c #A28865",
"C. c #A29769",
"Z. c #B2956F",
"A. c #BB9D75",
"S. c #B79972",
"D. c #AD9277",
"F. c #B2A371",
"G. c #A59A55",
"H. c #C3A37A",
"J. c #CAA97F",
"K. c #055984",
"L. c #145A82",
"P. c #195C84",
"I. c #225E87",
"U. c #00669C",
"Y. c #1A6A9B",
"T. c #28628B",
"R. c #2B6B97",
"E. c #266D9C",
"W. c #2A6D9B",
"Q. c #266996",
"!. c #306C98",
"~. c #326C97",
"^. c #1970A3",
"/. c #2B74A5",
"(. c #2D78AA",
"). c #317CB0",
"_. c #486786",
"`. c #5C6D86",
"'. c #4B7AA4",
"]. c #847D84",
"[. c #3385BC",
"{. c #2F85BC",
"}. c #4A81AE",
"|. c #348AC3",
" X c #358EC9",
".X c #3287C0",
"XX c #2C97CE",
"oX c #3593CE",
"OX c #3897CE",
"+X c #389ACE",
"@X c #2B8AC6",
"#X c #868B82",
"$X c #898E84",
"%X c #8C858C",
"&X c #868287",
"*X c #8C9187",
"=X c #8C9289",
"-X c #8C9A88",
";X c #92978C",
":X c #92988B",
">X c #938C93",
",X c #969B92",
"<X c #9C949C",
"1X c #989696",
"2X c #A49CA4",
"3X c #A89FA8",
"4X c #ADA4AD",
"5X c #A5A6A6",
"6X c #B4ACB4",
"7X c #BFB5BF",
"8X c #A5A694",
"9X c #CEAD82",
"0X c #CEB385",
"qX c #CEB589",
"wX c #CEBA8B",
"eX c #CECCC8",
"rX c None",
/* pixels */
"rXrXrXrXrXrXrXrXrXrXrXrXrXrXrXrXrXrXrXrXrXrXrXrXrXrXrXrXrXrXrXrXrXrXrXrXrXrXrXrXrXrXrXrXrXrXrXrXrXrXrXrXrXrXrXrXrXrXrXrXrXrXrXrX",
"rXrXrXrXrXrXrXrXrXrXrXrXrXrXrXrXrXrXrXrXrXrXrXrXrXrXrX| =X$X$X#X#X=X$X$X=X5.rXrXrXrXrXrXrXrXrXrXrXrXrXrXrXrXrXrXrXrXrXrXrXrXrXrX",
"rXrXrXrXrXrXrXrXrXrXrXrXrXrXrXrXrXrXrXrXrXrXrXrXrXrXrX*X;X$X*X*X$X$X#X#XM.m.,.rXrXrXrXrXrXrXrXrXrXrXrXrXrXrXrXrXrXrXrXrXrXrXrXrX",
"rXrXrXrXrXrXrXrXrXrXrXrXrXrXrXrXrXrXrXrXrXrXrXrXrXrXd $Xr.r.n.q.r.j.7.1.1.7.` rXrXrXrXrXrXrXrXrXrXrXrXrXrXrXrXrXrXrXrXrXrXrXrXrX",
"rXrXrXrXrXrXrXrXrXrXrXrXrXrXrXrXrXrXrXrXrXrXrXrXrXrXd r.h.h.h.q.h.m.7.1.8.7.n rXrXrXrXrXrXrXrXrXrXrXrXrXrXrXrXrXrXrXrXrXrXrXrXrX",
"rXrXrXrXrXrXrXrXrXrXrXrXrXrXrXrXrXrXrXrXrXrXrXrXrXrXrX%.h.e.0.h.r.m.8.1.7.,.rXrXrXrXrXrXrXrXrXrXrXrXrXrXrXrXrXrXrXrXrXrXrXrXrXrX",
"rXrXrXrXrXrXrXrXrXrXrXrXrXrXrXrXrXrXrXrXrXrXrXrXrXrXrX} j.y.h.0.e.j.9.7.7.%.d rXrXrXrXrXrXrXrXrXrXrXrXrXrXrXrXrXrXrXrXrXrXrXrXrX",
"rXrXrXrXrXrXrXrXrXrXrXrXrXrXrXrXrXrXrXrXrXrXrXrXrX` ` / 0.0.j.0.r.r.8.y.0.%.` %.rXrXrXrXrXrXrXrXrXrXrXrXrXrXrXrXrXrXrXrXrXrXrXrX",
"rXrXrXrXrXrXrXrXrXrXrXrXrXrXrXrX{ %.rXrXrXrXrX=.h.=Xj.) <.e.0.1.9.j.r.r.q.) M.,X#Xs.] rXrXrXrX2.^ rXrXrXrXrXrXrXrXrXrXrXrXrXrXrX",
"rXrXrXrXrXrXrXrXrXrXrXrXrXrXrX%.j.j.' rXrX%.b.}.j.0.y.) } e.8.7.e.9.e.r.8.{ #Xe.8.}.*X7.rXrX9.:X$X{ rXrXrXrXrXrXrXrXrXrXrXrXrXrX",
"rXrXrXrXrXrXrXrXrXrXrXrXrXrX8.$Xj.j.8.{ %.,XM.8.8.5.0.| ` M.j.h.M.r.r.r.7.,.#X9.7.1.0.*X .7.:XM.$X$X) rXrXrXrXrXrXrXrXrXrXrXrXrX",
"rXrXrXrXrXrXrXrXrXrXrXrXrX%.$X0.8.y.h.8.1.j.h.h.j.h.e.1.| h.h.m.r.m.r.e.1.8.j.9.0.7.9.2.' *X$XM.n.n.h.n rXrXrXrXrXrXrXrXrXrXrXrX",
"rXrXrXrXrXrXrXrXrXrXrXrX` *X0.0.h.y.h.h.%.| j.h.y.h.7.%.) %.2.7.5.9.7.5.} 0.j.e.h.8.h.) q.M.M.M.M.n.m.r.rXrXrXrXrXrXrXrXrXrXrXrX",
"rXrXrXrXrXrXrXrXrXrXrXrX/ y.e.8.y.h.y.h.j.{ 1.q.j.,.u , 1 r t , r , , i - u j 7.8.h.%.1.-Xj.m.h.m.$XM.1.rXrXrXrXrXrXrXrXrXrXrXrX",
"rXrXrXrXrXrXrXrXrXrXrXrXrXrX1.j.y.8.8.8.j.h.` %.u                               g %.` $XM.m.n.n.h.M. .rXrXrXrXrXrXrXrXrXrXrXrXrX",
"rXrXrXrXrXrXrXrXrXrXrXrXrXrX/ %.h.y.h.h.h.5.u       X     O     O           X       / j.m.q.M.M.h.| | rXrXrXrXrXrXrXrXrXrXrXrXrX",
"rXrXrXrXrXrXrXrXrXrXrXrXrX%.$X` 2.h.8.r.1.,   1                                   @   j 1.7.r.h./ j.m./ rXrXrXrXrXrXrXrXrXrXrXrX",
"rXrXrXrXrXrXrXrXrXrXrXrX} =XM.h.` 8.8. .,   X                                       X   u %.*./ r.j.j.7.g rXrXrXrXrXrXrXrXrXrXrX",
"rXrXrXrXrXrXrXrXrXrXrXrXj.M.7.j.%.L } t   X                                               u n j.M.m.M.j.%.rXrXrXrXrXrXrXrXrXrXrX",
"rXrXrXrXrXrXrXrXrXrXrX,.j.0.q.j.M.%.                                                    X   ^ r.h.M.m.j.h.` rXrXrXrXrXrXrXrXrXrX",
"rXrXrXrXrXrXrXrXrXrXrX .0.0.h.h.0.g   X                                                   X   ` h.m.h.h.0.) rXrXrXrXrXrXrXrXrXrX",
"rXrXrXrXrXrXrXrXrXrX5.%.| 2.9.m.1.  X                                                         , 7.n.9.=.| %.rXrXrXrXrXrXrXrXrXrX",
"rXrXrXrXrXrXrXrXrXrXq.M.9.1.2.r.g                   X X   o   . X X   o   X o               X   n 1.%.1.0.0._ rXrXrXrXrXrXrXrXrX",
"rXrXrXrXrXrXrXrXrXrXm.9.r.M.0.'                         +   O X     +   + X   O                 , ` h.j.0.9.=.rXrXrXrXrXrXrXrXrX",
"rXrXrXrXrXrXrXrXrX2.h.q.9.7.r./   @           X   $ 2 > > > 2 > > > > > > > > > o   . O       @   %.q.7.0.q.q.rXrXrXrXrXrXrXrXrX",
"rXrXrXrXrXrXrXrXrX .n.9.9.9.7.n   X         O + O 2 x x 0 x p x x x x x x x x x > O + O       X   ' 9.9.7.0.r.rXrXrXrXrXrXrXrXrX",
"rXrXrXrXrXrXrXrXrX` 0.9.7.9.%.<         O o 5 5 5 7 x x x x x x x x x x x x x x 9 5 9 2 X         l 1.9.9.0.0.j rXrXrXrXrXrXrXrX",
"rXrXrXrXrXrXrXrXrX2.7.=.1.1.g   X       X : x x x x x x x x x x x x x x x x x x x x x p @ @         ) *.<. .%.<.rXrXrXrXrXrXrXrX",
"rXrXrXrXrXrX` 7.$X,X,X,X,X;Xg           # : x x x x x x p x x x x x x x 7 o 7 x x x x p 1 O     X   { =X=XM.=X;X=Xh.8.h rXrXrXrX",
"rXrXrXrXrXrX,.h.8.7. .*.8.8.g           X : s x x x x x x x x p x x x x x 6 p x x x x p @ X         _ 9.0.r.M.r.7.r.*.h rXrXrXrX",
"rXrXrXrXrXrXy.$X0.j.r.7.8.9.h           X : x x x x x x x x x x x x p   f.0Xa.  x x x p 1 o     X    .#Xe.h.M.j.r.q.1.h rXrXrXrX",
"rXrXrXrXrXrXe.*X8.j.$Xm.9.9.j   X       & > 7 p s 0 x x x x x x x s N V b.qXs.  x x x 8 > &     X   ,.#X7.r.r.h.r.n.<.h rXrXrXrX",
"rXrXrXrXrXrX5.j.r.r.r.m.h.7.g               O 2 x x c               +.0X9X0Xa.  x c x p         @   1.=X9.r.r.r.r.j.1.h rXrXrXrX",
"rXrXrXrXrXrX%.e.9.r.0.e.r.9.k     o   X +.$.: > 9 9 $ &.b.d.d.b.b.d.B.9X9X9XZ.d.N * x c &.V   . o   %.=Xe.e.r.r.9.9.%.h rXrXrXrX",
"rXrXrXrXrXrX| 9.*.<.1.1.y.8.f   X X     d.V.    O >   B.wX0XqX0X9X0X0X0X9X9X0XqX$.  5 c B.s.  o X   X.$X9.7.7.9.1.1.| j rXrXrXrX",
"rXrXrXrXrXrX} 1.%. .| { |  .g     $   $ S.9XA.V.  .   c +.V +.H.9X9XS.V +.+.V Z 6 2 Z.A.0XB.  $     ) ,.} { |  . .| } G rXrXrXrX",
"rXrXrXrXrXrXn j j / %.8.2.| g     @   $ S.J.9XZ.  u _ t O     A.9X0XZ.      t G = 6 H.9XJ.B.  ;   O n  .8.r.X.n j n L rXrXrXrXrX",
"rXrXrXrXrXrXrXrXrX1.,X,X*Xh.k   X       $ 9 p.p.  &XeX-Xb 4   H.9X0XZ.  m b 5XeX1.  p.p.2 &         } =X=X=Xe._ rXrXrXrXrXrXrXrX",
"rXrXrXrXrXrXrXrXrX<.$X$Xr.q.j   o X +     $ i.z   n.eX-Xb &.a.H.9X9XA.&.-.b 8XeX=.  z z     .   @   <.=X1.5.5./ rXrXrXrXrXrXrXrX",
"rXrXrXrXrXrXrXrXrX| r.$Xr.q.j @ O     O   X % -   s.qXc.v A.0X9X9X9X9XqXC.v C.wXV   - + .       @   1.*X0.r.r.) rXrXrXrXrXrXrXrX",
"rXrXrXrXrXrXrXrXrX| 9.r.n.q.k   k [ i       . :   @.N.V.C.9X9X9X9X9X9X9XA.C.b.s.c   $ $         X   %.$X9.7.0._ rXrXrXrXrXrXrXrX",
"rXrXrXrXrXrXrXrXrX| 9.h.n.9.j   ( t.f   O     #   G :.D.0X9X9X9X9X9X9X9X9X0Xs.  : @ +           X   | j.*.=.2.) rXrXrXrXrXrXrXrX",
"rXrXrXrXrXrXrXrXrX .0.0.7.2.k   ( 4...............>.6.@.A ..,.,.,.,.3.,.[ M 8 . (.[.y               } r.1.%.*./ rXrXrXrXrXrXrXrX",
"rXrXrXrXrXrXrXrXrX%.9.5.1.1.j   ( 4.>.3.w.w.w.w.3.>.6.P w H U U I I I U D w S q [.oXW S <           _ 9.9.*.9.' rXrXrXrXrXrXrXrX",
"rXrXrXrXrXrXrXrXrXd L L j u k   ( 4.Q L.T Y T R L.Q #._.E.!.!.!.~.~.!.R.!.!.W.E. XOXOX@XO           ^ ) / / ) s rXrXrXrXrXrXrXrX",
"rXrXrXrXrXrX| r.$X*X=X$Xj.j.j   ( 4.Q P././.(.W.L.;.#._.Y.R.E.W.R.R.R.Q.R.E.I.Y W./.'.'.^ f O X     _ j.m.m.}.s.e.8.7.n rXrXrXrX",
"rXrXrXrXrXrX<.*Xm.M.$X*X$Xj.j   ( 4.Q P. XOXOX|.R ;.#.~.^.!.E.U.U.U.U.E.E./.F O     @.#.4.o.    @   <.=Xr.n.h.r.#XM.=.g rXrXrXrX",
"rXrXrXrXrXrX1.j.9.0.r.0.r.1.k O ( 4.Q P.|.oXOX[.R ;.=.{ D K P b.C.C.c.D F S Q.).;.] ,.>.>.....G o   ,.r.} 1.9.m.m.n.,.h rXrXrXrX",
"rXrXrXrXrXrX5.j.e.j.m.q.0.7.h   _ 4.Q P.|.oXoX[.R ;.6.J   O * k.l.l.k.  ,   /.+X`.#.>.>.6.>.4.( o X %.$X*.2.q.*Xm.q.1.n rXrXrXrX",
"rXrXrXrXrXrXy.$X9.#Xn.9.2.7.j   ( u.Q K. XOXOX|.K.;.#.'.oXE.T.v.k.z.G.K.(. X XOXW 3 &X>X>Xt.  < @   <.,X9.r.g.q.q.h.1.h rXrXrXrX",
"rXrXrXrXrXrX7.$Xe.h.n.q.7.7.g   J ..;.! [.[.|.).! ;.] '.oX(.).N.F.C.*X^.). X[.[.D $ %X>X<Xt.    X   %.=Xr.n.n.h.9.q.=./ rXrXrXrX",
"rXrXrXrXrXrX1.M.0.n.m.9.9.1.k @     o.u.~ K.K.! 4.[   Y W. X+XXXXXXXXX+X[.W.E . # 2 &X>X<Xt.  @ O    .#Xh.r.r.#Xr.9.*.h rXrXrXrX",
"rXrXrXrXrXrX .r.0.e.8.1.1.,.g   @   j ( ;.;.;.:.( k   F Y T.W.R.E.R.R.E.T.Y S $ + r ].>X<Xt.  @     ) 9.r.r.8.r.y.1.{ h rXrXrXrX",
"rXrXrXrXrXrX_  .X.` ^ _ ` ` g     X     #.4.6.o.    ; .   O   . o o o     . # , O r %X>X<Xt.X 1 X @ j L ^ ^ _ { ` h / n rXrXrXrX",
"rXrXrXrXrXrXrXrXrX' j.$Xr.9.f   X   # X a f f f x 2   6 s i q q q q q q i x 2 # 5 c >X>X<X].# ; @   / e.=X=Xr.^ rXrXrXrXrXrXrXrX",
"rXrXrXrXrXrXrXrXrX%.9.e.h.r.g                 * c 8 : 8 x 2 O @ o @ o X 2 c a < x c >X<X2X].@ ; ;    .*X8.e.y.) rXrXrXrXrXrXrXrX",
"rXrXrXrXrXrXrXrXrX .8.r.r.r.g             & # p Z Z C M x 2 @ @ # X @ + 9 x N $.C +.1X<X2X].# ; ;   1.=X2.0.9._ rXrXrXrXrXrXrXrX",
"rXrXrXrXrXrXrXrXrX%.h.0.7.0.j   X       X 1 O 5 N N N x p 2 + @ X X @ O 6 p c Z N V <X2X4X>XrX> ,   1.$X7.r.e./ rXrXrXrXrXrXrXrX",
"rXrXrXrXrXrXrXrXrX*.m.9.8.r.g       O @ @ @ @ @ O O O O @ # O X X @ rXrXX 1 # =   t <X3X6X>XrXrXrXrX .j.8.9.j.` rXrXrXrXrXrXrXrX",
"rXrXrXrXrXrXrXrXrX%.j.9.8.7.g   @ @ @ @ # @ X # 1 1 ; 1 @ O rXrXrXrXrXrXrXrXrXrXrXrX2X4X6X<XrXrXrXrX} r.9.r.m.' rXrXrXrXrXrXrXrX",
"rXrXrXrXrXrXrXrXrX%.e.1.1.<.g   1 @ @ # X @ @ @ # @ X rXrXrXrXrXrXrXrXrXrXrXrXrXrXrX3X4X6X2XrXrXrXrX` 0.r.j.#X` rXrXrXrXrXrXrXrX",
"rXrXrXrXrXrXrXrXrX| 1.*.*. .j   ; 1 1 + @ @ @ 1 1 rXrXrXrXrXrXrXrXrXrXrXrXrXrXrXrXrX4X6X7X5XrXrXrXrX) 7.5.8.e._ rXrXrXrXrXrXrXrX",
"rXrXrXrXrXrXrXrXrXL n ^ L h f ; ; ; 1 3 @ @ ; rXrXrXrXrXrXrXrXrXrXrXrXrXrXrXrXrXrXrX4X4X4XrXrXrXrXrXg n L L / L rXrXrXrXrXrXrXrX"
};
