/* XPM */
static char *result[] = {
/* columns rows colors chars-per-pixel */
"64 63 64 1 ",
"  c #010101",
". c #070807",
"X c #080807",
"o c #010B0B",
"O c #0A0A0A",
"+ c #0F100E",
"@ c #100F10",
"# c #0E1212",
"$ c #131313",
"% c #181816",
"& c #161918",
"* c #1A1C1C",
"= c #310A0A",
"- c #1E2121",
"; c #2A2D2B",
": c #2D312E",
"> c #2C3332",
", c #333635",
"< c #353937",
"1 c #363B3A",
"2 c #393D3B",
"3 c #3C413E",
"4 c #3D4340",
"5 c #414643",
"6 c #454945",
"7 c #474C48",
"8 c #494D4A",
"9 c #4D524D",
"0 c #51544E",
"q c #4E5450",
"w c #515651",
"e c #555A55",
"r c #595C56",
"t c #575B58",
"y c #5A5E59",
"u c #5D625C",
"i c #61655E",
"p c #64685F",
"a c #626661",
"s c #656A63",
"d c #696D65",
"f c #696E68",
"g c #6D7066",
"h c #6E726A",
"j c #72756C",
"k c #75796E",
"l c #797B6F",
"z c #727770",
"x c #767A71",
"c c #7A7D73",
"v c #7D8176",
"b c #7D8279",
"n c #808276",
"m c #82857B",
"M c #85897E",
"N c #868B82",
"B c #898E84",
"V c #8C9187",
"C c #8C9289",
"Z c #92978C",
"A c #92988E",
"S c #969B92",
"D c #999E96",
"F c None",
/* pixels */
"FFFFFFFFFFFFFFFFFFFFFFFFFFFFFFFFFFFFFFFFFFFFFFFFFFFFFFFFFFFFFFFF",
"FFFFFFFFFFFFFFFFFFFFFFFFFFFwCBBBNCBCCfFFFFFFFFFFFFFFFFFFFFFFFFFF",
"FFFFFFFFFFFFFFFFFFFFFFFFFFFBZNVNBBNMMMuFFFFFFFFFFFFFFFFFFFFFFFFF",
"FFFFFFFFFFFFFFFFFFFFFFFFFF>BccmlxbhssfqFFFFFFFFFFFFFFFFFFFFFFFFF",
"FFFFFFFFFFFFFFFFFFFFFFFFFF>cvccvcmhahh4FFFFFFFFFFFFFFFFFFFFFFFFF",
"FFFFFFFFFFFFFFFFFFFFFFFFFFFubxkvcmjsdiFFFFFFFFFFFFFFFFFFFFFFFFFF",
"FFFFFFFFFFFFFFFFFFFFFFFFFFFwbkclxmhhhu>FFFFFFFFFFFFFFFFFFFFFFFFF",
"FFFFFFFFFFFFFFFFFFFFFFFFF996kkbkxcjjkuqtFFFFFFFFFFFFFFFFFFFFFFFF",
"FFFFFFFFFFFFFFFFquFFFFFavCb7sxjsjvccz7NDBhqFFFFg5FFFFFFFFFFFFFFF",
"FFFFFFFFFFFFFFFubb0FFubNbkz7wxhhxjzvhqNzhMBfFFhZVqFFFFFFFFFFFFFF",
"FFFFFFFFFFFFFFhBbbheuSMghfke9MbcNccchiNhhszCrgZMNN7FFFFFFFFFFFFF",
"FFFFFFFFFFFFFuBkgvzzsbvvbvxsrcvmcmclshbkkhjs0ZMMnmv3FFFFFFFFFFFF",
"FFFFFFFFFFFF9Vkkvxxvuebczxju8adhfjhfwzvkxjv7kMMMMnmcFFFFFFFFFFFF",
"FFFFFFFFFFFF6zxhkxvzbwfkba;*O--****-#;2hhbusCnMvnVMsFFFFFFFFFFFF",
"FFFFFFFFFFFFFFsbxjhjbx9u:               ,r9NMnvnvMrFFFFFFFFFFFFF",
"FFFFFFFFFFFFFF6uvxxvvf;   .  .  .  . . .  7MMvmMveeFFFFFFFFFFFFF",
"FFFFFFFFFFFFFuNqdxhcs& O                .O 2shcv6vm6FFFFFFFFFFFF",
"FFFFFFFFFFFFwCMv9hjt- O                   . ;uu6cbmg<FFFFFFFFFFF",
"FFFFFFFFFFFFbMgvs5w* .                     . ;3bNbMvuFFFFFFFFFFF",
"FFFFFFFFFFFibkcvMu                          . 5vvMMbl9FFFFFFFFFF",
"FFFFFFFFFFFelkcvk< .                         X 9vmvvj7FFFFFFFFFF",
"FFFFFFFFFFhuedjms .                            *gvjpeuFFFFFFFFFF",
"FFFFFFFFFFcMjssc< .                           X 3pufjk9FFFFFFFFF",
"FFFFFFFFFFnjcMk0                                *9vvjlsFFFFFFFFF",
"FFFFFFFFFdnkjgl6 O                             O ulgklxFFFFFFFFF",
"FFFFFFFFFenjjjj3 .                             . wjjjjnFFFFFFFFF",
"FFFFFFFFF0kjgju&                                 :sjgkj2FFFFFFFF",
"FFFFFFFFFddsda1 .                                 7iaruaFFFFFFFF",
"FFFFFFqhNSSSDZ<                                 . wCZMVSZvh1FFFF",
"FFFFFFivjhrihh<                                   8jxcmxdca1FFFF",
"FFFFFFzBjccfhj< .                               . tNxcMblls1FFFF",
"FFFFFFxVhmBMjj2                                 . iNgccvcna1FFFF",
"FFFFFFdbxccmcg<                                 O sCjncccma1FFFF",
"FFFFFFtxjxlzcj< .                               X uCjxccjju2FFFF",
"FFFFFFtjasadxj,                                 . yBjdjgaae2FFFF",
"FFFFFFwsireqet,                                   7iwwwyyew4FFFF",
"FFFFFF3226ihse< .                                .3rhxy5244FFFFF",
"FFFFFFFFFaZDZc2                                 . wCCCx7FFFFFFFF",
"FFFFFFFFFaBBcl2                                 . aCdff6FFFFFFFF",
"FFFFFFFFFrcBcl2 .                               O sCjcc8FFFFFFFF",
"FFFFFFFFFejcnl<                                 . yNgjj8FFFFFFFF",
"FFFFFFFFFrjvnj,                                 . ymaaf7FFFFFFFF",
"FFFFFFFFFtxjgd2 .                                 wcsya7FFFFFFFF",
"FFFFFFFFFujfps2                                   8zjaf8FFFFFFFF",
"FFFFFFFFF>552;,                                   57567>FFFFFFFF",
"FFFFFFtcBVBBbb1 .                               . 8cmMMzxhf4FFFF",
"FFFFFFaVmMNVBb1                                 O aAcnvxNMa1FFFF",
"FFFFFFamjkckcd,                                 O ycwsjMmna1FFFF",
"FFFFFFfbkbmkjg< .                               O aBidlVmls4FFFF",
"FFFFFFzBkNnkgh<                                 O aAjcnllna2FFFF",
"FFFFFFhNkvnlhh< .                               O uCcncngls5FFFF",
"FFFFFFsMkvmjjs,                                 . tNnccNcji2FFFF",
"FFFFFFtckxjssi, .                                 7zccjxzsq1FFFF",
"FFFFFF8yy94889<                 .................O24558qq164FFFF",
"FFFFFFFFF0bBcj, .          ..OOOOOOOOOO.OO......O 6xCCz6FFFFFFFF",
"FFFFFFFFFyjxbc<          .OOOOOOOOOO..... ......$ yBjzx8FFFFFFFF",
"FFFFFFFFFrhzcc<      .O.OOOOO.OO.... .. .. .. ..% sCgkj6FFFFFFFF",
"FFFFFFFFFuvchk2 .   .OOOOO........... .FFFFFFFFO% aBhcx7FFFFFFFF",
"FFFFFFFFFinjjc< . .OOOOOO........OFFFFFFFFFFFFFFFFtmhjc9FFFFFFFF",
"FFFFFFFFFivjhh< OOO@OO..OO...FFFFFFFFFFFFFFFFFFFFFwcjxM9FFFFFFFF",
"FFFFFFFFFuxdii2 @OOOOOOOOOOFFFFFFFFFFFFFFFFFFFFFFF9kxmN0FFFFFFFF",
"FFFFFFFFFwsiit2 $@OoOOO@@FFFFFFFFFFFFFFFFFFFFFFFFF7hfhx8FFFFFFFF",
"FFFFFFFFF53532,$%$$=OO$FFFFFFFFFFFFFFFFFFFFFFFFFFF,34464FFFFFFFF"
};
