/* XPM */
static char *result[] = {
/* columns rows colors chars-per-pixel */
"64 63 222 2 ",
"   c #010101",
".  c #0B0303",
"X  c #0B0A05",
"o  c #01030B",
"O  c #030A0D",
"+  c #0B0B0B",
"@  c #0A070A",
"#  c #130202",
"$  c #180C09",
"%  c #12100D",
"&  c #030A12",
"*  c #060A11",
"=  c #071315",
"-  c #141313",
";  c #1A1C1C",
":  c #1A1714",
">  c #0A120F",
",  c #221E1A",
"<  c #231B16",
"1  c #290E05",
"2  c #03281C",
"3  c #29211A",
"4  c #282219",
"5  c #352A1F",
"6  c #392A1B",
"7  c #2C2400",
"8  c #151E28",
"9  c #051037",
"0  c #1E2222",
"q  c #16212B",
"w  c #132732",
"e  c #2A2C2B",
"r  c #2C2621",
"t  c #3A2E22",
"y  c #332C28",
"u  c #3D3225",
"i  c #2A3332",
"p  c #333534",
"a  c #353936",
"s  c #363B3A",
"d  c #393C3B",
"f  c #38373A",
"g  c #2D312E",
"h  c #221D22",
"j  c #443526",
"k  c #4B3B2A",
"l  c #4A3A26",
"z  c #513F2D",
"x  c #4D3F34",
"c  c #4B251E",
"v  c #006D00",
"b  c #0C502F",
"n  c #3C413E",
"m  c #53412D",
"M  c #58452F",
"N  c #594631",
"B  c #5A4835",
"V  c #4F402E",
"C  c #6C553C",
"Z  c #6C5533",
"A  c #65502C",
"S  c #0B2F49",
"D  c #303F4E",
"F  c #000A44",
"G  c #413F43",
"H  c #3D4340",
"J  c #0D4A70",
"K  c #275475",
"L  c #224E6F",
"P  c #1D435F",
"I  c #424544",
"U  c #454945",
"Y  c #474C48",
"T  c #4A4D4B",
"R  c #4D524D",
"E  c #51544E",
"W  c #4E5450",
"Q  c #515551",
"!  c #555A55",
"~  c #595C56",
"^  c #5B5C5B",
"/  c #575859",
"(  c #4E4D53",
")  c #6D5C4A",
"_  c #5D625C",
"`  c #7D6649",
"'  c #61655E",
"]  c #64685F",
"[  c #75655A",
"{  c #605C60",
"}  c #556177",
"|  c #626661",
" . c #656A63",
".. c #696D65",
"X. c #6A6D69",
"o. c #696468",
"O. c #736A69",
"+. c #6D7066",
"@. c #6E726A",
"#. c #72756C",
"$. c #75796E",
"%. c #797B6F",
"&. c #756E71",
"*. c #767A71",
"=. c #7A7D73",
"-. c #787577",
";. c #485365",
":. c #A21033",
">. c #A31934",
",. c #B53444",
"<. c #C82E43",
"1. c #816549",
"2. c #856F55",
"3. c #897355",
"4. c #997D5F",
"5. c #837878",
"6. c #85746E",
"7. c #008200",
"8. c #7D8176",
"9. c #7D8279",
"0. c #CDB833",
"q. c #EDD534",
"w. c #E6CE23",
"e. c #808276",
"r. c #82857B",
"t. c #85897E",
"y. c #938561",
"u. c #A58967",
"i. c #BC9D76",
"p. c #AC906C",
"a. c #B1AA77",
"s. c #818A5C",
"d. c #C5A57C",
"f. c #C8BE78",
"g. c #DCC852",
"h. c #00598B",
"j. c #1B6E9E",
"k. c #096E9F",
"l. c #29638C",
"z. c #276996",
"x. c #377099",
"c. c #006EA0",
"v. c #1B71A3",
"b. c #0773AA",
"n. c #2875A7",
"m. c #367DAE",
"M. c #4C7296",
"N. c #437198",
"B. c #587595",
"V. c #59708B",
"C. c #757984",
"Z. c #7A7B87",
"A. c #60748F",
"S. c #5A7FA5",
"D. c #007EC1",
"F. c #847D83",
"G. c #887F84",
"H. c #3486BC",
"J. c #3C87BD",
"K. c #3A86BB",
"L. c #7D8081",
"P. c #5383AF",
"I. c #7488A7",
"U. c #0081C1",
"Y. c #1B8CCD",
"T. c #2888C4",
"R. c #3489C2",
"E. c #378CC7",
"W. c #3993CE",
"Q. c #3B97D5",
"!. c #3FA7EB",
"~. c #3AB9FF",
"^. c #38ACF5",
"/. c #399EE0",
"(. c #4F97CE",
"). c #42A7EA",
"_. c #43ADF3",
"`. c #44B3FC",
"'. c #46BAFF",
"]. c #49BDFF",
"[. c #609ED3",
"{. c #46C1FF",
"}. c #8A8185",
"|. c #868B82",
" X c #898E84",
".X c #878086",
"XX c #8C9187",
"oX c #8C9289",
"OX c #92978D",
"+X c #9B939B",
"@X c #979B94",
"#X c #91888E",
"$X c #A39BA3",
"%X c #ACA4AC",
"&X c #A4A3A5",
"*X c #B4ACB5",
"=X c #B1A7B1",
"-X c #BDB4BD",
";X c #B1B5A5",
":X c #A79D95",
">X c #CABB83",
",X c #D7B588",
"<X c #CEAE89",
"1X c #E3BD8E",
"2X c #C0B6BF",
"3X c #ACC1B1",
"4X c #CDC88C",
"5X c #EAC794",
"6X c #F2CB99",
"7X c #FBD39F",
"8X c #FFD6A1",
"9X c #FFDBA5",
"0X c #FFDFA9",
"qX c #FFE2AB",
"wX c #FFE4A8",
"eX c #CCCEB8",
"rX c #C0B7C0",
"tX c #C5BBC5",
"yX c #FFFEFB",
"uX c #FFF8EF",
"iX c #CAD5CC",
"pX c None",
/* pixels */
"pXpXpXpXpXpXpXpXpXpXpXpXpXpXpXpXpXpXpXpXpXpXpXpXpXpXpXpXpXpXpXpXpXpXpXpXpXpXpXpXpXpXpXpXpXpXpXpXpXpXpXpXpXpXpXpXpXpXpXpXpXpXpXpX",
"pXpXpXpXpXpXpXpXpXpXpXpXpXpXpXpXpXpXpXpXpXpXpXpXpXpXpX! oXXX X X XoX XoXoXX.pXpXpXpXpXpXpXpXpXpXpXpXpXpXpXpXpXpXpXpXpXpXpXpXpXpX",
"pXpXpXpXpXpXpXpXpXpXpXpXpXpXpXpXpXpXpXpXpXpXpXpXpXpXpX XOXt.XX X X|.|.t.r.9._ pXpXpXpXpXpXpXpXpXpXpXpXpXpXpXpXpXpXpXpXpXpXpXpXpX",
"pXpXpXpXpXpXpXpXpXpXpXpXpXpXpXpXpXpXpXpXpXpXpXpXpXpXi  X*.8.9.$.*.9.@. ...+.W pXpXpXpXpXpXpXpXpXpXpXpXpXpXpXpXpXpXpXpXpXpXpXpXpX",
"pXpXpXpXpXpXpXpXpXpXpXpXpXpXpXpXpXpXpXpXpXpXpXpXpXpXp 8.8.8.8.8.=.r.X.| @.@.H pXpXpXpXpXpXpXpXpXpXpXpXpXpXpXpXpXpXpXpXpXpXpXpXpX",
"pXpXpXpXpXpXpXpXpXpXpXpXpXpXpXpXpXpXpXpXpXpXpXpXpXpXpX_ 8.*.$.8.=.r.#. .+.| pXpXpXpXpXpXpXpXpXpXpXpXpXpXpXpXpXpXpXpXpXpXpXpXpXpX",
"pXpXpXpXpXpXpXpXpXpXpXpXpXpXpXpXpXpXpXpXpXpXpXpXpXpXpXQ 8.*.8.%.*.r.#.@.+._ i pXpXpXpXpXpXpXpXpXpXpXpXpXpXpXpXpXpXpXpXpXpXpXpXpX",
"pXpXpXpXpXpXpXpXpXpXpXpXpXpXpXpXpXpXpXpXpXpXpXpXpXW R U #.#.9.#.=.=.@.$.*.~ W _ pXpXpXpXpXpXpXpXpXpXpXpXpXpXpXpXpXpXpXpXpXpXpXpX",
"pXpXpXpXpXpXpXpXpXpXpXpXpXpXpXpXW _ pXpXpXpXpX_ 8.oX9.Y  .*.#. .$.=.=.=.*.U |.@X|.@.W pXpXpXpX+.I pXpXpXpXpXpXpXpXpXpXpXpXpXpXpX",
"pXpXpXpXpXpXpXpXpXpXpXpXpXpXpX_ L.9.E pXpX_ 9.|.8.#.*.Y Q *.@.@.$.#.-.=.@.Q |.*.#.L.|.@.pXpX@.OXXXW pXpXpXpXpXpXpXpXpXpXpXpXpXpX",
"pXpXpXpXpXpXpXpXpXpXpXpXpXpX@. XL.9.@.! _ @X9.@.@.X.#.! T t.r.=.r.=.=.9.@.| L.#.@. .8.|.~ +.OXt.XX|.Y pXpXpXpXpXpXpXpXpXpXpXpXpX",
"pXpXpXpXpXpXpXpXpXpXpXpXpX_  X$.@.*.*.@. .9.9.9.9.9.*. .~ e.=.r.9.r.=.*. .#.9.#.8.@.@...E OXt.t.e.e.8.n pXpXpXpXpXpXpXpXpXpXpXpX",
"pXpXpXpXpXpXpXpXpXpXpXpXR  X*.#.8.#.8.9._ ! 9.*.*.*.#._ T ' ..@.X.@.@...Q *.9.*.#.@.8.U $.t.t.t.t.e.r.=.pXpXpXpXpXpXpXpXpXpXpXpX",
"pXpXpXpXpXpXpXpXpXpXpXpXU *.*.@.#.8.#.8.9.Q +.%.8.| e ; > 0 0 ; ; ; ; 0 > e d $.@.9._ ..XX9.t.9.9.XXt.] pXpXpXpXpXpXpXpXpXpXpXpX",
"pXpXpXpXpXpXpXpXpXpXpXpXpXpX .9.*.#.#.@.9.8.R _ e                               a _ R  Xt.e.e.8.8.t.~ pXpXpXpXpXpXpXpXpXpXpXpXpX",
"pXpXpXpXpXpXpXpXpXpXpXpXpXpXY _ 8.*.#.8.8...e       O                 @             U 9.t.8.r.t.8.! ! pXpXpXpXpXpXpXpXpXpXpXpXpX",
"pXpXpXpXpXpXpXpXpXpXpXpXpX_ |.R +.*.@.*...;   +                                   +   d ..+.=.8.U 8.r.U pXpXpXpXpXpXpXpXpXpXpXpX",
"pXpXpXpXpXpXpXpXpXpXpXpXQ XXt.8.R @.@.! 0   @                                       @   e _ _ U *.r.9.@.a pXpXpXpXpXpXpXpXpXpXpX",
"pXpXpXpXpXpXpXpXpXpXpXpX9.t.#.9.| H Q 0                                               @   e n 9.t.r.t.9._ pXpXpXpXpXpXpXpXpXpXpX",
"pXpXpXpXpXpXpXpXpXpXpX| 9.#.%.8.r.|                                                         U =.8.t.r.9.8.W pXpXpXpXpXpXpXpXpXpX",
"pXpXpXpXpXpXpXpXpXpXpX~ %.$.8.8.$.s                                                       @   R 8.r.8.8.#.T pXpXpXpXpXpXpXpXpXpX",
"pXpXpXpXpXpXpXpXpXpXX._ !  .#.r. .  +                                                         ; +.9.#._ _ _ pXpXpXpXpXpXpXpXpXpX",
"pXpXpXpXpXpXpXpXpXpX8.t.#... .=.a                 X   X   .   .   X   . X X .               +   n ] _ ..#.#.R pXpXpXpXpXpXpXpXpX",
"pXpXpXpXpXpXpXpXpXpXr.#.*.r.$.E                     O O O O O O O O O O O O O O                 , R 8.8.#.#. .pXpXpXpXpXpXpXpXpX",
"pXpXpXpXpXpXpXpXpX..8.$.#.+.*.U   +         . @   : 3 4 4 4 4 4 4 4 4 4 4 4 , 3 %   @ .       +   _ %.+.$.$.%.pXpXpXpXpXpXpXpXpX",
"pXpXpXpXpXpXpXpXpX~ e.#.#.#.#.n             O & o 5 m m m m z m m m m m m m m m , o O O           Q #.#.#.$.8.pXpXpXpXpXpXpXpXpX",
"pXpXpXpXpXpXpXpXpXR $.#.+.#._ :         @ % 5 t 5 j m m z m m z m m m m m z m m j t t t + @       g  .#.+.$.$.d pXpXpXpXpXpXpXpX",
"pXpXpXpXpXpXpXpXpX........| s   @       + , m m m m m m m m z m m m m V m M m m m m m k - +         U '  .~ _ _ pXpXpXpXpXpXpXpX",
"pXpXpXpXpXpXW @.|.@X@X@X@XoXa         . > : z z m m z m m z m m m m m m j + j m z z m k - +         Q oXOXr.oX@XoXe.@.s pXpXpXpX",
"pXpXpXpXpXpX_ 8.#.+.~ ' @.#.a           + , z m z m m m z z z m z z m N z u k m z z m k - +         T #.%.*.r.=.+.=.| s pXpXpXpX",
"pXpXpXpXpXpX*. X#.9.=.@.@.#.a           > , m m m m m m m m m m m M j   u.9Xu.  m m m k - %         ~ |.*.8.t.9.=.%.| s pXpXpXpX",
"pXpXpXpXpXpX*. X@.9.|.t.#.#.d   @       : 3 j k z z z z m m m m m k ) ` d.qXp.  N m m k , :     +   | |...=.8.8.=.e.| s pXpXpXpX",
"pXpXpXpXpXpX..9.=.=.=.r.8.@.a               o 5 m m N               2.0X7X0Xu.  z M m k         +   | oX#.=.8.8.=.8.] a pXpXpXpX",
"pXpXpXpXpXpX~ *.#.*.$.$.=.#.p     X   . 3.3., < t j $ 4.d.i.i.i.i.i.,X8X7X8X,Xi.) < z A y.`   # X   | oX$.*.*.=.#.#.' d pXpXpXpX",
"pXpXpXpXpXpX! #. . . ...*.@.a   @ @     i.d.    O r   ,XqXqX0X0X0X0X0X8X9X7X0XqX3.  6 N <Xu.  $ @   _ |.#.@.@.#. . .! d pXpXpXpX",
"pXpXpXpXpXpX! | ^ ~ Q Q ! ! p     #   : 1X8X5Xd.  .   B 2.` 2.6X8X8X1X` 3.2.` ` t t ,X5X0X<X  $     Y _ Q R ! ~ ~ ! Q D pXpXpXpX",
"pXpXpXpXpXpXn d d U _ @...! a     >   : 1X7X8X,X  d { i       5X8X0X,X    X w W = t 6X7X7X,X  -     n ~ @.*.^ n d I d pXpXpXpXpX",
"pXpXpXpXpXpXpXpXpX .@X@XXXe.a         . @ c <.,.  &XyX3X7.b   6X8X0X,X  b 7.iXyXZ.  <.,.4 :         Q XXoXoX*.Y pXpXpXpXpXpXpXpX",
"pXpXpXpXpXpXpXpXpX .|. X=.%.d   X + O     1 :.>.  :XuX;Xv y.u.6X8X8X5X4.s.7.eXuX%.  >.:.    .   +   | OX..X.X.Y pXpXpXpXpXpXpXpX",
"pXpXpXpXpXpXpXpXpX! 8.|.=.%.s +       o   X 2 2   u.wXa.v 5X0X7X8X8X8XqX>Xv >XqX2.  2 = .       +    .oX$.*.=.Y pXpXpXpXpXpXpXpX",
"pXpXpXpXpXpXpXpXpX~ #.=.e.%.d   U o.p       # <   2.<X<X>X5X7X8X8X8X8X8X5X>Xa.p.B   : #         @   _ |.@.@.$.Y pXpXpXpXpXpXpXpX",
"pXpXpXpXpXpXpXpXpX! #.8.e.#.d   { +XG   O     *   ( V.<XqX9X7X7X8X8X8X8X9XqXp.  ; - &               / r.' | X.Y pXpXpXpXpXpXpXpX",
"pXpXpXpXpXpXpXpXpX~ #.$.#...a   / F.&.&.&.-.&.&.&.-.G.[ A &.C.C.C.C.C.Z.o.Z l # Q.!.S .         @   Q *. .~ | Y pXpXpXpXpXpXpXpX",
"pXpXpXpXpXpXpXpXpX_ #.X.] ] d   { G.Z.Z.Z.Z.Z.Z.Z.Z.5.( 9 h.h.h.h.h.h.h.J F S w !.`.l.D 8 X         T *.@. .+.T pXpXpXpXpXpXpXpX",
"pXpXpXpXpXpXpXpXpXg I I d i f   ^ }.M.v.z.z.z.z.v.M.5.P.T.P.J.J.J.J.J.J.R.P.R.R.`.'.'.^.            H Y I Y Y p pXpXpXpXpXpXpXpX",
"pXpXpXpXpXpX^ =. XoXXX|.L.9.d   ^ }.M.v.W.Q.W.E.j.B.6.P.H.H.H.K.J.J.H.R.m.T.n.z.R.W.[.[./ I @ @     Y 9.r.r.9.*.=.@.X.H pXpXpXpX",
"pXpXpXpXpXpX|  Xr.t. XXX|.9.f   { G.M.v.`.'.`._.j.B.%.P.Y.H.K.U.U.U.U.T.E.E.J o     [ 6.F.o.o   +    .OX=.e.8.=.|.t.| a pXpXpXpX",
"pXpXpXpXpXpX .9.#.#.=.$.%...f   { G.M.n._.`.`.!.j.B.5.} J L K :Xf.f.a.J K P m.!.A.o.Z.-.-.-.&.( @ + ^ =.Q  .#.r.r.8.| a pXpXpXpX",
"pXpXpXpXpXpXX.9.*.9.r.%.#.@.a   { G.M.n._.`.`.).v.B.5./   o 7 q.q.q.0.  0 . W.{.I.6.Z.F.F.-.F.{ @ + ' XX'  .=.t.t.8. .n pXpXpXpX",
"pXpXpXpXpXpX*. X#.|.e.$.+.@.d   { #XM.b._.'.'.^.c.B.6.[.`.T.m.g.w.w.f.b.Q.`.`.'.l.7 $X=X-X+X  h O   | OX#.=.5.8.%.8.| d pXpXpXpX",
"pXpXpXpXpXpX@.|.#.8.8.%.@.@.s   ( &.V.N.).)._.(.N.V.[ (.^.Q.W.4Xf.5X;XY.)._.!.!.J 1 =X*X-X+X    @   _ oX8.e.r.8.+.%.] H pXpXpXpX",
"pXpXpXpXpXpX .r.%.8.r.#.#. .a + o   o.#Xx.k.k.N.G.o.  l.R.`.'.~.~.{.~.].!.H.K # o e %X*X-X+X  - @   ~ |.8.%.=.|.8.+.] n pXpXpXpX",
"pXpXpXpXpXpX~ 8.$.$.@. . .| p   +   T ^ A.A.A.V.{ T   L l.m.R.K.H.H.H.H.n.l.P $ & e $X-XrX+X  >     Y #.=.=.@.*.#...Q s pXpXpXpX",
"pXpXpXpXpXpXY ^ ^ R I T Y R p     +     &.G.G.O.    ; #       . X .   X o   # h   e %X*XrX+X@ -   + d H H I T W R s U n pXpXpXpX",
"pXpXpXpXpXpXpXpXpXE 9. X=.#.a   .   @ + f G D x k t   y x e w 8 8 8 q w y x r o 6 x %X*XrX+X+ - >   U *.oX X*.I pXpXpXpXpXpXpXpX",
"pXpXpXpXpXpXpXpXpX_ #.*.9.=.a   o             < N k : j M 3   @ O + X   t N t < j ) =X*X-X$X@ - -   ~ XX$.*.*.T pXpXpXpXpXpXpXpX",
"pXpXpXpXpXpXpXpXpX~ #.#.8.*.d             : O j 1.` ` C z 5 * % @ O % & t m C 1.` 1.%X*XtX$X. ; -    .oX..$.#.U pXpXpXpXpXpXpXpX",
"pXpXpXpXpXpXpXpXpX_ 9.#.+.%.d           @ % O 5 C C C N j 3 O + X   + O 5 j A ) A ) %X*XtX$XpXh ;   |  X@.=.*.T pXpXpXpXpXpXpXpX",
"pXpXpXpXpXpXpXpXpX' r.#.@.%.a   .   @ + + + @ @   o   o > o   + @ @ pXpX+ * o &   e =X*XrX$XpXpXpXpX~ r.@.#.8.R pXpXpXpXpXpXpXpX",
"pXpXpXpXpXpXpXpXpX_ 9.#.@.@.a   + + + + + @ @ + - - - % - @ pXpXpXpXpXpXpX- - ;   p =X*XrX%XpXpXpXpXQ *.#.=.r.W pXpXpXpXpXpXpXpX",
"pXpXpXpXpXpXpXpXpX_ *. . .| s   * % + @ @ + + + @ + . pXpXpXpXpXpXpXpXpXpXpXpXpXpXpX*X*X-X%XpXpXpXpXR $.*.r.|.W pXpXpXpXpXpXpXpX",
"pXpXpXpXpXpXpXpXpX!  .' ' ~ d   - % * O + + + > + pXpXpXpXpXpXpXpXpXpXpXpXpXpXpXpXpX*X-XtX=XpXpXpXpXU @.+.@.*.Y pXpXpXpXpXpXpXpX",
"pXpXpXpXpXpXpXpXpXH n I H s p - - - - 1 + + - pXpXpXpXpXpXpXpXpXpXpXpXpXpXpXpXpXpXpX*X*X*X=XpXpXpXpXa n H H U H pXpXpXpXpXpXpXpX"
};
