/* XPM */
static char *result[] = {
/* columns rows colors chars-per-pixel */
"64 64 202 2 ",
"   c #010000",
".  c #0C0000",
"X  c #00020C",
"o  c #040B0F",
"O  c #0D0B0C",
"+  c #110000",
"@  c #150A03",
"#  c #040B11",
"$  c #0B0F11",
"%  c #000511",
"&  c #001519",
"*  c #151414",
"=  c #1C1918",
"-  c #0A150F",
";  c #221E19",
":  c #231C16",
">  c #2A1303",
",  c #03281C",
"<  c #29221A",
"1  c #282119",
"2  c #352A1F",
"3  c #392A1B",
"4  c #2C2400",
"5  c #00003F",
"6  c #141F29",
"7  c #1F2429",
"8  c #132732",
"9  c #2A292C",
"0  c #2C2621",
"q  c #352B22",
"w  c #3A2E22",
"e  c #312E2F",
"r  c #3D3225",
"t  c #303835",
"y  c #443525",
"u  c #4C3B2A",
"i  c #493A27",
"p  c #513F2D",
"a  c #4D3F34",
"s  c #006D00",
"d  c #0C502F",
"f  c #53412D",
"g  c #58452F",
"h  c #544332",
"j  c #5A4632",
"k  c #5E4D39",
"l  c #4F402E",
"z  c #604C36",
"x  c #6C553C",
"c  c #6C5533",
"v  c #695321",
"b  c #000A44",
"n  c #002F50",
"m  c #173145",
"M  c #423E40",
"N  c #1D435F",
"B  c #22425B",
"V  c #04476E",
"C  c #1C4868",
"Z  c #004A79",
"A  c #145073",
"S  c #275475",
"D  c #224E6F",
"F  c #48464A",
"G  c #595559",
"H  c #4D4C52",
"J  c #705B44",
"K  c #645D5B",
"L  c #7D6649",
"P  c #75655A",
"I  c #485365",
"U  c #556177",
"Y  c #6B656A",
"T  c #746A67",
"R  c #736C71",
"E  c #7D767B",
"W  c #7A7576",
"Q  c #A50B31",
"!  c #932436",
"~  c #B53444",
"^  c #CC2A41",
"/  c #C63346",
"(  c #816549",
")  c #856E53",
"_  c #816F5E",
"`  c #897355",
"'  c #997D5F",
"]  c #85746E",
"[  c #837672",
"{  c #80777B",
"}  c #837A7E",
"|  c #008200",
" . c #CDB833",
".. c #EED40D",
"X. c #DDC738",
"o. c #EDD534",
"O. c #818A5C",
"+. c #938561",
"@. c #A18665",
"#. c #AA8D6A",
"$. c #BC9D76",
"%. c #AC906C",
"&. c #B1AA77",
"*. c #C3A47B",
"=. c #CBAA7F",
"-. c #C6BE7E",
";. c #CCBF6B",
":. c #DCC852",
">. c #00598C",
",. c #00578A",
"<. c #1B6E9E",
"1. c #29638C",
"2. c #276A96",
"3. c #37709A",
"4. c #036EA0",
"5. c #0773AA",
"6. c #1C72A3",
"7. c #1571A3",
"8. c #2875A7",
"9. c #367DAE",
"0. c #4D7397",
"q. c #4C7398",
"w. c #437199",
"e. c #567494",
"r. c #5B7695",
"t. c #5A708A",
"y. c #757984",
"u. c #7A7D8C",
"i. c #7A7882",
"p. c #617590",
"a. c #5A7FA5",
"s. c #007EC1",
"d. c #837D83",
"f. c #887E83",
"g. c #3486BD",
"h. c #3C87BD",
"j. c #3A86BB",
"k. c #7D8081",
"l. c #5D82A8",
"z. c #4087BC",
"x. c #7488A7",
"c. c #0081C1",
"v. c #1B8CCD",
"b. c #2888C4",
"n. c #3489C2",
"m. c #378CC7",
"M. c #3993CE",
"N. c #3B97D5",
"B. c #399EE0",
"V. c #3EA6EA",
"C. c #3AB9FF",
"Z. c #39AFF9",
"A. c #4996D0",
"S. c #619ACD",
"D. c #5EA0D8",
"F. c #41AAEF",
"G. c #42A5E8",
"H. c #43ADF3",
"J. c #44B3FC",
"K. c #46BAFF",
"L. c #49BDFF",
"P. c #46C1FF",
"I. c #8A8185",
"U. c #878086",
"Y. c #91888E",
"T. c #989198",
"R. c #A79D95",
"E. c #ACA4AC",
"W. c #A4A3A5",
"Q. c #B5ACB5",
"!. c #B7AEB8",
"~. c #B8AFB8",
"^. c #BCB3BC",
"/. c #B1B5A5",
"(. c #CBBD82",
"). c #C6B388",
"_. c #D8B688",
"`. c #CDAE8B",
"'. c #E3BD8E",
"]. c #C0B6BF",
"[. c #ACC1B1",
"{. c #D2CA87",
"}. c #C3C396",
"|. c #EBC695",
" X c #EDC996",
".X c #E5CA93",
"XX c #F3CD99",
"oX c #F3C897",
"OX c #FCD49F",
"+X c #CCCEB8",
"@X c #FFD6A1",
"#X c #FFDBA5",
"$X c #FFDFA9",
"%X c #FFE2AB",
"&X c #FFE4A8",
"*X c #C0B7C0",
"=X c #C5BBC5",
"-X c #CAD5CC",
";X c white",
":X c #FFFCF2",
">X c #FFF8EF",
",X c None",
/* pixels */
",X,X,X,X,X,X,X,X,X,X,X,X,X,X,X,X,X,X,X,X,X,X,X,X,X,X,X,X,X,X,X,X,X,X,X,X,X,X,X,X,X,X,X,X,X,X,X,X,X,X,X,X,X,X,X,X,X,X,X,X,X,X,X,X",
",X,X,X,X,X,X,X,X,X,X,X,X,X,X,X,X,X,X,X,X,X,X,X,X,X,X,X,X,X,X,X,X,X,X,X,X,X,X,X,X,X,X,X,X,X,X,X,X,X,X,X,X,X,X,X,X,X,X,X,X,X,X,X,X",
",X,X,X,X,X,X,X,X,X,X,X,X,X,X,X,X,X,X,X,X,X,X,X,X,X,X,X,X,X,X,X,X,X,X,X,X,X,X,X,X,X,X,X,X,X,X,X,X,X,X,X,X,X,X,X,X,X,X,X,X,X,X,X,X",
",X,X,X,X,X,X,X,X,X,X,X,X,X,X,X,X,X,X,X,X,X,X,X,X,X,X,X,X,X,X,X,X,X,X,X,X,X,X,X,X,X,X,X,X,X,X,X,X,X,X,X,X,X,X,X,X,X,X,X,X,X,X,X,X",
",X,X,X,X,X,X,X,X,X,X,X,X,X,X,X,X,X,X,X,X,X,X,X,X,X,X,X,X,X,X,X,X,X,X,X,X,X,X,X,X,X,X,X,X,X,X,X,X,X,X,X,X,X,X,X,X,X,X,X,X,X,X,X,X",
",X,X,X,X,X,X,X,X,X,X,X,X,X,X,X,X,X,X,X,X,X,X,X,X,X,X,X,X,X,X,X,X,X,X,X,X,X,X,X,X,X,X,X,X,X,X,X,X,X,X,X,X,X,X,X,X,X,X,X,X,X,X,X,X",
",X,X,X,X,X,X,X,X,X,X,X,X,X,X,X,X,X,X,X,X,X,X,X,X,X,X,X,X,X,X,X,X,X,X,X,X,X,X,X,X,X,X,X,X,X,X,X,X,X,X,X,X,X,X,X,X,X,X,X,X,X,X,X,X",
",X,X,X,X,X,X,X,X,X,X,X,X,X,X,X,X,X,X,X,X,X,X,X,X,X,X,X,X,X,X,X,X,X,X,X,X,X,X,X,X,X,X,X,X,X,X,X,X,X,X,X,X,X,X,X,X,X,X,X,X,X,X,X,X",
",X,X,X,X,X,X,X,X,X,X,X,X,X,X,X,X,X,X,X,X,X,X,X,X,X,X,X,X,X,X,X,X,X,X,X,X,X,X,X,X,X,X,X,X,X,X,X,X,X,X,X,X,X,X,X,X,X,X,X,X,X,X,X,X",
",X,X,X,X,X,X,X,X,X,X,X,X,X,X,X,X,X,X,X,X,X,X,X,X,X,X,X,X,X,X,X,X,X,X,X,X,X,X,X,X,X,X,X,X,X,X,X,X,X,X,X,X,X,X,X,X,X,X,X,X,X,X,X,X",
",X,X,X,X,X,X,X,X,X,X,X,X,X,X,X,X,X,X,X,X,X,X,X,X,X,X,X,X,X,X,X,X,X,X,X,X,X,X,X,X,X,X,X,X,X,X,X,X,X,X,X,X,X,X,X,X,X,X,X,X,X,X,X,X",
",X,X,X,X,X,X,X,X,X,X,X,X,X,X,X,X,X,X,X,X,X,X,X,X,X,X,X,X,X,X,X,X,X,X,X,X,X,X,X,X,X,X,X,X,X,X,X,X,X,X,X,X,X,X,X,X,X,X,X,X,X,X,X,X",
",X,X,X,X,X,X,X,X,X,X,X,X,X,X,X,X,X,X,X,X,X,X,X,X,X,X$ o o # o # o o # o # o o # ,X,X,X,X,X,X,X,X,X,X,X,X,X,X,X,X,X,X,X,X,X,X,X,X",
",X,X,X,X,X,X,X,X,X,X,X,X,X,X,X,X,X,X,X,X,X,X,X,X,X,X< 1 1 1 1 1 1 1 1 1 < < 1 1 ,X,X,X,X,X,X,X,X,X,X,X,X,X,X,X,X,X,X,X,X,X,X,X,X",
",X,X,X,X,X,X,X,X,X,X,X,X,X,X,X,X,X,X,X,X,X,Xo o X 2 g f f f f f f f f f g f f f 1 X o o ,X,X,X,X,X,X,X,X,X,X,X,X,X,X,X,X,X,X,X,X",
",X,X,X,X,X,X,X,X,X,X,X,X,X,X,X,X,X,X,X,X,X,X2 w 2 y f f f f p f f f f f f p f f y 2 w q ,X,X,X,X,X,X,X,X,X,X,X,X,X,X,X,X,X,X,X,X",
",X,X,X,X,X,X,X,X,X,X,X,X,X,X,X,X,X,X,X,X$ ; f f f f f p f f p f p f f f g h f u f f h p * ,X,X,X,X,X,X,X,X,X,X,X,X,X,X,X,X,X,X,X",
",X,X,X,X,X,X,X,X,X,X,X,X,X,X,X,X,X,X,X,X$ : p f p p f f f p f f f h u f y O y g f p f u * ,X,X,X,X,X,X,X,X,X,X,X,X,X,X,X,X,X,X,X",
",X,X,X,X,X,X,X,X,X,X,X,X,X,X,X,X,X,X,X,X$ : p p f f f f p f p f f u h j l r u f f f f u * ,X,X,X,X,X,X,X,X,X,X,X,X,X,X,X,X,X,X,X",
",X,X,X,X,X,X,X,X,X,X,X,X,X,X,X,X,X,X,X,X$ ; f f p f p f f f f f f j i   @.#X@.  f f f u * ,X,X,X,X,X,X,X,X,X,X,X,X,X,X,X,X,X,X,X",
",X,X,X,X,X,X,X,X,X,X,X,X,X,X,X,X,X,X,X,X,X< i u p p p p u f h f f u x L *.%X%.  h f f p 1 ,X,X,X,X,X,X,X,X,X,X,X,X,X,X,X,X,X,X,X",
",X,X,X,X,X,X,X,X,X,X,X,X,X,X,X,X,X,X,X,X,X,XX < g f j               ) %XOX#X@.  p f f i   ,X,X,X,X,X,X,X,X,X,X,X,X,X,X,X,X,X,X,X",
",X,X,X,X,X,X,X,X,X,X,X,X,X,X,X,X,X,X,X,X,X,X1 ; w y @ +.*.$.$.$.$.$.`.#XOX#X_.$.J : f z @.,X,X,X,X,X,X,X,X,X,X,X,X,X,X,X,X,X,X,X",
",X,X,X,X,X,X,X,X,X,X,X,X,X,X,X,X,X,X,X,X*.`.    o 0   `.%X%X%X#X#X#X#X#X#X#X%X%X`   3 z `.,X,X,X,X,X,X,X,X,X,X,X,X,X,X,X,X,X,X,X",
",X,X,X,X,X,X,X,X,X,X,X,X,X,X,X,X,X,X,X,XXX@X|.`.  @   z ) L ) oX#X@X|.L ) ) L L q q _. X$X,X,X,X,X,X,X,X,X,X,X,X,X,X,X,X,X,X,X,X",
",X,X,X,X,X,X,X,X,X,X,X,X,X,X,X,X,X,X,X,X,X@X@X'.  t K t     X  X#X#X_.      8 H & w oX@X@X,X,X,X,X,X,X,X,X,X,X,X,X,X,X,X,X,X,X,X",
",X,X,X,X,X,X,X,X,X,X,X,X,X,X,X,X,X,X,X,X,X,X^ ~   W.;X[.| d    X@X#X_.  d | -X;Xk.  / ^ ,X,X,X,X,X,X,X,X,X,X,X,X,X,X,X,X,X,X,X,X",
",X,X,X,X,X,X,X,X,X,X,X,X,X,X,X,X,X,X,X,X,X,XQ !   R.:X/.| +.@. X@X#X|.' O.| +X:X[   ! Q ,X,X,X,X,X,X,X,X,X,X,X,X,X,X,X,X,X,X,X,X",
",X,X,X,X,X,X,X,X,X,X,X,X,X,X,X,X,X,X,X,X,X,X& ,   #.%X&.s .X$X@X@X@XOX&X{.s (.&X)   , - ,X,X,X,X,X,X,X,X,X,X,X,X,X,X,X,X,X,X,X,X",
",X,X,X,X,X,X,X,X,X,X,X,X,X,X,X,X,X,X,X,X,X,X,X,X  _ `.).{.XX@X@X@X@XOX#X X(.$.%.k   ,X,X,X,X,X,X,X,X,X,X,X,X,X,X,X,X,X,X,X,X,X,X",
",X,X,X,X,X,X,X,X,X,X,X,X,X,X,X,X,XT.,X,X,X,X,X,X  H U _.$X#X#X@X@X@X#XOX#X%X#.  : O ,X,X,X,X,X,X,X,X,X,X,X,X,X,X,X,X,X,X,X,X,X,X",
",X,X,X,X,X,X,X,X,X,X,X,X,X,X,X,X,Xd.E } E E { E R W d.P v R y.y.y.y.y.y.T c u + N.F.m ,X,X,X,X,X,X,X,X,X,X,X,X,X,X,X,X,X,X,X,X,X",
",X,X,X,X,X,X,X,X,X,X,X,X,X,X,X,X,Xf.y.u.u.u.u.u.y.i.d.I b Z >.,.,.,.,.>.Z b n 8 V.K.1.B ,X,X,X,X,X,X,X,X,X,X,X,X,X,X,X,X,X,X,X,X",
",X,X,X,X,X,X,X,X,X,X,X,X,X,X,X,X,Xf.0.7.2.2.2.2.7.e.[ l.n.z.h.h.h.h.h.h.h.h.n.n.H.L.K.Z.  ,X,X,X,X,X,X,X,X,X,X,X,X,X,X,X,X,X,X,X",
",X,X,X,X,X,X,X,X,X,X,X,X,X,X,X,X,XI.0.8.M.M.M.m.6.e.[ a.b.g.g.j.j.j.j.g.g.n.8.1.n.M.D.S.G H ,X,X,X,X,X,X,X,X,X,X,X,X,X,X,X,X,X,X",
",X,X,X,X,X,X,X,X,X,X,X,X,X,X,X,X,XI.0.6.J.J.L.H.<.e.[ l.b.g.m.c.s.s.c.n.n.M.D .     T ] d.Y   ,X,X,X,X,X,X,X,X,X,X,X,X,X,X,X,X,X",
",X,X,X,X,X,X,X,X,X,X,X,X,X,X,X,X,XI.q.8.H.K.J.G.7.e.{ U V D S &.(.(.&.V D N g.N.p.T i.i.i.R R ,X,X,X,X,X,X,X,X,X,X,X,X,X,X,X,X,X",
",X,X,X,X,X,X,X,X,X,X,X,X,X,X,X,X,Xf.0.6.H.J.K.G.<.e.{ G   X 4 X.o.o. .  7   M.P.x.] d.{ d.d.d.,X,X,X,X,X,X,X,X,X,X,X,X,X,X,X,X,X",
",X,X,X,X,X,X,X,X,X,X,X,X,X,X,X,X,XY.q.5.H.K.K.Z.4.e.] S.C.n.9.:.o...;.4.M.J.J.K.1.> E.E.^.,X,X,X,X,X,X,X,X,X,X,X,X,X,X,X,X,X,X,X",
",X,X,X,X,X,X,X,X,X,X,X,X,X,X,X,X,X{ r.w.G.F.F.A.w.t.P S.Z.M.A.}.{.{./.v.G.J.V.G.A @ E.^.*X,X,X,X,X,X,X,X,X,X,X,X,X,X,X,X,X,X,X,X",
",X,X,X,X,X,X,X,X,X,X,X,X,X,X,X,X,X,X,XY.3.4.4.q.d.Y   2.n.H.L.C.C.C.C.P.H.g.S + o 9 E.Q.*X,X,X,X,X,X,X,X,X,X,X,X,X,X,X,X,X,X,X,X",
",X,X,X,X,X,X,X,X,X,X,X,X,X,X,X,X,X,X,X,Xp.r.r.t.K F   D 2.9.n.g.g.g.g.b.8.1.C @ o 9 E.!.*X,X,X,X,X,X,X,X,X,X,X,X,X,X,X,X,X,X,X,X",
",X,X,X,X,X,X,X,X,X,X,X,X,X,X,X,X,X,X,X,X{ f.} T     = +       . . . .       + 7   9 E.!.*X,X,X,X,X,X,X,X,X,X,X,X,X,X,X,X,X,X,X,X",
",X,X,X,X,X,X,X,X,X,X,X,X,X,X,X,X,X,X,X,X,X,XF M i w X w a 9 8 ,X,X,X,X6 e h < % 3 h E.!.*X,X,X,X,X,X,X,X,X,X,X,X,X,X,X,X,X,X,X,X",
",X,X,X,X,X,X,X,X,X,X,X,X,X,X,X,X,X,X,X,X,X,X  > g i * y g <   ,X,X,X,XX 3 g r ; i z E.~.=X,X,X,X,X,X,X,X,X,X,X,X,X,X,X,X,X,X,X,X",
",X,X,X,X,X,X,X,X,X,X,X,X,X,X,X,X,X,X,X,X,X,X% u ( L ( c f q # ,X,X,X,X# w f x L L ( E.!.*X,X,X,X,X,X,X,X,X,X,X,X,X,X,X,X,X,X,X,X",
",X,X,X,X,X,X,X,X,X,X,X,X,X,X,X,X,X,X,X,X,X,X,X,Xx x x j y ,X,X,X,X,X,X,Xw y k J c J E.!.*X,X,X,X,X,X,X,X,X,X,X,X,X,X,X,X,X,X,X,X",
",X,X,X,X,X,X,X,X,X,X,X,X,X,X,X,X,X,X,X,X,X,X,X,XX X X o $ ,X,X,X,X,X,X,X,X$ X #   7 E.~.*X,X,X,X,X,X,X,X,X,X,X,X,X,X,X,X,X,X,X,X",
",X,X,X,X,X,X,X,X,X,X,X,X,X,X,X,X,X,X,X,X,X,X,X,X,X,X,X,X,X,X,X,X,X,X,X,X,X,X,X,X,X,XQ.!.].,X,X,X,X,X,X,X,X,X,X,X,X,X,X,X,X,X,X,X",
",X,X,X,X,X,X,X,X,X,X,X,X,X,X,X,X,X,X,X,X,X,X,X,X,X,X,X,X,X,X,X,X,X,X,X,X,X,X,X,X,X,XQ.Q.^.,X,X,X,X,X,X,X,X,X,X,X,X,X,X,X,X,X,X,X",
",X,X,X,X,X,X,X,X,X,X,X,X,X,X,X,X,X,X,X,X,X,X,X,X,X,X,X,X,X,X,X,X,X,X,X,X,X,X,X,X,X,XQ.].=X,X,X,X,X,X,X,X,X,X,X,X,X,X,X,X,X,X,X,X",
",X,X,X,X,X,X,X,X,X,X,X,X,X,X,X,X,X,X,X,X,X,X,X,X,X,X,X,X,X,X,X,X,X,X,X,X,X,X,X,X,X,X,XQ.!.,X,X,X,X,X,X,X,X,X,X,X,X,X,X,X,X,X,X,X",
",X,X,X,X,X,X,X,X,X,X,X,X,X,X,X,X,X,X,X,X,X,X,X,X,X,X,X,X,X,X,X,X,X,X,X,X,X,X,X,X,X,X,X,X,X,X,X,X,X,X,X,X,X,X,X,X,X,X,X,X,X,X,X,X",
",X,X,X,X,X,X,X,X,X,X,X,X,X,X,X,X,X,X,X,X,X,X,X,X,X,X,X,X,X,X,X,X,X,X,X,X,X,X,X,X,X,X,X,X,X,X,X,X,X,X,X,X,X,X,X,X,X,X,X,X,X,X,X,X",
",X,X,X,X,X,X,X,X,X,X,X,X,X,X,X,X,X,X,X,X,X,X,X,X,X,X,X,X,X,X,X,X,X,X,X,X,X,X,X,X,X,X,X,X,X,X,X,X,X,X,X,X,X,X,X,X,X,X,X,X,X,X,X,X",
",X,X,X,X,X,X,X,X,X,X,X,X,X,X,X,X,X,X,X,X,X,X,X,X,X,X,X,X,X,X,X,X,X,X,X,X,X,X,X,X,X,X,X,X,X,X,X,X,X,X,X,X,X,X,X,X,X,X,X,X,X,X,X,X",
",X,X,X,X,X,X,X,X,X,X,X,X,X,X,X,X,X,X,X,X,X,X,X,X,X,X,X,X,X,X,X,X,X,X,X,X,X,X,X,X,X,X,X,X,X,X,X,X,X,X,X,X,X,X,X,X,X,X,X,X,X,X,X,X",
",X,X,X,X,X,X,X,X,X,X,X,X,X,X,X,X,X,X,X,X,X,X,X,X,X,X,X,X,X,X,X,X,X,X,X,X,X,X,X,X,X,X,X,X,X,X,X,X,X,X,X,X,X,X,X,X,X,X,X,X,X,X,X,X",
",X,X,X,X,X,X,X,X,X,X,X,X,X,X,X,X,X,X,X,X,X,X,X,X,X,X,X,X,X,X,X,X,X,X,X,X,X,X,X,X,X,X,X,X,X,X,X,X,X,X,X,X,X,X,X,X,X,X,X,X,X,X,X,X",
",X,X,X,X,X,X,X,X,X,X,X,X,X,X,X,X,X,X,X,X,X,X,X,X,X,X,X,X,X,X,X,X,X,X,X,X,X,X,X,X,X,X,X,X,X,X,X,X,X,X,X,X,X,X,X,X,X,X,X,X,X,X,X,X",
",X,X,X,X,X,X,X,X,X,X,X,X,X,X,X,X,X,X,X,X,X,X,X,X,X,X,X,X,X,X,X,X,X,X,X,X,X,X,X,X,X,X,X,X,X,X,X,X,X,X,X,X,X,X,X,X,X,X,X,X,X,X,X,X",
",X,X,X,X,X,X,X,X,X,X,X,X,X,X,X,X,X,X,X,X,X,X,X,X,X,X,X,X,X,X,X,X,X,X,X,X,X,X,X,X,X,X,X,X,X,X,X,X,X,X,X,X,X,X,X,X,X,X,X,X,X,X,X,X",
",X,X,X,X,X,X,X,X,X,X,X,X,X,X,X,X,X,X,X,X,X,X,X,X,X,X,X,X,X,X,X,X,X,X,X,X,X,X,X,X,X,X,X,X,X,X,X,X,X,X,X,X,X,X,X,X,X,X,X,X,X,X,X,X",
",X,X,X,X,X,X,X,X,X,X,X,X,X,X,X,X,X,X,X,X,X,X,X,X,X,X,X,X,X,X,X,X,X,X,X,X,X,X,X,X,X,X,X,X,X,X,X,X,X,X,X,X,X,X,X,X,X,X,X,X,X,X,X,X"
};
