/* XPM */
static char *result[] = {
/* columns rows colors chars-per-pixel */
"64 64 216 2 ",
"   c #000000",
".  c #150304",
"X  c #001800",
"o  c #07161A",
"O  c #1C1B1D",
"+  c #171819",
"@  c #0C0F14",
"#  c #240004",
"$  c #27151A",
"%  c #00251D",
"&  c #1E1E21",
"*  c #161B20",
"=  c #0D1B22",
"-  c #002D29",
";  c #002721",
":  c #1B2524",
">  c #00322E",
",  c #003632",
"<  c #003C3B",
"1  c #0D3E3C",
"2  c #073838",
"3  c #1B3436",
"4  c #232325",
"5  c #252629",
"6  c #2B2729",
"7  c #26292C",
"8  c #2A2A2D",
"9  c #2A2325",
"0  c #2B2E31",
"q  c #222C33",
"w  c #302F34",
"e  c #2D3136",
"r  c #2E3339",
"t  c #2D393D",
"y  c #273637",
"u  c #313337",
"i  c #32363B",
"p  c #33393E",
"a  c #393A3F",
"s  c #3C343C",
"d  c #32252B",
"f  c #04403E",
"g  c #2C413B",
"h  c #003C41",
"j  c #253D41",
"k  c #2D3D42",
"l  c #353C42",
"z  c #3A3D43",
"x  c #4C3D50",
"c  c #024446",
"v  c #034B4D",
"b  c #0B4A4B",
"n  c #04464B",
"m  c #114B4B",
"M  c #1A494C",
"N  c #094F52",
"B  c #1B4B52",
"V  c #0A5154",
"C  c #035357",
"Z  c #19555A",
"A  c #1D595D",
"S  c #155255",
"D  c #284549",
"F  c #3C4146",
"G  c #344549",
"H  c #3E444A",
"J  c #384747",
"K  c #234E51",
"L  c #235154",
"P  c #285359",
"I  c #34555B",
"U  c #3E565B",
"Y  c #344B51",
"T  c #1A615E",
"R  c #1E5B60",
"E  c #175A60",
"W  c #005E61",
"Q  c #225E62",
"!  c #2B5F65",
"~  c #3A5C63",
"^  c #006E6C",
"/  c #076969",
"(  c #176668",
")  c #017573",
"_  c #027C7B",
"`  c #1E7473",
"'  c #266164",
"]  c #266469",
"[  c #2C656B",
"{  c #2A676C",
"}  c #39686E",
"|  c #316D74",
" . c #357279",
".. c #3B797E",
"X. c #357278",
"o. c #287076",
"O. c #41454B",
"+. c #43484E",
"@. c #49454C",
"#. c #454C53",
"$. c #494E55",
"%. c #455556",
"&. c #4B5157",
"*. c #4D535B",
"=. c #465858",
"-. c #51565D",
";. c #57575F",
":. c #4C5052",
">. c #555C63",
",. c #595E66",
"<. c #5E5768",
"1. c #485F67",
"2. c #605E66",
"3. c #41676D",
"4. c #5C636B",
"5. c #58646A",
"6. c #486D74",
"7. c #44787E",
"8. c #5C6C74",
"9. c #62666E",
"0. c #63686E",
"q. c #646B73",
"w. c #696E76",
"e. c #6A6F78",
"r. c #606770",
"t. c #6C727B",
"y. c #61727A",
"u. c #71767E",
"i. c #71787F",
"p. c #00807C",
"a. c #3E7B82",
"s. c #457D85",
"d. c #5F7F87",
"f. c #687B83",
"g. c #727780",
"h. c #757B84",
"j. c #787D86",
"k. c #7A7F89",
"l. c #038683",
"z. c #039694",
"x. c #198D8B",
"c. c #398288",
"v. c #328D8F",
"b. c #00A09D",
"n. c #01A6A4",
"m. c #00ABA9",
"M. c #15A7A4",
"N. c #0FB6B4",
"B. c #38AAAC",
"V. c #3BB6B6",
"C. c #24A7A5",
"Z. c #44858C",
"A. c #4C898F",
"S. c #5A868D",
"D. c #478991",
"F. c #4C8E96",
"G. c #4E929A",
"H. c #46939A",
"J. c #53949D",
"K. c #7C828B",
"L. c #77838B",
"P. c #668A92",
"I. c #7A8C94",
"U. c #6E8992",
"Y. c #4E99A1",
"T. c #559BA4",
"R. c #5A9DA5",
"E. c #7B97A0",
"W. c #5AA2A9",
"Q. c #58A6AC",
"!. c #57B7BC",
"~. c #52ACB3",
"^. c #64A1A9",
"/. c #62ADB6",
"(. c #62AFB8",
"). c #65B2BB",
"_. c #6CB4BD",
"`. c #73B5BC",
"'. c #74B1B7",
"]. c #6AB9C3",
"[. c #73C2CB",
"{. c #808790",
"}. c #838A93",
"|. c #8A8C96",
" X c #8B929B",
".X c #87919A",
"XX c #80828B",
"oX c #889CA5",
"OX c #949CA5",
"+X c #969CA5",
"@X c #B191BE",
"#X c #9BA2AC",
"$X c #97A4AD",
"%X c #9EA9B3",
"&X c #84B1BA",
"*X c #A1A6AF",
"=X c #A3ABB4",
"-X c #A7AEB8",
";X c #A0A7B1",
":X c #AAB1BB",
">X c #B394C1",
",X c #9AB7C1",
"<X c #ABBAC4",
"1X c #B2B9C4",
"2X c #B4BCC6",
"3X c #C69DD3",
"4X c #CCA7DB",
"5X c #D8ABE6",
"6X c #DEB5EE",
"7X c #94C9CE",
"8X c #96D2DB",
"9X c #8FCDD5",
"0X c #BCC4CE",
"qX c #9DEBF0",
"wX c #B2ECF4",
"eX c None",
/* pixels */
"eXeXeXeXeXeXeXeXeXeXeXeXeXeXeXeXeXeXeXeXeXeXeXeXeXeXeXeXeXeXeXeXeXeXeXeXeXeXeXeXeXeXeXeXeXeXeXeXeXeXeXeXeXeXeXeXeXeXeXeXeXeXeXeX",
"eXeXeXeXeXeXeXeXeXeXeXeXeXeXeXeXeXeXeXeXeXeXeXeXeXeXeXeXeXeXeXeXeXeXeXeXeXeXeXeXeXeXeXeXeXeXeXeXeXeXeXeXeXeXeXeXeXeXeXeXeXeXeXeX",
"eXeXeXeXeXeXeXeXeXeXeXeXeXeXeXeXeXeXeXeXeXeXeXeXeXeXeXeXeXeXeXeXeXeXeXeXeXeXeXeXeXeXeXeXeXeXeXeXeXeXeXeXeXeXeXeXeXeXeXeXeXeXeXeX",
"eXeXeXeXeXeXeXeXeXeXeXeXeXeXeXeXeXeXeXeXeXeXeXeXeXeXeXeXeXeXeXeXeXeXeXeXeXeXeXeXeXeXeXeXeXeXeXeXeXeXeXeXeXeXeXeXeXeXeXeXeXeXeXeX",
"eXeXeXeXeXeXeXeXeXeXeXeXeXeXeXeXeXeXeXeXeXeXeXeXeXeXeXeXeXeXeXeXeXeXeXeXeXeXeXeXeXeXeXeXeXeXeXeXeXeXeXeXeXeXeXeXeXeXeXeXeXeXeXeX",
"eXeXeXeXeXeXeXeXeXeXeXeXeXeXeXeXeXeXeXeXeXeXeXeXeXeXeXeXeXeXeXeXeXeXeXeXeXeXeXeXeXeXeXeXeXeXeXeXeXeXeXeXeXeXeXeXeXeXeXeXeXeXeXeX",
"eXeXeXeXeXeXeXeXeXeXeXeXeXeXeXeXeXeXeXeXeXeXeXeXeXeXeXeXeXeXeXeXeXeXeXeXeXeXeXeXeXeXeXeXeXeXeXeXeXeXeXeXeXeXeXeXeXeXeXeXeXeXeXeX",
"eXeXeXeXeXeXeXeXeXeXeXeXeXeXeXeXeXeXeXeXeXeXeXeXeXeXeXeXeXeXeXeXeXeXeXeXeXeXeXeXeXeXeXeXeXeXeXeXeXeXeXeXeXeXeXeXeXeXeXeXeXeXeXeX",
"eXeXeXeXeXeXeXeXeXeXeXeXeXeXeXeXeXeXeXeXeXeXeXeXeXeXeXeXeXeXeXeXeXeXeXeXeXeXeXeXeXeXeXeXeXeXeXeXeXeXeXeXeXeXeXeXeXeXeXeXeXeXeXeX",
"eXeXeXeXeXeXeXeXeXeXeXeXeXeXeXeXeXeXeXeXeXeXeXeXeXeXeXeXeXeXeXeXeXeXeXeXeXeXeXeXeXeXeXeXeXeXeXeXeXeXeXeXeXeXeXeXeXeXeXeXeXeXeXeX",
"eXeXeXeXeXeXeXeXeXeXeXeXeXeXeXeXeXeXeXeXeXeXeXeXeXeXeXeXeXeXeXeXeXeXeXeXeXeXeXeXeXeXeXeXeXeXeXeXeXeXeXeXeXeXeXeXeXeXeXeXeXeXeXeX",
"eXeXeXeXeXeXeXeXeXeXeXeXeXeXeXeXeXeXeXeXeXeXeXeXeXeXeXeXeXeXeXeXeXeXeXeXeXeXeXeXeXeXeXeXeXeXeXeXeXeXeXeXeXeXeXeXeXeXeXeXeXeXeXeX",
"eXeXeXeXeXeXeXeXeXeXeXeXeXeXeXeXeXeXeXeXeXeXeXeXeXeXeXeXeXeXeXeXeXeXeXeXeXeXeXeXeXeXeXeXeXeXeXeXeXeXeXeXeXeXeXeXeXeXeXeXeXeXeXeX",
"eXeXeXeXeXeXeXeXeXeXeXeXeXeXeXeXeXeXeXeXeXeXeXeXeXeXeXeXeXeXeXeXeXeXeXeXeXeXeXeXeXeXeXeXeXeXeXeXeXeXeXeXeXeXeXeXeXeXeXeXeXeXeXeX",
"eXeXeXeXeXeXeXeXeXeXeXeXeXeXeXeXeXeXeXeXeXeXeXeXeXeXeXeXeXeXeXeXeXeXeXeXeXeXeXeXeXeXeXeXeXeXeXeXeXeXeXeXeXeXeXeXeXeXeXeXeXeXeXeX",
"eXeXeXeXeXeXeXeXeXeXeXeXeXeXeXeXeXeXeXeXeXeXeXeXeXeXeXeXeXeXeXeXeXeXeXeXeXeXeXeXeXeXeXeXeXeXeXeXeXeXeXeXeXeXeXeXeXeXeXeXeXeXeXeX",
"eXeXeXeXeXeXeXeXeXeXeXeXeXeXeXeXeXeXeXeXeXeXeXeXeXeXeXeXeXeXeXeXeXeXeXeXeXeXeXeXeXeXeXeXeXeXeXeXeXeXeXeXeXeXeXeXeXeXeXeXeXeXeXeX",
"eXeXeXeXeXeXeXeXeXeXeXeXeXeXeXeXeXeXeXeXeXeXeXeXeXeXeXeXeXeXeXeXeXeXeXeXeXeXeXeXeXeXeXeXeXeXeXeXeXeXeXeXeXeXeXeXeXeXeXeXeXeXeXeX",
"eXeXeXeXeXeXeXeXeXeXeXeXeXeXeXeXeXeXeXeXeXeXeXeXeXeXeXeXeXeXeXeXeXeXeXeXeXeXeXeXeXeXeXeXeXeXeXeXeXeXeXeXeXeXeXeXeXeXeXeXeXeXeXeX",
"eXeXeXeXeXeXeXeXeXeXeXeXeXeXeXeXeXeXeXeXeXeXeXeXeXeXeXeXeXeXeXeXeXeXeXeXeXeXeXeXeXeXeXeXeXeXeXeXeXeXeXeXeXeXeXeXeXeXeXeXeXeXeXeX",
"eXeXeXeXeXeXeXeXeXeXeXeXeXeXeXeXeXeXeXeXeXeXeXeXeXeXeXeXeXeXeXeXwXeXeXeXeXeXeXeXeXeXeXeXeXeXeXeXeXeXeXeXeXeXeXeXeXeXeXeXeXeXeXeX",
"eXeXeXeXeXeXeXeXeXeXeXeXeXeXeXeXeXeXeXeXeXeXeXeXeXeXeXeXeXeXeXeX9XeXeXeXeXeXeXeXeXeXeXeXeXeXeXeXeXeXeXeXeXeXeXeXeXeXeXeXeXeXeXeX",
"eXeXeXeXeXeXeXeXeXeXeXeXeXeXeXeXeXeXeXeXeXeXeXeXeXeXeXeXeXeXeXeX~.eXeXeXeXeXeXeXeXeXeXeXeXeXeXeXeXeXeXeXeXeXeXeXeXeXeXeXeXeXeXeX",
"eXeXeXeXeXeXeXeXeXeXeXeXeXeXeXeXeXeXeXeXeXeXeXeXeXeXeXeXeXeXeXeXn.eXeXeXeXeXeXeXeXeXeXeXeXeXeXeXeXeXeXeXeXeXeXeXeXeXeXeXeXeXeXeX",
"eXeXeXeXeXeXeXeXeXeXeXeXeXeXeXeXeXeXeXeXeXeXeXeXeXeXeXeXeXeXeXeXp.eXeXeXeXeXeXeXeXeXeXeXeXeXeXeXeXeXeXeXeXeXeXeXeXeXeXeXeXeXeXeX",
"eXeXeXeXeXeXeXeXeXeXeXeX).eXeXeXeXeXeXeXeXeXeXeXeXeXeXeXeXeXeXn.( eXeXeXeXeXeXeXeXeXeXeXeXeXeXeXeXeXeX).eXeXeXeXeXeXeXeXeXeXeXeX",
"eXeXeXeXeXeXeXeXeXeXeXeX_.8XeXeXeXeXeXeXeXeXeXeXeXeXeXeXeXeXx.m.( S eXeXeXeXeXeXeXeXeXeXeXeXeXeXeXeX_._.eXeXeXeXeXeXeXeXeXeXeXeX",
"eXeXeXeXeXeXeXeXeXeXeXeXeXwXqXn.eXeXeXeX6 l a 0 0 a a l a d B ) Z Z K u 0 0 0 0 8 a a eXeXeXeXeXp.!.].eXeXeXeXeXeXeXeXeXeXeXeXeX",
"eXeXeXeXeXeXeXeXeXeXeXeXeXeXeXl.m._ , & o 8.9.  @ 5.g.t.g.O.  4 : * H >.+   @ :   0.w.0 # H.9XwXV.eXeXeXeXeXeXeXeXeXeXeXeXeXeXeX",
"eXeXeXeXeXeXeXeXeXeXeXeXeXeXeXx.!.B.a.U OX.X}.+X+X;X-X=X=X*XoXS.q.9.4.r. XOX+X+X+X.Xe.@.D c.~.`.C.eXeXeXeXeXeXeXeXeXeXeXeXeXeXeX",
"eXeXeXeXeXeXeXeXeXeXeXeXeXeXeXl.R.B.l.~ %X.X.X-X-X;X#X=X=X#X&X!.I.K.t.q.2X0X1X-X:X|.y.S.A W ^ ^ ) eXeXeXeXeXeXeXeXeXeXeXeXeXeXeX",
"eXeXeXeXeXeXeXeXeXeXeXeXeXeXeXeXb ^ / ~ e.h.h.g.g.5.9.K.j.U ) M.f.j.w.r.-X2X+Xt.i.4.S._.} M / _ eXeXeXeXeXeXeXeXeXeXeXeXeXeXeXeX",
"eXeXeXeXeXeXeXeXeXeXeXeXeXeXeXj.N c 3.g.+.w.K.j.4.&.{.1X}.1./ p.' 5.>.H r.K.K.j.r.l j.<XK.~ C C y eXeXeXeXeXeXeXeXeXeXeXeXeXeXeX",
"eXeXeXeXeXeXeXeXeXeXeXeXeXeXeX0.OX$X Xg.z z $.-.>.t.h.t.-.k 1 b 2 l i 7 e O.,.q.O.= 9.OXK.g.y.q.t eXeXeXeXeXeXeXeXeXeXeXeXeXeXeX",
"eXeXeXeXeXeXeXeXeXeXeXeXeXeX. $.%X2X-Xt.l 4.w.#.>.q.>.O i l O.:.x z z F z 4 u *.>.-.>.r.t.j.k.t.$.i eXeXeXeXeXeXeXeXeXeXeXeXeXeX",
"eXeXeXeXeXeXeXeXeXeXeXeXeX+ $.y.t.%X;Xg.Y #X<Xj.q.p z r.4.4.w.j.5.5.4.r.r.O.: H j.K.q.e >.t.t.>.4.#.O eXeXeXeXeXeXeXeXeXeXeXeXeX",
"eXeXeXeXeXeXeXeXeXeXeXeXeX  s._.L.k.k.L./.,X1X:X{.#.O.h.u.i.w.4.>.q.j.k.k.*.+ O.j.K.q.l >.4.4.>.O.0 + eXeXeXeXeXeXeXeXeXeXeXeXeX",
"eXeXeXeXeXeXeXeXeXeXeXeXeX0.t.s.q.h.h.q.s.%X1X|.4.& q.:X=X:XOXw.t.$XOX4.e.@.3 P *.g.q.l ,.*.#.#.p 4.w.eXeXeXeXeXeXeXeXeXeXeXeXeX",
"eXeXeXeXeXeXeXeXeXeXeXeXeX}.g.$ #.q.t.-.# |.#Xt.z   q.=X=X:XOXw.e.+X+X4.4.z y B q e.e.l -.H r r 0 j.{.eXeXeXeXeXeXeXeXeXeXeXeXeX",
"eXeXeXeXeXeXeXeXeXeXeXeXeXj.e.t k *.,.>.l 4.h.t.H 5 a -.w.u.q.5.,.q.g.g.4.z 4 6 r q.q.r l l u 5 & w.j.eXeXeXeXeXeXeXeXeXeXeXeXeX",
"eXeXeXeXeXeXeXeXeXeXeXeXeXa F z l l z z l H H i 0 8 0 w X   :.L.r.y   X e 0 8 8 8 F H l l u 8 0 8 a a eXeXeXeXeXeXeXeXeXeXeXeXeX",
"eXeXeXeXeXeXeXeXeXeXeXeXeXeX4 i l i r l l 0 7 4 8 8 X x 3X5X@X8.>.@X5X4Xx X 8 8 8 8 u G P j 6 8 0 4 eXeXeXeXeXeXeXeXeXeXeXeXeXeX",
"eXeXeXeXeXeXeXeXeXeXeXeXeXeXeX0 i 0 0 i 0 6 7 0 8 7 : <.4X6X@Xg g @X6X4X<.: 7 8 8 6 8 p K y 6 8 0 eXeXeXeXeXeXeXeXeXeXeXeXeXeXeX",
"eXeXeXeXeXeXeXeXeXeXeXeXeXeXeXw 0 0 8 6 7 8 8 8 8 4 H 5.=.=.J 8 w J U =.4.O.4 8 8 0 8 8 6 8 8 8 0 eXeXeXeXeXeXeXeXeXeXeXeXeXeXeX",
"eXeXeXeXeXeXeXeXeXeXeXeXeXeXeX0 l z p 8 8 8 0 8 8 6 e O.,.4.5.>.5.5.4.5.H e 8 8 8 t l p 8 8 8 0 0 eXeXeXeXeXeXeXeXeXeXeXeXeXeXeX",
"eXeXeXeXeXeXeXeXeXeXeXeXeXeXeX& i q     5 5 5 8 0 8 8 r #.#.#.$.:.:.%.+.u 8 8 8 8 u l l o     4 O eXeXeXeXeXeXeXeXeXeXeXeXeXeXeX",
"eXeXeXeXeXeXeXeXeXeXeXeXeXeXi *.O.q.K.g.l l z 6 8 8 8 8 e r e e e e e e 8 8 8 8 7 H H H g.k.0.F ;.a eXeXeXeXeXeXeXeXeXeXeXeXeXeX",
"eXeXeXeXeXeXeXeXeXeXeXeXeXl e.{.,.#X2X-X$.*.>.4 q 0 6 8 8 7 8 8 7 7 8 8 8 8 8 8 4 -.*.*.:X0X*X>.L.q.z eXeXeXeXeXeXeXeXeXeXeXeXeX",
"eXeXeXeXeXeXeXeXeXeXeXeX   X2X:X9.#X:Xu.O.-.-.7 Z D 9 7 7 0 7 8 8 8 8 8 8 8 8 8 4 >.*.&.:X0X#X-.u.=XOX  eXeXeXeXeXeXeXeXeXeXeXeX",
"eXeXeXeXeXeXeXeXeXeXeXeX  =X:XK.4.u.E.^.J x F $ j t i i e e r i i u e e u 8 8 8 5 z z #.&XoXu.r.2.|.{.. eXeXeXeXeXeXeXeXeXeXeXeX",
"eXeXeXeXeXeXeXeXeXeXeXeX. {. X,.>.;.f.^.} l G I 8 u l l #.$.+.l l O.$.#.$.z 8 8 w k D ~ v.E.}.OXS.f.0.M eXeXeXeXeXeXeXeXeXeXeXeX",
"eXeXeXeXeXeXeXeXeXeXeXeXe v 3.j.8.f.t.-.s.I I a.t e l O.,.4.*.l l -.4.5.5.#.y 8 l K V V < oX0X<X].E.4.C n.eXeXeXeXeXeXeXeXeXeXeX",
"eXeXeXeXeXeXeXeXeXeXeX).! z.v.q./.R.} - < , - - - ; G 5.4.$.l l l *.r.5.O.3 - > - , - o % 6.W.`.I.4.p y eXeXeXeXeXeXeXeXeXeXeXeX",
"eXeXeXeXeXeXeXeXeXeXeXeXeX( ' I Y. .| T.T.Y.'.7XW.Q.A.J #.H i e 0 H #.#.3 A.W.T.T.Y.`.7XW.] o.G.6.s # eXeXeXeXeXeXeXeXeXeXeXeXeX",
"eXeXeXeXeXeXeXeXeXeXeXeXeXT c.c. .< a.].R.Y.'.7XW.T.Z.> y u 0 5 6 0 0 e , Z.R.T.R.Y.`.8X[...f | c ( ` eXeXeXeXeXeXeXeXeXeXeXeXeX",
"eXeXeXeXeXeXeXeXeXeXeXeXeXm.V._.Q ; a.(.B N E C m m b f 8 0 u u 0 e u q h b b m R A { c./..., S K z.N.eXeXeXeXeXeXeXeXeXeXeXeXeX",
"eXeXeXeXeXeXeXeXeXeXeXeX).eXeXeX2 , ' Z...R.).).).).F.> p *.5.>.l *.-.t , G.)./././.)./.| b , P ).eXeX).eXeXeXeXeXeXeXeXeXeXeXeX",
"eXeXeXeXeXeXeXeXeXeXeXeXeXeXeXeXz.^ L Z.a.G.T.T.Y._.W.- 0 O.$.$.z #.O.y - R.].Y.T.T.T.G.A c 2 K F.eXeXeXeXeXeXeXeXeXeXeXeXeXeXeX",
"eXeXeXeXeXeXeXeXeXeXeXeXeXeXeXeXM.^ P Z.J.a.{ { [ F.A.> 7 e e e i i 0 7 , Z.F.[ [ |  .a.A v f eXh eXeXeXeXeXeXeXeXeXeXeXeXeXeXeX",
"eXeXeXeXeXeXeXeXeXeXeXeXeXeXeXA eX% ' D.(.Z.h < < > , c 8 8 8 8 7 8 8 8 1 , , < < n { a.A b f eXeXeXeXeXeXeXeXeXeXeXeXeXeXeXeXeX",
"eXeXeXeXeXeXeXeXeXeXeXeXeXeXeXeXeX> ] Z.D.D.X.S Z v , 7 8 8 8 8 0 8 0 8 5 , n Z Z Z A A A V f eXeXeXeXeXeXeXeXeXeXeXeXeXeXeXeXeX",
"eXeXeXeXeXeXeXeXeXeXeXeXeXeXeXeXeXeXK ] ( ] P v v U >.*.e 6 8 0 0 8 6 0 -.>.U v V b v v V c eXeXeXeXeXeXeXeXeXeXeXeXeXeXeXeXeXeX",
"eXeXeXeXeXeXeXeXeXeXeXeXeXeXeXeXeXeXeX, > > 2 1 < *.4.>.u 8 8 8 8 8 0 i >.4.=.< 1 1 1 1 1 eXeXeXeXeXeXeXeXeXeXeXeXeXeXeXeXeXeXeX",
"eXeXeXeXeXeXeXeXeXeXeXeXeXeXeXeXeXeXeXeXeXeXeXeXeXeXeXeX8 0 w eXeX8 p l eXeXeXeXeXeXeXeXeXeXeXeXeXeXeXeXeXeXeXeXeXeXeXeXeXeXeXeX"
};
