/* XPM */
static char *result[] = {
/* columns rows colors chars-per-pixel */
"64 64 123 2 ",
"   c #000000",
".  c #0C0802",
"X  c #160E02",
"o  c #1C1303",
"O  c #201604",
"+  c #241A05",
"@  c #281D05",
"#  c #32250C",
"$  c #43300D",
"%  c #4D3811",
"&  c #543E13",
"*  c #574214",
"=  c #5F4617",
"-  c #5F4718",
";  c #74561D",
":  c #76581E",
">  c #785A1F",
",  c #7E5F21",
"<  c #856424",
"1  c #896725",
"2  c #946E28",
"3  c #95722A",
"4  c #9D762C",
"5  c #9F7929",
"6  c #A37C2D",
"7  c #A67E30",
"8  c #D36600",
"9  c #D46A02",
"0  c #D66F0C",
"q  c #D7710E",
"w  c #D77311",
"e  c #D87515",
"r  c #DB7913",
"t  c #DB7D1B",
"y  c #DC7F20",
"u  c #A7802F",
"i  c #A9812F",
"p  c #A68033",
"a  c #AB8231",
"s  c #B08633",
"d  c #BB8D36",
"f  c #BC9039",
"g  c #DC801F",
"h  c #DE8223",
"j  c #C39435",
"k  c #C5963A",
"l  c #C7983C",
"z  c #C9993B",
"x  c #E08724",
"c  c #E48F2C",
"v  c #E4902D",
"b  c #E38F33",
"n  c #E29732",
"m  c #E79832",
"M  c #E99C34",
"N  c #E6963A",
"B  c #D5A23E",
"V  c #DCA53F",
"C  c #ECA035",
"Z  c #E0A03A",
"A  c #EDA33A",
"S  c #F0A73C",
"D  c #F0AA3E",
"F  c #EBB33F",
"G  c #F8B436",
"H  c #FEBE33",
"J  c #F5B13D",
"K  c #FDBF3D",
"L  c #FFC13E",
"P  c #B28C44",
"I  c #CDA14F",
"U  c #DDA741",
"Y  c #DEAA42",
"T  c #EDA543",
"R  c #E2AC43",
"E  c #EAA249",
"W  c #EDA94F",
"Q  c #F2AC41",
"!  c #EAB246",
"~  c #EEB548",
"^  c #F6B443",
"/  c #F9B744",
"(  c #FBBB45",
")  c #F0B748",
"_  c #F1B848",
"`  c #FCBD4A",
"'  c #F2B053",
"]  c #CCA661",
"[  c #D5AC61",
"{  c #F7BD63",
"}  c #FFC346",
"|  c #FFC34D",
" . c #FFC84F",
".. c #FFC554",
"X. c #FFCA50",
"o. c #FFC65B",
"O. c #FFC761",
"+. c #FFC964",
"@. c #FFCB6C",
"#. c #FAC672",
"$. c #FFCD73",
"%. c #FFCE79",
"&. c #FFD07D",
"*. c #F1C982",
"=. c #FACB82",
"-. c #FFD385",
";. c #FED58C",
":. c #FFD88E",
">. c #F0CE90",
",. c #FED691",
"<. c #FFD893",
"1. c #FFDD9E",
"2. c #FFDFA2",
"3. c #FEE0A5",
"4. c #FFE1A9",
"5. c #FFE6B4",
"6. c #FFE8B6",
"7. c #FFEABA",
"8. c #FFEEC3",
"9. c #FFF0C6",
"0. c #FFF4CD",
"q. c #FFF6D1",
"w. c None",
/* pixels */
"w.w.w.w.w.w.w.w.w.w.w.w.w.w.w.w.w.w.w.w.w.w.w.w.w.w.w.w.w.w.w.w.w.w.w.w.w.w.w.w.w.w.w.w.w.w.w.w.w.w.w.w.w.w.w.w.w.w.w.w.w.w.w.w.",
"w.w.w.w.w.w.w.w.w.w.w.w.w.w.w.w.w.w.w.w.w.w.w.w.w.w.w.w.w.w.w.w.w.w.w.w.w.w.w.w.w.w.w.w.w.w.w.w.w.w.w.w.w.w.w.w.w.w.w.w.w.w.w.w.",
"w.w.w.w.w.w.w.w.w.w.w.w.w.w.w.w.w.w.w.w.w.w.w.w.w.w.w.w.w.w.w.w.w.w.w.w.w.w.w.w.w.w.w.w.w.w.w.w.w.w.w.w.w.w.w.w.w.w.w.w.w.w.w.w.",
"w.w.w.w.w.w.w.w.w.w.w.w.w.w.w.w.w.w.w.w.w.w.w.w.w.w.w.w.w.w.w.w.w.w.w.w.w.w.w.w.w.w.w.w.w.w.w.w.w.w.w.w.w.w.w.w.w.w.w.w.w.w.w.w.",
"w.w.w.w.w.w.w.w.w.w.w.w.w.w.w.w.w.w.w.w.w.w.w.w.w.w.w.w.w.w.w.w.w.w.w.w.w.w.w.w.w.w.w.w.w.w.w.w.w.w.w.w.w.w.w.w.w.w.w.w.w.w.w.w.",
"w.w.w.w.w.w.w.w.w.w.w.w.w.w.w.w.w.w.w.w.w.w.w.w.w.w.w.w.w.w.w.w.w.w.w.w.w.w.w.w.w.w.w.w.w.w.w.w.w.w.w.w.w.w.w.w.w.w.w.w.w.w.w.w.",
"w.w.w.w.w.w.w.w.w.w.w.w.w.w.w.w.w.w.w.w.w.w.w.w.w.w.w.w.w.w.w.w.w.w.w.w.w.w.w.w.w.w.w.w.w.w.w.w.w.w.w.w.w.w.w.w.w.w.w.w.w.w.w.w.",
"w.w.w.w.w.w.w.w.w.w.w.w.w.w.w.w.w.w.w.w.w.w.w.w.w.w.w.w.w.w.w.w.w.w.w.w.w.w.w.w.w.w.w.w.w.w.w.w.w.w.w.w.w.w.w.w.w.w.w.w.w.w.w.w.",
"w.w.w.w.w.w.w.w.w.w.w.w.w.w.w.w.w.w.w.w.w.w.w.w.w.w.w.w.w.w.w.w.w.w.w.w.w.w.w.w.w.w.w.w.w.w.w.w.w.w.w.w.w.w.w.w.w.w.w.w.w.w.w.w.",
"w.w.w.w.w.w.w.w.w.w.w.w.w.w.w.w.w.w.w.w.w.w.w.w.w.w.w.w.w.w.w.w.w.w.w.w.w.w.w.w.w.w.w.w.w.w.w.w.w.w.w.w.w.w.w.w.w.w.w.w.w.w.w.w.",
"w.w.w.w.w.w.w.w.w.w.w.w.w.w.w.w.w.w.w.w.w.w.w.w.w.w.w.w.w.w.w.w.w.w.w.w.w.w.w.w.w.w.w.w.w.w.w.w.w.w.w.w.w.w.w.w.w.w.w.w.w.w.w.w.",
"w.w.w.w.w.w.w.w.w.w.w.w.w.w.w.w.w.w.w.w.w.w.w.w.w.w.w.w.w.w.w.w.w.w.w.w.w.w.w.w.w.w.w.w.w.w.w.w.w.w.w.w.w.w.w.w.w.w.w.w.w.w.w.w.",
"w.w.w.w.w.w.w.w.w.w.w.w.w.w.w.w.w.w.w.w.w.w.w.w.w.w.w.w.w.w.w.w.w.w.w.w.w.w.w.w.w.w.w.w.w.w.w.w.w.w.w.w.w.w.w.w.w.w.w.w.w.w.w.w.",
"w.w.w.w.w.w.w.w.w.w.w.w.w.w.w.w.w.w.w.w.w.w.w.w.w.w.w.w.w.w.w.w.w.w.w.w.w.w.w.w.w.w.w.w.w.w.w.w.w.w.w.w.w.w.w.w.w.w.w.w.w.w.w.w.",
"w.w.w.w.w.w.w.w.w.w.w.w.w.w.w.w.w.w.w.w.w.w.w.w.w.w.w.w.w.w.w.w.w.w.w.w.w.w.w.w.w.w.w.w.w.w.w.w.w.w.w.w.w.w.w.w.w.w.w.w.w.w.w.w.",
"w.w.w.w.w.w.w.w.w.w.w.w.w.w.w.w.w.w.w.w.w.w.w.w.w.w.w.                .         w.w.w.w.w.w.w.w.w.w.w.w.w.w.w.w.w.w.w.w.w.w.w.w.",
"w.w.w.w.w.w.w.w.w.w.w.w.w.w.w.w.w.w.w.w.w.w.w.w.w.w.w.X X X X X X X X X X X X X w.w.w.w.w.w.w.w.w.w.w.w.w.w.w.w.w.w.w.w.w.w.w.w.",
"w.w.w.w.w.w.w.w.w.w.w.w.w.w.w.w.w.w.w.w.w.w.w.o +   4 R R R R R R R R R R Y ! B =   + o w.w.w.w.w.w.w.w.w.w.w.w.w.w.w.w.w.w.w.w.",
"w.w.w.w.w.w.w.w.w.w.w.w.w.w.w.w.w.w.w.w.w.w.        6  .X.X.X. .X.X. . .X.X.X._ &       w.w.w.w.w.w.w.w.w.w.w.w.w.w.w.w.w.w.w.w.",
"w.w.w.w.w.w.w.w.w.w.w.w.w.w.w.w.w.w.w.w.o   d R Y Y Z c v v v v v v v v v v v n R Y Y U 6   w.w.w.w.w.w.w.w.w.w.w.w.w.w.w.w.w.w.",
"w.w.w.w.w.w.w.w.w.w.w.w.w.w.w.w.w.w.w.w.    B X. .X.^ w 0 0 0 0 0 0 0 0 0 0 9 x |  . . .a     w.w.w.w.w.w.w.w.w.w.w.w.w.w.w.w.w.",
"w.w.w.w.w.w.w.w.w.w.w.w.w.w.w.w.w.w.w.& d z !  .Q m A S A D Q Q D D A Q S D D A m A ` ` R l a X w.w.w.w.w.w.w.w.w.w.w.w.w.w.w.w.",
"w.w.w.w.w.w.w.w.w.w.w.w.w.w.w.w.w.w.  & R  .|  .M 9 m |  .| } } } }  .|  .|  ./ t t ^ | |  .z X   w.w.w.w.w.w.w.w.w.w.w.w.w.w.w.",
"w.w.w.w.w.w.w.w.w.w.w.w.w.w.w.w.w.w.  & U | ^ D A m Q | o.;.<.<.<.<.,.$.` |  .` C E =.;.@. .z O . w.w.w.w.w.w.w.w.w.w.w.w.w.w.w.",
"w.w.w.w.w.w.w.w.w.w.w.w.w.w.w.w.w.w.  $ Y X.m 9 S X.| } $.8.0.0.q.q.q.2.| | | | | +.7.0.,.L j     w.w.w.w.w.w.w.w.w.w.w.w.w.w.w.",
"w.w.w.w.w.w.w.w.w.w.w.w.w.w.w.w.w.w., 2 V / M x Q ..| | $.8.0.7.6.7.7.,.J ` ..| | o.4.7.<.%.[ < , w.w.w.w.w.w.w.w.w.w.w.w.w.w.w.",
"w.w.w.w.w.w.w.w.w.w.w.w.w.w.w.w.  : ~ ` v e D | | } } K @.8.0.$.| ....T w v ( } ` ....o.3.0.2.| B #   w.w.w.w.w.w.w.w.w.w.w.w.w.",
"w.w.w.w.w.w.w.w.w.w.w.w.w.w.w.w.  : _ | v q D | +.%.$.$.;.8.0.@.} | | D x E $.@...| | ..4.0.2...B #   w.w.w.w.w.w.w.w.w.w.w.w.w.",
"w.w.w.w.w.w.w.w.w.w.w.w.w.w.w.w.  : _ ` v q Q L 1.8.8.8.9.0.0.$.( | | | ( %.9.6.+.| | o.4.0.2...B #   w.w.w.w.w.w.w.w.w.w.w.w.w.",
"w.w.w.w.w.w.w.w.w.w.w.w.w.w.w.w.  : _ ` v q Q L 2.q.0.8.8.8.8.@.| ..| | } &.8.6.O.( | ..4.0.3.| B #   w.w.w.w.w.w.w.w.w.w.w.w.w.",
"w.w.w.w.w.w.w.w.w.w.w.w.w.w.w.w.  : _ | c q Q L 2.q.6.&.%.%.%...| | | | | o.&.#.N v / o.3.0.3. .B #   w.w.w.w.w.w.w.w.w.w.w.w.w.",
"w.w.w.w.w.w.w.w.w.w.w.w.w.w.w.w.  : _ ` v q Q } 2.q.4...| } | | | | | | |  .} J t h ^ o.4.0.2. .B #   w.w.w.w.w.w.w.w.w.w.w.w.w.",
"w.w.w.w.w.w.w.w.w.w.w.w.w.w.w.w.  : _ | v q Q L 4.q.4...| ..| | | | | | | | ../ g h ^ ..4.0.3. .B #   w.w.w.w.w.w.w.w.w.w.w.w.w.",
"w.w.w.w.w.w.w.w.w.w.w.w.w.w.w.w.  : _ ` c q Q L 3.q.4...| | | | | | | | | | | ` h h ^ o.4.0.2...B #   w.w.w.w.w.w.w.w.w.w.w.w.w.",
"w.w.w.w.w.w.w.w.w.w.w.w.w.w.w.w.  : _ ` v w D } -.1.=.A S ` | | | | | ^ M A A m t h ^ o.4.0.3.| B #   w.w.w.w.w.w.w.w.w.w.w.w.w.",
"w.w.w.w.w.w.w.w.w.w.w.w.w.w.w.w.  : _ ` c w D  .|  .D e x ( | ` | | | A e e e e q h ^ o.4.0.3. .B #   w.w.w.w.w.w.w.w.w.w.w.w.w.",
"w.w.w.w.w.w.w.w.w.w.w.w.w.w.w.w.  : _ ` v q D  .` | / M W ;.<.o.| `  .A e h M C m A / o.2.0.2. .B #   w.w.w.w.w.w.w.w.w.w.w.w.w.",
"w.w.w.w.w.w.w.w.w.w.w.w.w.w.w.w.  > _ | v 0 D  .| | | } $.8.0.$.}  ...A w v | | | | } ..4.q.3.X.V #   w.w.w.w.w.w.w.w.w.w.w.w.w.",
"w.w.w.w.w.w.w.w.w.w.w.w.w.w.w.w.  ; B Y n v A ^ ` ....} @.4.6.{ J ^ ^ M w n | | | o.%.-.2.6.>.Y j # w.w.w.w.w.w.w.w.w.w.w.w.w.w.",
"w.w.w.w.w.w.w.w.w.w.w.w.w.w.w.w.w.w.& : V | M e S } } | ..O.O.c t t t t q v ` | } o.5.8.<.+.I - * w.w.w.w.w.w.w.w.w.w.w.w.w.w.w.",
"w.w.w.w.w.w.w.w.w.w.w.w.w.w.w.w.w.w.  % Y  .M r ' @.O.| | | | v h h h x h M | ..+.$.6.7.;.} k     w.w.w.w.w.w.w.w.w.w.w.w.w.w.w.",
"w.w.w.w.w.w.w.w.w.w.w.w.w.w.w.w.w.w.  & R  .` G <.8.2...( | | ( / / / / / ` ( @.6.7.-.$.o.| k o   w.w.w.w.w.w.w.w.w.w.w.w.w.w.w.",
"w.w.w.w.w.w.w.w.w.w.w.w.w.w.w.w.w.w.  & U | ..K 2.0.4.o.o.o.o.o.o.o.o.o.o.o.X.&.8.8.%.L ` | k X   w.w.w.w.w.w.w.w.w.w.w.w.w.w.w.",
"w.w.w.w.w.w.w.w.w.w.w.w.w.w.w.w.w.w.w.w.< 1 V | @.&.<.5.6.6.6.6.6.6.6.7.6.6.7.4.-.%.o.| k < < w.w.w.w.w.w.w.w.w.w.w.w.w.w.w.w.w.",
"w.w.w.w.w.w.w.w.w.w.w.w.w.w.w.w.w.w.w.w.    z  .| H ;.0.0.0.0.q.0.0.0.0.q.0.q.7.o.K  .` 7     w.w.w.w.w.w.w.w.w.w.w.w.w.w.w.w.w.",
"w.w.w.w.w.w.w.w.w.w.w.w.w.w.w.w.w.w.w.w.w.w.3 i p 5 ] ;.:.;.;.:.;.;.:.<.;.;.:.*.P 4 7 6 1 w.w.w.w.w.w.w.w.w.w.w.w.w.w.w.w.w.w.w.",
"w.w.w.w.w.w.w.w.w.w.w.w.w.w.w.w.w.w.w.w.w.w.        6 | } } } } } } } } } } } ! *       w.w.w.w.w.w.w.w.w.w.w.w.w.w.w.w.w.w.w.w.",
"w.w.w.w.w.w.w.w.w.w.w.w.w.w.w.w.w.w.w.w.w.w.w.o @   2 l l l l l l l l l l l z f =   + o w.w.w.w.w.w.w.w.w.w.w.w.w.w.w.w.w.w.w.w.",
"w.w.w.w.w.w.w.w.w.w.w.w.w.w.w.w.w.w.w.w.w.w.w.w.w.w.w.                          w.w.w.w.w.w.w.w.w.w.w.w.w.w.w.w.w.w.w.w.w.w.w.w.",
"w.w.w.w.w.w.w.w.w.w.w.w.w.w.w.w.w.w.w.w.w.w.w.w.w.w.w.w.w.w.w.w.w.w.w.w.w.w.w.w.w.w.w.w.w.w.w.w.w.w.w.w.w.w.w.w.w.w.w.w.w.w.w.w.",
"w.w.w.w.w.w.w.w.w.w.w.w.w.w.w.w.w.w.w.w.w.w.w.w.w.w.w.w.w.w.w.w.w.w.w.w.w.w.w.w.w.w.w.w.w.w.w.w.w.w.w.w.w.w.w.w.w.w.w.w.w.w.w.w.",
"w.w.w.w.w.w.w.w.w.w.w.w.w.w.w.w.w.w.w.w.w.w.w.w.w.w.w.w.w.w.w.w.w.w.w.w.w.w.w.w.w.w.w.w.w.w.w.w.w.w.w.w.w.w.w.w.w.w.w.w.w.w.w.w.",
"w.w.w.w.w.w.w.w.w.w.w.w.w.w.w.w.w.w.w.w.w.w.w.w.w.w.w.w.w.w.w.w.w.w.w.w.w.w.w.w.w.w.w.w.w.w.w.w.w.w.w.w.w.w.w.w.w.w.w.w.w.w.w.w.",
"w.w.w.w.w.w.w.w.w.w.w.w.w.w.w.w.w.w.w.w.w.w.w.w.w.w.w.w.w.w.w.w.w.w.w.w.w.w.w.w.w.w.w.w.w.w.w.w.w.w.w.w.w.w.w.w.w.w.w.w.w.w.w.w.",
"w.w.w.w.w.w.w.w.w.w.w.w.w.w.w.w.w.w.w.w.w.w.w.w.w.w.w.w.w.w.w.w.w.w.w.w.w.w.w.w.w.w.w.w.w.w.w.w.w.w.w.w.w.w.w.w.w.w.w.w.w.w.w.w.",
"w.w.w.w.w.w.w.w.w.w.w.w.w.w.w.w.w.w.w.w.w.w.w.w.w.w.w.w.w.w.w.w.w.w.w.w.w.w.w.w.w.w.w.w.w.w.w.w.w.w.w.w.w.w.w.w.w.w.w.w.w.w.w.w.",
"w.w.w.w.w.w.w.w.w.w.w.w.w.w.w.w.w.w.w.w.w.w.w.w.w.w.w.w.w.w.w.w.w.w.w.w.w.w.w.w.w.w.w.w.w.w.w.w.w.w.w.w.w.w.w.w.w.w.w.w.w.w.w.w.",
"w.w.w.w.w.w.w.w.w.w.w.w.w.w.w.w.w.w.w.w.w.w.w.w.w.w.w.w.w.w.w.w.w.w.w.w.w.w.w.w.w.w.w.w.w.w.w.w.w.w.w.w.w.w.w.w.w.w.w.w.w.w.w.w.",
"w.w.w.w.w.w.w.w.w.w.w.w.w.w.w.w.w.w.w.w.w.w.w.w.w.w.w.w.w.w.w.w.w.w.w.w.w.w.w.w.w.w.w.w.w.w.w.w.w.w.w.w.w.w.w.w.w.w.w.w.w.w.w.w.",
"w.w.w.w.w.w.w.w.w.w.w.w.w.w.w.w.w.w.w.w.w.w.w.w.w.w.w.w.w.w.w.w.w.w.w.w.w.w.w.w.w.w.w.w.w.w.w.w.w.w.w.w.w.w.w.w.w.w.w.w.w.w.w.w.",
"w.w.w.w.w.w.w.w.w.w.w.w.w.w.w.w.w.w.w.w.w.w.w.w.w.w.w.w.w.w.w.w.w.w.w.w.w.w.w.w.w.w.w.w.w.w.w.w.w.w.w.w.w.w.w.w.w.w.w.w.w.w.w.w.",
"w.w.w.w.w.w.w.w.w.w.w.w.w.w.w.w.w.w.w.w.w.w.w.w.w.w.w.w.w.w.w.w.w.w.w.w.w.w.w.w.w.w.w.w.w.w.w.w.w.w.w.w.w.w.w.w.w.w.w.w.w.w.w.w.",
"w.w.w.w.w.w.w.w.w.w.w.w.w.w.w.w.w.w.w.w.w.w.w.w.w.w.w.w.w.w.w.w.w.w.w.w.w.w.w.w.w.w.w.w.w.w.w.w.w.w.w.w.w.w.w.w.w.w.w.w.w.w.w.w.",
"w.w.w.w.w.w.w.w.w.w.w.w.w.w.w.w.w.w.w.w.w.w.w.w.w.w.w.w.w.w.w.w.w.w.w.w.w.w.w.w.w.w.w.w.w.w.w.w.w.w.w.w.w.w.w.w.w.w.w.w.w.w.w.w."
};
