/* XPM */
static char *result[] = {
/* columns rows colors chars-per-pixel */
"64 64 210 2 ",
"   c #010101",
".  c #080807",
"X  c #090A09",
"o  c #060707",
"O  c #170E08",
"+  c #1D1109",
"@  c #12110E",
"#  c #181715",
"$  c #1A0A11",
"%  c #24140A",
"&  c #2A170B",
"*  c #2C190C",
"=  c #281204",
"-  c #321B0D",
";  c #3A1B08",
":  c #291E16",
">  c #351D10",
",  c #3B1E12",
"<  c #230000",
"1  c #1E211F",
"2  c #3A230D",
"3  c #3C2212",
"4  c #382217",
"5  c #231F25",
"6  c #292826",
"7  c #352B24",
"8  c #38322E",
"9  c #2A3231",
"0  c #313434",
"q  c #353B3A",
"w  c #3B3D3B",
"e  c #3A3834",
"r  c #2E302F",
"t  c #431F14",
"y  c #4B2302",
"u  c #5B2B09",
"i  c #442415",
"p  c #492616",
"a  c #442916",
"s  c #4C2B16",
"d  c #4D2B19",
"f  c #472718",
"g  c #562C1B",
"h  c #553219",
"j  c #5B351B",
"k  c #5E391B",
"l  c #553117",
"z  c #57330D",
"x  c #663B0C",
"c  c #693D0F",
"v  c #6A3E11",
"b  c #61361B",
"n  c #633B1C",
"m  c #673A19",
"M  c #4A362C",
"N  c #5C3F2E",
"B  c #413B35",
"V  c #443E39",
"C  c #493E36",
"Z  c #583D30",
"A  c #482E21",
"S  c #6B3623",
"D  c #663C21",
"F  c #6C3B25",
"G  c #663421",
"H  c #733B25",
"J  c #7A3F28",
"K  c #3C413E",
"L  c #6D420F",
"P  c #6D4112",
"I  c #68401E",
"U  c #77521B",
"Y  c #7C411A",
"T  c #44423D",
"R  c #49413A",
"E  c #574238",
"W  c #6C4223",
"Q  c #684525",
"!  c #734325",
"~  c #7C4229",
"^  c #794C28",
"/  c #7C5429",
"(  c #785425",
")  c #684737",
"_  c #3E4341",
"`  c #424643",
"'  c #454946",
"]  c #4A4A45",
"[  c #474C49",
"{  c #4A4D4A",
"}  c #4D514D",
"|  c #51544E",
" . c #5D5042",
".. c #4E5451",
"X. c #535652",
"o. c #555A54",
"O. c #595C56",
"+. c #575C58",
"@. c #5A5E5A",
"#. c #514341",
"$. c #62524B",
"%. c #5D625C",
"&. c #61645E",
"*. c #66685F",
"=. c #5E6660",
"-. c #626661",
";. c #656963",
":. c #6A6E65",
">. c #6A6E69",
",. c #6D7066",
"<. c #6D726A",
"1. c #72756C",
"2. c #75796E",
"3. c #797B6F",
"4. c #707266",
"5. c #717770",
"6. c #757A71",
"7. c #7A7E73",
"8. c #7A7E78",
"9. c #84442C",
"0. c #834B2A",
"q. c #8D4C2E",
"w. c #8A472E",
"e. c #8C542E",
"r. c #835A2C",
"t. c #86562C",
"y. c #955A2D",
"u. c #8C4632",
"i. c #8F4931",
"p. c #954D32",
"a. c #964C36",
"s. c #8F5530",
"d. c #945331",
"f. c #9C5534",
"g. c #9C5C34",
"h. c #9B5837",
"j. c #934C2F",
"k. c #A35B35",
"l. c #A65B3A",
"z. c #AB5D3A",
"x. c #A15538",
"c. c #95632E",
"v. c #9B6433",
"b. c #9A6931",
"n. c #A56539",
"m. c #AC633B",
"M. c #A76839",
"N. c #AD6C3B",
"B. c #A46636",
"V. c #B2653D",
"C. c #B36C3E",
"Z. c #BA6B3F",
"A. c #AE743C",
"S. c #AC7638",
"D. c #B2723D",
"F. c #BA743E",
"G. c #B47C3C",
"H. c #BA7D3F",
"J. c #AC5741",
"K. c #B55D44",
"L. c #BB6446",
"P. c #B46B41",
"I. c #BC6E41",
"U. c #B26542",
"Y. c #B67341",
"T. c #BA7441",
"R. c #B57A42",
"E. c #BC7A42",
"W. c #C16D47",
"Q. c #C37544",
"!. c #C47A44",
"~. c #CA7D46",
"^. c #C57C49",
"/. c #CC7D49",
"(. c #C87449",
"). c #D17E4C",
"_. c #7D8176",
"`. c #7E8379",
"'. c #B9813D",
"]. c #BA8040",
"[. c #808276",
"{. c #81857B",
"}. c #85887E",
"|. c #CD8247",
" X c #CE8149",
".X c #C48146",
"XX c #D3844B",
"oX c #D5894C",
"OX c #D98C4E",
"+X c #DB944D",
"@X c #DB9A4D",
"#X c #D29149",
"$X c #D58350",
"%X c #DB8551",
"&X c #DC8B52",
"*X c #DF9C51",
"=X c #E29652",
"-X c #E49C53",
";X c #E18E55",
":X c #EBA157",
">X c #868B82",
",X c #898E84",
"<X c #8C9186",
"1X c #8D938A",
"2X c #91968C",
"3X c #93988E",
"4X c #969C92",
"5X c #999E95",
"6X c #9CA097",
"7X c None",
/* pixels */
"7X7X7X7X7X7X7X7X7X7X7X7X7X7X7X7X7X7X7X7X7X7X7X7X7X7X7X7X7X7X7X7X7X7X7X7X7X7X7X7X7X7X7X7X7X7X7X7X7X7X7X7X7X7X7X7X7X7X7X7X7X7X7X7X",
"7X7X7X7X7X7X7X7X7X7X7X7X7X7X7X7X7X7X7X7X7X7X7X7X7X7X7X} 1X,X,X>X>X1X,X,X1X>.7X7X7X7X7X7X7X7X7X7X7X7X7X7X7X7X7X7X7X7X7X7X7X7X7X7X",
"7X7X7X7X7X7X7X7X7X7X7X7X7X7X7X7X7X7X7X7X7X7X7X7X7X7X7X,X3X}.<X<X,X,X>X>X}.}.%.7X7X7X7X7X7X7X7X7X7X7X7X7X7X7X7X7X7X7X7X7X7X7X7X7X",
"7X7X7X7X7X7X7X7X7X7X7X7X7X7X7X7X7X7X7X7X7X7X7X7X7X7X9 ,X7.7.`.3.7.`.<.;.;.>...7X7X7X7X7X7X7X7X7X7X7X7X7X7X7X7X7X7X7X7X7X7X7X7X7X",
"7X7X7X7X7X7X7X7X7X7X7X7X7X7X7X7X7X7X7X7X7X7X7X7X7X7X0 7._.7.3._.`.[.<.-.<.<._ 7X7X7X7X7X7X7X7X7X7X7X7X7X7X7X7X7X7X7X7X7X7X7X7X7X",
"7X7X7X7X7X7X7X7X7X7X7X7X7X7X7X7X7X7X7X7X7X7X7X7X7X7X7X%._.7.2._.8.[.1.;.>.-.7X7X7X7X7X7X7X7X7X7X7X7X7X7X7X7X7X7X7X7X7X7X7X7X7X7X",
"7X7X7X7X7X7X7X7X7X7X7X7X7X7X7X7X7X7X7X7X7X7X7X7X7X7X7XX.`.5._.3.6.`.1.<.,.%.9 7X7X7X7X7X7X7X7X7X7X7X7X7X7X7X7X7X7X7X7X7X7X7X7X7X",
"7X7X7X7X7X7X7X7X7X7X7X7X7X7X7X7X7X7X7X7X7X7X7X7X7X} [ ' 5.2.`.2.7.7.<.2.2.@.} O.7X7X7X7X7X7X7X7X7X7X7X7X7X7X7X7X7X7X7X7X7X7X7X7X",
"7X7X7X7X7X7X7X7X7X7X7X7X7X7X7X7X..%.7X7X7X7X7X%.7.1X`.[ -.3.1.;.1.8.7.7.6.[ }.4X>X>.} 7X7X7X7X,.K 7X7X7X7X7X7X7X7X7X7X7X7X7X7X7X",
"7X7X7X7X7X7X7X7X7X7X7X7X7X7X7X%.`._.| 7X7X%._.>X`.2.6.[ X.6.<.<.6.1.5.R.<...>X6.5.>X,X;.7X7X1.2X,X} 7X7X7X7X7X7X7X7X7X7X7X7X7X7X",
"7X7X7X7X7X7X7X7X7X7X7X7X7X7X,.,X`._.<.o.%.4X>X>.<.>.2.X.} {.[.7.>X8.8.8.<.-.>X<.,.;.6.,XO.*.2X}.<X>X' 7X7X7X7X7X7X7X7X7X7X7X7X7X",
"7X7X7X7X7X7X7X7X7X7X7X7X7X%.,X6.<._.5.5.;.`._._.`._.6.;.O.[.[.{.8.`.8.5.-.<.`.6.6.<.<.,.} <X,X}.[.{.6.K 7X7X7X7X7X7X7X7X7X7X7X7X",
"7X7X7X7X7X7X7X7X7X7X7X7X} ,X6.2._.5.2._.%.+.`.7.5.6.5.%.[ =.>.,.>.5.,.:.| 6.`.1.7.<.3.] 2.,X}.,X}.[.{.6.7X7X7X7X7X7X7X7X7X7X7X7X",
"7X7X7X7X7X7X7X7X7X7X7X7X' 6.6.<.6.3._.5.`...,.3._.;.V Q d ) ) E E T E M 4 e T 1.<._.*.;.<X`.{.[.[.,X}.:.7X7X7X7X7X7X7X7X7X7X7X7X",
"7X7X7X7X7X7X7X7X7X7X7X7X7X' ;.`.6.5.1.<.`.5.} &.E 0.g.D.^ h.0.H j G n s j y = = w %.| }.}.[.[.[.7.}.%.7X7X7X7X7X7X7X7X7X7X7X7X7X",
"7X7X7X7X7X7X7X7X7X7X7X7X7X7X` ;._.2.5._._.<.e Y g.C.P..Xh.^.s.e.Q D F j k A a 2 -   [ }.}.7.{.}.{.O.o.7X7X7X7X7X7X7X7X7X7X7X7X7X",
"7X7X7X7X7X7X7X7X7X7X7X7X7X%.}.} ,.6.<.7.;.6 0.P.C.P.P.#XB.^.B.v.s.! Q j Q h s 2 2 4   ` :.<.`.`.' 7.{._ 7X7X7X7X7X7X7X7X7X7X7X7X",
"7X7X7X7X7X7X7X7X7X7X7X7X} ,X>X7.} 2.5.+.Z k P.P.Y.T.!.@XN..XP.M.B.s.! k N j d a 4 4     r %.*.` 1.}.{.,.0 7X7X7X7X7X7X7X7X7X7X7X",
"7X7X7X7X7X7X7X7X7X7X7X7X`.}.<.`.%.` O.7 s.s.N.T.^.~.$X*XD.^.A.N.M.v.0.k n k d s a -   o   0 K _.>X`.}.`.O.7X7X7X7X7X7X7X7X7X7X7X",
"7X7X7X7X7X7X7X7X7X7X7X%.`.2.3._.`.=.4 ^ D.d.T./. X.X X*XD.^.C.N.A.P.B.W b k j d s 2         ' `.7.}.}.`.3.} 7X7X7X7X7X7X7X7X7X7X",
"7X7X7X7X7X7X7X7X7X7X7XO.3.2._._.3.R 9.n.H.v.~.XXoXoX$X:XY.^.P.Y.Y.Y.A.^ h n h l s 2       o   | _.{._.`.2.} 7X7X7X7X7X7X7X7X7X7X",
"7X7X7X7X7X7X7X7X7X7X;.%.O.,.1.{.;.u U.C. XM.XXOX&X+XoX:XY..XY.P.Y.C.Y.^ j k j h s 4           1 4.[.1.,.o.O.7X7X7X7X7X7X7X7X7X7X",
"7X7X7X7X7X7X7X7X7X7X_.}.,.;.;._.R e.N.Q.OXn. X&XOX+X#X*XM..XT.Y.Y.Y.Y.t.h b h h d 2         .   ` ,.%.=.<.2.{ 7X7X7X7X7X7X7X7X7X",
"7X7X7X7X7X7X7X7X7X7X`.1.6.>X3.} ^ m.P.^.&Xb.XXoX&X+X$X@XU.$X^.R.T.Y.R./ n n h j d *             1 } 6.{.1.3.*.7X7X7X7X7X7X7X7X7X",
"7X7X7X7X7X7X7X7X7X,.[.3.1.4.3.] y.l.T./.-XS.|.OX&X&XXX@XM. X/.T.R.Y.R./ D k j j d *           X   %.3.,.1.3.3.7X7X7X7X7X7X7X7X7X",
"7X7X7X7X7X7X7X7X7Xo._.1.1.4.<. .k.m.Q./.-X].oXoXOXoXXX@XM.XX.XE.E.Y.R./ D k j h s 2           .   X.<.1.1.1.7.7X7X7X7X7X7X7X7X7X",
"7X7X7X7X7X7X7X7X7X| 7.2.4.2.%.Q V.N.!.).-X].$XoXOXoXXX@XC.&X^.E.E.Y.R.r.k k k l d a               0 :.3.1.3.7.K 7X7X7X7X7X7X7X7X",
"7X7X7X7X7X7X7X7X7X%.*.%.&.%.K z U.V.!.XX:X].$XoXOX|.XX@XA.&X/.E.E.I.R.r.b I k l s 3                 ] @.%.o.@.X.7X7X7X7X7X7X7X7X",
"7X7X7X7X7X7X} :.>X4X4X5X5X2XV c N.U./.oX:XE.$XoXOX|.XX@XA.OXoXE.E.Y.R.r.b n k z d -             o   X.<X1X}.,X4X<X7.,.q 7X7X7X7X",
"7X7X7X7X7X7X%.6.1.1.&.;.1.<.R P m.(.oXoX:X].$XOXOX|.XX+XD.OXoX!.^.T.R.r.I I k h s *                 [ 2.3.7.>X7.,.7.-.q 7X7X7X7X",
"7X7X7X7X7X7X6.>X1.8.1.:.1.1.C L U./.OXoX:X].%XoXoX|.oX@XD.OXXX!.^.T.R.r.I I I l s -             o   +.}.7.8.>X[.6.3.;.q 7X7X7X7X",
"7X7X7X7X7X7X6.,X1.{.,X{.1.<.R P L.XXOXXX-X].$X$X|.|.$X*XS.OXXX!.^.P.G./ k I I h s *             o   %.>X,.7.7._.7.[.;.q 7X7X7X7X",
"7X7X7X7X7X7X>.{.3.8._.[.7.<.T P F.XXOXXX-X'.XXXXXX|.oX@XM.&XXXE.E.Y.R.( D W D k f *             X   ;.1X<.7.8.7.7._.;.q 7X7X7X7X",
"7X7X7X7X7X7X%.6.1.7.7.7.7.1.C P Q.oXOX).-XH.$XXX/.~.XX@Xn.&X|.E.E.C.Y./ F Q m y f 2             .   =.<X3.7.7.8.3.1.&.q 7X7X7X7X",
"7X7X7X7X7X7X@.1.-.;.;.;.7.<.C P E.XXOX/.-XH.). X X~.XX@XM.%X~.T.T.D.D.r.F m ) X.M ;             X   @.,X1.,.<.1.;.;.O.q 7X7X7X7X",
"7X7X7X7X7X7XX.;.&.@.@.@.%.@.C v !.XXoXXX-XE.XX|.~. X).@Xn.%X~.T.T.C.D.r.x $.-.X.M 2                 { >.O.@.@.%.O.O.X.K 7X7X7X7X",
"7X7X7X7X7X7X_ _ ` ` X.%.@.} V x !.oXoX/.=XG.|.XX~.~.XX@XB.%X!.F.T.C.R./ b 8 w %.< ,               o w } =.;.X._ K _ _ 7X7X7X7X7X",
"7X7X7X7X7X7X7X7X7X&.1X6X2X7.V x !.|.XX/.=XS./. X|.|.).@XV.).~.D.D.M.A./ g % 6 @.o.:             o   X.>X2X3X7.] 7X7X7X7X7X7X7X7X",
"7X7X7X7X7X7X7X7X7X;.<X<X_.3.V x F.XXXX/.=XS.~.XX|./. X+XN.)./.D.T.C.D./ u @.{ V ;.B             .   &.2X:.:.:.' 7X7X7X7X7X7X7X7X",
"7X7X7X7X7X7X7X7X7X+.[.,X7.3.R x Q.).XX/.=XG.~.XX|.|.|.+XC.).~.E.T.C.Y.^ #.>.#   ` 8             .   ;.1X1.8.6.[ 7X7X7X7X7X7X7X7X",
"7X7X7X7X7X7X7X7X7Xo.3.7.[.3.R c ~.|.|.~.=XH././.|.XX).#XM.%X.XF.E.D.R.U 0 { 5 r e 7             .   =.>X1.1.3.{ 7X7X7X7X7X7X7X7X",
"7X7X7X7X7X7X7X7X7Xo.<.7.[.2.V c !.|.XX/.=XH.~./.~.XX).#XM.&X~.F.T.C.R.( 5 { e ` w =             o   +.{.-.-.>.[ 7X7X7X7X7X7X7X7X",
"7X7X7X7X7X7X7X7X7XO.2.3.1.4.C x ~.|.|./.=XS.~.)./.XXoX+XF.%X~.F.T.N.D./ $ ] @.@.+ *             o   o.8.*.@.-.] 7X7X7X7X7X7X7X7X",
"7X7X7X7X7X7X7X7X7X%.1.>.*.;.V c !././.~.+XS.(.XX/.|.oX=XN.OX~.F.T.Y.A.( t # #   4 >                 { 1.1.-.:.[ 7X7X7X7X7X7X7X7X",
"7X7X7X7X7X7X7X7X7Xq } { ` q C v Q.~.~./.-XS.~.OX|.XXXXOXv.OX!.F.T.C.A.Q i i , f A >                 ` X.} } X.q 7X7X7X7X7X7X7X7X",
"7X7X7X7X7X7X} ;.6.8.7.6.<.<.V x !.XX/.~.-XS.).oX|.XXXXOXg.OXQ.F.Y.N.A.U i d i i 4 *                 ` ,.5.5.5.;.;.-.=._ 7X7X7X7X",
"7X7X7X7X7X7X-.<X<X2X2X3X1X>XT x !.|./.~.*XG.).).~.XXXX).y.oXF.C.C.m.M.Q , p t 3 f *             X   =.4X}.>X>X[.>X{.:.q 7X7X7X7X",
"7X7X7X7X7X7X;.{.,.1.6.3.3.;.C c !.XX/.~.OXB./.XX~.XXXXXXv.|.F.V.N.n.n.W t p p t f *             o   =.8.| ;.4.[.[.[.%.q 7X7X7X7X",
"7X7X7X7X7X7X>.`.3.`.{.3.3.,.V v !.|.~.Q.OXb.).).~.).~.XXf.).C.B.B.g.g.Q p p f i i &             .   %.>X&.;.[.1X>X8.=._ 7X7X7X7X",
"7X7X7X7X7X7X5.>X1.}.[.2.:.,.V x Q.).Q.I.+Xb.(.~.~.).(.XXy.~.m.k.k.d.q.D p d p i f *             X   -.3X:.3.A.8.`.8.=._ 7X7X7X7X",
"7X7X7X7X7X7X<.,X6.[._.3.<.,.V x F.~.Q.Z.OXb.(.Q.(.~.Q.).e.F.k.f.f.e.q.D p f p i , *             X   =.<X7.[.[.7.>._.=._ 7X7X7X7X",
"7X7X7X7X7X7X;.}.2._.{.2.1.;.R v Q.).Q.z.|.b.W.W.Q.~.I.~.e.Z.k.j.d.w.q.S p p i i , %             o   @.,X_.7.7.}.5.5.=._ 7X7X7X7X",
"7X7X7X7X7X7X%.[.7.7.6.>.:.-.V P W.~.Z.z.|.c.L.W.Q.Q.Z.~.q.V.f.j.q.w.0.b i p i 3 , %                 ..8.`._.1.{.8.<.X.q 7X7X7X7X",
"7X7X7X7X7X7X..-.;.o.' { } ..V v Z.~.Z.f.!.v.L.V.Z.Z.V.(.0.z.f.w.9.~ ~ j i i t , - &   o o   o o   X w ` [ [ ..+.+.' } _ 7X7X7X7X",
"7X7X7X7X7X7X7X7Xw { <.`.1.;.w x L.Q.V.f.!.c.K.z.V.V.z.Z.0.k.j.J J H H d i i t , > % . . . . . . X o ` :.`.`.>.` 7X7X7X7X7X7X7X7X",
"7X7X7X7X7X7X7X7X7X%.8.`.{.7.V x Z.Z.z.j.F.c.J.l.k.k.k.V.0.f.Y J H F G i , i , > > %   o . o o o @   +.,X`.`.8.{ 7X7X7X7X7X7X7X7X",
"7X7X7X7X7X7X7X7X7XO.,.<._.3.T x C.z.x.j.C.y.J.a.f.a.d.J.9.a.J H F S j , i , , & + O   o o o o o #   ;.1X*.<.<.] 7X7X7X7X7X7X7X7X",
"7X7X7X7X7X7X7X7X7XO.7.6.<.6.T x m.x.j.q.k.0.x.j.a.i.u.x.J u.J S S G g i - % % . 7X7X7X. o o o X #   ;.<X<._.3.' 7X7X7X7X7X7X7X7X",
"7X7X7X7X7X7X7X7X7X&.[.2.<.3.V x f.f.j.9.f.~ a.9.w.i.u.l.J u.S d g , O + 7X7X7X7X7X7X7X7X7X7X7X7X7X7X%.`.<.1.8.} 7X7X7X7X7X7X7X7X",
"7X7X7X7X7X7X7X7X7X&.`.1.1.<.V x d.p.9.H j.! p.9.9.9.J a.g g * 7X7X7X7X7X7X7X7X7X7X7X7X7X7X7X7X7X7X7XX._.1.3.{.| 7X7X7X7X7X7X7X7X",
"7X7X7X7X7X7X7X7X7X%.6.:.;.&.V c q.i.9.F i.F u.S G f * > 7X7X7X7X7X7X7X7X7X7X7X7X7X7X7X7X7X7X7X7X7X7X} 2.6._.}.} 7X7X7X7X7X7X7X7X",
"7X7X7X7X7X7X7X7X7Xo.<.-.;.&.w x w.~ J G g s , X @ o 7X7X7X7X7X7X7X7X7X7X7X7X7X7X7X7X7X7X7X7X7X7X7X7X{ 2.2.8.`.} 7X7X7X7X7X7X7X7X",
"7X7X7X7X7X7X7X7X7X{ ..X.} [ q = S a 4 % 7X7X7X7X7X7X7X7X7X7X7X7X7X7X7X7X7X7X7X7X7X7X7X7X7X7X7X7X7X7Xq ....} +.` 7X7X7X7X7X7X7X7X",
"7X7X7X7X7X7X7X7X7X7X7X7X7X7X7X7X7X7X7X7X7X7X7X7X7X7X7X7X7X7X7X7X7X7X7X7X7X7X7X7X7X7X7X7X7X7X7X7X7X7X7X7X7X7X7X7X7X7X7X7X7X7X7X7X"
};
