/* XPM */
static char *_cedae8122d44b56d589f5cb23f95287qgbx9qnaOSwVEoGa[] = {
/* columns rows colors chars-per-pixel */
"64 38 192 2 ",
"   c None",
".  c #010001",
"X  c #0C0200",
"o  c #0F080A",
"O  c #100600",
"+  c #140D04",
"@  c #150F0D",
"#  c #1A140E",
"$  c #16130C",
"%  c #050217",
"&  c #130F1B",
"*  c #180E15",
"=  c #001D17",
"-  c #131216",
";  c #1A1414",
":  c #1E1A13",
">  c #14131B",
",  c #18161B",
"<  c #1C1B1C",
"1  c #17181C",
"2  c #2B1B05",
"3  c #2C1E0C",
"4  c #251809",
"5  c #211C16",
"6  c #221E19",
"7  c #281A13",
"8  c #3B2301",
"9  c #332106",
"0  c #25221B",
"q  c #2A211C",
"w  c #242017",
"e  c #3D2A14",
"r  c #372A1A",
"t  c #161624",
"y  c #1D1C22",
"u  c #0B2622",
"i  c #1F2023",
"p  c #1D3129",
"a  c #123D34",
"s  c #242323",
"d  c #292622",
"f  c #252924",
"g  c #2C2A24",
"h  c #25242B",
"j  c #2D2C2B",
"k  c #252F29",
"l  c #312D25",
"z  c #302E28",
"x  c #3C2821",
"c  c #2C332D",
"v  c #27322A",
"b  c #3C3225",
"n  c #33322B",
"m  c #39352D",
"M  c #39362A",
"N  c #272631",
"B  c #292733",
"V  c #2C2B34",
"C  c #2C3739",
"Z  c #323334",
"A  c #393633",
"S  c #3C3B34",
"D  c #353639",
"F  c #363A3A",
"G  c #3C3C3C",
"H  c #373936",
"J  c #7C0E00",
"K  c #741700",
"L  c #701F1D",
"P  c #442A03",
"I  c #442B08",
"U  c #5A211C",
"Y  c #43331F",
"T  c #7E3707",
"R  c #682419",
"E  c #7A2715",
"W  c #402820",
"Q  c #5A2929",
"!  c #463421",
"~  c #423C31",
"^  c #663229",
"/  c #703831",
"(  c #4B422C",
")  c #464133",
"_  c #44433B",
"`  c #48473D",
"'  c #4A493E",
"]  c #504C3E",
"[  c #00334F",
"{  c #133A4F",
"}  c #253B41",
"|  c #3F3F40",
" . c #3A4449",
".. c #26495C",
"X. c #3B4B55",
"o. c #135C70",
"O. c #344E60",
"+. c #454442",
"@. c #4C4B43",
"#. c #4D4C4A",
"$. c #444F46",
"%. c #504F47",
"&. c #504F4D",
"*. c #54534C",
"=. c #5D544D",
"-. c #55554B",
";. c #424E56",
":. c #48565B",
">. c #555553",
",. c #595753",
"<. c #5B5A54",
"1. c #5C5C5A",
"2. c #545758",
"3. c #724C56",
"4. c #794D56",
"5. c #665A58",
"6. c #64635B",
"7. c #4E5B68",
"8. c #575E62",
"9. c #695D60",
"0. c #625B74",
"q. c #5B696D",
"w. c #4F6575",
"e. c #5E6A7B",
"r. c #6C6B63",
"t. c #6F6D6C",
"y. c #716864",
"u. c #74746D",
"i. c #78766F",
"p. c #727067",
"a. c #666D72",
"s. c #7B7A74",
"d. c #7A7A79",
"f. c #7A7573",
"g. c #97010B",
"h. c #88140E",
"j. c #971608",
"k. c #A6150D",
"l. c #912C09",
"z. c #8D3D0C",
"x. c #AD332E",
"c. c #CB000D",
"v. c #C10014",
"b. c #904409",
"n. c #A25B4D",
"m. c #86626E",
"M. c #9B6967",
"N. c #807F74",
"B. c #9D7A74",
"V. c #AE6B62",
"C. c #B57C79",
"Z. c #84837B",
"A. c #8A887D",
"S. c #868479",
"D. c #00738E",
"F. c #677786",
"G. c #758288",
"H. c #838383",
"J. c #8C8B84",
"K. c #8D8D8B",
"L. c #868880",
"P. c #918F86",
"I. c #908F8E",
"U. c #949286",
"Y. c #94938C",
"T. c #98968C",
"R. c #9A998E",
"E. c #979B8E",
"W. c #969592",
"Q. c #9C9B93",
"!. c #9D9D98",
"~. c #A09F8E",
"^. c #B1938D",
"/. c #A19F94",
"(. c #A5A28C",
"). c #A3A196",
"_. c #A6A499",
"`. c #A9A79B",
"'. c #ACAA9E",
"]. c #B0A596",
"[. c #AEADA0",
"{. c #AEAEA9",
"}. c #B0AEA2",
"|. c #B4B2A5",
" X c #B6B5A9",
".X c #B9B6AA",
"XX c #BBB9AC",
"oX c #BBBCB3",
"OX c #C0BEB0",
"+X c #CCC5A9",
"@X c #C5C3B5",
"#X c #C9C9C2",
/* pixels */
"                                                                                                                                ",
"                                                                                                                                ",
"                                                                                                                                ",
"                                                                                                                                ",
"                                                                                                                                ",
"                                                                                                                                ",
"                                                                                                                                ",
"                                                  { m.5.n.                                                                      ",
"                                        2.f.s.T.T.y.C.^.B.t.T.P.                                                                ",
"                                    u.T.|.XXXX X|.!.6.e.0.9.].}..XXXY.                                                          ",
"                                  u.  6.|..X|.!.K.W.W.q.M.V.4.f.!.|.OXT.                                                        ",
"                                S.r.    H '.XX XW.K.K.W.5.Q D.;.N.W.}.oXT.                                                      ",
"                              A.6.          _..X`.!.!.!.!.H.Z.c f.W.Y.[.XX!.                                                    ",
"                            S.s..           s..XT.T.Y.J.J.Y.U.A.s.d.u.t.i./.Q.                                                  ",
"                    A m S ' *.- 5 5 : 0 X S _.r.. V . . t | |.}.+.V d g < t f.A.` _ @.%.#._ ( S                                 ",
"              M _ ' -.<.<.-.' S 1 : : q . J.P.. q d 6 0 6 | [.`.| 6 : : 5 j < 6.A.' ;.8.O.w.7.X.%.S } o.                        ",
"            F %.@.] <.1.<.<.%.@.S ; 0 . >.[.F $ 6 7 : 5 5 . T.`.n # 6 5 5 # M A >.N.`  .G.@X(.q.2.5.:.3.h.                      ",
"            Q <.@.' ' -.<.<.%.` @.S o h Q.A.. w 6 6 5 5 6 o Y.}.G 5 6 6 6 0 $ m n &.Z.) a.(.+XXX..<.<.-./ 3.                    ",
"            K =.<.@.' @.-.%.' S ' @._ I.}.+.. , i 5 O + , % Y.}.@.h . O X O + ; j h 6.N.C [ F.F.;.:.<.<.<...7                   ",
"          d r S %.<.@.' ' @.*.*.-.#.6.@X[.A r.>.@.@.S ~ &.G Y.`.D +.>.@.@.S ` #._ *.+.!.6.) S C @.%.%.@.%.~ a =                 ",
"          0 c j A ,.<.-.*.>.%.' @.@._ {.#XY.`.Q.'.'.|.}.}.`._.}.N.[.Y._.).`.}.[.}.'._.J._ _ ` ' _ ` ' ' ' $.x.k.                ",
"            d n j H _ G _ @.%.%._ _ -.. Z.[._./.|..X X'. X X}.|._. XT.}.`.'..X|.}.'.!.6.. n c n n z n S F ^ c.k.                ",
"            6 f l j < @ f 6.u.s.#.p.N._ 0 U.OX}.R.|.|.'.|.'.|.|./..X.X|..X(.`. X|.|.XXr.: H z Z n c c n p h.l.z.R               ",
"              6 f z 0 - f m n l n g g M g _ S._. X.X|.}.|.).Q.|./.|.}.|.|.'.[.|.|.|.|.6.$ m n r r r z n v R z.b.E               ",
"                6 g j d n j g l l b e 4 q @ . : <._..X|.}.[.}.|./..X'.'.'.|.|.}.}.|.`.6.2 b 9 4 ; ; ; < d v R g.k.              ",
"                  0 d c m n b S Y 8 : > > > < s . p.|._.}.[._.`.T._.U.Y..X|.}.'.}.}.Q.#.8 8 : > > f s > ; z k W U               ",
"                    6 q g j M ! I 2 > , j F h 1 ; _ J.H.I.I.H.H.s.d.t.!.Y.I.T.K.J.K.N.~ 8 3 ; 1 j G F y > 0 g f u               ",
"                        s g W P P 2 - f D D F y 1 w >.1.,.,.1.1.&.1.9.2.>.,.2.>.>.>.5.W 8 2 ; < Z V Z Z - h g l                 ",
"                            h d 3 q B h D V F V B j y & , , > > y > & y , > & > 1 ; * g 3 3 B h Z C F V V                       ",
"                                    V N Z F Z N V B                                         V V N V V B V                       ",
"                                                                                                                                ",
"                                                                                                                                ",
"                                                                                                                                ",
"                                                                                                                                ",
"                                                                                                                                ",
"                                                                                                                                ",
"                                                                                                                                ",
"                                                                                                                                "
};
