/* XPM */
static char *result[] = {
/* columns rows colors chars-per-pixel */
"64 64 204 2 ",
"   c #010000",
".  c #0C0000",
"X  c #00020B",
"o  c #040B0F",
"O  c #0D0B0C",
"+  c #110000",
"@  c #150A03",
"#  c #040B11",
"$  c #0B0F11",
"%  c #000511",
"&  c #001519",
"*  c #131313",
"=  c #1C1917",
"-  c #0A150F",
";  c #231E19",
":  c #231C16",
">  c #2A1303",
",  c #03281C",
"<  c #29221A",
"1  c #282119",
"2  c #352A1F",
"3  c #392A1B",
"4  c #33221F",
"5  c #2C2400",
"6  c #0D1530",
"7  c #1F2429",
"8  c #132732",
"9  c #2A292C",
"0  c #2C2621",
"q  c #352B22",
"w  c #3A2E22",
"e  c #312E2F",
"r  c #3E3123",
"t  c #3B3328",
"y  c #303835",
"u  c #443525",
"i  c #4C3B2A",
"p  c #493A27",
"a  c #513F2D",
"s  c #4D3F34",
"d  c #006D00",
"f  c #0C502F",
"g  c #53412D",
"h  c #58452F",
"j  c #544332",
"k  c #5A4632",
"l  c #5E4D39",
"z  c #4F402E",
"x  c #604C36",
"c  c #6C553C",
"v  c #6C5533",
"b  c #695321",
"n  c #000A44",
"m  c #0C304B",
"M  c #423E40",
"N  c #1D435F",
"B  c #22425B",
"V  c #04476E",
"C  c #1C4868",
"Z  c #004A79",
"A  c #145073",
"S  c #275475",
"D  c #224E6F",
"F  c #48464A",
"G  c #595559",
"H  c #4D4C52",
"J  c #705B44",
"K  c #645D5B",
"L  c #7D6649",
"P  c #75655A",
"I  c #485365",
"U  c #556177",
"Y  c #6B666A",
"T  c #746A67",
"R  c #736C71",
"E  c #7D767D",
"W  c #7D787D",
"Q  c #797475",
"!  c #A50B31",
"~  c #932436",
"^  c #B53444",
"/  c #CC2A41",
"(  c #C63346",
")  c #816549",
"_  c #856E53",
"`  c #816F5E",
"'  c #897355",
"]  c #967C5D",
"[  c #85746E",
"{  c #837672",
"}  c #80777B",
"|  c #837A7E",
" . c #008200",
".. c #CDB833",
"X. c #EED40D",
"o. c #DDC738",
"O. c #EDD534",
"+. c #818A5C",
"@. c #938561",
"#. c #A18665",
"$. c #AA8D6A",
"%. c #BC9D76",
"&. c #B29570",
"*. c #AC906C",
"=. c #B1AA77",
"-. c #C3A47B",
";. c #CBAA7F",
":. c #C6BE7E",
">. c #CCBF6B",
",. c #DCC852",
"<. c #00598C",
"1. c #00578A",
"2. c #1B6E9E",
"3. c #29638C",
"4. c #276A96",
"5. c #37709A",
"6. c #036EA0",
"7. c #0773AA",
"8. c #1C72A3",
"9. c #1571A3",
"0. c #2875A7",
"q. c #367DAE",
"w. c #4D7397",
"e. c #4C7398",
"r. c #437199",
"t. c #567494",
"y. c #5B7695",
"u. c #5A708A",
"i. c #757984",
"p. c #7A7D8C",
"a. c #7A7882",
"s. c #617590",
"d. c #5A7FA5",
"f. c #007EC1",
"g. c #837D82",
"h. c #887E83",
"j. c #3486BD",
"k. c #3C87BD",
"l. c #3A86BB",
"z. c #7D8081",
"x. c #5D82A8",
"c. c #4087BC",
"v. c #7488A7",
"b. c #0081C1",
"n. c #1B8CCD",
"m. c #2888C4",
"M. c #3489C2",
"N. c #378CC7",
"B. c #3993CE",
"V. c #3B97D5",
"C. c #399EE0",
"Z. c #3EA6EA",
"A. c #3AB9FF",
"S. c #39AFF9",
"D. c #4996D0",
"F. c #619ACD",
"G. c #5EA0D8",
"H. c #41AAEF",
"J. c #42A5E8",
"K. c #43ADF3",
"L. c #44B3FC",
"P. c #46BAFF",
"I. c #49BDFF",
"U. c #46C1FF",
"Y. c #8A8185",
"T. c #878086",
"R. c #91888E",
"E. c #989198",
"W. c #A79D95",
"Q. c #ADA4AC",
"!. c #A4A3A5",
"~. c #B5ACB5",
"^. c #B7AEB8",
"/. c #B8AFB8",
"(. c #BCB3BC",
"). c #B1B5A5",
"_. c #CBBD82",
"`. c #C6B388",
"'. c #D8B688",
"]. c #CDAE8B",
"[. c #E3BD8E",
"{. c #C0B6BF",
"}. c #ACC1B1",
"|. c #D2CA87",
" X c #C3C396",
".X c #EBC695",
"XX c #EDC996",
"oX c #E5CA93",
"OX c #F2CC99",
"+X c #F3C897",
"@X c #FCD49F",
"#X c #CCCEB8",
"$X c #FFD6A1",
"%X c #FFDBA4",
"&X c #FFDFA9",
"*X c #FFE2AB",
"=X c #FFE4A8",
"-X c #C0B7C0",
";X c #C5BBC5",
":X c #CAD5CC",
">X c white",
",X c #FFFCF2",
"<X c #FFF8EF",
"1X c None",
/* pixels */
"1X1X1X1X1X1X1X1X1X1X1X1X1X1X1X1X1X1X1X1X1X1X1X1X1X1X1X1X1X1X1X1X1X1X1X1X1X1X1X1X1X1X1X1X1X1X1X1X1X1X1X1X1X1X1X1X1X1X1X1X1X1X1X1X",
"1X1X1X1X1X1X1X1X1X1X1X1X1X1X1X1X1X1X1X1X1X1X1X1X1X1X1X1X1X1X1X1X1X1X1X1X1X1X1X1X1X1X1X1X1X1X1X1X1X1X1X1X1X1X1X1X1X1X1X1X1X1X1X1X",
"1X1X1X1X1X1X1X1X1X1X1X1X1X1X1X1X1X1X1X1X1X1X1X1X1X1X1X1X1X1X1X1X1X1X1X1X1X1X1X1X1X1X1X1X1X1X1X1X1X1X1X1X1X1X1X1X1X1X1X1X1X1X1X1X",
"1X1X1X1X1X1X1X1X1X1X1X1X1X1X1X1X1X1X1X1X1X1X1X1X1X1X1X1X1X1X1X1X1X1X1X1X1X1X1X1X1X1X1X1X1X1X1X1X1X1X1X1X1X1X1X1X1X1X1X1X1X1X1X1X",
"1X1X1X1X1X1X1X1X1X1X1X1X1X1X1X1X1X1X1X1X1X1X1X1X1X1X1X1X1X1X1X1X1X1X1X1X1X1X1X1X1X1X1X1X1X1X1X1X1X1X1X1X1X1X1X1X1X1X1X1X1X1X1X1X",
"1X1X1X1X1X1X1X1X1X1X1X1X1X1X1X1X1X1X1X1X1X1X1X1X1X1X1X1X1X1X1X1X1X1X1X1X1X1X1X1X1X1X1X1X1X1X1X1X1X1X1X1X1X1X1X1X1X1X1X1X1X1X1X1X",
"1X1X1X1X1X1X1X1X1X1X1X1X1X1X1X1X1X1X1X1X1X1X1X1X1X1X1X1X1X1X1X1X1X1X1X1X1X1X1X1X1X1X1X1X1X1X1X1X1X1X1X1X1X1X1X1X1X1X1X1X1X1X1X1X",
"1X1X1X1X1X1X1X1X1X1X1X1X1X1X1X1X1X1X1X1X1X1X1X1X1X1X1X1X1X1X1X1X1X1X1X1X1X1X1X1X1X1X1X1X1X1X1X1X1X1X1X1X1X1X1X1X1X1X1X1X1X1X1X1X",
"1X1X1X1X1X1X1X1X1X1X1X1X1X1X1X1X1X1X1X1X1X1X1X1X1X1X1X1X1X1X1X1X1X1X1X1X1X1X1X1X1X1X1X1X1X1X1X1X1X1X1X1X1X1X1X1X1X1X1X1X1X1X1X1X",
"1X1X1X1X1X1X1X1X1X1X1X1X1X1X1X1X1X1X1X1X1X1X1X1X1X1X1X1X1X1X1X1X1X1X1X1X1X1X1X1X1X1X1X1X1X1X1X1X1X1X1X1X1X1X1X1X1X1X1X1X1X1X1X1X",
"1X1X1X1X1X1X1X1X1X1X1X1X1X1X1X1X1X1X1X1X1X1X1X1X1X1X1X1X1X1X1X1X1X1X1X1X1X1X1X1X1X1X1X1X1X1X1X1X1X1X1X1X1X1X1X1X1X1X1X1X1X1X1X1X",
"1X1X1X1X1X1X1X1X1X1X1X1X1X1X1X1X1X1X1X1X1X1X1X1X1X1X1X1X1X1X1X1X1X1X1X1X1X1X1X1X1X1X1X1X1X1X1X1X1X1X1X1X1X1X1X1X1X1X1X1X1X1X1X1X",
"1X1X1X1X1X1X1X1X1X1X1X1X1X1X1X1X1X1X1X1X1X1X1X1X1X1Xo o # o o # o $ # o o o o # 1X1X1X1X1X1X1X1X1X1X1X1X1X1X1X1X1X1X1X1X1X1X1X1X",
"1X1X1X1X1X1X1X1X1X1X1X1X1X1X1X1X1X1X1X1X1X1X1X1X1X1 < 1 1 1 1 < 1 1 1 1 1 < 1 < 1X1X1X1X1X1X1X1X1X1X1X1X1X1X1X1X1X1X1X1X1X1X1X1X",
"1X1X1X1X1X1X1X1X1X1X1X1X1X1X1X1X1X1X1X1X1X1Xo o X 2 k g g g g g g g g g g g g g 1 X o o 1X1X1X1X1X1X1X1X1X1X1X1X1X1X1X1X1X1X1X1X",
"1X1X1X1X1X1X1X1X1X1X1X1X1X1X1X1X1X1X1X1X1X= 2 w 2 u g g a g g a g g g a g g g g u 2 w q 1X1X1X1X1X1X1X1X1X1X1X1X1X1X1X1X1X1X1X1X",
"1X1X1X1X1X1X1X1X1X1X1X1X1X1X1X1X1X1X1X1X$ ; g g g g g g g g g g g g g g g j g g g g g a * * 1X1X1X1X1X1X1X1X1X1X1X1X1X1X1X1X1X1X",
"1X1X1X1X1X1X1X1X1X1X1X1X1X1X1X1X1X1X1X1X$ : a g i g g g a g g g g g i j u O u g g a g a * * 1X1X1X1X1X1X1X1X1X1X1X1X1X1X1X1X1X1X",
"1X1X1X1X1X1X1X1X1X1X1X1X1X1X1X1X1X1X1X1X$ : a a g a g g a g a g g a g k g t z z g g g i * * 1X1X1X1X1X1X1X1X1X1X1X1X1X1X1X1X1X1X",
"1X1X1X1X1X1X1X1X1X1X1X1X1X1X1X1X1X1X1X1X$ ; g g g a g g g g g g g j p   #.%X#.  g g g i * * 1X1X1X1X1X1X1X1X1X1X1X1X1X1X1X1X1X1X",
"1X1X1X1X1X1X1X1X1X1X1X1X1X1X1X1X1X1X1X1X; < p i g i g g j g g g g i c L -.=X*.  j g g i ; : 1X1X1X1X1X1X1X1X1X1X1X1X1X1X1X1X1X1X",
"1X1X1X1X1X1X1X1X1X1X1X1X1X1X1X1X1X1X1X1X1X1XX < g g k               _ *X$X%X#.  i h g i     1X1X1X1X1X1X1X1X1X1X1X1X1X1X1X1X1X1X",
"1X1X1X1X1X1X1X1X1X1X1X1X1X1X1X1X1X1X1X1X1X&.1 ; r u @ @.-.%.%.%.%.%.].$X@X%X'.%.J : g x ] ] 1X1X1X1X1X1X1X1X1X1X1X1X1X1X1X1X1X1X",
"1X1X1X1X1X1X1X1X1X1X1X1X1X1X1X1X1X1X1X1X-.].    o 0   ].*X%X*X%X%X=X%X%X$X$X%X*X]   2 x ].`.1X1X1X1X1X1X1X1X1X1X1X1X1X1X1X1X1X1X",
"1X1X1X1X1X1X1X1X1X1X1X1X1X1X1X1X1X1X1X1XOX$X.X].  @   x _ L _ +X$X$X.XL ' _ L L q q '.XX%XOX1X1X1X1X1X1X1X1X1X1X1X1X1X1X1X1X1X1X",
"1X1X1X1X1X1X1X1X1X1X1X1X1X1X1X1X1X1X1X1X%X$X$X[.  y K y     X XX$X%X'.      8 H & w +X$X$X$X1X1X1X1X1X1X1X1X1X1X1X1X1X1X1X1X1X1X",
"1X1X1X1X1X1X1X1X1X1X1X1X1X1X1X1X1X1X1X1X1X1X/ ^   !.>X}. .f   XX%X%X'.  f  .:X>Xz.  ( / 1X1X1X1X1X1X1X1X1X1X1X1X1X1X1X1X1X1X1X1X",
"1X1X1X1X1X1X1X1X1X1X1X1X1X1X1X1X1X1X1X1X1X1X! ~   W.,X). .@.#.OX$X%X.X] +. .#X<X{   ~ ! 1X1X1X1X1X1X1X1X1X1X1X1X1X1X1X1X1X1X1X1X",
"1X1X1X1X1X1X1X1X1X1X1X1X1X1X1X1X1X1X1X1X1X1X& ,   $.*X=.d oX=X@X$X$X$X*X|.d _.%X_   , - 1X1X1X1X1X1X1X1X1X1X1X1X1X1X1X1X1X1X1X1X",
"1X1X1X1X1X1X1X1X1X1X1X1X1X1X1X1X1XE 1X1X1X1X1Xq   ` ].`. XOX$X$X$X$X$X$XXX|.%.*.l   1X1X1X1X1X1X1X1X1X1X1X1X1X1X1X1X1X1X1X1X1X1X",
"1X1X1X1X1X1X1X1X1X1X1X1X1X1X1X1XE E.1X1X1X1X1X1X  H U '.=X$X$X$X$X$X%X$X$X=X$.  = * 1X1X1X1X1X1X1X1X1X1X1X1X1X1X1X1X1X1X1X1X1X1X",
"1X1X1X1X1X1X1X1X1X1X1X1X1X1X1X1XW g.W } W W } Q R Q h.P b R i.i.i.i.i.i.T v i + D.H.m   1X1X1X1X1X1X1X1X1X1X1X1X1X1X1X1X1X1X1X1X",
"1X1X1X1X1X1X1X1X1X1X1X1X1X1X1X1Xa.h.i.i.p.p.p.p.i.i.} I n Z <.1.1.1.1.<.Z n m 8 J.P.3.B 1X1X1X1X1X1X1X1X1X1X1X1X1X1X1X1X1X1X1X1X",
"1X1X1X1X1X1X1X1X1X1X1X1X1X1X1X1Xa.Y.w.9.4.4.4.4.9.t.{ x.M.c.k.k.k.k.k.k.k.k.M.m.K.I.P.S.    1X1X1X1X1X1X1X1X1X1X1X1X1X1X1X1X1X1X",
"1X1X1X1X1X1X1X1X1X1X1X1X1X1X1X1X} h.w.0.N.B.B.N.8.t.{ d.m.j.j.l.l.l.l.j.j.M.0.4.M.B.G.F.G F 1X1X1X1X1X1X1X1X1X1X1X1X1X1X1X1X1X1X",
"1X1X1X1X1X1X1X1X1X1X1X1X1X1X1X1Xa.Y.w.8.L.P.P.K.2.t.{ x.m.M.N.b.b.f.b.M.M.N.D .     T [ g.R     1X1X1X1X1X1X1X1X1X1X1X1X1X1X1X1X",
"1X1X1X1X1X1X1X1X1X1X1X1X1X1X1X1Xg.h.w.0.K.L.P.J.2.t.| U V D S =._._.=.V D C q.C.s.T a.a.E Q R Y 1X1X1X1X1X1X1X1X1X1X1X1X1X1X1X1X",
"1X1X1X1X1X1X1X1X1X1X1X1X1X1X1X1XE h.r.0.K.L.P.J.2.t.} G   X 5 o.O.O...  7   B.U.v.[ g.} W a.g.g.1X1X1X1X1X1X1X1X1X1X1X1X1X1X1X1X",
"1X1X1X1X1X1X1X1X1X1X1X1X1X1X1X1XE R.r.9.K.I.P.K.6.t.[ F.A.M.q.,.O.X.>.7.V.L.L.I.3.> !.~.(.Q.1X1X1X1X1X1X1X1X1X1X1X1X1X1X1X1X1X1X",
"1X1X1X1X1X1X1X1X1X1X1X1X1X1X1X1X1X} t.r.J.H.K.D.5.u.P F.S.B.D. X|.|.).n.J.K.Z.J.A @ Q.(.-X^.1X1X1X1X1X1X1X1X1X1X1X1X1X1X1X1X1X1X",
"1X1X1X1X1X1X1X1X1X1X1X1X1X1X1X1X1X1X} R.5.6.6.e.g.Y   4.M.K.I.A.A.A.A.A.Z.j.S . X 9 Q.^.{.~.1X1X1X1X1X1X1X1X1X1X1X1X1X1X1X1X1X1X",
"1X1X1X1X1X1X1X1X1X1X1X1X1X1X1X1X1X1X1Xa.s.y.y.u.K F   D 4.q.M.l.j.j.j.j.q.3.C @ o 9 Q./.-X~.1X1X1X1X1X1X1X1X1X1X1X1X1X1X1X1X1X1X",
"1X1X1X1X1X1X1X1X1X1X1X1X1X1X1X1X1X1X1X1X| Y.| T     = .       . . . .       + 7   9 Q.^.-X~.1X1X1X1X1X1X1X1X1X1X1X1X1X1X1X1X1X1X",
"1X1X1X1X1X1X1X1X1X1X1X1X1X1X1X1X1X1X1X1X1X1XM M i w X q s 9 8 1X1X1X1X8 e s 0 % 3 j Q./.{.^.1X1X1X1X1X1X1X1X1X1X1X1X1X1X1X1X1X1X",
"1X1X1X1X1X1X1X1X1X1X1X1X1X1X1X1X1X1X1X1X1X1X  > h p = u h <   1X1X1X1X  q h r ; p l Q./.-X^.1X1X1X1X1X1X1X1X1X1X1X1X1X1X1X1X1X1X",
"1X1X1X1X1X1X1X1X1X1X1X1X1X1X1X1X1X1X1X1X1X1X% i ) L ) v g q # 1X1X1X1X# r g c L L ) Q.^.-X~.1X1X1X1X1X1X1X1X1X1X1X1X1X1X1X1X1X1X",
"1X1X1X1X1X1X1X1X1X1X1X1X1X1X1X1X1X1X1X1X1X1XX r c c c k u 2 o 1X1X1X1Xo q u x J v J Q.^.-X~.1X1X1X1X1X1X1X1X1X1X1X1X1X1X1X1X1X1X",
"1X1X1X1X1X1X1X1X1X1X1X1X1X1X1X1X1X1X1X1X1X1X1X1XX X X X $ 1X1X1X1X1X1X1X1X$ X #   7 Q./.-X~.1X1X1X1X1X1X1X1X1X1X1X1X1X1X1X1X1X1X",
"1X1X1X1X1X1X1X1X1X1X1X1X1X1X1X1X1X1X1X1X1X1X1X1X1X1X1X1X1X1X1X1X1X1X1X1X1X1X1X1X1X1XQ.^.(.~.1X1X1X1X1X1X1X1X1X1X1X1X1X1X1X1X1X1X",
"1X1X1X1X1X1X1X1X1X1X1X1X1X1X1X1X1X1X1X1X1X1X1X1X1X1X1X1X1X1X1X1X1X1X1X1X1X1X1X1X1X1X/.^.(.^.1X1X1X1X1X1X1X1X1X1X1X1X1X1X1X1X1X1X",
"1X1X1X1X1X1X1X1X1X1X1X1X1X1X1X1X1X1X1X1X1X1X1X1X1X1X1X1X1X1X1X1X1X1X1X1X1X1X1X1X1X1X~.(.;X^.1X1X1X1X1X1X1X1X1X1X1X1X1X1X1X1X1X1X",
"1X1X1X1X1X1X1X1X1X1X1X1X1X1X1X1X1X1X1X1X1X1X1X1X1X1X1X1X1X1X1X1X1X1X1X1X1X1X1X1X1X1X~.~.~.^.1X1X1X1X1X1X1X1X1X1X1X1X1X1X1X1X1X1X",
"1X1X1X1X1X1X1X1X1X1X1X1X1X1X1X1X1X1X1X1X1X1X1X1X1X1X1X1X1X1X1X1X1X1X1X1X1X1X1X1X1X1X1X1X1X1X1X1X1X1X1X1X1X1X1X1X1X1X1X1X1X1X1X1X",
"1X1X1X1X1X1X1X1X1X1X1X1X1X1X1X1X1X1X1X1X1X1X1X1X1X1X1X1X1X1X1X1X1X1X1X1X1X1X1X1X1X1X1X1X1X1X1X1X1X1X1X1X1X1X1X1X1X1X1X1X1X1X1X1X",
"1X1X1X1X1X1X1X1X1X1X1X1X1X1X1X1X1X1X1X1X1X1X1X1X1X1X1X1X1X1X1X1X1X1X1X1X1X1X1X1X1X1X1X1X1X1X1X1X1X1X1X1X1X1X1X1X1X1X1X1X1X1X1X1X",
"1X1X1X1X1X1X1X1X1X1X1X1X1X1X1X1X1X1X1X1X1X1X1X1X1X1X1X1X1X1X1X1X1X1X1X1X1X1X1X1X1X1X1X1X1X1X1X1X1X1X1X1X1X1X1X1X1X1X1X1X1X1X1X1X",
"1X1X1X1X1X1X1X1X1X1X1X1X1X1X1X1X1X1X1X1X1X1X1X1X1X1X1X1X1X1X1X1X1X1X1X1X1X1X1X1X1X1X1X1X1X1X1X1X1X1X1X1X1X1X1X1X1X1X1X1X1X1X1X1X",
"1X1X1X1X1X1X1X1X1X1X1X1X1X1X1X1X1X1X1X1X1X1X1X1X1X1X1X1X1X1X1X1X1X1X1X1X1X1X1X1X1X1X1X1X1X1X1X1X1X1X1X1X1X1X1X1X1X1X1X1X1X1X1X1X",
"1X1X1X1X1X1X1X1X1X1X1X1X1X1X1X1X1X1X1X1X1X1X1X1X1X1X1X1X1X1X1X1X1X1X1X1X1X1X1X1X1X1X1X1X1X1X1X1X1X1X1X1X1X1X1X1X1X1X1X1X1X1X1X1X",
"1X1X1X1X1X1X1X1X1X1X1X1X1X1X1X1X1X1X1X1X1X1X1X1X1X1X1X1X1X1X1X1X1X1X1X1X1X1X1X1X1X1X1X1X1X1X1X1X1X1X1X1X1X1X1X1X1X1X1X1X1X1X1X1X",
"1X1X1X1X1X1X1X1X1X1X1X1X1X1X1X1X1X1X1X1X1X1X1X1X1X1X1X1X1X1X1X1X1X1X1X1X1X1X1X1X1X1X1X1X1X1X1X1X1X1X1X1X1X1X1X1X1X1X1X1X1X1X1X1X",
"1X1X1X1X1X1X1X1X1X1X1X1X1X1X1X1X1X1X1X1X1X1X1X1X1X1X1X1X1X1X1X1X1X1X1X1X1X1X1X1X1X1X1X1X1X1X1X1X1X1X1X1X1X1X1X1X1X1X1X1X1X1X1X1X",
"1X1X1X1X1X1X1X1X1X1X1X1X1X1X1X1X1X1X1X1X1X1X1X1X1X1X1X1X1X1X1X1X1X1X1X1X1X1X1X1X1X1X1X1X1X1X1X1X1X1X1X1X1X1X1X1X1X1X1X1X1X1X1X1X",
"1X1X1X1X1X1X1X1X1X1X1X1X1X1X1X1X1X1X1X1X1X1X1X1X1X1X1X1X1X1X1X1X1X1X1X1X1X1X1X1X1X1X1X1X1X1X1X1X1X1X1X1X1X1X1X1X1X1X1X1X1X1X1X1X"
};
