/* XPM */
static char *result[] = {
/* columns rows colors chars-per-pixel */
"64 64 177 2 ",
"   c #000000",
".  c #0C0000",
"X  c #00000C",
"o  c #030A0E",
"O  c #000B00",
"+  c #140000",
"@  c #1B0000",
"#  c #1C1201",
"$  c #11100F",
"%  c #050B10",
"&  c #0C0E12",
"*  c #0A1219",
"=  c #131312",
"-  c #1A1613",
";  c #1E1A15",
":  c #161719",
">  c #260000",
",  c #251400",
"<  c #3C1D00",
"1  c #241D16",
"2  c #241E19",
"3  c #3B2C0F",
"4  c #26211A",
"5  c #2B231A",
"6  c #32271E",
"7  c #342A1F",
"8  c #0C1923",
"9  c #00113E",
"0  c #181F27",
"q  c #17222D",
"w  c #132B3D",
"e  c #292625",
"r  c #362C22",
"t  c #392D21",
"y  c #3E3124",
"u  c #252D36",
"i  c #453100",
"p  c #483010",
"a  c #433525",
"s  c #4D3C2B",
"d  c #403629",
"f  c #513F2C",
"g  c #7B2B2B",
"h  c #53402D",
"j  c #58452F",
"k  c #564431",
"l  c #5B4833",
"z  c #654F27",
"x  c #67553F",
"c  c #000B4F",
"v  c #001540",
"b  c #002E4D",
"n  c #11334A",
"m  c #003A5B",
"M  c #1B3E59",
"N  c #183A54",
"B  c #2C3B49",
"V  c #403B42",
"C  c #1C425D",
"Z  c #3E4853",
"A  c #1D4A69",
"S  c #004B77",
"D  c #1F4E70",
"F  c #1F5579",
"G  c #204E70",
"H  c #245375",
"J  c #21567A",
"K  c #30597A",
"L  c #715E46",
"P  c #625F5F",
"I  c #79644B",
"U  c #675C61",
"Y  c #676567",
"T  c #7C767C",
"R  c #7D7A7D",
"E  c #777678",
"W  c #6B6970",
"Q  c #AF0026",
"!  c #8C3439",
"~  c #8A2C33",
"^  c #C4002B",
"/  c #C70038",
"(  c #846E53",
")  c #8B7457",
"_  c #867054",
"`  c #957C5D",
"'  c #997F5F",
"]  c #897967",
"[  c #917A61",
"{  c #817B7E",
"}  c #998265",
"|  c #A38969",
" . c #A98D69",
".. c #AE916D",
"X. c #BB9D76",
"o. c #BFA17A",
"O. c #CE9774",
"+. c #C6A67C",
"@. c #E0A47F",
"#. c #005A8A",
"$. c #005884",
"%. c #1B5A83",
"&. c #265F86",
"*. c #26618A",
"=. c #286895",
"-. c #296B97",
";. c #2E75A5",
":. c #2E79AB",
">. c #2F7DB2",
",. c #307FB4",
"<. c #337AAC",
"1. c #677181",
"2. c #687383",
"3. c #827D83",
"4. c #3181B7",
"5. c #3284BB",
"6. c #3885BC",
"7. c #3985BB",
"8. c #3489C3",
"9. c #368FCA",
"0. c #3791CE",
"q. c #3891CD",
"w. c #3694D1",
"e. c #3C98D7",
"r. c #3A9FE1",
"t. c #1DAFFD",
"y. c #1EB4FF",
"u. c #0CA5F0",
"i. c #3DA0E2",
"p. c #3FA5EA",
"a. c #26B4FF",
"s. c #42A5E7",
"d. c #43ADF4",
"f. c #45B6FE",
"g. c #46B9FF",
"h. c #49BDFF",
"j. c #4DC7FF",
"k. c #50C6FF",
"l. c #848184",
"z. c #898689",
"x. c #8C8B8C",
"c. c #87838A",
"v. c #908F90",
"b. c #939193",
"n. c #99939A",
"m. c #A29DA5",
"M. c #AA9FA4",
"N. c #AD9FAE",
"B. c #ADA5AD",
"V. c #B3A7AC",
"C. c #B3ABB3",
"Z. c #B5AEB9",
"A. c #BCB3BB",
"S. c #D9B689",
"D. c #D6B489",
"F. c #DFBC90",
"G. c #CCB196",
"H. c #ECAF89",
"J. c #E6BA8A",
"K. c #EBC795",
"L. c #E7C394",
"P. c #F3CC9A",
"I. c #FFDA9D",
"U. c #FDD49F",
"Y. c #F7CB8F",
"T. c #DFC4AD",
"R. c #FDD5A1",
"E. c #FFDBA5",
"W. c #FFDFA8",
"Q. c #E4C3A4",
"!. c #FFE2AA",
"~. c #FFF6B9",
"^. c #97B8DF",
"/. c #95BFED",
"(. c #87B8EA",
"). c #C1B9C4",
"_. c None",
/* pixels */
"_._._._._._._._._._._._._._._._._._._._._._._._._._._._._._._._._._._._._._._._._._._._._._._._._._._._._._._._._._._._._._._._.",
"_._._._._._._._._._._._._._._._._._._._._._._._._._._._._._._._._._._._._._._._._._._._._._._._._._._._._._._._._._._._._._._._.",
"_._._._._._._._._._._._._._._._._._._._._._._._._._._._._._._._._._._._._._._._._._._._._._._._._._._._._._._._._._._._._._._._.",
"_._._._._._._._._._._._._._._._._._._._._._._._._._._._._._._._._._._._._._._._._._._._._._._._._._._._._._._._._._._._._._._._.",
"_._._._._._._._._._._._._._._._._._._._._._._._._._._._._._._._._._._._._._._._._._._._._._._._._._._._._._._._._._._._._._._._.",
"_._._._._._._._._._._._._._._._._._._._._._._._._._._._._._._._._._._._._._._._._._._._._._._._._._._._._._._._._._._._._._._._.",
"_._._._._._._._._._._._._._._._._._._._._._._._._._._._._._._._._._._._._._._._._._._._._._._._._._._._._._._._._._._._._._._._.",
"_._._._._._._._._._._._._._._._._._._._._._._._._._._._._._._._._._._._._._._._._._._._._._._._._._._._._._._._._._._._._._._._.",
"_._._._._._._._._._._._._._._._._._._._._._._._._._._._._._._._._._._._._._._._._._._._._._._._._._._._._._._._._._._._._._._._.",
"_._._._._._._._._._._._._._._._._._._._._._._._._._._._._._._._._._._._._._._._._._._._._._._._._._._._._._._._._._._._._._._._.",
"_._._._._._._._._._._._._._._._._._._._._._._._._._._._._._._._._._._._._._._._._._._._._._._._._._._._._._._._._._._._._._._._.",
"_._._._._._._._._._._._._._._._._._._._._._._._._._.& o o & o o & % % % o & % o _._._._._._._._._._._._._._._._._._._._._._._._.",
"_._._._._._._._._._._._._._._._._._._._._._._._._.4 5 5 5 5 5 5 5 5 5 5 5 5 5 5 _._._._._._._._._._._._._._._._._._._._._._._._.",
"_._._._._._._._._._._._._._._._._._._._._._.o % X 7 j j h h h h h h h h h h h h 5 X % o _._._._._._._._._._._._._._._._._._._._.",
"_._._._._._._._._._._._._._._._._._._._._._.7 7 6 y h h f h h h h h h f h f h h y 6 t 6 _._._._._._._._._._._._._._._._._._._._.",
"_._._._._._._._._._._._._._._._._._._._.& 4 h j h h h h h h h h h h h h h h h h h h j s : $ _._._._._._._._._._._._._._._._._._.",
"_._._._._._._._._._._._._._._._._._._._.& ; f h f h h f h h h h h h h h f h h h h s h s : & _._._._._._._._._._._._._._._._._._.",
"_._._._._._._._._._._._._._._._._._._._.& 1 f h h h h h h f s h f h f h h h f h h h h s - = _._._._._._._._._._._._._._._._._._.",
"_._._._._._._._._._._._._._._._._._._._.& 2 f h h h h h h h h h h h h h h h h f h h h s = & _._._._._._._._._._._._._._._._._._.",
"_._._._._._._._._._._._._._._._._._._._.- 2 f h s h f h h f f h h s h h h s h f h f j s 4 ; _._._._._._._._._._._._._._._._._._.",
"_._._._._._._._._._._._._._._._._._._._._._.- 7 j f f f h h h h h h h h h h f h h h 7 5     _._._._._._._._._._._._._._._._._._.",
"_._._._._._._._._._._._._._._._._._._.m.V.B.e 5 f s h h f h h h h h h h f h h h s s 4 4 h h _._._._._._._._._._._._._._._._._._.",
"_._._._._._._._._._._._._._._._._._._.A.G.+.    - 7 j s f h h h h h f h h f f j 5 =   5 +.X._._._._._._._._._._._._._._._._._._.",
"_._._._._._._._._._._._._._._._._._._.C.D.+.) L X r j j j s s h s f h s f h k k 4 ; I ` S.D._._._._._._._._._._._._._._._._._._.",
"_._._._._._._._._._._._._._._._._._._.C.R.E.!.K.  %   6 s l j l l l l l l h 1     y E.!.~.E._._._._._._._._._._._._._._._._._._.",
"_._._._._._._._._._._._._._._._._._._.C.T.Q.H.O.  [ J.L -                   L J.I   @.H.U._._._._._._._._._._._._._._._._._._._.",
"_._._._._._._._._._._._._._._._._._._.C.Z.N./ Q   ..!.R.D.( } [ ` ` ` } ) o.R.E.)   ^ ^ _._._._._._._._._._._._._._._._._._._._.",
"_._._._._._._._._._._._._._._._._._._.C.Z.C.! g    .E.U.E.E.E.E.E.E.E.E.E.E.R.E._   ! ~ _._._._._.3.3._._._._._._._._._._._._._.",
"_._._._._._._._._._._._._._._._._._._.C.Z.B.  O   ..!.R.R.U.R.R.R.R.R.R.U.U.E.E.)       _._._._._.b.l._._._._._._._._._._._._._.",
"_._._._._._._._._._._._._._._._._._._.C.C.C.M.{   x _ D.E.R.R.R.R.R.R.E.U.E.+.( h   U W T { T T T c.l._._._._._._._._._._._._._.",
"_._._._._._._._._._._._._._._._._._._.C.C.C.).m.  q   +.E.R.R.R.R.R.E.R.U.E.|   0 u c.c.3.3.l.x.v.x.l._._._._._._._._._._._._._.",
"_._._._._._._._._._._._._._._._._._._.C.A.C.i K f.6.@ h z W 2.2.1.1.W 2.Y z a @ e.d.B i 3.3.l.x.x.x.l._._._._._._._._._._._._._.",
"_._._._._._._._._._._._._._._._._._._.B.C.m.B -.j.w.  b v S #.#.#.#.#.#.S 9 b 8 p.f.F Z c.c.z.x.z.x.l._._._._._._._._._._._._._.",
"_._._._._._._._._._._._._._._._._._._.C.V c t.a.g.p.5.5.6.6.6.6.6.6.6.6.6.6.8.5.d.g.y.u.  Z v.x.x.x.l._._._._._._._._._._._._._.",
"_._._._._._._._._._._._._._._._._._._.n.` ] /.(.r.0.;.4.8.5.5.5.5.5.5.5.5.5.>.;.w.s././.) ) E R x.x.l._._._._._._._._._._._._._.",
"_._._._._._._._._._._._._._._._._._.    P.W.I.J.  +   *.9.8.8.8.8.8.8.8.8.9.D +   < Y.I.!.F.  Y x.x.l._._._._._._._._._._._._._.",
"_._._._._._._._._._._._._._._._._._.X 4 K.R.E.F.  H 5.;.=.=.=.=.=.=.=.=.=.=.;.7.m 3 P.R.E.S.  Y b.x.l._._._._._._._._._._._._._.",
"_._._._._._._._._._._._._._._._._._.X 5 P.!.!.K.  <.k.;.    . . . . . .     9.k.$.< R.E.!.F.  Y x.x.l._._._._._._._._._._._._._.",
"_._._._._._._._._._._._._._._._._._._._.| ....}   :.g.e.9.:.=.D A A J =.,.q.s.g.%.> } ....} W 2.x.b.l._._._._._._._._._._._._._.",
"_._._._._._._._._._._._._._._._._._._._.      X . :.h.h.h.e.5.*.F F =.5.r.h.g.g.*.        Z b.x.l.R R _._._._._._._._._._._._._.",
"_._._._._._._._._._._._._._._._._._._._._._._._.+ C *.,.0.p.d.s.p.p.p.d.i.0.:.&.n # E } R } c.x.l._._._._._._._._._._._._._._._.",
"_._._._._._._._._._._._._._._._._._._._._._._._.* +   *.4.p.g.f.f.g.f.g.i.>.G .   e c.v.x.x.c.b.l._._._._._._._._._._._._._._._.",
"_._._._._._._._._._._._._._._._._._._._._._._._.o : q w n M C M M M M M N n w q *   2.b.x.x.z.T _._._._._._._._._._._._._._._._.",
"_._._._._._._._._._._._._._._._._._._._._._._._.2 ; $ # , + . . . . . . @ , # $ 2 # E 2.{ 3.3._._._._._._._._._._._._._._._._._.",
"_._._._._._._._._._._._._._._._._._._._._._.o 5 h a X a j e * _._._._.* r k r X s j 1 & _._._._._._._._._._._._._._._._._._._._.",
"_._._._._._._._._._._._._._._._._._._._._._.% 5 j a 2 a k 5 % _._._._.o r k y 2 s f ; o _._._._._._._._._._._._._._._._._._._._.",
"_._._._._._._._._._._._._._._._._._._._._._.o 6 k j k k j 6 % _._._._.% t k k k j f 2 & _._._._._._._._._._._._._._._._._._._._.",
"_._._._._._._._._._._._._._._._._._._._._._._.5 y a t y y 5 % _._._._.o r y y y t a 1 _._._._._._._._._._._._._._._._._._._._._.",
"_._._._._._._._._._._._._._._._._._._._._._._._.% o % o % _._._._._._._._.% % o % % _._._._._._._._._._._._._._._._._._._._._._.",
"_._._._._._._._._._._._._._._._._._._._._._._._._._._._._._._._._._._._._._._._._._._._._._._._._._._._._._._._._._._._._._._._.",
"_._._._._._._._._._._._._._._._._._._._._._._._._._._._._._._._._._._._._._._._._._._._._._._._._._._._._._._._._._._._._._._._.",
"_._._._._._._._._._._._._._._._._._._._._._._._._._._._._._._._._._._._._._._._._._._._._._._._._._._._._._._._._._._._._._._._.",
"_._._._._._._._._._._._._._._._._._._._._._._._._._._._._._._._._._._._._._._._._._._._._._._._._._._._._._._._._._._._._._._._.",
"_._._._._._._._._._._._._._._._._._._._._._._._._._._._._._._._._._._._._._._._._._._._._._._._._._._._._._._._._._._._._._._._.",
"_._._._._._._._._._._._._._._._._._._._._._._._._._._._._._._._._._._._._._._._._._._._._._._._._._._._._._._._._._._._._._._._.",
"_._._._._._._._._._._._._._._._._._._._._._._._._._._._._._._._._._._._._._._._._._._._._._._._._._._._._._._._._._._._._._._._.",
"_._._._._._._._._._._._._._._._._._._._._._._._._._._._._._._._._._._._._._._._._._._._._._._._._._._._._._._._._._._._._._._._.",
"_._._._._._._._._._._._._._._._._._._._._._._._._._._._._._._._._._._._._._._._._._._._._._._._._._._._._._._._._._._._._._._._.",
"_._._._._._._._._._._._._._._._._._._._._._._._._._._._._._._._._._._._._._._._._._._._._._._._._._._._._._._._._._._._._._._._.",
"_._._._._._._._._._._._._._._._._._._._._._._._._._._._._._._._._._._._._._._._._._._._._._._._._._._._._._._._._._._._._._._._.",
"_._._._._._._._._._._._._._._._._._._._._._._._._._._._._._._._._._._._._._._._._._._._._._._._._._._._._._._._._._._._._._._._.",
"_._._._._._._._._._._._._._._._._._._._._._._._._._._._._._._._._._._._._._._._._._._._._._._._._._._._._._._._._._._._._._._._.",
"_._._._._._._._._._._._._._._._._._._._._._._._._._._._._._._._._._._._._._._._._._._._._._._._._._._._._._._._._._._._._._._._.",
"_._._._._._._._._._._._._._._._._._._._._._._._._._._._._._._._._._._._._._._._._._._._._._._._._._._._._._._._._._._._._._._._."
};
